<svg width="26" height="26" viewBox="0 0 26 26" fill="none" xmlns="http://www.w3.org/2000/svg">
<mask id="mask0_1289_12627" style="mask-type:alpha" maskUnits="userSpaceOnUse" x="0" y="0" width="26" height="26">
<rect x="0.5" y="0.5" width="25" height="25" fill="#D9D9D9"/>
</mask>
<g mask="url(#mask0_1289_12627)">
<path d="M5.70833 20.2923H7.16667L16.151 11.3079L14.6927 9.84961L5.70833 18.834V20.2923ZM20.6042 9.79753L16.1771 5.42253L17.6354 3.96419C18.0347 3.56489 18.5252 3.36523 19.1068 3.36523C19.6884 3.36523 20.1788 3.56489 20.5781 3.96419L22.0365 5.42253C22.4358 5.82183 22.6441 6.3036 22.6615 6.86784C22.6788 7.43207 22.4878 7.91385 22.0885 8.31315L20.6042 9.79753ZM19.0938 11.334L8.05208 22.3757H3.625V17.9486L14.6667 6.9069L19.0938 11.334Z" fill="#023DA7"/>
</g>
</svg>
