<?xml version="1.0" encoding="UTF-8" standalone="no"?><!-- Generator: Gravit.io --><svg xmlns="http://www.w3.org/2000/svg" xmlns:xlink="http://www.w3.org/1999/xlink" style="isolation:isolate" viewBox="0 288 1280 332.156" width="1280pt" height="332.156pt"><g><rect x="208.504" y="288" width="829.956" height="122.292" transform="matrix(1,0,0,1,0,0)" fill="none"/><path d=" M 329.088 368.929 L 209.718 368.929 C 214.897 352.419 231.569 351.799 239.257 353.552 C 239.904 349.02 243.843 344.65 245.731 343.031 C 252.529 337.852 260.703 339.524 263.94 341.008 C 266.854 333.886 274.056 331.027 277.293 330.487 C 286.034 328.221 292.265 334.669 294.288 338.176 C 298.497 337.528 301.977 339.255 303.191 340.199 C 307.399 343.112 307.911 348.696 307.642 351.124 C 322.209 353.714 328.009 364.073 329.088 368.929 Z " fill="rgb(255,255,255)"/><path d=" M 231.732 353.822 C 234.161 353.822 236.59 354.234 238.951 355.049 C 239.252 355.153 239.582 355.118 239.856 354.955 C 240.129 354.791 240.317 354.516 240.367 354.202 C 241.659 346.27 248.427 340.514 256.461 340.514 C 258.953 340.514 261.368 341.08 263.639 342.195 C 263.913 342.33 264.233 342.342 264.518 342.228 C 264.801 342.113 265.025 341.885 265.13 341.596 C 267.407 335.355 273.391 331.162 280.019 331.162 C 285.548 331.162 290.592 333.985 293.513 338.713 C 293.741 339.082 294.162 339.282 294.595 339.213 C 295.203 339.119 295.714 339.075 296.205 339.075 C 301.979 339.075 306.676 343.773 306.676 349.546 C 306.676 349.976 306.641 350.431 306.566 350.977 C 306.527 351.264 306.604 351.555 306.782 351.785 C 306.959 352.014 307.221 352.161 307.509 352.196 C 316.594 353.258 324.268 359.337 327.436 367.85 L 211.112 367.85 C 214.434 359.4 222.542 353.822 231.732 353.822 Z  M 209.584 370.007 L 328.941 370.007 C 329.282 370.007 329.604 369.846 329.808 369.57 C 330.01 369.295 330.072 368.941 329.972 368.614 C 327.006 358.897 318.769 351.767 308.814 350.197 C 308.826 349.974 308.835 349.758 308.835 349.546 C 308.835 342.582 303.17 336.917 296.205 336.917 C 295.813 336.917 295.404 336.94 294.967 336.987 C 291.604 331.975 286.068 329.004 280.019 329.004 C 272.876 329.004 266.393 333.288 263.536 339.778 C 261.276 338.833 258.902 338.356 256.461 338.356 C 247.782 338.356 240.406 344.29 238.477 352.634 C 236.262 351.99 233.999 351.664 231.732 351.664 C 221.098 351.664 211.783 358.471 208.555 368.601 C 208.451 368.929 208.509 369.288 208.713 369.566 C 208.914 369.844 209.238 370.007 209.584 370.007 Z " fill="rgb(43,43,42)"/><path d=" M 437.532 304.995 C 447.891 303.377 455.876 310.795 458.574 314.707 L 335.562 314.707 C 336.21 307.585 342.846 301.488 346.083 299.33 C 355.471 293.503 364.832 295.553 368.338 297.307 C 374.489 289.214 382.501 288.54 385.738 289.214 C 395.773 289.861 400.17 297.846 401.114 301.758 C 407.265 298.845 415.277 301.623 418.514 303.377 C 416.895 300.139 418.109 296.633 418.919 295.284 C 422.803 287.515 430.249 288.809 433.486 290.428 C 441.255 295.284 439.42 302.163 437.532 304.995 Z " fill="rgb(255,255,255)"/><path d=" M 359.264 296.632 C 362.364 296.632 365.379 297.23 368.228 298.408 C 368.71 298.609 369.266 298.436 369.547 297.997 C 372.716 293.089 378.081 290.158 383.901 290.158 C 391.324 290.158 397.853 294.904 400.146 301.967 C 400.234 302.24 400.427 302.467 400.684 302.596 C 400.94 302.727 401.237 302.748 401.509 302.659 C 407.099 300.819 413.237 301.612 418.151 304.747 C 418.55 305 419.069 304.967 419.429 304.661 C 419.789 304.355 419.911 303.85 419.725 303.415 C 419.223 302.235 418.97 300.982 418.97 299.689 C 418.97 294.434 423.245 290.158 428.501 290.158 C 433.756 290.158 438.032 294.434 438.032 299.689 C 438.032 301.367 437.58 303.027 436.725 304.489 C 436.521 304.84 436.53 305.278 436.751 305.62 C 436.972 305.961 437.366 306.147 437.771 306.106 C 438.536 306.025 439.29 305.985 440.011 305.985 C 446.282 305.985 452.177 308.773 456.158 313.538 L 336.737 313.538 C 339.627 303.517 348.705 296.632 359.264 296.632 Z  M 335.345 315.696 L 458.323 315.696 C 458.722 315.696 459.088 315.475 459.276 315.122 C 459.463 314.769 459.44 314.341 459.215 314.01 C 454.885 307.633 447.706 303.826 440.011 303.826 C 439.817 303.826 439.622 303.829 439.424 303.834 C 439.928 302.511 440.19 301.106 440.19 299.689 C 440.19 293.244 434.946 288 428.501 288 C 422.055 288 416.811 293.244 416.811 299.689 C 416.811 300.344 416.865 300.992 416.972 301.627 C 412.304 299.398 406.894 298.902 401.844 300.303 C 398.99 292.901 391.907 288 383.901 288 C 377.642 288 371.85 291.008 368.233 296.092 C 365.365 295.018 362.352 294.474 359.264 294.474 C 347.234 294.474 336.965 302.658 334.292 314.376 C 334.22 314.697 334.296 315.032 334.502 315.289 C 334.706 315.546 335.017 315.696 335.345 315.696 Z " fill="rgb(43,43,42)"/><path d=" M 1037.619 409.393 L 912.988 409.393 C 912.341 396.121 922.158 392.263 927.151 391.993 C 937.51 391.67 941.985 398.872 942.932 402.514 C 947.464 401.543 953.453 402.919 955.881 403.728 C 956.204 393.369 963.302 385.384 966.806 382.687 C 977.489 374.594 989.061 376.617 993.512 378.64 C 1003.871 382.201 1009.156 392.263 1010.507 396.849 C 1016.011 394.259 1021.7 394.96 1023.861 395.635 C 1031.954 396.93 1036.405 405.347 1037.619 409.393 Z " fill="rgb(255,255,255)"/><path d=" M 928.276 393.028 C 934.548 393.028 940.051 397.039 941.969 403.01 C 942.131 403.514 942.633 403.82 943.159 403.747 C 947.326 403.111 951.664 403.535 955.622 404.98 C 955.945 405.1 956.309 405.054 956.593 404.857 C 956.884 404.662 957.062 404.339 957.07 403.992 C 957.402 389.616 969.379 377.921 983.761 377.921 C 995.552 377.921 1006.097 385.824 1009.391 397.14 C 1009.488 397.446 1009.706 397.698 1009.998 397.826 C 1010.289 397.955 1010.621 397.946 1010.912 397.803 C 1013.437 396.543 1016.132 395.905 1018.916 395.905 C 1026.685 395.905 1033.491 400.868 1035.935 408.135 L 913.911 408.135 C 913.895 407.889 913.887 407.65 913.887 407.414 C 913.887 399.482 920.345 393.028 928.276 393.028 Z  M 912.924 410.292 L 1037.376 410.292 C 1037.708 410.292 1038.023 410.139 1038.226 409.876 C 1038.436 409.614 1038.509 409.272 1038.428 408.949 C 1036.162 399.998 1028.142 393.747 1018.916 393.747 C 1016.213 393.747 1013.583 394.284 1011.09 395.345 C 1007.149 383.754 996.086 375.763 983.761 375.763 C 968.7 375.763 956.091 387.625 954.982 402.491 C 951.365 401.386 947.513 401.045 943.725 401.493 C 941.281 395.102 935.187 390.869 928.276 390.869 C 919.155 390.869 911.734 398.291 911.734 407.414 C 911.734 408.029 911.774 408.659 911.855 409.342 C 911.92 409.884 912.381 410.292 912.924 410.292 Z " fill="rgb(43,43,42)"/><g><rect x="38.554" y="495.22" width="145.672" height="99.542" transform="matrix(1,0,0,1,0,0)" fill="rgb(255,255,255)"/><path d=" M 173.705 549.443 L 211.337 533.257 L 248.968 549.443 L 248.968 594.763 L 173.705 594.763 L 173.705 549.443 Z " fill="rgb(255,255,255)"/><path d=" M 84.683 549.443 L 111.39 533.257 L 138.096 549.443 L 138.096 594.763 L 84.683 594.763 L 84.683 549.443 Z " fill="rgb(255,255,255)"/><path d=" M 168.444 551.466 L 166.016 546.205 L 210.932 526.783 L 256.252 546.205 L 253.824 551.466 L 210.932 533.257 L 168.444 551.466 Z " fill="rgb(1,61,167)"/><path d=" M 79.827 551.87 L 76.995 547.015 L 111.39 526.378 L 145.784 547.015 L 142.952 551.87 L 111.39 533.257 L 79.827 551.87 Z " fill="rgb(1,61,167)"/><path d=" M 191.509 495.22 L 31.27 495.22 L 48.265 467.3 L 174.514 467.3 L 191.509 495.22 Z " fill="rgb(1,61,167)"/><rect x="54.74" y="506.55" width="24.279" height="24.279" transform="matrix(1,0,0,1,0,0)" fill="rgb(209,227,255)"/><rect x="143.761" y="506.55" width="24.279" height="24.279" transform="matrix(1,0,0,1,0,0)" fill="rgb(209,227,255)"/><rect x="104.915" y="506.55" width="12.949" height="12.139" transform="matrix(1,0,0,1,0,0)" fill="rgb(209,227,255)"/><rect x="54.74" y="556.726" width="16.186" height="24.279" transform="matrix(1,0,0,1,0,0)" fill="rgb(209,227,255)"/><rect x="151.854" y="556.726" width="16.186" height="24.279" transform="matrix(1,0,0,1,0,0)" fill="rgb(209,227,255)"/><rect x="101.678" y="559.963" width="19.423" height="34.799" transform="matrix(1,0,0,1,0,0)" fill="rgb(242,139,2)"/><rect x="184.225" y="556.726" width="54.222" height="38.036" transform="matrix(1,0,0,1,0,0)" fill="rgb(255,255,255)"/><rect x="105.725" y="563.2" width="11.33" height="23.469" transform="matrix(1,0,0,1,0,0)" fill="rgb(209,227,255)"/><rect x="145.38" y="454.756" width="16.186" height="12.139" transform="matrix(1,0,0,1,0,0)" fill="rgb(242,139,2)"/><rect x="142.952" y="450.71" width="21.041" height="4.046" transform="matrix(1,0,0,1,0,0)" fill="rgb(242,139,2)"/><circle vector-effect="non-scaling-stroke" cx="211.33655260946986" cy="544.991464753781" r="2.8325044042914556" fill="rgb(242,139,2)"/><path d=" M 55.712 507.329 L 77.833 507.329 L 77.833 529.45 L 55.712 529.45 L 55.712 507.329 Z  M 54.633 531.607 L 78.911 531.607 C 79.508 531.607 79.99 531.124 79.99 530.529 L 79.99 506.25 C 79.99 505.654 79.508 505.171 78.911 505.171 L 54.633 505.171 C 54.037 505.171 53.554 505.654 53.554 506.25 L 53.554 530.529 C 53.554 531.124 54.037 531.607 54.633 531.607 Z " fill="rgb(26,46,53)"/><path d=" M 55.712 558.044 L 69.74 558.044 L 69.74 580.166 L 55.712 580.166 L 55.712 558.044 Z  M 54.633 582.323 L 70.818 582.323 C 71.415 582.323 71.897 581.84 71.897 581.244 L 71.897 556.966 C 71.897 556.369 71.415 555.887 70.818 555.887 L 54.633 555.887 C 54.037 555.887 53.554 556.369 53.554 556.966 L 53.554 581.244 C 53.554 581.84 54.037 582.323 54.633 582.323 Z " fill="rgb(26,46,53)"/><path d=" M 144.733 507.329 L 166.854 507.329 L 166.854 529.45 L 144.733 529.45 L 144.733 507.329 Z  M 143.654 531.607 L 167.933 531.607 C 168.529 531.607 169.012 531.124 169.012 530.529 L 169.012 506.25 C 169.012 505.654 168.529 505.171 167.933 505.171 L 143.654 505.171 C 143.059 505.171 142.575 505.654 142.575 506.25 L 142.575 530.529 C 142.575 531.124 143.059 531.607 143.654 531.607 Z " fill="rgb(26,46,53)"/><path d=" M 152.826 558.044 L 166.854 558.044 L 166.854 580.166 L 152.826 580.166 L 152.826 558.044 Z  M 150.668 556.966 L 150.668 581.244 C 150.668 581.84 151.151 582.323 151.747 582.323 L 167.933 582.323 C 168.529 582.323 169.012 581.84 169.012 581.244 L 169.012 556.966 C 169.012 556.369 168.529 555.887 167.933 555.887 L 151.747 555.887 C 151.151 555.887 150.668 556.369 150.668 556.966 Z " fill="rgb(26,46,53)"/><path d=" M 106.158 507.375 L 116.408 507.375 L 116.408 517.625 L 106.158 517.625 L 106.158 507.375 Z  M 105.078 519.784 L 117.488 519.784 C 118.084 519.784 118.566 519.301 118.566 518.705 L 118.566 506.295 C 118.566 505.699 118.084 505.217 117.488 505.217 L 105.078 505.217 C 104.482 505.217 103.999 505.699 103.999 506.295 L 103.999 518.705 C 103.999 519.301 104.482 519.784 105.078 519.784 Z " fill="rgb(26,46,53)"/><path d=" M 116.139 585.56 L 106.427 585.56 L 106.427 564.519 L 116.139 564.519 L 116.139 585.56 Z  M 117.218 562.361 L 105.348 562.361 C 104.753 562.361 104.27 562.844 104.27 563.44 L 104.27 586.64 C 104.27 587.235 104.753 587.719 105.348 587.719 L 117.218 587.719 C 117.815 587.719 118.297 587.235 118.297 586.64 L 118.297 563.44 C 118.297 562.844 117.815 562.361 117.218 562.361 Z " fill="rgb(26,46,53)"/><path d=" M 211.071 546.714 C 210.178 546.714 209.453 545.988 209.453 545.096 C 209.453 544.203 210.178 543.477 211.071 543.477 C 211.963 543.477 212.69 544.203 212.69 545.096 C 212.69 545.988 211.963 546.714 211.071 546.714 Z  M 211.071 541.319 C 208.988 541.319 207.294 543.013 207.294 545.096 C 207.294 547.178 208.988 548.872 211.071 548.872 C 213.153 548.872 214.847 547.178 214.847 545.096 C 214.847 543.013 213.153 541.319 211.071 541.319 Z " fill="rgb(26,46,53)"/><path d=" M 211.496 532.235 C 211.36 532.176 211.215 532.147 211.071 532.147 C 210.926 532.147 210.781 532.176 210.645 532.235 L 172.879 548.42 L 172.878 548.42 L 168.864 550.141 L 167.376 546.67 L 211.071 527.943 L 236.921 539.021 L 240.846 540.705 L 240.847 540.705 L 254.766 546.67 L 253.278 550.141 L 211.496 532.235 Z  M 247.759 593.653 L 239.126 593.653 L 239.126 556.965 C 239.126 556.368 238.643 555.886 238.047 555.886 L 184.094 555.886 C 183.499 555.886 183.016 556.368 183.016 556.965 L 183.016 593.653 L 174.383 593.653 L 174.383 550.124 L 211.071 534.4 L 247.759 550.123 L 247.759 593.653 Z  M 236.968 559.663 L 185.174 559.663 L 185.174 558.044 L 236.968 558.044 L 236.968 559.663 Z  M 236.968 563.439 L 185.174 563.439 L 185.174 561.821 L 236.968 561.821 L 236.968 563.439 Z  M 236.968 567.216 L 185.174 567.216 L 185.174 565.598 L 236.968 565.598 L 236.968 567.216 Z  M 236.968 570.993 L 185.174 570.993 L 185.174 569.374 L 236.968 569.374 L 236.968 570.993 Z  M 236.968 574.769 L 185.174 574.769 L 185.174 573.151 L 236.968 573.151 L 236.968 574.769 Z  M 236.968 578.546 L 185.174 578.546 L 185.174 576.928 L 236.968 576.928 L 236.968 578.546 Z  M 236.968 582.323 L 185.174 582.323 L 185.174 580.704 L 236.968 580.704 L 236.968 582.323 Z  M 236.968 586.099 L 185.174 586.099 L 185.174 584.481 L 236.968 584.481 L 236.968 586.099 Z  M 236.968 589.876 L 185.174 589.876 L 185.174 588.258 L 236.968 588.258 L 236.968 589.876 Z  M 236.968 593.653 L 185.174 593.653 L 185.174 592.035 L 236.968 592.035 L 236.968 593.653 Z  M 172.225 593.653 L 139.339 593.653 L 139.339 551.318 L 142.269 553.075 C 142.442 553.18 142.635 553.229 142.823 553.229 C 143.19 553.229 143.547 553.043 143.749 552.706 L 146.802 547.618 C 146.95 547.372 146.993 547.078 146.925 546.8 C 146.854 546.522 146.678 546.285 146.433 546.137 L 111.84 525.379 C 111.496 525.175 111.071 525.175 110.728 525.379 L 76.134 546.137 C 75.889 546.285 75.711 546.522 75.643 546.8 C 75.572 547.078 75.617 547.372 75.763 547.618 L 78.817 552.706 C 79.123 553.216 79.785 553.384 80.298 553.075 L 83.228 551.318 L 83.228 593.653 L 50.059 593.653 C 50.536 592.23 50.782 590.746 50.782 589.219 C 50.782 582.433 45.937 576.759 39.527 575.468 L 39.527 496.539 L 183.041 496.539 L 183.041 537.608 L 165.534 545.112 C 164.987 545.346 164.733 545.98 164.968 546.527 L 167.306 551.983 C 167.418 552.247 167.63 552.454 167.896 552.561 C 168.164 552.668 168.459 552.663 168.723 552.549 L 172.225 551.049 L 172.225 593.653 Z  M 111.84 532.301 C 111.496 532.096 111.071 532.096 110.728 532.301 L 80.112 550.67 L 78.17 547.431 L 111.284 527.563 L 144.396 547.431 L 142.454 550.67 L 111.84 532.301 Z  M 137.181 593.653 L 122.074 593.653 L 122.074 559.663 C 122.074 559.066 121.591 558.583 120.995 558.583 L 101.572 558.583 C 100.977 558.583 100.493 559.066 100.493 559.663 L 100.493 593.653 L 85.386 593.653 L 85.386 550.023 L 111.284 534.484 L 137.181 550.023 L 137.181 593.653 Z  M 119.916 593.653 L 102.651 593.653 L 102.651 560.742 L 119.916 560.742 L 119.916 593.653 Z  M 47.765 593.653 L 38.448 593.653 L 7.246 593.653 C 6.892 592.504 6.713 591.32 6.713 590.121 C 6.713 583.475 12.12 578.069 18.766 578.069 C 21.69 578.069 24.511 579.131 26.709 581.061 C 27.141 581.44 27.797 581.411 28.198 580.997 C 30.459 578.644 33.498 577.349 36.755 577.349 C 43.299 577.349 48.624 582.673 48.624 589.219 C 48.624 590.756 48.335 592.245 47.765 593.653 Z  M 32.825 494.38 L 48.762 468.483 L 145.274 468.483 L 161.459 468.483 L 173.805 468.483 L 189.742 494.38 L 184.119 494.38 L 38.448 494.38 L 32.825 494.38 Z  M 160.381 466.325 L 146.352 466.325 L 146.352 456.074 L 160.381 456.074 L 160.381 466.325 Z  M 144.195 451.758 L 153.367 451.758 L 162.538 451.758 L 162.538 453.916 L 161.459 453.916 L 145.274 453.916 L 144.195 453.916 L 144.195 451.758 Z  M 219.793 517.322 C 219.436 517.114 218.99 517.13 218.646 517.362 C 216.083 519.098 213.086 520.016 209.979 520.016 C 201.449 520.016 194.508 513.076 194.508 504.546 C 194.508 497.352 199.391 491.165 206.381 489.499 C 206.785 489.405 207.098 489.087 207.187 488.682 C 208.064 484.669 209.907 480.853 212.513 477.648 C 212.863 477.219 212.83 476.595 212.438 476.203 C 210.874 474.647 210.013 472.576 210.013 470.371 C 210.013 465.835 213.703 462.144 218.24 462.144 C 221.787 462.144 224.921 464.408 226.043 467.775 C 226.218 468.301 226.76 468.613 227.301 468.487 C 231.369 467.581 235.719 467.652 239.755 468.699 C 240.115 468.791 240.495 468.694 240.765 468.442 C 243.643 465.744 247.398 464.256 251.339 464.256 C 259.867 464.256 266.805 471.196 266.805 479.723 C 266.805 483.869 265.184 487.764 262.239 490.69 C 261.998 490.93 261.883 491.272 261.933 491.609 C 261.982 491.947 262.187 492.241 262.488 492.405 C 265.895 494.247 268.011 497.795 268.011 501.664 C 268.011 506.564 264.54 510.882 259.758 511.933 C 259.45 512 259.186 512.198 259.039 512.476 C 258.889 512.754 258.868 513.082 258.983 513.376 C 259.4 514.454 259.612 515.587 259.612 516.742 C 259.612 521.907 255.409 526.108 250.245 526.108 C 246.917 526.108 243.908 524.394 242.199 521.521 C 241.951 521.105 241.456 520.905 240.985 521.034 C 240.517 521.162 240.192 521.589 240.192 522.074 L 240.192 538.076 L 233.826 535.349 L 231.56 534.376 L 231.56 521.854 C 231.56 521.297 231.137 520.832 230.582 520.78 C 226.752 520.417 223.121 519.255 219.793 517.322 Z  M 249.917 593.653 L 249.917 551.049 L 253.42 552.549 C 253.556 552.608 253.699 552.637 253.845 552.637 C 253.981 552.637 254.117 552.613 254.246 552.561 C 254.511 552.454 254.724 552.247 254.837 551.983 L 257.175 546.527 C 257.409 545.98 257.155 545.346 256.608 545.112 L 242.35 539.001 L 242.35 525.121 C 244.466 527.108 247.29 528.267 250.245 528.267 C 256.599 528.267 261.77 523.096 261.77 516.742 C 261.77 515.719 261.635 514.71 261.367 513.731 C 266.532 512.067 270.169 507.169 270.169 501.664 C 270.169 497.464 268.101 493.578 264.689 491.226 C 267.454 488.028 268.963 483.992 268.963 479.723 C 268.963 470.005 261.057 462.099 251.339 462.099 C 247.046 462.099 242.946 463.647 239.728 466.47 C 235.829 465.545 231.684 465.452 227.744 466.194 C 226.1 462.443 222.393 459.986 218.24 459.986 C 212.513 459.986 207.854 464.644 207.854 470.371 C 207.854 472.83 208.703 475.157 210.262 477.02 C 207.883 480.15 206.155 483.768 205.228 487.569 C 197.612 489.687 192.351 496.574 192.351 504.546 C 192.351 514.266 200.259 522.174 209.979 522.174 C 213.293 522.174 216.497 521.258 219.29 519.517 C 222.444 521.253 225.837 522.362 229.401 522.819 L 229.401 533.452 L 211.496 525.778 C 211.224 525.662 210.917 525.662 210.645 525.778 L 185.198 536.683 L 185.198 496.539 L 191.672 496.539 C 192.063 496.539 192.424 496.327 192.615 495.986 C 192.805 495.645 192.796 495.226 192.591 494.894 L 175.327 466.839 C 175.13 466.519 174.782 466.325 174.408 466.325 L 162.538 466.325 L 162.538 456.074 L 163.618 456.074 C 164.213 456.074 164.697 455.592 164.697 454.995 L 164.697 450.679 C 164.697 450.082 164.213 449.6 163.618 449.6 L 143.115 449.6 C 142.52 449.6 142.036 450.082 142.036 450.679 L 142.036 454.995 C 142.036 455.592 142.52 456.074 143.115 456.074 L 144.195 456.074 L 144.195 466.325 L 48.159 466.325 C 47.785 466.325 47.436 466.519 47.24 466.839 L 29.975 494.894 C 29.77 495.226 29.761 495.645 29.952 495.986 C 30.143 496.327 30.504 496.539 30.894 496.539 L 37.369 496.539 L 37.369 575.222 C 37.162 575.213 36.962 575.192 36.755 575.192 C 33.239 575.192 29.94 576.467 27.359 578.805 C 24.895 576.932 21.88 575.911 18.766 575.911 C 10.93 575.911 4.555 582.286 4.555 590.121 C 4.555 591.317 4.714 592.498 5.012 593.653 L 1.079 593.653 C 0.483 593.653 0 594.135 0 594.732 C 0 595.328 0.483 595.811 1.079 595.811 L 6.474 595.811 L 38.448 595.811 L 48.47 595.811 L 84.308 595.811 L 101.572 595.811 L 120.995 595.811 L 138.26 595.811 L 173.304 595.811 L 184.094 595.811 L 238.047 595.811 L 248.837 595.811 L 262.916 595.811 L 262.851 593.653 L 249.917 593.653 Z " fill="rgb(26,46,53)"/></g><clipPath id="_clipPath_xlEYqvkZZuHGebDpqOI1HobjI8fwv82o"><rect x="262.726" y="374.133" width="304.292" height="246.023" transform="matrix(1,0,0,1,0,0)" fill="rgb(255,255,255)"/></clipPath><g clip-path="url(#_clipPath_xlEYqvkZZuHGebDpqOI1HobjI8fwv82o)"><g><path d=" M 468.285 594.817 L 468.285 511.46 L 439.151 511.46 L 399.496 483.135 L 360.65 511.46 L 331.516 511.46 L 331.516 594.817 L 468.285 594.817 Z " fill="rgb(255,255,255)"/><path d=" M 360.65 511.46 L 327.469 511.46 L 327.469 507.414 L 359.031 507.414 L 399.9 477.47 L 440.769 507.414 L 472.332 507.414 L 472.332 511.46 L 439.151 511.46 L 399.9 483.135 L 360.65 511.46 Z " fill="rgb(1,61,167)"/><path d=" M 359.031 507.414 L 327.469 507.414 L 364.696 483.135 L 392.212 483.135 L 359.031 507.414 Z " fill="rgb(1,61,167)"/><path d=" M 440.769 507.414 L 472.332 507.414 L 435.104 483.135 L 407.589 483.135 L 440.769 507.414 Z " fill="rgb(1,61,167)"/><rect x="390.594" y="511.46" width="16.995" height="33.99" transform="matrix(1,0,0,1,0,0)" fill="rgb(209,227,255)"/><rect x="346.083" y="522.79" width="16.186" height="22.66" transform="matrix(1,0,0,1,0,0)" fill="rgb(209,227,255)"/><rect x="346.083" y="556.78" width="16.186" height="22.66" transform="matrix(1,0,0,1,0,0)" fill="rgb(209,227,255)"/><rect x="437.532" y="522.79" width="16.186" height="22.66" transform="matrix(1,0,0,1,0,0)" fill="rgb(209,227,255)"/><rect x="437.532" y="556.78" width="16.186" height="22.66" transform="matrix(1,0,0,1,0,0)" fill="rgb(209,227,255)"/><rect x="380.073" y="551.115" width="38.036" height="4.046" transform="matrix(1,0,0,1,0,0)" fill="rgb(1,61,167)"/><rect x="380.882" y="588.343" width="36.418" height="3.237" transform="matrix(1,0,0,1,0,0)" fill="rgb(242,139,2)"/><rect x="379.264" y="591.58" width="39.655" height="3.237" transform="matrix(1,0,0,1,0,0)" fill="rgb(242,139,2)"/><rect x="383.31" y="555.162" width="31.562" height="33.181" transform="matrix(1,0,0,1,0,0)" fill="rgb(242,139,2)"/><rect x="387.356" y="558.399" width="3.237" height="26.706" transform="matrix(1,0,0,1,0,0)" fill="rgb(209,227,255)"/><rect x="407.589" y="558.399" width="3.237" height="26.706" transform="matrix(1,0,0,1,0,0)" fill="rgb(209,227,255)"/><rect x="393.831" y="558.399" width="10.521" height="16.995" transform="matrix(1,0,0,1,0,0)" fill="rgb(209,227,255)"/><rect x="393.831" y="578.631" width="10.521" height="6.474" transform="matrix(1,0,0,1,0,0)" fill="rgb(209,227,255)"/><rect x="468.285" y="556.78" width="54.222" height="38.036" transform="matrix(1,0,0,1,0,0)" fill="rgb(209,227,255)"/><rect x="277.293" y="556.78" width="54.222" height="38.036" transform="matrix(1,0,0,1,0,0)" fill="rgb(209,227,255)"/><path d=" M 346.992 534.899 L 361.021 534.899 L 361.021 544.071 L 346.992 544.071 L 346.992 534.899 Z  M 361.021 532.741 L 346.992 532.741 L 346.992 523.569 L 361.021 523.569 L 361.021 532.741 Z  M 344.295 546.229 L 345.914 546.229 L 362.099 546.229 L 363.718 546.229 C 364.314 546.229 364.797 545.746 364.797 545.15 C 364.797 544.554 364.314 544.071 363.718 544.071 L 363.178 544.071 L 363.178 522.49 C 363.178 521.894 362.695 521.411 362.099 521.411 L 345.914 521.411 C 345.318 521.411 344.835 521.894 344.835 522.49 L 344.835 544.071 L 344.295 544.071 C 343.699 544.071 343.216 544.554 343.216 545.15 C 343.216 545.746 343.699 546.229 344.295 546.229 Z " fill="rgb(26,46,53)"/><path d=" M 392.177 534.899 L 406.206 534.899 L 406.206 544.071 L 392.177 544.071 L 392.177 534.899 Z  M 406.206 521.95 L 392.177 521.95 L 392.177 512.779 L 406.206 512.779 L 406.206 521.95 Z  M 392.177 524.109 L 406.206 524.109 L 406.206 532.741 L 392.177 532.741 L 392.177 524.109 Z  M 389.48 546.229 L 391.099 546.229 L 407.284 546.229 L 408.903 546.229 C 409.499 546.229 409.982 545.746 409.982 545.15 C 409.982 544.554 409.499 544.071 408.903 544.071 L 408.363 544.071 L 408.363 511.7 C 408.363 511.103 407.88 510.62 407.284 510.62 L 391.099 510.62 C 390.503 510.62 390.02 511.103 390.02 511.7 L 390.02 544.071 L 389.48 544.071 C 388.884 544.071 388.401 544.554 388.401 545.15 C 388.401 545.746 388.884 546.229 389.48 546.229 Z " fill="rgb(26,46,53)"/><path d=" M 438.711 534.899 L 452.74 534.899 L 452.74 544.071 L 438.711 544.071 L 438.711 534.899 Z  M 452.74 532.741 L 438.711 532.741 L 438.711 523.569 L 452.74 523.569 L 452.74 532.741 Z  M 436.014 546.229 L 437.633 546.229 L 453.818 546.229 L 455.437 546.229 C 456.033 546.229 456.516 545.746 456.516 545.15 C 456.516 544.554 456.033 544.071 455.437 544.071 L 454.897 544.071 L 454.897 522.49 C 454.897 521.894 454.414 521.411 453.818 521.411 L 437.633 521.411 C 437.037 521.411 436.554 521.894 436.554 522.49 L 436.554 544.071 L 436.014 544.071 C 435.418 544.071 434.935 544.554 434.935 545.15 C 434.935 545.746 435.418 546.229 436.014 546.229 Z " fill="rgb(26,46,53)"/><path d=" M 346.992 569.429 L 361.021 569.429 L 361.021 578.601 L 346.992 578.601 L 346.992 569.429 Z  M 361.021 567.271 L 346.992 567.271 L 346.992 558.099 L 361.021 558.099 L 361.021 567.271 Z  M 363.718 578.601 L 363.178 578.601 L 363.178 557.02 C 363.178 556.424 362.695 555.941 362.099 555.941 L 345.914 555.941 C 345.318 555.941 344.835 556.424 344.835 557.02 L 344.835 578.601 L 344.295 578.601 C 343.699 578.601 343.216 579.084 343.216 579.68 C 343.216 580.276 343.699 580.759 344.295 580.759 L 345.914 580.759 L 362.099 580.759 L 363.718 580.759 C 364.314 580.759 364.797 580.276 364.797 579.68 C 364.797 579.084 364.314 578.601 363.718 578.601 Z " fill="rgb(26,46,53)"/><path d=" M 438.711 569.429 L 452.74 569.429 L 452.74 578.601 L 438.711 578.601 L 438.711 569.429 Z  M 452.74 567.271 L 438.711 567.271 L 438.711 558.099 L 452.74 558.099 L 452.74 567.271 Z  M 436.014 580.759 L 437.633 580.759 L 453.818 580.759 L 455.437 580.759 C 456.033 580.759 456.516 580.276 456.516 579.68 C 456.516 579.084 456.033 578.601 455.437 578.601 L 454.897 578.601 L 454.897 557.02 C 454.897 556.424 454.414 555.941 453.818 555.941 L 437.633 555.941 C 437.037 555.941 436.554 556.424 436.554 557.02 L 436.554 578.601 L 436.014 578.601 C 435.418 578.601 434.935 579.084 434.935 579.68 C 434.935 580.276 435.418 580.759 436.014 580.759 Z " fill="rgb(26,46,53)"/><path d=" M 389.48 583.457 L 388.401 583.457 L 388.401 559.717 L 389.48 559.717 L 389.48 583.457 Z  M 390.559 557.56 L 387.322 557.56 C 386.726 557.56 386.243 558.042 386.243 558.639 L 386.243 584.536 C 386.243 585.131 386.726 585.614 387.322 585.614 L 390.559 585.614 C 391.154 585.614 391.638 585.131 391.638 584.536 L 391.638 558.639 C 391.638 558.042 391.154 557.56 390.559 557.56 Z " fill="rgb(26,46,53)"/><path d=" M 403.507 574.284 L 394.876 574.284 L 394.876 559.717 L 403.507 559.717 L 403.507 574.284 Z  M 404.587 557.56 L 393.796 557.56 C 393.2 557.56 392.717 558.042 392.717 558.639 L 392.717 575.364 C 392.717 575.96 393.2 576.443 393.796 576.443 L 404.587 576.443 C 405.183 576.443 405.666 575.96 405.666 575.364 L 405.666 558.639 C 405.666 558.042 405.183 557.56 404.587 557.56 Z " fill="rgb(26,46,53)"/><path d=" M 403.507 583.457 L 394.876 583.457 L 394.876 579.68 L 403.507 579.68 L 403.507 583.457 Z  M 404.587 577.522 L 393.796 577.522 C 393.2 577.522 392.717 578.004 392.717 578.601 L 392.717 584.536 C 392.717 585.131 393.2 585.614 393.796 585.614 L 404.587 585.614 C 405.183 585.614 405.666 585.131 405.666 584.536 L 405.666 578.601 C 405.666 578.004 405.183 577.522 404.587 577.522 Z " fill="rgb(26,46,53)"/><path d=" M 409.982 583.457 L 408.903 583.457 L 408.903 559.717 L 409.982 559.717 L 409.982 583.457 Z  M 411.06 557.56 L 407.823 557.56 C 407.228 557.56 406.745 558.042 406.745 558.639 L 406.745 584.536 C 406.745 585.131 407.228 585.614 407.823 585.614 L 411.06 585.614 C 411.656 585.614 412.14 585.131 412.14 584.536 L 412.14 558.639 C 412.14 558.042 411.656 557.56 411.06 557.56 Z " fill="rgb(26,46,53)"/><path d=" M 547.905 576.442 L 547.905 593.707 L 543.589 593.707 L 543.589 576.442 C 543.589 575.846 543.106 575.363 542.511 575.363 L 531.467 575.363 L 540.847 559.733 C 541.046 559.4 541.051 558.984 540.86 558.646 C 540.669 558.307 540.309 558.099 539.921 558.099 L 536.049 558.099 L 544.535 543.888 C 544.735 543.555 544.739 543.141 544.548 542.803 C 544.356 542.465 543.997 542.256 543.61 542.256 L 541.019 542.256 L 545.748 532.8 L 550.476 542.256 L 547.886 542.256 C 547.497 542.256 547.14 542.465 546.947 542.803 C 546.756 543.141 546.761 543.555 546.96 543.888 L 555.446 558.099 L 551.575 558.099 C 551.186 558.099 550.828 558.307 550.636 558.646 C 550.445 558.983 550.449 559.398 550.65 559.733 L 560.028 575.363 L 548.985 575.363 C 548.389 575.363 547.905 575.846 547.905 576.442 Z  M 550.064 593.707 L 550.064 577.522 L 561.933 577.522 C 562.322 577.522 562.681 577.313 562.872 576.975 C 563.064 576.636 563.058 576.221 562.858 575.887 L 553.481 560.256 L 557.347 560.256 C 557.736 560.256 558.094 560.048 558.286 559.709 C 558.477 559.373 558.473 558.957 558.273 558.624 L 549.788 544.414 L 552.222 544.414 C 552.596 544.414 552.942 544.221 553.14 543.902 C 553.336 543.584 553.353 543.187 553.187 542.853 L 546.713 529.904 C 546.347 529.172 545.147 529.172 544.781 529.904 L 538.307 542.853 C 538.141 543.187 538.158 543.584 538.355 543.902 C 538.552 544.221 538.899 544.414 539.273 544.414 L 541.708 544.414 L 533.222 558.624 C 533.022 558.957 533.018 559.373 533.209 559.709 C 533.401 560.048 533.759 560.256 534.147 560.256 L 538.015 560.256 L 528.637 575.887 C 528.436 576.22 528.431 576.635 528.623 576.975 C 528.814 577.313 529.173 577.522 529.562 577.522 L 541.431 577.522 L 541.431 593.707 L 525.167 593.707 C 525.186 594.427 525.206 595.145 525.231 595.865 L 542.511 595.865 L 548.985 595.865 L 567.36 595.865 C 567.292 595.146 567.229 594.428 567.171 593.707 L 550.064 593.707 Z " fill="rgb(26,46,53)"/><path d=" M 521.259 593.707 L 518.022 593.707 L 518.022 558.099 L 521.259 558.099 L 521.259 593.707 Z  M 516.362 555.434 C 516.292 555.606 516.21 555.771 516.133 555.941 L 511.547 555.941 L 506.153 555.941 L 500.757 555.941 L 495.361 555.941 L 489.967 555.941 L 484.571 555.941 L 479.176 555.941 L 473.781 555.941 L 469.464 555.941 L 469.464 534.523 C 474.652 531.358 481.046 530.827 486.681 533.126 C 490.418 534.651 493.526 537.264 495.666 540.681 C 495.828 540.94 496.092 541.118 496.393 541.171 C 496.692 541.226 497.002 541.148 497.244 540.96 C 500.745 538.238 505.464 537.585 509.56 539.255 C 512.63 540.507 515.027 542.879 516.312 545.935 C 517.597 548.991 517.615 552.364 516.362 555.434 Z  M 515.864 593.707 L 512.627 593.707 L 512.627 558.099 L 515.864 558.099 L 515.864 593.707 Z  M 510.468 593.707 L 507.231 593.707 L 507.231 558.099 L 510.468 558.099 L 510.468 593.707 Z  M 505.073 593.707 L 501.836 593.707 L 501.836 558.099 L 505.073 558.099 L 505.073 593.707 Z  M 499.678 593.707 L 496.441 593.707 L 496.441 558.099 L 499.678 558.099 L 499.678 593.707 Z  M 494.283 593.707 L 491.046 593.707 L 491.046 558.099 L 494.283 558.099 L 494.283 593.707 Z  M 488.887 593.707 L 485.65 593.707 L 485.65 558.099 L 488.887 558.099 L 488.887 593.707 Z  M 483.492 593.707 L 480.255 593.707 L 480.255 558.099 L 483.492 558.099 L 483.492 593.707 Z  M 478.097 593.707 L 474.86 593.707 L 474.86 558.099 L 478.097 558.099 L 478.097 593.707 Z  M 472.701 593.707 L 469.464 593.707 L 469.464 558.099 L 472.701 558.099 L 472.701 593.707 Z  M 439.361 510.621 L 400.345 481.966 C 399.966 481.685 399.447 481.685 399.068 481.966 L 360.052 510.621 L 331.347 510.621 L 328.109 510.621 L 328.109 508.463 L 358.99 508.463 C 359.22 508.463 359.445 508.388 359.629 508.252 L 399.706 478.819 L 439.785 508.252 C 439.969 508.388 440.193 508.463 440.423 508.463 L 471.623 508.463 L 471.623 510.621 L 468.386 510.621 L 439.361 510.621 Z  M 467.307 557.02 L 467.307 593.707 L 420.233 593.707 L 420.233 591.55 C 420.233 590.953 419.75 590.47 419.154 590.47 L 418.075 590.47 L 418.075 588.313 C 418.075 587.715 417.591 587.233 416.996 587.233 L 415.377 587.233 L 415.377 555.941 L 418.075 555.941 C 418.67 555.941 419.154 555.457 419.154 554.862 L 419.154 551.624 C 419.154 551.028 418.67 550.546 418.075 550.546 L 380.308 550.546 C 379.713 550.546 379.229 551.028 379.229 551.624 L 379.229 554.862 C 379.229 555.457 379.713 555.941 380.308 555.941 L 383.006 555.941 L 383.006 587.233 L 381.387 587.233 C 380.792 587.233 380.308 587.715 380.308 588.313 L 380.308 590.47 L 379.229 590.47 C 378.633 590.47 378.15 590.953 378.15 591.55 L 378.15 593.707 L 332.425 593.707 L 332.425 557.02 L 332.425 512.779 L 360.405 512.779 C 360.635 512.779 360.86 512.704 361.044 512.568 L 399.706 484.174 L 438.37 512.568 C 438.554 512.704 438.779 512.779 439.008 512.779 L 467.307 512.779 L 467.307 557.02 Z  M 414.298 589.391 L 415.917 589.391 L 415.917 590.47 L 382.466 590.47 L 382.466 589.391 L 384.085 589.391 L 414.298 589.391 Z  M 413.219 587.233 L 385.164 587.233 L 385.164 555.941 L 413.219 555.941 L 413.219 587.233 Z  M 384.085 553.783 L 381.387 553.783 L 381.387 552.704 L 416.996 552.704 L 416.996 553.783 L 414.298 553.783 L 384.085 553.783 Z  M 418.075 593.707 L 380.308 593.707 L 380.308 592.629 L 381.387 592.629 L 416.996 592.629 L 418.075 592.629 L 418.075 593.707 Z  M 364.959 483.915 L 389.124 483.915 L 358.637 506.304 L 330.655 506.304 L 364.959 483.915 Z  M 434.455 483.915 L 468.757 506.304 L 440.776 506.304 L 410.289 483.915 L 434.455 483.915 Z  M 330.267 555.941 L 325.951 555.941 L 320.555 555.941 L 315.161 555.941 L 309.765 555.941 L 304.37 555.941 L 298.975 555.941 L 293.58 555.941 L 288.184 555.941 L 282.789 555.941 L 280.789 555.941 C 281.819 550.105 286.976 545.69 293.01 545.69 C 294.108 545.69 295.204 545.836 296.266 546.125 C 296.562 546.205 296.876 546.157 297.133 545.991 C 297.39 545.827 297.565 545.56 297.615 545.259 C 299.14 535.973 307.086 529.235 316.509 529.235 C 321.688 529.235 326.67 531.37 330.267 535.086 L 330.267 555.941 Z  M 330.267 593.707 L 327.03 593.707 L 327.03 558.099 L 330.267 558.099 L 330.267 593.707 Z  M 324.872 593.707 L 321.635 593.707 L 321.635 558.099 L 324.872 558.099 L 324.872 593.707 Z  M 319.477 593.707 L 316.24 593.707 L 316.24 558.099 L 319.477 558.099 L 319.477 593.707 Z  M 314.081 593.707 L 310.844 593.707 L 310.844 558.099 L 314.081 558.099 L 314.081 593.707 Z  M 308.686 593.707 L 305.449 593.707 L 305.449 558.099 L 308.686 558.099 L 308.686 593.707 Z  M 303.291 593.707 L 300.054 593.707 L 300.054 558.099 L 303.291 558.099 L 303.291 593.707 Z  M 297.895 593.707 L 294.658 593.707 L 294.658 558.099 L 297.895 558.099 L 297.895 593.707 Z  M 292.501 593.707 L 289.264 593.707 L 289.264 558.099 L 292.501 558.099 L 292.501 593.707 Z  M 287.105 593.707 L 283.868 593.707 L 283.868 558.099 L 287.105 558.099 L 287.105 593.707 Z  M 281.71 593.707 L 278.473 593.707 L 278.473 558.099 L 281.71 558.099 L 281.71 593.707 Z  M 523.417 593.707 L 523.417 557.02 C 523.417 556.424 522.934 555.941 522.338 555.941 L 518.47 555.941 C 519.817 552.42 519.766 548.584 518.302 545.098 C 516.794 541.512 513.978 538.728 510.375 537.257 C 505.924 535.44 500.848 535.96 496.862 538.582 C 494.518 535.244 491.301 532.68 487.497 531.128 C 481.625 528.733 475.018 529.1 469.464 532.042 L 469.464 512.779 L 472.701 512.779 C 473.297 512.779 473.781 512.296 473.781 511.7 L 473.781 507.384 C 473.781 506.788 473.299 506.307 472.704 506.306 L 435.366 481.932 C 435.191 481.817 434.985 481.756 434.775 481.756 L 407.352 481.756 L 400.345 476.61 C 399.966 476.33 399.447 476.33 399.068 476.61 L 392.062 481.756 L 364.637 481.756 C 364.428 481.756 364.223 481.817 364.048 481.932 L 326.44 506.481 C 326.41 506.5 326.394 506.531 326.366 506.553 C 326.306 506.601 326.254 506.652 326.206 506.711 C 326.162 506.763 326.127 506.816 326.094 506.876 C 326.062 506.936 326.036 506.996 326.015 507.063 C 325.993 507.135 325.979 507.203 325.971 507.278 C 325.968 507.314 325.951 507.347 325.951 507.384 L 325.951 511.7 C 325.951 512.296 326.434 512.779 327.03 512.779 L 330.267 512.779 L 330.267 532.135 C 326.441 528.903 321.558 527.076 316.509 527.076 C 306.409 527.076 297.834 534.035 295.701 543.782 C 294.813 543.616 293.912 543.532 293.01 543.532 C 285.8 543.532 279.67 548.908 278.615 555.941 L 277.394 555.941 C 276.798 555.941 276.315 556.424 276.315 557.02 L 276.315 593.707 L 262.85 593.707 L 262.916 595.866 L 277.394 595.866 L 282.789 595.866 L 288.184 595.866 L 293.58 595.866 L 298.975 595.866 L 304.37 595.866 L 309.765 595.866 L 315.161 595.866 L 320.555 595.866 L 325.951 595.866 L 331.347 595.866 L 379.229 595.866 L 419.154 595.866 L 468.386 595.866 L 473.781 595.866 L 479.176 595.866 L 484.571 595.866 L 489.967 595.866 L 495.361 595.866 L 500.757 595.866 L 506.153 595.866 L 511.547 595.866 L 516.943 595.866 L 522.338 595.866 L 525.231 595.866 C 525.206 595.146 525.185 594.428 525.166 593.707 L 523.417 593.707 Z " fill="rgb(26,46,53)"/></g></g><clipPath id="_clipPath_PrvOaLEbMZQYXkk4U9XXSu4xQasuumHP"><rect x="539.502" y="374.133" width="206.368" height="246.023" transform="matrix(1,0,0,1,0,0)" fill="rgb(255,255,255)"/></clipPath><g clip-path="url(#_clipPath_PrvOaLEbMZQYXkk4U9XXSu4xQasuumHP)"><g><path d=" M 573.492 497.55 L 626.905 473.271 L 680.318 497.55 L 680.318 535.586 L 573.492 535.586 L 573.492 497.55 Z " fill="rgb(255,255,255)"/><path d=" M 564.186 502.405 L 560.949 499.168 L 627.31 468.415 L 693.672 498.763 L 690.434 502.405 L 627.31 473.271 L 564.186 502.405 Z " fill="rgb(1,61,167)"/><rect x="621.24" y="486.22" width="12.139" height="12.139" transform="matrix(1,0,0,1,0,0)" fill="rgb(209,227,255)"/><rect x="600.199" y="505.642" width="12.139" height="19.423" transform="matrix(1,0,0,1,0,0)" fill="rgb(209,227,255)"/><rect x="660.086" y="505.642" width="12.139" height="19.423" transform="matrix(1,0,0,1,0,0)" fill="rgb(209,227,255)"/><rect x="582.395" y="505.642" width="12.139" height="19.423" transform="matrix(1,0,0,1,0,0)" fill="rgb(209,227,255)"/><rect x="642.282" y="505.642" width="12.139" height="19.423" transform="matrix(1,0,0,1,0,0)" fill="rgb(209,227,255)"/><path d=" M 573.492 535.586 L 567.827 553.39 L 646.328 553.39 L 680.318 538.014 L 680.318 535.991 L 573.492 535.586 Z " fill="rgb(1,61,167)"/><path d=" M 573.492 553.39 L 573.492 594.664 L 656.04 594.664 L 656.04 553.795 L 650.779 556.223 L 647.947 553.39 L 573.492 553.39 Z " fill="rgb(255,255,255)"/><rect x="632.57" y="564.72" width="12.139" height="19.423" transform="matrix(1,0,0,1,0,0)" fill="rgb(209,227,255)"/><rect x="614.766" y="564.72" width="12.139" height="19.423" transform="matrix(1,0,0,1,0,0)" fill="rgb(209,227,255)"/><path d=" M 593.725 582.687 L 593.725 577.507 C 593.725 577.149 593.363 576.86 592.915 576.86 C 592.468 576.86 592.106 577.149 592.106 577.507 L 592.106 582.687 C 592.106 583.044 592.468 583.334 592.915 583.334 C 593.363 583.334 593.725 583.044 593.725 582.687 Z " fill="rgb(26,46,53)"/><path d=" M 731.303 594.664 L 656.849 594.664 L 656.849 553.39 L 694.076 536.395 L 731.303 553.795 L 731.303 594.664 Z " fill="rgb(255,255,255)"/><rect x="666.56" y="564.72" width="54.222" height="29.944" transform="matrix(1,0,0,1,0,0)" fill="rgb(242,139,2)"/><path d=" M 650.779 556.223 L 647.542 552.986 L 694.076 531.54 L 740.61 552.986 L 737.373 556.223 L 694.076 536.395 L 650.779 556.223 Z " fill="rgb(1,61,167)"/><path d=" M 625.643 568.197 L 615.392 568.197 L 615.392 566.039 L 625.643 566.039 L 625.643 568.197 Z  M 615.392 570.355 L 625.643 570.355 L 625.643 583.304 L 615.392 583.304 L 615.392 570.355 Z  M 614.313 585.462 L 626.722 585.462 C 627.317 585.462 627.8 584.978 627.8 584.383 L 627.8 564.96 C 627.8 564.363 627.317 563.881 626.722 563.881 L 614.313 563.881 C 613.716 563.881 613.233 564.363 613.233 564.96 L 613.233 584.383 C 613.233 584.978 613.716 585.462 614.313 585.462 Z " fill="rgb(26,46,53)"/><path d=" M 643.446 568.197 L 633.195 568.197 L 633.195 566.039 L 643.446 566.039 L 643.446 568.197 Z  M 633.196 570.355 L 643.447 570.355 L 643.447 583.304 L 633.196 583.304 L 633.196 570.355 Z  M 632.117 585.462 L 644.525 585.462 C 645.122 585.462 645.604 584.978 645.604 584.383 L 645.604 564.96 C 645.604 564.363 645.122 563.881 644.525 563.881 L 632.117 563.881 C 631.52 563.881 631.038 564.363 631.038 564.96 L 631.038 584.383 C 631.038 584.978 631.52 585.462 632.117 585.462 Z " fill="rgb(26,46,53)"/><path d=" M 593.541 508.85 L 583.291 508.85 L 583.291 506.691 L 593.541 506.691 L 593.541 508.85 Z  M 583.291 511.007 L 593.541 511.007 L 593.541 523.956 L 583.291 523.956 L 583.291 511.007 Z  M 582.211 526.114 L 594.621 526.114 C 595.216 526.114 595.699 525.631 595.699 525.035 L 595.699 505.612 C 595.699 505.015 595.216 504.533 594.621 504.533 L 582.211 504.533 C 581.614 504.533 581.132 505.015 581.132 505.612 L 581.132 525.035 C 581.132 525.631 581.614 526.114 582.211 526.114 Z " fill="rgb(26,46,53)"/><path d=" M 611.345 508.85 L 601.095 508.85 L 601.095 506.691 L 611.345 506.691 L 611.345 508.85 Z  M 601.095 511.007 L 611.345 511.007 L 611.345 523.956 L 601.095 523.956 L 601.095 511.007 Z  M 600.015 526.114 L 612.425 526.114 C 613.02 526.114 613.504 525.631 613.504 525.035 L 613.504 505.612 C 613.504 505.015 613.02 504.533 612.425 504.533 L 600.015 504.533 C 599.419 504.533 598.936 505.015 598.936 505.612 L 598.936 525.035 C 598.936 525.631 599.419 526.114 600.015 526.114 Z " fill="rgb(26,46,53)"/><path d=" M 671.142 508.85 L 660.891 508.85 L 660.891 506.691 L 671.142 506.691 L 671.142 508.85 Z  M 660.891 511.007 L 671.142 511.007 L 671.142 523.956 L 660.891 523.956 L 660.891 511.007 Z  M 659.812 526.114 L 672.221 526.114 C 672.818 526.114 673.3 525.631 673.3 525.035 L 673.3 505.612 C 673.3 505.015 672.818 504.533 672.221 504.533 L 659.812 504.533 C 659.215 504.533 658.733 505.015 658.733 505.612 L 658.733 525.035 C 658.733 525.631 659.215 526.114 659.812 526.114 Z " fill="rgb(26,46,53)"/><path d=" M 653.338 508.85 L 643.087 508.85 L 643.087 506.691 L 653.338 506.691 L 653.338 508.85 Z  M 643.087 511.007 L 653.338 511.007 L 653.338 523.956 L 643.087 523.956 L 643.087 511.007 Z  M 642.008 526.114 L 654.417 526.114 C 655.014 526.114 655.496 525.631 655.496 525.035 L 655.496 505.612 C 655.496 505.015 655.014 504.533 654.417 504.533 L 642.008 504.533 C 641.411 504.533 640.929 505.015 640.929 505.612 L 640.929 525.035 C 640.929 525.631 641.411 526.114 642.008 526.114 Z " fill="rgb(26,46,53)"/><path d=" M 622.09 487.268 L 632.341 487.268 L 632.341 497.52 L 622.09 497.52 L 622.09 487.268 Z  M 621.011 499.677 L 633.42 499.677 C 634.016 499.677 634.498 499.194 634.498 498.598 L 634.498 486.19 C 634.498 485.592 634.016 485.11 633.42 485.11 L 621.011 485.11 C 620.415 485.11 619.933 485.592 619.933 486.19 L 619.933 498.598 C 619.933 499.194 620.415 499.677 621.011 499.677 Z " fill="rgb(26,46,53)"/><path d=" M 698.263 587.979 L 689.631 587.979 C 689.034 587.979 688.551 588.462 688.551 589.058 C 688.551 589.654 689.034 590.137 689.631 590.137 L 698.263 590.137 C 698.86 590.137 699.342 589.654 699.342 589.058 C 699.342 588.462 698.86 587.979 698.263 587.979 Z " fill="rgb(26,46,53)"/><path d=" M 731.84 552.65 L 694.342 535.385 C 694.056 535.252 693.727 535.252 693.441 535.385 L 655.975 552.634 L 655.974 552.635 L 655.943 552.65 C 655.943 552.65 655.942 552.651 655.939 552.651 L 650.715 555.057 L 649.018 553.359 L 693.892 532.697 L 738.767 553.359 L 737.069 555.057 L 731.842 552.651 L 731.84 552.65 Z  M 730.31 593.554 L 721.947 593.554 L 721.947 564.959 C 721.947 564.363 721.465 563.88 720.868 563.88 L 666.916 563.88 C 666.318 563.88 665.836 564.363 665.836 564.959 L 665.836 593.554 L 657.474 593.554 L 657.474 554.321 L 693.892 537.553 L 730.31 554.321 L 730.31 593.554 Z  M 719.789 593.554 L 667.995 593.554 L 667.995 566.039 L 719.789 566.039 L 719.789 593.554 Z  M 655.315 593.554 L 606.22 593.554 L 606.22 564.959 C 606.22 564.363 605.737 563.88 605.141 563.88 L 589.495 563.88 C 588.898 563.88 588.416 564.363 588.416 564.959 L 588.416 593.554 L 574.388 593.554 L 574.388 554.709 L 647.316 554.709 L 649.721 557.115 C 650.04 557.434 650.527 557.52 650.935 557.332 L 655.315 555.315 L 655.315 593.554 Z  M 604.062 593.554 L 590.574 593.554 L 590.574 566.039 L 604.062 566.039 L 604.062 593.554 Z  M 569.368 552.55 L 574.108 536.904 L 679.055 536.904 L 679.055 537.154 L 646.708 552.046 C 646.481 552.151 646.303 552.331 646.196 552.55 L 569.368 552.55 Z  M 679.055 498.325 L 679.055 534.746 L 574.388 534.746 L 574.388 498.781 L 627.216 474.457 L 679.055 498.325 Z  M 564.293 501.054 L 562.595 499.354 L 627.216 469.602 L 691.836 499.354 L 690.139 501.054 L 627.667 472.289 C 627.524 472.224 627.369 472.191 627.216 472.191 C 627.062 472.191 626.908 472.224 626.764 472.289 L 573.01 497.04 C 572.912 497.068 572.826 497.11 572.741 497.164 L 564.293 501.054 Z  M 597.318 468.474 L 597.318 480.992 L 583.291 487.451 L 583.291 468.474 L 597.318 468.474 Z  M 581.672 464.158 L 598.936 464.158 L 598.936 466.316 L 598.397 466.316 L 582.211 466.316 L 581.672 466.316 L 581.672 464.158 Z  M 732.468 593.554 L 732.468 555.315 L 736.849 557.332 C 736.994 557.397 737.147 557.431 737.301 557.431 C 737.58 557.431 737.856 557.321 738.063 557.115 L 741.388 553.79 C 741.637 553.54 741.75 553.184 741.687 552.838 C 741.624 552.49 741.397 552.194 741.076 552.046 L 694.342 530.529 C 694.056 530.396 693.727 530.396 693.441 530.529 L 681.213 536.16 L 681.213 499.319 L 689.919 503.327 C 690.063 503.394 690.218 503.427 690.37 503.427 C 690.651 503.427 690.926 503.317 691.133 503.11 L 694.457 499.786 C 694.707 499.536 694.818 499.179 694.757 498.833 C 694.695 498.486 694.467 498.19 694.145 498.043 L 627.667 467.434 C 627.38 467.301 627.051 467.301 626.764 467.434 L 599.476 479.999 L 599.476 468.474 L 600.015 468.474 C 600.611 468.474 601.095 467.992 601.095 467.395 L 601.095 463.079 C 601.095 462.482 600.611 462 600.015 462 L 580.592 462 C 579.996 462 579.514 462.482 579.514 463.079 L 579.514 467.395 C 579.514 467.992 579.996 468.474 580.592 468.474 L 581.132 468.474 L 581.132 488.445 L 560.286 498.043 C 559.965 498.19 559.737 498.486 559.676 498.833 C 559.612 499.179 559.725 499.536 559.974 499.786 L 563.299 503.11 C 563.617 503.429 564.101 503.517 564.513 503.327 L 572.23 499.775 L 572.23 535.665 L 566.88 553.317 C 566.782 553.644 566.843 553.998 567.047 554.272 C 567.25 554.547 567.572 554.709 567.914 554.709 L 572.23 554.709 L 572.23 593.554 L 566.362 593.554 C 566.419 594.275 566.483 594.993 566.55 595.712 L 573.309 595.712 L 589.495 595.712 L 605.141 595.712 L 656.395 595.712 L 666.916 595.712 L 720.868 595.712 L 731.388 595.712 L 745.871 595.712 L 745.871 593.554 L 732.468 593.554 Z " fill="rgb(26,46,53)"/></g></g><clipPath id="_clipPath_eTlxUMjpVOPsSKRzzDZVGU7wBcjMtfvM"><rect x="738.587" y="374.133" width="240.358" height="246.023" transform="matrix(1,0,0,1,0,0)" fill="rgb(255,255,255)"/></clipPath><g clip-path="url(#_clipPath_eTlxUMjpVOPsSKRzzDZVGU7wBcjMtfvM)"><g><path d=" M 949.811 508.012 L 821.944 508.012 L 804.544 553.332 L 845.413 553.736 L 885.877 531.076 L 925.532 553.332 L 967.211 553.332 L 949.811 508.012 Z " fill="rgb(1,61,167)"/><path d=" M 846.222 545.239 L 826.799 545.239 L 826.799 527.839 L 836.511 521.769 L 846.222 527.434 L 846.222 545.239 Z " fill="rgb(209,227,255)"/><path d=" M 944.955 545.239 L 925.532 545.239 L 925.532 527.839 L 935.244 521.769 L 944.955 527.434 L 944.955 545.239 Z " fill="rgb(209,227,255)"/><path d=" M 824.776 529.053 L 822.348 525.007 L 836.915 516.104 L 851.483 525.007 L 849.055 529.053 L 836.915 521.769 L 824.776 529.053 Z " fill="rgb(1,61,167)"/><path d=" M 922.7 529.053 L 920.272 525.007 L 934.839 516.104 L 949.406 525.007 L 946.978 529.053 L 934.839 521.769 L 922.7 529.053 Z " fill="rgb(1,61,167)"/><rect x="836.511" y="500.728" width="11.33" height="7.284" transform="matrix(1,0,0,1,0,0)" fill="rgb(242,139,2)"/><rect x="923.914" y="500.728" width="11.33" height="7.284" transform="matrix(1,0,0,1,0,0)" fill="rgb(242,139,2)"/><rect x="834.892" y="497.491" width="14.567" height="3.237" transform="matrix(1,0,0,1,0,0)" fill="rgb(242,139,2)"/><rect x="922.295" y="497.491" width="14.567" height="3.237" transform="matrix(1,0,0,1,0,0)" fill="rgb(242,139,2)"/><path d=" M 849.055 558.997 L 845.818 553.736 L 885.877 531.076 L 925.937 553.332 L 923.104 558.997 L 885.877 538.36 L 849.055 558.997 Z " fill="rgb(1,61,167)"/><path d=" M 813.041 594.605 L 813.041 553.736 L 845.818 553.736 L 849.055 558.997 L 859.171 553.736 L 859.171 594.605 L 813.041 594.605 Z " fill="rgb(255,255,255)"/><path d=" M 958.713 594.605 L 958.713 553.736 L 925.937 553.736 L 922.7 558.997 L 912.584 553.736 L 912.584 594.605 L 958.713 594.605 Z " fill="rgb(255,255,255)"/><rect x="821.134" y="565.471" width="11.33" height="19.423" transform="matrix(1,0,0,1,0,0)" fill="rgb(209,227,255)"/><rect x="921.486" y="565.471" width="11.33" height="19.423" transform="matrix(1,0,0,1,0,0)" fill="rgb(209,227,255)"/><rect x="838.939" y="565.471" width="11.33" height="19.423" transform="matrix(1,0,0,1,0,0)" fill="rgb(209,227,255)"/><rect x="939.29" y="565.471" width="11.33" height="19.423" transform="matrix(1,0,0,1,0,0)" fill="rgb(209,227,255)"/><path d=" M 912.988 594.605 L 858.766 594.605 L 858.766 554.141 L 885.877 538.764 L 912.988 553.736 L 912.988 594.605 Z " fill="rgb(255,255,255)"/><rect x="877.784" y="565.471" width="16.186" height="29.134" transform="matrix(1,0,0,1,0,0)" fill="rgb(242,139,2)"/><path d=" M 881.831 582.628 L 881.831 577.448 C 881.831 577.091 881.467 576.801 881.022 576.801 C 880.576 576.801 880.212 577.091 880.212 577.448 L 880.212 582.628 C 880.212 582.985 880.576 583.275 881.022 583.275 C 881.467 583.275 881.831 582.985 881.831 582.628 Z " fill="rgb(26,46,53)"/><path d=" M 848.472 527.686 L 847.023 526.802 C 847.007 526.786 846.991 526.766 846.967 526.753 L 837.255 520.818 C 837.207 520.788 837.15 520.772 837.102 520.75 C 836.834 520.642 836.551 520.642 836.284 520.75 C 836.236 520.772 836.179 520.788 836.13 520.818 L 826.419 526.753 C 826.395 526.764 826.378 526.784 826.362 526.799 L 824.914 527.686 L 823.505 525.384 L 836.697 517.314 L 849.88 525.384 L 848.472 527.686 Z  M 845.324 544.399 L 828.062 544.399 L 828.062 528.289 L 836.697 523.004 L 845.324 528.289 L 845.324 544.399 Z  M 851.928 524.107 L 837.255 515.128 C 836.907 514.916 836.478 514.916 836.13 515.128 L 821.458 524.107 C 820.948 524.417 820.794 525.081 821.102 525.589 L 823.635 529.732 C 823.781 529.977 824.023 530.152 824.299 530.22 C 824.388 530.239 824.469 530.249 824.558 530.249 C 824.752 530.249 824.946 530.195 825.116 530.09 L 825.901 529.61 L 825.901 545.477 C 825.901 546.074 826.387 546.556 826.985 546.556 L 846.408 546.556 C 846.999 546.556 847.485 546.074 847.485 545.477 L 847.485 529.61 L 848.27 530.09 C 848.512 530.239 848.804 530.286 849.079 530.22 C 849.362 530.152 849.605 529.977 849.751 529.732 L 852.284 525.589 C 852.591 525.081 852.438 524.417 851.928 524.107 Z " fill="rgb(26,46,53)"/><path d=" M 948.071 525.384 L 946.663 527.687 L 945.222 526.801 C 945.198 526.787 945.182 526.766 945.158 526.753 L 935.446 520.818 C 935.398 520.789 935.349 520.772 935.292 520.751 C 935.033 520.641 934.742 520.641 934.475 520.751 C 934.426 520.772 934.37 520.789 934.321 520.818 L 924.61 526.753 C 924.594 526.765 924.577 526.785 924.553 526.8 L 923.104 527.687 L 921.696 525.384 L 934.888 517.313 L 948.071 525.384 Z  M 943.515 544.399 L 926.253 544.399 L 926.253 528.289 L 934.888 523.004 L 943.515 528.289 L 943.515 544.399 Z  M 934.321 515.128 L 919.649 524.107 C 919.147 524.417 918.985 525.082 919.293 525.589 L 921.826 529.733 C 921.98 529.977 922.214 530.152 922.497 530.219 C 922.578 530.239 922.667 530.249 922.748 530.249 C 922.943 530.249 923.137 530.196 923.315 530.09 L 924.092 529.611 L 924.092 545.478 C 924.092 546.075 924.577 546.557 925.176 546.557 L 944.599 546.557 C 945.198 546.557 945.675 546.075 945.675 545.478 L 945.675 529.611 L 946.46 530.09 C 946.703 530.239 946.995 530.286 947.278 530.219 C 947.553 530.152 947.796 529.977 947.941 529.733 L 950.475 525.589 C 950.79 525.082 950.628 524.417 950.118 524.107 L 935.454 515.128 C 935.098 514.916 934.669 514.916 934.321 515.128 Z " fill="rgb(26,46,53)"/><path d=" M 831.299 583.784 L 822.664 583.784 L 822.664 566.52 L 831.299 566.52 L 831.299 583.784 Z  M 832.375 564.361 L 821.587 564.361 C 820.989 564.361 820.511 564.844 820.511 565.441 L 820.511 584.864 C 820.511 585.459 820.989 585.943 821.587 585.943 L 832.375 585.943 C 832.974 585.943 833.46 585.459 833.46 584.864 L 833.46 565.441 C 833.46 564.844 832.974 564.361 832.375 564.361 Z " fill="rgb(26,46,53)"/><path d=" M 848.561 583.784 L 839.934 583.784 L 839.934 566.52 L 848.561 566.52 L 848.561 583.784 Z  M 849.645 564.361 L 838.85 564.361 C 838.251 564.361 837.773 564.844 837.773 565.441 L 837.773 584.864 C 837.773 585.459 838.251 585.943 838.85 585.943 L 849.645 585.943 C 850.236 585.943 850.722 585.459 850.722 584.864 L 850.722 565.441 C 850.722 564.844 850.236 564.361 849.645 564.361 Z " fill="rgb(26,46,53)"/><path d=" M 948.913 583.784 L 940.286 583.784 L 940.286 566.52 L 948.913 566.52 L 948.913 583.784 Z  M 949.997 564.361 L 939.201 564.361 C 938.602 564.361 938.125 564.844 938.125 565.441 L 938.125 584.864 C 938.125 585.459 938.602 585.943 939.201 585.943 L 949.997 585.943 C 950.588 585.943 951.073 585.459 951.073 584.864 L 951.073 565.441 C 951.073 564.844 950.588 564.361 949.997 564.361 Z " fill="rgb(26,46,53)"/><path d=" M 931.651 583.784 L 923.015 583.784 L 923.015 566.52 L 931.651 566.52 L 931.651 583.784 Z  M 932.727 564.361 L 921.939 564.361 C 921.34 564.361 920.863 564.844 920.863 565.441 L 920.863 584.864 C 920.863 585.459 921.34 585.943 921.939 585.943 L 932.727 585.943 C 933.326 585.943 933.811 585.459 933.811 584.864 L 933.811 565.441 C 933.811 564.844 933.326 564.361 932.727 564.361 Z " fill="rgb(26,46,53)"/><path d=" M 926.325 552.492 L 886.314 530.101 C 885.991 529.916 885.586 529.92 885.262 530.103 L 845.348 552.492 L 805.887 552.492 L 809.303 543.522 L 822.332 509.33 L 827.188 509.33 L 836.697 509.33 L 847.485 509.33 L 924.1 509.33 L 934.888 509.33 L 949.253 509.33 L 965.689 552.492 L 926.325 552.492 Z  M 957.548 593.496 L 913.846 593.496 L 913.846 555.401 L 922.384 560.181 C 922.91 560.47 923.566 560.286 923.857 559.765 L 926.722 554.65 L 957.548 554.65 L 957.548 593.496 Z  M 886.314 537.522 C 885.991 537.338 885.586 537.339 885.262 537.523 L 884.704 537.838 L 858.289 552.63 C 858.248 552.65 858.224 552.686 858.192 552.709 L 849.152 557.781 L 847.048 554.015 L 885.788 532.281 L 924.61 554.003 L 922.497 557.771 L 886.314 537.522 Z  M 911.685 593.496 L 894.966 593.496 L 894.966 565.44 C 894.966 564.844 894.48 564.361 893.881 564.361 L 877.695 564.361 C 877.105 564.361 876.619 564.844 876.619 565.44 L 876.619 593.496 L 859.891 593.496 L 859.891 554.231 L 885.788 539.701 L 911.685 554.203 L 911.685 593.496 Z  M 892.805 593.496 L 878.78 593.496 L 878.78 566.519 L 892.805 566.519 L 892.805 593.496 Z  M 857.738 593.496 L 814.037 593.496 L 814.037 554.65 L 844.927 554.65 L 847.8 559.778 C 847.938 560.028 848.173 560.212 848.448 560.291 C 848.545 560.317 848.642 560.331 848.739 560.331 C 848.925 560.331 849.103 560.284 849.265 560.193 L 857.738 555.441 L 857.738 593.496 Z  M 797.527 539.579 C 797.236 539.424 796.888 539.413 796.581 539.55 C 796.273 539.688 796.054 539.957 795.974 540.281 C 790.292 563.847 790.573 588.051 790.722 593.496 L 788.034 593.496 C 788.055 592.714 788.094 591.537 788.159 590.026 C 788.162 589.987 788.16 589.949 788.158 589.911 C 788.129 573.027 779.254 559.381 777.861 557.342 C 777.793 557.137 777.661 556.95 777.473 556.813 C 777.008 556.476 776.364 556.561 776 557.005 C 772.924 560.785 768.371 562.952 763.511 562.952 C 754.824 562.952 747.61 555.883 747.427 547.192 C 747.419 546.827 747.225 546.489 746.914 546.296 C 743.447 544.162 741.376 540.469 741.376 536.419 C 741.376 530.023 746.58 524.818 752.978 524.818 C 756.98 524.818 760.647 526.85 762.79 530.256 C 762.987 530.566 763.326 530.755 763.693 530.76 C 772.471 530.858 779.612 538.077 779.612 546.85 C 779.612 549.394 779.021 551.843 777.855 554.134 C 777.595 554.645 777.781 555.271 778.278 555.558 C 778.338 555.593 778.402 555.621 778.465 555.644 C 779.551 556.979 783.11 561.911 787.194 573.409 C 787.262 573.896 787.657 574.288 788.168 574.333 C 788.768 574.385 789.279 573.954 789.337 573.362 C 790.574 560.546 792.447 548.907 794.901 538.77 C 795.002 538.352 794.846 537.917 794.505 537.657 C 790.81 534.852 788.056 530.867 786.752 526.439 C 786.606 525.943 786.123 525.627 785.611 525.671 C 785.236 525.708 784.857 525.728 784.474 525.728 C 778.303 525.728 773.282 520.707 773.282 514.535 C 773.282 514.239 773.304 513.949 773.327 513.66 C 773.359 513.263 773.168 512.879 772.832 512.665 C 767.222 509.081 763.873 502.973 763.873 496.333 C 763.873 485.65 772.565 476.958 783.248 476.958 C 789.375 476.958 795.012 479.768 798.709 484.664 C 798.911 484.923 799.203 485.079 799.526 485.092 C 799.85 485.118 800.166 484.974 800.376 484.732 C 802.82 482.002 806.3 480.436 809.942 480.436 C 817.015 480.436 822.769 486.191 822.769 493.264 C 822.769 496.066 821.863 498.738 820.163 500.989 C 819.985 501.221 819.912 501.514 819.953 501.801 C 820.001 502.089 820.155 502.347 820.39 502.517 C 822.211 503.822 823.797 505.388 825.14 507.171 L 821.587 507.171 C 821.142 507.171 820.738 507.447 820.576 507.867 L 807.538 542.085 C 804.058 542.061 800.595 541.198 797.527 539.579 Z  M 846.408 507.171 L 837.773 507.171 L 837.773 501.776 L 846.408 501.776 L 846.408 507.171 Z  M 835.612 498.539 L 848.561 498.539 L 848.561 499.618 L 847.485 499.618 L 836.697 499.618 L 835.612 499.618 L 835.612 498.539 Z  M 933.811 507.171 L 925.176 507.171 L 925.176 501.776 L 933.811 501.776 L 933.811 507.171 Z  M 923.015 498.539 L 935.964 498.539 L 935.964 499.618 L 934.888 499.618 L 924.1 499.618 L 923.015 499.618 L 923.015 498.539 Z  M 959.708 593.496 L 959.708 554.65 L 967.259 554.65 C 967.389 554.65 967.518 554.627 967.64 554.58 C 967.648 554.577 967.656 554.572 967.656 554.569 C 967.737 554.537 967.809 554.482 967.874 554.431 C 967.923 554.401 967.971 554.378 968.012 554.34 C 968.06 554.291 968.093 554.226 968.133 554.168 C 968.174 554.113 968.214 554.064 968.246 554.001 C 968.271 553.952 968.271 553.893 968.287 553.839 C 968.303 553.757 968.335 553.676 968.335 553.59 C 968.335 553.582 968.335 553.577 968.335 553.57 C 968.335 553.502 968.311 553.444 968.295 553.379 C 968.287 553.315 968.295 553.249 968.263 553.187 L 951.001 507.867 C 950.847 507.447 950.442 507.171 949.997 507.171 L 935.964 507.171 L 935.964 501.776 L 937.048 501.776 C 937.639 501.776 938.125 501.294 938.125 500.697 L 938.125 497.46 C 938.125 496.864 937.639 496.381 937.048 496.381 L 921.939 496.381 C 921.34 496.381 920.863 496.864 920.863 497.46 L 920.863 500.697 C 920.863 501.294 921.34 501.776 921.939 501.776 L 923.015 501.776 L 923.015 507.171 L 848.561 507.171 L 848.561 501.776 L 849.645 501.776 C 850.236 501.776 850.722 501.294 850.722 500.697 L 850.722 497.46 C 850.722 496.864 850.236 496.381 849.645 496.381 L 834.536 496.381 C 833.937 496.381 833.46 496.864 833.46 497.46 L 833.46 500.697 C 833.46 501.294 833.937 501.776 834.536 501.776 L 835.612 501.776 L 835.612 507.171 L 827.754 507.171 C 826.314 504.966 824.566 503.022 822.502 501.405 C 824.096 498.972 824.922 496.179 824.922 493.264 C 824.922 485 818.205 478.278 809.942 478.278 C 806.106 478.278 802.424 479.762 799.648 482.385 C 795.553 477.549 789.639 474.8 783.248 474.8 C 771.374 474.8 761.715 484.46 761.715 496.333 C 761.715 503.5 765.224 510.104 771.134 514.129 C 771.128 514.263 771.124 514.399 771.124 514.535 C 771.124 521.896 777.113 527.886 784.474 527.886 C 784.631 527.886 784.788 527.883 784.945 527.877 C 786.389 532.189 789.091 536.069 792.642 538.938 C 790.538 547.771 788.87 557.703 787.668 568.531 C 784.204 559.802 781.289 555.703 780.163 554.312 C 781.229 551.948 781.77 549.442 781.77 546.85 C 781.77 537.093 773.984 529.033 764.296 528.618 C 761.719 524.875 757.53 522.66 752.978 522.66 C 745.39 522.66 739.217 528.832 739.217 536.419 C 739.217 541.03 741.476 545.248 745.292 547.817 C 745.799 557.406 753.853 565.11 763.511 565.11 C 768.522 565.11 773.242 563.08 776.68 559.491 C 779.013 563.207 786 575.542 786 589.996 L 786 590.004 C 785.934 591.54 785.896 592.717 785.874 593.496 L 745.871 593.496 L 745.871 595.653 L 786.928 595.653 L 791.837 595.653 L 802.666 595.653 C 802.715 594.934 802.763 594.214 802.804 593.496 L 792.881 593.496 C 792.737 588.421 792.429 565.129 797.762 542.097 C 800.57 543.376 803.629 544.098 806.729 544.221 L 803.314 553.187 C 803.29 553.25 803.29 553.316 803.281 553.379 C 803.265 553.444 803.241 553.502 803.241 553.57 C 803.241 553.577 803.249 553.582 803.249 553.59 C 803.249 553.677 803.273 553.758 803.298 553.841 C 803.314 553.894 803.314 553.952 803.338 554.001 C 803.362 554.064 803.411 554.113 803.451 554.169 C 803.484 554.227 803.516 554.291 803.565 554.34 C 803.605 554.378 803.662 554.401 803.702 554.431 C 803.775 554.482 803.84 554.537 803.921 554.569 C 803.929 554.572 803.929 554.577 803.937 554.58 C 804.066 554.627 804.196 554.65 804.325 554.65 L 811.876 554.65 L 811.876 593.496 L 802.804 593.496 C 802.763 594.214 802.715 594.934 802.666 595.653 L 812.952 595.653 L 858.815 595.653 L 877.695 595.653 L 893.881 595.653 L 912.77 595.653 L 958.624 595.653 L 978.945 595.653 L 978.945 593.496 L 959.708 593.496 Z " fill="rgb(26,46,53)"/></g></g><clipPath id="_clipPath_CFiOZuYOVoj6DqXSFgCMjUW4WN4vYgS1"><rect x="978.945" y="374.133" width="301.055" height="246.023" transform="matrix(1,0,0,1,0,0)" fill="rgb(255,255,255)"/></clipPath><g clip-path="url(#_clipPath_CFiOZuYOVoj6DqXSFgCMjUW4WN4vYgS1)"><g><path d=" M 1129.473 594.661 L 1129.473 510.495 L 1093.055 477.719 L 1056.637 510.495 L 1056.637 594.661 L 1129.473 594.661 Z " fill="rgb(255,255,255)"/><rect x="1063.111" y="521.825" width="15.376" height="23.469" transform="matrix(1,0,0,1,0,0)" fill="rgb(209,227,255)"/><rect x="1063.111" y="556.625" width="15.376" height="23.469" transform="matrix(1,0,0,1,0,0)" fill="rgb(209,227,255)"/><rect x="1085.771" y="521.825" width="15.376" height="23.469" transform="matrix(1,0,0,1,0,0)" fill="rgb(209,227,255)"/><rect x="1085.771" y="556.625" width="15.376" height="23.469" transform="matrix(1,0,0,1,0,0)" fill="rgb(209,227,255)"/><rect x="1107.622" y="521.825" width="15.376" height="23.469" transform="matrix(1,0,0,1,0,0)" fill="rgb(209,227,255)"/><rect x="1107.622" y="556.625" width="15.376" height="23.469" transform="matrix(1,0,0,1,0,0)" fill="rgb(209,227,255)"/><rect x="1129.473" y="525.062" width="54.222" height="69.599" transform="matrix(1,0,0,1,0,0)" fill="rgb(255,255,255)"/><rect x="1135.947" y="529.109" width="16.186" height="23.469" transform="matrix(1,0,0,1,0,0)" fill="rgb(209,227,255)"/><rect x="1135.947" y="558.243" width="16.186" height="23.469" transform="matrix(1,0,0,1,0,0)" fill="rgb(209,227,255)"/><rect x="1161.035" y="529.109" width="16.186" height="23.469" transform="matrix(1,0,0,1,0,0)" fill="rgb(209,227,255)"/><rect x="1161.035" y="558.243" width="16.186" height="28.325" transform="matrix(1,0,0,1,0,0)" fill="rgb(242,139,2)"/><circle vector-effect="non-scaling-stroke" cx="1168.7230412599788" cy="566.74074845894" r="3.6417913769462302" fill="rgb(209,227,255)"/><rect x="1158.607" y="586.568" width="21.041" height="4.046" transform="matrix(1,0,0,1,0,0)" fill="rgb(168,175,187)"/><rect x="1156.988" y="590.615" width="24.279" height="4.046" transform="matrix(1,0,0,1,0,0)" fill="rgb(168,175,187)"/><circle vector-effect="non-scaling-stroke" cx="1093.4593528030919" cy="495.52349486532734" r="6.878939267564874" fill="rgb(209,227,255)"/><path d=" M 1054.209 512.923 L 1050.162 509.686 L 1093.055 471.245 L 1135.542 509.281 L 1131.9 512.519 L 1093.055 477.719 L 1054.209 512.923 Z " fill="rgb(1,61,167)"/><path d=" M 1188.146 483.384 L 1106.813 483.384 L 1135.542 509.686 L 1132.305 512.519 L 1129.877 510.9 L 1129.877 525.062 L 1188.146 524.658 L 1188.146 483.384 Z " fill="rgb(1,61,167)"/><rect x="1184.504" y="564.718" width="57.459" height="3.237" transform="matrix(1,0,0,1,0,0)" fill="rgb(168,175,187)"/><rect x="999.177" y="564.718" width="57.459" height="3.237" transform="matrix(1,0,0,1,0,0)" fill="rgb(168,175,187)"/><rect x="1184.504" y="584.95" width="57.459" height="3.237" transform="matrix(1,0,0,1,0,0)" fill="rgb(168,175,187)"/><rect x="999.177" y="584.95" width="57.459" height="3.237" transform="matrix(1,0,0,1,0,0)" fill="rgb(168,175,187)"/><path d=" M 1187.741 558.243 C 1187.741 556.456 1189.19 555.006 1190.978 555.006 C 1192.767 555.006 1194.216 556.456 1194.216 558.243 L 1194.216 594.661 L 1187.741 594.661 L 1187.741 558.243 Z " fill="rgb(209,227,255)"/><path d=" M 992.703 558.243 C 992.703 556.456 994.152 555.006 995.94 555.006 C 997.729 555.006 999.177 556.456 999.177 558.243 L 999.177 594.661 L 992.703 594.661 L 992.703 558.243 Z " fill="rgb(209,227,255)"/><path d=" M 1199.071 558.243 C 1199.071 556.456 1200.52 555.006 1202.308 555.006 C 1204.097 555.006 1205.546 556.456 1205.546 558.243 L 1205.546 594.661 L 1199.071 594.661 L 1199.071 558.243 Z " fill="rgb(209,227,255)"/><path d=" M 1004.033 558.243 C 1004.033 556.456 1005.482 555.006 1007.27 555.006 C 1009.059 555.006 1010.507 556.456 1010.507 558.243 L 1010.507 594.661 L 1004.033 594.661 L 1004.033 558.243 Z " fill="rgb(209,227,255)"/><path d=" M 1209.592 558.243 C 1209.592 556.456 1211.041 555.006 1212.829 555.006 C 1214.618 555.006 1216.066 556.456 1216.066 558.243 L 1216.066 594.661 L 1209.592 594.661 L 1209.592 558.243 Z " fill="rgb(209,227,255)"/><path d=" M 1014.554 558.243 C 1014.554 556.456 1016.002 555.006 1017.791 555.006 C 1019.58 555.006 1021.028 556.456 1021.028 558.243 L 1021.028 594.661 L 1014.554 594.661 L 1014.554 558.243 Z " fill="rgb(209,227,255)"/><path d=" M 1220.113 558.243 C 1220.113 556.456 1221.561 555.006 1223.35 555.006 C 1225.138 555.006 1226.587 556.456 1226.587 558.243 L 1226.587 594.661 L 1220.113 594.661 L 1220.113 558.243 Z " fill="rgb(209,227,255)"/><path d=" M 1025.075 558.243 C 1025.075 556.456 1026.523 555.006 1028.312 555.006 C 1030.1 555.006 1031.549 556.456 1031.549 558.243 L 1031.549 594.661 L 1025.075 594.661 L 1025.075 558.243 Z " fill="rgb(209,227,255)"/><path d=" M 1231.443 558.243 C 1231.443 556.456 1232.891 555.006 1234.68 555.006 C 1236.468 555.006 1237.917 556.456 1237.917 558.243 L 1237.917 594.661 L 1231.443 594.661 L 1231.443 558.243 Z " fill="rgb(209,227,255)"/><path d=" M 1036.405 558.243 C 1036.405 556.456 1037.853 555.006 1039.642 555.006 C 1041.43 555.006 1042.879 556.456 1042.879 558.243 L 1042.879 594.661 L 1036.405 594.661 L 1036.405 558.243 Z " fill="rgb(209,227,255)"/><path d=" M 1241.964 558.243 C 1241.964 556.456 1243.412 555.006 1245.201 555.006 C 1246.989 555.006 1248.438 556.456 1248.438 558.243 L 1248.438 594.661 L 1241.964 594.661 L 1241.964 558.243 Z " fill="rgb(209,227,255)"/><path d=" M 1046.925 558.243 C 1046.925 556.456 1048.374 555.006 1050.162 555.006 C 1051.951 555.006 1053.4 556.456 1053.4 558.243 L 1053.4 594.661 L 1046.925 594.661 L 1046.925 558.243 Z " fill="rgb(209,227,255)"/><path d=" M 1145.351 539.51 L 1151.291 539.51 L 1151.291 551.379 L 1145.351 551.379 L 1145.351 539.51 Z  M 1137.258 539.51 L 1143.198 539.51 L 1143.198 551.379 L 1137.258 551.379 L 1137.258 539.51 Z  M 1151.291 537.351 L 1137.258 537.351 L 1137.258 530.337 L 1151.291 530.337 L 1151.291 537.351 Z  M 1152.367 528.18 L 1136.182 528.18 C 1135.583 528.18 1135.105 528.662 1135.105 529.259 L 1135.105 552.458 C 1135.105 553.054 1135.583 553.537 1136.182 553.537 L 1152.367 553.537 C 1152.966 553.537 1153.444 553.054 1153.444 552.458 L 1153.444 529.259 C 1153.444 528.662 1152.966 528.18 1152.367 528.18 Z " fill="rgb(26,46,53)"/><path d=" M 1145.351 568.644 L 1151.291 568.644 L 1151.291 580.513 L 1145.351 580.513 L 1145.351 568.644 Z  M 1137.258 568.644 L 1143.198 568.644 L 1143.198 580.513 L 1137.258 580.513 L 1137.258 568.644 Z  M 1151.291 566.486 L 1137.258 566.486 L 1137.258 559.472 L 1151.291 559.472 L 1151.291 566.486 Z  M 1152.367 557.314 L 1136.182 557.314 C 1135.583 557.314 1135.105 557.797 1135.105 558.393 L 1135.105 581.593 C 1135.105 582.188 1135.583 582.672 1136.182 582.672 L 1152.367 582.672 C 1152.966 582.672 1153.444 582.188 1153.444 581.593 L 1153.444 558.393 C 1153.444 557.797 1152.966 557.314 1152.367 557.314 Z " fill="rgb(26,46,53)"/><path d=" M 1176.104 537.351 L 1162.079 537.351 L 1162.079 530.337 L 1176.104 530.337 L 1176.104 537.351 Z  M 1170.172 539.51 L 1176.104 539.51 L 1176.104 551.379 L 1170.172 551.379 L 1170.172 539.51 Z  M 1162.079 539.51 L 1168.011 539.51 L 1168.011 551.379 L 1162.079 551.379 L 1162.079 539.51 Z  M 1161.002 553.537 L 1177.188 553.537 C 1177.779 553.537 1178.265 553.054 1178.265 552.458 L 1178.265 529.259 C 1178.265 528.662 1177.779 528.18 1177.188 528.18 L 1161.002 528.18 C 1160.404 528.18 1159.918 528.662 1159.918 529.259 L 1159.918 552.458 C 1159.918 553.054 1160.404 553.537 1161.002 553.537 Z " fill="rgb(26,46,53)"/><path d=" M 1064.422 534.654 L 1077.371 534.654 L 1077.371 544.366 L 1064.422 544.366 L 1064.422 534.654 Z  M 1077.371 532.496 L 1064.422 532.496 L 1064.422 522.784 L 1077.371 522.784 L 1077.371 532.496 Z  M 1080.608 544.366 L 1079.532 544.366 L 1079.532 521.706 C 1079.532 521.109 1079.046 520.627 1078.455 520.627 L 1063.346 520.627 C 1062.747 520.627 1062.269 521.109 1062.269 521.706 L 1062.269 544.366 L 1061.185 544.366 C 1060.594 544.366 1060.109 544.848 1060.109 545.444 C 1060.109 546.04 1060.594 546.524 1061.185 546.524 L 1063.346 546.524 L 1078.455 546.524 L 1080.608 546.524 C 1081.207 546.524 1081.692 546.04 1081.692 545.444 C 1081.692 544.848 1081.207 544.366 1080.608 544.366 Z " fill="rgb(26,46,53)"/><path d=" M 1109.208 534.654 L 1122.157 534.654 L 1122.157 544.366 L 1109.208 544.366 L 1109.208 534.654 Z  M 1122.157 532.496 L 1109.208 532.496 L 1109.208 522.784 L 1122.157 522.784 L 1122.157 532.496 Z  M 1125.394 544.366 L 1124.309 544.366 L 1124.309 521.706 C 1124.309 521.109 1123.832 520.627 1123.233 520.627 L 1108.124 520.627 C 1107.533 520.627 1107.047 521.109 1107.047 521.706 L 1107.047 544.366 L 1105.971 544.366 C 1105.372 544.366 1104.886 544.848 1104.886 545.444 C 1104.886 546.04 1105.372 546.524 1105.971 546.524 L 1108.124 546.524 L 1123.233 546.524 L 1125.394 546.524 C 1125.985 546.524 1126.47 546.04 1126.47 545.444 C 1126.47 544.848 1125.985 544.366 1125.394 544.366 Z " fill="rgb(26,46,53)"/><path d=" M 1086.815 534.654 L 1099.764 534.654 L 1099.764 544.366 L 1086.815 544.366 L 1086.815 534.654 Z  M 1099.764 532.496 L 1086.815 532.496 L 1086.815 522.784 L 1099.764 522.784 L 1099.764 532.496 Z  M 1103.001 544.366 L 1101.924 544.366 L 1101.924 521.706 C 1101.924 521.109 1101.439 520.627 1100.84 520.627 L 1085.739 520.627 C 1085.14 520.627 1084.654 521.109 1084.654 521.706 L 1084.654 544.366 L 1083.578 544.366 C 1082.979 544.366 1082.502 544.848 1082.502 545.444 C 1082.502 546.04 1082.979 546.524 1083.578 546.524 L 1085.739 546.524 L 1100.84 546.524 L 1103.001 546.524 C 1103.6 546.524 1104.077 546.04 1104.077 545.444 C 1104.077 544.848 1103.6 544.366 1103.001 544.366 Z " fill="rgb(26,46,53)"/><path d=" M 1064.422 569.723 L 1077.371 569.723 L 1077.371 579.434 L 1064.422 579.434 L 1064.422 569.723 Z  M 1077.371 567.565 L 1064.422 567.565 L 1064.422 557.854 L 1077.371 557.854 L 1077.371 567.565 Z  M 1080.608 579.434 L 1079.532 579.434 L 1079.532 556.774 C 1079.532 556.178 1079.046 555.696 1078.455 555.696 L 1063.346 555.696 C 1062.747 555.696 1062.269 556.178 1062.269 556.774 L 1062.269 579.434 L 1061.185 579.434 C 1060.594 579.434 1060.109 579.917 1060.109 580.514 C 1060.109 581.11 1060.594 581.593 1061.185 581.593 L 1063.346 581.593 L 1078.455 581.593 L 1080.608 581.593 C 1081.207 581.593 1081.692 581.11 1081.692 580.514 C 1081.692 579.917 1081.207 579.434 1080.608 579.434 Z " fill="rgb(26,46,53)"/><path d=" M 1109.208 569.723 L 1122.157 569.723 L 1122.157 579.434 L 1109.208 579.434 L 1109.208 569.723 Z  M 1122.157 567.565 L 1109.208 567.565 L 1109.208 557.854 L 1122.157 557.854 L 1122.157 567.565 Z  M 1125.394 579.434 L 1124.309 579.434 L 1124.309 556.774 C 1124.309 556.178 1123.832 555.696 1123.233 555.696 L 1108.124 555.696 C 1107.533 555.696 1107.047 556.178 1107.047 556.774 L 1107.047 579.434 L 1105.971 579.434 C 1105.372 579.434 1104.886 579.917 1104.886 580.514 C 1104.886 581.11 1105.372 581.593 1105.971 581.593 L 1108.124 581.593 L 1123.233 581.593 L 1125.394 581.593 C 1125.985 581.593 1126.47 581.11 1126.47 580.514 C 1126.47 579.917 1125.985 579.434 1125.394 579.434 Z " fill="rgb(26,46,53)"/><path d=" M 1086.815 569.723 L 1099.764 569.723 L 1099.764 579.434 L 1086.815 579.434 L 1086.815 569.723 Z  M 1099.764 567.565 L 1086.815 567.565 L 1086.815 557.854 L 1099.764 557.854 L 1099.764 567.565 Z  M 1103.001 579.434 L 1101.924 579.434 L 1101.924 556.774 C 1101.924 556.178 1101.439 555.696 1100.84 555.696 L 1085.739 555.696 C 1085.14 555.696 1084.654 556.178 1084.654 556.774 L 1084.654 579.434 L 1083.578 579.434 C 1082.979 579.434 1082.502 579.917 1082.502 580.514 C 1082.502 581.11 1082.979 581.593 1083.578 581.593 L 1085.739 581.593 L 1100.84 581.593 L 1103.001 581.593 C 1103.6 581.593 1104.077 581.11 1104.077 580.514 C 1104.077 579.917 1103.6 579.434 1103.001 579.434 Z " fill="rgb(26,46,53)"/><path d=" M 1092.213 489.532 L 1092.213 494.009 L 1087.738 494.009 C 1088.175 491.751 1089.955 489.969 1092.213 489.532 Z  M 1098.849 494.009 L 1094.366 494.009 L 1094.366 489.532 C 1096.624 489.969 1098.404 491.751 1098.849 494.009 Z  M 1094.366 500.644 L 1094.366 496.167 L 1098.849 496.167 C 1098.404 498.425 1096.624 500.207 1094.366 500.644 Z  M 1087.738 496.167 L 1092.213 496.167 L 1092.213 500.644 C 1089.955 500.207 1088.175 498.425 1087.738 496.167 Z  M 1093.289 502.911 C 1097.603 502.911 1101.115 499.402 1101.115 495.087 C 1101.115 490.774 1097.603 487.265 1093.289 487.265 C 1088.976 487.265 1085.464 490.774 1085.464 495.087 C 1085.464 499.402 1088.976 502.911 1093.289 502.911 Z " fill="rgb(26,46,53)"/><path d=" M 1168.95 564.327 C 1170.139 564.327 1171.11 565.295 1171.11 566.486 C 1171.11 567.675 1170.139 568.643 1168.95 568.643 C 1167.76 568.643 1166.789 567.675 1166.789 566.486 C 1166.789 565.295 1167.76 564.327 1168.95 564.327 Z  M 1168.95 570.802 C 1171.329 570.802 1173.263 568.866 1173.263 566.486 C 1173.263 564.105 1171.329 562.169 1168.95 562.169 C 1166.57 562.169 1164.636 564.105 1164.636 566.486 C 1164.636 568.866 1166.57 570.802 1168.95 570.802 Z " fill="rgb(26,46,53)"/><path d=" M 1247.321 554.767 C 1246.69 554.394 1245.953 554.166 1245.168 554.166 C 1242.789 554.166 1240.847 556.102 1240.847 558.482 L 1240.847 563.877 L 1238.694 563.877 L 1238.694 558.482 C 1238.694 556.102 1236.752 554.166 1234.372 554.166 C 1231.993 554.166 1230.059 556.102 1230.059 558.482 L 1230.059 563.877 L 1227.898 563.877 L 1227.898 558.482 C 1227.898 556.102 1225.964 554.166 1223.585 554.166 C 1221.205 554.166 1219.271 556.102 1219.271 558.482 L 1219.271 563.877 L 1217.11 563.877 L 1217.11 558.482 C 1217.11 556.102 1215.176 554.166 1212.797 554.166 C 1210.418 554.166 1208.475 556.102 1208.475 558.482 L 1208.475 563.877 L 1206.323 563.877 L 1206.323 558.482 C 1206.323 556.102 1204.38 554.166 1202.001 554.166 C 1199.622 554.166 1197.687 556.102 1197.687 558.482 L 1197.687 563.877 L 1195.527 563.877 L 1195.527 558.482 C 1195.527 556.102 1193.592 554.166 1191.213 554.166 C 1188.834 554.166 1186.9 556.102 1186.9 558.482 L 1186.9 563.877 L 1184.739 563.877 L 1184.739 538.351 C 1187.984 535.99 1191.804 534.743 1195.842 534.743 C 1198.165 534.743 1200.447 535.166 1202.616 535.998 C 1203.11 536.188 1203.676 535.989 1203.935 535.523 C 1208.054 528.263 1215.791 523.754 1224.127 523.754 C 1236.914 523.754 1247.321 534.16 1247.321 546.954 L 1247.321 554.767 Z  M 1247.321 593.551 L 1243.007 593.551 L 1243.007 588.156 L 1243.007 584.919 L 1243.007 568.193 L 1243.007 564.956 L 1243.007 558.482 C 1243.007 557.293 1243.979 556.324 1245.168 556.324 C 1246.358 556.324 1247.321 557.293 1247.321 558.482 L 1247.321 593.551 Z  M 1240.847 567.115 L 1238.694 567.115 L 1238.694 566.035 L 1240.847 566.035 L 1240.847 567.115 Z  M 1240.847 583.839 L 1238.694 583.839 L 1238.694 569.272 L 1240.847 569.272 L 1240.847 583.839 Z  M 1240.847 587.077 L 1238.694 587.077 L 1238.694 585.998 L 1240.847 585.998 L 1240.847 587.077 Z  M 1240.847 593.551 L 1238.694 593.551 L 1238.694 589.235 L 1240.847 589.235 L 1240.847 593.551 Z  M 1236.533 564.956 L 1236.533 568.193 L 1236.533 584.919 L 1236.533 588.156 L 1236.533 593.551 L 1232.22 593.551 L 1232.22 588.156 L 1232.22 584.919 L 1232.22 568.193 L 1232.22 564.956 L 1232.22 558.482 C 1232.22 557.293 1233.183 556.324 1234.372 556.324 C 1235.562 556.324 1236.533 557.293 1236.533 558.482 L 1236.533 564.956 Z  M 1230.059 567.115 L 1227.898 567.115 L 1227.898 566.035 L 1230.059 566.035 L 1230.059 567.115 Z  M 1230.059 583.839 L 1227.898 583.839 L 1227.898 569.272 L 1230.059 569.272 L 1230.059 583.839 Z  M 1230.059 587.077 L 1227.898 587.077 L 1227.898 585.998 L 1230.059 585.998 L 1230.059 587.077 Z  M 1230.059 593.551 L 1227.898 593.551 L 1227.898 589.235 L 1230.059 589.235 L 1230.059 593.551 Z  M 1225.745 564.956 L 1225.745 568.193 L 1225.745 584.919 L 1225.745 588.156 L 1225.745 593.551 L 1221.424 593.551 L 1221.424 588.156 L 1221.424 584.919 L 1221.424 568.193 L 1221.424 564.956 L 1221.424 558.482 C 1221.424 557.293 1222.395 556.324 1223.585 556.324 C 1224.774 556.324 1225.745 557.293 1225.745 558.482 L 1225.745 564.956 Z  M 1219.271 567.115 L 1217.11 567.115 L 1217.11 566.035 L 1219.271 566.035 L 1219.271 567.115 Z  M 1219.271 583.839 L 1217.11 583.839 L 1217.11 569.272 L 1219.271 569.272 L 1219.271 583.839 Z  M 1219.271 587.077 L 1217.11 587.077 L 1217.11 585.998 L 1219.271 585.998 L 1219.271 587.077 Z  M 1219.271 593.551 L 1217.11 593.551 L 1217.11 589.235 L 1219.271 589.235 L 1219.271 593.551 Z  M 1214.95 564.956 L 1214.95 568.193 L 1214.95 584.919 L 1214.95 588.156 L 1214.95 593.551 L 1210.636 593.551 L 1210.636 588.156 L 1210.636 584.919 L 1210.636 568.193 L 1210.636 564.956 L 1210.636 558.482 C 1210.636 557.293 1211.607 556.324 1212.797 556.324 C 1213.986 556.324 1214.95 557.293 1214.95 558.482 L 1214.95 564.956 Z  M 1208.475 567.115 L 1206.323 567.115 L 1206.323 566.035 L 1208.475 566.035 L 1208.475 567.115 Z  M 1208.475 583.839 L 1206.323 583.839 L 1206.323 569.272 L 1208.475 569.272 L 1208.475 583.839 Z  M 1208.475 587.077 L 1206.323 587.077 L 1206.323 585.998 L 1208.475 585.998 L 1208.475 587.077 Z  M 1208.475 593.551 L 1206.323 593.551 L 1206.323 589.235 L 1208.475 589.235 L 1208.475 593.551 Z  M 1204.162 564.956 L 1204.162 568.193 L 1204.162 584.919 L 1204.162 588.156 L 1204.162 593.551 L 1199.848 593.551 L 1199.848 588.156 L 1199.848 584.919 L 1199.848 568.193 L 1199.848 564.956 L 1199.848 558.482 C 1199.848 557.293 1200.811 556.324 1202.001 556.324 C 1203.191 556.324 1204.162 557.293 1204.162 558.482 L 1204.162 564.956 Z  M 1197.687 567.115 L 1195.527 567.115 L 1195.527 566.035 L 1197.687 566.035 L 1197.687 567.115 Z  M 1197.687 583.839 L 1195.527 583.839 L 1195.527 569.272 L 1197.687 569.272 L 1197.687 583.839 Z  M 1197.687 587.077 L 1195.527 587.077 L 1195.527 585.998 L 1197.687 585.998 L 1197.687 587.077 Z  M 1197.687 593.551 L 1195.527 593.551 L 1195.527 589.235 L 1197.687 589.235 L 1197.687 593.551 Z  M 1193.374 564.956 L 1193.374 568.193 L 1193.374 584.919 L 1193.374 588.156 L 1193.374 593.551 L 1189.052 593.551 L 1189.052 588.156 L 1189.052 584.919 L 1189.052 568.193 L 1189.052 564.956 L 1189.052 558.482 C 1189.052 557.293 1190.023 556.324 1191.213 556.324 C 1192.403 556.324 1193.374 557.293 1193.374 558.482 L 1193.374 564.956 Z  M 1186.9 567.115 L 1184.739 567.115 L 1184.739 566.035 L 1186.9 566.035 L 1186.9 567.115 Z  M 1186.9 583.839 L 1184.739 583.839 L 1184.739 569.272 L 1186.9 569.272 L 1186.9 583.839 Z  M 1186.9 587.077 L 1184.739 587.077 L 1184.739 585.998 L 1186.9 585.998 L 1186.9 587.077 Z  M 1186.9 593.551 L 1184.739 593.551 L 1184.739 589.235 L 1186.9 589.235 L 1186.9 593.551 Z  M 1130.784 523.952 L 1130.784 521.924 L 1131.836 522.779 C 1132.232 523.104 1132.799 523.104 1133.195 522.779 L 1136.473 520.102 L 1139.751 522.779 C 1140.147 523.104 1140.722 523.104 1141.118 522.779 L 1144.396 520.102 L 1147.673 522.779 C 1148.07 523.104 1148.645 523.104 1149.041 522.779 L 1152.319 520.102 L 1155.596 522.779 C 1155.993 523.104 1156.559 523.104 1156.964 522.779 L 1160.242 520.1 L 1163.519 522.779 C 1163.916 523.104 1164.482 523.104 1164.887 522.779 L 1168.157 520.1 L 1171.442 522.779 C 1171.839 523.104 1172.405 523.104 1172.802 522.779 L 1176.088 520.1 L 1179.365 522.779 C 1179.762 523.104 1180.328 523.104 1180.733 522.779 L 1184.01 520.1 L 1186.9 522.457 L 1186.9 523.952 L 1183.662 523.952 L 1130.784 523.952 Z  M 1182.578 537.809 C 1182.578 537.809 1182.578 537.81 1182.578 537.813 L 1182.578 593.551 L 1182.044 593.551 L 1182.044 590.853 C 1182.044 590.258 1181.558 589.775 1180.959 589.775 L 1180.425 589.775 L 1180.425 586.538 C 1180.425 585.942 1179.94 585.458 1179.341 585.458 L 1178.265 585.458 L 1178.265 558.482 C 1178.265 557.886 1177.779 557.403 1177.188 557.403 L 1161.002 557.403 C 1160.404 557.403 1159.918 557.886 1159.918 558.482 L 1159.918 585.458 L 1158.842 585.458 C 1158.243 585.458 1157.765 585.942 1157.765 586.538 L 1157.765 589.775 L 1157.223 589.775 C 1156.624 589.775 1156.147 590.258 1156.147 590.853 L 1156.147 593.551 L 1130.784 593.551 L 1130.784 526.11 L 1182.578 526.11 L 1182.578 537.809 Z  M 1162.079 559.561 L 1176.104 559.561 L 1176.104 585.458 L 1162.079 585.458 L 1162.079 559.561 Z  M 1177.188 587.616 L 1178.265 587.616 L 1178.265 589.775 L 1159.918 589.775 L 1159.918 587.616 L 1161.002 587.616 L 1177.188 587.616 Z  M 1179.883 593.551 L 1158.299 593.551 L 1158.299 591.932 L 1158.842 591.932 L 1179.341 591.932 L 1179.883 591.932 L 1179.883 593.551 Z  M 1130.428 509.663 L 1094.01 476.753 C 1093.605 476.381 1092.974 476.381 1092.569 476.753 L 1056.151 509.663 L 1056.143 509.667 L 1053.853 511.742 L 1051.757 510.07 L 1093.289 472.533 L 1134.175 509.485 L 1132.079 511.157 L 1130.436 509.666 L 1130.428 509.663 Z  M 1128.631 525.032 L 1128.631 593.551 L 1057.948 593.551 L 1057.948 588.156 L 1057.948 584.919 L 1057.948 568.193 L 1057.948 564.956 L 1057.948 510.945 L 1093.289 479.008 L 1128.631 510.944 L 1128.631 525.032 Z  M 1186.9 484.177 L 1186.9 487.3 L 1184.698 485.5 C 1184.294 485.176 1183.727 485.176 1183.331 485.5 L 1180.045 488.18 L 1176.767 485.5 C 1176.371 485.176 1175.804 485.176 1175.4 485.5 L 1172.122 488.18 L 1168.844 485.5 C 1168.448 485.176 1167.873 485.176 1167.477 485.5 L 1164.199 488.178 L 1160.922 485.5 C 1160.525 485.176 1159.95 485.176 1159.554 485.5 L 1156.276 488.178 L 1153.007 485.5 C 1152.61 485.176 1152.036 485.176 1151.639 485.5 L 1148.361 488.18 L 1145.076 485.5 C 1144.679 485.176 1144.113 485.176 1143.716 485.5 L 1140.438 488.178 L 1137.161 485.5 C 1136.764 485.176 1136.19 485.176 1135.793 485.5 L 1132.516 488.18 L 1129.238 485.5 C 1128.833 485.173 1128.259 485.174 1127.862 485.509 L 1124.722 488.146 L 1121.784 485.53 C 1121.355 485.152 1120.708 485.167 1120.311 485.568 L 1117.827 488.019 L 1114.622 485.394 C 1114.274 485.113 1113.789 485.074 1113.408 485.29 L 1111.693 486.257 L 1109.394 484.177 L 1186.9 484.177 Z  M 1186.9 492.694 L 1184.698 490.896 C 1184.294 490.571 1183.727 490.571 1183.331 490.896 L 1180.045 493.575 L 1176.767 490.896 C 1176.371 490.571 1175.804 490.571 1175.4 490.896 L 1172.122 493.575 L 1168.844 490.896 C 1168.448 490.571 1167.873 490.571 1167.477 490.896 L 1164.199 493.574 L 1160.922 490.896 C 1160.525 490.571 1159.95 490.571 1159.554 490.896 L 1156.276 493.574 L 1153.007 490.896 C 1152.61 490.571 1152.036 490.571 1151.639 490.896 L 1148.361 493.575 L 1145.076 490.896 C 1144.679 490.571 1144.113 490.571 1143.716 490.896 L 1140.438 493.574 L 1137.161 490.896 C 1136.764 490.571 1136.19 490.571 1135.793 490.896 L 1132.524 493.567 L 1129.359 490.904 C 1128.938 490.556 1128.332 490.569 1127.935 490.936 L 1125.086 493.55 L 1121.736 490.887 C 1121.355 490.58 1120.813 490.573 1120.417 490.868 L 1118.442 492.351 L 1113.384 487.783 L 1113.821 487.533 L 1117.212 490.304 C 1117.641 490.653 1118.264 490.625 1118.652 490.236 L 1121.105 487.814 L 1123.986 490.379 C 1124.382 490.734 1124.989 490.744 1125.394 490.399 L 1128.566 487.737 L 1131.836 490.408 C 1132.232 490.733 1132.799 490.733 1133.195 490.408 L 1136.473 487.73 L 1139.751 490.408 C 1140.147 490.733 1140.722 490.733 1141.118 490.408 L 1144.396 487.73 L 1147.673 490.408 C 1148.07 490.733 1148.645 490.733 1149.041 490.408 L 1152.319 487.73 L 1155.596 490.408 C 1155.993 490.733 1156.559 490.733 1156.964 490.408 L 1160.242 487.728 L 1163.519 490.408 C 1163.916 490.733 1164.482 490.733 1164.887 490.408 L 1168.157 487.728 L 1171.442 490.408 C 1171.839 490.733 1172.405 490.733 1172.802 490.408 L 1176.088 487.728 L 1179.365 490.408 C 1179.762 490.733 1180.328 490.733 1180.733 490.408 L 1184.01 487.728 L 1186.9 490.085 L 1186.9 492.694 Z  M 1186.9 498.09 L 1184.698 496.291 C 1184.294 495.966 1183.727 495.966 1183.331 496.291 L 1180.045 498.97 L 1176.767 496.291 C 1176.371 495.966 1175.804 495.966 1175.4 496.291 L 1172.122 498.97 L 1168.844 496.291 C 1168.448 495.966 1167.873 495.966 1167.477 496.291 L 1164.199 498.969 L 1160.922 496.291 C 1160.525 495.966 1159.95 495.966 1159.554 496.291 L 1156.276 498.969 L 1153.007 496.291 C 1152.61 495.966 1152.036 495.966 1151.639 496.291 L 1148.361 498.97 L 1145.076 496.291 C 1144.679 495.966 1144.113 495.966 1143.716 496.291 L 1140.438 498.969 L 1137.161 496.291 C 1136.764 495.966 1136.19 495.966 1135.793 496.291 L 1132.516 498.97 L 1129.238 496.291 C 1128.841 495.966 1128.267 495.966 1127.87 496.291 L 1125.208 498.468 L 1120.069 493.826 L 1121.048 493.095 L 1124.463 495.812 C 1124.876 496.142 1125.475 496.122 1125.863 495.763 L 1128.696 493.166 L 1131.82 495.795 C 1132.216 496.128 1132.799 496.13 1133.195 495.804 L 1136.473 493.125 L 1139.751 495.804 C 1140.147 496.128 1140.722 496.128 1141.118 495.804 L 1144.396 493.125 L 1147.673 495.804 C 1148.07 496.128 1148.645 496.128 1149.041 495.804 L 1152.319 493.125 L 1155.596 495.804 C 1155.993 496.128 1156.559 496.128 1156.964 495.804 L 1160.242 493.124 L 1163.519 495.804 C 1163.916 496.128 1164.482 496.128 1164.887 495.804 L 1168.157 493.124 L 1171.442 495.804 C 1171.839 496.128 1172.405 496.128 1172.802 495.804 L 1176.088 493.124 L 1179.365 495.804 C 1179.762 496.128 1180.328 496.128 1180.733 495.804 L 1184.01 493.124 L 1186.9 495.481 L 1186.9 498.09 Z  M 1186.9 503.485 L 1184.698 501.686 C 1184.294 501.362 1183.727 501.362 1183.331 501.686 L 1180.045 504.366 L 1176.767 501.686 C 1176.371 501.362 1175.804 501.362 1175.4 501.686 L 1172.122 504.366 L 1168.844 501.686 C 1168.448 501.362 1167.873 501.362 1167.477 501.686 L 1164.199 504.364 L 1160.922 501.686 C 1160.525 501.362 1159.95 501.362 1159.554 501.686 L 1156.276 504.364 L 1153.007 501.686 C 1152.61 501.362 1152.036 501.362 1151.639 501.686 L 1148.361 504.366 L 1145.076 501.686 C 1144.679 501.362 1144.113 501.362 1143.716 501.686 L 1140.438 504.364 L 1137.161 501.686 C 1136.764 501.362 1136.19 501.362 1135.793 501.686 L 1132.103 504.702 L 1126.826 499.932 L 1128.558 498.52 L 1131.836 501.198 C 1132.232 501.524 1132.799 501.524 1133.195 501.198 L 1136.473 498.52 L 1139.751 501.198 C 1140.147 501.524 1140.722 501.524 1141.118 501.198 L 1144.396 498.52 L 1147.673 501.198 C 1148.07 501.524 1148.645 501.524 1149.041 501.198 L 1152.319 498.52 L 1155.596 501.198 C 1155.993 501.524 1156.559 501.524 1156.964 501.198 L 1160.242 498.519 L 1163.519 501.198 C 1163.916 501.524 1164.482 501.524 1164.887 501.198 L 1168.157 498.519 L 1171.442 501.198 C 1171.839 501.524 1172.405 501.524 1172.802 501.198 L 1176.088 498.519 L 1179.365 501.198 C 1179.762 501.524 1180.328 501.524 1180.733 501.198 L 1184.01 498.519 L 1186.9 500.876 L 1186.9 503.485 Z  M 1186.9 508.88 L 1184.698 507.082 C 1184.294 506.756 1183.727 506.756 1183.331 507.082 L 1180.045 509.76 L 1176.767 507.082 C 1176.371 506.756 1175.804 506.756 1175.4 507.082 L 1172.122 509.76 L 1168.844 507.082 C 1168.448 506.756 1167.873 506.756 1167.477 507.082 L 1164.199 509.76 L 1160.922 507.082 C 1160.525 506.756 1159.95 506.756 1159.554 507.082 L 1156.276 509.76 L 1153.007 507.082 C 1152.61 506.756 1152.036 506.756 1151.639 507.082 L 1148.361 509.76 L 1145.076 507.082 C 1144.679 506.756 1144.113 506.756 1143.716 507.082 L 1140.438 509.76 L 1137.161 507.082 C 1136.756 506.752 1136.182 506.756 1135.777 507.092 L 1135.251 507.542 L 1133.721 506.166 L 1136.473 503.916 L 1139.751 506.594 C 1140.147 506.918 1140.722 506.918 1141.118 506.594 L 1144.396 503.916 L 1147.673 506.594 C 1148.07 506.918 1148.645 506.918 1149.041 506.594 L 1152.319 503.916 L 1155.596 506.594 C 1155.993 506.918 1156.559 506.918 1156.964 506.594 L 1160.242 503.914 L 1163.519 506.594 C 1163.916 506.918 1164.482 506.918 1164.887 506.594 L 1168.157 503.914 L 1171.442 506.594 C 1171.839 506.918 1172.405 506.918 1172.802 506.594 L 1176.088 503.914 L 1179.365 506.594 C 1179.762 506.918 1180.328 506.918 1180.733 506.594 L 1184.01 503.914 L 1186.9 506.271 L 1186.9 508.88 Z  M 1186.9 514.275 L 1184.698 512.476 C 1184.294 512.152 1183.727 512.152 1183.331 512.476 L 1180.045 515.156 L 1176.767 512.476 C 1176.371 512.152 1175.804 512.152 1175.4 512.476 L 1172.122 515.156 L 1168.844 512.476 C 1168.448 512.152 1167.873 512.152 1167.477 512.476 L 1164.199 515.155 L 1160.922 512.476 C 1160.525 512.152 1159.95 512.152 1159.554 512.476 L 1156.276 515.155 L 1153.007 512.476 C 1152.61 512.152 1152.036 512.152 1151.639 512.476 L 1148.361 515.156 L 1145.076 512.476 C 1144.679 512.152 1144.113 512.152 1143.716 512.476 L 1140.438 515.155 L 1137.161 512.476 C 1136.764 512.152 1136.19 512.152 1135.793 512.476 L 1132.516 515.156 L 1130.784 513.741 L 1130.784 512.894 L 1131.318 513.373 C 1131.706 513.728 1132.305 513.745 1132.71 513.415 L 1136.513 510.378 C 1136.74 510.2 1136.87 509.938 1136.902 509.656 L 1139.751 511.989 C 1140.147 512.314 1140.722 512.314 1141.118 511.989 L 1144.396 509.311 L 1147.673 511.989 C 1148.07 512.314 1148.645 512.314 1149.041 511.989 L 1152.319 509.311 L 1155.596 511.989 C 1155.993 512.314 1156.559 512.314 1156.964 511.989 L 1160.242 509.31 L 1163.519 511.989 C 1163.916 512.314 1164.482 512.314 1164.887 511.989 L 1168.157 509.31 L 1171.442 511.989 C 1171.839 512.314 1172.405 512.314 1172.802 511.989 L 1176.088 509.31 L 1179.365 511.989 C 1179.762 512.314 1180.328 512.314 1180.733 511.989 L 1184.01 509.31 L 1186.9 511.666 L 1186.9 514.275 Z  M 1186.9 519.671 L 1184.698 517.872 C 1184.294 517.547 1183.727 517.547 1183.331 517.872 L 1180.045 520.552 L 1176.767 517.872 C 1176.371 517.547 1175.804 517.547 1175.4 517.872 L 1172.122 520.552 L 1168.844 517.872 C 1168.448 517.547 1167.873 517.547 1167.477 517.872 L 1164.199 520.55 L 1160.922 517.872 C 1160.525 517.547 1159.95 517.547 1159.554 517.872 L 1156.276 520.55 L 1153.007 517.872 C 1152.61 517.547 1152.036 517.547 1151.639 517.872 L 1148.361 520.552 L 1145.076 517.872 C 1144.679 517.547 1144.113 517.547 1143.716 517.872 L 1140.438 520.55 L 1137.161 517.872 C 1136.764 517.547 1136.19 517.547 1135.793 517.872 L 1132.516 520.552 L 1130.784 519.137 L 1130.784 516.529 L 1131.836 517.384 C 1132.232 517.709 1132.799 517.709 1133.195 517.384 L 1136.473 514.706 L 1139.751 517.384 C 1140.147 517.709 1140.722 517.709 1141.118 517.384 L 1144.396 514.706 L 1147.673 517.384 C 1148.07 517.709 1148.645 517.709 1149.041 517.384 L 1152.319 514.706 L 1155.596 517.384 C 1155.993 517.709 1156.559 517.709 1156.964 517.384 L 1160.242 514.705 L 1163.519 517.384 C 1163.916 517.709 1164.482 517.709 1164.887 517.384 L 1168.157 514.705 L 1171.442 517.384 C 1171.839 517.709 1172.405 517.709 1172.802 517.384 L 1176.088 514.705 L 1179.365 517.384 C 1179.762 517.709 1180.328 517.709 1180.733 517.384 L 1184.01 514.705 L 1186.9 517.062 L 1186.9 519.671 Z  M 1055.795 563.877 L 1053.634 563.877 L 1053.634 558.482 C 1053.634 556.102 1051.7 554.166 1049.321 554.166 C 1046.942 554.166 1044.999 556.102 1044.999 558.482 L 1044.999 563.877 L 1042.847 563.877 L 1042.847 558.482 C 1042.847 556.102 1040.904 554.166 1038.525 554.166 C 1036.146 554.166 1034.211 556.102 1034.211 558.482 L 1034.211 563.877 L 1032.051 563.877 L 1032.051 558.482 C 1032.051 556.102 1030.116 554.166 1027.737 554.166 C 1025.358 554.166 1023.424 556.102 1023.424 558.482 L 1023.424 563.877 L 1021.263 563.877 L 1021.263 558.482 C 1021.263 556.102 1019.329 554.166 1016.949 554.166 C 1014.57 554.166 1012.628 556.102 1012.628 558.482 L 1012.628 563.877 L 1010.475 563.877 L 1010.475 558.482 C 1010.475 556.102 1008.533 554.166 1006.153 554.166 C 1003.774 554.166 1001.84 556.102 1001.84 558.482 L 1001.84 563.877 L 999.679 563.877 L 999.679 558.482 C 999.679 556.102 997.745 554.166 995.366 554.166 C 994.581 554.166 993.844 554.394 993.205 554.767 L 993.205 547.062 C 993.205 540.221 998.773 534.653 1005.619 534.653 C 1007.019 534.653 1008.403 534.889 1009.722 535.352 C 1010.062 535.47 1010.427 535.415 1010.71 535.208 C 1011.001 535.001 1011.163 534.666 1011.155 534.313 L 1011.147 534.005 C 1011.147 525.674 1017.929 518.898 1026.256 518.898 C 1032.714 518.898 1038.46 523.006 1040.548 529.121 C 1040.678 529.487 1040.985 529.758 1041.366 529.832 C 1041.746 529.907 1042.134 529.771 1042.385 529.478 C 1044.239 527.338 1046.917 526.11 1049.734 526.11 C 1051.943 526.11 1054.071 526.871 1055.795 528.248 L 1055.795 563.877 Z  M 1055.795 567.115 L 1053.634 567.115 L 1053.634 566.035 L 1055.795 566.035 L 1055.795 567.115 Z  M 1055.795 583.839 L 1053.634 583.839 L 1053.634 569.272 L 1055.795 569.272 L 1055.795 583.839 Z  M 1055.795 587.077 L 1053.634 587.077 L 1053.634 585.998 L 1055.795 585.998 L 1055.795 587.077 Z  M 1055.795 593.551 L 1053.634 593.551 L 1053.634 589.235 L 1055.795 589.235 L 1055.795 593.551 Z  M 1051.474 564.956 L 1051.474 568.193 L 1051.474 584.919 L 1051.474 588.156 L 1051.474 593.551 L 1047.16 593.551 L 1047.16 588.156 L 1047.16 584.919 L 1047.16 568.193 L 1047.16 564.956 L 1047.16 558.482 C 1047.16 557.293 1048.131 556.324 1049.321 556.324 C 1050.51 556.324 1051.474 557.293 1051.474 558.482 L 1051.474 564.956 Z  M 1044.999 567.115 L 1042.847 567.115 L 1042.847 566.035 L 1044.999 566.035 L 1044.999 567.115 Z  M 1044.999 583.839 L 1042.847 583.839 L 1042.847 569.272 L 1044.999 569.272 L 1044.999 583.839 Z  M 1044.999 587.077 L 1042.847 587.077 L 1042.847 585.998 L 1044.999 585.998 L 1044.999 587.077 Z  M 1044.999 593.551 L 1042.847 593.551 L 1042.847 589.235 L 1044.999 589.235 L 1044.999 593.551 Z  M 1040.686 564.956 L 1040.686 568.193 L 1040.686 584.919 L 1040.686 588.156 L 1040.686 593.551 L 1036.372 593.551 L 1036.372 588.156 L 1036.372 584.919 L 1036.372 568.193 L 1036.372 564.956 L 1036.372 558.482 C 1036.372 557.293 1037.335 556.324 1038.525 556.324 C 1039.715 556.324 1040.686 557.293 1040.686 558.482 L 1040.686 564.956 Z  M 1034.211 567.115 L 1032.051 567.115 L 1032.051 566.035 L 1034.211 566.035 L 1034.211 567.115 Z  M 1034.211 583.839 L 1032.051 583.839 L 1032.051 569.272 L 1034.211 569.272 L 1034.211 583.839 Z  M 1034.211 587.077 L 1032.051 587.077 L 1032.051 585.998 L 1034.211 585.998 L 1034.211 587.077 Z  M 1034.211 593.551 L 1032.051 593.551 L 1032.051 589.235 L 1034.211 589.235 L 1034.211 593.551 Z  M 1029.898 564.956 L 1029.898 568.193 L 1029.898 584.919 L 1029.898 588.156 L 1029.898 593.551 L 1025.576 593.551 L 1025.576 588.156 L 1025.576 584.919 L 1025.576 568.193 L 1025.576 564.956 L 1025.576 558.482 C 1025.576 557.293 1026.548 556.324 1027.737 556.324 C 1028.927 556.324 1029.898 557.293 1029.898 558.482 L 1029.898 564.956 Z  M 1023.424 567.115 L 1021.263 567.115 L 1021.263 566.035 L 1023.424 566.035 L 1023.424 567.115 Z  M 1023.424 583.839 L 1021.263 583.839 L 1021.263 569.272 L 1023.424 569.272 L 1023.424 583.839 Z  M 1023.424 587.077 L 1021.263 587.077 L 1021.263 585.998 L 1023.424 585.998 L 1023.424 587.077 Z  M 1023.424 593.551 L 1021.263 593.551 L 1021.263 589.235 L 1023.424 589.235 L 1023.424 593.551 Z  M 1019.102 564.956 L 1019.102 568.193 L 1019.102 584.919 L 1019.102 588.156 L 1019.102 593.551 L 1014.789 593.551 L 1014.789 588.156 L 1014.789 584.919 L 1014.789 568.193 L 1014.789 564.956 L 1014.789 558.482 C 1014.789 557.293 1015.76 556.324 1016.949 556.324 C 1018.139 556.324 1019.102 557.293 1019.102 558.482 L 1019.102 564.956 Z  M 1012.628 567.115 L 1010.475 567.115 L 1010.475 566.035 L 1012.628 566.035 L 1012.628 567.115 Z  M 1012.628 583.839 L 1010.475 583.839 L 1010.475 569.272 L 1012.628 569.272 L 1012.628 583.839 Z  M 1012.628 587.077 L 1010.475 587.077 L 1010.475 585.998 L 1012.628 585.998 L 1012.628 587.077 Z  M 1012.628 593.551 L 1010.475 593.551 L 1010.475 589.235 L 1012.628 589.235 L 1012.628 593.551 Z  M 1008.314 564.956 L 1008.314 568.193 L 1008.314 584.919 L 1008.314 588.156 L 1008.314 593.551 L 1004.001 593.551 L 1004.001 588.156 L 1004.001 584.919 L 1004.001 568.193 L 1004.001 564.956 L 1004.001 558.482 C 1004.001 557.293 1004.964 556.324 1006.153 556.324 C 1007.343 556.324 1008.314 557.293 1008.314 558.482 L 1008.314 564.956 Z  M 1001.84 567.115 L 999.679 567.115 L 999.679 566.035 L 1001.84 566.035 L 1001.84 567.115 Z  M 1001.84 583.839 L 999.679 583.839 L 999.679 569.272 L 1001.84 569.272 L 1001.84 583.839 Z  M 1001.84 587.077 L 999.679 587.077 L 999.679 585.998 L 1001.84 585.998 L 1001.84 587.077 Z  M 1001.84 593.551 L 999.679 593.551 L 999.679 589.235 L 1001.84 589.235 L 1001.84 593.551 Z  M 997.526 564.956 L 997.526 568.193 L 997.526 584.919 L 997.526 588.156 L 997.526 593.551 L 993.205 593.551 L 993.205 558.482 C 993.205 557.293 994.176 556.324 995.366 556.324 C 996.555 556.324 997.526 557.293 997.526 558.482 L 997.526 564.956 Z  M 1264.874 593.551 L 1249.482 593.551 L 1249.482 558.482 L 1249.482 546.954 C 1249.482 532.971 1238.103 521.595 1224.127 521.595 C 1215.322 521.595 1207.132 526.2 1202.527 533.673 C 1200.374 532.951 1198.124 532.585 1195.842 532.585 C 1191.861 532.585 1188.065 533.685 1184.739 535.763 L 1184.739 526.11 L 1187.976 526.11 C 1188.575 526.11 1189.052 525.628 1189.052 525.032 L 1189.052 483.099 C 1189.052 482.502 1188.575 482.02 1187.976 482.02 L 1107.007 482.02 L 1094.01 470.279 C 1093.605 469.907 1092.974 469.907 1092.569 470.279 L 1049.361 509.319 C 1049.127 509.532 1048.997 509.837 1049.013 510.152 C 1049.021 510.469 1049.167 510.766 1049.418 510.963 L 1053.222 514 C 1053.416 514.158 1053.659 514.236 1053.893 514.236 C 1054.152 514.236 1054.411 514.143 1054.614 513.958 L 1055.795 512.894 L 1055.795 525.619 C 1053.974 524.536 1051.878 523.952 1049.734 523.952 C 1046.861 523.952 1044.117 524.994 1041.973 526.853 C 1039.189 520.741 1033.07 516.74 1026.256 516.74 C 1017.111 516.74 1009.601 523.893 1009.026 532.899 C 1007.91 532.631 1006.769 532.495 1005.619 532.495 C 997.583 532.495 991.052 539.03 991.052 547.062 L 991.052 558.482 L 991.052 593.551 L 978.945 593.551 L 978.945 595.709 L 992.129 595.709 L 998.603 595.709 L 1002.916 595.709 L 1009.391 595.709 L 1013.712 595.709 L 1020.187 595.709 L 1024.5 595.709 L 1030.974 595.709 L 1035.288 595.709 L 1041.762 595.709 L 1046.084 595.709 L 1052.558 595.709 L 1056.871 595.709 L 1129.707 595.709 L 1157.223 595.709 L 1180.959 595.709 L 1183.662 595.709 L 1187.976 595.709 L 1194.45 595.709 L 1198.764 595.709 L 1205.238 595.709 L 1209.56 595.709 L 1216.034 595.709 L 1220.347 595.709 L 1226.822 595.709 L 1231.135 595.709 L 1237.61 595.709 L 1241.931 595.709 L 1248.405 595.709 L 1264.874 595.709 C 1265.465 595.709 1265.951 595.227 1265.951 594.63 C 1265.951 594.035 1265.465 593.551 1264.874 593.551 Z " fill="rgb(26,46,53)"/></g></g></g></svg>