<svg width="26" height="25" viewBox="0 0 26 25" fill="none" xmlns="http://www.w3.org/2000/svg">
<path d="M9.19434 15.2223L15.861 8.55566" stroke="#023DA7" stroke-width="2" stroke-linecap="round" stroke-linejoin="round"/>
<path d="M9.74989 9.66678C10.0567 9.66678 10.3054 9.41804 10.3054 9.11122C10.3054 8.80439 10.0567 8.55566 9.74989 8.55566C9.44307 8.55566 9.19434 8.80439 9.19434 9.11122C9.19434 9.41804 9.44307 9.66678 9.74989 9.66678Z" fill="#023DA7" stroke="#023DA7" stroke-width="2" stroke-linecap="round" stroke-linejoin="round"/>
<path d="M15.3056 15.222C15.6124 15.222 15.8611 14.9732 15.8611 14.6664C15.8611 14.3596 15.6124 14.1108 15.3056 14.1108C14.9987 14.1108 14.75 14.3596 14.75 14.6664C14.75 14.9732 14.9987 15.222 15.3056 15.222Z" fill="#023DA7" stroke="#023DA7" stroke-width="2" stroke-linecap="round" stroke-linejoin="round"/>
<path d="M4.75 23V5.22222C4.75 4.63285 4.98413 4.06762 5.40087 3.65087C5.81762 3.23413 6.38285 3 6.97222 3H18.0833C18.6727 3 19.2379 3.23413 19.6547 3.65087C20.0714 4.06762 20.3056 4.63285 20.3056 5.22222V23L16.9722 20.7778L14.75 23L12.5278 20.7778L10.3056 23L8.08333 20.7778L4.75 23Z" stroke="#023DA7" stroke-width="2" stroke-linecap="round" stroke-linejoin="round"/>
</svg>
