<svg width="25" height="25" viewBox="0 0 25 25" fill="none" xmlns="http://www.w3.org/2000/svg">
<g clip-path="url(#clip0_3274_69542)">
<path d="M3.75 3C3.41848 3 3.10054 3.1317 2.86612 3.36612C2.6317 3.60054 2.5 3.91848 2.5 4.25L2.5 21.75C2.5 22.0815 2.6317 22.3995 2.86612 22.6339C3.10054 22.8683 3.41848 23 3.75 23H10V21.75H5V20.5H10V19.25H7.5V18H10V16.75H5V15.5H10V14.25H7.5V13H10V11.75H5V10.5H10V5.5H11.25V10.5H12.5V8H13.75V10.5H15V5.5H16.25V10.5H17.5V8H18.75V10.5H20V5.5H21.25V10.5H22.5V4.25C22.5 3.91848 22.3683 3.60054 22.1339 3.36612C21.8995 3.1317 21.5815 3 21.25 3H3.75Z" fill="#023DA7"/>
<path d="M12.0142 22.4858L12.0142 22.4858C12.1834 22.6549 12.4129 22.75 12.6522 22.75H21.3478C21.5871 22.75 21.8166 22.6549 21.9858 22.4858L21.809 22.309L21.9858 22.4858C22.1549 22.3166 22.25 22.0871 22.25 21.8478V13.1522C22.25 12.9129 22.1549 12.6834 21.9858 12.5142L21.9858 12.5142C21.8166 12.3451 21.5871 12.25 21.3478 12.25H12.6522C12.4129 12.25 12.1834 12.3451 12.0142 12.5142L12.191 12.691L12.0142 12.5142C11.8451 12.6834 11.75 12.9129 11.75 13.1522V21.8478C11.75 22.0871 11.8451 22.3166 12.0142 22.4858ZM21.3152 13.1848V21.8152H12.6848V13.1848H21.3152Z" fill="#023DA7" stroke="#023DA7" stroke-width="0.5"/>
</g>
<defs>
<clipPath id="clip0_3274_69542">
<rect width="20" height="20" fill="white" transform="translate(2.5 3)"/>
</clipPath>
</defs>
</svg>
