<svg width="26" height="25" viewBox="0 0 26 25" fill="none" xmlns="http://www.w3.org/2000/svg">
<g clip-path="url(#clip0_3274_69533)">
<path d="M4.5 3C4.16848 3 3.85054 3.1317 3.61612 3.36612C3.3817 3.60054 3.25 3.91848 3.25 4.25L3.25 21.75C3.25 22.0815 3.3817 22.3995 3.61612 22.6339C3.85054 22.8683 4.16848 23 4.5 23H10.75V21.75H5.75V20.5H10.75V19.25H8.25V18H10.75V16.75H5.75V15.5H10.75V14.25H8.25V13H10.75V11.75H5.75V10.5H10.75V5.5H12V10.5H13.25V8H14.5V10.5H15.75V5.5H17V10.5H18.25V8H19.5V10.5H20.75V5.5H22V10.5H23.25V4.25C23.25 3.91848 23.1183 3.60054 22.8839 3.36612C22.6495 3.1317 22.3315 3 22 3H4.5Z" fill="#023DA7"/>
<path d="M17.75 13C17.75 13 14.3477 15.9667 12.4464 17.5733C12.3347 17.6756 12.25 17.8244 12.25 18C12.25 18.3072 12.4959 18.5556 12.8 18.5556H13.9V22.4444C13.9 22.7517 14.1459 23 14.45 23H16.1C16.4042 23 16.65 22.7511 16.65 22.4444V20.2222H18.85V22.4444C18.85 22.7511 19.0958 23 19.4 23H21.05C21.3541 23 21.6 22.7517 21.6 22.4444V18.5556H22.7C23.0042 18.5556 23.25 18.3072 23.25 18C23.25 17.8244 23.1653 17.6756 23.0394 17.5733C21.1512 15.9667 17.75 13 17.75 13Z" fill="#023DA7"/>
</g>
<defs>
<clipPath id="clip0_3274_69533">
<rect width="20" height="20" fill="white" transform="translate(3.25 3)"/>
</clipPath>
</defs>
</svg>
