<svg width="472" height="316" viewBox="0 0 472 316" fill="none" xmlns="http://www.w3.org/2000/svg">
<path d="M24.475 70.8473C24.8397 70.8473 25.1922 70.8473 25.5326 70.8473C29.3864 67.8355 33.8238 65.9053 37.6897 65.9053C38.9027 65.8596 40.1057 66.0937 41.1436 66.5774C42.1816 67.061 43.0068 67.772 43.513 68.6187C50.6006 62.7629 59.0012 58.9492 66.1252 58.9492C71.8755 58.9492 75.7415 61.4295 77.3706 65.4764C81.1636 63.1825 85.1876 61.8025 88.7375 61.8025C94.9984 61.8025 98.0133 66.0545 96.8706 72.0594C99.9797 70.763 103.409 69.9816 106.937 69.7656C113.271 69.4952 117.295 71.9382 118.352 75.9198C119.634 75.274 121.104 74.8801 122.631 74.7729C126.096 74.6237 127.555 76.8243 126.108 79.7615H7.07812C10.4213 75.2484 18.0195 71.3508 24.475 70.8473Z" fill="#F4F3F2"/>
<path d="M140.92 19.0064C150.196 8.09674 165.478 0.357422 179.556 0.357422C188.382 0.357422 195.105 3.40653 198.898 8.3858C204.016 5.58846 209.754 3.8541 215.212 3.8541C224.804 3.8541 230.798 9.10379 230.956 16.5168C235.59 14.881 240.585 13.9319 245.678 13.7194C255.319 13.3837 262.285 16.4049 265.19 21.3189C267.087 20.4666 269.211 19.9565 271.403 19.8269C276.958 19.6311 279.913 22.6802 278.053 26.6338C277.931 26.8763 277.797 27.1187 277.664 27.3518H122.223C122.648 23.5567 134.015 19.2022 140.92 19.0064Z" fill="#E4E2E0"/>
<path d="M72.5027 146.688H33.3203V272.941H100.914V168.469L72.5027 146.688Z" fill="#F4F3F2"/>
<path d="M61.7282 168.465H4.91797V272.927H61.7282V168.465Z" fill="#E4E2E0"/>
<path d="M61.7282 168.465H4.91797V170.181H61.7282V168.465Z" fill="#F4F3F2"/>
<path d="M33.317 146.688L4.91797 168.469H61.716L33.317 146.688Z" fill="#E4E2E0"/>
<path d="M24.7394 182.119H14.418V190.036H24.7394V182.119Z" fill="#F4F3F2"/>
<path d="M47.4073 182.119H37.0859V190.036H47.4073V182.119Z" fill="#F4F3F2"/>
<path d="M24.7394 204.803H14.418V212.719H24.7394V204.803Z" fill="#F4F3F2"/>
<path d="M47.4073 204.803H37.0859V212.719H47.4073V204.803Z" fill="#F4F3F2"/>
<path d="M24.7394 227.492H14.418V235.409H24.7394V227.492Z" fill="#F4F3F2"/>
<path d="M47.4073 227.492H37.0859V235.409H47.4073V227.492Z" fill="#F4F3F2"/>
<path d="M24.7394 250.184H14.418V258.1H24.7394V250.184Z" fill="#F4F3F2"/>
<path d="M47.4073 250.184H37.0859V258.1H47.4073V250.184Z" fill="#F4F3F2"/>
<path d="M90.0884 148.369H80.8125V162.598H90.0884V148.369Z" fill="#F4F3F2"/>
<path d="M292.766 130.062H244.32V272.942H327.876V157.001L292.766 130.062Z" fill="#F4F3F2"/>
<path d="M279.423 156.996H209.191V272.937H279.423V156.996Z" fill="#E4E2E0"/>
<path d="M279.423 156.996H209.191V159.122H279.423V156.996Z" fill="#F4F3F2"/>
<path d="M244.313 130.062L209.191 157.001H279.423L244.313 130.062Z" fill="#E4E2E0"/>
<path d="M322.76 174.354H292.137V272.941H357.882V201.292L322.76 174.354Z" fill="#F4F3F2"/>
<path d="M292.137 174.354V201.292V272.941H327.259V201.292L292.137 174.354Z" fill="#E4E2E0"/>
<path d="M248.513 180.48H240.125V194.178H248.513V180.48Z" fill="#F4F3F2"/>
<path d="M267.033 180.48H258.645V194.178H267.033V180.48Z" fill="#F4F3F2"/>
<path d="M248.513 206.527H240.125V220.225H248.513V206.527Z" fill="#F4F3F2"/>
<path d="M267.033 206.527H258.645V220.225H267.033V206.527Z" fill="#F4F3F2"/>
<path d="M248.513 232.57H240.125V246.268H248.513V232.57Z" fill="#F4F3F2"/>
<path d="M229.984 180.48H221.596V194.178H229.984V180.48Z" fill="#F4F3F2"/>
<path d="M229.984 206.527H221.596V220.225H229.984V206.527Z" fill="#F4F3F2"/>
<path d="M229.984 232.57H221.596V246.268H229.984V232.57Z" fill="#F4F3F2"/>
<path d="M267.033 232.57H258.645V246.268H267.033V232.57Z" fill="#F4F3F2"/>
<path d="M310.521 206.527H302.133V220.225H310.521V206.527Z" fill="#F4F3F2"/>
<path d="M310.521 232.57H302.133V246.268H310.521V232.57Z" fill="#F4F3F2"/>
<path d="M159.441 175.619H115.359V272.939H191.402V200.133L159.441 175.619Z" fill="#F4F3F2"/>
<path d="M147.297 200.129H83.3867V272.934H147.297V200.129Z" fill="#E4E2E0"/>
<path d="M147.297 200.129H83.3867V202.059H147.297V200.129Z" fill="#F4F3F2"/>
<path d="M115.348 175.619L83.3867 200.133H147.297L115.348 175.619Z" fill="#E4E2E0"/>
<path d="M105.692 215.484H94.082V224.389H105.692V215.484Z" fill="#F4F3F2"/>
<path d="M131.208 215.484H119.598V224.389H131.208V215.484Z" fill="#F4F3F2"/>
<path d="M105.692 240.998H94.082V249.903H105.692V240.998Z" fill="#F4F3F2"/>
<path d="M131.208 240.998H119.598V249.903H131.208V240.998Z" fill="#F4F3F2"/>
<path d="M433.434 195.592H387.273V272.938H466.89V215.071L433.434 195.592Z" fill="#F4F3F2"/>
<path d="M420.741 215.064H353.828V272.923H420.741V215.064Z" fill="#E4E2E0"/>
<path d="M420.741 215.064H353.828V216.603H420.741V215.064Z" fill="#F4F3F2"/>
<path d="M387.272 195.592L353.828 215.071H420.729L387.272 195.592Z" fill="#E4E2E0"/>
<path d="M370.257 224.494H364.166V234.537H370.257V224.494Z" fill="#F4F3F2"/>
<path d="M383.64 224.494H377.549V234.537H383.64V224.494Z" fill="#F4F3F2"/>
<path d="M370.257 247.875H364.166V257.917H370.257V247.875Z" fill="#F4F3F2"/>
<path d="M383.64 247.875H377.549V257.917H383.64V247.875Z" fill="#F4F3F2"/>
<path d="M397.011 224.494H390.92V234.537H397.011V224.494Z" fill="#F4F3F2"/>
<path d="M410.393 224.494H404.303V234.537H410.393V224.494Z" fill="#F4F3F2"/>
<path d="M397.011 247.875H390.92V257.917H397.011V247.875Z" fill="#F4F3F2"/>
<path d="M410.393 247.875H404.303V257.917H410.393V247.875Z" fill="#F4F3F2"/>
<path d="M440.995 187.033H426.297V204.153H440.995V187.033Z" fill="#F4F3F2"/>
<path d="M235.999 315.054C366.181 315.054 471.714 310.328 471.714 304.499C471.714 298.669 366.181 293.943 235.999 293.943C105.818 293.943 0.285156 298.669 0.285156 304.499C0.285156 310.328 105.818 315.054 235.999 315.054Z" fill="#F4F3F2"/>
<path opacity="0.1" d="M259.043 267.595V269.404H333.882V267.595H259.043Z" fill="#E4E2E0"/>
<path opacity="0.4" d="M271.746 267.598V199.408H259.042V267.598H271.746Z" fill="#FDFDFD"/>
<path opacity="0.4" d="M271.746 235.573V231.414H259.042V235.573H271.746Z" fill="#FDFDFD"/>
<path opacity="0.4" d="M268.79 201.908H261.982V265.11H268.79V201.908Z" fill="#FDFDFD"/>
</svg>
