<svg width="14" height="23" viewBox="0 0 14 23" fill="none" xmlns="http://www.w3.org/2000/svg">
<path d="M0.287958 6.51939C0.403141 4.71133 1.08464 3.30182 2.33246 2.29086C3.59948 1.27989 5.21204 0.774414 7.17016 0.774414C8.51396 0.774414 9.67539 1.01743 10.6545 1.50347C11.6335 1.98951 12.3726 2.65052 12.8717 3.48651C13.3709 4.3225 13.6204 5.26541 13.6204 6.31525C13.6204 7.52063 13.3037 8.55103 12.6702 9.40646C12.0366 10.2619 11.2784 10.8354 10.3953 11.127V11.2437C11.5279 11.5936 12.411 12.2352 13.0445 13.1684C13.678 14.0821 13.9948 15.2584 13.9948 16.697C13.9948 17.8441 13.7356 18.8648 13.2173 19.7591C12.699 20.6534 11.9311 21.363 10.9136 21.8879C9.89616 22.3934 8.67714 22.6461 7.25655 22.6461C5.18325 22.6461 3.47469 22.1115 2.13089 21.0422C0.806283 19.9535 0.0959861 18.3982 0 16.3762H3.16754C3.24433 17.4067 3.63787 18.2524 4.34817 18.9134C5.05847 19.5549 6.01833 19.8757 7.22775 19.8757C8.39878 19.8757 9.30105 19.5549 9.93456 18.9134C10.5681 18.2524 10.8848 17.4067 10.8848 16.3762C10.8848 15.0153 10.4529 14.053 9.58901 13.4892C8.74433 12.9059 7.43892 12.6143 5.67278 12.6143H4.92408V9.87305H5.70157C7.25655 9.85361 8.43717 9.59115 9.24346 9.08567C10.0689 8.58019 10.4817 7.78309 10.4817 6.69436C10.4817 5.76117 10.1841 5.02239 9.58901 4.47803C8.99389 3.91422 8.14922 3.63232 7.05497 3.63232C5.97993 3.63232 5.14485 3.91422 4.54974 4.47803C3.95463 5.02239 3.59948 5.70284 3.48429 6.51939H0.287958Z" fill="currentColor"/>
</svg>
