<svg width="17" height="22" viewBox="0 0 17 22" fill="none" xmlns="http://www.w3.org/2000/svg">
<path d="M13.3186 6.47954C13.3202 5.56002 13.1021 4.81686 12.6643 4.25008C12.2265 3.68329 11.5223 3.28149 10.5519 3.04467C9.07747 2.68489 7.83919 2.99267 6.83702 3.96799C5.83934 4.92441 5.00705 6.72111 4.34016 9.35809C5.02326 8.64487 5.88535 8.17531 6.92643 7.9494C7.96751 7.7235 9.02928 7.74262 10.1117 8.00676C11.3435 8.30733 12.3608 8.84553 13.1635 9.62136C13.9894 10.3828 14.5422 11.3377 14.822 12.4858C15.1203 13.6385 15.1009 14.9236 14.7636 16.3412C14.4489 17.6642 13.9065 18.7818 13.1366 19.6938C12.3854 20.6103 11.4339 21.2481 10.2822 21.607C9.13499 21.947 7.85219 21.9439 6.43379 21.5978C4.5115 21.1287 3.10097 20.3345 2.20221 19.2153C1.32661 18.0818 0.851474 16.6759 0.776806 14.9979C0.720801 13.3244 0.971608 11.3158 1.52923 8.97214C3.17511 2.05451 6.40558 -0.816809 11.2207 0.358167C13.087 0.813584 14.4306 1.6814 15.2516 2.96162C16.0912 4.2464 16.4267 5.65813 16.2581 7.19682L13.3186 6.47954ZM8.76432 10.5577C7.62587 10.2799 6.5722 10.3927 5.6033 10.8962C4.65756 11.3853 4.02954 12.282 3.71926 13.5861C3.40897 14.8903 3.52557 16.0186 4.06905 16.9711C4.6357 17.9093 5.58156 18.5401 6.90664 18.8635C8.08241 19.1504 9.09392 19.0072 9.94118 18.4341C10.8071 17.8654 11.3862 16.9669 11.6785 15.7383C11.9843 14.4531 11.8912 13.3505 11.3992 12.4305C10.9304 11.4962 10.0521 10.8719 8.76432 10.5577Z" fill="currentColor"/>
</svg>
