<svg width="19" height="23" viewBox="0 0 19 23" fill="none" xmlns="http://www.w3.org/2000/svg">
<path d="M6.09103 18.3358C7.37139 16.2368 8.36267 14.5354 9.06485 13.2318C9.77959 11.9038 10.3088 10.5941 10.6526 9.30272C10.9963 8.01131 11.0013 6.82774 10.6674 5.75201C10.322 4.63919 9.78594 3.85202 9.05912 3.39048C8.35062 2.92311 7.4378 2.86722 6.32065 3.22282C5.24013 3.56676 4.50706 4.18731 4.12144 5.08447C3.74838 5.95726 3.72486 6.98371 4.05087 8.16382L1.02908 9.1257C0.427811 6.99385 0.549688 5.18206 1.39471 3.69033C2.2523 2.17421 3.60594 1.12176 5.45564 0.532982C7.45186 -0.102436 9.18122 -0.0415366 10.6437 0.71568C12.1246 1.46707 13.1528 2.77011 13.7284 4.62481C14.1429 5.96019 14.2041 7.35705 13.9122 8.81539C13.6328 10.2494 13.1787 11.6065 12.5497 12.8868C11.9334 14.1427 11.1095 15.6379 10.0782 17.3723L9.18742 18.8786L17.8957 16.1067L18.7159 18.7496L5.36512 22.9994L4.64846 20.6903L6.09103 18.3358Z" fill="currentColor"/>
</svg>
