<svg width="16" height="23" viewBox="0 0 16 23" fill="none" xmlns="http://www.w3.org/2000/svg">
<path d="M13.3582 3.30027L3.76332 4.31023L4.35572 10.0824C4.70113 9.49878 5.24642 8.98204 5.99158 8.53223C6.75584 8.08041 7.58668 7.80726 8.48412 7.7128C10.088 7.54397 11.4222 7.75537 12.4865 8.347C13.57 8.93662 14.3763 9.7411 14.9055 10.7604C15.4539 11.7778 15.7886 12.8762 15.9096 14.0558C16.0565 15.4868 15.9106 16.7922 15.472 17.972C15.0505 19.1305 14.3283 20.0861 13.3054 20.8388C12.3016 21.5895 11.0168 22.0473 9.45107 22.2121C7.36979 22.4312 5.64545 22.0849 4.27805 21.1733C2.91066 20.2618 2.01453 18.9585 1.58967 17.2636L4.76888 16.929C5.0722 17.8158 5.61443 18.4917 6.39559 18.9567C7.17476 19.4025 8.10853 19.5681 9.19691 19.4535C10.5526 19.3108 11.5219 18.7885 12.1049 17.8867C12.707 16.9828 12.9375 15.8444 12.7966 14.4714C12.6537 13.0791 12.2009 12.0518 11.4381 11.3893C10.6733 10.7075 9.62258 10.4369 8.28597 10.5776C7.35035 10.6761 6.58274 11.0012 5.98315 11.553C5.40066 12.0834 5.00789 12.7698 4.80483 13.6121L1.71155 13.9377L0.458264 1.72618L13.0605 0.399664L13.3582 3.30027Z" fill="currentColor"/>
</svg>
