<svg width="50" height="50" viewBox="0 0 50 50" xmlns="http://www.w3.org/2000/svg">
<path d="M14.5733 32.1075C15.6698 32.1075 16.5587 31.2186 16.5587 30.1222C16.5587 29.0257 15.6698 28.1368 14.5733 28.1368C13.4769 28.1368 12.588 29.0257 12.588 30.1222C12.588 31.2186 13.4769 32.1075 14.5733 32.1075Z"/>
<path d="M35.4266 32.1075C36.5231 32.1075 37.4119 31.2186 37.4119 30.1222C37.4119 29.0257 36.5231 28.1368 35.4266 28.1368C34.3301 28.1368 33.4413 29.0257 33.4413 30.1222C33.4413 31.2186 34.3301 32.1075 35.4266 32.1075Z"/>
<path d="M50 29.2796C50 26.4038 47.9155 24.0074 45.1783 23.5177V22.6499C45.1783 11.5235 36.1263 2.47158 25.0001 2.47158C13.8737 2.47158 4.82174 11.5235 4.82174 22.6499V23.5177C2.08454 24.0075 0 26.4039 0 29.2796C0 32.1802 2.12046 34.5935 4.8924 35.0542C5.28254 39.5 7.31658 42.7839 10.9566 44.8275C14.1938 46.6449 18.7873 47.5283 25.0001 47.5283C31.2127 47.5283 35.8063 46.6448 39.0435 44.8275C42.6834 42.7839 44.7175 39.5002 45.1076 35.0542C47.8795 34.5937 50 32.1802 50 29.2796ZM2.06698 29.2796C2.06698 27.5492 3.23378 26.087 4.82161 25.6359V32.9233C3.23378 32.4723 2.06698 31.0102 2.06698 29.2796ZM43.1113 33.4278C43.1113 37.9667 41.4497 41.1061 38.0316 43.0251C35.1116 44.6645 30.849 45.4613 25.0001 45.4613C19.1512 45.4613 14.8884 44.6645 11.9686 43.0251C8.5503 41.1061 6.88871 37.9667 6.88871 33.4278V22.6499C6.88871 14.4713 12.3384 7.54278 19.7967 5.30153C25.4787 5.37336 28.5047 9.47501 28.5047 12.445C28.5047 14.7197 26.6542 16.5704 24.3793 16.5704C22.6736 16.5704 21.2857 15.1826 21.2857 13.4768C21.2857 12.2262 22.3032 11.2086 23.554 11.2086C24.1247 11.2086 24.5874 10.7458 24.5874 10.1751C24.5874 9.60433 24.1247 9.14158 23.554 9.14158C21.1635 9.14158 19.2187 11.0863 19.2187 13.4768C19.2187 16.3224 21.5337 18.6374 24.3793 18.6374C27.7938 18.6374 30.5717 15.8595 30.5717 12.445C30.5717 10.2999 29.4939 7.99196 27.6887 6.2712C26.9665 5.5829 26.1449 5.00427 25.2484 4.54179C35.1208 4.67536 43.1113 12.7464 43.1113 22.6499V33.4278ZM45.1783 32.9234V25.636C46.7662 26.0872 47.933 27.5493 47.933 29.2797C47.933 31.0102 46.7661 32.4723 45.1783 32.9234Z"/>
<path d="M28.997 32.9686C26.7932 35.1727 23.2068 35.1727 21.0031 32.9686C20.5994 32.5651 19.9452 32.5651 19.5415 32.9686C19.1379 33.3722 19.1379 34.0267 19.5415 34.4302C21.0463 35.9351 23.0233 36.6876 25.0001 36.6876C26.9769 36.6876 28.9537 35.9351 30.4587 34.4302C30.8623 34.0267 30.8623 33.3722 30.4587 32.9686C30.0549 32.5651 29.4007 32.5651 28.997 32.9686Z"/>
</svg>
