<svg xmlns="http://www.w3.org/2000/svg" xmlns:xlink="http://www.w3.org/1999/xlink" style="isolation:isolate" viewBox="352.657 181.326 60.231 50" width="60.231pt" height="50pt">
    <g>
            <path d=" M 353.352 228.326 L 378.215 228.326 C 378.599 228.326 378.91 228.016 378.91 227.632 L 378.91 224.458 C 378.91 224.074 378.599 223.763 378.215 223.763 L 353.352 223.763 C 352.968 223.763 352.657 224.074 352.657 224.458 L 352.657 227.632 C 352.658 228.016 352.969 228.326 353.352 228.326 Z " />
            <path d=" M 365.616 207.874 L 372.767 210.15 C 372.864 210.18 372.943 210.247 372.99 210.337 C 373.036 210.427 373.045 210.53 373.014 210.627 L 372.347 212.723 C 372.068 213.601 371.261 214.192 370.34 214.192 C 370.34 214.192 370.34 214.192 370.34 214.192 C 370.124 214.192 369.909 214.158 369.7 214.092 L 358.689 210.588 C 358.153 210.417 357.715 210.048 357.457 209.547 C 357.198 209.047 357.15 208.477 357.32 207.94 L 357.987 205.845 C 358.05 205.649 358.264 205.534 358.465 205.598 L 365.616 207.874 L 365.616 207.874 Z  M 410.902 216.494 C 411.196 216.494 411.47 216.305 411.564 216.01 L 412.855 211.952 C 412.972 211.586 412.769 211.195 412.404 211.079 L 391.467 204.415 C 391.292 204.359 391.101 204.375 390.937 204.46 C 390.774 204.545 390.65 204.691 390.595 204.866 L 390.458 205.295 L 379.986 201.962 L 380.249 201.135 C 380.305 200.96 380.289 200.769 380.204 200.606 C 380.119 200.442 379.973 200.319 379.798 200.263 L 377.958 199.677 L 378.298 198.608 C 378.354 198.432 378.338 198.241 378.253 198.078 C 378.168 197.914 378.022 197.791 377.847 197.735 L 376.741 197.383 L 377.306 195.608 L 377.387 195.634 C 377.562 195.689 377.742 195.718 377.924 195.718 L 377.924 195.718 C 378.698 195.718 379.376 195.222 379.61 194.484 L 380.277 192.389 C 380.862 190.551 379.843 188.581 378.005 187.996 L 366.994 184.492 C 366.649 184.382 366.293 184.326 365.933 184.326 C 364.405 184.326 363.066 185.306 362.602 186.763 L 361.936 188.859 C 361.64 189.789 362.156 190.786 363.085 191.082 L 363.167 191.108 L 362.602 192.883 L 361.496 192.531 C 361.32 192.476 361.13 192.491 360.966 192.576 C 360.802 192.661 360.679 192.807 360.623 192.982 L 357.976 201.301 C 357.92 201.476 357.936 201.667 358.021 201.83 C 358.106 201.994 358.252 202.117 358.427 202.173 L 359.533 202.525 L 358.968 204.3 L 358.887 204.275 C 358.713 204.219 358.532 204.191 358.35 204.191 C 357.577 204.191 356.899 204.686 356.664 205.424 L 355.997 207.52 C 355.714 208.41 355.794 209.357 356.223 210.187 C 356.652 211.016 357.378 211.629 358.268 211.912 L 369.279 215.416 C 369.624 215.526 369.981 215.582 370.34 215.582 C 370.34 215.582 370.34 215.582 370.34 215.582 C 371.869 215.582 373.208 214.602 373.671 213.145 L 374.338 211.049 C 374.482 210.599 374.441 210.12 374.224 209.7 C 374.007 209.28 373.639 208.97 373.188 208.826 L 373.107 208.8 L 373.672 207.025 L 374.778 207.377 C 375.142 207.493 375.534 207.292 375.65 206.926 L 375.991 205.856 L 377.831 206.442 C 378.196 206.558 378.587 206.356 378.703 205.991 L 378.967 205.164 L 389.439 208.497 L 389.303 208.925 C 389.186 209.291 389.388 209.681 389.754 209.798 L 410.691 216.461 C 410.761 216.483 410.832 216.494 410.902 216.494 L 410.902 216.494 Z  M 365.933 185.716 C 366.149 185.716 366.365 185.749 366.573 185.816 L 377.584 189.32 C 378.691 189.672 379.305 190.86 378.953 191.967 L 378.286 194.063 C 378.224 194.259 378.008 194.374 377.809 194.31 L 363.506 189.758 C 363.307 189.695 363.196 189.48 363.259 189.28 L 363.926 187.185 C 364.206 186.306 365.012 185.716 365.933 185.716 Z " fill-rule="evenodd" />
    </g>
</svg>