<svg xmlns="http://www.w3.org/2000/svg" xmlns:xlink="http://www.w3.org/1999/xlink" style="isolation:isolate" viewBox="482.365 438.239 160.269 128.523" width="160.269pt" height="128.523pt">
    <g>
        <path d=" M 586.499 438.239 L 553.644 459.328 L 556.974 461.151 L 586.205 442.388 L 635.785 470.472 L 607.347 488.726 L 608.732 489.484 L 608.732 491.798 L 631.007 477.5 L 635.682 480.149 L 608.732 497.447 L 608.732 501.408 L 630.571 487.39 L 635.682 490.286 L 608.732 507.584 L 608.732 511.545 L 630.571 497.527 L 635.682 500.423 L 608.732 517.721 L 608.732 521.682 L 642.532 499.986 L 634.143 495.235 L 642.532 489.85 L 634.143 485.098 L 642.531 479.713 L 634.578 475.208 L 642.634 470.036 L 586.499 438.239 L 586.499 438.239 Z  M 596.997 453.356 C 589.888 456.923 580.42 457.526 573.753 454.837 L 560.721 463.202 L 603.6 486.675 L 615.961 478.742 C 611.092 474.898 611.497 469.162 616.955 464.662 L 596.996 453.356 L 596.997 453.356 Z  M 552.871 465.839 L 528.987 481.414 L 574.808 507.791 L 575.257 507.504 C 576.102 506.96 577.295 506.19 578.718 505.27 C 581.563 503.431 585.328 500.992 589.083 498.559 C 594.489 495.055 597.276 493.248 599.867 491.567 L 552.871 465.839 Z  M 591.887 466.234 C 591.887 466.234 591.887 466.234 591.888 466.234 C 592.842 465.608 593.908 465.857 594.699 466.891 C 594.974 468.262 594.866 469.785 594.405 471.041 C 594.425 474.219 592.908 476.892 591.017 477.012 C 589.125 477.132 587.575 474.654 587.555 471.477 C 587.28 470.107 587.388 468.584 587.849 467.328 C 588.821 465.177 590.619 464.69 591.887 466.234 L 591.887 466.234 Z  M 518.084 482.154 L 482.468 505.014 L 490.421 509.519 L 482.365 514.69 L 490.754 519.442 L 482.365 524.827 L 490.754 529.579 L 482.365 534.965 L 538.501 566.762 L 572.392 545.007 L 572.392 541.047 L 538.795 562.612 L 489.215 534.528 L 494.032 531.436 L 538.501 556.625 L 572.392 534.87 L 572.392 530.91 L 538.795 552.475 L 489.215 524.391 L 494.032 521.299 L 538.501 546.488 L 572.392 524.733 L 572.392 520.773 L 538.795 542.339 L 489.215 514.254 L 493.699 511.375 L 538.604 536.812 L 572.392 515.123 L 572.392 513.417 L 570.541 512.351 L 538.897 532.662 L 489.319 504.578 L 521.337 484.026 L 518.083 482.153 L 518.084 482.154 Z  M 524.997 486.134 L 509.143 496.31 C 514.012 500.153 513.607 505.888 508.149 510.39 L 528.107 521.696 C 535.216 518.128 544.683 517.525 551.35 520.214 L 566.881 510.245 L 524.996 486.134 L 524.997 486.134 Z  M 602.65 497.011 C 599.932 498.774 597.535 500.33 592.39 503.663 C 588.636 506.097 584.87 508.536 582.021 510.378 C 580.596 511.299 579.4 512.071 578.548 512.619 C 578.517 512.639 578.505 512.646 578.475 512.665 L 578.475 541.698 L 602.65 525.45 L 602.65 497.011 L 602.65 497.011 Z  M 534.737 502.917 C 535.692 502.291 536.758 502.541 537.548 503.575 C 537.824 504.946 537.716 506.468 537.255 507.724 C 537.275 510.901 535.758 513.574 533.867 513.694 C 531.975 513.815 530.426 511.337 530.405 508.16 C 530.13 506.79 530.238 505.267 530.699 504.011 C 531.671 501.86 533.47 501.373 534.737 502.918 L 534.737 502.917 Z " />
    </g>
</svg>