<svg width="38" height="53" viewBox="0 0 38 53" fill="none" xmlns="http://www.w3.org/2000/svg">
<path d="M15.9171 52.58C15.4956 52.5605 15.0741 52.528 14.6526 52.523C11.0808 52.4792 7.5095 52.4378 3.93868 52.3989C3.52951 52.3938 3.26979 52.1291 3.28575 51.7402C3.3583 49.8877 3.84292 48.1599 4.88181 46.6017C5.5409 45.6018 6.38718 44.7372 7.37456 44.0551C7.57044 43.9202 7.60381 43.7968 7.52981 43.5782C7.32958 42.9881 7.15401 42.3901 6.96829 41.7913C5.57682 41.8786 4.45522 41.4075 3.62382 40.3139C2.90922 39.376 2.85119 38.3134 2.99773 37.1858C3.293 34.9192 3.53894 32.6453 3.79576 30.3736C3.80809 30.2668 3.75804 30.1023 3.67823 30.0432C2.42315 29.1191 1.72669 27.879 1.48438 26.3554C1.34509 25.4976 1.17025 24.6485 1.01644 23.7958C0.970739 23.5433 0.996857 23.2814 1.24932 23.1682C1.41764 23.096 1.63963 23.1011 1.82971 23.1263C1.9291 23.14 2.02051 23.2656 2.10249 23.3521C2.46523 23.7388 2.81709 24.1385 3.19071 24.5172C4.36889 25.7162 5.76689 26.1526 7.39342 25.6137C9.01995 25.0749 10.5855 25.3252 12.0793 26.0271C13.0767 26.4887 14.0319 27.0357 14.9341 27.6618C17.1765 29.2338 17.8403 32.3365 16.5236 34.8398C15.9918 35.8498 15.4093 36.8381 14.8724 37.8481C14.7765 38.0346 14.7439 38.2469 14.7795 38.4534C14.9928 39.4633 15.2344 40.4733 15.4811 41.4753C15.5198 41.636 15.5998 41.7839 15.7132 41.9046C18.1218 44.3292 19.3036 47.2509 19.3232 50.6487C19.3232 50.9979 19.3073 51.3478 19.3276 51.6962C19.3493 52.0569 19.2688 52.3563 18.9648 52.5771L15.9171 52.58ZM18.153 51.4257C18.2981 48.3828 17.5001 45.6992 15.5268 43.4181C14.6018 42.3468 15.0124 42.6245 13.6195 42.7046C13.5832 42.7046 13.5469 42.7212 13.5121 42.7255C11.6984 42.9521 10.0813 43.7066 8.55129 44.6495C6.93201 45.6472 5.73134 47.0193 5.03633 48.7998C4.71803 49.5809 4.5367 50.4105 4.5002 51.2526L18.153 51.4257ZM13.922 37.1779C14.4952 36.129 15.0828 35.145 15.5834 34.1191C16.5214 32.1951 15.9925 29.8239 14.3 28.6364C13.3569 27.9764 12.3216 27.4259 11.2726 26.9447C10.1502 26.4297 8.95611 26.307 7.73657 26.7096C5.90473 27.3141 4.25427 26.926 2.77791 25.7277C2.71189 25.6736 2.63935 25.6267 2.55446 25.5654C2.54708 25.6018 2.54319 25.6387 2.54286 25.6758C2.56897 25.8417 2.59872 26.0076 2.62484 26.1743C2.80403 27.3285 3.30243 28.3053 4.25789 29.008C4.45901 29.1525 4.69844 29.235 4.94637 29.2453C6.31463 29.267 7.68289 29.254 9.05187 29.2576C9.63225 29.2576 9.80782 29.4307 9.82741 30.0064C9.85576 31.0673 10.0683 32.1153 10.4557 33.1041C10.534 33.3003 10.6182 33.4064 10.8576 33.4309C11.7282 33.5196 12.4914 34.1833 12.6365 35.044C12.7126 35.4999 12.6365 35.9818 12.627 36.5185L13.922 37.1779ZM4.99861 30.4089C4.97906 30.4457 4.96279 30.4841 4.95 30.5236C4.65981 32.9966 4.35075 35.4682 4.07942 37.9433C3.88862 39.705 5.70305 41.1759 7.2447 40.4769C8.60715 39.8594 9.54012 38.8465 9.6221 37.2515C9.65184 36.6628 9.8129 36.5221 10.4078 36.5149C11.0919 36.507 11.5497 36.1073 11.5446 35.5237C11.5395 34.9401 11.1035 34.5484 10.4267 34.5635C9.99137 34.5736 9.74253 34.3962 9.56986 33.9979C9.1039 32.9517 8.80996 31.8379 8.69929 30.6989C8.68985 30.5972 8.55999 30.4226 8.48164 30.4212C7.33103 30.4032 6.17026 30.4089 5.00151 30.4089H4.99861ZM14.2644 41.3873C14.1019 40.6904 13.8807 39.9741 13.7806 39.2411C13.6804 38.5082 13.3155 38.0804 12.6336 37.7983C12.1003 37.5819 11.6397 37.25 11.0274 37.5963C10.8547 37.6937 10.7372 37.7464 10.7031 37.9455C10.4796 39.1935 9.81943 40.1631 8.78417 40.8903C8.54113 41.0612 8.30027 41.2358 8.05869 41.4075C8.25602 42.0366 8.44392 42.6339 8.61585 43.1843C9.55898 42.7868 10.4368 42.3417 11.3625 42.0467C12.2882 41.7516 13.2589 41.6095 14.2644 41.3873Z" fill="#B7B4B2"/>
<path d="M22.0925 36.2437C22.2376 36.1715 22.3472 36.1095 22.4328 36.064C22.2609 35.4465 22.0425 34.868 21.9431 34.2699C21.3315 30.5799 23.4702 27.1085 27.036 25.911C28.7423 25.3382 30.4544 25.3454 32.1912 25.7212C32.8761 25.8698 33.5762 25.9542 34.2545 26.1259C34.9606 26.3055 35.6164 26.6422 36.1725 27.1105C36.7286 27.5789 37.1705 28.1667 37.4649 28.8297C37.7592 29.4926 37.8983 30.2134 37.8716 30.9376C37.845 31.6618 37.6532 32.3705 37.311 33.0103C37.1096 33.3999 36.9545 33.8115 36.8488 34.2367C36.5195 35.4631 36.1088 36.6751 35.728 37.8921C35.6242 38.2247 35.4994 38.5515 35.4087 38.8884C35.2237 39.5809 34.8146 40.1147 34.2668 40.5606C34.1681 40.6374 34.1014 40.7479 34.0797 40.8708C34.026 41.8086 33.9977 42.7464 33.9469 43.6807C33.9338 43.9209 34.0245 44.0479 34.2306 44.1611C35.0286 44.594 35.8056 45.0571 36.5978 45.4979C37.4959 45.9978 38.0103 46.7423 37.998 47.7761C37.9856 48.7911 37.4822 49.5342 36.5775 50.0009C35.7563 50.4265 35.0752 51.0775 34.6151 51.8766C34.3923 52.2539 34.1036 52.3873 33.6654 52.3816C30.9405 52.365 28.2149 52.3736 25.49 52.3729C24.8334 52.3729 24.6629 52.207 24.6854 51.5642C24.7326 50.2051 24.7006 48.8358 24.8595 47.489C25.1221 45.2649 26.214 43.4491 27.9646 42.0423C28.2446 41.8173 28.3375 41.6052 28.2366 41.2827C28.2161 41.2259 28.2046 41.1663 28.2025 41.106C28.2141 40.5526 27.9805 40.2251 27.3965 40.1501C27.1927 40.1234 27.073 40.1162 26.901 40.2727C26.5136 40.6262 26.0762 40.922 25.6285 41.269C25.8143 41.533 26.045 41.8541 26.2677 42.1809C26.5107 42.5416 26.4766 42.8669 26.1843 43.0689C25.8919 43.2709 25.5763 43.1887 25.318 42.8366C25.2345 42.7334 25.1584 42.6244 25.0902 42.5105C24.7101 41.8007 24.2138 41.4126 23.3172 41.3332C22.6645 41.2758 22.0499 41.0027 21.5716 40.5575C21.0932 40.1123 20.7786 39.5206 20.6779 38.8768C20.5763 38.1828 20.8012 37.5718 21.2133 37.0012C20.8904 36.5178 20.5683 36.0388 20.2513 35.5583C19.9995 35.176 20.0336 34.8369 20.342 34.6458C20.6365 34.4589 20.9601 34.5534 21.2038 34.9098C21.4955 35.3455 21.7799 35.7776 22.0925 36.2437ZM31.2735 33.0399C31.4629 32.5796 31.6551 32.1439 31.8212 31.6988C31.9874 31.2537 32.1056 30.8057 32.2761 30.37C32.4328 29.9696 32.7448 29.834 33.1227 30.028C34.2755 30.6203 35.6257 30.8829 36.46 32.0234C36.4901 31.9847 36.5168 31.9434 36.5398 31.9001C37.2108 29.8975 35.9761 27.6899 33.9048 27.2196C33.175 27.0537 32.4299 26.9541 31.6972 26.7983C29.8581 26.4073 28.0937 26.5732 26.4063 27.4331C23.4644 28.9315 22.1694 32.4945 23.4963 35.4407C23.5936 35.6572 23.6988 35.738 23.9512 35.7293C24.3253 35.7157 24.6996 35.7465 25.0663 35.8209C26.4345 36.1095 27.4263 37.1144 27.5772 38.3408C27.6047 38.5616 27.5815 38.7888 27.5815 39.0709L29.1312 39.3378L29.1827 39.2426C28.8805 38.7745 28.6803 38.2487 28.5948 37.699C28.5093 37.1494 28.5405 36.588 28.6864 36.0511C28.6386 36.0085 28.6219 35.9905 28.6023 35.9789C27.6925 35.3441 27.4212 34.3154 27.9283 33.4237C28.4354 32.532 29.4758 32.2348 30.482 32.6843L31.2735 33.0399ZM25.8607 51.2042C25.9124 51.2148 25.9648 51.2225 26.0174 51.2273C28.484 51.2273 30.955 51.2338 33.4238 51.2201C33.5551 51.2201 33.73 51.0953 33.8105 50.9784C34.3706 50.1434 35.132 49.4611 36.0254 48.9938C36.5267 48.7341 36.8321 48.3446 36.8408 47.7674C36.8495 47.1903 36.5564 46.7899 36.0609 46.523C33.7878 45.2952 31.5161 44.0666 29.2458 42.8373C29.039 42.7248 28.9034 42.7587 28.7307 42.8958C27.9958 43.4876 27.3728 44.2048 26.8909 45.0138C25.7243 46.9385 25.889 49.0732 25.8607 51.2042ZM33.1597 31.3013C33.093 31.5177 33.0255 31.6938 32.9827 31.8784C32.811 32.6583 32.4365 33.3796 31.8967 33.9705C31.5528 34.3442 31.4019 34.3723 30.9434 34.1646C30.5807 34.0001 30.2237 33.819 29.8552 33.6747C29.6803 33.5998 29.483 33.5955 29.305 33.6628C29.127 33.7302 28.9824 33.8638 28.9019 34.0354C28.7249 34.3961 28.8642 34.8066 29.2443 35.0187C29.3814 35.0952 29.5309 35.1486 29.6673 35.225C29.9575 35.3881 30.0924 35.6348 29.9575 35.9508C29.433 37.1563 29.7819 38.2073 30.5248 39.1841C31.0218 39.8377 31.6957 40.1559 32.5184 40.0556C33.3041 39.9604 33.9476 39.5694 34.2088 38.8126C34.7471 37.2565 35.2295 35.6817 35.7084 34.1061C35.8188 33.7381 35.8005 33.3437 35.6565 32.9873C35.5125 32.6309 35.2513 32.3336 34.9154 32.1439C34.3575 31.8301 33.7648 31.5855 33.1597 31.3013ZM24.0992 40.303C24.7986 40.303 25.4341 40.0909 25.8803 39.7007C26.6137 39.06 26.6166 38.1136 25.8868 37.4701C24.9669 36.6614 23.2874 36.6592 22.3624 37.4657C21.6304 38.1042 21.6239 39.0593 22.3581 39.6949C22.855 40.1248 23.4492 40.2987 24.0992 40.303ZM29.2697 40.474C29.3314 40.8297 29.3894 41.168 29.4496 41.515L32.8674 41.9522V41.1702C32.0186 41.3108 31.2336 41.1875 30.5509 40.7243C30.1555 40.4574 29.7681 40.4026 29.2697 40.474Z" fill="#B7B4B2"/>
<path d="M18.7011 23.1096C16.4165 23.1109 14.1827 22.4348 12.2823 21.1668C10.3818 19.8987 8.90002 18.0957 8.0242 15.9855C7.14838 13.8754 6.91787 11.553 7.36181 9.3119C7.80575 7.0708 8.9042 5.01163 10.5183 3.39474C12.1324 1.77784 14.1896 0.675829 16.43 0.228014C18.6703 -0.2198 20.9932 0.00669357 23.1048 0.878861C25.2164 1.75103 27.022 3.22971 28.2934 5.12796C29.5647 7.0262 30.2447 9.25878 30.2473 11.5434C30.2456 14.607 29.0292 17.5448 26.8648 19.713C24.7004 21.8811 21.7647 23.1026 18.7011 23.1096ZM18.7011 1.73717C16.7552 1.73718 14.8531 2.31455 13.2355 3.39619C11.6179 4.47783 10.3576 6.0151 9.61416 7.81339C8.87072 9.61167 8.67756 11.5901 9.05913 13.4982C9.4407 15.4064 10.3798 17.1584 11.7577 18.5325C13.1355 19.9066 14.8901 20.8409 16.7992 21.2173C18.7084 21.5937 20.6863 21.3952 22.4825 20.6469C24.2788 19.8985 25.8126 18.6341 26.8899 17.0136C27.9671 15.393 28.5393 13.4893 28.5341 11.5434C28.52 8.94237 27.4787 6.45224 25.6369 4.61548C23.7952 2.77873 21.3022 1.74417 18.7011 1.73717Z" fill="#B7B4B2"/>
<path d="M14.8639 13.5921C14.8639 12.9301 15.0533 12.5395 15.6745 12.4799C16.2957 12.4204 16.6442 12.6918 16.7654 13.2545C17.0306 14.4991 17.8791 15.1015 19.0382 14.9029C19.4534 14.8326 19.8305 14.6447 20.1113 14.3682C20.392 14.0918 20.5607 13.7423 20.5913 13.3737C20.6077 13.0052 20.4823 12.6426 20.2351 12.3437C19.9879 12.0449 19.6332 11.8271 19.2276 11.7252C18.9575 11.662 18.6809 11.6221 18.4018 11.6061C17.5736 11.5518 16.7878 11.2645 16.1622 10.787C15.5367 10.3096 15.105 9.66788 14.9321 8.95801C14.7495 8.23415 14.855 7.47754 15.231 6.81313C15.607 6.14872 16.2312 5.61626 17.0003 5.30369C17.261 5.23436 17.4829 5.08281 17.6229 4.8785C17.7629 4.67419 17.811 4.43169 17.7579 4.19812C17.6973 3.60231 17.864 3.08594 18.7049 3.08594C19.5458 3.08594 19.7049 3.61555 19.6443 4.20474C19.5929 4.43818 19.6417 4.67999 19.7815 4.88395C19.9212 5.0879 20.1421 5.23969 20.4019 5.31031C21.0346 5.55346 21.572 5.95327 21.9477 6.46035C22.3233 6.96743 22.5207 7.55956 22.5156 8.16359C22.5156 8.66672 22.3034 9.04407 21.6898 9.09041C21.0761 9.13675 20.7276 8.85871 20.614 8.30262C20.3261 6.93887 19.1897 6.31657 17.9473 6.76674C17.5889 6.9084 17.2883 7.14193 17.0854 7.43633C16.8824 7.73074 16.7867 8.07211 16.8109 8.41516C16.8464 8.75822 17.0046 9.08283 17.2629 9.34302C17.5212 9.60321 17.8667 9.78581 18.2503 9.86497C18.5232 9.91321 18.7989 9.94857 19.0761 9.97089C19.8924 10.0329 20.6636 10.3244 21.2742 10.8019C21.8848 11.2793 22.3017 11.9169 22.4625 12.619C22.6382 13.331 22.5369 14.0739 22.1746 14.7299C21.8123 15.3859 21.2097 15.9174 20.4625 16.2402C20.1906 16.3123 19.9579 16.4681 19.8075 16.6787C19.657 16.8893 19.599 17.1404 19.6443 17.3855C19.6443 18.1004 19.2579 18.544 18.6518 18.4844C17.8943 18.4116 17.6821 17.9614 17.7579 17.3788C17.8336 16.7963 17.5609 16.505 16.9094 16.2336C16.3223 16.0015 15.8204 15.6318 15.4593 15.1656C15.0982 14.6993 14.8921 14.1546 14.8639 13.5921Z" fill="#B7B4B2"/>
</svg>
