<svg width="53" height="49" viewBox="0 0 53 49" xmlns="http://www.w3.org/2000/svg">
<mask id="mask0" mask-type="alpha" maskUnits="userSpaceOnUse" x="0" y="0" width="53" height="49">
<path fill-rule="evenodd" clip-rule="evenodd" d="M0 0.0292969H52.7874V48.7637H0V0.0292969Z"/>
</mask>
<g mask="url(#mask0)">
<path fill-rule="evenodd" clip-rule="evenodd" d="M39.4235 46.3245C33.3943 46.3245 28.489 41.4026 28.489 35.3529C28.489 29.3036 33.3943 24.3818 39.4235 24.3818C45.4528 24.3818 50.3579 29.3036 50.3579 35.3529C50.3579 41.4026 45.4528 46.3245 39.4235 46.3245ZM2.51369 40.552V16.1708H40.3866V21.9786C40.0684 21.9557 39.7474 21.9435 39.4235 21.9435C32.0546 21.9435 26.0596 27.9589 26.0596 35.3529C26.0596 37.1954 26.432 38.9524 27.105 40.552H2.51369ZM2.51369 7.51113H8.37887V9.86522C8.37887 10.5617 8.94161 11.1263 9.63572 11.1263C10.3298 11.1263 10.8926 10.5617 10.8926 9.86522V7.51113H18.4336V9.86522C18.4336 10.5617 18.9964 11.1263 19.6905 11.1263C20.3846 11.1263 20.9473 10.5617 20.9473 9.86522V7.51113H28.4884V9.86522C28.4884 10.5617 29.0511 11.1263 29.7452 11.1263C30.4393 11.1263 31.0021 10.5617 31.0021 9.86522V7.51113H40.3866V13.6486H2.51369V7.51113ZM10.8926 3.72828C10.8926 3.07914 11.4189 2.55098 12.0659 2.55098H12.2331C12.8801 2.55098 13.4063 3.07914 13.4063 3.72828V4.98889H10.8926V3.72828ZM20.9473 3.72777C20.9473 3.07863 21.4737 2.55056 22.1206 2.55056H22.2878C22.9348 2.55056 23.4611 3.07863 23.4611 3.72777V4.98889H20.9473V3.72777ZM31.0021 3.72777C31.0021 3.07863 31.5283 2.55056 32.1754 2.55056H32.3425C32.9896 2.55056 33.5158 3.07863 33.5158 3.72777V4.98889H31.0021V3.72777ZM42.9003 22.4047V6.25001C42.9003 5.55354 42.3375 4.98889 41.6434 4.98889H36.0295V3.72777C36.0295 1.68787 34.3756 0.0283203 32.3425 0.0283203H32.1754C30.1423 0.0283203 28.4884 1.68787 28.4884 3.72777V4.98889H25.9748V3.72777C25.9748 1.68787 24.3209 0.0283203 22.2878 0.0283203H22.1206C20.0876 0.0283203 18.4336 1.68787 18.4336 3.72777V4.98889H15.9199V3.72828C15.9199 1.68837 14.266 0.0287407 12.233 0.0287407H12.0658C10.0328 0.0287407 8.37879 1.68837 8.37879 3.72828V4.98889H1.25684C0.562731 4.98889 0 5.55354 0 6.25001V41.8131C0 42.5096 0.562731 43.0742 1.25684 43.0742H28.5034C30.9253 46.5129 34.9174 48.7628 39.4235 48.7628C46.7924 48.7628 52.7874 42.7469 52.7874 35.3529C52.7874 29.1654 48.5887 23.9441 42.9003 22.4047Z"/>
</g>
<path fill-rule="evenodd" clip-rule="evenodd" d="M39.2151 34.0535C38.5479 34.0535 38.0051 33.5074 38.0051 32.8362C38.0051 32.1651 38.5479 31.6186 39.2151 31.6186C39.6439 31.6186 40.0965 31.8388 40.5238 32.255C41.0042 32.7226 41.7702 32.7097 42.2351 32.2269C42.6998 31.7436 42.6871 30.9731 42.2071 30.5054C41.5929 29.9075 40.9782 29.5693 40.425 29.3848V27.9668C40.425 27.2942 39.8831 26.749 39.2151 26.749C38.547 26.749 38.0051 27.2942 38.0051 27.9668V29.3934C36.5966 29.8957 35.5846 31.249 35.5846 32.8362C35.5846 34.8498 37.2131 36.4885 39.2151 36.4885C39.8822 36.4885 40.425 37.0346 40.425 37.7058C40.425 38.377 39.8822 38.923 39.2151 38.923C38.6983 38.923 38.1399 38.5962 37.6439 38.0021C37.2136 37.4874 36.4504 37.4212 35.9388 37.8537C35.4272 38.2865 35.361 39.0543 35.7913 39.569C36.4382 40.3429 37.1989 40.8823 38.0051 41.1544V42.5752C38.0051 43.2479 38.547 43.7925 39.2151 43.7925C39.8831 43.7925 40.425 43.2479 40.425 42.5752V41.1487C41.8336 40.6459 42.8455 39.2926 42.8455 37.7058C42.8455 35.6917 41.2171 34.0535 39.2151 34.0535Z"/>
</svg>
