<svg width="66" height="49" viewBox="0 0 66 49" xmlns="http://www.w3.org/2000/svg">
<mask id="mask0" mask-type="alpha" maskUnits="userSpaceOnUse" x="0" y="0" width="66" height="49">
<path fill-rule="evenodd" clip-rule="evenodd" d="M0 0H65.1748V49H0V0Z"/>
</mask>
<g mask="url(#mask0)">
<path fill-rule="evenodd" clip-rule="evenodd" d="M28.3181 46.7435H61.8077V44.5863H28.3181V46.7435ZM28.2945 42.2801H30.4744V34.5697H28.2945V42.2801ZM25.0636 14.8986C25.2997 15.2213 25.7656 15.4266 26.1698 15.562C26.4838 15.6673 26.8616 15.5833 27.2111 15.5833C27.535 15.5835 27.859 15.5833 28.2342 15.5833V16.6665H4.69481C4.8325 16.4406 4.92098 16.283 5.02107 16.133C7.26687 12.7751 9.50736 9.41351 11.775 6.07004C11.9373 5.83071 12.2993 5.58093 12.5694 5.57996C20.5598 5.55406 28.5504 5.55907 36.541 5.56032C36.6467 5.56032 36.7523 5.57801 37.0121 5.60112C36.6746 5.84463 36.462 6.00502 36.2424 6.15539C32.7121 8.57284 29.18 10.9875 25.6507 13.4063C24.9712 13.8721 24.7073 14.412 25.0636 14.8986ZM30.5559 17.7825H59.5725V15.6278H30.5559V17.7825ZM39.5025 42.2814H50.603V25.6332H39.5025V42.2814ZM57.3471 34.271C57.4039 36.6828 57.3618 39.0969 57.3618 41.5099V42.294H52.8729V41.5085C52.8729 35.9862 52.8732 30.4641 52.8725 24.9418C52.8723 23.7435 52.5324 23.3968 51.3544 23.3965C47.1379 23.3954 42.9214 23.3951 38.705 23.3968C37.6029 23.3972 37.2338 23.7607 37.2335 24.8485C37.2318 30.3708 37.2327 35.8929 37.2327 41.4152V42.2851H32.7437V41.1856C32.7437 38.7957 32.7438 36.4059 32.7436 34.016C32.7436 32.5848 32.4794 32.32 31.0399 32.3068C30.9006 32.3055 30.7614 32.3066 30.5646 32.3066V20.0923H59.5485V32.2675C59.4343 32.2841 59.3654 32.3076 59.2991 32.3019C57.7064 32.1639 57.3088 32.6377 57.3471 34.271ZM59.6279 42.3063H61.7897V34.5666H59.6279V42.3063ZM45.0892 2.79731C45.3921 2.58999 45.6111 2.45884 45.9968 2.74036C50.7467 6.2083 55.5148 9.65173 60.2775 13.1025C60.3333 13.1429 60.3791 13.1968 60.5309 13.3399H29.7098C29.9572 13.1549 30.0922 13.0457 30.2354 12.948C35.1869 9.56471 40.1399 6.18379 45.0892 2.79731ZM64.5886 13.4952C64.4551 13.402 64.3254 13.3035 64.1936 13.2079C58.3758 8.99276 52.5567 4.77952 46.7414 0.560859C45.7316 -0.171768 45.5601 -0.186526 44.5243 0.515888C43.3697 1.29878 42.2034 2.06552 41.0675 2.87444C40.5914 3.21333 40.1136 3.35882 39.5236 3.35785C30.3233 3.34225 21.1227 3.34949 11.9224 3.34086C11.3282 3.34044 10.8426 3.4386 10.4819 3.97993C7.5737 8.34617 4.65148 12.7034 1.73065 17.0611C1.45192 17.477 1.26838 17.9571 1.62246 18.342C1.88693 18.6294 2.33313 18.8465 2.72537 18.9001C3.38264 18.99 4.0613 18.9247 4.80231 18.9247V23.105C4.65469 23.8988 4.10939 23.9097 4.608 24.2469C4.86213 24.4187 6.87421 23.3128 6.90413 23.5664C6.96158 23.5501 7.01903 23.5336 7.07634 23.5172V18.9743H28.2566V23.3961H27.4132C23.8446 23.3961 20.2759 23.3961 16.7072 23.3962C16.9292 23.603 17.1503 23.8107 17.366 24.024C17.4497 24.1068 17.4767 24.2017 17.4665 24.2909C18.0746 24.6455 18.6171 25.0544 18.9212 25.6619H19.6769C19.6156 25.2925 19.5492 24.922 19.4844 24.5483C19.4471 24.3328 19.5907 24.1787 19.7555 24.1293C19.7537 24.0524 19.7537 23.9757 19.7516 23.899C19.7387 23.4501 20.4378 23.4519 20.4505 23.899C20.4533 23.9989 20.4536 24.0992 20.4555 24.1993C20.5802 23.9974 20.9079 23.9189 21.0551 24.1873C21.3061 24.6454 21.4603 25.1427 21.545 25.6619H28.2364V32.2677C28.1221 32.2842 28.0532 32.3076 27.9869 32.3019C26.3929 32.1641 26.0136 32.6394 26.034 34.271C26.0829 38.1684 26.0498 42.0667 26.0498 45.9647V46.7491H11.5542V43.8825C11.1729 43.8594 10.7916 43.8353 10.4093 43.832C10.2822 43.8308 10.1923 43.7739 10.137 43.6938C10.0647 43.749 9.96726 43.7704 9.8504 43.7267C9.65987 43.6555 9.46794 43.5813 9.27546 43.5048V45.8371V46.7286H7.07634V42.4986C6.27537 42.0745 5.50221 41.5892 4.80245 41.0287C4.80245 43.1414 4.80231 45.254 4.80245 47.3667C4.80245 48.6954 5.10718 48.9984 6.44367 48.9985C25.1006 48.9986 43.7577 48.9985 62.4148 48.9985C62.5546 48.9985 62.6945 49.0025 62.834 48.9974C63.6172 48.9681 64.0243 48.563 64.0549 47.7837C64.0577 47.7142 64.0556 47.6446 64.0556 47.575C64.0556 42.9583 64.057 38.3416 64.0546 33.7248C64.0541 32.6834 63.6746 32.3144 62.619 32.3071C62.3713 32.3054 62.1236 32.3068 61.8639 32.3068V15.5831C62.5792 15.5831 63.2507 15.5768 63.9221 15.585C64.4994 15.5921 64.9249 15.3597 65.1106 14.8073C65.3004 14.242 65.0527 13.8189 64.5886 13.4952Z"/>
<path fill-rule="evenodd" clip-rule="evenodd" d="M20.4591 25.6897H20.9323C20.8385 25.3544 20.686 25.0341 20.4565 24.7383C20.4617 25.0554 20.4633 25.3725 20.4591 25.6897Z"/>
<path fill-rule="evenodd" clip-rule="evenodd" d="M24.4196 27.5957C23.3841 27.5909 22.3486 27.5915 21.3132 27.5924C21.232 28.4038 21.0837 29.2123 20.9321 29.9696C22.0897 29.9701 23.2472 29.9713 24.4048 29.9695C25.2466 29.9683 25.685 29.5542 25.6894 28.7906C25.6939 28.0252 25.2529 27.5996 24.4196 27.5957Z"/>
<path fill-rule="evenodd" clip-rule="evenodd" d="M47.3467 35.6794C46.7037 35.6864 46.1526 35.1462 46.1456 34.502C46.1385 33.8586 46.6783 33.3079 47.3228 33.3009C47.9662 33.2936 48.517 33.8336 48.5241 34.4782C48.5311 35.1207 47.9905 35.6723 47.3467 35.6794Z"/>
<path fill-rule="evenodd" clip-rule="evenodd" d="M10.7035 42.8867C2.02887 39.7096 2.16184 32.7651 2.2798 26.625C2.28536 26.3374 2.29078 26.0564 2.29509 25.7804C5.66861 25.5982 8.35228 24.587 10.7035 22.6119C13.0271 24.5602 15.7822 25.5984 19.1127 25.7802C19.1173 26.0596 19.1227 26.344 19.1282 26.6353C19.2459 32.7647 19.3788 39.7093 10.7035 42.8867ZM21.3806 26.5926L21.3801 26.5654C21.3676 25.9094 21.3558 25.2898 21.3558 24.6909C21.3558 24.074 20.8504 23.5721 20.2294 23.5721C16.5775 23.5721 13.8002 22.5321 11.4886 20.2996C11.0483 19.8742 10.3586 19.8739 9.91816 20.2996C7.60686 22.5321 4.82968 23.5721 1.17841 23.5721C0.557334 23.5721 0.0520003 24.074 0.0520003 24.6909C0.0520003 25.3035 0.0399123 25.93 0.0271296 26.5932C-0.0937503 32.8776 -0.259231 41.4847 10.3344 45.1324C10.4535 45.1732 10.5776 45.1941 10.7033 45.1941C10.8293 45.1941 10.9534 45.1732 11.0722 45.1324C21.667 41.4844 21.5015 32.8773 21.3806 26.5926Z"/>
</g>
</svg>
