<svg width="70" height="49" viewBox="0 0 70 49" xmlns="http://www.w3.org/2000/svg">
<mask id="mask0" mask-type="alpha" maskUnits="userSpaceOnUse" x="0" y="0" width="70" height="49">
<path fill-rule="evenodd" clip-rule="evenodd" d="M0 0H69.8511V49H0V0Z"/>
</mask>
<g mask="url(#mask0)">
<path fill-rule="evenodd" clip-rule="evenodd" d="M33.2907 46.7435H66.7005V44.5863H33.2907V46.7435ZM33.2671 42.2801H35.4419V34.5697H33.2671V42.2801ZM30.0439 14.8986C30.2794 15.2213 30.7442 15.4265 31.1475 15.562C31.4608 15.6671 31.8377 15.5833 32.1863 15.5833C32.5094 15.5834 32.8327 15.5833 33.207 15.5833V16.6665H9.72365C9.86101 16.4405 9.94928 16.2829 10.0491 16.1331C12.2896 12.775 14.5247 9.41347 16.7869 6.07C16.9489 5.83066 17.31 5.58088 17.5795 5.57991C25.5509 5.55401 33.5224 5.55902 41.494 5.56028C41.5994 5.56028 41.7048 5.57796 41.9639 5.60107C41.6273 5.84458 41.4152 6.00498 41.1961 6.15535C37.6742 8.57279 34.1505 10.9875 30.6298 13.4063C29.9517 13.872 29.6884 14.412 30.0439 14.8986ZM35.5232 17.7823H64.4707V15.6277H35.5232V17.7823ZM44.4484 42.2815H55.5225V25.6333H44.4484V42.2815ZM62.2506 34.271C62.3072 36.6828 62.2652 39.0969 62.2652 41.51V42.294H57.787V41.5085C57.787 35.9863 57.7873 30.4641 57.7866 24.9418C57.7864 23.7436 57.4473 23.3967 56.2721 23.3965C52.0656 23.3954 47.8592 23.3951 43.6529 23.3967C42.5534 23.3972 42.1851 23.7607 42.1848 24.8485C42.1832 30.3708 42.184 35.8929 42.184 41.4152V42.2851H37.7057V41.1856C37.7057 38.7957 37.7059 36.4058 37.7056 34.016C37.7056 32.5848 37.442 32.32 36.0059 32.3068C35.867 32.3055 35.7282 32.3066 35.5318 32.3066V20.0923H64.4468V32.2675C64.3328 32.2842 64.264 32.3076 64.1979 32.3019C62.609 32.1639 62.2124 32.6379 62.2506 34.271ZM64.5259 42.3063H66.6825V34.5666H64.5259V42.3063ZM50.0218 2.79726C50.324 2.58994 50.5425 2.45879 50.9273 2.74031C55.6659 6.20825 60.4226 9.65169 65.1739 13.1024C65.2296 13.1429 65.2753 13.1969 65.4268 13.3399H34.6792C34.9259 13.1549 35.0606 13.0457 35.2034 12.948C40.1431 9.56467 45.0843 6.18375 50.0218 2.79726ZM69.4748 13.4951C69.3416 13.402 69.2122 13.3034 69.0809 13.2079C63.2768 8.99271 57.4715 4.77947 51.6701 0.560807C50.6627 -0.171821 50.4916 -0.186441 49.4583 0.515835C48.3064 1.29873 47.1431 2.0656 46.0097 2.87425C45.5348 3.21328 45.0581 3.35877 44.4695 3.3578C35.2911 3.3422 26.1124 3.34944 16.9341 3.34095C16.3414 3.34039 15.8568 3.43841 15.497 3.97988C12.5957 8.34613 9.68042 12.7032 6.76655 17.0611C6.48848 17.477 6.30538 17.957 6.65861 18.3419C6.92246 18.6294 7.36759 18.8464 7.7589 18.9C8.4146 18.99 9.09165 18.9247 9.83089 18.9247V20.8811C10.547 20.5928 11.3221 20.4383 12.0997 20.4183V18.9742H33.2293V23.3961H32.388C29.2709 23.3961 26.154 23.3962 23.037 23.3962C23.6253 24.1501 24.2236 24.8825 24.7444 25.6619H33.2092V32.2676C33.0951 32.2842 33.0265 32.3076 32.9603 32.3019C31.3702 32.1641 30.9916 32.6394 31.012 34.271C31.0608 38.1684 31.0278 42.0667 31.0278 45.9647V46.7491H16.5667V44.4696C15.8186 44.62 15.0576 44.6878 14.2934 44.6825V45.8371V46.7286H12.0997V44.4762C11.3328 44.3389 10.5732 44.1367 9.83103 43.8798C9.83103 45.0421 9.83089 46.2044 9.83103 47.3667C9.83103 48.6954 10.135 48.9984 11.4683 48.9985C30.0809 48.9986 48.6935 48.9985 67.3062 48.9985C67.4456 48.9985 67.5852 49.0025 67.7244 48.9974C68.5058 48.9681 68.9118 48.563 68.9424 47.7837C68.9452 47.7142 68.9431 47.6446 68.9431 47.575C68.9431 42.9583 68.9445 38.3416 68.9421 33.7248C68.9415 32.6834 68.5629 32.3144 67.5099 32.307C67.2628 32.3054 67.0157 32.3068 66.7566 32.3068V15.583C67.4702 15.583 68.1401 15.5769 68.8099 15.585C69.3858 15.5919 69.8103 15.3597 69.9955 14.8072C70.1849 14.242 69.9378 13.8188 69.4748 13.4951Z"/>
<path fill-rule="evenodd" clip-rule="evenodd" d="M52.0352 35.6549C51.4151 35.6615 50.8838 35.1408 50.877 34.5196C50.8702 33.8992 51.3907 33.3682 52.0122 33.3614C52.6325 33.3544 53.1637 33.8751 53.1705 34.4967C53.1773 35.1162 52.656 35.6481 52.0352 35.6549Z"/>
<path fill-rule="evenodd" clip-rule="evenodd" d="M0 31.9023C0.0683609 31.4048 0.120604 30.9044 0.209807 30.4108C0.292896 29.9506 0.398911 29.4929 0.524656 29.0424C0.684303 28.4706 1.25426 28.1638 1.81115 28.3218C2.35081 28.4751 2.65732 29.0235 2.53158 29.5928C2.3804 30.2774 2.23798 30.9638 2.08223 31.6939C2.44793 31.6939 2.74916 31.6927 3.05053 31.6941C3.70413 31.6974 4.17307 32.1365 4.17057 32.7412C4.16807 33.3439 3.69788 33.777 3.04081 33.7801C2.74708 33.7815 2.45335 33.7803 2.16115 33.7803C2.07334 35.3698 3.4261 38.6431 4.72329 39.938C4.9274 39.7154 5.12373 39.4848 5.33771 39.2714C5.78539 38.8244 6.43384 38.806 6.85207 39.2176C7.27043 39.6296 7.26112 40.2822 6.82108 40.7328C6.60961 40.9496 6.38257 41.151 6.13678 41.3839C7.95126 42.8768 9.98235 43.7122 12.3008 43.9473C12.3008 43.6587 12.3005 43.3831 12.3008 43.1075C12.3015 42.3845 12.7197 41.9075 13.3502 41.9102C13.9801 41.9129 14.3866 42.3867 14.3872 43.1191C14.3875 43.3867 14.3872 43.6544 14.3872 43.9486C16.7019 43.7153 18.733 42.8791 20.5627 41.3778C20.3278 41.1617 20.1056 40.969 19.8968 40.7628C19.4337 40.3055 19.4077 39.6575 19.8273 39.2304C20.2525 38.7976 20.9091 38.823 21.3789 39.2943C21.5805 39.4966 21.7754 39.7057 21.9979 39.9371C23.4868 38.1315 24.3176 36.0984 24.5579 33.779C24.2412 33.779 23.9398 33.7803 23.6384 33.7787C22.9844 33.7749 22.5157 33.3359 22.5187 32.7313C22.5214 32.1279 22.9912 31.6955 23.6483 31.6927C23.942 31.6914 24.2357 31.6924 24.5541 31.6924C24.3269 29.378 23.485 27.3492 21.9833 25.5141C21.7677 25.7506 21.5773 25.9753 21.3703 26.1832C20.9083 26.6467 20.2619 26.6725 19.837 26.2546C19.4059 25.8304 19.432 25.1754 19.9047 24.7026C20.1066 24.5005 20.318 24.3082 20.5523 24.086C18.7378 22.5985 16.7096 21.7562 14.3886 21.5253C14.3886 21.8398 14.3901 22.1412 14.3883 22.4426C14.3844 23.0951 13.9435 23.5649 13.3393 23.5624C12.7371 23.5599 12.3054 23.0898 12.3025 22.4319C12.3011 22.1382 12.3022 21.8443 12.3022 21.5243C9.98958 21.7629 7.95473 22.5896 6.12788 24.0915C6.26002 24.1015 6.33255 24.1116 6.40522 24.1118C6.88305 24.1129 7.36102 24.1015 7.83857 24.114C8.44674 24.1298 8.88566 24.5726 8.88789 25.1501C8.88997 25.7173 8.46619 26.1811 7.87025 26.1886C6.46316 26.2062 5.05551 26.2064 3.64855 26.1882C3.05998 26.1805 2.64801 25.7608 2.64176 25.1716C2.62661 23.7644 2.62814 22.3569 2.64412 20.9496C2.65065 20.3676 3.09944 19.952 3.66384 19.945C4.22629 19.9382 4.67522 20.3428 4.70995 20.9243C4.73566 21.3571 4.71968 21.7926 4.72357 22.2269C4.72426 22.31 4.73121 22.3931 4.73719 22.5171C5.0223 22.2999 5.27046 22.1013 5.52806 21.916C7.39812 20.5714 9.47521 19.7577 11.7645 19.4894C12.0307 19.4582 12.2966 19.4243 12.5628 19.3916H14.1786C14.237 19.4055 14.2945 19.4279 14.3536 19.4322C16.6516 19.6024 18.7735 20.3074 20.6832 21.5938C23.8403 23.7202 25.7843 26.6609 26.4815 30.4108C26.5732 30.9037 26.6211 31.4049 26.6894 31.9023V33.5704C26.6742 33.6463 26.6557 33.7216 26.6443 33.7978C26.5553 34.3982 26.4983 35.0052 26.3745 35.5982C25.1468 41.4816 19.8454 45.9038 13.8268 46.0747C10.9655 46.1559 8.31863 45.4449 5.94587 43.836C2.81905 41.7156 0.898278 38.7845 0.207445 35.0624C0.11588 34.5693 0.068083 34.068 0 33.5704V31.9023Z"/>
<path fill-rule="evenodd" clip-rule="evenodd" d="M14.432 29.4418C14.4321 30.3444 14.4264 31.2469 14.4388 32.1493C14.4405 32.2713 14.5022 32.422 14.5882 32.5088C15.444 33.3716 16.3125 34.2223 17.1737 35.0799C17.4783 35.3832 17.5924 35.7464 17.4601 36.1632C17.3353 36.5561 17.0566 36.7961 16.6532 36.8811C16.3 36.9554 15.977 36.8629 15.7228 36.614C14.6782 35.5912 13.6308 34.5702 12.6121 33.5224C12.4402 33.3456 12.321 33.0407 12.3181 32.7933C12.295 30.7607 12.3013 28.7277 12.3075 26.6948C12.3093 26.0982 12.7862 25.6433 13.3743 25.6465C13.9603 25.6497 14.4247 26.1071 14.4297 26.7079C14.4375 27.6191 14.4318 28.5304 14.432 29.4418Z"/>
</g>
</svg>
