<svg width="70" height="49" viewBox="0 0 70 49" xmlns="http://www.w3.org/2000/svg">
<path fill-rule="evenodd" clip-rule="evenodd" d="M24.6307 33.177C24.6307 39.1523 19.7694 44.0135 13.7941 44.0135C7.81879 44.0135 2.95763 39.1523 2.95763 33.177C2.95763 27.2022 7.81879 22.3409 13.7941 22.3409C19.7694 22.3409 24.6307 27.2022 24.6307 33.177ZM0.549805 33.177C0.549805 40.4799 6.49119 46.4217 13.7941 46.4217C21.0971 46.4217 27.0385 40.4799 27.0385 33.177C27.0385 25.874 21.0971 19.9326 13.7941 19.9326C6.49119 19.9326 0.549805 25.874 0.549805 33.177Z"/>
<path fill-rule="evenodd" clip-rule="evenodd" d="M12.3495 25.9534V27.3643C10.948 27.8612 9.94128 29.1995 9.94128 30.7695C9.94128 32.7609 11.5615 34.3817 13.5534 34.3817C14.2172 34.3817 14.7573 34.9218 14.7573 35.5855C14.7573 36.2494 14.2172 36.7895 13.5534 36.7895C13.0393 36.7895 12.4836 36.4663 11.9901 35.8787C11.5619 35.3696 10.8027 35.3042 10.2936 35.732C9.78453 36.16 9.71869 36.9193 10.1469 37.4283C10.7904 38.1938 11.5474 38.7274 12.3495 38.9965V40.4017C12.3495 41.0669 12.8887 41.6056 13.5534 41.6056C14.2182 41.6056 14.7573 41.0669 14.7573 40.4017V38.9908C16.1588 38.4935 17.1656 37.1551 17.1656 35.5855C17.1656 33.5937 15.5454 31.9735 13.5534 31.9735C12.8896 31.9735 12.3495 31.4333 12.3495 30.7695C12.3495 30.1058 12.8896 29.5651 13.5534 29.5651C13.9802 29.5651 14.4303 29.7829 14.8556 30.1946C15.3336 30.6571 16.0958 30.6443 16.5582 30.1669C17.0207 29.6888 17.008 28.9267 16.5305 28.4643C15.9194 27.8729 15.3078 27.5384 14.7573 27.3559V25.9534C14.7573 25.2882 14.2182 24.749 13.5534 24.749C12.8887 24.749 12.3495 25.2882 12.3495 25.9534Z"/>
<mask id="mask0" mask-type="alpha" maskUnits="userSpaceOnUse" x="0" y="0" width="70" height="49">
<path fill-rule="evenodd" clip-rule="evenodd" d="M0.549805 48.9911H69.0625V0H0.549805V48.9911Z" />
</mask>
<g mask="url(#mask0)">
<path fill-rule="evenodd" clip-rule="evenodd" d="M32.3591 46.735H65.7094V44.5782H32.3591V46.735ZM32.3355 42.2724H34.5064V34.5634H32.3355V42.2724ZM29.1181 14.8958C29.3532 15.2185 29.8172 15.4237 30.2198 15.5592C30.5324 15.6643 30.9087 15.5805 31.2567 15.5805C31.5792 15.5806 31.9019 15.5805 32.2755 15.5805V16.6635H8.83405C8.97117 16.4375 9.05928 16.28 9.15896 16.1302C11.3954 12.7727 13.6266 9.41175 15.8848 6.06889C16.0464 5.8296 16.4069 5.57986 16.6759 5.57889C24.6331 5.553 32.5904 5.55801 40.5478 5.55926C40.653 5.55926 40.7582 5.57694 41.0169 5.60005C40.6809 5.84352 40.4691 6.00388 40.2504 6.15422C36.7348 8.57123 33.2174 10.9855 29.7028 13.4039C29.0261 13.8695 28.7633 14.4093 29.1181 14.8958ZM34.5876 17.7791H63.4835V15.6249H34.5876V17.7791ZM43.497 42.2738H54.5513V25.6287H43.497V42.2738ZM61.2674 34.2648C61.3239 36.6761 61.282 39.0897 61.282 41.5024V42.2863H56.8117V41.5009C56.8117 35.9798 56.812 30.4585 56.8113 24.9372C56.8112 23.7392 56.4726 23.3925 55.2996 23.3922C51.1006 23.3911 46.9016 23.3908 42.7028 23.3925C41.6053 23.3929 41.2377 23.7564 41.2374 24.844C41.2357 30.3652 41.2366 35.8864 41.2366 41.4076V42.2774H36.7663V41.1781C36.7663 38.7886 36.7664 36.3992 36.7661 34.0097C36.7661 32.5789 36.503 32.3141 35.0695 32.3009C34.9309 32.2996 34.7922 32.3007 34.5962 32.3007V20.0886H63.4596V32.2616C63.3459 32.2783 63.2772 32.3017 63.2112 32.296C61.6251 32.158 61.2291 32.6319 61.2674 34.2648ZM63.5387 42.2985H65.6915V34.5603H63.5387V42.2985ZM49.0604 2.79675C49.3621 2.58947 49.5802 2.45834 49.9643 2.73981C54.6944 6.20712 59.4427 9.64993 64.1855 13.1C64.2411 13.1405 64.2867 13.1945 64.4379 13.3375H33.745C33.9914 13.1525 34.1258 13.0433 34.2684 12.9456C39.1993 9.56292 44.1317 6.18262 49.0604 2.79675ZM68.4787 13.4927C68.3458 13.3995 68.2166 13.301 68.0854 13.2055C62.2918 8.99107 56.4969 4.7786 50.7058 0.560704C49.7002 -0.17179 49.5294 -0.186407 48.4979 0.515741C47.3481 1.29849 46.1867 2.06523 45.0554 2.87373C44.5814 3.21269 44.1056 3.35816 43.518 3.35718C34.356 3.34159 25.1936 3.34883 16.0316 3.34034C15.4399 3.33978 14.9563 3.43778 14.5971 3.97915C11.701 8.3446 8.7909 12.7009 5.88222 17.058C5.60465 17.4738 5.42187 17.9538 5.77448 18.3385C6.03785 18.626 6.48219 18.843 6.8728 18.8966C7.52734 18.9865 8.20318 18.9212 8.9411 18.9212V20.8773C9.65592 20.589 10.4296 20.4345 11.2057 20.4146V18.9708H32.2978V23.3918H31.458C28.3465 23.3918 25.2351 23.3919 22.1236 23.3919C22.7109 24.1457 23.308 24.8779 23.8281 25.6572H32.2778V32.2618C32.1639 32.2783 32.0953 32.3017 32.0293 32.296C30.4419 32.1582 30.0641 32.6334 30.0845 34.2648C30.1332 38.1614 30.1002 42.059 30.1002 45.9563V46.7406H15.665V44.4615C14.9181 44.6118 14.1585 44.6796 13.3956 44.6743V45.8288V46.7201H11.2057V44.468C10.4403 44.3308 9.68209 44.1287 8.94124 43.8718C8.94124 45.0339 8.9411 46.196 8.94124 47.3581C8.94124 48.6865 9.24471 48.9894 10.5756 48.9895C29.155 48.9897 47.7345 48.9895 66.314 48.9895C66.4532 48.9895 66.5925 48.9936 66.7314 48.9884C67.5114 48.9592 67.9168 48.5541 67.9473 47.775C67.95 47.7055 67.948 47.6359 67.948 47.5663C67.948 42.9504 67.9493 38.3346 67.947 33.7187C67.9464 32.6774 67.5685 32.3085 66.5174 32.3012C66.2707 32.2995 66.024 32.3009 65.7654 32.3009V15.5802C66.4777 15.5802 67.1464 15.5741 67.815 15.5821C68.3899 15.5891 68.8137 15.3569 68.9985 14.8045C69.1876 14.2394 68.9409 13.8163 68.4787 13.4927Z"/>
<path fill-rule="evenodd" clip-rule="evenodd" d="M51.2624 35.6229C50.6661 35.6293 50.155 35.1284 50.1485 34.531C50.142 33.9343 50.6425 33.4236 51.2403 33.4171C51.8369 33.4104 52.3478 33.9111 52.3543 34.509C52.3609 35.1048 51.8595 35.6164 51.2624 35.6229Z"/>
</g>
</svg>
