<svg width="73" height="49" viewBox="0 0 73 49" xmlns="http://www.w3.org/2000/svg">
<path fill-rule="evenodd" clip-rule="evenodd" d="M35.8228 46.7437H69.1036V44.5864H35.8228V46.7437ZM35.7992 42.2802H37.9657V34.5697H35.7992V42.2802ZM32.5885 14.8985C32.8232 15.2213 33.2861 15.4265 33.688 15.562C34 15.6671 34.3753 15.5833 34.7226 15.5833C35.0446 15.5834 35.3665 15.5833 35.7393 15.5833V16.6665H12.3468C12.4837 16.4405 12.5715 16.2828 12.6711 16.1331C14.9029 12.775 17.1292 9.41329 19.3827 6.07009C19.544 5.83062 19.9039 5.58084 20.1723 5.57986C28.1129 5.5541 36.0536 5.55898 43.9943 5.56037C44.0993 5.56037 44.2043 5.57791 44.4626 5.60103C44.1271 5.84454 43.916 6.00493 43.6977 6.1553C40.1893 8.57261 36.6792 10.9874 33.1721 13.4063C32.4966 13.872 32.2344 14.4119 32.5885 14.8985ZM38.0467 17.7824H66.8824V15.6277H38.0467V17.7824ZM46.9374 42.2815H57.9687V25.6333H46.9374V42.2815ZM64.6709 34.2712C64.7271 36.6828 64.6853 39.0969 64.6853 41.51V42.294H60.2244V41.5085C60.2244 35.9863 60.2247 30.464 60.2241 24.9418C60.224 23.7435 59.886 23.3967 58.7153 23.3964C54.5251 23.3953 50.3351 23.3951 46.1448 23.3967C45.0496 23.3971 44.6829 23.7605 44.6825 24.8485C44.6808 30.3708 44.6818 35.8929 44.6817 41.4152V42.2851H40.2207V41.1856C40.2207 38.7957 40.2208 36.4058 40.2206 34.0159C40.2206 32.5848 39.958 32.32 38.5275 32.3068C38.3891 32.3055 38.2508 32.3066 38.0553 32.3066V20.0924H66.8585V32.2675C66.7449 32.2842 66.6765 32.3076 66.6107 32.3019C65.0278 32.1639 64.6325 32.6378 64.6709 34.2712ZM66.9373 42.3061H69.0856V34.5665H66.9373V42.3061ZM52.4892 2.79721C52.7902 2.59003 53.0079 2.45874 53.3912 2.74026C58.1115 6.20821 62.8499 9.65151 67.5828 13.1025C67.6384 13.1428 67.6839 13.1967 67.8347 13.3399H37.2058C37.4516 13.1548 37.5859 13.0457 37.728 12.9479C42.6487 9.56463 47.5708 6.1837 52.4892 2.79721ZM71.8671 13.4951C71.7344 13.4019 71.6056 13.3034 71.4746 13.2079C65.693 8.99267 59.9101 4.77943 54.1312 0.560756C53.1277 -0.171733 52.9572 -0.186492 51.9279 0.515785C50.7806 1.29868 49.6216 2.06556 48.4926 2.87434C48.0195 3.21323 47.5447 3.35872 46.9583 3.35775C37.8154 3.34216 28.6723 3.34954 19.5293 3.3409C18.9389 3.34021 18.4562 3.43836 18.0978 3.97983C15.2076 8.34609 12.3038 12.7032 9.40116 17.0611C9.12403 17.4769 8.94177 17.9571 9.29364 18.3418C9.55633 18.6293 9.99988 18.8463 10.3895 18.9C11.0427 18.99 11.7171 18.9247 12.4535 18.9247V19.8752C12.4535 21.0333 12.4537 22.1915 12.4537 23.3497C13.1996 23.4569 13.9555 23.4686 14.7135 23.4439V18.9742H35.7616V23.396H34.9236H31.136C31.1729 23.4463 31.1984 23.5087 31.2031 23.585C31.2471 24.2842 31.3577 24.9702 31.3517 25.6619H35.7415V32.2676C35.6279 32.2842 35.5596 32.3076 35.4936 32.3019C33.9097 32.164 33.5325 32.6394 33.553 34.271C33.6014 38.1683 33.5685 42.0666 33.5685 45.9647V46.7491H19.1635V43.6415C18.4056 43.721 17.6495 43.8116 16.8989 43.9429C16.8989 44.5743 16.8988 45.2059 16.8988 45.8371V46.7286H14.7135V43.8017C13.9601 43.8108 13.2062 43.771 12.4537 43.7089V47.3667C12.4538 48.6954 12.7565 48.9984 14.0847 48.9985C32.6254 48.9986 51.166 48.9985 69.7068 48.9985C69.8457 48.9985 69.9848 49.0025 70.1236 48.9974C70.9017 48.9681 71.3061 48.563 71.3367 47.7837C71.3395 47.7142 71.3374 47.6445 71.3374 47.5749C71.3374 42.9583 71.3388 38.3415 71.3364 33.7248C71.3359 32.6834 70.9587 32.3144 69.9098 32.307C69.6637 32.3052 69.4176 32.3068 69.1593 32.3068V15.583C69.8702 15.583 70.5377 15.5769 71.2047 15.5849C71.7784 15.5919 72.2013 15.3595 72.3858 14.8073C72.5744 14.2419 72.3283 13.8188 71.8671 13.4951Z"/>
<path fill-rule="evenodd" clip-rule="evenodd" d="M54.6103 35.6995C54.0426 35.7058 53.5561 35.2289 53.5499 34.66C53.5436 34.0922 54.0202 33.606 54.5892 33.5997C55.1572 33.5934 55.6435 34.0701 55.6497 34.6391C55.656 35.2063 55.1786 35.6933 54.6103 35.6995Z"/>
<path fill-rule="evenodd" clip-rule="evenodd" d="M2.15826 42.2893H29.6917V24.9107H2.15826V42.2893ZM30.7709 44.45H1.0792C0.483121 44.45 0 43.9663 0 43.3696V23.8304C0 23.2337 0.483121 22.75 1.0792 22.75H30.7709C31.3669 22.75 31.85 23.2337 31.85 23.8304V43.3696C31.85 43.9663 31.3669 44.45 30.7709 44.45Z"/>
<path fill-rule="evenodd" clip-rule="evenodd" d="M6.57179 37.0996C5.87822 37.0996 5.29972 36.9506 4.83643 36.6525C4.37299 36.3544 4.0441 35.9492 3.84961 35.4362L5.19129 34.6669C5.46355 35.2887 5.93983 35.5997 6.62041 35.5997C7.2362 35.5997 7.54396 35.4169 7.54396 35.0516C7.54396 34.8529 7.44506 34.6975 7.24753 34.5853C7.04959 34.473 6.6787 34.3432 6.13432 34.1958C5.84908 34.1189 5.59961 34.0323 5.38564 33.9361C5.17181 33.8401 4.96282 33.7134 4.75866 33.5563C4.5545 33.3993 4.39896 33.2023 4.29205 32.9649C4.18513 32.7279 4.13154 32.4553 4.13154 32.1478C4.13154 31.526 4.35669 31.029 4.80728 30.6573C5.25759 30.2855 5.79396 30.0996 6.41625 30.0996C6.97361 30.0996 7.46633 30.2295 7.89399 30.489C8.32179 30.7487 8.65869 31.1253 8.90512 31.6188L7.59258 32.3784C7.46937 32.1221 7.31715 31.9281 7.13564 31.7967C6.95414 31.6654 6.71434 31.5995 6.41625 31.5995C6.18294 31.5995 6.00309 31.6493 5.87656 31.7486C5.75031 31.848 5.68705 31.9681 5.68705 32.1093C5.68705 32.2759 5.76634 32.4203 5.92533 32.5419C6.08404 32.6638 6.41293 32.7985 6.91201 32.9458C7.18426 33.0291 7.39478 33.0964 7.54396 33.1477C7.69301 33.199 7.88252 33.2839 8.11265 33.4025C8.34264 33.5212 8.5178 33.6463 8.63783 33.7776C8.75759 33.909 8.86451 34.0819 8.95858 34.2968C9.05237 34.5115 9.09961 34.7568 9.09961 35.0323C9.09961 35.6735 8.86617 36.1783 8.39955 36.5467C7.93294 36.9153 7.3235 37.0996 6.57179 37.0996Z"/>
<path fill-rule="evenodd" clip-rule="evenodd" d="M11.5511 35.0418C11.9262 35.4138 12.3924 35.5996 12.9503 35.5996C13.5078 35.5996 13.9742 35.4138 14.3493 35.0418C14.7243 34.6702 14.9117 34.1894 14.9117 33.5995C14.9117 33.0099 14.7243 32.5292 14.3493 32.1573C13.9742 31.7856 13.5078 31.5996 12.9503 31.5996C12.3924 31.5996 11.9262 31.7856 11.5511 32.1573C11.176 32.5292 10.9885 33.0099 10.9885 33.5995C10.9885 34.1894 11.176 34.6702 11.5511 35.0418ZM15.431 36.0899C14.7515 36.763 13.9245 37.0996 12.9503 37.0996C11.9756 37.0996 11.1488 36.763 10.4694 36.0899C9.7897 35.4168 9.4502 34.5867 9.4502 33.5995C9.4502 32.6125 9.7897 31.7823 10.4694 31.1092C11.1488 30.4361 11.9756 30.0996 12.9503 30.0996C13.9245 30.0996 14.7515 30.4361 15.431 31.1092C16.1104 31.7823 16.4502 32.6125 16.4502 33.5995C16.4502 34.5867 16.1104 35.4168 15.431 36.0899Z"/>
<path fill-rule="evenodd" clip-rule="evenodd" d="M19.0025 35.5596H21.35V37.0996H17.5V30.0996H19.0025V35.5596Z"/>
<path fill-rule="evenodd" clip-rule="evenodd" d="M24.7369 35.5596C25.2679 35.5596 25.698 35.3813 26.0276 35.0247C26.3572 34.6681 26.5219 34.1931 26.5219 33.5996C26.5219 33.0063 26.3572 32.5315 26.0276 32.1745C25.698 31.8181 25.2679 31.6396 24.7369 31.6396H23.5853V35.5596H24.7369ZM24.7369 30.0996C25.6645 30.0996 26.4403 30.4346 27.064 31.1047C27.688 31.7747 27.9998 32.6063 27.9998 33.5996C27.9998 34.5929 27.688 35.4246 27.064 36.0945C26.4403 36.7644 25.6645 37.0996 24.7369 37.0996H22.0498V30.0996H24.7369Z"/>
</svg>
