<svg width="52" height="49" viewBox="0 0 52 49" xmlns="http://www.w3.org/2000/svg">
<path fill-rule="evenodd" clip-rule="evenodd" d="M34.8528 13.9471C34.873 14.2304 35.0044 14.4889 35.2227 14.6752C35.4196 14.8431 35.6715 14.9357 35.9321 14.9357C36.2458 14.9357 36.5437 14.8024 36.7498 14.5701L45.0658 5.16614C45.2555 4.95186 45.3489 4.67781 45.3287 4.39442C45.3084 4.11113 45.1771 3.85257 44.9587 3.66629C44.508 3.28192 43.8231 3.32918 43.432 3.77144L35.1157 13.1754C34.9259 13.3896 34.8326 13.6637 34.8528 13.9471Z"/>
<path fill-rule="evenodd" clip-rule="evenodd" d="M42.2648 13.1018C42.2648 12.8557 42.4651 12.6554 42.7111 12.6554C42.9572 12.6554 43.1575 12.8557 43.1575 13.1018C43.1575 13.3478 42.9572 13.5481 42.7111 13.5481C42.4651 13.5481 42.2648 13.3478 42.2648 13.1018ZM45.3315 13.1018C45.3315 11.6569 44.156 10.4814 42.7111 10.4814C41.2663 10.4814 40.0908 11.6569 40.0908 13.1018C40.0908 14.5466 41.2663 15.7221 42.7111 15.7221C44.156 15.7221 45.3315 14.5466 45.3315 13.1018Z"/>
<path fill-rule="evenodd" clip-rule="evenodd" d="M36.7624 5.76485C36.7624 5.51849 36.9626 5.31812 37.2087 5.31812C37.4548 5.31812 37.655 5.51849 37.655 5.76485C37.655 6.01091 37.4548 6.21118 37.2087 6.21118C36.9626 6.21118 36.7624 6.01091 36.7624 5.76485ZM37.2087 8.38517C38.6536 8.38517 39.829 7.20971 39.829 5.76485C39.829 4.31999 38.6536 3.14453 37.2087 3.14453C35.7638 3.14453 34.5884 4.31999 34.5884 5.76485C34.5884 7.20971 35.7638 8.38517 37.2087 8.38517Z"/>
<path fill-rule="evenodd" clip-rule="evenodd" d="M2.15332 41.9671H7.61057V26.4729H2.15332V41.9671ZM30.4053 36.1536C30.2933 36.4261 30.1649 36.6511 30.0128 36.8418C29.4045 37.6082 28.3986 37.9548 27.4506 37.7246L27.4271 37.7188C27.3706 37.7048 27.3145 37.6883 27.2621 37.6712L20.4972 35.0748L20.4132 35.0427C20.1449 34.9394 19.8524 34.947 19.5895 35.0636C19.3268 35.1803 19.1251 35.3922 19.0218 35.6603C18.9187 35.9282 18.9261 36.2202 19.043 36.4826C19.1598 36.7451 19.372 36.9463 19.6405 37.0492C19.6405 37.0492 23.4548 38.5133 26.3632 39.6331C26.4228 39.6562 26.482 39.6778 26.5386 39.6966L28.7729 40.5545C29.4369 40.8093 30.1234 41.0729 30.8299 41.2531C32.0356 41.5606 33.2751 41.6823 34.513 41.6148C35.215 41.5766 35.9131 41.4792 36.5881 41.3253L40.0559 40.5329C40.06 40.532 40.0641 40.5308 40.0669 40.5297L46.6518 39.0248C47.2595 38.886 47.8829 38.9943 48.407 39.3303C48.9317 39.6661 49.2905 40.1869 49.4174 40.7964C49.6689 42.0031 48.9284 43.1863 47.7317 43.4897L35.7236 46.5367C33.6658 47.0588 31.533 46.9255 29.5554 46.1517L14.0582 40.0832C13.933 40.0341 13.8007 40.0093 13.6649 40.0093H9.76389V28.8399H19.0459L29.098 32.9939C30.3262 33.5024 30.9126 34.9198 30.4053 36.1536ZM51.5258 40.3588C51.2803 39.1794 50.5857 38.1716 49.5699 37.5209C48.5544 36.8708 47.3472 36.6607 46.171 36.9292L40.8448 38.1467L40.8449 38.1563L38.7396 38.5781V38.6278L37.3037 38.956C40.1211 37.2335 42.5138 34.8504 44.242 32.0406C46.1062 29.0095 47.1639 25.521 47.3007 21.9523C47.3198 21.4523 47.3209 20.9444 47.3039 20.4412L47.3204 20.4427L47.318 20.3622C47.2799 19.0798 47.1272 17.8073 46.8641 16.58C46.804 16.2993 46.6378 16.0587 46.3964 15.9028C46.1548 15.7465 45.867 15.6939 45.586 15.7541C45.0057 15.8777 44.6344 16.4501 44.7584 17.0301C44.9081 17.7283 45.019 18.4528 45.0883 19.185L45.0803 19.187L45.0865 19.2483C45.1129 19.5062 45.1346 19.7788 45.1511 20.058L45.1598 20.2305H45.1608C45.1883 20.78 45.1917 21.3316 45.1711 21.871C45.0138 25.9745 43.5544 29.8225 40.9504 32.9988C38.4352 36.0668 34.949 38.2995 31.1321 39.2871C30.9755 39.2411 30.8827 39.1846 30.87 39.1274C30.8457 39.0173 31.0757 38.8208 31.2786 38.6474L31.3163 38.6147C31.6859 38.2251 32.6677 37.1904 32.74 35.1413C32.734 34.7159 32.6699 34.2995 32.5495 33.9035C32.4347 33.5254 32.273 33.1657 32.0688 32.8344C32.0256 32.7645 31.9802 32.695 31.9335 32.6278V32.5884L31.9189 32.5694C31.083 31.4825 29.9273 31.0091 29.8791 30.9897L19.5417 26.7281C19.4476 26.7026 19.3529 26.6897 19.2603 26.6897H14.015V26.6752H11.8617V26.6901H9.76389V25.3979C9.76389 24.8054 9.28099 24.3234 8.68728 24.3234H7.71544C7.54653 23.378 7.4491 22.4179 7.42588 21.4689C7.36726 19.0988 7.74349 16.7791 8.54411 14.574C8.73062 14.0602 8.94256 13.5479 9.17411 13.0513C9.2095 12.9754 9.23594 12.8959 9.25284 12.8143L9.27526 12.7685C10.3657 10.5477 11.9327 8.50698 13.8067 6.86671C15.2199 5.62997 16.8021 4.61535 18.5092 3.85138C18.5764 3.82127 18.6417 3.78323 18.7034 3.73826C19.0827 3.57103 19.4594 3.41906 19.8233 3.28646C22.2631 2.39732 24.9376 2.018 27.5575 2.19004C29.4326 2.313 31.27 2.71261 33.0183 3.3775C33.2869 3.47969 33.5794 3.47136 33.8417 3.35392C34.1044 3.23647 34.3052 3.02398 34.4075 2.75567C34.51 2.48746 34.5017 2.19536 34.3841 1.93338C34.2664 1.67139 34.0536 1.47094 33.7846 1.36876C31.8365 0.627573 29.789 0.1822 27.6988 0.0448841C24.7817 -0.146435 21.8028 0.276253 19.0847 1.26728C16.6583 2.1514 14.3428 3.52837 12.3857 5.25154L12.3223 5.30695C12.2836 5.34078 12.2449 5.37451 12.2068 5.40894C12.1979 5.41687 12.1898 5.4253 12.1815 5.43373L12.1732 5.44236C10.1308 7.28087 8.4306 9.54839 7.25636 11.9998L7.22258 12.0705L7.25405 12.0819C7.24219 12.103 7.23173 12.1235 7.22218 12.1439C6.96358 12.6981 6.72731 13.2692 6.51989 13.8412C5.62787 16.2977 5.20831 18.8819 5.27296 21.5218C5.29608 22.45 5.38335 23.392 5.53226 24.3234H1.07661C0.483007 24.3234 0 24.8056 0 25.3983V43.0419C0 43.6346 0.483007 44.1169 1.07661 44.1169H8.68728C9.28099 44.1169 9.76389 43.6346 9.76389 43.0419V42.1587H13.4613L28.7694 48.1529C30.2044 48.715 31.7052 49 33.2302 49C34.2438 49 35.2611 48.8722 36.254 48.6203L48.2621 45.5732C50.5783 44.9855 52.0119 42.6951 51.5258 40.3588Z"/>
<path fill-rule="evenodd" clip-rule="evenodd" d="M14.0375 24.6312V18.8128H15.9839V17.0322H10.2192V18.8128H12.1657V24.6312H14.0375Z"/>
<path fill-rule="evenodd" clip-rule="evenodd" d="M18.9675 19.2818L19.756 21.721H18.1789L18.9675 19.2818ZM17.6156 23.459H20.3193L20.6973 24.6312H22.6233H22.7372H24.752L25.9854 22.5473L27.2189 24.6312H29.3475L27.0497 20.7359L29.2397 17.0322H27.1108L25.9854 18.9349L24.8599 17.0322H22.7312L24.921 20.7359L22.6951 24.5094L20.1194 17.0322H17.8154L15.1978 24.6312H17.2376L17.6156 23.459Z"/>
<path fill-rule="evenodd" clip-rule="evenodd" d="M35.0575 18.8129V17.0322H30.1338V24.6312H35.1124V22.8505H32.0358V21.6688H34.7827V19.9094H32.0358V18.8129H35.0575Z"/>
<path fill-rule="evenodd" clip-rule="evenodd" d="M38.5591 23.0401C37.8228 23.0401 37.3218 22.7064 37.0272 22.0201L36.9955 21.9461L35.3745 22.8938L35.3956 22.9507C35.6173 23.5473 35.9978 24.0256 36.5265 24.3723C37.0535 24.7182 37.7192 24.8935 38.5048 24.8935C39.3579 24.8935 40.0601 24.6762 40.5921 24.2476C41.129 23.8151 41.4012 23.2154 41.4012 22.4652C41.4012 22.143 41.3462 21.8512 41.2378 21.5981C41.13 21.3472 41.0052 21.1415 40.8667 20.9867C40.7276 20.8314 40.5235 20.6823 40.2599 20.5437C40.0013 20.4078 39.7843 20.3087 39.6147 20.249C39.4477 20.1905 39.2093 20.1128 38.9055 20.0179C38.3587 19.8532 37.9954 19.7023 37.8258 19.5695C37.6653 19.4442 37.5872 19.3014 37.5872 19.1331C37.5872 18.9944 37.6477 18.8782 37.7722 18.7783C37.8999 18.6759 38.0878 18.6241 38.331 18.6241C38.647 18.6241 38.9034 18.695 39.0929 18.8349C39.2852 18.9769 39.4496 19.1909 39.5815 19.4709L39.6147 19.5415L41.2058 18.6023L41.1765 18.5423C40.8963 17.9699 40.5072 17.5267 40.0198 17.225C39.5326 16.9234 38.9644 16.7705 38.331 16.7705C37.6218 16.7705 37.0014 16.99 36.487 17.4229C35.9689 17.859 35.7063 18.4491 35.7063 19.177C35.7063 19.5363 35.7686 19.8596 35.8917 20.1378C36.0155 20.4178 36.1981 20.6539 36.4345 20.8393C36.6656 21.0208 36.9061 21.1694 37.1497 21.2811C37.3912 21.3918 37.6763 21.4927 37.997 21.5808C38.5966 21.7465 39.0096 21.8936 39.2245 22.0178C39.4235 22.133 39.5202 22.2865 39.5202 22.487C39.5202 22.6238 39.5202 23.0401 38.5591 23.0401Z"/>
</svg>
