<svg width="21" height="23" viewBox="0 0 21 23" fill="none" xmlns="http://www.w3.org/2000/svg">
<path d="M7.70636 11.435C7.70636 11.6774 7.64576 11.9053 7.52455 12.1186C7.40818 12.332 7.23364 12.5114 7.00091 12.6568C6.77303 12.8023 6.50152 12.8895 6.18636 12.9186V13.5077H5.71364V12.9186C5.25788 12.875 4.88939 12.732 4.60818 12.4895C4.32697 12.2471 4.18636 11.9271 4.18636 11.5295H5.07364C5.08818 11.7186 5.14879 11.8762 5.25545 12.0023C5.36212 12.1235 5.51485 12.2011 5.71364 12.235V10.635C5.38879 10.5526 5.12455 10.4702 4.92091 10.3877C4.71727 10.3005 4.54273 10.1647 4.39727 9.98045C4.25667 9.79621 4.18636 9.54409 4.18636 9.22409C4.18636 8.82167 4.32697 8.48954 4.60818 8.22773C4.88939 7.96106 5.25788 7.80591 5.71364 7.76227V7.17318H6.18636V7.76227C6.61303 7.80106 6.95485 7.93682 7.21182 8.16955C7.47364 8.39742 7.62152 8.71258 7.65545 9.115H6.76818C6.75364 8.9647 6.69545 8.83136 6.59364 8.715C6.49182 8.59379 6.35606 8.51136 6.18636 8.46773V10.0386C6.51121 10.1162 6.77545 10.1986 6.97909 10.2859C7.18273 10.3683 7.35485 10.5017 7.49545 10.6859C7.63606 10.8653 7.70636 11.115 7.70636 11.435ZM5.03 9.18045C5.03 9.37924 5.08818 9.53439 5.20455 9.64591C5.32576 9.75742 5.49545 9.84712 5.71364 9.915V8.44591C5.50515 8.47015 5.33788 8.5453 5.21182 8.67136C5.09061 8.79742 5.03 8.96712 5.03 9.18045ZM6.18636 12.235C6.3997 12.2011 6.56697 12.1162 6.68818 11.9805C6.80939 11.8398 6.87 11.6726 6.87 11.4786C6.87 11.2847 6.80939 11.1344 6.68818 11.0277C6.57182 10.9162 6.40455 10.8265 6.18636 10.7586V12.235Z" fill="currentColor"/>
<path fill-rule="evenodd" clip-rule="evenodd" d="M0.550781 18.1992C0.917969 18.5664 1.35938 18.75 1.875 18.75H6.875V16.875H1.875V1.875H8.4375V6.5625H13.125V9.375H15V5.625L9.375 0H1.875C1.35938 0 0.917969 0.183594 0.550781 0.550781C0.183594 0.917969 0 1.35938 0 1.875V16.875C0 17.3906 0.183594 17.832 0.550781 18.1992Z" fill="currentColor"/>
<path d="M10.332 21.8876C11.4408 22.381 12.7899 22.625 14.375 22.625C15.9601 22.625 17.3092 22.381 18.418 21.8876C19.5173 21.3985 20.125 20.7762 20.125 20V13.75C20.125 12.9832 19.5105 12.3639 18.4024 11.8702C17.2835 11.3717 15.9397 11.125 14.375 11.125C12.8103 11.125 11.4665 11.3717 10.3476 11.8702C9.23945 12.3639 8.625 12.9832 8.625 13.75V20C8.625 20.7762 9.23265 21.3985 10.332 21.8876ZM17.0977 14.341C16.1653 14.614 15.2579 14.75 14.375 14.75C13.4495 14.75 12.5341 14.6189 11.6285 14.3565C10.7885 14.1131 10.2383 13.8342 9.94862 13.5325C10.2394 13.2388 10.795 12.9619 11.6444 12.7137C12.5607 12.446 13.4708 12.3125 14.375 12.3125C15.2471 12.3125 16.1491 12.451 17.0815 12.7292C17.5485 12.8685 17.9298 13.0132 18.2271 13.1625C18.4735 13.2862 18.6573 13.4107 18.7844 13.5338C18.6617 13.6595 18.4817 13.7857 18.2381 13.9102C17.9439 14.0604 17.5645 14.2043 17.0977 14.341ZM15.6586 18.0241C15.2255 18.0706 14.7924 18.0938 14.3594 18.0938C13.9158 18.0938 13.4776 18.0705 13.0446 18.0241C12.6118 17.9778 12.1976 17.9083 11.8019 17.8158C11.4059 17.7232 11.0337 17.6102 10.6853 17.477C10.3624 17.3535 10.0716 17.2174 9.8125 17.0688V14.9328C10.0527 15.0618 10.3167 15.1805 10.6044 15.2888C10.9692 15.4263 11.3546 15.5424 11.7606 15.6373C12.1665 15.7322 12.5903 15.8059 13.0321 15.8585C13.4745 15.9112 13.9169 15.9375 14.3594 15.9375C14.8018 15.9375 15.2392 15.9112 15.6714 15.8585C16.1027 15.8059 16.5237 15.7322 16.9344 15.6374C17.3455 15.5426 17.7361 15.4265 18.106 15.2891C18.403 15.1788 18.6802 15.058 18.9375 14.9266V17.0675C18.6684 17.2165 18.3675 17.3529 18.0346 17.4766C17.6752 17.6101 17.2975 17.7232 16.9012 17.8158C16.5055 17.9083 16.0913 17.9778 15.6586 18.0241ZM15.9013 21.3064C15.3763 21.3939 14.8676 21.4375 14.375 21.4375C13.8718 21.4375 13.3579 21.3939 12.833 21.3064C12.3067 21.2187 11.8228 21.1053 11.3812 20.9667C10.9399 20.8281 10.5746 20.6703 10.2833 20.4945C9.99852 20.3227 9.85709 20.1696 9.8125 20.0429V18.3076C10.052 18.4359 10.3137 18.5521 10.5975 18.6564C10.9569 18.7885 11.3394 18.9019 11.745 18.9967C12.1513 19.0917 12.5757 19.1628 13.0179 19.2102C13.4599 19.2576 13.9071 19.2812 14.3594 19.2812C14.8117 19.2812 15.2563 19.2576 15.6932 19.2102C16.1302 19.1628 16.5519 19.0917 16.9581 18.9967C17.3635 18.902 17.7509 18.7887 18.1202 18.6568C18.4152 18.5514 18.6878 18.4339 18.9375 18.3042V20.0251C18.8836 20.1636 18.7328 20.3198 18.4454 20.4854C18.1474 20.6572 17.7807 20.8155 17.3437 20.9594C16.9079 21.103 16.4272 21.2187 15.9013 21.3064Z" fill="currentColor" stroke="currentColor" stroke-width="0.25"/>
</svg>
