<svg width="23" height="21" viewBox="0 0 23 21" fill="none" xmlns="http://www.w3.org/2000/svg">
<path d="M5.76955 18.6348V20.1243H0.025V9.70505H8.3235L15.1919 12.2544L15.192 12.2544C15.673 12.4301 16.0781 12.7153 16.4077 13.1105C16.735 13.503 16.9005 14.0678 16.9005 14.8084V14.8334H16.9255H19.998C20.746 14.8334 21.3682 15.0965 21.8664 15.6228C22.3641 16.1485 22.6142 16.8593 22.6142 17.7579V18.4302L14.1762 20.9736L5.80134 18.6107L5.76955 18.6017V18.6348ZM1.59208 18.555V18.58H1.61708H4.15052H4.17552V18.555V11.2744V11.2494H4.15052H1.61708H1.59208V11.2744V18.555ZM14.0617 19.3762L14.0604 19.3808L14.0758 19.3761L20.9754 17.3035L20.9998 17.2962L20.992 17.272C20.8837 16.9337 20.7469 16.6975 20.5791 16.5689C20.4128 16.4413 20.2187 16.3777 19.998 16.3777H14.419C13.8811 16.3777 13.3837 16.3424 12.927 16.2717C12.4699 16.201 12.0353 16.1038 11.6232 15.9802L9.46597 15.3238L10.0408 13.8298L11.9857 14.4602L11.9859 14.4603C12.4362 14.6023 12.8644 14.7001 13.2703 14.7535C13.6763 14.8069 14.32 14.8334 15.2006 14.8334H15.2256V14.8084C15.2256 14.5926 15.1845 14.3813 15.1026 14.1748C15.0193 13.9651 14.8755 13.814 14.6718 13.7227L14.6718 13.7227L14.6703 13.7221L8.06723 11.2509L8.06783 11.2494H8.05847H5.79455H5.76955V11.2744V16.9607V16.9795L5.78761 16.9847L14.0617 19.3762Z" fill="currentColor" stroke="currentColor" stroke-width="0.05"/>
<mask id="mask0_806_12739" style="mask-type:alpha" maskUnits="userSpaceOnUse" x="9" y="0" width="14" height="13">
<rect x="10.2441" y="0.5" width="11.9966" height="11.9966" fill="currentColor" stroke="currentColor"/>
</mask>
<g mask="url(#mask0_806_12739)">
<path d="M15.656 10.2878V10.3878H15.756H16.7037H16.8037V10.2878V9.69339C17.2359 9.60333 17.6127 9.4258 17.932 9.15977C18.2854 8.86525 18.4553 8.43189 18.4553 7.87806C18.4553 7.47858 18.3408 7.11142 18.1129 6.77907C17.8782 6.4368 17.4204 6.15251 16.7647 5.91574L16.7647 5.91571L16.7624 5.91492C16.2212 5.73454 15.8576 5.57992 15.6617 5.4522C15.4805 5.33403 15.3957 5.17955 15.3957 4.98089C15.3957 4.77323 15.4679 4.618 15.6091 4.50351C15.7516 4.38799 15.9671 4.32276 16.2705 4.32276C16.5437 4.32276 16.7433 4.38882 16.8821 4.50838C17.0309 4.63648 17.1383 4.79528 17.2049 4.98667L17.2395 5.08608L17.337 5.04646L18.2034 4.69447L18.2888 4.65978L18.2612 4.57184C18.1561 4.2373 17.9625 3.9468 17.6836 3.70098C17.4276 3.47535 17.1429 3.3385 16.8308 3.29406V2.70649V2.60649H16.7308H15.7831H15.6831V2.70649V3.30421C15.2512 3.41269 14.905 3.61488 14.6509 3.91437C14.3837 4.22919 14.248 4.58576 14.248 4.98089C14.248 5.42588 14.3789 5.79506 14.6478 6.0786C14.9112 6.35636 15.3179 6.58867 15.8574 6.78076C16.425 6.98799 16.808 7.169 17.0168 7.32235C17.2137 7.46704 17.3077 7.64991 17.3077 7.87806C17.3077 8.149 17.2133 8.3332 17.0345 8.45118C16.8414 8.57854 16.6063 8.6445 16.3246 8.6445C16.0493 8.6445 15.8075 8.55964 15.5953 8.38903C15.3853 8.22023 15.2252 7.96264 15.1209 7.60628L15.0902 7.5012L14.9883 7.54133L14.0948 7.89332L14.0099 7.92676L14.0354 8.01436C14.1656 8.46052 14.3693 8.82599 14.6496 9.10628C14.9144 9.37101 15.2511 9.55549 15.656 9.66205V10.2878ZM14.0918 11.5778C14.7637 11.8677 15.4813 12.0124 16.2434 12.0124C17.0055 12.0124 17.723 11.8677 18.395 11.5778C19.0649 11.2887 19.6487 10.8958 20.1454 10.3992C20.6421 9.90249 21.0349 9.31871 21.324 8.64873C21.6139 7.97682 21.7586 7.25929 21.7586 6.49717C21.7586 5.73504 21.6139 5.01751 21.324 4.3456C21.0349 3.67562 20.6421 3.09184 20.1454 2.59516C19.6487 2.09848 19.0649 1.70564 18.395 1.41654C17.723 1.12661 17.0055 0.981909 16.2434 0.981909C15.4813 0.981909 14.7637 1.12661 14.0918 1.41654C13.4218 1.70564 12.8381 2.09848 12.3414 2.59516C11.8447 3.09184 11.4519 3.67562 11.1628 4.3456C10.8728 5.01751 10.7281 5.73504 10.7281 6.49717C10.7281 7.25929 10.8728 7.97682 11.1628 8.64873C11.4519 9.31871 11.8447 9.90249 12.3414 10.3992C12.8381 10.8958 13.4218 11.2887 14.0918 11.5778ZM19.2458 9.49961C18.4256 10.3198 17.4268 10.7294 16.2434 10.7294C15.0599 10.7294 14.0612 10.3198 13.2409 9.49961C12.4207 8.67939 12.0112 7.68061 12.0112 6.49717C12.0112 5.31372 12.4207 4.31494 13.2409 3.49472C14.0612 2.6745 15.0599 2.26496 16.2434 2.26496C17.4268 2.26496 18.4256 2.6745 19.2458 3.49472C20.066 4.31494 20.4756 5.31372 20.4756 6.49717C20.4756 7.68061 20.066 8.67939 19.2458 9.49961Z" fill="currentColor" stroke="currentColor" stroke-width="0.2"/>
</g>
</svg>
