<svg width="20" height="17" viewBox="0 0 20 17" fill="none" xmlns="http://www.w3.org/2000/svg">
<mask id="path-1-inside-1_2819_38439" fill="white">
<path fill-rule="evenodd" clip-rule="evenodd" d="M11.1058 9H18V15H2V9H9.89956V6.20756H7.77148L7.99287 5H2V3H8.35954L8.7262 1H2C1.45 1 0.979167 1.19583 0.5875 1.5875C0.195833 1.97917 0 2.45 0 3V15C0 15.55 0.195833 16.0208 0.5875 16.4125C0.979167 16.8042 1.45 17 2 17H18C18.55 17 19.0208 16.8042 19.4125 16.4125C19.8042 16.0208 20 15.55 20 15V3C20 2.45 19.8042 1.97917 19.4125 1.5875C19.0208 1.19583 18.55 1 18 1H12.7058L11.6705 3H18V5H13.6682L11.1058 9Z"/>
</mask>
<path fill-rule="evenodd" clip-rule="evenodd" d="M11.1058 9H18V15H2V9H9.89956V6.20756H7.77148L7.99287 5H2V3H8.35954L8.7262 1H2C1.45 1 0.979167 1.19583 0.5875 1.5875C0.195833 1.97917 0 2.45 0 3V15C0 15.55 0.195833 16.0208 0.5875 16.4125C0.979167 16.8042 1.45 17 2 17H18C18.55 17 19.0208 16.8042 19.4125 16.4125C19.8042 16.0208 20 15.55 20 15V3C20 2.45 19.8042 1.97917 19.4125 1.5875C19.0208 1.19583 18.55 1 18 1H12.7058L11.6705 3H18V5H13.6682L11.1058 9Z" fill="currentColor"/>
<path d="M2.0125 15V3H1.9875V15H2.0125ZM18 9H18.025V8.975H18V9ZM11.1058 9L11.0847 8.98651L11.0601 9.025H11.1058V9ZM18 15V15.025H18.025V15H18ZM2 15H1.975V15.025H2V15ZM2 9V8.975H1.975V9H2ZM9.89956 9V9.025H9.92456V9H9.89956ZM9.89956 6.20756H9.92456V6.18256H9.89956V6.20756ZM7.77148 6.20756L7.74689 6.20305L7.74148 6.23256H7.77148V6.20756ZM7.99287 5L8.01746 5.00451L8.02287 4.975H7.99287V5ZM2 5H1.975V5.025H2V5ZM2 3V2.975H1.975V3H2ZM8.35954 3V3.025H8.38037L8.38413 3.00451L8.35954 3ZM8.7262 1L8.75079 1.00451L8.7562 0.975H8.7262V1ZM0.5875 1.5875L0.569822 1.56982L0.5875 1.5875ZM0.5875 16.4125L0.569822 16.4302L0.5875 16.4125ZM19.4125 16.4125L19.4302 16.4302L19.4125 16.4125ZM19.4125 1.5875L19.4302 1.56982V1.56982L19.4125 1.5875ZM12.7058 1V0.975H12.6906L12.6836 0.988507L12.7058 1ZM11.6705 3L11.6483 2.98851L11.6294 3.025H11.6705V3ZM18 3H18.025V2.975H18V3ZM18 5V5.025H18.025V5H18ZM13.6682 5V4.975H13.6545L13.6472 4.98651L13.6682 5ZM18 8.975H11.1058V9.025H18V8.975ZM18.025 15V9H17.975V15H18.025ZM2 15.025H18V14.975H2V15.025ZM1.975 9V15H2.025V9H1.975ZM9.89956 8.975H2V9.025H9.89956V8.975ZM9.92456 9V6.20756H9.87456V9H9.92456ZM9.89956 6.18256H7.77148V6.23256H9.89956V6.18256ZM7.79607 6.21207L8.01746 5.00451L7.96828 4.99549L7.74689 6.20305L7.79607 6.21207ZM2 5.025H7.99287V4.975H2V5.025ZM1.975 3V5H2.025V3H1.975ZM8.35954 2.975H2V3.025H8.35954V2.975ZM8.38413 3.00451L8.75079 1.00451L8.70161 0.995492L8.33495 2.99549L8.38413 3.00451ZM2 1.025H8.7262V0.975H2V1.025ZM0.605178 1.60518C0.992193 1.21816 1.45668 1.025 2 1.025V0.975C1.44332 0.975 0.96614 1.1735 0.569822 1.56982L0.605178 1.60518ZM0.025 3C0.025 2.45668 0.218162 1.99219 0.605178 1.60518L0.569822 1.56982C0.173505 1.96614 -0.025 2.44332 -0.025 3H0.025ZM0.025 15V3H-0.025V15H0.025ZM0.605178 16.3948C0.218162 16.0078 0.025 15.5433 0.025 15H-0.025C-0.025 15.5567 0.173505 16.0339 0.569822 16.4302L0.605178 16.3948ZM2 16.975C1.45668 16.975 0.992193 16.7818 0.605178 16.3948L0.569822 16.4302C0.96614 16.8265 1.44332 17.025 2 17.025V16.975ZM18 16.975H2V17.025H18V16.975ZM19.3948 16.3948C19.0078 16.7818 18.5433 16.975 18 16.975V17.025C18.5567 17.025 19.0339 16.8265 19.4302 16.4302L19.3948 16.3948ZM19.975 15C19.975 15.5433 19.7818 16.0078 19.3948 16.3948L19.4302 16.4302C19.8265 16.0339 20.025 15.5567 20.025 15H19.975ZM19.975 3V15H20.025V3H19.975ZM19.3948 1.60518C19.7818 1.99219 19.975 2.45668 19.975 3H20.025C20.025 2.44332 19.8265 1.96614 19.4302 1.56982L19.3948 1.60518ZM18 1.025C18.5433 1.025 19.0078 1.21816 19.3948 1.60518L19.4302 1.56982C19.0339 1.1735 18.5567 0.975 18 0.975V1.025ZM12.7058 1.025H18V0.975H12.7058V1.025ZM12.6836 0.988507L11.6483 2.98851L11.6927 3.01149L12.728 1.01149L12.6836 0.988507ZM18 2.975H11.6705V3.025H18V2.975ZM18.025 5V3H17.975V5H18.025ZM13.6682 5.025H18V4.975H13.6682V5.025ZM13.6472 4.98651L11.0847 8.98651L11.1268 9.01348L13.6893 5.01349L13.6472 4.98651Z" fill="currentColor" mask="url(#path-1-inside-1_2819_38439)"/>
<path d="M8.58846 1.0625C8.76796 1.09145 8.27297 4.49671 7.58301 6.42503L9.82894 6.4251V10.8822L13.5461 5.13746L12.0033 5.13743L10.6516 5.13746L11.7048 2.9965L12.7102 1.06253" stroke="currentColor" stroke-width="0.4"/>
</svg>
