<svg width="19" height="21" viewBox="0 0 19 21" fill="none" xmlns="http://www.w3.org/2000/svg">
<path d="M3.01245 20.083C2.17566 20.083 1.46439 19.7901 0.878632 19.2044C0.292877 18.6186 0 17.9073 0 17.0706V14.0581H3.01245V0L4.51868 1.50623L6.0249 0L7.53113 1.50623L9.03735 0L10.5436 1.50623L12.0498 0L13.556 1.50623L15.0623 0L16.5685 1.50623L18.0747 0V17.0706C18.0747 17.9073 17.7818 18.6186 17.1961 19.2044C16.6103 19.7901 15.899 20.083 15.0623 20.083H3.01245ZM15.0623 18.0747C15.3468 18.0747 15.5853 17.9785 15.7777 17.786C15.9702 17.5936 16.0664 17.3551 16.0664 17.0706V3.01245H5.02075V14.0581H14.0581V17.0706C14.0581 17.3551 14.1543 17.5936 14.3468 17.786C14.5393 17.9785 14.7777 18.0747 15.0623 18.0747ZM6.0249 7.02905V5.02075H12.0498V7.02905H6.0249ZM6.0249 10.0415V8.0332H12.0498V10.0415H6.0249ZM14.0581 7.02905C13.7736 7.02905 13.5351 6.93282 13.3426 6.74036C13.1502 6.5479 13.054 6.30941 13.054 6.0249C13.054 5.74039 13.1502 5.50191 13.3426 5.30944C13.5351 5.11698 13.7736 5.02075 14.0581 5.02075C14.3426 5.02075 14.5811 5.11698 14.7736 5.30944C14.966 5.50191 15.0623 5.74039 15.0623 6.0249C15.0623 6.30941 14.966 6.5479 14.7736 6.74036C14.5811 6.93282 14.3426 7.02905 14.0581 7.02905ZM14.0581 10.0415C13.7736 10.0415 13.5351 9.94527 13.3426 9.75281C13.1502 9.56035 13.054 9.32186 13.054 9.03735C13.054 8.75284 13.1502 8.51436 13.3426 8.3219C13.5351 8.12943 13.7736 8.0332 14.0581 8.0332C14.3426 8.0332 14.5811 8.12943 14.7736 8.3219C14.966 8.51436 15.0623 8.75284 15.0623 9.03735C15.0623 9.32186 14.966 9.56035 14.7736 9.75281C14.5811 9.94527 14.3426 10.0415 14.0581 10.0415ZM3.01245 18.0747H12.0498V16.0664H2.0083V17.0706C2.0083 17.3551 2.10453 17.5936 2.29699 17.786C2.48946 17.9785 2.72794 18.0747 3.01245 18.0747Z" fill="currentColor"/>
</svg>
