<svg width="16" height="20" viewBox="0 0 16 20" fill="none" xmlns="http://www.w3.org/2000/svg">
<path d="M3.9998 15.9992H11.9994V13.9993H3.9998V15.9992ZM3.9998 11.9994H11.9994V9.99951H3.9998V11.9994ZM1.9999 19.999C1.44993 19.999 0.979119 19.8032 0.587471 19.4116C0.195824 19.0199 0 18.5491 0 17.9991V1.9999C0 1.44993 0.195824 0.979119 0.587471 0.587471C0.979119 0.195824 1.44993 0 1.9999 0H9.99951L15.9992 5.99971V17.9991C15.9992 18.5491 15.8034 19.0199 15.4117 19.4116C15.0201 19.8032 14.5493 19.999 13.9993 19.999H1.9999ZM8.99956 6.99966V1.9999H1.9999V17.9991H13.9993V6.99966H8.99956Z" fill="currentColor"/>
</svg>
