<svg width="20" height="19" viewBox="0 0 20 19" fill="none" xmlns="http://www.w3.org/2000/svg">
<path d="M2 19C1.45 19 0.979167 18.8042 0.5875 18.4125C0.195833 18.0208 0 17.55 0 17V6C0 5.45 0.195833 4.97917 0.5875 4.5875C0.979167 4.19583 1.45 4 2 4H6V2C6 1.45 6.19583 0.979167 6.5875 0.5875C6.97917 0.195833 7.45 0 8 0H12C12.55 0 13.0208 0.195833 13.4125 0.5875C13.8042 0.979167 14 1.45 14 2V4H18C18.55 4 19.0208 4.19583 19.4125 4.5875C19.8042 4.97917 20 5.45 20 6V17C20 17.55 19.8042 18.0208 19.4125 18.4125C19.0208 18.8042 18.55 19 18 19H2ZM2 17H18V6H2V17ZM8 4H12V2H8V4Z" fill="currentColor"/>
<path d="M12.7055 13.0757C12.7055 13.435 12.6157 13.7728 12.4361 14.089C12.2636 14.4051 12.0049 14.671 11.66 14.8866C11.3222 15.1022 10.9198 15.2315 10.4527 15.2746V16.1477H9.75211V15.2746C9.07663 15.21 8.5305 14.998 8.11371 14.6387C7.69693 14.2794 7.48853 13.8051 7.48853 13.2159H8.80357C8.82512 13.4961 8.91495 13.7297 9.07304 13.9165C9.23113 14.0961 9.45749 14.2111 9.75211 14.2614V11.89C9.27065 11.7679 8.87902 11.6457 8.57721 11.5236C8.2754 11.3942 8.0167 11.193 7.80112 10.9199C7.59273 10.6469 7.48853 10.2732 7.48853 9.79893C7.48853 9.20249 7.69693 8.71026 8.11371 8.32221C8.5305 7.92699 9.07663 7.69703 9.75211 7.63236V6.75927H10.4527V7.63236C11.0851 7.68985 11.5917 7.89106 11.9726 8.23598C12.3606 8.57372 12.5798 9.04081 12.6301 9.63725H11.3151C11.2935 9.41448 11.2073 9.21687 11.0564 9.0444C10.9055 8.86475 10.7043 8.74259 10.4527 8.67792V11.0062C10.9342 11.1211 11.3258 11.2433 11.6276 11.3727C11.9295 11.4948 12.1846 11.6924 12.393 11.9655C12.6013 12.2314 12.7055 12.6015 12.7055 13.0757ZM8.73889 9.73426C8.73889 10.0289 8.82512 10.2588 8.99759 10.4241C9.17724 10.5894 9.42874 10.7223 9.75211 10.8229V8.64558C9.44312 8.68151 9.1952 8.79289 9.00837 8.97973C8.82872 9.16656 8.73889 9.41807 8.73889 9.73426ZM10.4527 14.2614C10.7689 14.2111 11.0168 14.0854 11.1965 13.8842C11.3761 13.6758 11.466 13.4278 11.466 13.1404C11.466 12.853 11.3761 12.6302 11.1965 12.4721C11.024 12.3068 10.7761 12.1739 10.4527 12.0733V14.2614Z" fill="currentColor"/>
</svg>
