<svg width="311" height="160" viewBox="0 0 311 160" fill="none" xmlns="http://www.w3.org/2000/svg">
<g clip-path="url(#clip0_5711_10669)">
<path d="M-34.8451 33.8186C-33.6694 33.8186 -32.4938 34.0334 -31.3511 34.4583C-31.2055 34.5125 -31.0458 34.4943 -30.9131 34.4093C-30.781 34.3238 -30.69 34.1804 -30.6658 34.0167C-30.0405 29.8814 -26.7649 26.8806 -22.8765 26.8806C-21.6704 26.8806 -20.5016 27.1756 -19.4025 27.7569C-19.2699 27.8273 -19.115 27.8336 -18.9771 27.7741C-18.8401 27.7142 -18.7317 27.5953 -18.6809 27.4447C-17.5788 24.1909 -14.6826 22.0049 -11.4748 22.0049C-8.79881 22.0049 -6.35758 23.4767 -4.94386 25.9416C-4.83351 26.134 -4.62975 26.2383 -4.42019 26.2023C-4.12592 26.1533 -3.8786 26.1304 -3.64097 26.1304C-0.846428 26.1304 1.42686 28.5796 1.42686 31.5893C1.42686 31.8135 1.40993 32.0507 1.37363 32.3354C1.35475 32.485 1.39202 32.6367 1.47817 32.7566C1.56384 32.876 1.69064 32.9527 1.83002 32.9709C6.22705 33.5246 9.94116 36.6938 11.4744 41.132H-44.8249C-43.2171 36.7267 -39.2929 33.8186 -34.8451 33.8186Z" fill="#E4E2E0"/>
<path d="M64.7594 8.36353C69.773 7.52 73.6376 11.3873 74.9434 13.4268H15.4072C15.7209 9.71382 18.9326 6.53517 20.4993 5.41011C25.0429 2.37224 29.5735 3.44101 31.2704 4.35544C34.2474 0.136202 38.1251 -0.215193 39.6917 0.136193C44.5486 0.473503 46.6767 4.63644 47.1335 6.67594C50.1105 5.15727 53.9882 6.60557 55.5549 7.52001C54.7713 5.8319 55.3589 4.00405 55.7509 3.30076C57.6307 -0.749568 61.2345 -0.0749413 62.8011 0.769116C66.5612 3.30076 65.6731 6.88709 64.7594 8.36353Z" fill="#E4E2E0"/>
<path d="M355.194 62.7905H294.874C294.561 55.8712 299.312 53.8599 301.729 53.7191C306.742 53.5507 308.908 57.3055 309.367 59.2042C311.56 58.698 314.459 59.4153 315.634 59.8371C315.79 54.4365 319.225 50.2736 320.921 48.8675C326.092 44.6483 331.692 45.7029 333.847 46.7576C338.86 48.6141 341.418 53.8599 342.072 56.2508C344.736 54.9005 347.489 55.266 348.535 55.6179C352.452 56.293 354.606 60.6812 355.194 62.7905Z" fill="#FDFDFD"/>
<path d="M302.273 54.2588C305.309 54.2588 307.972 56.3499 308.9 59.4628C308.979 59.7256 309.222 59.8851 309.476 59.8471C311.493 59.5155 313.593 59.7365 315.508 60.4899C315.665 60.5524 315.841 60.5285 315.978 60.4257C316.119 60.3241 316.205 60.1557 316.209 59.9748C316.37 52.4799 322.166 46.3828 329.127 46.3828C334.834 46.3828 339.938 50.503 341.532 56.4025C341.579 56.5621 341.684 56.6934 341.826 56.7602C341.966 56.8274 342.127 56.8227 342.268 56.7482C343.49 56.0913 344.794 55.7587 346.142 55.7587C349.902 55.7587 353.196 58.3461 354.379 62.1347H295.321C295.313 62.0065 295.309 61.8819 295.309 61.7588C295.309 57.6235 298.435 54.2588 302.273 54.2588ZM294.843 63.2593H355.076C355.237 63.2593 355.389 63.1795 355.488 63.0424C355.589 62.9058 355.625 62.7275 355.585 62.5591C354.489 57.8925 350.607 54.6336 346.142 54.6336C344.834 54.6336 343.561 54.9136 342.354 55.4667C340.447 49.4238 335.092 45.2578 329.127 45.2578C321.838 45.2578 315.735 51.4419 315.199 59.1922C313.448 58.6162 311.584 58.4384 309.75 58.672C308.567 55.34 305.618 53.1332 302.273 53.1332C297.859 53.1332 294.267 57.0026 294.267 61.7588C294.267 62.0795 294.286 62.4079 294.326 62.764C294.357 63.0466 294.58 63.2593 294.843 63.2593Z" fill="#E4E2E0"/>
<path d="M302.273 54.2588C305.309 54.2588 307.972 56.3499 308.9 59.4628C308.979 59.7256 309.222 59.8851 309.476 59.8471C311.493 59.5155 313.593 59.7365 315.508 60.4899C315.665 60.5524 315.841 60.5285 315.978 60.4257C316.119 60.3241 316.205 60.1557 316.209 59.9748C316.37 52.4799 322.166 46.3828 329.127 46.3828C334.834 46.3828 339.938 50.503 341.532 56.4025C341.579 56.5621 341.684 56.6934 341.826 56.7602C341.966 56.8274 342.127 56.8227 342.268 56.7482C343.49 56.0913 344.794 55.7587 346.142 55.7587C349.902 55.7587 353.196 58.3461 354.379 62.1347H295.321C295.313 62.0065 295.309 61.8819 295.309 61.7588C295.309 57.6235 298.435 54.2588 302.273 54.2588Z" fill="#E4E2E0"/>
<path d="M79.6436 159.461V116.003H65.5431L46.3507 101.236L27.5497 116.003H13.4492V159.461H79.6436Z" fill="#241C4F"/>
<path d="M27.5496 116.003H11.4905V113.894H26.7661L46.5461 98.2824L66.3262 113.894H81.6023V116.003H65.5431L46.5461 101.236L27.5496 116.003Z" fill="#241C4F"/>
<path d="M26.7663 113.894H11.4907L29.5081 101.236H42.8255L26.7663 113.894Z" fill="#241C4F"/>
<path d="M66.3263 113.894H81.6023L63.5845 101.236H50.2676L66.3263 113.894Z" fill="#241C4F"/>
<path d="M50.2676 116.003H42.0422V133.723H50.2676V116.003Z" fill="#CAC5E8"/>
<path d="M28.3333 121.91H20.4995V133.724H28.3333V121.91Z" fill="#CAC5E8"/>
<path d="M28.3333 139.63H20.4995V151.444H28.3333V139.63Z" fill="#CAC5E8"/>
<path d="M72.5936 121.91H64.7598V133.724H72.5936V121.91Z" fill="#CAC5E8"/>
<path d="M72.5936 139.63H64.7598V151.444H72.5936V139.63Z" fill="#CAC5E8"/>
<path d="M55.3591 136.677H36.9502V138.786H55.3591V136.677Z" fill="#F2A53D"/>
<path d="M54.9676 156.085H37.3418V157.773H54.9676V156.085Z" fill="#404040"/>
<path d="M55.7511 157.773H36.5586V159.461H55.7511V157.773Z" fill="#404040"/>
<path d="M53.7922 138.787H38.5166V156.086H53.7922V138.787Z" fill="#F2A53D"/>
<path d="M42.0418 140.474H40.4751V154.397H42.0418V140.474Z" fill="#F4F3F2"/>
<path d="M51.8342 140.474H50.2676V154.397H51.8342V140.474Z" fill="#F4F3F2"/>
<path d="M48.7009 140.474H43.6089V149.335H48.7009V140.474Z" fill="#CAC5E8"/>
<path d="M48.7009 151.022H43.6089V154.398H48.7009V151.022Z" fill="#CAC5E8"/>
<path d="M105.886 139.63H79.6436V159.46H105.886V139.63Z" fill="#F4F3F2"/>
<path d="M13.4488 139.63H-12.7939V159.46H13.4488V139.63Z" fill="#F4F3F2"/>
<path opacity="0.5" d="M20.9394 128.222H27.7292V133.004H20.9394V128.222ZM27.7292 127.097H20.9394V122.315H27.7292V127.097ZM19.634 134.129H20.4176H28.2509H29.0345C29.323 134.129 29.5567 133.877 29.5567 133.567C29.5567 133.256 29.323 133.004 29.0345 133.004H28.7732V121.753C28.7732 121.442 28.5394 121.19 28.2509 121.19H20.4176C20.1292 121.19 19.8954 121.442 19.8954 121.753V133.004H19.634C19.3456 133.004 19.1118 133.256 19.1118 133.567C19.1118 133.877 19.3456 134.129 19.634 134.129Z" fill="#CAC5E8"/>
<path opacity="0.5" d="M42.8085 128.223H49.5983V133.005H42.8085V128.223ZM49.5983 121.472H42.8085V116.691H49.5983V121.472ZM42.8085 122.598H49.5983V127.098H42.8085V122.598ZM41.5032 134.13H42.2868H50.1201H50.9037C51.1921 134.13 51.4259 133.878 51.4259 133.567C51.4259 133.257 51.1921 133.005 50.9037 133.005H50.6423V116.128C50.6423 115.817 50.4085 115.565 50.1201 115.565H42.2868C41.9983 115.565 41.7645 115.817 41.7645 116.128V133.005H41.5032C41.2147 133.005 40.981 133.257 40.981 133.567C40.981 133.878 41.2147 134.13 41.5032 134.13Z" fill="#CAC5E8"/>
<path opacity="0.5" d="M65.33 128.222H72.1198V133.004H65.33V128.222ZM72.1198 127.097H65.33V122.315H72.1198V127.097ZM64.0247 134.129H64.8082H72.6416H73.4251C73.7136 134.129 73.9474 133.877 73.9474 133.567C73.9474 133.256 73.7136 133.004 73.4251 133.004H73.1638V121.753C73.1638 121.442 72.93 121.19 72.6416 121.19H64.8082C64.5198 121.19 64.286 121.442 64.286 121.753V133.004H64.0247C63.7362 133.004 63.5024 133.256 63.5024 133.567C63.5024 133.877 63.7362 134.129 64.0247 134.129Z" fill="#CAC5E8"/>
<path opacity="0.5" d="M20.9394 146.224H27.7292V151.006H20.9394V146.224ZM27.7292 145.099H20.9394V140.317H27.7292V145.099ZM29.0345 151.006H28.7732V139.755C28.7732 139.444 28.5394 139.192 28.2509 139.192H20.4176C20.1292 139.192 19.8954 139.444 19.8954 139.755V151.006H19.634C19.3456 151.006 19.1118 151.258 19.1118 151.569C19.1118 151.879 19.3456 152.131 19.634 152.131H20.4176H28.2509H29.0345C29.323 152.131 29.5567 151.879 29.5567 151.569C29.5567 151.258 29.323 151.006 29.0345 151.006Z" fill="#CAC5E8"/>
<path opacity="0.5" d="M65.33 146.224H72.1198V151.006H65.33V146.224ZM72.1198 145.099H65.33V140.317H72.1198V145.099ZM64.0247 152.131H64.8082H72.6416H73.4251C73.7136 152.131 73.9474 151.879 73.9474 151.569C73.9474 151.258 73.7136 151.006 73.4251 151.006H73.1638V139.755C73.1638 139.444 72.93 139.192 72.6416 139.192H64.8082C64.5198 139.192 64.286 139.444 64.286 139.755V151.006H64.0247C63.7362 151.006 63.5024 151.258 63.5024 151.569C63.5024 151.879 63.7362 152.131 64.0247 152.131Z" fill="#CAC5E8"/>
<path d="M41.5032 153.538H40.981V141.161H41.5032V153.538ZM42.0254 140.037H40.4587C40.1703 140.037 39.9365 140.288 39.9365 140.599V154.101C39.9365 154.411 40.1703 154.663 40.4587 154.663H42.0254C42.3134 154.663 42.5476 154.411 42.5476 154.101V140.599C42.5476 140.288 42.3134 140.037 42.0254 140.037Z" fill="#F2A53D"/>
<path d="M48.2918 148.756H44.1145V141.161H48.2918V148.756ZM48.8145 140.037H43.5918C43.3033 140.037 43.0696 140.288 43.0696 140.599V149.319C43.0696 149.63 43.3033 149.881 43.5918 149.881H48.8145C49.103 149.881 49.3367 149.63 49.3367 149.319V140.599C49.3367 140.288 49.103 140.037 48.8145 140.037Z" fill="#F2A53D"/>
<path d="M48.292 153.539H44.1148V151.569H48.292V153.539ZM48.8147 150.444H43.592C43.3036 150.444 43.0698 150.696 43.0698 151.007V154.101C43.0698 154.411 43.3036 154.663 43.592 154.663H48.8147C49.1032 154.663 49.337 154.411 49.337 154.101V151.007C49.337 150.696 49.1032 150.444 48.8147 150.444Z" fill="#F2A53D"/>
<path d="M51.4258 153.538H50.9036V141.161H51.4258V153.538ZM51.9475 140.037H50.3809C50.0929 140.037 49.8591 140.288 49.8591 140.599V154.101C49.8591 154.411 50.0929 154.663 50.3809 154.663H51.9475C52.236 154.663 52.4702 154.411 52.4702 154.101V140.599C52.4702 140.288 52.236 140.037 51.9475 140.037Z" fill="#F2A53D"/>
<path d="M118.179 149.881V158.882H116.09V149.881C116.09 149.57 115.856 149.318 115.568 149.318H110.223L114.763 141.169C114.859 140.996 114.861 140.779 114.769 140.603C114.677 140.426 114.502 140.318 114.315 140.318H112.441L116.548 132.909C116.644 132.735 116.646 132.519 116.554 132.343C116.461 132.167 116.287 132.058 116.1 132.058H114.846L117.135 127.128L119.423 132.058H118.17C117.981 132.058 117.808 132.167 117.715 132.343C117.623 132.519 117.625 132.735 117.721 132.909L121.828 140.318H119.955C119.767 140.318 119.593 140.426 119.5 140.603C119.408 140.778 119.41 140.995 119.507 141.169L124.046 149.318H118.701C118.413 149.318 118.179 149.57 118.179 149.881ZM119.224 158.882V150.444H124.968C125.156 150.444 125.33 150.335 125.423 150.158C125.515 149.982 125.513 149.765 125.416 149.591L120.877 141.442H122.749C122.937 141.442 123.11 141.334 123.203 141.157C123.295 140.982 123.294 140.765 123.197 140.591L119.09 133.183H120.268C120.449 133.183 120.617 133.082 120.712 132.916C120.807 132.75 120.815 132.543 120.735 132.369L117.602 125.618C117.425 125.237 116.844 125.237 116.667 125.618L113.533 132.369C113.453 132.543 113.461 132.75 113.557 132.916C113.652 133.082 113.82 133.183 114.001 133.183H115.179L111.072 140.591C110.976 140.765 110.974 140.982 111.066 141.157C111.159 141.334 111.332 141.442 111.52 141.442H113.392L108.853 149.591C108.756 149.765 108.754 149.981 108.846 150.158C108.939 150.335 109.113 150.444 109.301 150.444H115.045V158.882H107.174C107.183 159.257 107.193 159.631 107.205 160.007H115.568H118.701H127.595C127.562 159.632 127.531 159.257 127.503 158.882H119.224Z" fill="#7269A3"/>
<path d="M118.179 149.881V158.882H116.09V149.881C116.09 149.57 115.856 149.318 115.568 149.318H110.223L114.763 141.169C114.859 140.996 114.861 140.779 114.769 140.603C114.677 140.426 114.502 140.318 114.315 140.318H112.441L116.548 132.909C116.644 132.735 116.646 132.519 116.554 132.343C116.461 132.167 116.287 132.058 116.1 132.058H114.846L117.135 127.128L119.423 132.058H118.17C117.981 132.058 117.808 132.167 117.715 132.343C117.623 132.519 117.625 132.735 117.721 132.909L121.828 140.318H119.955C119.767 140.318 119.593 140.426 119.5 140.603C119.408 140.778 119.41 140.995 119.507 141.169L124.046 149.318H118.701C118.413 149.318 118.179 149.57 118.179 149.881Z" fill="#7269A3"/>
<path d="M105.282 158.882H103.716V140.318H105.282V158.882ZM102.912 138.929C102.878 139.018 102.839 139.104 102.801 139.193H100.582H97.9713H95.3597H92.7481H90.1375H87.5259H84.9148H82.3037H80.2143V128.027C82.7252 126.377 85.8198 126.1 88.5471 127.298C90.3557 128.093 91.86 129.456 92.8957 131.237C92.9741 131.372 93.1019 131.465 93.2476 131.493C93.3923 131.521 93.5423 131.481 93.6594 131.383C95.3539 129.964 97.6378 129.623 99.6202 130.494C101.106 131.146 102.266 132.383 102.888 133.976C103.51 135.57 103.519 137.328 102.912 138.929ZM102.671 158.882H101.105V140.318H102.671V158.882ZM100.06 158.882H98.493V140.318H100.06V158.882ZM97.4486 158.882H95.8819V140.318H97.4486V158.882ZM94.8375 158.882H93.2708V140.318H94.8375V158.882ZM92.2263 158.882H90.6597V140.318H92.2263V158.882ZM89.6148 158.882H88.0481V140.318H89.6148V158.882ZM87.0037 158.882H85.437V140.318H87.0037V158.882ZM84.3925 158.882H82.8259V140.318H84.3925V158.882ZM81.7809 158.882H80.2143V140.318H81.7809V158.882ZM65.6448 115.566L46.7616 100.626C46.5782 100.48 46.327 100.48 46.1435 100.626L27.2603 115.566H13.3675H11.8003V114.44H26.7463C26.8576 114.44 26.9665 114.401 27.0556 114.33L46.4523 98.9857L65.85 114.33C65.9391 114.401 66.0475 114.44 66.1588 114.44H81.2592V115.566H79.6925H65.6448ZM79.1703 139.755V158.882H56.3871V157.757C56.3871 157.446 56.1534 157.194 55.8649 157.194H55.3427V156.07C55.3427 155.758 55.1084 155.507 54.8205 155.507H54.0369V139.193H55.3427C55.6307 139.193 55.8649 138.941 55.8649 138.63V136.942C55.8649 136.632 55.6307 136.38 55.3427 136.38H37.064C36.776 136.38 36.5417 136.632 36.5417 136.942V138.63C36.5417 138.941 36.776 139.193 37.064 139.193H38.3698V155.507H37.5862C37.2982 155.507 37.064 155.758 37.064 156.07V157.194H36.5417C36.2533 157.194 36.0195 157.446 36.0195 157.757V158.882H13.8892V139.755V116.691H27.4312C27.5425 116.691 27.6514 116.652 27.7404 116.581L46.4523 101.778L65.1652 116.581C65.2542 116.652 65.3631 116.691 65.474 116.691H79.1703V139.755ZM53.5147 156.632H54.2982V157.194H38.1084V156.632H38.892H53.5147ZM52.9924 155.507H39.4142V139.193H52.9924V155.507ZM38.892 138.068H37.5862V137.505H54.8205V138.068H53.5147H38.892ZM55.3427 158.882H37.064V158.32H37.5862H54.8205H55.3427V158.882ZM29.6352 101.643H41.3308L26.5755 113.315H13.0325L29.6352 101.643ZM63.2704 101.643L79.8721 113.315H66.3297L51.5744 101.643H63.2704ZM12.8448 139.193H10.7559H8.14428H5.53366H2.92207H0.310949H-2.30015H-4.91127H-7.52286H-10.134H-11.1019C-10.6034 136.15 -8.10751 133.849 -5.18713 133.849C-4.65572 133.849 -4.12527 133.925 -3.61128 134.075C-3.46802 134.117 -3.31605 134.092 -3.19166 134.006C-3.06728 133.92 -2.98258 133.781 -2.95838 133.624C-2.2203 128.783 1.62546 125.27 6.18607 125.27C8.69264 125.27 11.1039 126.383 12.8448 128.32V139.193ZM12.8448 158.882H11.2781V140.318H12.8448V158.882ZM10.2337 158.882H8.66699V140.318H10.2337V158.882ZM7.62254 158.882H6.05587V140.318H7.62254V158.882ZM5.01095 158.882H3.44428V140.318H5.01095V158.882ZM2.39984 158.882H0.833176V140.318H2.39984V158.882ZM-0.211275 158.882H-1.77794V140.318H-0.211275V158.882ZM-2.82287 158.882H-4.38953V140.318H-2.82287V158.882ZM-5.43348 158.882H-7.00015V140.318H-5.43348V158.882ZM-8.04508 158.882H-9.61174V140.318H-8.04508V158.882ZM-10.6562 158.882H-12.2229V140.318H-10.6562V158.882ZM106.327 158.882V139.755C106.327 139.445 106.093 139.193 105.805 139.193H103.933C104.584 137.357 104.56 135.357 103.851 133.54C103.121 131.67 101.758 130.219 100.015 129.452C97.8604 128.505 95.4037 128.776 93.4746 130.143C92.3401 128.403 90.7831 127.066 88.942 126.257C86.1001 125.008 82.9023 125.199 80.2143 126.733V116.691H81.7809C82.0694 116.691 82.3037 116.439 82.3037 116.128V113.878C82.3037 113.567 82.0704 113.316 81.7824 113.316L63.7113 100.609C63.6266 100.549 63.5269 100.517 63.4253 100.517H50.1529L46.7616 97.8341C46.5782 97.6881 46.327 97.6881 46.1435 97.8341L42.7527 100.517H29.4794C29.3782 100.517 29.279 100.549 29.1943 100.609L10.9925 113.407C10.978 113.417 10.9703 113.433 10.9567 113.445C10.9277 113.47 10.9025 113.496 10.8793 113.527C10.858 113.554 10.8411 113.582 10.8251 113.613C10.8096 113.644 10.797 113.676 10.7869 113.711C10.7762 113.748 10.7694 113.784 10.7656 113.823C10.7641 113.841 10.7559 113.859 10.7559 113.878V116.128C10.7559 116.439 10.9896 116.691 11.2781 116.691H12.8448V126.782C10.993 125.097 8.62972 124.144 6.18607 124.144C1.2978 124.144 -2.85239 127.772 -3.88474 132.854C-4.31452 132.767 -4.75058 132.724 -5.18713 132.724C-8.67668 132.724 -11.6435 135.526 -12.1541 139.193H-12.7451C-13.0335 139.193 -13.2673 139.445 -13.2673 139.755V158.882H-19.7842L-19.7522 160.008H-12.7451H-10.134H-7.52286H-4.91127H-2.30015H0.310949H2.92207H5.53366H8.14428H10.7559H13.3675H36.5417H55.8649H79.6925H82.3037H84.9148H87.5259H90.1375H92.7481H95.3597H97.9713H100.582H103.193H105.805H107.205C107.193 159.632 107.183 159.258 107.173 158.882H106.327Z" fill="#7269A3"/>
<path d="M12.8448 139.193H10.7559H8.14428H5.53366H2.92207H0.310949H-2.30015H-4.91127H-7.52286H-10.134H-11.1019C-10.6034 136.15 -8.10751 133.849 -5.18713 133.849C-4.65572 133.849 -4.12527 133.925 -3.61128 134.075C-3.46802 134.117 -3.31605 134.092 -3.19166 134.006C-3.06728 133.92 -2.98258 133.781 -2.95838 133.624C-2.2203 128.783 1.62546 125.27 6.18607 125.27C8.69264 125.27 11.1039 126.383 12.8448 128.32V139.193Z" fill="#7269A3"/>
<path d="M102.912 138.929C102.878 139.018 102.839 139.104 102.801 139.193H100.582H97.9713H95.3597H92.7481H90.1375H87.5259H84.9148H82.3037H80.2143V128.027C82.7252 126.377 85.8198 126.1 88.5471 127.298C90.3557 128.093 91.86 129.456 92.8957 131.237C92.9741 131.372 93.1019 131.465 93.2476 131.493C93.3923 131.521 93.5423 131.481 93.6594 131.383C95.3539 129.964 97.6378 129.623 99.6202 130.494C101.106 131.146 102.266 132.383 102.888 133.976C103.51 135.57 103.519 137.328 102.912 138.929Z" fill="#7269A3"/>
<rect width="8.69565" height="13.1677" transform="translate(134.366 91.1799)" fill="#404040"/>
<path d="M130.562 108.75L156.414 96.0928L182.265 108.75V128.58H130.562V108.75Z" fill="#241C4F"/>
<path d="M126.058 111.282L124.492 109.594L156.61 93.5615L188.728 109.383L187.161 111.282L156.61 96.0932L126.058 111.282Z" fill="#241C4F"/>
<path d="M159.547 102.844H153.672V109.172H159.547V102.844Z" fill="#CAC5E8"/>
<path d="M149.363 112.97H143.488V123.096H149.363V112.97Z" fill="#CAC5E8"/>
<path d="M178.348 112.97H172.473V123.096H178.348V112.97Z" fill="#CAC5E8"/>
<path d="M140.747 112.97H134.872V123.096H140.747V112.97Z" fill="#CAC5E8"/>
<path d="M169.731 112.97H163.856V123.096H169.731V112.97Z" fill="#CAC5E8"/>
<path d="M130.563 128.58L127.821 137.862H165.814L182.265 129.846V128.791L130.563 128.58Z" fill="#241C4F"/>
<path d="M130.562 137.862V159.38H170.515V138.074L167.968 139.339L166.598 137.862H130.562Z" fill="#241C4F"/>
<path d="M165.03 143.77H159.155V153.896H165.03V143.77Z" fill="#CAC5E8"/>
<path d="M156.414 143.77H150.539V153.896H156.414V143.77Z" fill="#CAC5E8"/>
<rect width="7.95031" height="14.7826" transform="translate(138.093 144.348)" fill="#F2A53D"/>
<path d="M140.355 153.136V150.436C140.355 150.249 140.18 150.098 139.963 150.098C139.746 150.098 139.571 150.249 139.571 150.436V153.136C139.571 153.322 139.746 153.474 139.963 153.474C140.18 153.474 140.355 153.322 140.355 153.136Z" fill="#404040"/>
<path d="M206.941 159.38H170.906V137.862L188.924 129.002L206.941 138.073V159.38Z" fill="#241C4F"/>
<path d="M201.849 143.769H175.606V159.38H201.849V143.769Z" fill="#CAC5E8"/>
<path d="M167.969 139.339L166.402 137.651L188.924 126.471L211.446 137.651L209.879 139.339L188.924 129.002L167.969 139.339Z" fill="#241C4F"/>
<path opacity="0.5" d="M155.803 145.582H150.842V144.457H155.803V145.582ZM150.842 146.707H155.803V153.458H150.842V146.707ZM150.319 154.583H156.325C156.613 154.583 156.847 154.331 156.847 154.02V143.894C156.847 143.583 156.613 143.332 156.325 143.332H150.319C150.03 143.332 149.797 143.583 149.797 143.894V154.02C149.797 154.331 150.03 154.583 150.319 154.583Z" fill="#CAC5E8"/>
<path opacity="0.5" d="M164.419 145.582H159.458V144.457H164.419V145.582ZM159.458 146.707H164.42V153.458H159.458V146.707ZM158.936 154.583H164.942C165.231 154.583 165.464 154.331 165.464 154.02V143.894C165.464 143.583 165.231 143.332 164.942 143.332H158.936C158.647 143.332 158.414 143.583 158.414 143.894V154.02C158.414 154.331 158.647 154.583 158.936 154.583Z" fill="#CAC5E8"/>
<path opacity="0.5" d="M140.266 114.641H135.305V113.516H140.266V114.641ZM135.305 115.766H140.266V122.517H135.305V115.766ZM134.782 123.642H140.789C141.077 123.642 141.31 123.39 141.31 123.079V112.953C141.31 112.642 141.077 112.391 140.789 112.391H134.782C134.494 112.391 134.26 112.642 134.26 112.953V123.079C134.26 123.39 134.494 123.642 134.782 123.642Z" fill="#CAC5E8"/>
<path opacity="0.5" d="M148.883 114.641H143.922V113.516H148.883V114.641ZM143.922 115.766H148.883V122.517H143.922V115.766ZM143.399 123.642H149.405C149.693 123.642 149.928 123.39 149.928 123.079V112.953C149.928 112.642 149.693 112.391 149.405 112.391H143.399C143.111 112.391 142.877 112.642 142.877 112.953V123.079C142.877 123.39 143.111 123.642 143.399 123.642Z" fill="#CAC5E8"/>
<path opacity="0.5" d="M177.824 114.641H172.862V113.516H177.824V114.641ZM172.862 115.766H177.824V122.517H172.862V115.766ZM172.34 123.642H178.346C178.635 123.642 178.868 123.39 178.868 123.079V112.953C178.868 112.642 178.635 112.391 178.346 112.391H172.34C172.051 112.391 171.818 112.642 171.818 112.953V123.079C171.818 123.39 172.051 123.642 172.34 123.642Z" fill="#CAC5E8"/>
<path opacity="0.5" d="M169.207 114.641H164.246V113.516H169.207V114.641ZM164.246 115.766H169.207V122.517H164.246V115.766ZM163.723 123.642H169.729C170.018 123.642 170.251 123.39 170.251 123.079V112.953C170.251 112.642 170.018 112.391 169.729 112.391H163.723C163.434 112.391 163.201 112.642 163.201 112.953V123.079C163.201 123.39 163.434 123.642 163.723 123.642Z" fill="#CAC5E8"/>
<path opacity="0.5" d="M154.083 103.39H159.044V108.735H154.083V103.39ZM153.561 109.859H159.567C159.855 109.859 160.088 109.607 160.088 109.297V102.828C160.088 102.516 159.855 102.265 159.567 102.265H153.561C153.272 102.265 153.039 102.516 153.039 102.828V109.297C153.039 109.607 153.272 109.859 153.561 109.859Z" fill="#CAC5E8"/>
<path d="M190.95 155.895H186.772C186.483 155.895 186.25 156.147 186.25 156.458C186.25 156.769 186.483 157.02 186.772 157.02H190.95C191.239 157.02 191.472 156.769 191.472 156.458C191.472 156.147 191.239 155.895 190.95 155.895Z" fill="#404040"/>
<path fill-rule="evenodd" clip-rule="evenodd" d="M207.505 158.802V138.866L209.625 139.918C209.695 139.951 209.769 139.969 209.844 139.969C209.979 139.969 210.112 139.912 210.213 139.804L211.822 138.071C211.942 137.941 211.997 137.755 211.967 137.575C211.936 137.393 211.826 137.239 211.671 137.162L189.052 125.944C188.914 125.875 188.755 125.875 188.616 125.944L182.698 128.88V109.673L186.912 111.762C186.981 111.797 187.056 111.815 187.13 111.815C187.266 111.815 187.399 111.757 187.499 111.649L189.108 109.916C189.229 109.786 189.283 109.6 189.253 109.419C189.223 109.239 189.113 109.084 188.957 109.008L156.782 93.0498C156.644 92.9804 156.484 92.9804 156.345 93.0498L143.138 99.6005V93.592H143.399C143.688 93.592 143.922 93.3407 143.922 93.0294V90.7793C143.922 90.4681 143.688 90.2168 143.399 90.2168H133.999C133.71 90.2168 133.477 90.4681 133.477 90.7793V93.0294C133.477 93.3407 133.71 93.592 133.999 93.592H134.26V104.004L124.171 109.008C124.016 109.084 123.905 109.239 123.876 109.419C123.845 109.6 123.899 109.786 124.02 109.916L125.629 111.649C125.783 111.816 126.017 111.861 126.217 111.762L129.952 109.911V128.622L127.362 137.824C127.315 137.995 127.344 138.179 127.443 138.322C127.541 138.466 127.697 138.55 127.863 138.55H129.952V158.802H127.112C127.139 159.178 127.17 159.552 127.203 159.927H130.474H138.308H145.88H170.686H175.778H201.89H206.982H213.992V158.802H207.505ZM189.052 128.476L207.201 137.477L207.202 137.477L209.732 138.732L210.553 137.846L188.834 127.074L167.116 137.846L167.937 138.732L170.466 137.477C170.467 137.477 170.468 137.477 170.468 137.477L170.483 137.469L170.483 137.468L188.616 128.476C188.755 128.406 188.914 128.406 189.052 128.476ZM202.413 158.802H206.46V138.348L188.834 129.606L171.209 138.348V158.802H175.256V143.894C175.256 143.583 175.489 143.331 175.778 143.331H201.89C202.179 143.331 202.413 143.583 202.413 143.894V158.802ZM176.301 158.802H201.368V144.457H176.301V158.802ZM146.402 158.802H170.164V138.866L168.044 139.918C167.846 140.016 167.611 139.971 167.456 139.804L166.292 138.55H130.996V158.802H137.785V143.894C137.785 143.583 138.019 143.331 138.308 143.331H145.88C146.169 143.331 146.402 143.583 146.402 143.894V158.802ZM138.83 158.802H145.358V144.457H138.83V158.802ZM130.861 129.268L128.566 137.425H165.75C165.802 137.31 165.888 137.217 165.998 137.162L181.654 129.398V129.268H130.861ZM181.654 128.143V109.155L156.564 96.7112L130.996 109.392V128.143H181.654ZM125.288 109.691L126.11 110.577L130.199 108.549C130.24 108.521 130.282 108.499 130.329 108.485L156.345 95.5809C156.415 95.547 156.49 95.5298 156.564 95.5298C156.638 95.5298 156.713 95.547 156.782 95.5809L187.018 110.577L187.839 109.691L156.564 94.1801L125.288 109.691ZM142.094 100.118V93.592H135.305V103.486L142.094 100.118ZM142.877 91.3419H134.521V92.4669H134.782H142.616H142.877V91.3419Z" fill="#7269A3"/>
<path d="M312.696 114.205H250.811L242.389 137.832L262.169 138.043L281.753 126.229L300.946 137.832H321.118L312.696 114.205Z" fill="#241C4F"/>
<path d="M262.561 133.614H253.16V124.542L257.861 121.378L262.561 124.331V133.614Z" fill="#CAC5E8"/>
<path d="M310.346 133.614H300.945V124.542L305.646 121.378L310.346 124.331V133.614Z" fill="#CAC5E8"/>
<path d="M252.181 125.175L251.006 123.065L258.056 118.424L265.107 123.065L263.932 125.175L258.056 121.377L252.181 125.175Z" fill="#241C4F"/>
<path d="M299.575 125.175L298.4 123.065L305.45 118.424L312.5 123.065L311.325 125.175L305.45 121.377L299.575 125.175Z" fill="#241C4F"/>
<path d="M263.344 110.408H257.861V114.206H263.344V110.408Z" fill="#404040"/>
<path d="M305.646 110.408H300.162V114.206H305.646V110.408Z" fill="#404040"/>
<path d="M264.127 108.721H257.077V110.408H264.127V108.721Z" fill="#404040"/>
<path d="M306.429 108.721H299.379V110.408H306.429V108.721Z" fill="#404040"/>
<path d="M263.931 140.786L262.365 138.043L281.753 126.229L301.141 137.833L299.77 140.786L281.753 130.027L263.931 140.786Z" fill="#241C4F"/>
<path d="M246.501 159.351V138.044H262.365L263.932 140.787L268.828 138.044V159.351H246.501Z" fill="#241C4F"/>
<path d="M317.005 159.351V138.044H301.141L299.575 140.787L294.679 138.044V159.351H317.005Z" fill="#241C4F"/>
<path d="M255.902 144.161H250.418V154.287H255.902V144.161Z" fill="#CAC5E8"/>
<path d="M304.471 144.161H298.987V154.287H304.471V144.161Z" fill="#CAC5E8"/>
<path d="M264.519 144.161H259.036V154.287H264.519V144.161Z" fill="#CAC5E8"/>
<path d="M313.088 144.161H307.604V154.287H313.088V144.161Z" fill="#CAC5E8"/>
<path d="M294.875 159.351H268.632V138.255L281.753 130.238L294.875 138.044V159.351Z" fill="#241C4F"/>
<path d="M285.67 144.161H277.836V159.35H285.67V144.161Z" fill="#F2A53D"/>
<path d="M279.795 153.106V150.406C279.795 150.219 279.619 150.068 279.403 150.068C279.187 150.068 279.011 150.219 279.011 150.406V153.106C279.011 153.292 279.187 153.443 279.403 153.443C279.619 153.443 279.795 153.292 279.795 153.106Z" fill="#404040"/>
<path opacity="0.5" d="M263.649 124.462L262.948 124.001C262.94 123.993 262.933 123.982 262.921 123.976L258.221 120.881C258.197 120.866 258.17 120.857 258.147 120.846C258.017 120.79 257.88 120.79 257.751 120.846C257.727 120.857 257.7 120.866 257.676 120.881L252.976 123.976C252.964 123.981 252.956 123.992 252.948 124L252.248 124.462L251.566 123.262L257.951 119.055L264.331 123.262L263.649 124.462ZM262.126 133.175H253.771V124.776L257.951 122.021L262.126 124.776V133.175ZM265.322 122.596L258.221 117.915C258.052 117.804 257.845 117.804 257.676 117.915L250.575 122.596C250.328 122.758 250.254 123.104 250.403 123.369L251.629 125.529C251.699 125.656 251.816 125.748 251.95 125.783C251.993 125.793 252.032 125.798 252.075 125.798C252.169 125.798 252.263 125.77 252.345 125.715L252.725 125.465V133.737C252.725 134.048 252.961 134.3 253.25 134.3H262.651C262.937 134.3 263.172 134.048 263.172 133.737V125.465L263.552 125.715C263.669 125.793 263.81 125.817 263.943 125.783C264.08 125.748 264.198 125.656 264.268 125.529L265.494 123.369C265.643 123.104 265.569 122.758 265.322 122.596Z" fill="#CAC5E8"/>
<path opacity="0.5" d="M311.854 123.262L311.172 124.463L310.475 124.001C310.463 123.993 310.456 123.982 310.444 123.976L305.744 120.881C305.72 120.866 305.697 120.857 305.669 120.846C305.544 120.789 305.403 120.789 305.274 120.846C305.25 120.857 305.223 120.866 305.199 120.881L300.499 123.976C300.491 123.982 300.483 123.992 300.471 124L299.77 124.463L299.089 123.262L305.474 119.054L311.854 123.262ZM309.649 133.175H301.294V124.776L305.474 122.021L309.649 124.776V133.175ZM305.199 117.915L298.098 122.596C297.855 122.758 297.777 123.104 297.926 123.369L299.152 125.529C299.226 125.656 299.339 125.748 299.476 125.783C299.516 125.793 299.559 125.798 299.598 125.798C299.692 125.798 299.786 125.771 299.872 125.715L300.248 125.466V133.738C300.248 134.049 300.483 134.3 300.773 134.3H310.174C310.463 134.3 310.694 134.049 310.694 133.738V125.466L311.074 125.715C311.192 125.793 311.333 125.817 311.47 125.783C311.603 125.748 311.721 125.656 311.791 125.529L313.017 123.369C313.17 123.104 313.091 122.758 312.845 122.596L305.747 117.915C305.575 117.804 305.368 117.804 305.199 117.915Z" fill="#CAC5E8"/>
<path opacity="0.5" d="M255.338 153.709H251.159V144.708H255.338V153.709ZM255.859 143.583H250.637C250.348 143.583 250.117 143.835 250.117 144.146V154.272C250.117 154.582 250.348 154.834 250.637 154.834H255.859C256.149 154.834 256.384 154.582 256.384 154.272V144.146C256.384 143.835 256.149 143.583 255.859 143.583Z" fill="#CAC5E8"/>
<path opacity="0.5" d="M263.692 153.709H259.517V144.708H263.692V153.709ZM264.217 143.583H258.992C258.703 143.583 258.471 143.835 258.471 144.146V154.272C258.471 154.582 258.703 154.834 258.992 154.834H264.217C264.503 154.834 264.738 154.582 264.738 154.272V144.146C264.738 143.835 264.503 143.583 264.217 143.583Z" fill="#CAC5E8"/>
<path opacity="0.5" d="M312.262 153.709H308.086V144.708H312.262V153.709ZM312.786 143.583H307.561C307.271 143.583 307.04 143.835 307.04 144.146V154.272C307.04 154.582 307.271 154.834 307.561 154.834H312.786C313.072 154.834 313.307 154.582 313.307 154.272V144.146C313.307 143.835 313.072 143.583 312.786 143.583Z" fill="#CAC5E8"/>
<path opacity="0.5" d="M303.907 153.709H299.727V144.708H303.907V153.709ZM304.428 143.583H299.207C298.917 143.583 298.686 143.835 298.686 144.146V154.272C298.686 154.582 298.917 154.834 299.207 154.834H304.428C304.718 154.834 304.952 154.582 304.952 154.272V144.146C304.952 143.835 304.718 143.583 304.428 143.583Z" fill="#CAC5E8"/>
<path d="M301.329 137.395L281.965 125.722C281.808 125.625 281.612 125.627 281.455 125.723L262.138 137.395H243.039L244.692 132.718L250.998 114.893H253.348H257.951H263.172H300.252H305.474H312.426L320.381 137.395H301.329ZM316.441 158.772H295.29V138.912L299.422 141.404C299.676 141.554 299.994 141.458 300.135 141.187L301.521 138.52H316.441V158.772ZM281.965 129.59C281.808 129.494 281.612 129.495 281.455 129.591L281.185 129.755L268.401 137.467C268.381 137.477 268.369 137.496 268.354 137.508L263.979 140.152L262.96 138.189L281.71 126.858L300.499 138.183L299.477 140.147L281.965 129.59ZM294.244 158.772H286.152V144.145C286.152 143.835 285.917 143.583 285.627 143.583H277.793C277.507 143.583 277.272 143.835 277.272 144.145V158.772H269.176V138.302L281.71 130.726L294.244 138.287V158.772ZM285.106 158.772H278.318V144.708H285.106V158.772ZM268.134 158.772H246.983V138.52H261.934L263.324 141.193C263.391 141.324 263.505 141.42 263.638 141.461C263.685 141.474 263.732 141.482 263.779 141.482C263.869 141.482 263.955 141.457 264.033 141.41L268.134 138.932V158.772ZM238.993 130.663C238.852 130.582 238.683 130.576 238.535 130.648C238.386 130.72 238.28 130.86 238.241 131.029C235.491 143.315 235.627 155.933 235.699 158.772H234.398C234.408 158.364 234.427 157.751 234.459 156.963C234.46 156.943 234.459 156.923 234.458 156.903C234.444 148.101 230.149 140.986 229.475 139.923C229.442 139.817 229.378 139.719 229.287 139.648C229.062 139.472 228.75 139.516 228.574 139.748C227.085 141.718 224.882 142.848 222.529 142.848C218.325 142.848 214.834 139.163 214.745 134.632C214.741 134.442 214.647 134.265 214.497 134.165C212.819 133.052 211.816 131.127 211.816 129.015C211.816 125.681 214.335 122.967 217.432 122.967C219.369 122.967 221.143 124.027 222.181 125.802C222.276 125.964 222.44 126.062 222.618 126.065C226.866 126.116 230.322 129.88 230.322 134.453C230.322 135.78 230.036 137.057 229.472 138.251C229.346 138.517 229.436 138.844 229.677 138.993C229.706 139.012 229.737 139.026 229.767 139.038C230.293 139.734 232.015 142.305 233.992 148.3C234.025 148.554 234.216 148.758 234.463 148.782C234.754 148.809 235.001 148.584 235.029 148.275C235.628 141.594 236.534 135.526 237.722 130.241C237.771 130.023 237.695 129.796 237.53 129.661C235.742 128.198 234.409 126.121 233.778 123.812C233.707 123.554 233.473 123.389 233.226 123.412C233.044 123.431 232.861 123.442 232.675 123.442C229.689 123.442 227.258 120.824 227.258 117.606C227.258 117.452 227.269 117.301 227.28 117.15C227.296 116.943 227.203 116.743 227.041 116.631C224.326 114.763 222.705 111.578 222.705 108.117C222.705 102.547 226.911 98.0157 232.082 98.0157C235.047 98.0157 237.776 99.4807 239.565 102.033C239.663 102.168 239.804 102.25 239.96 102.256C240.117 102.27 240.27 102.195 240.372 102.069C241.555 100.645 243.239 99.8289 245.001 99.8289C248.425 99.8289 251.21 102.829 251.21 106.517C251.21 107.978 250.771 109.371 249.948 110.544C249.862 110.665 249.827 110.818 249.847 110.967C249.87 111.118 249.944 111.252 250.058 111.341C250.94 112.021 251.707 112.838 252.357 113.767H250.637C250.422 113.767 250.227 113.911 250.148 114.13L243.838 131.969C242.154 131.957 240.478 131.507 238.993 130.663ZM262.651 113.767H258.471V110.954H262.651V113.767ZM257.425 109.267H263.693V109.829H263.172H257.951H257.425V109.267ZM304.952 113.767H300.773V110.954H304.952V113.767ZM299.727 109.267H305.994V109.829H305.474H300.252H299.727V109.267ZM317.486 158.772V138.52H321.141C321.204 138.52 321.266 138.508 321.325 138.484C321.329 138.482 321.333 138.479 321.333 138.478C321.372 138.461 321.407 138.432 321.438 138.406C321.462 138.39 321.485 138.378 321.505 138.358C321.529 138.333 321.544 138.299 321.564 138.269C321.584 138.24 321.603 138.214 321.619 138.182C321.631 138.156 321.631 138.125 321.638 138.097C321.646 138.054 321.662 138.012 321.662 137.967C321.662 137.963 321.662 137.961 321.662 137.957C321.662 137.921 321.65 137.891 321.642 137.857C321.638 137.824 321.642 137.79 321.627 137.757L313.272 114.13C313.198 113.911 313.002 113.767 312.786 113.767H305.994V110.954H306.519C306.805 110.954 307.04 110.703 307.04 110.392V108.704C307.04 108.394 306.805 108.142 306.519 108.142H299.207C298.917 108.142 298.686 108.394 298.686 108.704V110.392C298.686 110.703 298.917 110.954 299.207 110.954H299.727V113.767H263.693V110.954H264.217C264.503 110.954 264.738 110.703 264.738 110.392V108.704C264.738 108.394 264.503 108.142 264.217 108.142H256.905C256.615 108.142 256.384 108.394 256.384 108.704V110.392C256.384 110.703 256.615 110.954 256.905 110.954H257.425V113.767H253.622C252.925 112.618 252.079 111.604 251.08 110.761C251.852 109.493 252.252 108.036 252.252 106.517C252.252 102.208 249.001 98.7039 245.001 98.7039C243.145 98.7039 241.363 99.4775 240.019 100.845C238.037 98.3238 235.175 96.8906 232.082 96.8906C226.335 96.8906 221.66 101.927 221.66 108.117C221.66 111.853 223.359 115.296 226.219 117.395C226.216 117.464 226.214 117.535 226.214 117.606C226.214 121.444 229.113 124.567 232.675 124.567C232.751 124.567 232.827 124.565 232.903 124.562C233.602 126.81 234.91 128.833 236.629 130.329C235.61 134.934 234.803 140.112 234.221 145.757C232.545 141.206 231.134 139.069 230.589 138.344C231.105 137.111 231.367 135.805 231.367 134.453C231.367 129.367 227.598 125.165 222.909 124.948C221.662 122.997 219.635 121.842 217.432 121.842C213.759 121.842 210.771 125.06 210.771 129.015C210.771 131.419 211.865 133.618 213.712 134.958C213.957 139.957 217.855 143.973 222.529 143.973C224.955 143.973 227.239 142.915 228.903 141.044C230.032 142.981 233.414 149.412 233.414 156.947V156.952C233.382 157.752 233.364 158.366 233.353 158.772H213.992V159.897H233.863H236.239H241.48C241.504 159.522 241.527 159.146 241.547 158.772H236.744C236.674 156.126 236.525 143.983 239.107 131.976C240.466 132.642 241.946 133.019 243.446 133.083L241.794 137.757C241.782 137.79 241.782 137.825 241.778 137.857C241.77 137.891 241.758 137.921 241.758 137.957C241.758 137.961 241.762 137.963 241.762 137.967C241.762 138.013 241.774 138.055 241.786 138.098C241.794 138.126 241.794 138.156 241.805 138.182C241.817 138.214 241.841 138.24 241.86 138.269C241.876 138.299 241.891 138.333 241.915 138.358C241.934 138.378 241.962 138.39 241.981 138.406C242.017 138.432 242.048 138.461 242.087 138.478C242.091 138.479 242.091 138.482 242.095 138.484C242.158 138.508 242.22 138.52 242.283 138.52H245.937V158.772H241.547C241.527 159.146 241.504 159.522 241.48 159.897H246.458H268.655H277.793H285.627H294.769H316.962H326.797V158.772H317.486Z" fill="#7269A3"/>
<path d="M238.993 130.663C238.852 130.582 238.683 130.576 238.535 130.648C238.386 130.72 238.28 130.86 238.241 131.029C235.491 143.315 235.627 155.933 235.699 158.772H234.398C234.408 158.364 234.427 157.751 234.459 156.963C234.46 156.943 234.459 156.923 234.458 156.903C234.444 148.101 230.149 140.986 229.475 139.923C229.442 139.817 229.378 139.719 229.287 139.648C229.062 139.472 228.75 139.516 228.574 139.748C227.085 141.718 224.882 142.848 222.529 142.848C218.325 142.848 214.834 139.163 214.745 134.632C214.741 134.442 214.647 134.265 214.497 134.165C212.819 133.052 211.816 131.127 211.816 129.015C211.816 125.681 214.335 122.967 217.432 122.967C219.369 122.967 221.143 124.027 222.181 125.802C222.276 125.964 222.44 126.062 222.618 126.065C226.866 126.116 230.322 129.88 230.322 134.453C230.322 135.78 230.036 137.057 229.472 138.251C229.346 138.517 229.436 138.844 229.677 138.993C229.706 139.012 229.737 139.026 229.767 139.038C230.293 139.734 232.015 142.305 233.992 148.3C234.025 148.554 234.216 148.758 234.463 148.782C234.754 148.809 235.001 148.584 235.029 148.275C235.628 141.594 236.534 135.526 237.722 130.241C237.771 130.023 237.695 129.796 237.53 129.661C235.742 128.198 234.409 126.121 233.778 123.812C233.707 123.554 233.473 123.389 233.226 123.412C233.044 123.431 232.861 123.442 232.675 123.442C229.689 123.442 227.258 120.824 227.258 117.606C227.258 117.452 227.269 117.301 227.28 117.15C227.296 116.943 227.203 116.743 227.041 116.631C224.326 114.763 222.705 111.578 222.705 108.117C222.705 102.547 226.911 98.0157 232.082 98.0157C235.047 98.0157 237.776 99.4807 239.565 102.033C239.663 102.168 239.804 102.25 239.96 102.256C240.117 102.27 240.27 102.195 240.372 102.069C241.555 100.645 243.239 99.8289 245.001 99.8289C248.425 99.8289 251.21 102.829 251.21 106.517C251.21 107.978 250.771 109.371 249.948 110.544C249.862 110.665 249.827 110.818 249.847 110.967C249.87 111.118 249.944 111.252 250.058 111.341C250.94 112.021 251.707 112.838 252.357 113.767H250.637C250.422 113.767 250.227 113.911 250.148 114.13L243.838 131.969C242.154 131.957 240.478 131.507 238.993 130.663Z" fill="#7269A3"/>
</g>
<defs>
<clipPath id="clip0_5711_10669">
<rect width="311" height="160" fill="white"/>
</clipPath>
</defs>
</svg>
