<svg width="22" height="24" viewBox="0 0 22 24" fill="none" xmlns="http://www.w3.org/2000/svg">
<mask id="mask0_806_12766" style="mask-type:alpha" maskUnits="userSpaceOnUse" x="7" y="8" width="15" height="16">
<rect x="7.64355" y="8.75635" width="13.8532" height="13.8532" fill="currentColor" stroke="currentColor"/>
</mask>
<g mask="url(#mask0_806_12766)">
<path d="M13.8617 20.0149V20.1649H14.0117H15.0948H15.2448V20.0149V19.3645C15.7322 19.2586 16.1588 19.0554 16.5214 18.7531C16.9355 18.4081 17.1324 17.9015 17.1324 17.2609C17.1324 16.7971 16.9992 16.3704 16.7348 15.9847C16.4601 15.5841 15.9281 15.256 15.1767 14.9847L15.1767 14.9846L15.1732 14.9834C14.5548 14.7773 14.1431 14.6018 13.9235 14.4586C13.7258 14.3297 13.6357 14.164 13.6357 13.9499C13.6357 13.7222 13.7142 13.5554 13.8664 13.432C14.0205 13.3071 14.2574 13.2334 14.5997 13.2334C14.9064 13.2334 15.1252 13.3075 15.2754 13.4369C15.4405 13.5791 15.5598 13.7552 15.6339 13.9682L15.6857 14.1173L15.832 14.0579L16.8222 13.6556L16.9503 13.6036L16.9089 13.4717C16.7866 13.0827 16.5616 12.7452 16.2383 12.4603C15.9493 12.2056 15.6279 12.0476 15.2757 11.9913V11.3505V11.2005H15.1257H14.0427H13.8927V11.3505V12.0059C13.4056 12.133 13.0121 12.3653 12.7215 12.7079C12.411 13.0737 12.2526 13.4893 12.2526 13.9499C12.2526 14.4658 12.4046 14.8971 12.7193 15.229C13.0257 15.5521 13.4964 15.82 14.1156 16.0405C14.7639 16.2772 15.1973 16.4826 15.4315 16.6546C15.6479 16.8136 15.7493 17.0121 15.7493 17.2609C15.7493 17.5609 15.6457 17.7591 15.4531 17.8861C15.2392 18.0272 14.9777 18.1011 14.6616 18.1011C14.355 18.1011 14.0866 18.0069 13.8504 17.817C13.6177 17.6299 13.438 17.3426 13.3202 16.9403L13.2741 16.7826L13.1213 16.8428L12.1001 17.2451L11.9728 17.2953L12.0111 17.4267C12.1611 17.9412 12.3967 18.3645 12.722 18.6898C13.0238 18.9916 13.4056 19.203 13.8617 19.3271V20.0149ZM12.0956 21.5219C12.8682 21.8553 13.6931 22.0216 14.5687 22.0216C15.4444 22.0216 16.2692 21.8553 17.0418 21.5219C17.8115 21.1898 18.4825 20.7384 19.0534 20.1674C19.6244 19.5965 20.0758 18.9255 20.4079 18.1558C20.7413 17.3833 20.9076 16.5584 20.9076 15.6827C20.9076 14.8071 20.7413 13.9822 20.4079 13.2097C20.0758 12.44 19.6244 11.769 19.0534 11.1981C18.4825 10.6271 17.8115 10.1757 17.0418 9.84354C16.2692 9.51018 15.4444 9.3439 14.5687 9.3439C13.6931 9.3439 12.8682 9.51018 12.0956 9.84354C11.326 10.1757 10.655 10.6271 10.0841 11.1981C9.5131 11.769 9.06164 12.44 8.72953 13.2097C8.39616 13.9822 8.22988 14.8071 8.22988 15.6827C8.22988 16.5584 8.39616 17.3833 8.72953 18.1558C9.06164 18.9255 9.5131 19.5965 10.0841 20.1674C10.655 20.7384 11.326 21.1898 12.0956 21.5219ZM17.9748 19.0888C17.0443 20.0194 15.912 20.4838 14.5687 20.4838C13.2255 20.4838 12.0932 20.0194 11.1626 19.0888C10.2321 18.1583 9.76765 17.026 9.76765 15.6827C9.76765 14.3395 10.2321 13.2072 11.1626 12.2766C12.0932 11.3461 13.2255 10.8817 14.5687 10.8817C15.912 10.8817 17.0443 11.3461 17.9748 12.2766C18.9054 13.2072 19.3698 14.3395 19.3698 15.6827C19.3698 17.026 18.9054 18.1583 17.9748 19.0888Z" fill="currentColor" stroke="currentColor" stroke-width="0.3"/>
</g>
<path d="M17.2455 8.93557C16.9085 8.83006 16.5627 8.75072 16.2082 8.69755C15.852 8.64412 15.487 8.61712 15.1133 8.61653V7.55039H15.1216L15.1083 7.54039L8.63652 2.68657L8.62902 2.68094L8.62152 2.68657L2.14975 7.54039L2.14475 7.53372V7.55039V17.258V17.2705H2.15725H7.62045C7.67447 17.6449 7.75498 18.0105 7.86201 18.3672C7.96817 18.7211 8.10042 19.0663 8.25874 19.4028H0.0125V6.47801L8.62902 0.0156248L17.2455 6.47801V8.93557Z" fill="currentColor" stroke="currentColor" stroke-width="0.025"/>
</svg>
