<svg width="21" height="21" viewBox="0 0 21 21" fill="none" xmlns="http://www.w3.org/2000/svg">
<path d="M0.527778 19.7258V1.575C0.527778 1.32723 0.618891 1.092 0.850772 0.853673C1.07474 0.623483 1.309 0.527778 1.575 0.527778H19.425C19.6679 0.527778 19.9016 0.619239 20.1412 0.85882C20.3808 1.0984 20.4722 1.33211 20.4722 1.575V15.225C20.4722 15.4679 20.3808 15.7016 20.1412 15.9412C19.9016 16.1808 19.6679 16.2722 19.425 16.2722H4.2H3.98139L3.8268 16.4268L0.527778 19.7258ZM1.38131 17.1938V18.8491L2.33946 17.4992L3.81634 15.4187H19.0909H19.6187V14.8909V1.90909V1.38131H19.0909H1.90909H1.38131V1.90909V17.1938Z" fill="currentColor" stroke="currentColor" stroke-width="1.05556"/>
<path d="M10.7532 10.3462L10.7029 10.3187L10.6525 10.3459L8.61416 11.4471L9.15516 9.3783L9.17268 9.3113L9.1182 9.26855L7.35136 7.88228L9.69255 7.69657L9.75359 7.69173L9.77969 7.63634L10.7024 5.67811L11.6255 7.64906L11.6516 7.70466L11.7128 7.70951L14.054 7.89522L12.2871 9.28149L12.2326 9.32424L12.2502 9.39124L12.7908 11.4586L10.7532 10.3462ZM7.05731 13.2471L6.99711 13.4819L7.21002 13.366L10.7027 11.465L14.1953 13.366L14.4082 13.4819L14.348 13.2471L13.4328 9.67696L16.5055 7.27325L16.7192 7.10607L16.4487 7.08488L12.3788 6.7661L10.7983 3.39187L10.7027 3.1878L10.6071 3.39187L9.02656 6.7661L4.9566 7.08488L4.68609 7.10607L4.89981 7.27325L7.97257 9.67696L7.05731 13.2471Z" fill="currentColor" stroke="currentColor" stroke-width="0.211111"/>
</svg>
