<svg width="52" height="39" viewBox="0 0 52 39" xmlns="http://www.w3.org/2000/svg">
<path fill-rule="evenodd" clip-rule="evenodd" d="M48.8138 11.8274V27.8854C50.3361 29.2271 51.2 31.1288 51.2 33.1788V37.8699C51.2 38.4241 50.7507 38.8733 50.1966 38.8733H25.8321C25.7575 38.8911 25.6801 38.9014 25.6 38.9014H1.0034C0.4492 38.9014 0 38.4522 0 37.898V33.2069C0 29.3111 3.1695 26.1416 7.0653 26.1417H10.2885V23.9031C9.4063 23.5249 8.5948 22.9796 7.8954 22.2808C6.5204 20.9058 5.7354 19.0997 5.6627 17.1678H5.5441C3.8028 17.1678 2.3862 15.7512 2.3862 14.0099C2.3862 13.1651 2.7151 12.3718 3.3123 11.7762C3.5781 11.5096 3.885 11.2983 4.2196 11.1439V10.9845C4.2196 7.76344 5.95 4.75524 8.7357 3.13314L8.7367 3.13254C10.1177 2.32784 11.6963 1.90234 13.302 1.90234C18.3099 1.90234 22.3842 5.97664 22.3842 10.9845V11.1423C22.7178 11.2967 23.0251 11.5102 23.2923 11.7781C23.8876 12.3718 24.2164 13.1651 24.2164 14.0099C24.2164 15.7511 22.7998 17.1678 21.0585 17.1678H20.9396C20.8246 20.1879 18.9508 22.7647 16.3141 23.8995V26.1416H19.5382C22.0968 26.1416 24.3462 27.5152 25.5863 29.5631C25.9569 28.9422 26.4257 28.3764 26.9828 27.8854V11.8274V10.9223C26.9828 4.90354 31.8795 0.00683594 37.8983 0.00683594C43.9171 0.00683594 48.8138 4.90354 48.8138 10.9223V11.8274ZM21.0584 12.8589H20.947V15.1609H21.0584C21.6931 15.1609 22.2094 14.6446 22.2094 14.0099C22.2094 13.7021 22.0898 13.4135 21.873 13.1972C21.6548 12.9783 21.3662 12.8589 21.0584 12.8589ZM5.6554 15.1609H5.544C4.9094 15.1609 4.393 14.6446 4.393 14.0099C4.393 13.7021 4.5124 13.4135 4.7315 13.1951C4.8838 13.0424 5.0712 12.938 5.278 12.8898C5.4034 12.889 5.5294 12.8855 5.6554 12.8791V15.1609ZM20.367 10.6047C20.169 6.87924 17.0757 3.90924 13.3017 3.90924C12.3034 3.90924 11.3191 4.11994 10.4164 4.52344C10.7849 5.71104 11.4053 6.81594 12.2342 7.75294C13.9106 9.64794 16.3215 10.7347 18.8489 10.7347C19.1817 10.7347 19.5117 10.7162 19.8297 10.6799L19.8355 10.6793C20.0129 10.6601 20.1903 10.6352 20.367 10.6047ZM6.3988 10.7753L6.3824 10.7784C6.33126 10.7879 6.2801 10.7974 6.2287 10.8054C6.2798 8.80594 7.1852 6.92664 8.6752 5.63384C9.0465 6.64614 9.5687 7.60104 10.2234 8.46224C9.2998 9.62774 7.9886 10.4451 6.5305 10.7489C6.4856 10.7547 6.4417 10.7637 6.3988 10.7753ZM7.6623 16.8737C7.6623 18.38 8.2489 19.7961 9.3141 20.8611C10.3794 21.9256 11.7956 22.5119 13.3016 22.5119C16.4106 22.5119 18.94 19.9825 18.94 16.8735V16.1641V12.7401L18.9024 12.7407H18.9023C18.8845 12.7411 18.8666 12.7414 18.8487 12.7414C16.1578 12.7414 13.5749 11.7372 11.5946 9.95314C10.5566 11.1655 9.1881 12.0643 7.6623 12.5293V16.1643V16.8737ZM14.3072 24.519V26.1416H12.2953V24.519H14.3072ZM2.0069 33.2069V36.8946H24.5965H24.5966V33.1833C24.5841 30.4072 22.3148 28.1485 19.5382 28.1485H7.0653C4.2761 28.1485 2.0069 30.4177 2.0069 33.2069ZM37.8983 22.485C36.3918 22.485 34.9762 21.8985 33.9117 20.8333C32.8465 19.768 32.2599 18.3519 32.2599 16.8457V12.2115C33.0023 11.9322 33.7192 11.579 34.399 11.156C35.7778 10.2971 36.9666 9.17404 37.8992 7.85784C39.2996 9.82814 41.2732 11.3553 43.5367 12.2088V16.8457C43.5367 19.9552 41.0073 22.485 37.8983 22.485ZM38.9037 26.1135V24.519H36.8928V26.1135H38.9037ZM30.1406 17.1677H30.2608C30.34 19.0891 31.1245 20.8843 32.4922 22.252C33.1914 22.9517 34.0032 23.4976 34.8858 23.8761V26.1135H31.6618C30.7306 26.1135 29.8289 26.2924 28.9896 26.636V16.9496C29.3466 17.0898 29.7345 17.1677 30.1406 17.1677ZM29.3282 13.195C29.1091 13.4135 28.9897 13.7021 28.9897 14.0099C28.9897 14.6445 29.506 15.1609 30.1406 15.1608H30.253V12.8589H30.1406C30.0744 12.8589 30.0123 12.8641 29.956 12.8742L29.9441 12.8763C29.7099 12.9155 29.497 13.0257 29.3282 13.195ZM40.9106 23.8723C43.5391 22.7408 45.41 20.1763 45.5354 17.1678H45.656C46.0563 17.1678 46.4449 17.0929 46.807 16.9514V26.6362C45.9677 26.2925 45.066 26.1136 44.1348 26.1136H40.9106V23.8723ZM45.656 12.8589H45.5437H45.5436V15.1608H45.656C45.9632 15.1608 46.2522 15.041 46.4696 14.8235C46.6872 14.6061 46.8069 14.3171 46.8069 14.0098C46.8069 13.4461 46.3882 12.9571 45.8329 12.8725C45.7738 12.8631 45.7164 12.8589 45.656 12.8589ZM28.9895 10.9223C28.9897 6.01014 32.9861 2.01374 37.8983 2.01374C42.8106 2.01374 46.8069 6.01014 46.8069 10.9223V10.9272C46.5872 10.9055 46.3687 10.8787 46.1526 10.8429C45.7143 10.772 45.2731 10.6689 44.8408 10.5367L44.8336 10.5346C42.2396 9.73944 40.037 7.89414 38.7905 5.47194C38.6185 5.13764 38.2741 4.92764 37.8982 4.92764C37.5223 4.92764 37.1779 5.13774 37.0059 5.47204C36.1658 7.10474 34.8975 8.48104 33.3382 9.45224C32.6016 9.91054 31.8135 10.2713 30.9949 10.5248L29.5767 10.8541C29.383 10.8849 29.1868 10.9081 28.9894 10.9275V10.9223H28.9895ZM26.6034 36.8665H49.1931V33.1788C49.1931 31.5886 48.4671 30.1222 47.2012 29.1558H47.2011C46.3144 28.4785 45.2539 28.1205 44.1346 28.1205H40.1392C40.0646 28.1383 39.9872 28.1486 39.9071 28.1486H35.8893C35.8093 28.1486 35.7319 28.1382 35.6572 28.1205H31.6618C30.6117 28.1205 29.6135 28.4355 28.7619 29.0337C28.667 29.1492 28.5464 29.2423 28.4093 29.3062C27.2592 30.2709 26.6034 31.6685 26.6034 33.1788V36.8665Z"/>
<path fill-rule="evenodd" clip-rule="evenodd" d="M44.0587 33.5635H38.4394C37.8853 33.5635 37.436 34.0127 37.436 34.5669C37.436 35.1211 37.8853 35.5703 38.4394 35.5703H44.0587C44.6128 35.5703 45.0621 35.1211 45.0621 34.5669C45.0621 34.0127 44.6129 33.5635 44.0587 33.5635Z"/>
<path fill-rule="evenodd" clip-rule="evenodd" d="M47.2696 33.5635C45.9783 33.5635 45.9761 35.5704 47.2696 35.5704C48.5609 35.5704 48.563 33.5635 47.2696 33.5635Z"/>
</svg>
