<svg width="52" height="37" viewBox="0 0 52 37" xmlns="http://www.w3.org/2000/svg">
<mask id="mask0" mask-type="alpha" maskUnits="userSpaceOnUse" x="0" y="0" width="52" height="37">
<path fill-rule="evenodd" clip-rule="evenodd" d="M0.000488281 0H51.167V36.9989H0.000488281V0Z"/>
</mask>
<g mask="url(#mask0)">
<path fill-rule="evenodd" clip-rule="evenodd" d="M49.1605 34.992H26.5705V31.281C26.5835 28.505 28.8515 26.246 31.6295 26.246H44.1015C46.8905 26.246 49.1605 28.515 49.1605 31.304V34.992ZM36.8595 24.239H38.8715V22.616H36.8595V24.239ZM32.2265 14.971V14.262V10.838C32.2575 10.838 32.2885 10.839 32.3185 10.839C35.0095 10.839 37.5925 9.835 39.5725 8.051C40.6105 9.263 41.9785 10.162 43.5055 10.627V14.262V14.971C43.5055 16.477 42.9185 17.894 41.8525 18.959C40.7875 20.023 39.3715 20.609 37.8655 20.609C34.7565 20.609 32.2265 18.08 32.2265 14.971ZM31.3315 8.777C31.1545 8.758 30.9765 8.733 30.8005 8.702C30.9985 4.977 34.0915 2.007 37.8655 2.007C38.8635 2.007 39.8475 2.218 40.7505 2.621C40.3825 3.808 39.7625 4.913 38.9325 5.85C37.2565 7.745 34.8465 8.832 32.3175 8.832C31.9855 8.832 31.6555 8.814 31.3375 8.778C31.3355 8.777 31.3335 8.777 31.3315 8.777ZM42.4915 3.731C43.9815 5.024 44.8875 6.904 44.9385 8.903C44.8815 8.894 44.8245 8.884 44.7675 8.873C44.7255 8.861 44.6815 8.852 44.6375 8.846C43.1795 8.543 41.8675 7.725 40.9435 6.56C41.5985 5.699 42.1205 4.744 42.4915 3.731ZM24.5975 34.992H2.00749V31.304C2.00749 28.515 4.27549 26.246 7.06549 26.246H19.5385C22.3145 26.246 24.5845 28.505 24.5975 31.281V34.992ZM12.2945 24.239H14.3065V22.616H12.2945V24.239ZM9.31349 18.959C8.24949 17.894 7.66249 16.477 7.66249 14.971V14.262V10.627C9.18749 10.162 10.5565 9.263 11.5955 8.051C13.5745 9.835 16.1575 10.839 18.8485 10.839C18.8795 10.839 18.9095 10.838 18.9395 10.838V14.262V14.971C18.9395 18.08 16.4105 20.609 13.3025 20.609C11.7955 20.609 10.3795 20.023 9.31349 18.959ZM6.39849 8.873C6.34249 8.884 6.28549 8.894 6.22849 8.903C6.27949 6.904 7.18449 5.024 8.67549 3.731C9.04649 4.744 9.56849 5.699 10.2225 6.56C9.30049 7.725 7.98849 8.543 6.53049 8.846C6.48549 8.852 6.44149 8.861 6.39849 8.873ZM13.3025 2.007C17.0755 2.007 20.1695 4.977 20.3665 8.702C20.1905 8.733 20.0135 8.758 19.8355 8.777C19.8335 8.777 19.8315 8.777 19.8295 8.778C19.5125 8.814 19.1815 8.832 18.8485 8.832C16.3215 8.832 13.9105 7.745 12.2335 5.85C11.4055 4.913 10.7845 3.808 10.4165 2.621C11.3185 2.218 12.3035 2.007 13.3025 2.007ZM5.65549 13.259H5.54449C4.90949 13.259 4.39249 12.742 4.39249 12.107C4.39249 11.8 4.51249 11.511 4.73149 11.293C4.88449 11.14 5.07149 11.036 5.27749 10.987C5.40349 10.987 5.52949 10.983 5.65549 10.977V13.259ZM20.9465 10.957H21.0575C21.3665 10.957 21.6545 11.076 21.8735 11.295C22.0905 11.511 22.2095 11.8 22.2095 12.107C22.2095 12.742 21.6925 13.259 21.0575 13.259H20.9465V10.957ZM30.2205 13.259H30.1085C29.4735 13.259 28.9575 12.742 28.9575 12.107C28.9575 11.8 29.0775 11.511 29.2945 11.295C29.5125 11.076 29.8015 10.957 30.1085 10.957H30.2205V13.259ZM45.5125 10.977C45.6385 10.983 45.7645 10.987 45.8895 10.987C46.0965 11.036 46.2835 11.14 46.4355 11.293C46.6545 11.511 46.7735 11.8 46.7735 12.107C46.7735 12.742 46.2585 13.259 45.6235 13.259H45.5125V10.977ZM44.1015 24.239H40.8785V22.001C41.7615 21.622 42.5725 21.077 43.2715 20.379C44.6465 19.004 45.4315 17.197 45.5045 15.265H45.6235C47.3645 15.265 48.7805 13.849 48.7805 12.107C48.7805 11.263 48.4525 10.47 47.8545 9.874C47.5895 9.607 47.2825 9.396 46.9475 9.242V9.082C46.9475 5.861 45.2175 2.853 42.4315 1.231C42.4315 1.23 42.4315 1.23 42.4305 1.23C41.0495 0.426 39.4715 0 37.8655 0C32.8565 0 28.7825 4.074 28.7825 9.082V9.24C28.4495 9.394 28.1415 9.608 27.8745 9.876C27.2795 10.47 26.9505 11.263 26.9505 12.107C26.9505 13.848 28.3675 15.265 30.1085 15.265H30.2275C30.3425 18.285 32.2165 20.862 34.8525 21.997V24.239H31.6295C29.0715 24.239 26.8245 25.611 25.5835 27.657C24.3435 25.611 22.0955 24.239 19.5385 24.239H16.3135V21.997C18.9505 20.862 20.8245 18.285 20.9395 15.265H21.0585C22.8005 15.265 24.2165 13.848 24.2165 12.107C24.2165 11.263 23.8885 10.47 23.2925 9.876C23.0245 9.608 22.7185 9.394 22.3845 9.24V9.082C22.3845 4.074 18.3095 0 13.3025 0C11.6965 0 10.1175 0.426 8.73649 1.23C8.73649 1.23 8.73549 1.23 8.73549 1.231C5.94949 2.853 4.22049 5.861 4.22049 9.082V9.242C3.88549 9.396 3.57849 9.607 3.31149 9.874C2.71549 10.47 2.38649 11.263 2.38649 12.107C2.38649 13.849 3.80349 15.265 5.54449 15.265H5.66249C5.73549 17.197 6.52049 19.004 7.89549 20.379C8.59549 21.077 9.40649 21.622 10.2885 22.001V24.239H7.06549C3.16949 24.239 0.000488281 27.409 0.000488281 31.304V35.996C0.000488281 36.55 0.449488 36.999 1.00349 36.999H25.5805H25.5865H50.1635C50.7185 36.999 51.1675 36.55 51.1675 35.996V31.304C51.1675 27.409 47.9975 24.239 44.1015 24.239Z"/>
</g>
</svg>
