<svg width="49" height="49" viewBox="0 0 49 49" xmlns="http://www.w3.org/2000/svg">
<path fill-rule="evenodd" clip-rule="evenodd" d="M24.1899 34.9969C23.8741 34.9969 23.6173 34.7402 23.6173 34.4244C23.6173 34.1086 23.8741 33.8518 24.1899 33.8518C24.5056 33.8518 24.7624 34.1086 24.7624 34.4244C24.7624 34.7402 24.5056 34.9969 24.1899 34.9969ZM24.1899 31.9434C22.8218 31.9434 21.7089 33.0563 21.7089 34.4244C21.7089 35.7924 22.8219 36.9054 24.1899 36.9054C25.5578 36.9054 26.6709 35.7924 26.6709 34.4244C26.6709 33.0563 25.558 31.9434 24.1899 31.9434Z"/>
<path fill-rule="evenodd" clip-rule="evenodd" d="M47.0846 26.2349C47.0846 27.4856 46.067 28.5031 44.8164 28.5031H43.8308V24.6898C43.8308 22.0846 41.7379 19.9606 39.1453 19.9072L43.3586 15.694H44.2136C45.7967 15.694 47.0846 16.9819 47.0846 18.565V26.2349ZM47.0846 35.7764C47.0846 37.254 45.8825 38.456 44.405 38.456H24.308C22.0917 38.456 20.2885 36.6529 20.2885 34.4366C20.2885 32.2202 22.0916 30.4171 24.308 30.4171H34.9952C34.9958 30.4171 34.9964 30.4172 34.997 30.4172H44.8164C45.6521 30.4172 46.4308 30.1698 47.0846 29.7459V35.7764ZM47.0846 44.2138C47.0846 45.7969 45.7967 47.0848 44.2136 47.0848H42.8721C43.4737 46.2847 43.8308 45.2908 43.8308 44.2149V40.3699H44.405C45.4046 40.3699 46.3297 40.0481 47.0846 39.5039V44.2138ZM41.9169 44.2148C41.9169 45.7831 40.6527 47.062 39.0901 47.0858H6.50765V21.8188H39.0457C40.6288 21.8188 41.9167 23.1067 41.9167 24.6898V28.5031H38.5695C38.569 28.5031 38.5683 28.5031 38.5677 28.5031H24.308C21.0362 28.5031 18.3746 31.1647 18.3746 34.4365C18.3746 37.7082 21.0362 40.3699 24.308 40.3699H41.9169V44.2148ZM1.914 44.215V21.2214C2.52678 21.5998 3.24791 21.8188 4.01937 21.8188H4.59359V47.0788C3.09947 46.98 1.914 45.7336 1.914 44.215ZM4.01947 15.694H5.85209L4.72375 19.9048H4.01937C2.8584 19.9048 1.914 18.9603 1.914 17.7994C1.91409 16.6384 2.85868 15.694 4.01947 15.694ZM11.4683 2.12937L23.3079 5.30174L22.2971 6.31256L16.1118 4.65517C15.8666 4.58942 15.6054 4.62388 15.3856 4.75078C15.1658 4.87768 15.0054 5.0867 14.9398 5.33189C14.8023 5.84447 14.4736 6.27294 14.014 6.53832C13.5544 6.80371 13.0189 6.87414 12.5062 6.73681C11.9958 6.59995 11.4709 6.90295 11.3342 7.41353L7.98703 19.9048H6.70537L11.4683 2.12937ZM10.4312 18.1784L12.9656 8.71978C13.6605 8.73098 14.3518 8.55354 14.9709 8.1959C15.5901 7.83845 16.0883 7.33017 16.4272 6.72121L20.7343 7.87529L14.4838 14.1258L10.4312 18.1784ZM25.4848 19.8738H20.5496C20.938 18.8902 21.8974 18.1923 23.0172 18.1923C24.137 18.1923 25.0964 18.8902 25.4848 19.8738ZM23.017 16.2782C20.8323 16.2782 19.0019 17.8209 18.5554 19.8738H15.9001L27.008 8.76591C28.2341 9.4967 29.7774 9.4967 31.0034 8.76591L35.0652 12.8276C34.3345 14.0536 34.3345 15.5971 35.0652 16.8231L32.0145 19.8738H27.4786C27.0321 17.8208 25.2018 16.2782 23.017 16.2782ZM25.8335 5.4831C25.8336 5.483 25.8337 5.48281 25.8337 5.48272L29.0058 2.31064L41.5205 14.8254L36.4722 19.8737H34.7214L37.0114 17.5836C37.3851 17.2099 37.3851 16.6039 37.0114 16.2302C36.2367 15.4555 36.2367 14.1951 37.0114 13.4203C37.3851 13.0466 37.3851 12.4406 37.0114 12.0668L31.7642 6.81979C31.3905 6.44606 30.7845 6.44606 30.4107 6.81979C29.6359 7.5946 28.3754 7.5946 27.6008 6.81979C27.2271 6.44606 26.621 6.44606 26.2474 6.81979L13.1935 19.8738H11.4427L25.8335 5.4831ZM44.2136 13.78H43.1819L29.6825 0.280582C29.3087 -0.0931391 28.7026 -0.0931391 28.329 0.280582L24.8707 3.73901L11.0393 0.032902C10.5287 -0.104049 10.0039 0.199043 9.86712 0.709619L6.36515 13.78H4.01947C1.80317 13.78 3.05176e-05 15.583 3.05176e-05 17.7994C3.05176e-05 17.8525 0.00204028 17.9053 0.00405005 17.9579C0.00184888 17.9842 3.05176e-05 18.0106 3.05176e-05 18.0375V44.215C3.05176e-05 46.8534 2.14665 49 4.78509 49H39.0458C39.0606 49 39.0751 48.999 39.09 48.9988H44.2135C46.852 48.9988 48.9985 46.8523 48.9985 44.2138V18.565C48.9986 15.9264 46.8521 13.78 44.2136 13.78Z"/>
</svg>
