<svg width="47" height="49" viewBox="0 0 47 49" xmlns="http://www.w3.org/2000/svg">
<path fill-rule="evenodd" clip-rule="evenodd" d="M21.7293 29.6303V46.9985H8.29435V35.1218L13.8288 29.6303H21.7293ZM16.834 23.8177L6.75897 33.8161L2.43851 29.5244L12.5093 19.526L16.834 23.8177ZM12.5189 14.9555L15.0768 12.4166C15.3053 12.7618 15.5492 13.1027 15.8029 13.4313L13.5405 15.6765C13.2109 15.4259 12.8677 15.1838 12.5189 14.9555ZM17.2398 12.0007C15.4768 9.66486 15.105 7.83564 15.5126 7.41389C15.649 7.30726 15.8154 7.25026 15.9891 7.25026C16.0129 7.25026 16.0368 7.25137 16.0608 7.25359L16.0756 7.2541C16.8428 7.2541 18.3143 7.74225 20.1538 9.10869L17.2398 12.0007ZM18.2601 13.8194L22.5844 18.1107L18.2601 22.4023L13.9355 18.1107L18.2601 13.8194ZM19.6863 12.4072L29.7613 2.40568L34.0855 6.69742L24.0104 16.6955L19.6863 12.4072ZM9.18934 19.9903C7.42563 17.654 7.05401 15.8254 7.4623 15.4042C7.59866 15.2973 7.76416 15.2402 7.93657 15.2402C7.96061 15.2402 7.98464 15.2413 8.00878 15.2435L8.02365 15.244C8.79215 15.244 10.2648 15.7322 12.1033 17.0986L9.18934 19.9903ZM23.7463 46.9985H28.2354V29.6303H23.7463V46.9985ZM41.018 27.6286L41.0384 27.6024L40.6412 27.6039C39.9355 27.6066 39.2298 27.6099 38.524 27.6136L38.4443 27.614L38.4295 27.6284L37.6042 27.6286C37.6308 27.5351 37.6441 27.4384 37.6441 27.3404V26.4492C38.6994 26.0185 39.406 24.9759 39.406 23.8437C39.406 22.2907 38.1329 21.0274 36.568 21.0274C36.1901 21.0274 35.8825 20.7222 35.8825 20.347C35.8825 19.9717 36.1901 19.6663 36.568 19.6663C36.8283 19.6663 37.1107 19.8055 37.385 20.0689C37.8112 20.4781 38.4939 20.4672 38.9067 20.0442C39.3192 19.6211 39.3081 18.9437 38.8819 18.5341C38.5021 18.1694 38.0858 17.8998 37.6441 17.732V16.8504C37.6441 16.2615 37.1614 15.7822 36.568 15.7822C35.9747 15.7822 35.4921 16.2615 35.4921 16.8504V17.7415C34.4367 18.1719 33.7301 19.2144 33.7301 20.347C33.7301 21.9 35.0032 23.1634 36.568 23.1634C36.9461 23.1634 37.2536 23.4685 37.2536 23.8437C37.2536 24.2188 36.9461 24.524 36.568 24.524C36.2501 24.524 35.897 24.3137 35.5737 23.9317C35.1919 23.4812 34.5117 23.4229 34.0574 23.8016C33.8374 23.9853 33.7026 24.243 33.6778 24.5271C33.653 24.8113 33.7413 25.0881 33.9263 25.3063C34.3779 25.8393 34.9187 26.2363 35.4921 26.4561V27.3404C35.4921 27.4384 35.5055 27.5352 35.532 27.6289C34.3973 27.6345 32.9189 27.6404 31.4057 27.6402C29.8616 26.1763 29.0114 24.2079 29.0114 22.0952C29.0114 17.864 32.4804 14.4216 36.7443 14.4216C41.0081 14.4216 44.477 17.864 44.477 22.0952C44.477 24.202 43.6308 26.1664 42.0935 27.6286H41.018ZM30.2523 46.9985H43.6872V29.6303H30.2523V46.9985ZM44.8891 27.647C46.0278 26.0091 46.629 24.0914 46.629 22.0952C46.629 16.6861 42.1947 12.2856 36.7443 12.2856C31.2937 12.2856 26.8594 16.6861 26.8594 22.0952C26.8594 24.083 27.4566 25.9941 28.5875 27.6286H15.8458L36.2247 7.40459C36.6177 7.01447 36.6177 6.37976 36.2247 5.98974L30.4704 0.278811C30.0726 -0.0942296 29.4483 -0.0929158 29.0482 0.282652L21.5916 7.68212C20.2122 6.63102 18.783 5.85552 17.563 5.49623C16.0652 5.05537 14.8663 5.22577 14.0962 5.98974C13.1213 6.95726 13.1058 8.5509 14.0508 10.5993L10.6919 13.9339C8.62635 12.9965 7.0202 13.012 6.04587 13.9795C5.27635 14.7426 5.10464 15.9318 5.54929 17.4185C5.91154 18.6295 6.69318 20.0479 7.75234 21.4164L0.295445 28.8153C0.104898 29.0044 0 29.2556 0 29.5229C0 29.7901 0.104898 30.0413 0.295445 30.2304L6.04689 35.9402C6.11512 36.0069 6.19252 36.0632 6.27726 36.108V47.9992C6.27726 48.5511 6.72974 49 7.2859 49H44.6959C45.2519 49 45.7043 48.5511 45.7043 47.9992V28.6295C45.7043 28.1458 45.3593 27.7373 44.8891 27.647Z"/>
</svg>
