<svg width="52" height="50" viewBox="0 0 52 50" xmlns="http://www.w3.org/2000/svg">
<path fill-rule="evenodd" clip-rule="evenodd" d="M47.5442 43.6175L35.5697 46.6717C33.5026 47.1988 31.3608 47.064 29.3755 46.283L13.9217 40.2C13.805 40.1541 13.6808 40.1309 13.5555 40.1309H9.59442V28.7923H18.9355L25.4226 31.4869L28.9726 32.9616C30.2285 33.4843 30.8297 34.9629 30.3146 36.2218C30.2113 36.4745 30.0832 36.7147 29.9132 36.9288C29.2855 37.724 28.2519 38.0745 27.2854 37.8387L27.2618 37.8328C27.2039 37.8183 27.1463 37.8014 27.0891 37.7825L20.343 35.1799C20.2882 35.1587 20.2592 35.1476 20.2592 35.1476C19.7427 34.948 19.1627 35.207 18.9638 35.7257C18.7651 36.2442 19.0228 36.8267 19.5399 37.0259C19.5399 37.0259 23.3434 38.4935 26.244 39.616C26.3023 39.6388 26.3603 39.66 26.4186 39.6797L28.6459 40.5392C29.3192 40.799 29.9892 41.0577 30.6899 41.2373C31.8797 41.5423 33.1145 41.6649 34.3412 41.5977C35.0328 41.56 35.7233 41.4641 36.3984 41.3092L39.857 40.5149C39.8605 40.5141 39.864 40.5126 39.8677 40.5117L46.4339 39.0033C47.0585 38.8598 47.6997 38.9718 48.2386 39.3188C48.7783 39.6663 49.1468 40.2044 49.2772 40.834C49.5357 42.0811 48.7744 43.3038 47.5442 43.6175ZM13.8336 17.8224H20.7621V27.3727L19.5187 26.8562C19.3969 26.8055 19.2664 26.7796 19.1352 26.7796H13.8336V17.8224ZM22.7685 11.2305L29.697 11.2537V31.0844L25.8249 29.4762L22.7685 28.2063V11.2305ZM31.7018 37.88C32.4663 36.7355 32.7198 35.2844 32.3191 33.9599C32.2075 33.5905 32.0488 33.234 31.8472 32.905C31.8013 32.8303 31.7536 32.7572 31.7038 32.6857C31.7034 32.6845 31.7026 32.6837 31.7018 32.6825V23.0077H38.6308V23.0081V38.7317L35.9504 39.3475C35.6621 39.4136 35.3708 39.4658 35.0778 39.5068C33.9609 39.6612 32.8212 39.6285 31.716 39.4089C31.7113 39.4077 31.7066 39.4069 31.7018 39.4058V37.88ZM7.58921 42.0933H2.00521V26.4196H6.73549C6.7374 26.4196 6.73981 26.42 6.74211 26.42C6.74412 26.42 6.74562 26.4196 6.74763 26.4196H7.58921V42.0933ZM51.2405 40.4245C50.9997 39.2611 50.3182 38.2671 49.3215 37.6253C48.3247 36.9839 47.1408 36.7768 45.9862 37.0417L40.6356 38.271V36.076C41.7087 35.0616 42.826 33.7371 43.6207 32.5266C45.0142 30.4038 46.0004 28.0727 46.5518 25.5993C47.2074 22.6567 47.2215 19.5416 46.5921 16.5895C46.4762 16.0464 45.9431 15.6996 45.4019 15.8164C44.8602 15.9324 44.5156 16.4672 44.6311 17.0109C45.2006 19.6807 45.1881 22.4987 44.5947 25.16C44.0965 27.3947 43.2052 29.5009 41.9461 31.4194C41.5728 31.9881 41.1201 32.5847 40.6356 33.1546V22.0019C40.6356 21.4462 40.1868 20.9958 39.633 20.9958H31.7018V10.2511C31.7018 9.69689 31.255 9.24683 30.7027 9.24492L21.769 9.21463H21.7659C21.5003 9.21463 21.2458 9.31998 21.0582 9.50823C20.8694 9.69689 20.7633 9.95316 20.7633 10.2208V15.8101H12.831C12.2776 15.8101 11.8284 16.2605 11.8284 16.8163V26.78H9.59442V25.4134C9.59442 24.8581 9.14565 24.4077 8.59182 24.4077H7.56334C7.38829 23.4404 7.28693 22.4578 7.26296 21.4768C7.20421 19.0915 7.58099 16.7577 8.38227 14.5394C8.56916 14.0222 8.78141 13.5065 9.01291 13.0074C9.05682 12.9128 9.0847 12.8147 9.09793 12.7164C9.10345 12.7184 9.10896 12.7205 9.11437 12.7226C10.206 10.4879 11.7677 8.4408 13.6501 6.78456C15.0647 5.54004 16.6484 4.51929 18.3572 3.75048C18.4248 3.7202 18.4869 3.68277 18.5441 3.64021C18.9161 3.4751 19.2923 3.32156 19.6722 3.1824C22.114 2.28783 24.791 1.90619 27.4138 2.07915C29.2909 2.20301 31.1301 2.60507 32.8799 3.27396C33.3969 3.47167 33.9766 3.21148 34.1736 2.6919C34.3709 2.17272 34.1113 1.59146 33.5935 1.39375C31.6572 0.653219 29.6222 0.208295 27.5453 0.0711549C24.6464 -0.119814 21.686 0.30227 18.9845 1.29233C16.5658 2.17836 14.2706 3.55237 12.3296 5.27019C12.3291 5.27059 12.3287 5.27099 12.3283 5.27129C12.3278 5.2717 12.3274 5.2722 12.3269 5.2725C12.2677 5.32502 12.2077 5.37674 12.1492 5.42976C12.1373 5.44053 12.1268 5.4522 12.1156 5.46337C10.0819 7.30353 8.39902 9.55894 7.22908 12.0142C7.24221 12.019 7.25524 12.024 7.26838 12.0289C7.24161 12.0698 7.21644 12.1123 7.19529 12.1581C6.93872 12.7106 6.70371 13.2813 6.49738 13.8536C5.61067 16.3081 5.19399 18.8899 5.25816 21.5263C5.28212 22.4901 5.37376 23.4545 5.52916 24.4077H1.0026C0.448866 24.4077 0 24.8581 0 25.4138V43.0995C0 43.6552 0.448866 44.1057 1.0026 44.1057H8.59182C9.14565 44.1057 9.59442 43.6552 9.59442 43.0995V42.1428H13.3659L28.6435 48.1562C30.0699 48.7178 31.564 49.0004 33.066 49.0004C34.0674 49.0004 35.0731 48.8746 36.0636 48.6219L48.0381 45.5677C50.3112 44.988 51.7175 42.7288 51.2405 40.4245Z"/>
<path fill-rule="evenodd" clip-rule="evenodd" d="M35.3454 14.6842C35.5356 14.8515 35.77 14.9333 36.0034 14.9333C36.2838 14.9333 36.5629 14.8149 36.7617 14.5837L45.0204 4.95068C45.3843 4.52674 45.3396 3.88422 44.9213 3.51591C44.5025 3.14761 43.8688 3.19256 43.5053 3.6164L35.2462 13.2495C34.8824 13.6733 34.927 14.3159 35.3454 14.6842Z"/>
<path fill-rule="evenodd" clip-rule="evenodd" d="M43.1667 13.3552C42.8788 13.3552 42.6448 13.1212 42.6448 12.8333C42.6448 12.5457 42.8788 12.3113 43.1667 12.3113C43.4543 12.3113 43.6886 12.5457 43.6886 12.8333C43.6886 13.1212 43.4543 13.3552 43.1667 13.3552ZM43.1667 10.2666C41.7513 10.2666 40.6 11.418 40.6 12.8333C40.6 14.2486 41.7513 15.3999 43.1667 15.3999C44.582 15.3999 45.7333 14.2482 45.7333 12.8333C45.7333 11.418 44.582 10.2666 43.1667 10.2666Z"/>
<path fill-rule="evenodd" clip-rule="evenodd" d="M37.5667 4.8441C37.8546 4.8441 38.0886 5.07853 38.0886 5.36642C38.0886 5.65401 37.8546 5.88843 37.5667 5.88843C37.2788 5.88843 37.0447 5.65401 37.0447 5.36642C37.0447 5.07853 37.2788 4.8441 37.5667 4.8441ZM37.5667 7.93314C38.982 7.93314 40.1333 6.78176 40.1333 5.36642C40.1333 3.95118 38.982 2.7998 37.5667 2.7998C36.1513 2.7998 35 3.95118 35 5.36642C35 6.78176 36.1513 7.93314 37.5667 7.93314Z"/>
</svg>
