<svg width="52" height="50" viewBox="0 0 52 50" xmlns="http://www.w3.org/2000/svg">
<path fill-rule="evenodd" clip-rule="evenodd" d="M0 26C0 25.4477 0.447715 25 1 25H8.5C9.05229 25 9.5 25.4477 9.5 26V27.5H19.5C19.6916 27.5 19.8827 27.542 20.014 27.5748C20.1654 27.6126 20.3345 27.6642 20.5115 27.7232C20.8667 27.8416 21.3014 28.006 21.7776 28.1965C22.7327 28.5785 23.9024 29.0845 25.0311 29.5862C26.1619 30.0888 27.2603 30.5909 28.0753 30.967C28.483 31.1552 28.8202 31.3121 29.0557 31.4219C29.1734 31.4769 29.2657 31.5201 29.3287 31.5496L29.414 31.5896L29.4161 31.5906C29.4269 31.5954 29.441 31.6017 29.4581 31.6096C29.4923 31.6254 29.5389 31.6475 29.5957 31.6759C29.709 31.7325 29.8646 31.8151 30.0457 31.9238C30.4042 32.1389 30.8823 32.4681 31.3321 32.9179C32.2432 33.8289 33.1097 35.3331 32.4487 37.3162C32.1024 38.3552 31.481 39.0273 30.7798 39.4553C32.5266 39.8569 34.5692 40.0147 36.7771 39.5251L45.2535 37.5307C45.264 37.5279 45.2772 37.5244 45.2927 37.5204C45.3285 37.5113 45.3773 37.4995 45.4375 37.4862C45.5576 37.4598 45.7251 37.4274 45.9274 37.3998C46.3273 37.3453 46.8875 37.3063 47.499 37.3827C48.7553 37.5398 50.2914 38.2118 50.9487 40.1838C51.2944 41.221 51.2996 42.1489 51.0504 42.9553C50.8042 43.7519 50.3339 44.3525 49.8513 44.7876C49.3716 45.2202 48.8591 45.5087 48.4771 45.6879C48.2836 45.7786 48.1171 45.8443 47.9954 45.8884C47.9343 45.9106 47.8841 45.9274 47.8469 45.9394C47.8376 45.9424 47.8291 45.9451 47.8214 45.9475C47.8137 45.9499 47.8068 45.952 47.8008 45.9538L47.7855 45.9584L47.7799 45.96L47.7776 45.9607L47.7765 45.961C47.7765 45.961 47.7756 45.9613 47.5 45L47.7765 45.961L47.764 45.9646L36.2425 48.9702C36.2072 48.979 36.1717 48.9879 36.1362 48.9968C35.1676 49.2395 34.1124 49.504 32.6538 49.4364C31.1578 49.3672 29.2969 48.9548 26.641 47.9333C24.1549 46.9771 21.3152 45.6856 18.9315 44.6015C18.7897 44.537 18.6496 44.4733 18.5112 44.4104C17.2704 43.8464 16.1787 43.3531 15.3361 43.0007C14.914 42.8242 14.5699 42.6896 14.3094 42.6007C14.0698 42.5189 13.9769 42.5034 13.9772 42.5006C13.9772 42.5006 13.9788 42.5001 13.9817 42.5H9.5V43.5C9.5 44.0523 9.05228 44.5 8.5 44.5H1C0.447715 44.5 0 44.0523 0 43.5V26ZM9.5 40.5H14C14.3148 40.5 14.6812 40.6143 14.9555 40.7079C15.2786 40.8182 15.6704 40.9727 16.1077 41.1555C16.9838 41.5219 18.1046 42.0286 19.3388 42.5896C19.4724 42.6504 19.6075 42.7118 19.7438 42.7738C22.1419 43.8644 24.931 45.1328 27.359 46.0667C29.9031 47.0452 31.5422 47.3828 32.7462 47.4386C33.9086 47.4924 34.7201 47.2894 35.6932 47.0459L35.7476 47.0324L35.7575 47.0299L47.2279 44.0375L47.2346 44.0354C47.2502 44.0304 47.2773 44.0214 47.3139 44.0081C47.3874 43.9815 47.4971 43.9385 47.6279 43.8771C47.8945 43.7521 48.2228 43.5631 48.512 43.3023C48.7983 43.0441 49.025 42.7355 49.1396 42.3647C49.2512 42.0036 49.2811 41.5056 49.0513 40.8162C48.7086 39.7882 47.9947 39.4602 47.251 39.3673C46.8625 39.3187 46.4852 39.3422 46.1976 39.3815C46.0562 39.4007 45.9424 39.423 45.8672 39.4395C45.8298 39.4478 45.8024 39.4545 45.7864 39.4586L45.7732 39.4619L45.7721 39.4623L45.7706 39.4627L45.752 39.468L37.2169 41.4763C32.4085 42.5448 28.3373 40.9469 26.1108 39.9217L19.5612 37.4436C19.0427 37.2474 18.7828 36.6668 18.9818 36.1493C19.1793 35.6358 19.7544 35.3783 20.269 35.573L26.7915 38.0407C26.8106 38.0448 26.8347 38.0497 26.8633 38.0552C26.9548 38.0729 27.0913 38.0963 27.2598 38.1165C27.6014 38.1575 28.0515 38.1826 28.5146 38.1311C29.4452 38.0277 30.2262 37.6592 30.5513 36.6838C30.8903 35.6669 30.5068 34.9211 29.9179 34.3321C29.6177 34.0319 29.2833 33.7986 29.0168 33.6387C28.8854 33.5599 28.7754 33.5018 28.7012 33.4647C28.6643 33.4463 28.6366 33.4332 28.62 33.4255L28.6047 33.4186L28.6037 33.4181L28.6026 33.4176L28.59 33.4123L28.5742 33.4048L28.4799 33.3605C28.4178 33.3315 28.3266 33.2887 28.2099 33.2343C27.9766 33.1254 27.642 32.9698 27.2372 32.783C26.4272 32.4091 25.3381 31.9112 24.2189 31.4138C23.0976 30.9155 21.9548 30.4215 21.0349 30.0535C20.5736 29.869 20.1802 29.7209 19.8791 29.6206C19.728 29.5702 19.6119 29.5358 19.5289 29.5151C19.496 29.5068 19.4744 29.5023 19.4624 29.5H9.5V40.5ZM2.5 27C2.22386 27 2 27.2239 2 27.5V42C2 42.2761 2.22386 42.5 2.5 42.5H7C7.27614 42.5 7.5 42.2761 7.5 42V27.5C7.5 27.2239 7.27614 27 7 27H2.5Z"/>
<path fill-rule="evenodd" clip-rule="evenodd" d="M34.3852 2.38521C34.1701 2.60028 34 2.95411 34 3.5C34 4.04589 34.1701 4.39972 34.3852 4.61479C34.6003 4.82985 34.9541 5 35.5 5C36.0388 5 36.3937 4.82804 36.6122 4.60794C36.8319 4.38671 37 4.02983 37 3.5C37 2.97017 36.8319 2.61329 36.6122 2.39206C36.3937 2.17196 36.0388 2 35.5 2C34.9541 2 34.6003 2.17015 34.3852 2.38521ZM32.971 0.971001C33.6246 0.317328 34.5208 0 35.5 0C36.4862 0 37.3813 0.328036 38.0315 0.982937C38.6806 1.63671 39 2.52983 39 3.5C39 4.47017 38.6806 5.36329 38.0315 6.01706C37.3813 6.67196 36.4862 7 35.5 7C34.5208 7 33.6246 6.68267 32.971 6.029C32.3173 5.37533 32 4.47916 32 3.5C32 2.52084 32.3173 1.62467 32.971 0.971001ZM28 21.5C27.585 21.1356 27.5439 20.5038 27.9083 20.0888L44.5887 1.09164C44.9531 0.67663 45.585 0.635602 46 1C46.415 1.3644 46.456 1.99623 46.0916 2.41124L29.4112 21.4084C29.0468 21.8234 28.415 21.8644 28 21.5ZM37.3852 17.8852C37.1701 18.1003 37 18.4541 37 19C37 19.5459 37.1701 19.8997 37.3852 20.1148C37.6003 20.3299 37.9541 20.5 38.5 20.5C39.0388 20.5 39.3937 20.328 39.6122 20.1079C39.8319 19.8867 40 19.5298 40 19C40 18.4702 39.8319 18.1133 39.6122 17.8921C39.3937 17.672 39.0388 17.5 38.5 17.5C37.9541 17.5 37.6003 17.6701 37.3852 17.8852ZM35.971 16.471C36.6246 15.8173 37.5208 15.5 38.5 15.5C39.4862 15.5 40.3813 15.828 41.0315 16.4829C41.6806 17.1367 42 18.0298 42 19C42 19.9702 41.6806 20.8633 41.0315 21.5171C40.3813 22.172 39.4862 22.5 38.5 22.5C37.5208 22.5 36.6246 22.1827 35.971 21.529C35.3173 20.8753 35 19.9792 35 19C35 18.0208 35.3173 17.1247 35.971 16.471Z"/>
</svg>
