<svg width="50" height="50" viewBox="0 0 50 50" xmlns="http://www.w3.org/2000/svg">
<path fill-rule="evenodd" clip-rule="evenodd" d="M18.5 2C9.3873 2 2 9.3873 2 18.5C2 27.6127 9.3873 35 18.5 35C21.8035 35 24.8775 34.0302 27.4564 32.3601C29.4166 31.0907 31.0907 29.4166 32.3601 27.4564C34.0302 24.8775 35 21.8035 35 18.5C35 9.3873 27.6127 2 18.5 2ZM0 18.5C0 8.28273 8.28273 0 18.5 0C28.7173 0 37 8.28273 37 18.5C37 21.9123 36.0753 25.1112 34.4625 27.8569L47.7077 41.2935L47.71 41.2958L47.7122 41.298L47.7139 41.2998L47.7251 41.3111C47.7339 41.3202 47.7455 41.3322 47.7595 41.3471C47.7877 41.3768 47.8258 41.4181 47.8719 41.4699C47.9638 41.5735 48.0882 41.7207 48.2273 41.9047C48.5024 42.2685 48.8507 42.7968 49.1122 43.4318C49.3732 44.0657 49.5647 44.848 49.4704 45.6964C49.374 46.5647 48.9855 47.4287 48.2071 48.2071C47.4287 48.9855 46.5647 49.374 45.6964 49.4704C44.848 49.5647 44.0657 49.3732 43.4318 49.1122C42.7968 48.8507 42.2685 48.5024 41.9047 48.2273C41.7207 48.0882 41.5735 47.9638 41.4699 47.8719C41.4181 47.8258 41.3768 47.7877 41.3471 47.7595C41.3322 47.7455 41.3202 47.7339 41.3111 47.7251L41.2998 47.7139L41.298 47.7122L41.2958 47.71L41.2942 47.7084L27.8569 34.4625C25.1112 36.0753 21.9123 37 18.5 37C8.28273 37 0 28.7173 0 18.5ZM29.559 33.332L42.702 46.2878L42.7061 46.2919L42.7071 46.2929L42.7215 46.3066C42.7369 46.3212 42.7626 46.3451 42.7976 46.3762C42.8679 46.4385 42.9746 46.529 43.1109 46.632C43.3877 46.8413 43.7657 47.0868 44.1932 47.2628C44.6218 47.4393 45.0583 47.529 45.4755 47.4827C45.8728 47.4385 46.3213 47.2645 46.7929 46.7929C47.2645 46.3213 47.4385 45.8728 47.4827 45.4755C47.529 45.0583 47.4393 44.6218 47.2628 44.1932C47.0868 43.7657 46.8413 43.3877 46.632 43.1109C46.529 42.9746 46.4385 42.8679 46.3762 42.7976C46.3451 42.7626 46.3212 42.7369 46.3066 42.7215L46.2929 42.7071L46.292 42.7062L46.2878 42.702L33.332 29.559C32.2627 30.9909 30.9909 32.2627 29.559 33.332Z"/>
<path fill-rule="evenodd" clip-rule="evenodd" d="M18.5 8C12.701 8 8 12.701 8 18.5C8 24.299 12.701 29 18.5 29C24.299 29 29 24.299 29 18.5C29 12.701 24.299 8 18.5 8ZM6 18.5C6 11.5964 11.5964 6 18.5 6C25.4036 6 31 11.5964 31 18.5C31 25.4036 25.4036 31 18.5 31C11.5964 31 6 25.4036 6 18.5Z"/>
</svg>
