<svg width="49" height="49" viewBox="0 0 49 49" xmlns="http://www.w3.org/2000/svg">
<path fill-rule="evenodd" clip-rule="evenodd" d="M22.7677 21.6113V15.2876C22.7677 14.6495 22.2489 14.1307 21.6111 14.1307C20.9733 14.1307 20.4543 14.6495 20.4543 15.2876V18.8183L15.3383 13.7015C15.1201 13.4833 14.8296 13.3633 14.5203 13.3633C14.211 13.3633 13.9206 13.4833 13.7026 13.7015C13.484 13.9199 13.3636 14.2105 13.3636 14.5195C13.3636 14.8287 13.4839 15.1192 13.7024 15.3377L20.793 22.4293C21.1946 22.8307 21.7079 22.8201 22.0545 22.6766C22.3993 22.5337 22.7677 22.1789 22.7677 21.6113Z"/>
<path fill-rule="evenodd" clip-rule="evenodd" d="M22.6411 34.7192C22.6411 28.0428 28.073 22.6111 34.7498 22.6111C41.4266 22.6111 46.8586 28.0428 46.8586 34.7192C46.8586 41.3959 41.4266 46.8279 34.7498 46.8279C28.073 46.8279 22.6411 41.3959 22.6411 34.7192ZM20.5879 35.2286L20.5998 35.5679L20.2639 35.5176C20.0905 35.4917 19.9105 35.4614 19.7137 35.425C19.5856 35.4012 19.4735 35.3435 19.3885 35.2578C13.272 34.2524 8.55293 29.2503 7.90943 23.0858L7.87701 22.7743H9.44176C10.0656 22.7743 10.5732 22.2668 10.5732 21.6429C10.5732 21.0191 10.0656 20.5115 9.44176 20.5115H7.87701L7.90943 20.2C8.5822 13.7561 13.7475 8.59084 20.1914 7.91796L20.503 7.88554V9.45029C20.503 10.0742 21.0105 10.5817 21.6344 10.5817C22.2582 10.5817 22.7658 10.0742 22.7658 9.45029V7.88544L23.0772 7.91796C29.5211 8.59084 34.6864 13.7561 35.3592 20.2L35.3668 20.2728L35.4599 20.5434L35.0636 20.5512C34.957 20.5488 34.8537 20.5472 34.7498 20.5472C26.9353 20.5472 20.5778 26.9047 20.5778 34.7192C20.5778 34.8709 20.5809 35.0328 20.5879 35.2286ZM21.6042 41.0089C10.9421 40.9924 2.26792 32.3049 2.26792 21.6429C2.26792 10.9643 10.9557 2.27667 21.6344 2.27667C32.2642 2.27667 40.9514 10.9244 40.9996 21.5538L41.0014 21.9946L40.6005 21.812C39.7313 21.4164 38.8176 21.1086 37.8841 20.897L37.6779 20.8503L37.6649 20.6392C37.1417 12.1947 30.1002 5.57983 21.6344 5.57983C12.7772 5.57983 5.57141 12.7858 5.57141 21.6429C5.57141 30.1335 12.207 37.1759 20.6782 37.6758L20.8892 37.6882L20.9365 37.8944C21.1502 38.8243 21.4612 39.7377 21.861 40.609L22.0448 41.0095L21.6042 41.0089ZM23.4972 43.3239C26.2094 46.8624 30.3109 48.8918 34.7498 48.8918C42.5645 48.8918 48.922 42.5341 48.922 34.7192C48.922 30.2616 46.8792 26.1498 43.3172 23.4381L43.1957 23.3455L43.2067 23.1933C43.2445 22.6654 43.2636 22.1438 43.2636 21.6431C43.2636 15.8612 41.0151 10.4283 36.9323 6.3454C32.8495 2.26236 27.4166 0.0136719 21.6344 0.0136719C15.8569 0.0136719 10.4252 2.26355 6.34013 6.34876C2.25166 10.4373 4.73719e-05 15.8687 -6.10352e-05 21.6427C-6.10352e-05 27.417 2.25155 32.8487 6.34013 36.9372C10.7983 41.3953 16.9624 43.6834 23.2522 43.2141L23.4044 43.2027L23.4972 43.3239Z"/>
<path fill-rule="evenodd" clip-rule="evenodd" d="M34.4408 43.5555C35.0112 43.5555 35.4753 43.0931 35.4753 42.5246V40.7867L35.6637 40.7201C37.1275 40.2028 38.1111 38.8172 38.1111 37.2726C38.1111 35.256 36.4646 33.6155 34.4408 33.6155C33.5582 33.6155 32.8402 32.9001 32.8402 32.0208C32.8402 31.1411 33.5582 30.4253 34.4408 30.4253C34.9824 30.4253 35.5434 30.6901 36.0628 31.1911C36.4726 31.5862 37.1291 31.5757 37.526 31.1673C37.9226 30.7588 37.9118 30.1048 37.5021 29.7094C36.9386 29.166 36.3218 28.7813 35.6694 28.5657L35.4753 28.5016V26.7686C35.4753 26.1999 35.0112 25.7373 34.4408 25.7373C33.8703 25.7373 33.4062 26.1999 33.4062 26.7686V28.5064L33.2178 28.5732C31.754 29.0901 30.7705 30.4757 30.7705 32.0208C30.7705 34.0373 32.4171 35.6777 34.4408 35.6777C35.3233 35.6777 36.0414 36.3932 36.0414 37.2726C36.0414 38.1519 35.3233 38.8674 34.4408 38.8674C33.7921 38.8674 33.1076 38.479 32.5132 37.7736C32.3164 37.5406 32.0274 37.4069 31.7204 37.4069C31.4773 37.4069 31.2409 37.4925 31.0551 37.6481C30.6186 38.014 30.562 38.6657 30.9291 39.1008C31.5908 39.8848 32.3806 40.4463 33.2133 40.7248L33.4062 40.7894V42.5246C33.4062 43.0931 33.8703 43.5555 34.4408 43.5555Z"/>
</svg>
