<svg width="43" height="49" viewBox="0 0 43 49" xmlns="http://www.w3.org/2000/svg">
<path fill-rule="evenodd" clip-rule="evenodd" d="M25.5391 30.7715V30.5338C26.1378 30.4146 26.7358 30.2685 27.3229 30.098L26.6865 31.1571C26.321 30.9824 25.9361 30.8531 25.5391 30.7715ZM14.0324 29.7059C15.5468 30.2404 17.1213 30.6045 18.7165 30.789V31.6398C18.7165 31.7197 18.7812 31.7845 18.8611 31.7845H20.4945C20.5744 31.7845 20.6391 31.7197 20.6391 31.6398V23.4731C20.6391 22.6523 21.3069 21.9845 22.1278 21.9845C22.9486 21.9845 23.6165 22.6523 23.6165 23.4731V31.6398C23.6165 32.1699 24.0478 32.6011 24.5778 32.6011C26.2992 32.6011 27.6998 34.0017 27.6998 35.7231V41.2951H19.0058V39.8064C19.0058 39.5684 18.918 39.3401 18.7588 39.1633L14.1309 34.0186C13.039 32.8011 13.003 30.9644 14.0324 29.7059ZM22.1278 20.0617C20.2468 20.0617 18.7165 21.5922 18.7165 23.4731V28.8553C14.5047 28.3117 10.5393 26.365 7.53406 23.3622C4.52883 20.3594 2.57884 16.3957 2.03187 12.1845H40.5835C39.5216 20.2708 33.5046 26.8226 25.5391 28.5689V23.4731C25.5391 21.5922 24.0089 20.0617 22.1278 20.0617ZM42.3599 10.5703C42.1785 10.3742 41.9213 10.2617 41.6543 10.2617H41.6535H0.964388H0.961326C0.432636 10.2617 0.0016403 10.6911 6.96984e-06 11.2201C-9.51135e-05 11.2464 0.00092572 11.2729 0.00296739 11.2986C0.581882 18.9563 5.24944 25.7042 12.1997 28.9502C10.9079 30.9407 11.1046 33.5309 12.7012 35.307L17.0831 40.1756V41.2951H15.5945C15.0644 41.2951 14.6331 41.7264 14.6331 42.2565V48.7898C14.6331 48.8697 14.6979 48.9345 14.7778 48.9345H16.4111C16.4911 48.9345 16.5558 48.8697 16.5558 48.7898V43.2178H29.3331V48.7898C29.3331 48.8697 29.3979 48.9345 29.4778 48.9345H31.1111C31.1911 48.9345 31.2558 48.8697 31.2558 48.7898V42.2565C31.2558 41.7264 30.8245 41.2951 30.2945 41.2951H29.6224V35.7227C29.619 34.4355 29.132 33.221 28.2487 32.2902L30.1993 29.0391C37.2602 25.8277 42.0151 19.0335 42.6119 11.2973C42.6327 11.0314 42.5409 10.7665 42.36 10.5705C42.36 10.5704 42.3599 10.5704 42.3599 10.5703Z"/>
<path fill-rule="evenodd" clip-rule="evenodd" d="M0.889498 8.91496C0.915733 8.917 0.942275 8.91873 0.967898 8.91792H41.6563H41.6592C41.915 8.91792 42.1555 8.81879 42.3369 8.63851C42.519 8.45752 42.6197 8.2164 42.6206 7.95966C42.6207 7.93322 42.6196 7.90688 42.6176 7.88075C42.4068 5.19269 41.6966 2.60284 40.5067 0.183361C40.4716 0.1118 40.3851 0.0822981 40.3134 0.117211L38.8434 0.835877C38.8089 0.852823 38.7824 0.882733 38.7701 0.919075C38.7576 0.955519 38.7602 0.995229 38.7771 1.02973C39.703 2.91164 40.3122 4.91778 40.5889 6.99518H2.03314C2.30886 4.91799 2.91697 2.91174 3.84175 1.02973C3.85869 0.995229 3.86125 0.955519 3.84879 0.919075C3.83634 0.882733 3.81 0.852823 3.7755 0.835979L2.30876 0.117313C2.2371 0.0824001 2.15053 0.1118 2.11531 0.183463C0.926248 2.60314 0.216973 5.193 0.00698727 7.88065C-0.0133273 8.13657 0.0673185 8.38525 0.234021 8.58053C0.400621 8.77592 0.633371 8.89464 0.889498 8.91496Z"/>
<path fill-rule="evenodd" clip-rule="evenodd" d="M7.42786 16.2675H9.06119C9.14112 16.2675 9.20584 16.2026 9.20584 16.1228V14.4895C9.20584 14.4095 9.14112 14.3447 9.06119 14.3447H7.42786C7.34792 14.3447 7.2832 14.4095 7.2832 14.4895V16.1228C7.2832 16.2026 7.34792 16.2675 7.42786 16.2675Z"/>
<path fill-rule="evenodd" clip-rule="evenodd" d="M21.3111 14.3447H10.6945C10.6145 14.3447 10.5498 14.4095 10.5498 14.4894V16.1227C10.5498 16.2026 10.6145 16.2675 10.6945 16.2675H21.3111C21.3911 16.2675 21.4558 16.2026 21.4558 16.1227V14.4894C21.4558 14.4095 21.3911 14.3447 21.3111 14.3447Z"/>
<path fill-rule="evenodd" clip-rule="evenodd" d="M18.0445 17.6113H7.42786C7.34792 17.6113 7.2832 17.6762 7.2832 17.756V19.3893C7.2832 19.4692 7.34792 19.5341 7.42786 19.5341H18.0445C18.1245 19.5341 18.1892 19.4692 18.1892 19.3893V17.756C18.1892 17.6762 18.1245 17.6113 18.0445 17.6113Z"/>
</svg>
