<svg width="50" height="50" viewBox="0 0 50 50" xmlns="http://www.w3.org/2000/svg">
<path d="M24.9291 42.5C24.4688 42.5 24.0958 42.873 24.0958 43.3333V46.6666C24.0958 47.5871 23.3496 48.3333 22.4291 48.3333C21.5086 48.3333 20.7624 47.5871 20.7624 46.6666V45.8333C20.7625 45.6123 20.6747 45.4003 20.5183 45.2439C20.3621 45.0877 20.1501 44.9999 19.929 44.9999C19.708 44.9998 19.496 45.0876 19.3396 45.2439C19.1834 45.4002 19.0956 45.6122 19.0956 45.8333V46.6666C19.0956 48.5075 20.588 49.9999 22.4289 49.9999C24.2698 49.9999 25.7622 48.5075 25.7622 46.6666V43.3333C25.7625 42.8731 25.3893 42.5 24.9291 42.5Z" />
<path d="M24.9625 0C11.8424 0 1.15067 6.89863 0.0930549 16.0457C0.0419806 16.4846 0.342371 16.8869 0.777625 16.9628C1.21288 17.0387 1.63163 16.7616 1.73202 16.3313C2.36356 13.6287 5.10975 11.6666 8.26239 11.6666C10.7303 11.6107 13.0363 12.8906 14.2943 15.0146C14.587 15.557 15.1578 15.891 15.7742 15.8802C16.3905 15.8694 16.9493 15.5157 17.2228 14.9633C18.4108 12.6635 21.0563 11.126 24.0958 10.8829V20.8333C24.0958 21.2936 24.4688 21.6666 24.9291 21.6666C25.3893 21.6666 25.7624 21.2935 25.7624 20.8333V10.883C28.8018 11.1262 31.4474 12.6636 32.6357 14.9634C32.9182 15.519 33.4854 15.8723 34.1087 15.8806C34.7165 15.8833 35.2763 15.5503 35.5638 15.0146C36.8218 12.8907 39.1278 11.6107 41.5957 11.6667C45.113 11.6667 48.0353 14.0674 48.2477 17.133C48.2785 17.5694 48.6411 17.9079 49.0786 17.9086C49.0933 17.9086 49.1079 17.9086 49.1226 17.9077C49.5766 17.8836 49.9277 17.5003 49.9119 17.0459C49.576 7.48779 38.6165 0 24.9625 0ZM41.5958 10C38.521 9.92012 35.6497 11.5319 34.1165 14.1984C32.5373 11.1418 28.9309 9.1667 24.9291 9.1667C20.9272 9.1667 17.3209 11.1418 15.7607 14.2221C14.2263 11.5445 11.3475 9.92363 8.26239 10.0001C6.58329 9.99561 4.9368 10.4632 3.51063 11.3494C7.07587 5.65283 15.4352 1.6668 24.9624 1.6668C34.5327 1.6668 42.884 5.70166 46.4346 11.3966C44.9888 10.4771 43.3092 9.99248 41.5958 10Z" />
<path d="M35.0589 35.8433C34.7648 35.7969 34.4682 35.911 34.281 36.1426C33.7691 36.7197 33.1435 37.1848 32.4433 37.5088C31.5912 35.9525 31.0606 34.241 30.8828 32.4757C31.2887 32.4211 31.5926 32.0762 31.5957 31.6667V27.5C31.5934 27.1352 31.351 26.8155 31.0004 26.7147C31.4734 23.6037 32.6577 20.0037 33.977 18.9957C34.3418 18.7158 34.4113 18.1934 34.1321 17.828C33.8529 17.4626 33.3305 17.3923 32.9647 17.6709C31.6506 18.6754 30.6643 20.9945 30.0216 23.3333H18.2625C17.8023 23.3333 17.4292 23.7064 17.4292 24.1666C17.4292 24.6269 17.8023 24.9999 18.2625 24.9999H19.9292V26.6666H16.5959C15.2158 26.6681 14.0974 27.7865 14.0959 29.1666V31.6666C14.0958 31.8876 14.1836 32.0996 14.34 32.256C14.4962 32.4122 14.7082 32.5 14.9293 32.5H17.306C17.1264 34.2568 16.5968 35.9599 15.7485 37.5088C15.0484 37.1849 14.4228 36.7197 13.9109 36.1426C13.6214 35.7846 13.0966 35.729 12.7386 36.0185C12.3806 36.3079 12.325 36.8327 12.6145 37.1907C14.4031 39.4034 18.91 40.8333 24.096 40.8333C29.2821 40.8333 33.7888 39.4034 35.5776 37.1907C35.7648 36.9592 35.8143 36.6453 35.7074 36.3673C35.6004 36.0893 35.3531 35.8897 35.0589 35.8433ZM21.5958 25H29.6195C29.4974 25.5825 29.3984 26.1441 29.3226 26.6667H21.5958V25ZM15.7625 30.8333V29.1666C15.763 28.7065 16.1358 28.3337 16.5958 28.3333H29.9291V30.8333H15.7625ZM24.0958 39.1667C21.7908 39.1883 19.4968 38.8454 17.2989 38.1507C18.2212 36.3944 18.792 34.475 18.9792 32.5H29.2125C29.3997 34.4749 29.9705 36.3943 30.8929 38.1507C28.6949 38.8453 26.4009 39.1883 24.0958 39.1667Z" />
</svg>
