<svg width="50" height="50" viewBox="0 0 50 50" xmlns="http://www.w3.org/2000/svg">
<path fill-rule="evenodd" clip-rule="evenodd" d="M39.5148 1.90654C40.4958 0.799037 41.9142 0 43.5 0C45.0858 0 46.5042 0.799037 47.4852 1.90654C48.4657 3.01336 49.0891 4.51524 48.9983 6.05872C48.8248 9.00791 46.3039 11 43.5 11C40.6961 11 38.1752 9.00791 38.0017 6.05872C37.9109 4.51524 38.5343 3.01336 39.5148 1.90654ZM41.0118 3.23272C40.3271 4.00564 39.9431 5.00376 39.9983 5.94128C40.1009 7.68651 41.6014 9 43.5 9C45.3986 9 46.8991 7.68651 47.0017 5.94128C47.0569 5.00376 46.6729 4.00564 45.9882 3.23272C45.3041 2.46047 44.3995 2 43.5 2C42.6005 2 41.6959 2.46047 41.0118 3.23272ZM8.14011 4.81312C11.5361 2.16003 16.201 0.42041 21.6961 1.51943C27.0693 2.59407 30.6711 6.22437 32.6502 10.3144C34.613 14.371 35.0481 19.018 33.9487 22.3162C33.7825 22.8147 33.2589 23.0996 32.7501 22.9683L18.2032 19.2143L13.66 35.7349C13.485 36.3715 13.964 37 14.6242 37H27.2795C27.3829 37 27.4791 36.9467 27.5339 36.859L28.4089 35.459C28.5338 35.2592 28.3901 35 28.1545 35H26C25.6527 35 25.3303 34.8198 25.1483 34.5241L21.6724 28.8758C21.383 28.4054 21.5296 27.7895 22 27.5C22.4704 27.2105 23.0863 27.3572 23.3758 27.8276L26.2659 32.5241C26.4479 32.8198 26.7703 33 27.1176 33H42C42.5523 33 43 33.4477 43 34C43 34.5523 42.5523 35 42 35H39.1034C38.8804 35 38.7354 35.2347 38.8351 35.4342L39.5351 36.8342C39.5859 36.9358 39.6898 37 39.8034 37H40C44.3311 37 46.9931 38.8331 48.4749 41.2231C49.9131 43.5428 50 46.5 49.995 48.0995C49.995 48.5969 49.5919 49 49.0945 49H1C0.447715 49 0 48.5523 0 48C0 43.7163 1.62287 40.9211 3.7503 39.2192C5.83427 37.552 8.31708 37 10 37H10.475C10.9252 37 11.3199 36.6992 11.4392 36.2652L16.2709 18.6983L2.73407 14.964C2.2285 14.8245 1.91656 14.3182 2.01942 13.8039C2.57489 11.0265 4.77878 7.4391 8.14011 4.81312ZM17.758 17.0338L23.5148 18.5195C24.0624 18.6608 24.6207 18.3179 24.7216 17.7615C26.0794 10.273 23.4421 5.68813 21.5625 3.85914C21.4238 3.72413 21.2175 3.69242 21.0416 3.77341C18.1473 5.10671 13.4125 8.55981 11.6662 14.3539C11.5111 14.8684 11.8266 15.3976 12.3446 15.5405L17.758 17.0338ZM8.4895 14.477C9.03492 14.6275 9.59381 14.2945 9.75746 13.7529C11.2095 8.94735 14.4675 5.60738 17.3811 3.58946C17.5476 3.47414 17.4628 3.21341 17.2609 3.22947C14.1771 3.47474 11.5093 4.71901 9.37138 6.38919C7.09819 8.16507 5.47217 10.3851 4.60431 12.3206C4.37019 12.8428 4.68388 13.4272 5.23548 13.5793L8.4895 14.477ZM25.3594 5.02695C25.1851 4.92354 24.9933 5.12213 25.0902 5.30012C26.6676 8.19758 27.7416 12.5575 26.6506 18.3275C26.5502 18.8581 26.8692 19.3851 27.392 19.52L31.2871 20.5252C31.8372 20.6672 32.398 20.3227 32.4618 19.7582C32.7476 17.2312 32.2515 14.0824 30.8498 11.1856C29.656 8.71825 27.8362 6.49645 25.3594 5.02695ZM36.8966 37C37.1196 37 37.2646 36.7653 37.1649 36.5659L36.5202 35.2764C36.4355 35.107 36.2623 35 36.0729 35H31.3314C31.159 35 30.9987 35.0888 30.9074 35.235L30.0911 36.541C29.9662 36.7408 30.1099 37 30.3455 37H36.8966ZM2.03496 47H48.0459C48.0392 45.5716 47.7103 43.7854 46.7751 42.277C45.6735 40.5003 43.6689 39 40 39H10C8.68292 39 6.66573 39.4481 4.99969 40.7809C3.52832 41.958 2.25878 43.8807 2.03496 47Z"/>
</svg>
