<svg width="39" height="49" viewBox="0 0 39 49" xmlns="http://www.w3.org/2000/svg">
<path fill-rule="evenodd" clip-rule="evenodd" d="M18.8302 0.0613247C18.9399 0.021694 19.0601 0.021694 19.1698 0.0613247L37.6698 6.74188C37.868 6.81343 38 7.0015 38 7.21216V28.0307C38.3462 33.4841 34.914 44.7348 19.206 48.0418L19.0934 48.0655C19.0193 48.0811 18.9426 48.0796 18.8691 48.0613L18.7575 48.0333C14.6806 47.0141 10.0137 45.2135 6.34921 42.0725C2.65158 38.9031 0 34.3853 0 28.0632V7.21216C0 7.00149 0.132038 6.81343 0.330177 6.74188L18.8302 0.0613247ZM2.33018 8.14606C2.13204 8.21761 2 8.40568 2 8.61634V28.0632C2 33.7411 4.34842 37.7233 7.65079 40.5539C10.8908 43.3311 15.0306 45.0402 18.8623 46.0338C18.9376 46.0533 19.0184 46.0542 19.0943 46.0374C33.4555 42.8637 36.3038 32.6536 36.0022 28.1297L36 28.0965V8.61634C36 8.40568 35.868 8.21762 35.6698 8.14606L19.1698 2.18773C19.0601 2.1481 18.9399 2.1481 18.8302 2.18773L2.33018 8.14606ZM19 11.0632C16.5022 11.0632 14.5 13.0654 14.5 15.5632C14.5 18.061 16.5022 20.0632 19 20.0632C21.4978 20.0632 23.5 18.061 23.5 15.5632C23.5 13.0654 21.4978 11.0632 19 11.0632ZM12.5 15.5632C12.5 11.9608 15.3976 9.0632 19 9.0632C22.6024 9.0632 25.5 11.9608 25.5 15.5632C25.5 19.1656 22.6024 22.0632 19 22.0632C15.3976 22.0632 12.5 19.1656 12.5 15.5632ZM15.9546 26.0632H22C24.4551 26.0632 26.1436 27.5152 27.2107 29.139C28.2693 30.7499 28.8082 32.6493 28.99 33.9218C29.076 34.5242 28.6086 35.0632 28 35.0632H10C9.41749 35.0632 8.95827 34.5673 9.00295 33.9865C9.44916 28.1857 13.7139 26.2669 15.9095 26.0673L15.9546 26.0632ZM16.0485 28.0632C14.7276 28.2009 12.0555 29.2891 11.2208 32.7065C11.176 32.8901 11.3182 33.0632 11.5072 33.0632H26.3791C26.5765 33.0632 26.7202 32.8757 26.6621 32.687C26.4142 31.8822 26.0459 31.0084 25.5393 30.2374C24.6897 28.9445 23.5449 28.0632 22 28.0632H16.0485Z"/>
</svg>
