<svg width="49" height="49" viewBox="0 0 49 49" xmlns="http://www.w3.org/2000/svg">
<mask id="mask0" mask-type="alpha" maskUnits="userSpaceOnUse" x="0" y="0" width="19" height="19">
<path fill-rule="evenodd" clip-rule="evenodd" d="M0 0H18.0346V18.0346H0V0Z"/>
</mask>
<g mask="url(#mask0)">
<path fill-rule="evenodd" clip-rule="evenodd" d="M9.01731 1.94874C12.9149 1.94874 16.0859 5.11973 16.0859 9.01731C16.0859 12.9149 12.9149 16.0859 9.01731 16.0859C5.11973 16.0859 1.94874 12.9149 1.94874 9.01731C1.94874 5.11973 5.11973 1.94874 9.01731 1.94874ZM9.01731 18.0346C13.9894 18.0346 18.0346 13.9894 18.0346 9.01731C18.0346 4.0452 13.9894 0 9.01731 0C4.0452 0 0 4.0452 0 9.01731C0 13.9894 4.0452 18.0346 9.01731 18.0346Z"/>
</g>
<path fill-rule="evenodd" clip-rule="evenodd" d="M9.77253 11.1297C9.95999 11.3174 10.2053 11.4112 10.4505 11.4112C10.6968 11.4112 10.9432 11.3166 11.1307 11.1274C11.5051 10.7498 11.5041 10.1386 11.1285 9.76221L9.97536 8.60693V4.32175C9.97536 3.78871 9.54532 3.35645 9.01502 3.35645C8.48473 3.35645 8.05469 3.78871 8.05469 4.32175V9.00782C8.05469 9.2644 8.15639 9.51046 8.33703 9.69155L9.77253 11.1297Z"/>
<path fill-rule="evenodd" clip-rule="evenodd" d="M47.0859 35.7212H36.75V33.8242H41.6188C41.6217 33.8242 41.6245 33.8248 41.6273 33.8248C41.6303 33.8248 41.6333 33.8242 41.6363 33.8242H47.0859V35.7212ZM36.75 39.5152H47.0859V37.6182H36.75V39.5152ZM47.0859 43.3092H42.2222H36.75V41.4122H47.0859V43.3092ZM1.91406 47.1032H47.0859V45.2062H1.91406V47.1032ZM7.27344 42.8349C7.27344 42.2597 7.74573 41.7916 8.32617 41.7916H9.37891H13.207H14.2598C14.8402 41.7916 15.3125 42.2597 15.3125 42.8349V43.3092H7.27344V42.8349ZM12.25 31.453V39.8946H10.3359V31.453C10.3359 30.93 10.7653 30.5045 11.293 30.5045C11.8207 30.5045 12.25 30.93 12.25 31.453ZM14.2598 39.8946H14.1641V38.0924H18.6792V43.3092H17.2266V42.8349C17.2266 41.2136 15.8957 39.8946 14.2598 39.8946ZM1.91406 36.1954V22.9165H6.125H7.46484H20.6719V36.1954H14.1641V31.453C14.1641 29.884 12.8761 28.6075 11.293 28.6075C9.70985 28.6075 8.42188 29.884 8.42188 31.453V36.1954H1.91406ZM22.5859 37.1439V31.8681C22.8812 31.7139 23.1959 31.5995 23.5257 31.5278L27.7118 30.6176L30.0185 36.7313C30.1584 37.1019 30.5156 37.3476 30.9149 37.3476C31.3142 37.3476 31.6714 37.1019 31.8112 36.7313L34.1181 30.6172L38.3301 31.5299C38.6998 31.6099 39.0506 31.7456 39.3734 31.9271H35.793C35.2645 31.9271 34.8359 32.3519 34.8359 32.8756V36.6696V40.4636V43.3091H20.5933V38.0923H21.6289V38.0924C22.1574 38.0924 22.5859 37.6677 22.5859 37.1439ZM32.4284 29.6796L30.9149 33.6911L29.3986 29.6724C29.8895 29.7911 30.4018 29.8555 30.9291 29.8555C31.4454 29.8555 31.9469 29.7935 32.4284 29.6796ZM26.3847 23.4545V22.087H28.1176C29.9192 22.087 31.6299 21.4061 32.9224 20.1957L35.4738 21.6814V23.4545C35.4738 25.938 33.435 27.9585 30.9292 27.9585C28.4234 27.9585 26.3847 25.9379 26.3847 23.4545ZM30.9291 15.3219C33.3153 15.3219 35.2778 17.1538 35.4599 19.4732L33.2352 18.1778C32.8322 17.9431 32.3171 18.0314 32.0169 18.3864C31.0478 19.5326 29.6265 20.1901 28.1176 20.1901H26.3847V20.0671V19.8259H26.3846C26.3846 17.3424 28.4233 15.3219 30.9291 15.3219ZM48.043 31.9272H42.1527C41.3431 30.7858 40.1265 29.9773 38.7389 29.6766L34.5314 28.7648C36.2532 27.6139 37.3879 25.6631 37.3879 23.4544V21.1385V20.0669V19.8258C37.3879 16.2963 34.4905 13.4248 30.9292 13.4248C27.3679 13.4248 24.4706 16.2963 24.4706 19.8258V20.0669V21.1385V23.4544C24.4706 25.6602 25.6023 27.6091 27.3205 28.7606L23.1157 29.6748C22.936 29.7139 22.7594 29.7618 22.5859 29.8173V21.968C22.5859 21.4442 22.1574 21.0195 21.6289 21.0195H7.46484H6.125H0.957031C0.428559 21.0195 0 21.4442 0 21.968V37.1439C0 37.6677 0.428559 38.0924 0.957031 38.0924H8.42188V39.8946H8.32617C6.69022 39.8946 5.35938 41.2136 5.35938 42.8349V43.3092H0.957031C0.428559 43.3092 0 43.7339 0 44.2577V48.0517C0 48.5754 0.428559 49.0001 0.957031 49.0001H48.043C48.5714 49.0001 49 48.5754 49 48.0517V44.2577V40.4637V36.6697V32.8757C49 32.352 48.5714 31.9272 48.043 31.9272Z"/>
</svg>
