<svg width="43" height="48" viewBox="0 0 43 48" fill="none" xmlns="http://www.w3.org/2000/svg">
<path d="M40.4768 21.3962H10.9368V8.16225C10.9368 6.33667 12.4197 4.85377 14.2453 4.85377H28.8971C30.7227 4.85377 32.2056 6.33667 32.2056 8.16225V12.1797C32.2056 12.4396 32.4183 12.6523 32.6782 12.6523H35.9867C36.2467 12.6523 36.4593 12.4396 36.4593 12.1797V8.16225C36.4593 3.98529 33.0741 0.600006 28.8971 0.600006H14.2453C10.0683 0.600006 6.68302 3.98529 6.68302 8.16225V21.3962H2.66558C1.61987 21.3962 0.775024 22.241 0.775024 23.2867V45.9734C0.775024 47.0192 1.61987 47.864 2.66558 47.864H40.4768C41.5225 47.864 42.3673 47.0192 42.3673 45.9734V23.2867C42.3673 22.241 41.5225 21.3962 40.4768 21.3962ZM38.1136 43.6102H5.02878V25.6499H38.1136V43.6102Z" fill="currentColor"/>
<path d="M15.7733 31.1218C15.7733 30.3293 16.0122 29.7 16.4901 29.2339C16.9679 28.7561 17.5797 28.5172 18.3256 28.5172C19.0714 28.5172 19.6832 28.7561 20.161 29.2339C20.6389 29.7 20.8778 30.3293 20.8778 31.1218C20.8778 31.9259 20.6389 32.5669 20.161 33.0447C19.6832 33.5109 19.0714 33.7439 18.3256 33.7439C17.5797 33.7439 16.9679 33.5109 16.4901 33.0447C16.0122 32.5669 15.7733 31.9259 15.7733 31.1218ZM25.9822 28.7094L18.9024 40.9111H17.3291L24.4089 28.7094H25.9822ZM18.3256 29.4961C17.9293 29.4961 17.6147 29.6359 17.3816 29.9156C17.1602 30.1837 17.0494 30.5857 17.0494 31.1218C17.0494 31.6579 17.1602 32.0658 17.3816 32.3455C17.6147 32.6252 17.9293 32.765 18.3256 32.765C18.7218 32.765 19.0364 32.6252 19.2695 32.3455C19.5026 32.0541 19.6191 31.6462 19.6191 31.1218C19.6191 30.5857 19.5026 30.1837 19.2695 29.9156C19.0364 29.6359 18.7218 29.4961 18.3256 29.4961ZM22.4685 38.4987C22.4685 37.6946 22.7074 37.0595 23.1852 36.5933C23.6631 36.1155 24.2749 35.8766 25.0207 35.8766C25.7666 35.8766 26.3726 36.1155 26.8388 36.5933C27.3166 37.0595 27.5555 37.6946 27.5555 38.4987C27.5555 39.2912 27.3166 39.9264 26.8388 40.4042C26.3726 40.882 25.7666 41.1209 25.0207 41.1209C24.2749 41.1209 23.6631 40.8878 23.1852 40.4216C22.7074 39.9438 22.4685 39.3029 22.4685 38.4987ZM25.0033 36.873C24.607 36.873 24.2924 37.0129 24.0593 37.2926C23.8262 37.5606 23.7097 37.9627 23.7097 38.4987C23.7097 39.0232 23.8262 39.4252 24.0593 39.7049C24.2924 39.973 24.607 40.107 25.0033 40.107C25.3995 40.107 25.7141 39.973 25.9472 39.7049C26.1803 39.4252 26.2968 39.0232 26.2968 38.4987C26.2968 37.9627 26.1803 37.5606 25.9472 37.2926C25.7141 37.0129 25.3995 36.873 25.0033 36.873Z" fill="currentColor"/>
<path fill-rule="evenodd" clip-rule="evenodd" d="M20.5132 33.4057C19.9299 33.9748 19.1863 34.2482 18.3257 34.2482C17.4651 34.2482 16.7215 33.9748 16.1381 33.4057L16.1337 33.4013C15.5436 32.8113 15.2693 32.0325 15.2693 31.1219C15.2693 30.2221 15.5444 29.4537 16.1359 28.8753C16.7182 28.2942 17.4624 28.0131 18.3257 28.0131C19.1889 28.0131 19.9332 28.2942 20.5155 28.8753C21.107 29.4537 21.382 30.2221 21.382 31.1219C21.382 32.0325 21.1077 32.8113 20.5177 33.4013L20.5132 33.4057ZM20.161 29.2339C19.6832 28.7561 19.0714 28.5172 18.3256 28.5172C17.5797 28.5172 16.9679 28.7561 16.4901 29.2339C16.0122 29.7 15.7733 30.3293 15.7733 31.1218C15.7733 31.9259 16.0122 32.5669 16.4901 33.0447C16.9679 33.5109 17.5797 33.7439 18.3256 33.7439C19.0714 33.7439 19.6832 33.5109 20.161 33.0447C20.6389 32.5669 20.8778 31.9259 20.8778 31.1218C20.8778 30.3293 20.6389 29.7 20.161 29.2339ZM26.8577 28.2054L19.1929 41.4154H16.4539L24.1187 28.2054H26.8577ZM18.8823 30.2385C18.7543 30.0848 18.5873 30.0004 18.3257 30.0004C18.0645 30.0004 17.8977 30.0845 17.7697 30.2376C17.6543 30.3779 17.5537 30.6435 17.5537 31.1219C17.5537 31.5941 17.6517 31.8713 17.7732 32.0278C17.9007 32.1784 18.0669 32.261 18.3257 32.261C18.5851 32.261 18.7514 32.178 18.8791 32.0267C19.015 31.8545 19.1151 31.574 19.1151 31.1219C19.1151 30.6476 19.0105 30.386 18.8892 30.2466L18.8823 30.2385ZM19.2695 32.3455C19.0364 32.6252 18.7218 32.765 18.3256 32.765C17.9293 32.765 17.6147 32.6252 17.3816 32.3455C17.1602 32.0658 17.0494 31.6579 17.0494 31.1218C17.0494 30.5857 17.1602 30.1837 17.3816 29.9156C17.6147 29.6359 17.9293 29.4961 18.3256 29.4961C18.7218 29.4961 19.0364 29.6359 19.2695 29.9156C19.5026 30.1837 19.6191 30.5857 19.6191 31.1218C19.6191 31.6462 19.5026 32.0541 19.2695 32.3455ZM24.0593 37.2926C24.2924 37.0129 24.607 36.873 25.0033 36.873C25.3995 36.873 25.7141 37.0129 25.9472 37.2926C26.1803 37.5606 26.2968 37.9627 26.2968 38.4987C26.2968 39.0232 26.1803 39.4252 25.9472 39.7049C25.7141 39.973 25.3995 40.107 25.0033 40.107C24.607 40.107 24.2924 39.973 24.0593 39.7049C23.8262 39.4252 23.7097 39.0232 23.7097 38.4987C23.7097 37.9627 23.8262 37.5606 24.0593 37.2926ZM24.4434 39.3783C24.5686 39.5203 24.7367 39.603 25.0034 39.603C25.27 39.603 25.4381 39.5203 25.5634 39.3783C25.6922 39.2212 25.7928 38.9523 25.7928 38.4989C25.7928 38.0246 25.6882 37.763 25.5669 37.6235L25.56 37.6155C25.4319 37.4618 25.265 37.3773 25.0034 37.3773C24.7418 37.3773 24.5748 37.4617 24.4467 37.6154L24.4399 37.6236C24.3187 37.763 24.2139 38.0246 24.2139 38.4989C24.2139 38.9523 24.3146 39.2212 24.4434 39.3783ZM22.8289 40.7783C22.2388 40.1882 21.9645 39.4094 21.9645 38.4989C21.9645 37.5899 22.2381 36.8146 22.8311 36.2348C23.4134 35.6536 24.1576 35.3726 25.0209 35.3726C25.8829 35.3726 26.6234 35.6531 27.1954 36.237C27.7868 36.8165 28.0597 37.591 28.0597 38.4989C28.0597 39.399 27.7847 40.1702 27.1976 40.7586C26.6253 41.344 25.884 41.6252 25.0209 41.6252C24.1603 41.6252 23.4167 41.3518 22.8333 40.7826L22.8289 40.7783ZM26.8388 40.4042C27.3166 39.9264 27.5555 39.2912 27.5555 38.4987C27.5555 37.6946 27.3166 37.0595 26.8388 36.5933C26.3726 36.1155 25.7666 35.8766 25.0207 35.8766C24.2749 35.8766 23.6631 36.1155 23.1852 36.5933C22.7074 37.0595 22.4685 37.6946 22.4685 38.4987C22.4685 39.3029 22.7074 39.9438 23.1852 40.4216C23.6631 40.8878 24.2749 41.1209 25.0207 41.1209C25.7666 41.1209 26.3726 40.882 26.8388 40.4042ZM25.9822 28.7094H24.4089L17.3291 40.9111H18.9024L25.9822 28.7094Z" fill="currentColor"/>
</svg>
