<svg width="43" height="48" viewBox="0 0 43 48" fill="none" xmlns="http://www.w3.org/2000/svg">
<path d="M40.2268 21.3962H36.2093V8.16225C36.2093 3.98529 32.8241 0.600006 28.6471 0.600006H13.9953C9.81831 0.600006 6.43302 3.98529 6.43302 8.16225V21.3962H2.41558C1.36987 21.3962 0.525024 22.241 0.525024 23.2867V45.9734C0.525024 47.0192 1.36987 47.864 2.41558 47.864H40.2268C41.2725 47.864 42.1173 47.0192 42.1173 45.9734V23.2867C42.1173 22.241 41.2725 21.3962 40.2268 21.3962ZM10.6868 8.16225C10.6868 6.33667 12.1697 4.85377 13.9953 4.85377H28.6471C30.4727 4.85377 31.9556 6.33667 31.9556 8.16225V21.3962H10.6868V8.16225ZM37.8636 43.6102H4.77878V25.6499H37.8636V43.6102Z" fill="currentColor"/>
<path d="M15.5233 31.1218C15.5233 30.3293 15.7622 29.7 16.2401 29.2339C16.7179 28.7561 17.3297 28.5172 18.0756 28.5172C18.8214 28.5172 19.4332 28.7561 19.911 29.2339C20.3889 29.7 20.6278 30.3293 20.6278 31.1218C20.6278 31.9259 20.3889 32.5669 19.911 33.0447C19.4332 33.5109 18.8214 33.7439 18.0756 33.7439C17.3297 33.7439 16.7179 33.5109 16.2401 33.0447C15.7622 32.5669 15.5233 31.9259 15.5233 31.1218ZM25.7322 28.7094L18.6524 40.9111H17.0791L24.1589 28.7094H25.7322ZM18.0756 29.4961C17.6793 29.4961 17.3647 29.6359 17.1316 29.9156C16.9102 30.1837 16.7994 30.5857 16.7994 31.1218C16.7994 31.6579 16.9102 32.0658 17.1316 32.3455C17.3647 32.6252 17.6793 32.765 18.0756 32.765C18.4718 32.765 18.7864 32.6252 19.0195 32.3455C19.2526 32.0541 19.3691 31.6462 19.3691 31.1218C19.3691 30.5857 19.2526 30.1837 19.0195 29.9156C18.7864 29.6359 18.4718 29.4961 18.0756 29.4961ZM22.2185 38.4987C22.2185 37.6946 22.4574 37.0595 22.9352 36.5933C23.4131 36.1155 24.0249 35.8766 24.7707 35.8766C25.5166 35.8766 26.1226 36.1155 26.5888 36.5933C27.0666 37.0595 27.3055 37.6946 27.3055 38.4987C27.3055 39.2912 27.0666 39.9264 26.5888 40.4042C26.1226 40.882 25.5166 41.1209 24.7707 41.1209C24.0249 41.1209 23.4131 40.8878 22.9352 40.4216C22.4574 39.9438 22.2185 39.3029 22.2185 38.4987ZM24.7533 36.873C24.357 36.873 24.0424 37.0129 23.8093 37.2926C23.5762 37.5606 23.4597 37.9627 23.4597 38.4987C23.4597 39.0232 23.5762 39.4252 23.8093 39.7049C24.0424 39.973 24.357 40.107 24.7533 40.107C25.1495 40.107 25.4641 39.973 25.6972 39.7049C25.9303 39.4252 26.0468 39.0232 26.0468 38.4987C26.0468 37.9627 25.9303 37.5606 25.6972 37.2926C25.4641 37.0129 25.1495 36.873 24.7533 36.873Z" fill="currentColor"/>
<path fill-rule="evenodd" clip-rule="evenodd" d="M20.2632 33.4057C19.6799 33.9748 18.9363 34.2482 18.0757 34.2482C17.2151 34.2482 16.4715 33.9748 15.8881 33.4057L15.8837 33.4013C15.2936 32.8113 15.0193 32.0325 15.0193 31.1219C15.0193 30.2221 15.2944 29.4537 15.8859 28.8753C16.4682 28.2942 17.2124 28.0131 18.0757 28.0131C18.9389 28.0131 19.6832 28.2942 20.2655 28.8753C20.857 29.4537 21.132 30.2221 21.132 31.1219C21.132 32.0325 20.8577 32.8113 20.2677 33.4013L20.2632 33.4057ZM19.911 29.2339C19.4332 28.7561 18.8214 28.5172 18.0756 28.5172C17.3297 28.5172 16.7179 28.7561 16.2401 29.2339C15.7622 29.7 15.5233 30.3293 15.5233 31.1218C15.5233 31.9259 15.7622 32.5669 16.2401 33.0447C16.7179 33.5109 17.3297 33.7439 18.0756 33.7439C18.8214 33.7439 19.4332 33.5109 19.911 33.0447C20.3889 32.5669 20.6278 31.9259 20.6278 31.1218C20.6278 30.3293 20.3889 29.7 19.911 29.2339ZM26.6077 28.2054L18.9429 41.4154H16.2039L23.8687 28.2054H26.6077ZM18.6323 30.2385C18.5043 30.0848 18.3373 30.0004 18.0757 30.0004C17.8145 30.0004 17.6477 30.0845 17.5197 30.2376C17.4043 30.3779 17.3037 30.6435 17.3037 31.1219C17.3037 31.5941 17.4017 31.8713 17.5232 32.0278C17.6507 32.1784 17.8169 32.261 18.0757 32.261C18.3351 32.261 18.5014 32.178 18.6291 32.0267C18.765 31.8545 18.8651 31.574 18.8651 31.1219C18.8651 30.6476 18.7605 30.386 18.6392 30.2466L18.6323 30.2385ZM19.0195 32.3455C18.7864 32.6252 18.4718 32.765 18.0756 32.765C17.6793 32.765 17.3647 32.6252 17.1316 32.3455C16.9102 32.0658 16.7994 31.6579 16.7994 31.1218C16.7994 30.5857 16.9102 30.1837 17.1316 29.9156C17.3647 29.6359 17.6793 29.4961 18.0756 29.4961C18.4718 29.4961 18.7864 29.6359 19.0195 29.9156C19.2526 30.1837 19.3691 30.5857 19.3691 31.1218C19.3691 31.6462 19.2526 32.0541 19.0195 32.3455ZM23.8093 37.2926C24.0424 37.0129 24.357 36.873 24.7533 36.873C25.1495 36.873 25.4641 37.0129 25.6972 37.2926C25.9303 37.5606 26.0468 37.9627 26.0468 38.4987C26.0468 39.0232 25.9303 39.4252 25.6972 39.7049C25.4641 39.973 25.1495 40.107 24.7533 40.107C24.357 40.107 24.0424 39.973 23.8093 39.7049C23.5762 39.4252 23.4597 39.0232 23.4597 38.4987C23.4597 37.9627 23.5762 37.5606 23.8093 37.2926ZM24.1934 39.3783C24.3186 39.5203 24.4867 39.603 24.7534 39.603C25.02 39.603 25.1881 39.5203 25.3134 39.3783C25.4422 39.2212 25.5428 38.9523 25.5428 38.4989C25.5428 38.0246 25.4382 37.763 25.3169 37.6235L25.31 37.6155C25.1819 37.4618 25.015 37.3773 24.7534 37.3773C24.4918 37.3773 24.3248 37.4617 24.1967 37.6154L24.1899 37.6236C24.0687 37.763 23.9639 38.0246 23.9639 38.4989C23.9639 38.9523 24.0646 39.2212 24.1934 39.3783ZM22.5789 40.7783C21.9888 40.1882 21.7145 39.4094 21.7145 38.4989C21.7145 37.5899 21.9881 36.8146 22.5811 36.2348C23.1634 35.6536 23.9076 35.3726 24.7709 35.3726C25.6329 35.3726 26.3734 35.6531 26.9454 36.237C27.5368 36.8165 27.8097 37.591 27.8097 38.4989C27.8097 39.399 27.5347 40.1702 26.9476 40.7586C26.3753 41.344 25.634 41.6252 24.7709 41.6252C23.9103 41.6252 23.1667 41.3518 22.5833 40.7826L22.5789 40.7783ZM26.5888 40.4042C27.0666 39.9264 27.3055 39.2912 27.3055 38.4987C27.3055 37.6946 27.0666 37.0595 26.5888 36.5933C26.1226 36.1155 25.5166 35.8766 24.7707 35.8766C24.0249 35.8766 23.4131 36.1155 22.9352 36.5933C22.4574 37.0595 22.2185 37.6946 22.2185 38.4987C22.2185 39.3029 22.4574 39.9438 22.9352 40.4216C23.4131 40.8878 24.0249 41.1209 24.7707 41.1209C25.5166 41.1209 26.1226 40.882 26.5888 40.4042ZM25.7322 28.7094H24.1589L17.0791 40.9111H18.6524L25.7322 28.7094Z" fill="currentColor"/>
</svg>
