<svg width="22" height="26" viewBox="0 0 22 26" fill="none" xmlns="http://www.w3.org/2000/svg">
<path d="M18.375 11.5V12H18.875H21C21.277 12 21.5 12.223 21.5 12.5V24.5C21.5 24.777 21.277 25 21 25H1C0.723017 25 0.5 24.777 0.5 24.5V12.5C0.5 12.223 0.723017 12 1 12H3.125H3.625V11.5V4.5C3.625 2.56677 5.19177 1 7.125 1H14.875C16.8082 1 18.375 2.56677 18.375 4.5V11.5ZM16.625 12H17.125V11.5V4.5C17.125 3.25823 16.1168 2.25 14.875 2.25H7.125C5.88323 2.25 4.875 3.25823 4.875 4.5V11.5V12H5.375H16.625ZM19.75 23.75H20.25V23.25V13.75V13.25H19.75H2.25H1.75V13.75V23.25V23.75H2.25H19.75ZM10.625 18.9062V18.6497L10.4166 18.5001C10.2446 18.3766 10.1162 18.2017 10.05 18.0007C9.98368 17.7996 9.98292 17.5826 10.0478 17.3811C10.1126 17.1795 10.2398 17.0038 10.4109 16.8791C10.582 16.7544 10.7883 16.6872 11 16.6872C11.2117 16.6872 11.418 16.7544 11.5891 16.8791C11.7602 17.0038 11.8874 17.1795 11.9522 17.3811C12.0171 17.5826 12.0163 17.7996 11.95 18.0007C11.8838 18.2017 11.7554 18.3766 11.5834 18.5001L11.375 18.6497V18.9062V20.3125H10.625V18.9062Z"  stroke="currentColor"/>
</svg>
