<svg width="12" height="12" viewBox="0 0 12 12" fill="none" xmlns="http://www.w3.org/2000/svg">
<path d="M1.96829 5.90859C1.98001 5.39648 2.08548 4.89961 2.28353 4.43203C2.48626 3.95156 2.77689 3.52148 3.1472 3.15C3.51751 2.77852 3.94876 2.48789 4.42923 2.28516C4.9261 2.07539 5.45345 1.96875 5.99837 1.96875C6.54329 1.96875 7.07064 2.07539 7.56634 2.28516C8.04543 2.48747 8.48049 2.78123 8.8472 3.15C8.96321 3.26602 9.0722 3.38906 9.17298 3.51797L8.46751 4.06875C8.45355 4.07955 8.44292 4.09407 8.43685 4.11064C8.43078 4.1272 8.4295 4.14515 8.43318 4.16241C8.43685 4.17967 8.44532 4.19555 8.45761 4.20821C8.4699 4.22087 8.48552 4.2298 8.50267 4.23398L10.5617 4.73789C10.6202 4.75195 10.6777 4.70742 10.6777 4.64766L10.687 2.52773C10.687 2.44922 10.5968 2.40469 10.5359 2.45391L9.87493 2.9707C8.97376 1.81758 7.5722 1.07812 5.9972 1.07812C3.31243 1.07812 1.12806 3.22969 1.07767 5.90391C1.07735 5.91641 1.07955 5.92886 1.08412 5.9405C1.08869 5.95215 1.09555 5.96276 1.10428 5.97172C1.11302 5.98067 1.12346 5.98779 1.13499 5.99265C1.14652 5.9975 1.1589 6 1.17142 6H1.87454C1.9261 6 1.96712 5.95898 1.96829 5.90859ZM10.8277 6H10.1245C10.073 6 10.032 6.04102 10.0308 6.09141C10.0191 6.60352 9.9136 7.10039 9.71556 7.56797C9.51282 8.04844 9.2222 8.47969 8.85189 8.85C8.47811 9.22532 8.03374 9.52292 7.54439 9.72566C7.05504 9.9284 6.5304 10.0323 6.00071 10.0312C5.47121 10.0322 4.94674 9.92837 4.45759 9.72563C3.96843 9.52288 3.52426 9.22528 3.15071 8.85C3.0347 8.73398 2.92571 8.61094 2.82493 8.48203L3.5304 7.93125C3.54436 7.92045 3.55499 7.90593 3.56106 7.88936C3.56713 7.8728 3.56841 7.85485 3.56474 7.83759C3.56106 7.82033 3.55259 7.80445 3.5403 7.79179C3.52801 7.77913 3.51239 7.7702 3.49524 7.76602L1.43626 7.26211C1.37767 7.24805 1.32024 7.29258 1.32024 7.35234L1.31204 9.47344C1.31204 9.55195 1.40228 9.59648 1.46321 9.54727L2.12415 9.03047C3.02532 10.1824 4.42689 10.9219 6.00189 10.9219C8.68782 10.9219 10.871 8.76914 10.9214 6.09609C10.9217 6.08359 10.9195 6.07114 10.915 6.0595C10.9104 6.04785 10.9035 6.03724 10.8948 6.02828C10.8861 6.01933 10.8756 6.01221 10.8641 6.00735C10.8526 6.0025 10.8402 6 10.8277 6Z" fill="currentColor"/>
</svg>
