<svg width="392" height="278" viewBox="0 0 392 278" fill="none" xmlns="http://www.w3.org/2000/svg">
<path d="M391.999 241.832H0V242.028H391.999V241.832Z" fill="#F4F3F2"/>
<path d="M61.5129 249.297H41.1289V249.493H61.5129V249.297Z" fill="#F4F3F2"/>
<path d="M157.137 247.172H114.723V247.368H157.137V247.172Z" fill="#F4F3F2"/>
<path d="M82.9317 256.581H62.2969V256.777H82.9317V256.581Z" fill="#F4F3F2"/>
<path d="M352.721 255.265H337.645V255.461H352.721V255.265Z" fill="#F4F3F2"/>
<path d="M330.657 255.265H306.91V255.461H330.657V255.265Z" fill="#F4F3F2"/>
<path d="M245.228 251.946H202.453V252.142H245.228V251.946Z" fill="#F4F3F2"/>
<path d="M345.939 159.452H324.379V241.832H345.939V159.452Z" fill="#F4F3F2"/>
<path d="M341.847 241.831H345.94V230.179H337.551L341.847 241.831Z" fill="#F4F3F2"/>
<path d="M222.912 159.451H201.352V241.831H222.912V159.451Z" fill="#F4F3F2"/>
<path d="M345.94 159.451H219.34V234.68H345.94V159.451Z" fill="#F4F3F2"/>
<path d="M223.547 163.262V220.111H261.077V163.262H223.547Z" fill="#F4F3F2"/>
<path d="M246.025 166.525H238.6C237.004 166.525 235.424 166.199 233.958 165.568C232.491 164.937 231.169 164.014 230.07 162.855H254.555C253.456 164.014 252.134 164.937 250.667 165.568C249.201 166.199 247.621 166.525 246.025 166.525Z" fill="#F4F3F2"/>
<path d="M263.879 163.27V220.119H301.409V163.27H263.879Z" fill="#F4F3F2"/>
<path d="M286.732 166.524H279.307C277.712 166.523 276.134 166.196 274.669 165.565C273.204 164.935 271.883 164.012 270.785 162.854H295.262C294.163 164.013 292.841 164.936 291.374 165.567C289.908 166.198 288.328 166.524 286.732 166.524Z" fill="#F4F3F2"/>
<path d="M304.207 163.262V220.111H341.737V163.262H304.207Z" fill="#F4F3F2"/>
<path d="M327.06 166.524H319.635C318.039 166.524 316.459 166.198 314.993 165.567C313.526 164.936 312.204 164.013 311.105 162.854H335.551C334.457 164.008 333.14 164.929 331.681 165.559C330.222 166.19 328.65 166.518 327.06 166.524Z" fill="#F4F3F2"/>
<path d="M223.432 241.831H219.34V230.179H227.729L223.432 241.831Z" fill="#F4F3F2"/>
<path d="M172.291 0H53.5156V111.267H172.291V0Z" fill="#F4F3F2"/>
<path d="M176.557 0H55.5078V111.267H176.557V0Z" fill="#F4F3F2"/>
<path d="M172.291 111.259H53.5156V119.186H172.291V111.259Z" fill="#F4F3F2"/>
<path d="M183.659 111.259H62.6094V119.186H183.659V111.259Z" fill="#F4F3F2"/>
<path d="M170.59 105.292V5.97461L61.4809 5.97461V105.292H170.59Z" fill="white"/>
<path d="M64.2398 71.5903C64.3528 71.5903 64.4613 71.5459 64.5419 71.4667C64.6226 71.3876 64.6689 71.2799 64.671 71.1669V9.85605C64.6689 9.74303 64.6226 9.63534 64.5419 9.55615C64.4613 9.47696 64.3528 9.4326 64.2398 9.43262C64.1275 9.43262 64.0198 9.47723 63.9404 9.55664C63.861 9.63605 63.8164 9.74375 63.8164 9.85605V71.1669C63.8164 71.2792 63.861 71.3869 63.9404 71.4663C64.0198 71.5457 64.1275 71.5903 64.2398 71.5903Z" fill="#F4F3F2"/>
<path d="M170.59 105.292V5.97461H169.829V105.292H170.59Z" fill="#F4F3F2"/>
<path opacity="0.5" d="M177.969 16.2626H59.1933L58.6445 8.2959H177.42L177.969 16.2626Z" fill="#F4F3F2"/>
<path opacity="0.5" d="M177.969 22.1044H59.1933L58.6445 14.1299H177.42L177.969 22.1044Z" fill="#F4F3F2"/>
<path opacity="0.5" d="M177.969 29.1064H59.1933L58.6445 21.1318H177.42L177.969 29.1064Z" fill="#F4F3F2"/>
<path opacity="0.5" d="M177.969 36.8915H59.1933L58.6445 28.9248H177.42L177.969 36.8915Z" fill="#F4F3F2"/>
<path opacity="0.5" d="M177.969 46.2314H59.1933L58.6445 38.2568H177.42L177.969 46.2314Z" fill="#F4F3F2"/>
<path opacity="0.5" d="M177.969 56.7382H59.1933L58.6445 48.7637H177.42L177.969 56.7382Z" fill="#F4F3F2"/>
<path d="M179.244 167.96H144.09V241.825H179.244V167.96Z" fill="#F4F3F2"/>
<path d="M175.708 241.832H179.244V231.771H172L175.708 241.832Z" fill="#F4F3F2"/>
<path d="M92.7717 167.96H57.6172V241.825H92.7717V167.96Z" fill="#F4F3F2"/>
<path d="M179.236 167.96H89.6797V235.654H179.236V167.96Z" fill="#F4F3F2"/>
<path d="M176.502 170.963H92.4258V189.531H176.502V170.963Z" fill="#F4F3F2"/>
<path d="M138.431 176.733H130.489C127.039 176.733 123.747 174.444 121.371 170.397H147.557C145.181 174.444 141.904 176.733 138.431 176.733Z" fill="#F4F3F2"/>
<path d="M93.2155 241.832H89.6797V231.771H96.9238L93.2155 241.832Z" fill="#F4F3F2"/>
<path d="M176.502 192.526H92.4258V211.094H176.502V192.526Z" fill="#F4F3F2"/>
<path d="M138.431 198.297H130.489C127.039 198.297 123.747 196.007 121.371 191.961H147.557C145.181 195.999 141.904 198.297 138.431 198.297Z" fill="#F4F3F2"/>
<path d="M176.502 214.09H92.4258V232.658H176.502V214.09Z" fill="#F4F3F2"/>
<path d="M138.431 219.863H130.489C127.039 219.863 123.747 217.573 121.371 213.527H147.557C145.181 217.573 141.904 219.863 138.431 219.863Z" fill="#F4F3F2"/>
<path d="M321.181 15.2734H252.926V106.577H321.181V15.2734Z" fill="#F4F3F2"/>
<path d="M325.619 15.2734H253.883V106.577H325.619V15.2734Z" fill="#F4F3F2"/>
<path d="M315.688 96.6429V25.2012L263.81 25.2012V96.6429H315.688Z" fill="white"/>
<path d="M315.688 96.6429V25.2012H314.911V96.6429H315.688Z" fill="#F4F3F2"/>
<path d="M290.713 45.8096H275.182C275.028 45.8096 274.88 45.8707 274.771 45.9795C274.663 46.0883 274.602 46.2359 274.602 46.3898V61.9155C274.614 65.655 276.105 69.2379 278.749 71.8821C281.392 74.5264 284.975 76.0174 288.714 76.0298H304.213C304.367 76.0298 304.515 75.9686 304.623 75.8598C304.732 75.751 304.793 75.6034 304.793 75.4495V59.9552C304.789 56.2157 303.306 52.6295 300.668 49.9794C298.031 47.3293 294.452 45.8303 290.713 45.8096ZM288.776 74.885C285.338 74.8788 282.041 73.5108 279.608 71.0804C277.175 68.6499 275.804 65.3548 275.793 61.9155V47.0171H290.689C294.127 47.0171 297.426 48.3777 299.864 50.8018C302.303 53.2259 303.683 56.5166 303.704 59.9552L288.776 74.885Z" fill="#F4F3F2"/>
<path d="M196.002 277.242C279.954 277.242 348.011 273.268 348.011 268.366C348.011 263.463 279.954 259.489 196.002 259.489C112.049 259.489 43.9922 263.463 43.9922 268.366C43.9922 273.268 112.049 277.242 196.002 277.242Z" fill="#F4F3F2"/>
<path d="M264.819 51.8863C262.59 49.9116 259.688 48.87 256.712 48.9772C254.8 45.1428 250.88 42.8924 246.724 43.653C240.766 44.7429 238.947 51.902 243.087 54.521C244.457 55.3853 245.94 56.0581 247.493 56.5205V56.7087C245.058 57.5845 242.929 59.1449 241.36 61.2022C239.791 63.2595 238.85 65.7263 238.649 68.3059C238.038 77.19 247.571 82.3731 252.761 77.441C253.482 76.7486 254.163 76.0156 254.8 75.2454C255.803 76.6568 256.885 78.0996 258.053 79.6051C271.02 73.6771 273.208 59.1238 264.819 51.8863Z" fill="#333333"/>
<path d="M238.748 86.3963C238.669 87.494 238.575 88.4428 238.434 89.4543C238.293 90.4659 238.16 91.4303 237.995 92.4105C237.666 94.3708 237.211 96.3311 236.749 98.2522C235.793 102.16 234.46 105.965 232.766 109.614L232.601 109.959C232.539 110.093 232.523 110.14 232.405 110.375C232.211 110.761 231.977 111.126 231.708 111.465C231.211 112.104 230.602 112.649 229.912 113.072C228.787 113.752 227.541 114.207 226.243 114.413C224.107 114.744 221.935 114.776 219.791 114.507C215.821 114.018 211.92 113.076 208.164 111.7L209.026 108.564C210.838 108.838 212.727 109.097 214.577 109.261C216.4 109.457 218.232 109.549 220.065 109.536C221.748 109.57 223.429 109.391 225.067 109.003C225.661 108.865 226.222 108.615 226.721 108.266C226.844 108.173 226.947 108.059 227.027 107.928C227.05 107.887 227.065 107.842 227.074 107.795L227.294 107.238C227.623 106.399 227.944 105.552 228.219 104.682C228.493 103.812 228.783 102.949 229.058 102.079C229.552 100.314 230.038 98.5502 230.437 96.7467C230.837 94.9432 231.167 93.1319 231.472 91.3127C231.778 89.4936 232.021 87.6195 232.201 85.9258L238.748 86.3963Z" fill="#FEC3BD"/>
<path d="M234.289 78.5389C231.639 79.2133 229.789 90.1048 229.789 90.1048L237.08 95.0604C237.08 95.0604 244.074 84.0827 242.035 81.1657C239.997 78.2488 238.146 77.598 234.289 78.5389Z" fill="#F8C633"/>
<path opacity="0.2" d="M234.523 80.9707L232.492 91.9485L236.585 94.7243L234.523 80.9707Z" fill="#333333"/>
<path d="M206.303 108.673L201.355 110.602L206.945 113.974C206.945 113.974 210.513 111.912 210.419 109.269L209.87 108.955C209.333 108.646 208.735 108.46 208.118 108.411C207.501 108.363 206.881 108.452 206.303 108.673Z" fill="#FEC3BD"/>
<path opacity="0.1" d="M205.935 108.917L203.489 109.748C203.011 109.91 202.543 110.098 202.086 110.313C202.086 110.313 203.701 110.987 204.508 110.532C205.733 110.625 206.965 110.551 208.17 110.313L205.935 108.917Z" fill="#FEC3BD"/>
<path d="M198.273 114.249L202.484 117.754L206.937 113.974L201.355 110.603L198.273 114.249Z" fill="#FEC3BD"/>
<path d="M248.598 261.814H242.185L241.754 246.947H248.175L248.598 261.814Z" fill="#FEC3BD"/>
<path d="M241.966 261.084H249.171C249.296 261.081 249.418 261.124 249.513 261.205C249.609 261.286 249.671 261.399 249.688 261.523L250.472 267.224C250.488 267.368 250.473 267.514 250.428 267.652C250.384 267.79 250.311 267.917 250.214 268.025C250.117 268.133 249.998 268.219 249.866 268.279C249.734 268.338 249.59 268.369 249.445 268.369C246.937 268.369 245.721 268.181 242.546 268.181C240.602 268.181 234.996 268.385 232.299 268.385C229.602 268.385 229.461 265.719 230.582 265.475C235.616 264.393 239.206 262.903 240.861 261.476C241.169 261.216 241.562 261.076 241.966 261.084Z" fill="#333333"/>
<g opacity="0.2">
<path d="M241.754 246.948L241.973 254.609H248.394L248.175 246.948H241.754Z" fill="#FEC3BD"/>
</g>
<path d="M234.291 78.5402C234.291 78.5402 231.233 79.6223 237.356 117.292H263.424C262.985 106.675 262.977 100.135 268.05 78.3599C264.4 77.6044 260.7 77.1169 256.98 76.9014C253.039 76.6188 249.082 76.6188 245.141 76.9014C240.053 77.364 234.291 78.5402 234.291 78.5402Z" fill="#F8C633"/>
<path d="M252.245 88.8744C250.092 88.8103 247.999 88.1478 246.2 86.9612C246.179 86.9462 246.161 86.9273 246.148 86.9054C246.134 86.8836 246.124 86.8592 246.12 86.8337C246.116 86.8082 246.116 86.7821 246.122 86.7569C246.128 86.7317 246.138 86.7078 246.153 86.6867C246.168 86.6656 246.187 86.6477 246.209 86.6339C246.231 86.6201 246.255 86.6107 246.281 86.6064C246.306 86.602 246.332 86.6027 246.358 86.6084C246.383 86.6141 246.407 86.6247 246.428 86.6397C248.35 87.8996 250.615 88.5324 252.911 88.451C253.766 87.9178 259.677 83.9658 260.124 77.1439C260.126 77.1181 260.133 77.093 260.145 77.07C260.157 77.0469 260.173 77.0265 260.192 77.0097C260.212 76.9929 260.235 76.9802 260.26 76.9723C260.284 76.9644 260.31 76.9614 260.336 76.9636C260.361 76.9645 260.386 76.9707 260.409 76.9815C260.432 76.9924 260.453 77.0079 260.47 77.0269C260.486 77.046 260.499 77.0683 260.507 77.0924C260.515 77.1166 260.518 77.1421 260.516 77.1674C260.061 84.1618 254.244 88.0982 253.076 88.8117H252.99C252.739 88.8666 252.488 88.8744 252.245 88.8744Z" fill="white"/>
<path d="M241.148 87.6679C241.115 87.6793 241.079 87.6793 241.046 87.6679C240.761 87.445 240.528 87.1626 240.363 86.8403C240.197 86.518 240.104 86.1636 240.09 85.8017C239.722 83.4023 240.607 79.2307 242.442 77.0587C242.48 77.0223 242.531 77.002 242.583 77.002C242.636 77.002 242.686 77.0223 242.724 77.0587C242.76 77.0954 242.78 77.1446 242.78 77.1959C242.78 77.2472 242.76 77.2965 242.724 77.3332C240.984 79.3562 240.082 83.4493 240.435 85.7547C240.47 86.351 240.731 86.9117 241.164 87.3229C242.248 87.1267 243.302 86.7921 244.3 86.3271C244.348 86.3063 244.402 86.3053 244.451 86.3245C244.499 86.3436 244.538 86.3812 244.559 86.429C244.58 86.4768 244.581 86.531 244.561 86.5795C244.542 86.628 244.505 86.667 244.457 86.6878C243.406 87.1699 242.292 87.5 241.148 87.6679Z" fill="white"/>
<path d="M255.803 63.5615C255.059 67.3724 254.314 74.3511 256.979 76.8917C256.979 76.8917 255.937 80.7496 248.857 80.7496C241.072 80.7496 245.141 76.8917 245.141 76.8917C249.382 75.8723 249.273 72.7201 248.536 69.764L255.803 63.5615Z" fill="#FEC3BD"/>
<path d="M256.972 76.8995C253.032 76.609 249.075 76.609 245.134 76.8995L244.35 76.9701C243.401 78.7657 243.166 81.518 245.432 85.5954C245.432 85.5954 255.812 81.416 258.517 77.0406C258.015 76.9544 257.498 76.923 256.972 76.8995Z" fill="#FEC3BD"/>
<path opacity="0.2" d="M252.839 66.0947L248.527 69.7566C248.713 70.4445 248.837 71.1479 248.896 71.8581C250.519 71.6228 252.745 69.8428 252.918 68.1491C253.017 67.4653 252.99 66.769 252.839 66.0947Z" fill="#333333"/>
<path d="M259.911 56.9694C258.461 63.1719 257.975 65.8222 254.259 68.5039C248.677 72.5343 241.378 69.39 240.931 62.8817C240.539 57.0165 242.985 47.8579 249.555 46.4151C251 46.0893 252.504 46.138 253.924 46.5566C255.345 46.9752 256.635 47.7499 257.672 48.807C258.71 49.8642 259.46 51.1689 259.852 52.5974C260.244 54.0259 260.264 55.5308 259.911 56.9694Z" fill="#FEC3BD"/>
<path d="M237.354 117.291C237.354 117.291 232.289 166.746 232.713 186.294C233.152 206.681 240.608 253.102 240.608 253.102H249.31C249.31 253.102 247.938 207.85 248.706 187.847C249.545 166.048 256.468 117.275 256.468 117.275L237.354 117.291Z" fill="#333333"/>
<path d="M250.042 253.439H239.858L239.113 250.193L250.52 249.793L250.042 253.439Z" fill="#333333"/>
<path opacity="0.2" d="M248.597 129.594C242.199 142.477 247.311 165.977 249.577 174.72C250.737 161.586 252.712 145.535 254.226 133.75C253.23 127.077 251.552 123.65 248.597 129.594Z" fill="#333333"/>
<path d="M278.601 261.814H272.18L269.828 246.947H276.241L278.601 261.814Z" fill="#FEC3BD"/>
<path d="M271.865 261.084H279.102C279.231 261.086 279.355 261.13 279.457 261.209C279.559 261.289 279.632 261.399 279.666 261.523L281.234 267.224C281.272 267.359 281.278 267.502 281.251 267.64C281.224 267.778 281.165 267.908 281.079 268.019C280.993 268.13 280.882 268.22 280.755 268.28C280.628 268.341 280.489 268.371 280.348 268.369C277.832 268.369 276.601 268.18 273.425 268.18C271.473 268.18 265.899 268.384 263.233 268.384C260.568 268.384 260.05 265.718 261.14 265.475C266.032 264.393 269.388 262.903 270.901 261.476C271.163 261.231 271.506 261.091 271.865 261.084Z" fill="#333333"/>
<g opacity="0.2">
<path d="M269.828 246.948L271.043 254.609H277.464L276.249 246.948H269.828Z" fill="#FEC3BD"/>
</g>
<path d="M244.609 117.291C244.609 117.291 249.995 166.746 252.959 186.294C256.04 206.681 269.525 253.102 269.525 253.102H278.164C278.164 253.102 270.92 207.85 269.094 187.847C267.102 166.048 263.661 117.275 263.661 117.275L244.609 117.291Z" fill="#333333"/>
<path d="M278.954 253.439H268.77L267.602 250.193L278.954 249.793V253.439Z" fill="#333333"/>
<path d="M269.603 262.19C269.038 262.233 268.474 262.092 267.995 261.79C267.882 261.703 267.789 261.592 267.725 261.464C267.661 261.336 267.628 261.195 267.627 261.053C267.619 260.972 267.635 260.892 267.671 260.82C267.707 260.748 267.762 260.687 267.831 260.645C268.56 260.221 271.288 261.523 271.594 261.672C271.624 261.686 271.649 261.709 271.667 261.736C271.685 261.764 271.695 261.796 271.696 261.829C271.697 261.859 271.687 261.889 271.668 261.914C271.65 261.938 271.624 261.955 271.594 261.962C270.938 262.098 270.272 262.174 269.603 262.19ZM268.285 260.857C268.191 260.854 268.097 260.873 268.011 260.911C267.983 260.929 267.96 260.955 267.946 260.986C267.932 261.017 267.927 261.051 267.933 261.084C267.934 261.177 267.955 261.269 267.996 261.353C268.037 261.437 268.095 261.511 268.168 261.57C268.607 261.915 269.665 261.978 271.061 261.743C270.189 261.302 269.252 261.003 268.285 260.857Z" fill="#828282"/>
<path d="M271.564 261.961H271.501C270.717 261.616 269 260.236 269.024 259.507C269.024 259.335 269.126 259.123 269.541 259.076C269.697 259.061 269.854 259.076 270.003 259.122C270.152 259.168 270.291 259.243 270.411 259.343C271.305 260.009 271.681 261.742 271.697 261.813C271.702 261.837 271.7 261.862 271.691 261.885C271.683 261.909 271.669 261.93 271.65 261.946C271.624 261.962 271.594 261.968 271.564 261.961ZM269.698 259.358H269.612C269.337 259.358 269.329 259.491 269.329 259.531C269.329 259.97 270.482 261.099 271.321 261.53C271.158 260.78 270.786 260.092 270.247 259.546C270.091 259.423 269.897 259.356 269.698 259.358Z" fill="#828282"/>
<path d="M249.634 56.9298C249.548 57.4395 249.203 57.8081 248.85 57.714C248.497 57.6199 248.309 57.2043 248.403 56.6868C248.497 56.1692 248.826 55.8085 249.187 55.9026C249.548 55.9967 249.72 56.428 249.634 56.9298Z" fill="#333333"/>
<path d="M243.862 55.9418C243.775 56.4593 243.43 56.82 243.078 56.7651C242.725 56.7102 242.544 56.2476 242.631 55.7379C242.717 55.2282 243.054 54.8597 243.415 54.9146C243.775 54.9695 243.948 55.4321 243.862 55.9418Z" fill="#333333"/>
<path d="M243.559 54.9669L242.391 54.4102C242.391 54.4102 242.861 55.4687 243.559 54.9669Z" fill="#333333"/>
<path d="M245.485 57.1631C244.841 58.25 244.049 59.2422 243.133 60.1114C243.362 60.342 243.638 60.5197 243.943 60.6322C244.247 60.7446 244.573 60.789 244.897 60.7622L245.485 57.1631Z" fill="#F98A7E"/>
<path d="M247.314 63.2414C247.052 63.2333 246.79 63.2097 246.53 63.1708C246.49 63.1632 246.454 63.14 246.43 63.1063C246.407 63.0726 246.398 63.031 246.405 62.9905C246.415 62.9519 246.439 62.9182 246.472 62.8953C246.505 62.8724 246.545 62.8617 246.585 62.865C247.216 62.99 247.869 62.9628 248.488 62.7855C249.107 62.6083 249.675 62.2861 250.144 61.8456C250.174 61.8186 250.213 61.8037 250.254 61.8037C250.294 61.8037 250.334 61.8186 250.364 61.8456C250.392 61.875 250.409 61.9144 250.409 61.9554C250.409 61.9965 250.392 62.0359 250.364 62.0652C249.543 62.8453 248.446 63.2682 247.314 63.2414Z" fill="#333333"/>
<path d="M262.935 47.3077C262.201 46.7829 261.365 46.417 260.482 46.2335C259.768 40.1173 254.868 36.228 249.404 37.4513C243.21 38.847 241.054 46.5393 245.217 49.1583C247.667 50.6513 250.433 51.5509 253.292 51.7851C253.402 56.8506 256.562 61.1946 258.78 61.422C265.115 58.9285 266.754 49.9895 262.935 47.3077Z" fill="#333333"/>
<path d="M260.632 63.0057C260.01 64.0679 258.992 64.8403 257.802 65.1542C256.234 65.562 255.45 64.1427 255.936 62.6686C256.352 61.3356 257.684 59.5321 259.26 59.7751C259.602 59.8377 259.924 59.9843 260.195 60.2017C260.467 60.4191 260.68 60.7005 260.816 61.0208C260.952 61.341 261.007 61.69 260.975 62.0365C260.942 62.3829 260.825 62.716 260.632 63.0057Z" fill="#FEC3BD"/>
<path d="M252.149 56.1442C252.085 56.144 252.022 56.1234 251.97 56.0854C251.918 56.0474 251.879 55.9938 251.859 55.9324C251.444 54.5838 249.727 54.0113 249.711 54.0035C249.635 53.9785 249.572 53.9245 249.536 53.8531C249.5 53.7818 249.494 53.6991 249.519 53.6232C249.544 53.5473 249.598 53.4844 249.669 53.4484C249.741 53.4124 249.823 53.4061 249.899 53.4311C249.978 53.4311 251.938 54.1054 252.439 55.7835C252.451 55.821 252.456 55.8606 252.453 55.9C252.449 55.9393 252.438 55.9776 252.42 56.0127C252.402 56.0477 252.377 56.0787 252.346 56.104C252.316 56.1293 252.281 56.1482 252.243 56.1598C252.211 56.1618 252.179 56.1565 252.149 56.1442Z" fill="#333333"/>
<path d="M242.584 52.9852C242.529 52.9851 242.476 52.9705 242.429 52.943C242.382 52.9154 242.344 52.8758 242.317 52.8284C242.28 52.7572 242.271 52.6744 242.293 52.5971C242.315 52.5198 242.366 52.4538 242.435 52.4128C242.848 52.163 243.315 52.0163 243.797 51.9849C244.278 51.9535 244.76 52.0384 245.202 52.2324C245.264 52.2742 245.308 52.337 245.327 52.409C245.345 52.4811 245.337 52.5574 245.303 52.6237C245.27 52.6901 245.213 52.7419 245.144 52.7694C245.075 52.797 244.998 52.7984 244.928 52.7735C244.575 52.6261 244.191 52.5649 243.81 52.5949C243.428 52.6249 243.059 52.7452 242.733 52.946C242.687 52.9699 242.636 52.9833 242.584 52.9852Z" fill="#333333"/>
<path d="M271.043 85.832C271.827 89.5253 272.344 93.1558 272.784 96.8647C273.247 100.588 273.509 104.334 273.568 108.086C273.568 108.274 273.568 108.658 273.568 109.011C273.568 109.364 273.513 109.638 273.473 109.928C273.379 110.501 273.277 111.026 273.144 111.496C272.893 112.508 272.595 113.441 272.282 114.359C271.655 116.186 270.91 117.911 270.157 119.628C268.625 123.016 266.922 126.324 265.053 129.539L262.105 128.167L263.854 123.015C264.442 121.298 265.006 119.581 265.532 117.864C266.057 116.146 266.566 114.437 267.005 112.767C267.217 111.928 267.397 111.097 267.523 110.312C267.586 109.92 267.633 109.528 267.664 109.215C267.664 109.05 267.664 108.901 267.664 108.768L267.625 108.321C267.484 106.564 267.28 104.792 267.068 103.02L266.331 97.6959C265.79 94.1516 265.187 90.5603 264.583 87.0553L271.043 85.832Z" fill="#FEC3BD"/>
<path d="M268.049 78.3821C270.659 79.1662 273.795 88.168 273.795 88.168L263.658 95.4133C263.658 95.4133 259.966 87.9014 261.063 84.5296C262.208 80.9854 265.062 77.449 268.049 78.3821Z" fill="#F8C633"/>
<path d="M239.553 262.19C239 262.243 238.445 262.101 237.985 261.79C237.878 261.702 237.797 261.587 237.748 261.458C237.7 261.329 237.687 261.189 237.71 261.053C237.715 260.969 237.74 260.888 237.784 260.817C237.828 260.746 237.889 260.687 237.961 260.645C238.745 260.221 241.309 261.523 241.599 261.672C241.627 261.687 241.649 261.711 241.664 261.739C241.678 261.767 241.683 261.799 241.679 261.831C241.675 261.862 241.661 261.891 241.64 261.915C241.619 261.938 241.591 261.955 241.56 261.962C240.899 262.096 240.227 262.172 239.553 262.19ZM238.408 260.857C238.311 260.855 238.215 260.874 238.126 260.911C238.095 260.929 238.07 260.954 238.052 260.984C238.034 261.015 238.025 261.049 238.024 261.084C238.012 261.173 238.021 261.263 238.051 261.348C238.081 261.432 238.131 261.509 238.196 261.57C238.588 261.915 239.647 261.978 241.066 261.743C240.237 261.297 239.338 260.998 238.408 260.857Z" fill="#828282"/>
<path d="M241.543 261.963H241.48C240.696 261.618 239.198 260.238 239.324 259.508C239.324 259.336 239.473 259.124 239.888 259.077C240.04 259.06 240.194 259.075 240.34 259.121C240.486 259.167 240.62 259.243 240.735 259.344C241.519 260.01 241.691 261.743 241.691 261.814C241.695 261.84 241.691 261.866 241.68 261.89C241.669 261.914 241.651 261.933 241.629 261.947C241.603 261.963 241.572 261.969 241.543 261.963ZM240.014 259.359H239.904C239.63 259.359 239.614 259.493 239.606 259.532C239.535 259.971 240.563 261.1 241.339 261.531C241.287 260.805 241.013 260.113 240.555 259.548C240.405 259.419 240.211 259.352 240.014 259.359Z" fill="#828282"/>
<path d="M249.309 55.9562L248.141 55.3916C248.141 55.3916 248.627 56.4266 249.309 55.9562Z" fill="#333333"/>
<path d="M263.814 115.762L264.481 118.115C264.575 118.295 264.355 118.483 264.057 118.483H237.221C236.986 118.483 236.798 118.366 236.782 118.217L236.547 115.864C236.547 115.7 236.735 115.566 236.986 115.566H263.422C263.499 115.566 263.574 115.583 263.642 115.617C263.71 115.651 263.769 115.701 263.814 115.762Z" fill="#333333"/>
<path d="M260.288 118.71H260.993C261.134 118.71 261.236 118.639 261.229 118.553L260.899 115.518C260.899 115.424 260.766 115.354 260.625 115.354H259.919C259.778 115.354 259.668 115.424 259.676 115.518L260.013 118.553C260.005 118.639 260.131 118.71 260.288 118.71Z" fill="#4F4F4F"/>
<path d="M239.215 118.71H239.92C240.061 118.71 240.171 118.639 240.163 118.553L239.826 115.518C239.826 115.424 239.693 115.354 239.552 115.354H238.846C238.705 115.354 238.595 115.424 238.611 115.518L238.94 118.553C238.948 118.639 239.073 118.71 239.215 118.71Z" fill="#4F4F4F"/>
<path d="M249.742 118.71H250.447C250.589 118.71 250.698 118.639 250.683 118.553L250.353 115.518C250.353 115.424 250.22 115.354 250.079 115.354H249.373C249.232 115.354 249.123 115.424 249.138 115.518L249.468 118.553C249.475 118.639 249.601 118.71 249.742 118.71Z" fill="#4F4F4F"/>
<path d="M262.224 127.587L257.246 132.417L263.738 133.068C263.738 133.068 266.09 129.673 264.859 127.297L262.224 127.587Z" fill="#FEC3BD"/>
<path d="M256.508 137.765L261.98 138.016L263.736 133.068L257.245 132.417L256.508 137.765Z" fill="#FEC3BD"/>
<path d="M129.592 262.779C130.211 262.851 130.834 262.698 131.349 262.348C131.42 262.268 131.466 262.168 131.48 262.062C131.494 261.956 131.475 261.848 131.427 261.752C131.391 261.673 131.338 261.603 131.272 261.547C131.205 261.491 131.127 261.452 131.043 261.431C130.118 261.172 127.907 262.317 127.844 262.364C127.819 262.378 127.797 262.398 127.782 262.423C127.767 262.447 127.758 262.476 127.758 262.505C127.759 262.532 127.768 262.558 127.785 262.579C127.802 262.601 127.826 262.616 127.852 262.622C128.426 262.726 129.009 262.778 129.592 262.779ZM130.674 261.666C130.76 261.653 130.847 261.653 130.933 261.666C130.984 261.676 131.032 261.699 131.073 261.731C131.114 261.764 131.147 261.806 131.168 261.854C131.239 262.027 131.168 262.105 131.168 262.152C130.847 262.528 129.389 262.536 128.338 262.387C129.068 262.012 129.859 261.768 130.674 261.666Z" fill="#828282"/>
<path d="M127.878 262.653H127.94C128.677 262.347 130.238 261.085 130.23 260.45C130.23 260.293 130.143 260.105 129.775 260.065C129.493 260.039 129.212 260.123 128.991 260.301C128.386 260.911 127.964 261.68 127.776 262.52C127.768 262.542 127.767 262.566 127.775 262.589C127.782 262.611 127.796 262.631 127.815 262.645C127.835 262.654 127.856 262.657 127.878 262.653ZM129.626 260.301H129.712C129.947 260.301 129.955 260.418 129.955 260.45C129.955 260.842 128.881 261.822 128.105 262.245C128.277 261.573 128.629 260.96 129.124 260.473C129.266 260.359 129.444 260.298 129.626 260.301Z" fill="#828282"/>
<path d="M121.566 262.481H127.329L129.861 249.143H124.099L121.566 262.481Z" fill="#FEC3BD"/>
<path d="M127.384 261.813H121.112C120.991 261.817 120.874 261.858 120.776 261.929C120.678 262 120.604 262.099 120.563 262.213L118.658 267.357C118.608 267.468 118.586 267.591 118.596 267.712C118.606 267.834 118.646 267.952 118.713 268.053C118.781 268.155 118.873 268.238 118.981 268.295C119.09 268.351 119.21 268.38 119.332 268.377C121.614 268.377 124.907 268.204 127.76 268.204C131.092 268.204 130.787 268.392 134.699 268.392C137.051 268.392 138.07 266.001 137.114 265.781C132.755 264.793 132.245 264.691 128.709 262.292C128.328 261.998 127.865 261.831 127.384 261.813Z" fill="#333333"/>
<path opacity="0.2" d="M129.861 249.15L128.551 256.027H122.789L124.098 249.15H129.861Z" fill="#FEC3BD"/>
<path d="M130.294 118.766L134.065 122.725L127.981 124.85C127.981 124.85 125.77 121.62 127.472 119.409L130.294 118.766Z" fill="#FEC3BD"/>
<path d="M135.193 128.262L129.172 129.141L127.98 124.852L134.064 122.727L135.193 128.262Z" fill="#FEC3BD"/>
<path d="M107.689 151.63L137.074 152.924C137.764 152.933 138.436 152.704 138.977 152.276C139.518 151.847 139.896 151.246 140.045 150.572L143.557 132.615C143.63 132.311 143.634 131.994 143.568 131.688C143.502 131.383 143.368 131.096 143.176 130.849C142.984 130.602 142.739 130.401 142.459 130.262C142.179 130.122 141.871 130.047 141.558 130.043L112.174 128.749C111.484 128.739 110.813 128.968 110.272 129.396C109.732 129.825 109.357 130.428 109.21 131.102L105.69 149.058C105.617 149.362 105.614 149.679 105.68 149.985C105.746 150.291 105.88 150.578 106.072 150.825C106.264 151.072 106.509 151.272 106.789 151.412C107.069 151.551 107.377 151.626 107.689 151.63Z" fill="#333333"/>
<path d="M109.703 157.149L146.002 158.717C146.825 158.747 147.628 158.46 148.246 157.916C148.864 157.372 149.251 156.612 149.327 155.792L151.247 133.508C151.286 133.111 151.243 132.711 151.122 132.332C151 131.953 150.802 131.602 150.54 131.303C150.277 131.003 149.957 130.76 149.597 130.589C149.237 130.418 148.847 130.323 148.449 130.308L112.157 128.74C111.334 128.712 110.531 128.999 109.912 129.543C109.293 130.086 108.905 130.845 108.825 131.665L106.904 153.95C106.866 154.346 106.908 154.746 107.03 155.125C107.152 155.505 107.35 155.855 107.612 156.155C107.874 156.454 108.195 156.697 108.555 156.868C108.915 157.039 109.305 157.135 109.703 157.149Z" fill="#F8C633"/>
<path d="M136.333 136.214H136.239L125.702 135.751C125.428 135.74 125.159 135.674 124.911 135.556C124.664 135.438 124.442 135.271 124.261 135.065C124.08 134.859 123.943 134.618 123.858 134.357C123.773 134.096 123.741 133.821 123.766 133.548L124.182 128.741C124.282 127.757 124.751 126.847 125.494 126.194C126.237 125.541 127.199 125.193 128.188 125.22L135.244 125.534C135.754 125.554 136.254 125.678 136.715 125.898C137.175 126.117 137.586 126.428 137.923 126.812C138.259 127.196 138.515 127.644 138.673 128.129C138.831 128.614 138.888 129.127 138.842 129.635L138.442 134.293C138.39 134.817 138.146 135.303 137.756 135.658C137.367 136.012 136.86 136.21 136.333 136.214ZM126.142 133.414L136.106 133.853L136.49 129.431C136.512 129.237 136.493 129.041 136.436 128.855C136.378 128.669 136.283 128.497 136.155 128.35C136.028 128.203 135.871 128.083 135.696 128C135.52 127.916 135.329 127.869 135.134 127.863L128.078 127.549C127.694 127.546 127.322 127.684 127.033 127.937C126.744 128.19 126.558 128.54 126.51 128.921L126.142 133.414Z" fill="#F8C633"/>
<path d="M149.884 158.913L113.593 157.345C112.764 157.299 111.983 156.944 111.403 156.35C110.823 155.757 110.485 154.968 110.457 154.138L109.971 131.704C109.955 131.309 110.022 130.915 110.168 130.547C110.313 130.18 110.534 129.846 110.816 129.569C111.098 129.292 111.436 129.078 111.806 128.939C112.176 128.8 112.571 128.74 112.966 128.764L149.265 130.332C150.094 130.377 150.877 130.731 151.457 131.325C152.038 131.919 152.375 132.709 152.401 133.539L152.879 156.012C152.887 156.403 152.815 156.792 152.666 157.154C152.517 157.516 152.295 157.843 152.014 158.115C151.733 158.388 151.399 158.599 151.032 158.736C150.666 158.874 150.275 158.934 149.884 158.913Z" fill="#F8C633"/>
<path d="M139.135 74.91C138.75 75.6941 138.296 76.5802 137.888 77.4427C137.48 78.3053 137.104 79.1992 136.673 80.0931C135.889 81.8652 135.105 83.6609 134.431 85.4565C133.756 87.2522 133.129 89.0635 132.572 90.8591C132.314 91.753 132.047 92.6548 131.851 93.5408C131.734 93.9878 131.632 94.4347 131.553 94.866L131.428 95.5247C131.381 95.7442 131.334 95.9795 131.318 96.1285C131.318 96.4813 131.224 96.7871 131.208 97.2498C131.193 97.7124 131.153 98.0966 131.153 98.5749C131.153 99.4845 131.153 100.457 131.153 101.421C131.193 103.374 131.31 105.342 131.428 107.365C131.655 111.372 131.992 115.441 132.306 119.456L125.124 120.617C124.152 116.531 123.384 112.477 122.694 108.337C122.365 106.267 122.083 104.174 121.847 102.064C121.738 100.982 121.628 99.9079 121.573 98.771C121.526 98.2221 121.518 97.6183 121.51 97.0224C121.502 96.4264 121.51 95.7521 121.581 95.0777C121.596 94.7705 121.628 94.4643 121.675 94.1603L121.785 93.2978C121.847 92.7175 121.934 92.1529 122.036 91.604C122.224 90.4749 122.459 89.385 122.694 88.295C123.204 86.1308 123.784 84.0137 124.474 81.9593C125.164 79.9049 125.893 77.8662 126.708 75.8745C127.116 74.8786 127.492 73.8828 127.978 72.9026C128.464 71.9225 128.848 70.9659 129.389 69.8916L139.135 74.91Z" fill="#023DA7"/>
<path d="M154.845 115.959C154.845 115.959 149.302 159.023 146.095 176.595C142.755 194.866 130.894 254.694 130.894 254.694H121.133C121.133 254.694 126.103 195.932 128.306 177.991C130.713 158.427 134.578 115.959 134.578 115.959H154.845Z" fill="#333333"/>
<path d="M133.342 250.807C133.39 250.807 132.198 254.861 132.198 254.861H120.328L120.54 251.246L133.342 250.807Z" fill="#023DA7"/>
<path d="M159.566 44.432C159.566 44.9181 159.825 45.318 160.147 45.318C160.468 45.318 160.719 44.9181 160.719 44.432C160.719 43.9458 160.46 43.5459 160.147 43.5459C159.833 43.5459 159.566 43.9458 159.566 44.432Z" fill="#333333"/>
<path d="M159.781 45.3174C160.372 46.8085 161.163 48.212 162.133 49.4889C161.796 49.7276 161.411 49.8899 161.005 49.9644C160.599 50.0389 160.181 50.0238 159.781 49.9202V45.3174Z" fill="#F98A7E"/>
<path d="M157.843 41.7274C157.903 41.7286 157.961 41.7092 158.008 41.6725C158.294 41.4534 158.628 41.3057 158.983 41.2416C159.337 41.1775 159.702 41.1989 160.046 41.304C160.117 41.3297 160.195 41.327 160.264 41.2962C160.333 41.2655 160.387 41.2092 160.415 41.1393C160.441 41.0674 160.438 40.9883 160.408 40.9182C160.377 40.8481 160.321 40.7925 160.25 40.7629C159.816 40.6281 159.355 40.5983 158.907 40.676C158.458 40.7537 158.035 40.9367 157.671 41.2099C157.61 41.2552 157.57 41.3224 157.558 41.3971C157.546 41.4718 157.564 41.5481 157.608 41.6098C157.635 41.647 157.67 41.6772 157.711 41.6977C157.752 41.7182 157.797 41.7284 157.843 41.7274Z" fill="#333333"/>
<path d="M144.13 49.8184C144.914 54.037 145.776 61.7528 142.828 64.5678C142.828 64.5678 143.981 68.8413 151.813 68.8413C160.437 68.8413 155.921 64.5678 155.921 64.5678C151.217 63.4465 151.35 59.9571 152.166 56.7265L144.13 49.8184Z" fill="#FEC3BD"/>
<path d="M141.7 66.0329C141.088 64.6842 140.406 63.1316 141.809 62.6455C143.377 62.1123 151.821 61.5712 154.737 62.5671C155.122 62.6737 155.482 62.8556 155.796 63.1023C156.11 63.349 156.372 63.6555 156.566 64.0041C156.761 64.3527 156.885 64.7364 156.93 65.1331C156.975 65.5298 156.942 65.9316 156.831 66.3152L141.7 66.0329Z" fill="#333333"/>
<path d="M131.482 66.2219C126.441 68.5116 123.305 85.8721 123.305 85.8721L133.191 89.0086C135.133 84.4243 136.747 79.7077 138.02 74.8944C139.816 67.6412 136.64 63.8852 131.482 66.2219Z" fill="#023DA7"/>
<path d="M192.862 109.209H198.946L197.88 116.486C197.88 116.486 193.113 116.313 190.949 112.714L192.862 109.209Z" fill="#FEC3BD"/>
<path d="M204.672 111.743L201.615 117.365L197.852 116.502L198.918 109.226L204.672 111.743Z" fill="#FEC3BD"/>
<path d="M143.296 43.3957C143.664 49.3864 143.578 52.915 146.604 55.9887C151.151 60.6151 158.544 57.8706 159.971 51.8878C161.265 46.5086 160.442 37.6088 154.577 35.2251C153.287 34.6931 151.882 34.5 150.496 34.6642C149.11 34.8284 147.788 35.3445 146.658 36.1632C145.527 36.982 144.625 38.0763 144.037 39.3422C143.448 40.6081 143.193 42.0034 143.296 43.3957Z" fill="#FEC3BD"/>
<path d="M142.608 51.5432C142.608 51.5432 137.198 43.404 138.358 38.0955C139.433 33.2339 150.385 31.5088 154.932 31.995C159.762 32.5204 161.643 34.5983 158.993 38.7855C157.43 39.5267 155.786 40.082 154.093 40.44C154.093 40.44 156.782 43.749 156.806 45.9289C156.022 46.3367 153.599 47.309 153.599 47.309C153.599 47.309 150.165 55.7775 150.064 55.7697C148.739 55.605 145.673 55.558 144.576 55.9736C143.797 54.5542 143.139 53.0722 142.608 51.5432Z" fill="#333333"/>
<path d="M151.226 46.439C151.623 47.8713 152.476 49.1349 153.656 50.0381C155.224 51.2143 156.393 50.093 156.275 48.3366C156.173 46.7683 155.232 44.2356 153.507 43.7416C151.783 43.2476 150.771 44.7139 151.226 46.439Z" fill="#FEC3BD"/>
<path opacity="0.3" d="M150.69 132.057C142.984 133.845 144.418 161.728 145.9 177.622C145.971 177.262 146.026 176.924 146.088 176.595C148.001 166.135 150.737 146.641 152.642 132.574C152.049 132.231 151.375 132.053 150.69 132.057Z" fill="#333333"/>
<path d="M158.149 262.779C158.886 262.779 159.599 262.677 159.842 262.348C159.905 262.261 159.939 262.157 159.939 262.05C159.939 261.943 159.905 261.839 159.842 261.752C159.796 261.672 159.734 261.602 159.66 261.547C159.586 261.492 159.501 261.452 159.411 261.431C158.455 261.172 156.44 262.317 156.354 262.364C156.331 262.379 156.312 262.4 156.301 262.425C156.29 262.45 156.286 262.478 156.291 262.505C156.296 262.533 156.309 262.559 156.329 262.58C156.348 262.601 156.373 262.615 156.401 262.622C156.978 262.724 157.563 262.776 158.149 262.779ZM159.066 261.666C159.152 261.653 159.239 261.653 159.325 261.666C159.38 261.677 159.432 261.699 159.478 261.731C159.524 261.764 159.563 261.806 159.592 261.854C159.693 262.027 159.654 262.105 159.592 262.152C159.325 262.528 157.867 262.536 156.793 262.387C157.496 262.001 158.269 261.756 159.066 261.666Z" fill="#828282"/>
<path d="M156.408 262.653H156.463C157.161 262.347 158.54 261.085 158.431 260.45C158.431 260.293 158.297 260.105 157.921 260.066C157.781 260.044 157.638 260.054 157.503 260.095C157.367 260.136 157.242 260.206 157.137 260.301C156.4 260.905 156.251 262.449 156.243 262.52C156.24 262.544 156.244 262.568 156.253 262.59C156.263 262.612 156.279 262.631 156.298 262.645C156.332 262.662 156.372 262.665 156.408 262.653ZM157.811 260.301H157.897C158.141 260.301 158.156 260.418 158.164 260.45C158.227 260.842 157.286 261.822 156.596 262.245C156.664 261.587 156.938 260.966 157.38 260.473C157.499 260.367 157.652 260.306 157.811 260.301Z" fill="#828282"/>
<path d="M150.074 262.481H155.837L156.409 249.143H150.654L150.074 262.481Z" fill="#FEC3BD"/>
<path d="M155.797 261.813H149.525C149.41 261.814 149.298 261.854 149.208 261.927C149.119 262 149.056 262.101 149.031 262.213L147.879 267.357C147.852 267.481 147.853 267.609 147.882 267.732C147.911 267.855 147.968 267.97 148.048 268.068C148.128 268.166 148.229 268.245 148.344 268.298C148.458 268.352 148.584 268.378 148.71 268.377C150.976 268.377 154.253 268.204 157.107 268.204C160.446 268.204 163.324 268.392 167.236 268.392C169.588 268.392 170.254 266.001 169.266 265.781C164.758 264.793 161.082 264.691 157.185 262.292C156.778 262.003 156.296 261.837 155.797 261.813Z" fill="#333333"/>
<path opacity="0.2" d="M156.404 249.15L156.106 256.027H150.344L150.642 249.15H156.404Z" fill="#FEC3BD"/>
<path d="M165.126 115.959C165.126 115.959 165.91 159.023 165.29 176.595C164.64 194.866 158.234 254.694 158.234 254.694H148.505C148.505 254.694 148.144 195.932 147.721 177.991C147.243 158.427 144.883 115.959 144.883 115.959H165.126Z" fill="#333333"/>
<path d="M160.138 250.806C160.178 250.806 159.582 254.86 159.582 254.86H147.72L147.398 251.245L160.138 250.806Z" fill="#023DA7"/>
<path d="M164.781 66.1669C164.781 66.1669 171.696 76.7055 165.902 119.574H133.366C133.155 114.869 137.082 88.1537 132.52 65.8689C135.924 65.2131 139.368 64.7783 142.829 64.5672C147.19 64.3161 151.561 64.3161 155.922 64.5672C158.912 64.8686 161.874 65.4034 164.781 66.1669Z" fill="#023DA7"/>
<path opacity="0.2" d="M168.215 88.1L161.395 76.8164C161.395 76.8164 163.958 92.8439 167.886 100.074C168.153 95.5257 168.247 91.558 168.215 88.1Z" fill="#333333"/>
<path d="M171.122 74.415C172.244 77.9907 173.474 81.6682 174.737 85.2517C175.999 88.8351 177.316 92.4186 178.759 95.8452L179.307 97.1155C179.357 97.2088 179.399 97.3058 179.433 97.4056C179.465 97.4784 179.502 97.5492 179.543 97.6173C179.891 98.1366 180.296 98.6152 180.75 99.0444C181.985 100.199 183.315 101.248 184.725 102.181C186.199 103.208 187.759 104.196 189.366 105.129C190.973 106.062 192.635 107.019 194.219 107.834L191.169 114.962C187.31 113.546 183.565 111.837 179.966 109.85C178.04 108.775 176.205 107.545 174.478 106.172C173.447 105.342 172.513 104.397 171.695 103.357C171.46 103.028 171.232 102.73 171.005 102.353C170.778 101.977 170.527 101.507 170.456 101.35L169.766 99.9775C167.971 96.3235 166.364 92.6695 164.882 88.9998C163.4 85.3301 162.02 81.6368 160.695 77.826L171.122 74.415Z" fill="#023DA7"/>
<path d="M157.099 68.764C155.084 73.8922 167.338 94.5382 167.338 94.5382L175.311 86.9165C175.311 86.9165 173.571 80.4239 171.25 72.6219C168.961 64.9453 159.02 63.8632 157.099 68.764Z" fill="#023DA7"/>
</svg>
