<svg width="16" height="16" viewBox="0 0 16 16" fill="none" xmlns="http://www.w3.org/2000/svg">
    <path fill-rule="evenodd" clip-rule="evenodd" d="M12.9119 1.30661H14.2728V4.33159L12.9119 3.31164V1.30661ZM14.2728 15.3943V7.43398L8.34312 2.96704C8.31663 2.94616 8.28388 2.9348 8.25015 2.9348C8.21641 2.9348 8.18366 2.94616 8.15718 2.96704L2.22739 7.43398V15.3943C2.22756 15.5549 2.29146 15.7089 2.40506 15.8225C2.51866 15.936 2.67268 15.9999 2.83332 16H13.6669C13.8275 15.9999 13.9816 15.936 14.0952 15.8225C14.2088 15.7089 14.2727 15.5549 14.2728 15.3943ZM15.7133 6.05738L8.34281 0.532211C8.31642 0.511344 8.28376 0.499992 8.25012 0.499992C8.21647 0.499992 8.18381 0.511344 8.15742 0.532211L0.786862 6.05738C0.639366 6.16882 0.541345 6.33356 0.513775 6.51636C0.486204 6.69915 0.531274 6.88547 0.63934 7.03546L0.662893 7.06803C0.716558 7.14503 0.785733 7.20994 0.865975 7.25862C0.946218 7.30729 1.03575 7.33864 1.12883 7.35066C1.2214 7.36643 1.31623 7.36264 1.40725 7.33955C1.49826 7.31646 1.58343 7.27457 1.65728 7.21658L7.8463 2.55463C7.96226 2.466 8.10416 2.41798 8.25012 2.41798C8.39607 2.41798 8.53797 2.466 8.65393 2.55463L14.8429 7.21673C14.9176 7.27303 15.0028 7.31388 15.0935 7.3369C15.1842 7.35993 15.2786 7.36467 15.3712 7.35084C15.4637 7.33701 15.5526 7.3049 15.6326 7.25637C15.7126 7.20784 15.7822 7.14387 15.8372 7.06818L15.8606 7.03591C15.9688 6.88591 16.0139 6.69955 15.9863 6.51671C15.9588 6.33386 15.8608 6.16905 15.7133 6.05753V6.05738ZM4.37072 11.0352C4.37068 10.2679 4.59817 9.51779 5.02443 8.8798C5.45068 8.2418 6.05655 7.74453 6.76542 7.45088C7.47429 7.15722 8.25433 7.08037 9.00688 7.23004C9.75943 7.37971 10.4507 7.74918 10.9933 8.29172C11.5358 8.83427 11.9053 9.52552 12.055 10.2781C12.2047 11.0306 12.1279 11.8106 11.8343 12.5195C11.5406 13.2284 11.0434 13.8343 10.4054 14.2606C9.76744 14.6869 9.01737 14.9144 8.25008 14.9144C7.22159 14.9132 6.23555 14.5041 5.50828 13.7769C4.78101 13.0497 4.37191 12.0636 4.37072 11.0352ZM8.25008 14.3977C7.46001 14.3984 6.69515 14.1196 6.09086 13.6106C6.2703 13.1868 6.57098 12.8254 6.95514 12.5719C7.3393 12.3183 7.78981 12.184 8.25008 12.1857C8.70958 12.1876 9.15855 12.3234 9.54207 12.5765C9.92558 12.8296 10.227 13.189 10.4095 13.6107C9.80515 14.1197 9.04026 14.3985 8.25015 14.3978L8.25008 14.3977ZM7.21912 10.5414C7.21908 10.3375 7.27951 10.1381 7.39278 9.96854C7.50604 9.79897 7.66704 9.66679 7.85543 9.58873C8.04382 9.51066 8.25113 9.49022 8.45113 9.52997C8.65114 9.56973 8.83487 9.66791 8.97907 9.81209C9.12328 9.95627 9.22149 10.14 9.26129 10.34C9.30108 10.54 9.28067 10.7473 9.20264 10.9357C9.12461 11.1241 8.99246 11.2851 8.8229 11.3984C8.65335 11.5117 8.45401 11.5722 8.25008 11.5722C7.97677 11.5719 7.71474 11.4632 7.52145 11.2699C7.32817 11.0767 7.21942 10.8147 7.21906 10.5414H7.21912ZM11.6128 11.0352C11.6135 11.8394 11.3246 12.6171 10.7991 13.2259C10.4533 12.5529 9.8556 12.0437 9.13616 11.8091C9.4062 11.6206 9.60909 11.351 9.71533 11.0393C9.82158 10.7276 9.82565 10.3901 9.72696 10.0759C9.62826 9.76175 9.43193 9.48724 9.16652 9.2923C8.90111 9.09737 8.58044 8.99216 8.25113 8.99196C7.92182 8.99177 7.60103 9.09661 7.33539 9.29124C7.06975 9.48587 6.87311 9.76015 6.77405 10.0742C6.67498 10.3883 6.67866 10.7257 6.78455 11.0376C6.89044 11.3494 7.09301 11.6193 7.36283 11.8081C7.00605 11.9232 6.67555 12.1077 6.39035 12.351C6.10516 12.5944 5.8709 12.8917 5.70106 13.2259C5.34764 12.8147 5.0989 12.3242 4.97607 11.796C4.85325 11.2679 4.85997 10.718 4.99567 10.193C5.13136 9.66805 5.39201 9.1837 5.75538 8.78127C6.11875 8.37884 6.57406 8.07026 7.08248 7.88186C7.5909 7.69345 8.13734 7.6308 8.67521 7.69925C9.21308 7.7677 9.72641 7.96523 10.1714 8.27498C10.6165 8.58473 10.98 8.99752 11.2309 9.47813C11.4819 9.95875 11.6129 10.4929 11.6128 11.0352Z"/>
    </svg>