<svg width="27" height="24" viewBox="0 0 27 24" fill="none" xmlns="http://www.w3.org/2000/svg">
<path d="M2.7 21.3458H8.0875V23.9875H0.0125V8.0063L10.8 0.0155687L18.0237 5.39134C17.4718 5.4591 16.9524 5.58586 16.4655 5.77166C15.9723 5.95987 15.5014 6.20864 15.0528 6.51793L10.8075 3.32335L10.8001 3.31773L10.7926 3.32329L2.69256 9.32329L2.6875 9.31646V9.33333V21.3333V21.3458H2.7ZM13.6964 21.3224L13.6549 21.3458H13.7025H24.0975H24.1451L24.1036 21.3224C23.3152 20.8775 22.4816 20.5437 21.6031 20.3212C20.7245 20.0987 19.8235 19.9875 18.9 19.9875C17.9765 19.9875 17.0755 20.0987 16.1969 20.3212C15.3184 20.5437 14.4848 20.8775 13.6964 21.3224ZM10.8125 23.9875V21.4667C10.8125 21.0022 10.93 20.5655 11.1652 20.1562C11.4004 19.747 11.7195 19.4208 12.1226 19.1774C13.1567 18.578 14.2413 18.1229 15.3764 17.8121C16.5116 17.5012 17.6861 17.3458 18.9 17.3458C20.1139 17.3458 21.2884 17.5012 22.4236 17.8121C23.5588 18.1229 24.6434 18.578 25.6774 19.1774C26.0805 19.4208 26.3996 19.747 26.6348 20.1562C26.87 20.5655 26.9875 21.0022 26.9875 21.4667V23.9875H10.8125ZM18.9 15.9875C17.7782 15.9875 16.8252 15.5999 16.04 14.8244C15.2549 14.049 14.8625 13.1078 14.8625 12C14.8625 10.8922 15.2549 9.95098 16.04 9.17556C16.8252 8.40014 17.7782 8.0125 18.9 8.0125C20.0218 8.0125 20.9748 8.40014 21.76 9.17556C22.5451 9.95098 22.9375 10.8922 22.9375 12C22.9375 13.1078 22.5451 14.049 21.76 14.8244C20.9748 15.5999 20.0218 15.9875 18.9 15.9875ZM18.9 13.3458C19.2856 13.3458 19.6094 13.2169 19.8707 12.9589C20.1319 12.7009 20.2625 12.381 20.2625 12C20.2625 11.619 20.1319 11.2991 19.8707 11.0411C19.6094 10.7831 19.2856 10.6542 18.9 10.6542C18.5144 10.6542 18.1906 10.7831 17.9293 11.0411C17.6681 11.2991 17.5375 11.619 17.5375 12C17.5375 12.381 17.6681 12.7009 17.9293 12.9589C18.1906 13.2169 18.5144 13.3458 18.9 13.3458Z" fill="#023DA7" stroke="#023DA7" stroke-width="0.025"/>
</svg>
