<svg width="31" height="31" viewBox="0 0 31 31" fill="none" xmlns="http://www.w3.org/2000/svg">
    <g clip-path="url(#clip0_93_899)">
    <path fill-rule="evenodd" clip-rule="evenodd" d="M24.8236 1.6132H27.5455V7.66316L24.8236 5.62327V1.6132ZM27.5455 29.7885V13.8679L15.686 4.93407C15.6331 4.8923 15.5676 4.86958 15.5001 4.86958C15.4326 4.86958 15.3671 4.8923 15.3142 4.93407L3.45461 13.8679V29.7885C3.45494 30.1098 3.58274 30.4178 3.80994 30.6449C4.03714 30.872 4.34519 30.9997 4.66645 31H26.3336C26.6549 30.9997 26.963 30.872 27.1902 30.6449C27.4174 30.4178 27.5452 30.1098 27.5455 29.7885ZM30.4265 11.1148L15.6854 0.064407C15.6327 0.0226731 15.5673 -3.05176e-05 15.5 -3.05176e-05C15.4328 -3.05176e-05 15.3674 0.0226731 15.3147 0.064407L0.573542 11.1148C0.27855 11.3376 0.0825079 11.6671 0.0273666 12.0327C-0.0277746 12.3983 0.0623649 12.7709 0.278497 13.0709L0.325602 13.136C0.432932 13.29 0.571283 13.4199 0.731767 13.5172C0.892252 13.6146 1.07132 13.6773 1.25748 13.7013C1.44261 13.7328 1.63229 13.7253 1.81431 13.6791C1.99634 13.6329 2.16668 13.5491 2.31439 13.4332L14.6924 4.10924C14.9243 3.93198 15.2081 3.83594 15.5 3.83594C15.792 3.83594 16.0758 3.93198 16.3077 4.10924L28.6856 13.4335C28.8351 13.546 29.0055 13.6277 29.1869 13.6738C29.3683 13.7198 29.5571 13.7293 29.7422 13.7017C29.9273 13.674 30.105 13.6098 30.265 13.5127C30.425 13.4157 30.5641 13.2877 30.6742 13.1364L30.7211 13.0718C30.9373 12.7718 31.0276 12.3991 30.9725 12.0334C30.9175 11.6677 30.7215 11.3381 30.4265 11.1151V11.1148ZM7.74126 21.0703C7.74118 19.5357 8.19616 18.0356 9.04867 16.7596C9.90118 15.4836 11.1129 14.4891 12.5307 13.9017C13.9484 13.3144 15.5085 13.1607 17.0136 13.4601C18.5187 13.7594 19.9012 14.4983 20.9863 15.5834C22.0715 16.6685 22.8105 18.051 23.1099 19.5561C23.4092 21.0612 23.2556 22.6213 22.6684 24.039C22.0811 25.4568 21.0866 26.6686 19.8106 27.5211C18.5347 28.3737 17.0346 28.8287 15.5 28.8287C13.443 28.8264 11.4709 28.0083 10.0164 26.5538C8.56184 25.0993 7.74364 23.1273 7.74126 21.0703ZM15.5 27.7955C13.9198 27.7968 12.3901 27.2392 11.1815 26.2212C11.5404 25.3735 12.1418 24.6508 12.9101 24.1437C13.6784 23.6367 14.5794 23.368 15.5 23.3714C16.419 23.3752 17.3169 23.6469 18.084 24.1531C18.851 24.6592 19.4538 25.378 19.8188 26.2214C18.6101 27.2394 17.0803 27.797 15.5001 27.7956L15.5 27.7955ZM13.4381 20.0828C13.438 19.6749 13.5588 19.2762 13.7854 18.9371C14.0119 18.5979 14.3339 18.3336 14.7107 18.1774C15.0875 18.0213 15.5021 17.9804 15.9021 18.0599C16.3021 18.1395 16.6695 18.3358 16.958 18.6242C17.2464 18.9125 17.4428 19.28 17.5224 19.68C17.602 20.08 17.5612 20.4946 17.4051 20.8714C17.249 21.2482 16.9847 21.5702 16.6456 21.7968C16.3065 22.0234 15.9078 22.1443 15.5 22.1443C14.9534 22.1437 14.4293 21.9264 14.0427 21.5399C13.6562 21.1534 13.4387 20.6294 13.4379 20.0828H13.4381ZM22.2255 21.0703C22.2267 22.6788 21.6491 24.2341 20.598 25.4518C19.9064 24.1057 18.711 23.0873 17.2721 22.6182C17.8122 22.2413 18.218 21.7019 18.4305 21.0785C18.643 20.4551 18.6511 19.7802 18.4537 19.1518C18.2563 18.5235 17.8637 17.9745 17.3329 17.5846C16.802 17.1947 16.1607 16.9843 15.5021 16.9839C14.8435 16.9835 14.2019 17.1932 13.6706 17.5825C13.1393 17.9717 12.746 18.5203 12.5479 19.1484C12.3498 19.7765 12.3571 20.4514 12.5689 21.0751C12.7807 21.6987 13.1858 22.2386 13.7255 22.6162C13.0119 22.8464 12.3509 23.2154 11.7805 23.7021C11.2101 24.1887 10.7416 24.7834 10.4019 25.4518C9.69509 24.6294 9.19762 23.6483 8.95197 22.5921C8.70631 21.5359 8.71975 20.4359 8.99115 19.386C9.26255 18.3361 9.78384 17.3674 10.5106 16.5625C11.2373 15.7577 12.1479 15.1405 13.1648 14.7637C14.1816 14.3869 15.2745 14.2616 16.3502 14.3985C17.426 14.5354 18.4526 14.9304 19.3427 15.5499C20.2327 16.1694 20.9597 16.995 21.4617 17.9563C21.9637 18.9175 22.2257 19.9859 22.2255 21.0703Z"/>
    </g>
    <defs>
    <clipPath id="clip0_93_899">
    <rect width="31" height="31" fill="rgba(0,0,0,0)"/>
    </clipPath>
    </defs>
    </svg>