<svg width="50" height="49" viewBox="0 0 50 49" fill="none" xmlns="http://www.w3.org/2000/svg">
<path d="M44.75 23.6369L44.8062 23.6497C44.8062 23.4887 44.8062 23.329 44.8062 23.168L44.7334 23.2255C44.7385 23.3673 44.7449 23.5092 44.75 23.6369Z" fill="#023DA7"/>
<path d="M35.6406 23.0003C35.7429 23.0387 35.8451 23.0732 35.9473 23.1077C35.9473 22.893 35.9384 22.677 35.9371 22.4688C35.8298 22.6336 35.7326 22.8151 35.6406 23.0003Z" fill="#023DA7"/>
<path d="M27.5559 46.6829V46.6765H25.4806C25.4679 46.5487 25.4449 46.4312 25.4449 46.3111C25.4449 44.5898 25.4321 42.8685 25.4449 41.1485C25.4463 40.9301 25.4617 40.712 25.4909 40.4955V39.7288C25.4629 39.4695 25.4006 39.2151 25.3056 38.9723C25.05 38.364 24.5593 37.8771 24.2207 37.3111C23.9127 36.9277 23.5715 36.6121 23.5 36.0498C23.1894 33.5861 22.7984 31.1313 22.4138 28.6778C22.0304 26.2498 21.6637 23.8296 21.7953 21.3607C21.8166 20.8837 21.7927 20.4058 21.7237 19.9334C21.2126 16.34 19.2843 13.7894 15.9069 12.5102C12.5295 11.2311 9.36676 11.8662 6.6449 14.2609C4.63738 16.0282 3.67386 18.3181 3.63808 20.9914C3.62275 22.1862 3.76587 23.3989 3.60486 24.5695C3.08094 28.5155 2.45478 32.4488 1.86057 36.3846C1.81637 36.5826 1.71663 36.7639 1.57305 36.9072C0.96398 37.5444 0.521921 38.3223 0.286242 39.1716C0.175068 39.5678 0.0945621 39.9729 0 40.3728V47.9301C0.255573 48.3493 0.576318 48.6099 1.10919 48.6061C3.50008 48.5908 5.89224 48.6061 8.28313 48.5972C8.94762 48.5972 9.36804 48.2253 9.3757 47.6554C9.38337 47.0663 8.95656 46.6931 8.26013 46.688C7.64292 46.688 7.02571 46.688 6.41617 46.688C6.41617 46.6701 6.40722 46.6548 6.40211 46.6395H4.4342V46.651H1.93086C1.93086 46.5232 1.91424 46.4031 1.91424 46.2791C1.91424 44.6179 1.92958 42.9643 1.91424 41.3069C1.88996 39.2981 2.77297 37.8644 4.63354 37.1232C5.85646 36.6363 7.13305 36.2849 8.38919 35.8824C8.85817 35.7316 9.33865 35.614 9.8089 35.4658C10.3852 35.2844 10.6063 34.9802 10.6165 34.3771C10.6165 34.0436 10.6165 33.7113 10.6165 33.2922C12.0541 33.8519 13.4278 33.8263 14.8335 33.3024C14.8335 33.6857 14.8335 34.0244 14.8335 34.3566C14.8411 34.9853 15.0597 35.2946 15.6666 35.4735C16.9011 35.8402 18.1585 36.1431 19.3724 36.5648C20.2282 36.8585 21.0513 37.2401 21.8285 37.7034C22.8802 38.3359 23.4373 39.3646 23.4757 40.5734C23.5396 42.5912 23.4936 44.6128 23.4936 46.6599H19.0888V46.688C18.3732 46.688 17.7202 46.6791 17.0697 46.688C16.4768 46.6995 16.0768 47.0842 16.0679 47.6222C16.0577 48.1819 16.464 48.5716 17.08 48.5959C17.1439 48.5959 17.2077 48.5959 17.2716 48.5959H27.6224C27.6249 47.9595 27.6028 47.3219 27.5559 46.6829ZM10.8082 14.0897C15.3344 12.7773 19.8312 16.2045 19.8887 20.9211C19.8989 21.7479 19.8887 22.5747 19.8887 23.459C16.4385 22.8277 13.1659 21.9562 10.3162 19.9295C9.75012 19.527 9.26836 19.6113 8.82622 20.1851C7.96111 21.3173 6.85831 22.1581 5.63156 22.8839C5.07313 19.0286 6.6449 15.2947 10.8082 14.0897ZM7.6557 34.0934C6.4545 34.4448 5.25842 34.8141 3.98311 35.2C4.35497 32.7031 4.72044 30.2381 5.1038 27.6606C5.19964 27.8395 5.2597 27.9302 5.30059 28.0286C5.95224 29.5758 6.99128 30.929 8.31763 31.9581C8.44719 32.0427 8.55177 32.1604 8.62053 32.299C8.68928 32.4377 8.71971 32.5922 8.70866 32.7465C8.68949 33.7944 8.69843 33.7867 7.6557 34.0934ZM14.1166 31.5147C13.2451 31.8801 12.3416 31.9274 11.465 31.5632C9.0064 30.5409 7.34006 28.8017 6.76502 26.1463C6.66535 25.6876 6.70496 25.1956 6.71646 24.719C6.74054 24.5715 6.81895 24.4384 6.93626 24.3458C7.84439 23.6021 8.7602 22.8673 9.68367 22.1415C9.74005 22.1025 9.80477 22.0772 9.87267 22.0677C9.94056 22.0581 10.0097 22.0646 10.0747 22.0866C12.6304 23.6532 15.4494 24.5145 18.3642 25.1113C18.4716 25.133 18.5776 25.1675 18.8153 25.2301C18.7028 25.8333 18.6747 26.4339 18.4767 26.9718C17.6895 29.111 16.2289 30.6304 14.1166 31.5147ZM16.9777 33.8621C16.9177 33.8442 16.8129 33.811 16.8129 33.7867C16.8206 33.2474 16.8397 32.7095 16.8563 32.1702C18.3835 31.0254 19.5884 29.5048 20.3539 27.7565C20.7219 30.233 21.089 32.7061 21.4554 35.1757L16.9777 33.8621Z" fill="#023DA7"/>
<path d="M24.4932 1.35691C25.8554 0.224718 27.3441 -0.280039 29.0552 0.168492C31.0998 0.70264 32.5233 2.79451 32.4633 5.087C32.4581 5.78981 32.3111 6.48433 32.0311 7.129C31.7512 7.77366 31.344 8.35521 30.834 8.83881C29.0041 10.6125 27.1725 12.3819 25.3392 14.1471C24.7194 14.7438 24.2645 14.7413 23.6549 14.1547C21.8212 12.3849 19.9709 10.6317 18.1601 8.84009C16.5449 7.24276 16.1155 5.31574 16.8375 3.17914C17.8649 0.140379 21.2129 -0.930473 23.8671 0.893042C24.0754 1.03105 24.2722 1.19078 24.4932 1.35691ZM24.3552 12.3785L24.4971 12.2635C24.548 12.2302 24.5967 12.1935 24.6427 12.1536C26.2835 10.5729 27.932 8.99855 29.56 7.41016C30.42 6.56804 30.71 5.5138 30.5005 4.34328C30.1107 2.09168 27.854 1.21379 26.0279 2.59388C25.8631 2.72167 25.7136 2.86223 25.559 3.00024C24.7922 3.6839 24.1916 3.66729 23.407 3.00919C23.0096 2.67694 22.5803 2.34086 22.1075 2.14663C20.7682 1.59459 19.521 2.08274 18.8259 3.35549C18.4657 4.01024 18.3308 4.7653 18.4421 5.50427C18.5534 6.24323 18.9047 6.92507 19.4418 7.44466C20.7401 8.71358 22.0614 9.96078 23.3572 11.2348C23.7201 11.5811 24.0242 11.9926 24.3552 12.3785Z" fill="#023DA7"/>
<path d="M49.0842 41.3727C49.1136 38.4898 47.8204 36.444 45.179 35.3322C43.9088 34.7981 42.5607 34.4466 41.2406 34.0377C40.3883 33.7732 40.3819 33.7949 40.3819 32.9196C40.3921 32.7443 40.3921 32.5685 40.3819 32.3931C40.3474 32.1094 40.4662 31.9433 40.6873 31.7618C41.3007 31.2507 41.9332 30.7574 42.4623 30.1696C43.8539 28.6234 44.8531 26.8625 44.8979 24.708C44.9285 23.1618 44.9132 21.6156 44.8902 20.0694C44.8852 19.5756 44.8299 19.0837 44.7254 18.6011C43.7031 13.965 39.2791 11.1128 34.6149 12.0661C30.7046 12.866 27.947 16.1105 27.8281 20.1026C27.7834 21.636 27.8128 23.1695 27.8205 24.694C27.8208 25.0284 27.852 25.362 27.9138 25.6907C28.3661 27.9819 29.6005 29.8259 31.3972 31.2366C32.1767 31.8487 32.4834 32.4634 32.3416 33.3809C32.339 33.397 32.339 33.4134 32.3416 33.4295C32.3825 33.6965 32.2738 33.8282 32.0016 33.8921C31.4598 34.0198 30.9257 34.1783 30.3903 34.3316C28.2013 34.954 26.0455 35.6325 24.5939 37.6541V37.6451C24.3306 38.1448 24.1198 38.6968 23.9025 39.2067C23.8578 39.3102 23.8144 39.4239 23.7747 39.5428C23.7419 40.0038 23.6847 40.4628 23.6035 40.9178C23.6316 42.018 23.6303 43.1208 23.624 44.2274C23.6322 44.2794 23.6365 44.332 23.6367 44.3846V48.5824H47.8894C48.7442 48.5824 49.079 48.2489 49.0803 47.3965C49.0829 45.389 49.0701 43.3815 49.0842 41.3727ZM31.18 16.246C33.0316 14.112 35.3969 13.3337 38.1073 14.0417C40.8176 14.7496 42.3907 16.6115 42.9197 19.3512C43.1152 20.3735 43.0999 20.3735 42.1147 20.7569C40.7244 21.3 39.3034 21.7549 37.7917 21.5019C37.0952 21.3856 36.4167 21.1185 35.7471 20.8744C34.8257 20.5307 33.9491 20.0157 33.0022 19.7997C32.1077 19.5953 31.1455 19.6822 30.2126 19.6464C30.1019 19.6523 29.9917 19.6664 29.8829 19.6886C29.8548 19.6886 29.8254 19.6707 29.7552 19.6464C29.8576 18.3906 30.3566 17.1998 31.18 16.246ZM30.3455 26.9877C29.915 26.1832 29.6977 25.2818 29.7143 24.3694C29.7309 23.6206 29.736 22.8705 29.7143 22.1229C29.7015 21.774 29.8421 21.6629 30.1577 21.5951C31.2547 21.351 32.401 21.4643 33.429 21.9184C33.8367 22.0986 34.2494 22.2724 34.6404 22.482C36.9994 23.7458 39.4222 23.7599 41.8962 22.8781C42.2386 22.7567 42.5824 22.6417 42.9185 22.5242C43.2801 24.9598 42.7638 27.1245 41.0413 28.8892C40.4183 29.5255 39.7285 30.0928 38.9839 30.5811C37.278 31.7031 35.5222 31.6916 33.7702 30.6284C32.3127 29.7573 31.1274 28.4963 30.3481 26.9877H30.3455ZM47.1571 46.5391C47.1466 46.5833 47.1312 46.6261 47.1111 46.6669H42.2489C42.1578 46.6869 42.0648 46.6967 41.9716 46.6963H31.2899C31.2425 46.6963 31.1951 46.6938 31.148 46.6886C31.1046 46.6886 31.0611 46.6771 31.0202 46.6682H25.5868C25.574 46.5404 25.551 46.4215 25.551 46.3014C25.551 44.5801 25.5395 42.8588 25.551 41.1388C25.5689 38.9665 26.8365 37.373 29.0127 36.8196C29.3654 36.6663 29.7322 36.6037 30.1398 36.4861C30.6931 36.3264 31.2464 36.1475 31.801 35.9993C31.8764 35.9328 31.8866 35.9162 31.9007 35.9124C32.1294 35.8382 32.3122 35.7846 32.4668 35.7373C32.5018 35.6975 32.5455 35.6665 32.5946 35.6466C32.9345 35.5188 33.3421 35.5188 33.6412 35.3182L33.6795 35.2913C33.7206 35.2605 33.7583 35.2254 33.7919 35.1865C34.0552 34.8862 34.1536 34.4786 34.2302 34.085C34.2379 33.9879 34.243 33.8908 34.2481 33.7924C34.2085 33.5509 34.2239 33.2416 34.1804 32.9375C35.6487 33.4704 37.0198 33.4857 38.4038 32.9771C38.4531 33.1629 38.4764 33.3548 38.4728 33.547C38.4728 33.5585 38.4728 33.57 38.4792 33.5828C38.5016 34.0168 38.5922 34.4446 38.7475 34.8505C38.7833 34.9041 38.8216 34.9578 38.8587 35.0102C38.9967 35.1175 39.1347 35.2236 39.2804 35.3182C39.5538 35.4958 39.8631 35.5737 40.1621 35.6951C40.193 35.7078 40.2219 35.725 40.2477 35.7462C40.3333 35.7692 40.4202 35.7961 40.5122 35.8242C41.2342 35.9379 41.9038 36.2408 42.59 36.4951C42.8546 36.5692 43.1152 36.651 43.3708 36.7506C43.4718 36.7762 43.5727 36.8018 43.675 36.8222C43.7625 36.8384 43.8482 36.8637 43.9305 36.8976C45.3656 37.1813 46.8275 38.6866 47.0626 40.1958C47.1271 40.6367 47.1592 41.0817 47.1584 41.5273C47.1725 43.1911 47.1635 44.8613 47.1597 46.534L47.1571 46.5391Z" fill="#023DA7"/>
<path d="M19.9228 46.6367H6.05664V48.6034H19.9228V46.6367Z" fill="#023DA7"/>
</svg>
