<svg width="31" height="31" viewBox="0 0 31 31" fill="none" xmlns="http://www.w3.org/2000/svg">
    <path d="M15.4654 27.2389C14.7016 27.2389 13.955 27.1646 13.2314 27.0247L11.4604 28.3052C12.7257 28.7018 14.071 28.9158 15.4654 28.9158C16.8774 28.9158 18.2388 28.6959 19.518 28.2896L17.7539 27.0141C17.0135 27.1611 16.2483 27.2389 15.4654 27.2389Z"/>
    <path d="M12.6392 4.10587L13.2405 2.26958C8.64533 3.03994 4.83472 6.15336 3.08374 10.3358L4.92737 10.3317C6.43843 7.26331 9.25041 4.94667 12.6392 4.10587Z"/>
    <path d="M3.80763 16.8763L2.05078 15.5936C2.07552 19.2053 3.5347 22.4821 5.88603 24.8823L6.47874 23.0435C5.04083 21.3332 4.08118 19.2081 3.80763 16.8763Z"/>
    <path d="M27.1168 16.9314C26.8379 19.2149 25.9011 21.2979 24.502 22.9845L25.0967 24.8292C27.4065 22.4453 28.8415 19.2096 28.8794 15.6446L27.1168 16.9314Z"/>
    <path d="M26.0032 10.3316L27.8468 10.3359C26.1051 6.17558 22.3256 3.07275 17.7634 2.28195L18.3668 4.12432C21.7218 4.98052 24.5033 7.28595 26.0032 10.3316Z"/>
    <path d="M25.0795 30.2416L21.4524 18.9905L31 12.02L19.1788 11.9929L15.5 0.758518L11.8212 11.9929L0 12.02L9.54736 18.9905L5.92015 30.2416L15.5 23.3151L25.0795 30.2416Z"/>
    </svg>
