<svg width="15" height="30" viewBox="0 0 15 30" fill="none" xmlns="http://www.w3.org/2000/svg">
<path d="M9.3 21.0125H14.9608L10.3428 24.2898L10.3353 24.2951L10.3381 24.3038L12.1263 29.9663L7.50755 26.465L7.5 26.4593L7.49245 26.465L2.87375 29.9663L4.66192 24.3038L4.66466 24.2951L4.65723 24.2898L0.0392144 21.0125H5.7H5.70926L5.71196 21.0036L6.76196 17.5536L6.76482 17.5442L6.75636 17.5392L1.43152 14.3893C1.43149 14.3893 1.43147 14.3893 1.43144 14.3893C0.983274 14.1154 0.634838 13.7545 0.385927 13.3064C0.137075 12.8585 0.0125 12.3481 0.0125 11.775V0.0125H14.9875V11.775C14.9875 12.3481 14.8629 12.8585 14.6141 13.3064C14.3652 13.7545 14.0167 14.1154 13.5685 14.3893C13.5685 14.3893 13.5685 14.3893 13.5685 14.3893L8.24364 17.5392L8.23518 17.5442L8.23804 17.5536L9.28804 21.0036L9.29074 21.0125H9.3ZM3 2.9875H2.9875V3V11.775H2.9757L2.99357 11.7857L5.99357 13.5857L6.0125 13.5971V13.575V3V2.9875H6H3ZM12.0125 3V2.9875H12H9H8.9875V3V13.575V13.5971L9.00643 13.5857L12.0064 11.7857L12.0125 11.7958V11.775V3Z" fill="#023DA7" stroke="#023DA7" stroke-width="0.025"/>
</svg>
