<svg width="16" height="16" viewBox="0 0 16 16" fill="none" xmlns="http://www.w3.org/2000/svg">
    <g clip-path="url(#clip0_97_13435)">
    <path d="M7.73269 13.6194C7.35081 13.6194 6.97748 13.5823 6.61572 13.5124L5.73022 14.1526C6.36286 14.3509 7.03549 14.4579 7.73269 14.4579C8.4387 14.4579 9.1194 14.348 9.75901 14.1448L8.87697 13.5071C8.50673 13.5805 8.12416 13.6194 7.73269 13.6194Z"/>
    <path d="M6.3197 2.05293L6.62035 1.13479C4.32279 1.51997 2.41748 3.07668 1.54199 5.16792L2.46381 5.16583C3.21934 3.63165 4.62533 2.47333 6.3197 2.05293Z"/>
    <path d="M1.90381 8.43814L1.02539 7.7968C1.03776 9.60264 1.76735 11.2411 2.94302 12.4411L3.23937 11.5217C2.52042 10.6666 2.04059 9.60406 1.90381 8.43814Z"/>
    <path d="M13.5584 8.4657C13.4189 9.60746 12.9505 10.649 12.251 11.4922L12.5483 12.4146C13.7032 11.2227 14.4207 9.60479 14.4397 7.82232L13.5584 8.4657Z"/>
    <path d="M13.0017 5.16578L13.9235 5.16793C13.0527 3.08779 11.1629 1.53638 8.88184 1.14098L9.18354 2.06216C10.861 2.49026 12.2518 3.64298 13.0017 5.16578Z"/>
    <path d="M12.5398 15.1208L10.7262 9.49526L15.5 6.00998L9.58938 5.99646L7.75 0.379257L5.91062 5.99646L0 6.00998L4.77368 9.49526L2.96008 15.1208L7.75 11.6576L12.5398 15.1208Z"/>
    </g>
    <defs>
    <clipPath id="clip0_97_13435">
    <rect width="15.5" height="15.5" fill="rgba(0,0,0,0)"/>
    </clipPath>
    </defs>
    </svg>
