<svg width="34" height="34" viewBox="0 0 34 34" xmlns="http://www.w3.org/2000/svg">
<path fill-rule="evenodd" clip-rule="evenodd" d="M17 0C21.6952 0 25.9452 1.90238 29.0214 4.97857C32.0976 8.05476 34 12.3048 34 17C34 21.6952 32.0976 25.9452 29.0214 29.0214C25.9452 32.0976 21.6952 34 17 34C12.3048 34 8.05476 32.0976 4.97857 29.0214C1.90238 25.9452 0 21.6952 0 17C0 12.3048 1.90238 8.05476 4.97857 4.97857C8.05476 1.90238 12.3048 0 17 0ZM17 31.9357C21.1286 31.9357 24.8524 30.2762 27.5643 27.5643C30.2762 24.8524 31.9357 21.1286 31.9357 17C31.9357 12.8714 30.2762 9.14762 27.5643 6.43571C24.8524 3.72381 21.1286 2.06429 17 2.06429C12.8714 2.06429 9.14762 3.72381 6.43571 6.43571C3.76429 9.14762 2.06429 12.8714 2.06429 17C2.06429 21.1286 3.76429 24.8524 6.43571 27.5643C9.14762 30.2762 12.8714 31.9357 17 31.9357Z"/>
<path fill-rule="evenodd" clip-rule="evenodd" d="M18.4572 17L23.7596 11.6976C24.1643 11.2929 24.1643 10.6452 23.7596 10.2405C23.3548 9.83571 22.7072 9.83571 22.3024 10.2405L17.0001 15.5429L11.6977 10.2C11.2929 9.79523 10.6453 9.79523 10.2405 10.2C9.83577 10.6048 9.83577 11.2524 10.2405 11.6571L15.5429 17L10.2001 22.3024C9.79529 22.7071 9.79529 23.3952 10.2001 23.8C10.6048 24.2048 11.2524 24.2048 11.6572 23.8L17.0001 18.4571L22.3024 23.7595C22.7072 24.1643 23.3548 24.1643 23.7596 23.7595C24.1643 23.3548 24.1643 22.7071 23.7596 22.3024L18.4572 17Z"/>
</svg>
