<?xml version="1.0" encoding="UTF-8" standalone="no"?><!-- Generator: Gravit.io --><svg xmlns="http://www.w3.org/2000/svg" xmlns:xlink="http://www.w3.org/1999/xlink" style="isolation:isolate" viewBox="388.5 505.5 17.397 34.016" width="17.397pt" height="34.016pt"><g><path d=" M 405.897 534.593 C 405.917 532.627 405.034 531.23 403.232 530.472 C 402.365 530.107 401.445 529.866 400.544 529.587 C 399.962 529.408 399.957 529.421 399.957 528.824 C 399.964 528.705 399.964 528.585 399.957 528.466 C 399.933 528.271 400.015 528.158 400.166 528.034 C 400.585 527.689 401.017 527.348 401.378 526.947 C 402.33 525.89 403.012 524.691 403.042 523.22 C 403.063 522.165 403.053 521.109 403.037 520.055 C 403.033 519.717 402.994 519.382 402.921 519.053 C 402.22 515.887 399.202 513.943 396.019 514.592 C 393.349 515.137 391.465 517.352 391.387 520.077 C 391.357 521.124 391.377 522.17 391.382 523.21 C 391.382 523.438 391.403 523.666 391.446 523.89 C 391.754 525.456 392.599 526.713 393.82 527.675 C 394.351 528.093 394.561 528.514 394.463 529.14 C 394.462 529.15 394.462 529.161 394.463 529.172 C 394.492 529.355 394.418 529.444 394.232 529.488 C 393.862 529.575 393.498 529.684 393.132 529.788 C 391.638 530.213 390.167 530.677 389.177 532.055 L 389.177 532.05 C 388.997 532.391 388.853 532.768 388.704 533.116 C 388.674 533.186 388.645 533.263 388.617 533.344 C 388.594 533.66 388.555 533.973 388.5 534.285 C 388.519 535.036 388.518 535.788 388.514 536.544 C 388.52 536.58 388.523 536.616 388.523 536.652 L 388.523 539.516 C 394.042 539.516 399.561 539.516 405.08 539.516 C 405.665 539.516 405.893 539.288 405.894 538.706 C 405.896 537.335 405.883 535.964 405.897 534.593 Z  M 393.68 517.445 C 394.944 515.989 396.553 515.457 398.407 515.941 C 400.261 516.424 401.33 517.694 401.691 519.564 C 401.825 520.262 401.814 520.262 401.142 520.524 C 400.193 520.894 399.224 521.205 398.192 521.032 C 397.717 520.953 397.254 520.771 396.797 520.604 C 396.174 520.372 395.571 520.021 394.925 519.874 C 394.315 519.735 393.658 519.794 393.022 519.769 C 392.946 519.774 392.87 519.784 392.796 519.798 C 392.777 519.798 392.757 519.786 392.708 519.77 C 392.777 518.912 393.117 518.097 393.68 517.445 Z  M 393.111 524.776 C 392.817 524.226 392.668 523.611 392.68 522.988 C 392.691 522.477 392.695 521.965 392.68 521.455 C 392.672 521.218 392.767 521.141 392.983 521.096 C 393.731 520.929 394.514 521.006 395.215 521.317 C 395.493 521.439 395.775 521.558 396.041 521.701 C 397.651 522.564 399.305 522.573 400.993 521.972 C 401.227 521.884 401.461 521.81 401.695 521.729 C 401.942 523.391 401.589 524.869 400.414 526.074 C 399.989 526.508 399.518 526.895 399.01 527.229 C 397.846 527.995 396.648 527.987 395.451 527.261 C 394.455 526.667 393.644 525.806 393.111 524.776 Z  M 404.583 538.119 C 404.576 538.15 404.566 538.179 404.552 538.207 L 401.232 538.207 C 401.17 538.22 401.106 538.227 401.043 538.227 L 393.753 538.227 C 393.721 538.227 393.689 538.225 393.656 538.221 C 393.627 538.221 393.597 538.213 393.569 538.207 L 389.861 538.207 C 389.849 538.124 389.841 538.04 389.837 537.956 C 389.837 536.782 389.829 535.608 389.837 534.433 C 389.849 532.95 390.714 531.864 392.199 531.485 C 392.44 531.38 392.69 531.338 392.968 531.257 C 393.346 531.149 393.724 531.026 394.102 530.926 L 394.102 530.922 C 394.153 530.876 394.161 530.866 394.17 530.862 C 394.326 530.812 394.451 530.775 394.556 530.743 C 394.58 530.716 394.61 530.695 394.644 530.681 C 394.876 530.594 395.154 530.594 395.358 530.458 L 395.384 530.439 C 395.412 530.418 395.437 530.394 395.461 530.368 C 395.64 530.163 395.707 529.884 395.76 529.616 C 395.764 529.55 395.769 529.483 395.772 529.415 C 395.745 529.251 395.755 529.039 395.726 528.833 C 396.728 529.196 397.663 529.207 398.608 528.86 C 398.642 528.987 398.658 529.118 398.655 529.249 C 398.655 529.257 398.655 529.264 398.655 529.272 C 398.67 529.569 398.732 529.861 398.839 530.137 C 398.863 530.175 398.889 530.211 398.915 530.247 C 399.009 530.32 399.103 530.392 399.203 530.457 C 399.389 530.578 399.599 530.631 399.804 530.718 C 399.825 530.727 399.845 530.739 399.863 530.752 L 400.042 530.806 C 400.536 530.884 400.993 531.09 401.461 531.264 C 401.642 531.315 401.82 531.371 401.994 531.439 C 402.062 531.457 402.132 531.474 402.202 531.488 C 402.262 531.499 402.32 531.516 402.376 531.54 C 403.355 531.734 404.353 532.761 404.513 533.791 C 404.557 534.092 404.579 534.395 404.579 534.699 C 404.592 535.834 404.586 536.974 404.583 538.116 L 404.583 538.119 Z " fill="rgb(183,180,178)"/><path d=" M 396.629 505.5 C 397.293 505.5 397.822 505.682 398.219 506.046 C 398.622 506.41 398.824 506.908 398.824 507.539 C 398.824 508.196 398.616 508.69 398.2 509.022 C 397.783 509.353 397.231 509.519 396.541 509.519 L 396.502 510.29 L 395.537 510.29 L 395.488 508.758 L 395.81 508.758 C 396.441 508.758 396.922 508.674 397.253 508.505 C 397.592 508.335 397.761 508.014 397.761 507.539 C 397.761 507.194 397.66 506.924 397.458 506.729 C 397.263 506.534 396.99 506.436 396.639 506.436 C 396.288 506.436 396.011 506.531 395.81 506.719 C 395.608 506.908 395.508 507.171 395.508 507.51 L 394.464 507.51 C 394.464 507.119 394.552 506.771 394.727 506.466 C 394.903 506.16 395.153 505.923 395.478 505.754 C 395.81 505.585 396.194 505.5 396.629 505.5 Z  M 396.005 512.446 C 395.803 512.446 395.634 512.377 395.498 512.241 C 395.361 512.104 395.293 511.935 395.293 511.733 C 395.293 511.532 395.361 511.363 395.498 511.226 C 395.634 511.09 395.803 511.021 396.005 511.021 C 396.2 511.021 396.366 511.09 396.502 511.226 C 396.639 511.363 396.707 511.532 396.707 511.733 C 396.707 511.935 396.639 512.104 396.502 512.241 C 396.366 512.377 396.2 512.446 396.005 512.446 Z " fill="rgb(183,180,178)"/></g></svg>