<svg width="36" height="36" viewBox="0 0 36 36" xmlns="http://www.w3.org/2000/svg">
<path fill-rule="evenodd" clip-rule="evenodd" d="M26.9428 27.4219H28.6172C32.7354 27.4219 36 30.9041 36 34.9453C36 35.5278 35.5278 36 34.9453 36H1.05469C0.472219 36 0 35.5278 0 34.9453C0 30.9077 3.26102 27.4219 7.38281 27.4219H9.05723C7.60781 25.6693 6.66344 23.4849 6.44688 21.0938H6.39844C4.07222 21.0938 2.17969 19.2012 2.17969 16.875C2.17969 14.5488 4.07222 12.6562 6.39844 12.6562V7.0136C5.08001 5.38334 4.28906 3.30982 4.28906 1.05469C4.28906 0.472219 4.76128 0 5.34375 0H20.1094C25.3434 0 29.6016 4.2582 29.6016 9.49219V12.6562C31.9278 12.6562 33.8203 14.5488 33.8203 16.875C33.8203 19.2012 31.9278 21.0938 29.6016 21.0938H29.5531C29.3366 23.4849 28.3922 25.6693 26.9428 27.4219ZM31.7109 16.875C31.7109 15.7119 30.7647 14.7656 29.6016 14.7656V18.9844C30.7647 18.9844 31.7109 18.0381 31.7109 16.875ZM6.39844 18.9844C5.23533 18.9844 4.28906 18.0381 4.28906 16.875C4.28906 15.7119 5.23533 14.7656 6.39844 14.7656V18.9844ZM27.4171 8.4375C26.9037 4.86443 23.8222 2.10938 20.1094 2.10938H6.47353C6.98688 5.68245 10.0684 8.4375 13.7812 8.4375H27.4171ZM8.50781 20.0391V8.94333C10.0171 9.95562 11.8313 10.5469 13.7812 10.5469H27.4922V20.0391C27.4922 25.2731 23.234 29.5312 18 29.5312C12.766 29.5312 8.50781 25.2731 8.50781 20.0391ZM7.38281 29.5312C4.87463 29.5312 2.70802 31.4402 2.21456 33.8906H33.7854C33.292 31.4402 31.1254 29.5312 28.6172 29.5312H24.6627C22.776 30.8595 20.4776 31.6406 18 31.6406C15.5224 31.6406 13.224 30.8595 11.3373 29.5312H7.38281Z"/>
<path fill-rule="evenodd" clip-rule="evenodd" d="M18.202 25.636C17.902 25.936 17.542 26.086 17.122 26.086C16.702 26.086 16.342 25.936 16.042 25.636C15.742 25.336 15.592 24.976 15.592 24.556C15.592 24.136 15.742 23.776 16.042 23.476C16.342 23.176 16.702 23.026 17.122 23.026C17.542 23.026 17.902 23.176 18.202 23.476C18.502 23.776 18.652 24.136 18.652 24.556C18.652 24.976 18.502 25.336 18.202 25.636ZM15.88 21.622C15.88 21.094 16.039 20.59 16.357 20.11C16.675 19.63 17.02 19.243 17.392 18.949C17.764 18.655 18.109 18.31 18.427 17.914C18.745 17.518 18.904 17.122 18.904 16.726C18.904 16.306 18.76 15.982 18.472 15.754C18.184 15.526 17.782 15.412 17.266 15.412C16.258 15.412 15.544 15.946 15.124 17.014L13 15.79C13.36 14.902 13.932 14.215 14.719 13.729C15.505 13.243 16.384 13 17.356 13C18.448 13 19.392 13.315 20.191 13.945C20.989 14.575 21.388 15.442 21.388 16.546C21.388 17.05 21.283 17.518 21.073 17.95C20.863 18.382 20.611 18.751 20.317 19.057C20.022 19.363 19.729 19.651 19.435 19.921C19.14 20.191 18.889 20.47 18.679 20.758C18.469 21.046 18.364 21.334 18.364 21.622H15.88Z"/>
</svg>
