<svg width="43" height="44" viewBox="0 0 43 44" fill="none" xmlns="http://www.w3.org/2000/svg">
<path d="M9.89405 43.5889C9.74621 43.4217 9.58587 43.2636 9.45167 43.0862C6.40089 39.0286 3.35124 34.9699 0.302732 30.91C-0.139647 30.3209 -0.110079 30.1344 0.476727 29.6977C1.43351 28.9866 2.3884 28.2747 3.34139 27.562C4.92212 26.3839 6.85312 26.6522 8.03242 28.2193C10.1279 31.0078 12.2182 33.8004 14.3031 36.5972C15.4789 38.1734 15.1833 40.101 13.5923 41.2724C12.5347 42.0513 11.468 42.8167 10.4081 43.5889H9.89405ZM1.65375 30.4426C4.54457 34.291 7.41264 38.112 10.3035 41.9535C11.1825 41.3008 12.0093 40.6878 12.8406 40.0703C13.8641 39.3106 14.0062 38.3326 13.2523 37.3046C12.7746 36.6541 12.2845 36.0116 11.8 35.3645C10.1966 33.2197 8.59231 31.0749 6.98732 28.9301C6.38004 28.1193 5.35882 27.8372 4.59119 28.3433C3.59954 28.9983 2.65451 29.7227 1.65375 30.4426Z" fill="#023DA7"/>
<path d="M12.7563 15.7336C12.4911 15.75 12.2251 15.7477 11.9602 15.7268C11.138 15.6006 10.5387 15.1673 10.2771 14.3622C10.0155 13.557 10.2146 12.8451 10.8048 12.2538C12.2824 10.7648 13.7669 9.28219 15.2581 7.80608C17.4568 5.62717 19.6516 3.44901 21.8426 1.27161C23.1266 0.000196518 24.7994 -0.346656 26.3244 0.361833C26.6742 0.516993 26.9947 0.731272 27.2717 0.995265C31.0428 4.74506 34.8047 8.50433 38.5575 12.2731C39.5605 13.2829 39.3377 14.8671 38.1026 15.5289C37.7001 15.7439 37.1929 15.7723 36.6493 15.9088V16.2772C36.6493 18.5176 36.6493 20.7583 36.6493 22.9994C36.6608 23.1548 36.6497 23.3111 36.6163 23.4633C36.5832 23.611 36.4995 23.7425 36.3796 23.8349C36.2598 23.9273 36.1114 23.9749 35.9601 23.9694C35.8085 23.977 35.6596 23.9278 35.5422 23.8315C35.4249 23.7352 35.3477 23.5987 35.3255 23.4486C35.2967 23.2811 35.2849 23.1112 35.2903 22.9414C35.2903 20.3746 35.2903 17.8079 35.28 15.2412C35.2809 15.0228 35.2048 14.811 35.0651 14.6431C31.6625 11.2268 28.2509 7.81821 24.8301 4.41716C24.7801 4.36826 24.7244 4.32505 24.6811 4.28752C23.105 5.84779 21.5345 7.40123 19.9708 8.96491C18.1262 10.8106 16.2941 12.6688 14.445 14.51C14.3326 14.6136 14.2446 14.741 14.1874 14.8828C14.1301 15.0246 14.1051 15.1773 14.1141 15.3299C14.1323 16.5638 14.1209 17.7977 14.1209 19.0316C14.1251 19.159 14.1224 19.2866 14.113 19.4137C14.0675 19.8424 13.7718 20.1108 13.3885 20.096C13.0053 20.0812 12.7699 19.8299 12.7653 19.3841C12.754 18.3345 12.7653 17.2848 12.7653 16.2363C12.7563 16.0771 12.7563 15.9247 12.7563 15.7336ZM37.9229 13.7481C37.7296 13.4694 37.6034 13.2158 37.4146 13.0259C33.8301 9.43003 30.2406 5.83793 26.6463 2.24962C25.426 1.03166 23.9829 1.03848 22.7558 2.25758L11.9807 12.9679C11.4632 13.482 11.387 13.897 11.7464 14.2428C12.1058 14.5885 12.4958 14.4907 12.9973 13.9937L23.6372 3.33112C24.3946 2.57373 24.9461 2.57486 25.7069 3.33112L36.3286 13.9528C36.4423 14.0665 36.5333 14.2325 36.6697 14.27C36.912 14.3394 37.2065 14.4122 37.4226 14.3315C37.6113 14.2644 37.7296 13.9869 37.9229 13.7481Z" fill="#023DA7"/>
<path d="M30.2024 27.7517C32.561 27.1342 34.8082 26.345 36.8802 25.1088C38.0902 24.3855 39.3821 24.199 40.7217 24.6209C41.2244 24.7813 41.6963 25.069 42.1478 25.3533C43.3453 26.1118 43.2043 27.8461 42.1887 28.5932C40.8184 29.5997 39.4776 30.6562 38.0481 31.5728C36.464 32.5872 34.8127 33.506 33.1581 34.3988C31.1543 35.4757 28.9799 36 26.7134 36.0818C23.3962 36.2024 20.0766 36.2729 16.7582 36.3662C16.6319 36.3707 16.5061 36.3844 16.3818 36.4071C16.2958 36.4281 16.2064 36.431 16.1192 36.4156C16.032 36.4001 15.949 36.3667 15.8755 36.3173C15.802 36.268 15.7395 36.2039 15.6922 36.1291C15.6449 36.0543 15.6136 35.9704 15.6005 35.8828C15.5289 35.5007 15.7074 35.18 16.1077 35.1482C17.0391 35.0743 17.975 35.047 18.9098 35.0174C21.0592 34.9469 23.2199 34.8332 25.3727 34.8446C28.4432 34.8548 31.2703 34.0599 33.9405 32.5701C36.4742 31.1588 38.9033 29.6008 41.1448 27.7574C41.8214 27.2013 41.8123 26.768 41.0743 26.304C39.9928 25.6217 38.851 25.5762 37.7695 26.2267C35.2972 27.713 32.6054 28.5978 29.8306 29.2847C29.6424 29.3326 29.468 29.4237 29.3211 29.5508C28.752 30.0774 28.0062 30.3716 27.2309 30.3753C25.6706 30.3901 24.1092 30.3855 22.5489 30.3753C21.9348 30.3753 21.5869 29.8988 21.8075 29.3973C21.9496 29.0709 22.226 29.0129 22.5444 29.014C23.9773 29.014 25.4102 29.014 26.8431 29.014C26.9705 29.014 27.099 29.0038 27.2252 29.014C28.2487 29.0925 28.8435 28.0622 28.9469 27.2161C29.0675 26.2267 28.475 25.4295 27.5436 25.2339C27.3763 25.2037 27.2063 25.1911 27.0364 25.1964C25.8298 25.1964 24.6244 25.1816 23.4189 25.1964C22.2415 25.2341 21.097 24.8049 20.2347 24.0023C19.0213 22.8924 17.6191 22.2805 15.9576 22.309C15.0739 22.3183 14.2073 22.5532 13.4398 22.9913C11.9296 23.8579 10.5376 24.8734 9.43906 26.2506C9.13769 26.6293 8.70328 26.7191 8.39964 26.4871C8.096 26.2551 8.06984 25.7764 8.38599 25.3942C9.75748 23.7385 11.4178 22.4136 13.3807 21.58C16.0099 20.4644 18.5107 20.9227 20.7055 22.7309C21.6335 23.4951 22.5956 23.917 23.8056 23.8522C24.8291 23.7976 25.8526 23.8397 26.8692 23.8408C29.0436 23.8408 30.4242 25.3522 30.2263 27.5095C30.2172 27.5777 30.2115 27.6448 30.2024 27.7517Z" fill="#023DA7"/>
<path d="M24.6459 17.5687C23.8942 17.5687 23.1437 17.5687 22.392 17.5687C21.489 17.5687 21.0614 18.0009 21.0569 18.8959C21.0569 19.3212 21.0671 19.7465 21.0501 20.1718C21.0501 20.2609 21.0323 20.3491 20.9979 20.4313C20.9635 20.5134 20.913 20.5879 20.8495 20.6503C20.786 20.7128 20.7107 20.762 20.628 20.795C20.5453 20.8281 20.4568 20.8443 20.3677 20.8428C20.2818 20.8465 20.196 20.8327 20.1155 20.8023C20.0351 20.7718 19.9616 20.7254 19.8996 20.6658C19.8377 20.6061 19.7884 20.5345 19.7549 20.4553C19.7214 20.376 19.7043 20.2908 19.7047 20.2048C19.667 19.6108 19.6719 19.0149 19.7195 18.4217C19.8582 17.1423 20.8567 16.2348 22.1679 16.2132C23.8112 16.1859 25.4568 16.1825 27.1012 16.2132C28.5512 16.2416 29.5553 17.3049 29.5656 18.7571C29.5724 19.8489 29.5656 20.9406 29.5656 22.0312C29.5656 22.5373 29.2744 22.8875 28.8764 22.883C28.4784 22.8784 28.2077 22.5418 28.2054 22.0164C28.2054 20.9395 28.2054 19.8557 28.2054 18.7844C28.2054 18.0373 27.7756 17.5869 27.0273 17.571C26.2335 17.5562 25.4397 17.5699 24.6459 17.5687Z" fill="#023DA7"/>
<path d="M35.9705 5.04666C35.9705 5.66985 35.9705 6.2976 35.9705 6.91852C35.9705 7.47917 35.7146 7.82034 35.3018 7.8283C34.8708 7.83967 34.6115 7.49623 34.6104 6.89805C34.6104 5.72103 34.6104 4.544 34.6104 3.37267C34.6104 2.66759 34.4034 2.46289 33.7006 2.46289H33.3595C32.4827 2.46289 32.3826 2.55614 32.2916 3.44317C32.2841 3.61491 32.2113 3.77729 32.0881 3.89713C31.9648 4.01698 31.8005 4.08524 31.6286 4.08798C31.259 4.09821 30.9952 3.86053 30.9406 3.47502C30.8996 3.18633 30.9198 2.89224 30.9998 2.61186C31.0799 2.33148 31.218 2.07108 31.4053 1.84757C31.5925 1.62406 31.8247 1.44245 32.0867 1.31452C32.3488 1.1866 32.6348 1.11523 32.9262 1.10505C33.281 1.09519 33.6354 1.09519 33.9895 1.10505C34.5045 1.1125 34.9968 1.3188 35.3632 1.68081C35.7297 2.04281 35.942 2.53249 35.9557 3.04742C35.9819 3.7127 35.9557 4.38024 35.9557 5.04666H35.9705Z" fill="#023DA7"/>
</svg>
