<svg width="26" height="26" viewBox="0 0 26 26" fill="none" xmlns="http://www.w3.org/2000/svg">
<path d="M3.2375 22.75V22.7625H3.25H22.75H22.7625V22.75V21.45C22.7625 21.1499 22.6874 20.8768 22.5372 20.631C22.3872 20.3854 22.1893 20.1943 21.9436 20.0578L21.9431 20.0576C20.4798 19.3259 19.0029 18.7772 17.5124 18.4113C16.0218 18.0454 14.5177 17.8625 13 17.8625C11.4823 17.8625 9.97819 18.0454 8.48765 18.4113C6.9971 18.7772 5.52019 19.3259 4.0569 20.0576L4.05643 20.0578C3.81074 20.1943 3.61283 20.3854 3.46277 20.631C3.31256 20.8768 3.2375 21.1499 3.2375 21.45V22.75ZM13 12.9875C11.2158 12.9875 9.6888 12.3524 8.41821 11.0818C7.14762 9.81119 6.5125 8.28416 6.5125 6.5C6.5125 4.71584 7.14762 3.1888 8.41821 1.91821C9.6888 0.647623 11.2158 0.0125 13 0.0125C14.7842 0.0125 16.3112 0.647623 17.5818 1.91821C18.8524 3.1888 19.4875 4.71584 19.4875 6.5C19.4875 8.28416 18.8524 9.81119 17.5818 11.0818C16.3112 12.3524 14.7842 12.9875 13 12.9875ZM0.0125 25.9875V21.45C0.0125 20.5314 0.248861 19.6873 0.72159 18.9175C1.19437 18.1475 1.82234 17.5601 2.60563 17.1549C4.28399 16.3157 5.98934 15.6864 7.72169 15.2668C9.45406 14.8473 11.2135 14.6375 13 14.6375C14.7865 14.6375 16.5459 14.8473 18.2783 15.2668C20.0107 15.6864 21.716 16.3157 23.3944 17.1549C24.1777 17.5601 24.8056 18.1475 25.2784 18.9175C25.7511 19.6873 25.9875 20.5314 25.9875 21.45V25.9875H0.0125ZM13 9.7625C13.8971 9.7625 14.6654 9.44293 15.3042 8.80415C15.9429 8.16537 16.2625 7.39709 16.2625 6.5C16.2625 5.60291 15.9429 4.83463 15.3042 4.19585C14.6654 3.55706 13.8971 3.2375 13 3.2375C12.1029 3.2375 11.3346 3.55706 10.6958 4.19585C10.0571 4.83463 9.7375 5.60291 9.7375 6.5C9.7375 7.39709 10.0571 8.16537 10.6958 8.80415C11.3346 9.44293 12.1029 9.7625 13 9.7625Z" fill="#023DA7" stroke="#023DA7" stroke-width="0.025"/>
</svg>
