<svg width="16" height="16" viewBox="0 0 16 16" fill="none" xmlns="http://www.w3.org/2000/svg">
    <g clip-path="url(#clip0_97_13423)">
    <path d="M8.00112 8.30431C10.2568 8.30431 12.1007 6.46042 12.1007 4.20477C12.1007 1.94911 10.2568 0.105225 8.00112 0.105225C5.74546 0.105225 3.90161 1.94911 3.90161 4.20477C3.90161 6.46042 5.7455 8.30431 8.00112 8.30431Z"/>
    <path d="M15.0366 11.5803C14.9292 11.3118 14.786 11.0612 14.6249 10.8285C13.8014 9.61111 12.5304 8.80553 11.0983 8.60861C10.9192 8.59072 10.7223 8.62649 10.5791 8.73392C9.82721 9.28888 8.93213 9.5753 8.00121 9.5753C7.07029 9.5753 6.17521 9.28888 5.42332 8.73392C5.28009 8.62649 5.08317 8.5728 4.90417 8.60861C3.47201 8.80553 2.18309 9.61111 1.37751 10.8285C1.21639 11.0612 1.07316 11.3297 0.965774 11.5803C0.91208 11.6878 0.929967 11.8131 0.983661 11.9205C1.12689 12.1711 1.30589 12.4218 1.46701 12.6366C1.71762 12.9767 1.98616 13.281 2.29051 13.5675C2.54112 13.8181 2.82755 14.0508 3.11401 14.2835C4.52824 15.3398 6.22894 15.8947 7.98332 15.8947C9.73771 15.8947 11.4384 15.3397 12.8526 14.2835C13.1391 14.0687 13.4255 13.8181 13.6761 13.5675C13.9626 13.281 14.249 12.9767 14.4996 12.6366C14.6786 12.4038 14.8398 12.1711 14.983 11.9205C15.0725 11.8131 15.0903 11.6877 15.0366 11.5803Z"/>
    </g>
    <defs>
    <clipPath id="clip0_97_13423">
    <rect width="15.7895" height="15.7895" fill="rgba(0,0,0,0)" transform="translate(0.105225 0.105225)"/>
    </clipPath>
    </defs>
    </svg>
