<svg width="32" height="32" viewBox="0 0 32 32" fill="none" xmlns="http://www.w3.org/2000/svg">
    <g clip-path="url(#clip0_97_13389)">
    <path d="M16.002 16.6087C20.5133 16.6087 24.2011 12.9209 24.2011 8.40961C24.2011 3.8983 20.5133 0.210526 16.002 0.210526C11.4907 0.210526 7.80298 3.8983 7.80298 8.40961C7.80298 12.9209 11.4908 16.6087 16.002 16.6087Z"/>
    <path d="M30.073 23.1608C29.8582 22.6237 29.5718 22.1225 29.2496 21.657C27.6026 19.2223 25.0606 17.6111 22.1963 17.2173C21.8383 17.1815 21.4444 17.2531 21.1579 17.4679C19.6542 18.5778 17.864 19.1507 16.0022 19.1507C14.1403 19.1507 12.3502 18.5778 10.8464 17.4679C10.5599 17.2531 10.1661 17.1457 9.80809 17.2173C6.94378 17.6111 4.36593 19.2223 2.75477 21.657C2.43254 22.1225 2.14608 22.6595 1.9313 23.1608C1.82392 23.3756 1.85969 23.6262 1.96708 23.8411C2.25354 24.3423 2.61154 24.8436 2.93377 25.2732C3.43501 25.9535 3.97208 26.5622 4.58077 27.135C5.08201 27.6362 5.65485 28.1017 6.22777 28.5672C9.05624 30.6796 12.4576 31.7895 15.9664 31.7895C19.4752 31.7895 22.8766 30.6796 25.705 28.5672C26.2779 28.1375 26.8507 27.6362 27.352 27.135C27.9249 26.5622 28.4977 25.9535 28.999 25.2732C29.357 24.8078 29.6793 24.3423 29.9657 23.8411C30.1447 23.6262 30.1804 23.3755 30.073 23.1608Z"/>
    </g>
    <defs>
    <clipPath id="clip0_97_13389">
    <rect width="31.5789" height="31.5789" fill="rgba(0,0,0,0)" transform="translate(0.210449 0.210526)"/>
    </clipPath>
    </defs>
    </svg>
