<svg width="15" height="15" viewBox="0 0 15 15" fill="none" xmlns="http://www.w3.org/2000/svg">
    <g clip-path="url(#clip0_97_13447)">
    <path fill-rule="evenodd" clip-rule="evenodd" d="M12.0115 0.780585H13.3285V3.70799L12.0115 2.72095V0.780585ZM13.3285 14.4138V6.7103L7.59006 2.38746C7.56442 2.36725 7.53273 2.35626 7.50009 2.35626C7.46744 2.35626 7.43575 2.36725 7.41011 2.38746L1.67162 6.7103V14.4138C1.67178 14.5692 1.73362 14.7183 1.84355 14.8282C1.95349 14.9381 2.10254 14.9999 2.25799 15H12.7421C12.8976 14.9999 13.0466 14.9381 13.1566 14.8282C13.2665 14.7183 13.3283 14.5692 13.3285 14.4138ZM14.7225 5.37811L7.58976 0.0311718C7.56422 0.010978 7.53262 -7.62939e-06 7.50006 -7.62939e-06C7.4675 -7.62939e-06 7.43589 0.010978 7.41035 0.0311718L0.277554 5.37811C0.134816 5.48596 0.0399566 5.64538 0.0132754 5.82228C-0.0134058 5.99918 0.0302101 6.17949 0.13479 6.32464L0.157583 6.35616C0.209517 6.43067 0.276461 6.49349 0.354114 6.5406C0.431768 6.5877 0.518416 6.61804 0.608491 6.62967C0.69807 6.64493 0.789849 6.64127 0.877927 6.61892C0.966004 6.59657 1.04843 6.55604 1.1199 6.49992L7.10926 1.98835C7.22149 1.90258 7.35881 1.85611 7.50006 1.85611C7.6413 1.85611 7.77863 1.90258 7.89085 1.98835L13.8802 6.50007C13.9525 6.55454 14.035 6.59408 14.1227 6.61636C14.2105 6.63864 14.3018 6.64322 14.3914 6.62984C14.481 6.61646 14.567 6.58538 14.6444 6.53842C14.7218 6.49146 14.7891 6.42955 14.8424 6.35631L14.8651 6.32507C14.9697 6.17991 15.0134 5.99956 14.9867 5.82262C14.9601 5.64567 14.8653 5.48603 14.7225 5.37811Z"/>
    <path d="M7.25795 13.5484C5.3873 13.5484 3.87085 12.0319 3.87085 10.1613C3.87085 8.29065 5.3873 6.77419 7.25795 6.77419C9.12859 6.77419 10.645 8.29065 10.645 10.1613C10.645 12.0319 9.12859 13.5484 7.25795 13.5484ZM7.25795 7.19758C5.62113 7.19758 4.29424 8.52447 4.29424 10.1613C4.29424 11.7981 5.62113 13.125 7.25795 13.125C8.89476 13.125 10.2217 11.7981 10.2217 10.1613C10.2217 8.52447 8.89476 7.19758 7.25795 7.19758Z" fill="white"/>
    <path d="M7.74266 12.003L6.04911 10.3095C5.96703 10.2269 5.96703 10.0936 6.04911 10.011L7.74266 8.31744L8.04115 8.61804L6.4979 10.1613L8.04115 11.7045L7.74266 12.003Z" fill="white"/>
    </g>
    <defs>
    <clipPath id="clip0_97_13447">
    <rect width="15" height="15" fill="rgba(0,0,0,0)"/>
    </clipPath>
    </defs>
    </svg>
