<svg width="31" height="31" viewBox="0 0 31 31" fill="none" xmlns="http://www.w3.org/2000/svg">
    <g clip-path="url(#clip0_97_13411)">
    <path fill-rule="evenodd" clip-rule="evenodd" d="M24.8235 1.61321H27.5454V7.66317L24.8235 5.62329V1.61321ZM27.5454 29.7885V13.868L15.686 4.93408C15.633 4.89231 15.5675 4.8696 15.5 4.8696C15.4326 4.8696 15.3671 4.89231 15.3141 4.93408L3.45454 13.868V29.7885C3.45488 30.1098 3.58268 30.4178 3.80988 30.6449C4.03708 30.872 4.34513 30.9997 4.66639 31H26.3336C26.6548 30.9997 26.9629 30.872 27.1901 30.6449C27.4173 30.4178 27.5451 30.1098 27.5454 29.7885ZM30.4264 11.1148L15.6854 0.0644222C15.6326 0.0226884 15.5673 -1.52588e-05 15.5 -1.52588e-05C15.4327 -1.52588e-05 15.3674 0.0226884 15.3146 0.0644222L0.573481 11.1148C0.278489 11.3376 0.0824468 11.6671 0.0273056 12.0327C-0.0278356 12.3983 0.0623039 12.7709 0.278436 13.0709L0.325541 13.1361C0.432871 13.2901 0.571222 13.4199 0.731706 13.5172C0.892191 13.6146 1.07126 13.6773 1.25742 13.7013C1.44255 13.7329 1.63223 13.7253 1.81425 13.6791C1.99628 13.6329 2.16662 13.5491 2.31433 13.4332L14.6924 4.10925C14.9243 3.93199 15.2081 3.83595 15.5 3.83595C15.7919 3.83595 16.0757 3.93199 16.3076 4.10925L28.6855 13.4335C28.835 13.5461 29.0054 13.6278 29.1868 13.6738C29.3682 13.7199 29.557 13.7293 29.7421 13.7017C29.9272 13.674 30.1049 13.6098 30.265 13.5127C30.425 13.4157 30.5641 13.2877 30.6741 13.1364L30.7211 13.0718C30.9373 12.7718 31.0275 12.3991 30.9725 12.0334C30.9174 11.6677 30.7214 11.3378 30.4264 11.1148Z"/>
    <path d="M15 28C11.134 28 8 24.866 8 21C8 17.134 11.134 14 15 14C18.866 14 22 17.134 22 21C22 24.866 18.866 28 15 28ZM15 14.875C11.6173 14.875 8.875 17.6173 8.875 21C8.875 24.3827 11.6173 27.125 15 27.125C18.3827 27.125 21.125 24.3827 21.125 21C21.125 17.6173 18.3827 14.875 15 14.875Z" fill="white"/>
    <path d="M16.0017 24.8062L12.5017 21.3062C12.3321 21.1356 12.3321 20.86 12.5017 20.6894L16.0017 17.1894L16.6186 17.8106L13.4292 21L16.6186 24.1894L16.0017 24.8062Z" fill="white"/>
    </g>
    <defs>
    <clipPath id="clip0_97_13411">
    <rect width="31" height="31" fill="rgba(0,0,0,0)"/>
    </clipPath>
    </defs>
    </svg>
