<svg width="50" height="38" viewBox="0 0 50 38" fill="none" xmlns="http://www.w3.org/2000/svg">
<path d="M44.751 12.6409L44.8072 12.6536C44.8072 12.4926 44.8072 12.3329 44.8072 12.1719L44.7344 12.2294C44.7395 12.3712 44.7459 12.5131 44.751 12.6409Z" fill="#B7B4B2"/>
<path d="M35.6406 12.0003C35.7429 12.0387 35.8451 12.0732 35.9473 12.1077C35.9473 11.893 35.9384 11.677 35.9371 11.4688C35.8298 11.6336 35.7326 11.8151 35.6406 12.0003Z" fill="#B7B4B2"/>
<path d="M27.5559 35.6829V35.6765H25.4806C25.4679 35.5487 25.4449 35.4312 25.4449 35.3111C25.4449 33.5898 25.4321 31.8685 25.4449 30.1485C25.4463 29.9301 25.4617 29.712 25.4909 29.4955V28.7288C25.4629 28.4695 25.4006 28.2151 25.3056 27.9723C25.05 27.364 24.5593 26.8771 24.2207 26.3111C23.9127 25.9277 23.5715 25.6121 23.5 25.0498C23.1894 22.5861 22.7984 20.1313 22.4138 17.6778C22.0304 15.2498 21.6637 12.8296 21.7953 10.3607C21.8166 9.88375 21.7927 9.40582 21.7237 8.93336C21.2126 5.34 19.2843 2.78938 15.9069 1.51023C12.5295 0.231091 9.36676 0.86619 6.6449 3.26091C4.63738 5.0282 3.67386 7.31813 3.63808 9.99143C3.62275 11.1862 3.76587 12.3989 3.60486 13.5695C3.08094 17.5155 2.45478 21.4488 1.86057 25.3846C1.81637 25.5826 1.71663 25.7639 1.57305 25.9072C0.96398 26.5444 0.521921 27.3223 0.286242 28.1716C0.175068 28.5678 0.0945621 28.9729 0 29.3728V36.9301C0.255573 37.3493 0.576318 37.6099 1.10919 37.6061C3.50008 37.5908 5.89224 37.6061 8.28313 37.5972C8.94762 37.5972 9.36804 37.2253 9.3757 36.6554C9.38337 36.0663 8.95656 35.6931 8.26013 35.688C7.64292 35.688 7.02571 35.688 6.41617 35.688C6.41617 35.6701 6.40722 35.6548 6.40211 35.6395H4.4342V35.651H1.93086C1.93086 35.5232 1.91424 35.4031 1.91424 35.2791C1.91424 33.6179 1.92958 31.9643 1.91424 30.3069C1.88996 28.2981 2.77297 26.8644 4.63354 26.1232C5.85646 25.6363 7.13305 25.2849 8.38919 24.8824C8.85817 24.7316 9.33865 24.614 9.8089 24.4658C10.3852 24.2844 10.6063 23.9802 10.6165 23.3771C10.6165 23.0436 10.6165 22.7113 10.6165 22.2922C12.0541 22.8519 13.4278 22.8263 14.8335 22.3024C14.8335 22.6857 14.8335 23.0244 14.8335 23.3566C14.8411 23.9853 15.0597 24.2946 15.6666 24.4735C16.9011 24.8402 18.1585 25.1431 19.3724 25.5648C20.2282 25.8585 21.0513 26.2401 21.8285 26.7034C22.8802 27.3359 23.4373 28.3646 23.4757 29.5734C23.5396 31.5912 23.4936 33.6128 23.4936 35.6599H19.0888V35.688C18.3732 35.688 17.7202 35.6791 17.0697 35.688C16.4768 35.6995 16.0768 36.0842 16.0679 36.6222C16.0577 37.1819 16.464 37.5716 17.08 37.5959C17.1439 37.5959 17.2077 37.5959 17.2716 37.5959H27.6224C27.6249 36.9595 27.6028 36.3219 27.5559 35.6829ZM10.8082 3.08968C15.3344 1.77731 19.8312 5.20454 19.8887 9.92115C19.8989 10.7479 19.8887 11.5747 19.8887 12.459C16.4385 11.8277 13.1659 10.9562 10.3162 8.92952C9.75012 8.527 9.26836 8.61134 8.82622 9.1851C7.96111 10.3173 6.85831 11.1581 5.63156 11.8839C5.07313 8.02863 6.6449 4.2947 10.8082 3.08968ZM7.6557 23.0934C6.4545 23.4448 5.25842 23.8141 3.98311 24.2C4.35497 21.7031 4.72044 19.2381 5.1038 16.6606C5.19964 16.8395 5.2597 16.9302 5.30059 17.0286C5.95224 18.5758 6.99128 19.929 8.31763 20.9581C8.44719 21.0427 8.55177 21.1604 8.62053 21.299C8.68928 21.4377 8.71971 21.5922 8.70866 21.7465C8.68949 22.7944 8.69843 22.7867 7.6557 23.0934ZM14.1166 20.5147C13.2451 20.8801 12.3416 20.9274 11.465 20.5632C9.0064 19.5409 7.34006 17.8017 6.76502 15.1463C6.66535 14.6876 6.70496 14.1956 6.71646 13.719C6.74054 13.5715 6.81895 13.4384 6.93626 13.3458C7.84439 12.6021 8.7602 11.8673 9.68367 11.1415C9.74005 11.1025 9.80477 11.0772 9.87267 11.0677C9.94056 11.0581 10.0097 11.0646 10.0747 11.0866C12.6304 12.6532 15.4494 13.5145 18.3642 14.1113C18.4716 14.133 18.5776 14.1675 18.8153 14.2301C18.7028 14.8333 18.6747 15.4339 18.4767 15.9718C17.6895 18.111 16.2289 19.6304 14.1166 20.5147ZM16.9777 22.8621C16.9177 22.8442 16.8129 22.811 16.8129 22.7867C16.8206 22.2474 16.8397 21.7095 16.8563 21.1702C18.3835 20.0254 19.5884 18.5048 20.3539 16.7565C20.7219 19.233 21.089 21.7061 21.4554 24.1757L16.9777 22.8621Z" fill="#B7B4B2"/>
<path d="M49.0861 30.3727C49.1155 27.4898 47.8223 25.444 45.181 24.3322C43.9108 23.7981 42.5626 23.4466 41.2426 23.0377C40.3902 22.7732 40.3838 22.7949 40.3838 21.9196C40.3941 21.7443 40.3941 21.5685 40.3838 21.3931C40.3493 21.1094 40.4682 20.9433 40.6893 20.7618C41.3026 20.2507 41.9352 19.7574 42.4642 19.1696C43.8558 17.6234 44.8551 15.8625 44.8998 13.708C44.9305 12.1618 44.9152 10.6156 44.8922 9.06937C44.8871 8.57563 44.8319 8.08368 44.7273 7.60111C43.705 2.96501 39.281 0.112811 34.6168 1.0661C30.7066 1.86604 27.9489 5.11055 27.8301 9.1026C27.7854 10.636 27.8148 12.1695 27.8224 13.694C27.8228 14.0284 27.854 14.362 27.9157 14.6907C28.3681 16.9819 29.6025 18.8259 31.3992 20.2366C32.1787 20.8487 32.4854 21.4634 32.3435 22.3809C32.341 22.397 32.341 22.4134 32.3435 22.4295C32.3844 22.6965 32.2758 22.8282 32.0036 22.8921C31.4618 23.0198 30.9276 23.1783 30.3922 23.3316C28.2032 23.954 26.0475 24.6325 24.5958 26.6541V26.6451C24.3326 27.1448 24.1217 27.6968 23.9045 28.2067C23.8598 28.3102 23.8163 28.4239 23.7767 28.5428C23.7438 29.0038 23.6866 29.4628 23.6055 29.9178C23.6336 31.018 23.6323 32.1208 23.6259 33.2274C23.6342 33.2794 23.6385 33.332 23.6387 33.3846V37.5824H47.8913C48.7462 37.5824 49.081 37.2489 49.0823 36.3965C49.0848 34.389 49.0721 32.3815 49.0861 30.3727ZM31.1819 5.246C33.0336 3.11196 35.3989 2.33374 38.1092 3.04168C40.8196 3.74962 42.3927 5.61147 42.9217 8.35121C43.1172 9.37351 43.1019 9.37351 42.1166 9.75687C40.7263 10.3 39.3053 10.7549 37.7936 10.5019C37.0972 10.3856 36.4186 10.1185 35.749 9.87443C34.8277 9.53068 33.9511 9.0157 33.0042 8.79974C32.1097 8.59528 31.1474 8.68218 30.2146 8.6464C30.1038 8.65234 29.9936 8.66644 29.8849 8.68857C29.8568 8.68857 29.8274 8.67068 29.7571 8.6464C29.8596 7.39055 30.3586 6.19977 31.1819 5.246ZM30.3475 15.9877C29.917 15.1832 29.6996 14.2818 29.7162 13.3694C29.7328 12.6206 29.7379 11.8705 29.7162 11.1229C29.7034 10.774 29.844 10.6629 30.1596 10.5951C31.2566 10.351 32.403 10.4643 33.431 10.9184C33.8386 11.0986 34.2514 11.2724 34.6424 11.482C37.0013 12.7458 39.4242 12.7599 41.8981 11.8781C42.2406 11.7567 42.5843 11.6417 42.9204 11.5242C43.282 13.9598 42.7658 16.1245 41.0432 17.8892C40.4203 18.5255 39.7305 19.0928 38.9859 19.5811C37.2799 20.7031 35.5241 20.6916 33.7722 19.6284C32.3146 18.7573 31.1294 17.4963 30.35 15.9877H30.3475ZM47.1591 35.5391C47.1485 35.5833 47.1331 35.6261 47.1131 35.6669H42.2508C42.1597 35.6869 42.0667 35.6967 41.9735 35.6963H31.2918C31.2444 35.6963 31.1971 35.6938 31.15 35.6886C31.1065 35.6886 31.0631 35.6771 31.0222 35.6682H25.5887C25.5759 35.5404 25.5529 35.4215 25.5529 35.3014C25.5529 33.5801 25.5414 31.8588 25.5529 30.1388C25.5708 27.9665 26.8385 26.373 29.0147 25.8196C29.3674 25.6663 29.7341 25.6037 30.1418 25.4861C30.6951 25.3264 31.2484 25.1475 31.803 24.9993C31.8784 24.9328 31.8886 24.9162 31.9027 24.9124C32.1314 24.8382 32.3141 24.7846 32.4687 24.7373C32.5037 24.6975 32.5475 24.6665 32.5965 24.6466C32.9364 24.5188 33.3441 24.5188 33.6431 24.3182L33.6814 24.2913C33.7226 24.2605 33.7603 24.2254 33.7939 24.1865C34.0571 23.8862 34.1555 23.4786 34.2322 23.085C34.2399 22.9879 34.245 22.8908 34.2501 22.7924C34.2105 22.5509 34.2258 22.2416 34.1824 21.9375C35.6506 22.4704 37.0218 22.4857 38.4057 21.9771C38.4551 22.1629 38.4783 22.3548 38.4747 22.547C38.4747 22.5585 38.4747 22.57 38.4811 22.5828C38.5036 23.0168 38.5941 23.4446 38.7495 23.8505C38.7852 23.9041 38.8236 23.9578 38.8606 24.0102C38.9986 24.1175 39.1367 24.2236 39.2823 24.3182C39.5558 24.4958 39.865 24.5737 40.1641 24.6951C40.195 24.7078 40.2238 24.725 40.2497 24.7462C40.3353 24.7692 40.4222 24.7961 40.5142 24.8242C41.2362 24.9379 41.9058 25.2408 42.592 25.4951C42.8565 25.5692 43.1172 25.651 43.3728 25.7506C43.4737 25.7762 43.5747 25.8018 43.6769 25.8222C43.7645 25.8384 43.8501 25.8637 43.9325 25.8976C45.3675 26.1813 46.8294 27.6866 47.0645 29.1958C47.1291 29.6367 47.1611 30.0817 47.1604 30.5273C47.1744 32.1911 47.1655 33.8613 47.1616 35.534L47.1591 35.5391Z" fill="#B7B4B2"/>
<path d="M19.9247 35.6367H6.05859V37.6034H19.9247V35.6367Z" fill="#B7B4B2"/>
</svg>
