<svg width="47" height="48" viewBox="0 0 47 48" fill="none" xmlns="http://www.w3.org/2000/svg">
<path d="M10.8146 47.6441C10.653 47.4614 10.4778 47.2886 10.3311 47.0947C6.99646 42.6595 3.66306 38.2232 0.3309 33.7855C-0.15264 33.1416 -0.120322 32.9378 0.521084 32.4605C1.56689 31.6831 2.61062 30.905 3.65228 30.126C5.3801 28.8383 7.49077 29.1316 8.7798 30.8445C11.0703 33.8924 13.355 36.9449 15.6339 40.0019C16.9192 41.7248 16.596 43.8317 14.857 45.112C13.701 45.9635 12.535 46.8001 11.3765 47.6441H10.8146ZM1.80762 33.2746C4.96741 37.4811 8.10234 41.6577 11.2621 45.8566C12.223 45.1431 13.1267 44.4731 14.0353 43.7982C15.1541 42.9678 15.3095 41.8988 14.4853 40.7751C13.9632 40.0641 13.4275 39.3618 12.898 38.6545C11.1453 36.3101 9.39178 33.9658 7.63745 31.6214C6.97367 30.7351 5.85743 30.4268 5.01838 30.98C3.93445 31.696 2.90149 32.4878 1.80762 33.2746Z" fill="#B7B4B2"/>
<path d="M13.9428 17.1976C13.6529 17.2154 13.3621 17.2129 13.0726 17.1901C12.1739 17.0521 11.5188 16.5785 11.2329 15.6985C10.947 14.8184 11.1646 14.0403 11.8097 13.3939C13.4248 11.7664 15.0474 10.1459 16.6774 8.53239C19.0806 6.15074 21.4797 3.76992 23.8746 1.38993C25.278 0.000214803 27.1065 -0.37891 28.7734 0.395499C29.1557 0.565096 29.506 0.799313 29.8088 1.08787C33.9307 5.18656 38.0427 9.29562 42.1447 13.415C43.2411 14.5188 42.9974 16.2504 41.6475 16.9738C41.2074 17.2088 40.6531 17.2398 40.0589 17.389V17.7917C40.0589 20.2405 40.0589 22.6897 40.0589 25.1393C40.0715 25.3092 40.0594 25.4801 40.0228 25.6465C39.9867 25.8079 39.8951 25.9516 39.7642 26.0526C39.6332 26.1537 39.4709 26.2057 39.3056 26.1996C39.1399 26.2079 38.9771 26.1542 38.8489 26.0489C38.7206 25.9437 38.6362 25.7944 38.612 25.6303C38.5804 25.4473 38.5675 25.2615 38.5735 25.0759C38.5735 22.2704 38.5735 19.4649 38.5623 16.6593C38.5632 16.4206 38.48 16.1891 38.3273 16.0055C34.6082 12.2714 30.8791 8.54565 27.14 4.82816C27.0853 4.77471 27.0244 4.72747 26.9772 4.68645C25.2544 6.39189 23.5377 8.08987 21.8286 9.79905C19.8124 11.8165 17.8098 13.8476 15.7887 15.8601C15.6658 15.9734 15.5696 16.1125 15.507 16.2675C15.4445 16.4225 15.4171 16.5895 15.4269 16.7563C15.4468 18.105 15.4344 19.4537 15.4344 20.8024C15.439 20.9417 15.4361 21.0811 15.4257 21.22C15.376 21.6887 15.0528 21.982 14.6339 21.9659C14.215 21.9497 13.9577 21.675 13.9527 21.1877C13.9403 20.0404 13.9527 18.8931 13.9527 17.747C13.9428 17.573 13.9428 17.4064 13.9428 17.1976ZM41.4511 15.0272C41.2398 14.7227 41.1018 14.4455 40.8954 14.2379C36.9774 10.3074 33.054 6.38112 29.1252 2.45893C27.7914 1.12765 26.214 1.1351 24.8727 2.46764L13.095 14.1745C12.5294 14.7364 12.4461 15.1901 12.8389 15.568C13.2317 15.9458 13.6581 15.8389 14.2063 15.2957L25.8361 3.64106C26.664 2.8132 27.2668 2.81444 28.0984 3.64106L39.7083 15.251C39.8327 15.3753 39.9321 15.5568 40.0813 15.5978C40.346 15.6736 40.668 15.7532 40.9041 15.6649C41.1105 15.5916 41.2398 15.2883 41.4511 15.0272Z" fill="#B7B4B2"/>
<path d="M33.0131 30.3313C35.5912 29.6563 38.0474 28.7937 40.3122 27.4425C41.6348 26.6519 43.0469 26.4481 44.5112 26.9092C45.0606 27.0845 45.5765 27.399 46.0699 27.7098C47.3789 28.5389 47.2247 30.4345 46.1147 31.2512C44.6168 32.3512 43.1513 33.506 41.5888 34.5079C39.8573 35.6167 38.0524 36.6211 36.2438 37.5968C34.0535 38.774 31.6769 39.347 29.1995 39.4365C25.5736 39.5683 21.9452 39.6454 18.318 39.7473C18.1799 39.7523 18.0424 39.7672 17.9065 39.792C17.8125 39.8151 17.7148 39.8182 17.6195 39.8013C17.5242 39.7844 17.4335 39.7479 17.3531 39.6939C17.2728 39.64 17.2045 39.5699 17.1528 39.4881C17.101 39.4064 17.0669 39.3147 17.0526 39.219C16.9743 38.8013 17.1694 38.4508 17.607 38.416C18.625 38.3352 19.648 38.3054 20.6698 38.2731C23.0191 38.196 25.3809 38.0717 27.734 38.0841C31.0901 38.0953 34.1803 37.2264 37.099 35.598C39.8684 34.0554 42.5236 32.3525 44.9736 30.3375C45.7132 29.7297 45.7032 29.2561 44.8965 28.7489C43.7144 28.0031 42.4664 27.9534 41.2843 28.6644C38.5819 30.2891 35.6397 31.2561 32.6066 32.0069C32.401 32.0593 32.2103 32.1589 32.0498 32.2978C31.4278 32.8734 30.6126 33.195 29.7651 33.199C28.0596 33.2151 26.3529 33.2102 24.6475 33.199C23.9763 33.199 23.5959 32.6782 23.837 32.13C23.9924 31.7732 24.2945 31.7098 24.6425 31.7111C26.2088 31.7111 27.775 31.7111 29.3412 31.7111C29.4804 31.7111 29.6209 31.6999 29.7589 31.7111C30.8776 31.7968 31.5277 30.6707 31.6408 29.7458C31.7726 28.6644 31.125 27.793 30.1069 27.5792C29.924 27.5463 29.7382 27.5325 29.5525 27.5382C28.2337 27.5382 26.916 27.5221 25.5984 27.5382C24.3115 27.5795 23.0604 27.1103 22.1179 26.233C20.7916 25.0198 19.259 24.3511 17.4429 24.3822C16.477 24.3924 15.5297 24.6491 14.6908 25.128C13.0401 26.0752 11.5186 27.1852 10.3178 28.6905C9.98842 29.1044 9.51358 29.2026 9.18169 28.9491C8.8498 28.6955 8.82121 28.1722 9.16677 27.7545C10.6659 25.9446 12.4807 24.4965 14.6262 23.5854C17.5001 22.366 20.2335 22.8669 22.6326 24.8433C23.6469 25.6786 24.6985 26.1398 26.0211 26.069C27.1398 26.0093 28.2585 26.0553 29.3698 26.0565C31.7465 26.0565 33.2555 27.7085 33.0392 30.0665C33.0293 30.1411 33.0231 30.2145 33.0131 30.3313Z" fill="#B7B4B2"/>
<path d="M39.3194 5.51956C39.3194 6.20074 39.3194 6.88689 39.3194 7.56559C39.3194 8.17841 39.0397 8.55132 38.5885 8.56002C38.1173 8.57245 37.8339 8.19705 37.8327 7.54322C37.8327 6.25668 37.8327 4.97014 37.8327 3.68981C37.8327 2.91913 37.6065 2.69539 36.8383 2.69539H36.4654C35.507 2.69539 35.3976 2.79732 35.2981 3.76688C35.2899 3.95459 35.2103 4.13208 35.0756 4.26308C34.941 4.39408 34.7613 4.46869 34.5735 4.47168C34.1695 4.48287 33.8811 4.22307 33.8214 3.80169C33.7766 3.48614 33.7986 3.16469 33.8861 2.85822C33.9737 2.55175 34.1247 2.26712 34.3293 2.02282C34.534 1.77851 34.7878 1.58 35.0742 1.44017C35.3606 1.30034 35.6732 1.22233 35.9918 1.2112C36.3796 1.20043 36.767 1.20043 37.154 1.2112C37.717 1.21935 38.255 1.44484 38.6556 1.84053C39.0561 2.23623 39.2882 2.77146 39.3032 3.33431C39.3318 4.06148 39.3032 4.79114 39.3032 5.51956H39.3194Z" fill="#B7B4B2"/>
<path d="M26.9972 23.2798C25.9464 23.2724 24.9213 22.9539 24.0514 22.3644C23.1815 21.7749 22.5057 20.9409 22.1094 19.9676C21.7131 18.9944 21.6141 17.9255 21.8248 16.896C22.0355 15.8665 22.5465 14.9226 23.2932 14.1832C24.04 13.4439 24.9891 12.9424 26.0206 12.7421C27.0522 12.5417 28.12 12.6515 29.0892 13.0575C30.0584 13.4636 30.8856 14.1477 31.4664 15.0234C32.0471 15.8992 32.3553 16.9274 32.3522 17.9783C32.3443 19.3912 31.7759 20.7431 30.7718 21.7372C29.7677 22.7312 28.4101 23.2861 26.9972 23.2798ZM27.0444 13.6587C24.7001 13.6413 22.7435 15.5506 22.7211 17.8788C22.7036 18.7338 22.941 19.5747 23.4029 20.2944C23.8649 21.0141 24.5306 21.58 25.3153 21.9201C26.1 22.2602 26.9681 22.359 27.8091 22.2041C28.6502 22.0492 29.4261 21.6474 30.0381 21.0501C30.65 20.4527 31.0704 19.6867 31.2456 18.8497C31.4208 18.0126 31.3429 17.1423 31.0219 16.3497C30.7008 15.557 30.1511 14.8779 29.4428 14.3987C28.7345 13.9194 27.8996 13.6619 27.0444 13.6587Z" fill="#B7B4B2"/>
<path d="M26.6552 14.9876L26.6938 14.5625H27.401C27.4147 14.7104 27.4271 14.8621 27.4433 15.0386C28.0648 15.1467 28.6466 15.3556 29.1413 15.8217L28.6229 16.5178L27.4383 15.9149V17.4811C27.6869 17.5607 27.9355 17.634 28.1841 17.7235C28.9486 18.0069 29.3091 18.4694 29.3029 19.1518C29.3029 19.8889 28.8703 20.4669 28.127 20.718C27.9119 20.7901 27.6869 20.8311 27.4445 20.892C27.4346 21.0337 27.4234 21.1854 27.411 21.3606H26.6776C26.8131 20.8634 26.47 20.8274 26.1232 20.7068C25.6434 20.5415 25.2009 20.273 24.7012 20.0269L25.3078 19.2873L26.6751 20.0057C26.6751 19.4178 26.6838 18.9517 26.6664 18.4855C26.6664 18.4122 26.5583 18.3152 26.4775 18.2767C26.3159 18.1984 26.1344 18.1623 25.9678 18.094C25.3985 17.864 25.0107 17.4811 24.9833 16.8348C24.9578 16.5309 25.0227 16.2262 25.1698 15.9591C25.3168 15.6919 25.5396 15.4742 25.81 15.3332C26.0838 15.1996 26.3662 15.0841 26.6552 14.9876ZM27.4619 18.5651V19.9709C28.0163 19.8466 28.2637 19.6067 28.26 19.2388C28.2562 18.8709 28.0002 18.6695 27.4619 18.5651ZM26.6502 15.9547C26.209 16.1063 25.9914 16.3748 26.0287 16.7005C26.0685 17.0585 26.3308 17.1754 26.6502 17.2748V15.9547Z" fill="#B7B4B2"/>
</svg>
