<svg width="378" height="304" viewBox="0 0 378 304" fill="none" xmlns="http://www.w3.org/2000/svg">
<path d="M249.16 277.812H226.914V278.035H249.16V277.812Z" fill="#F4F3F2"/>
<path d="M154.357 283.253H112.492V283.476H154.357V283.253Z" fill="#F4F3F2"/>
<path d="M-0.000320435 271.726H106.859L106.859 35.4026H-0.000320435L-0.000320435 271.726Z" fill="#F4F3F2"/>
<path d="M0.00878143 271.726H101.801L101.801 35.4026H0.00878143L0.00878143 271.726Z" fill="#F4F3F2"/>
<path d="M96.4375 266.362L96.4375 40.7646L5.3708 40.7646L5.3708 266.362H96.4375Z" fill="#F4F3F2"/>
<path d="M34.7938 147.158H16.2301C15.5979 147.156 14.9923 146.904 14.5453 146.457C14.0983 146.01 13.8461 145.404 13.8438 144.772C13.8461 144.14 14.0983 143.534 14.5453 143.087C14.9923 142.64 15.5979 142.388 16.2301 142.386H34.7938C35.426 142.388 36.0316 142.64 36.4787 143.087C36.9257 143.534 37.1779 144.14 37.1802 144.772C37.1779 145.404 36.9257 146.01 36.4787 146.457C36.0316 146.904 35.426 147.156 34.7938 147.158Z" fill="white"/>
<path d="M6.76563 266.354L6.76562 40.7568H5.37134L5.37134 266.354H6.76563Z" fill="#F4F3F2"/>
<path d="M156.931 267.249H172.84V198.25H156.931V267.249Z" fill="#F4F3F2"/>
<path d="M91.3257 271.616H169.781V267.246H91.3257V271.616Z" fill="#F4F3F2"/>
<path d="M156.929 198.237H88.2695V267.237H156.929V198.237Z" fill="#F4F3F2"/>
<path d="M150.663 206.737H94.5156V229.368H150.663V206.737Z" fill="#F4F3F2"/>
<path d="M150.663 236.116H94.5156V258.747H150.663V236.116Z" fill="#F4F3F2"/>
<path d="M116.288 208.643H128.9C129.309 208.641 129.701 208.477 129.99 208.188C130.28 207.898 130.443 207.507 130.446 207.097C130.446 206.686 130.283 206.292 129.993 206.001C129.704 205.709 129.31 205.544 128.9 205.542H116.288C115.878 205.544 115.484 205.709 115.195 206.001C114.905 206.292 114.742 206.686 114.742 207.097C114.745 207.507 114.908 207.898 115.198 208.188C115.487 208.477 115.879 208.641 116.288 208.643Z" fill="#F4F3F2"/>
<path d="M116.288 238.028H128.9C129.104 238.027 129.306 237.986 129.494 237.907C129.682 237.827 129.853 237.712 129.997 237.567C130.14 237.421 130.254 237.249 130.331 237.06C130.408 236.871 130.447 236.669 130.446 236.464C130.444 236.054 130.28 235.661 129.991 235.37C129.702 235.079 129.31 234.914 128.9 234.909H116.288C115.878 234.914 115.486 235.079 115.197 235.37C114.908 235.661 114.745 236.054 114.742 236.464C114.741 236.669 114.78 236.871 114.857 237.06C114.934 237.249 115.048 237.421 115.191 237.567C115.335 237.712 115.506 237.827 115.694 237.907C115.882 237.986 116.084 238.027 116.288 238.028Z" fill="#F4F3F2"/>
<path d="M127.828 196.888C127.516 196.885 127.217 196.76 126.997 196.539C126.776 196.319 126.651 196.02 126.648 195.708V159.85C126.651 159.538 126.776 159.24 126.997 159.021C127.218 158.802 127.517 158.679 127.828 158.679C128.14 158.679 128.438 158.802 128.659 159.021C128.88 159.24 129.006 159.538 129.008 159.85V195.708C129.006 196.02 128.881 196.319 128.66 196.539C128.439 196.76 128.14 196.885 127.828 196.888Z" fill="#F4F3F2"/>
<path d="M138.865 195.495H116.789V198.275H138.865V195.495Z" fill="#F4F3F2"/>
<path d="M133.941 175.44C133.785 175.44 133.635 175.378 133.524 175.267C133.414 175.157 133.352 175.007 133.352 174.85V156.921C133.352 156.765 133.414 156.614 133.524 156.504C133.635 156.393 133.785 156.331 133.941 156.331C134.098 156.331 134.248 156.393 134.359 156.504C134.469 156.614 134.531 156.765 134.531 156.921V174.841C134.533 174.919 134.518 174.997 134.489 175.07C134.46 175.142 134.417 175.208 134.362 175.264C134.307 175.32 134.241 175.364 134.169 175.394C134.097 175.424 134.02 175.44 133.941 175.44Z" fill="#F4F3F2"/>
<path d="M110.66 163.122C110.66 163.122 111.098 146.257 127.83 146.257C144.561 146.257 144.99 163.122 144.99 163.122H110.66Z" fill="#F4F3F2"/>
<path d="M255.494 186.995C255.968 186.995 256.451 186.995 256.933 187.04C261.877 187.397 266.525 189.528 270.022 193.041C273.518 196.554 275.628 201.212 275.962 206.158C276.102 208.404 275.879 210.659 275.3 212.834C273.06 221.556 271.978 230.535 272.083 239.54V265.781C272.083 266.694 271.72 267.569 271.075 268.215C270.43 268.86 269.554 269.222 268.642 269.222H185.387V186.995H255.494Z" fill="#F4F3F2"/>
<path d="M164.875 207.507C164.884 204.591 165.514 201.711 166.725 199.058C167.935 196.406 169.697 194.042 171.893 192.124C174.09 190.206 176.67 188.779 179.461 187.938C182.253 187.096 185.192 186.86 188.082 187.245C190.972 187.629 193.747 188.626 196.222 190.168C198.696 191.71 200.813 193.762 202.432 196.187C204.05 198.612 205.133 201.354 205.608 204.231C206.082 207.108 205.938 210.053 205.184 212.869C202.951 221.593 201.872 230.571 201.976 239.575V265.781C201.976 266.233 201.886 266.682 201.713 267.1C201.539 267.518 201.285 267.897 200.965 268.217C200.644 268.537 200.264 268.79 199.845 268.962C199.427 269.135 198.978 269.223 198.526 269.222H172.24C171.327 269.222 170.452 268.859 169.807 268.214C169.161 267.569 168.799 266.693 168.799 265.781V238.011C168.875 229.564 167.805 221.145 165.617 212.986C165.124 211.201 164.874 209.358 164.875 207.507Z" fill="#F4F3F2"/>
<path d="M213.65 269.229H288.379V219.303H213.65V269.229Z" fill="#F4F3F2"/>
<path d="M350.137 230.585H250.114V154.006C250.114 149.891 251.749 145.945 254.659 143.035C257.569 140.125 261.515 138.49 265.63 138.49H334.621C338.736 138.49 342.682 140.125 345.592 143.035C348.502 145.945 350.137 149.891 350.137 154.006V230.585Z" fill="#F4F3F2"/>
<path d="M330.59 230.585H230.568V153.256C230.568 149.337 232.124 145.579 234.895 142.809C237.665 140.038 241.423 138.481 245.342 138.481H315.78C319.698 138.481 323.456 140.038 326.227 142.809C328.998 145.579 330.554 149.337 330.554 153.256V230.585H330.59Z" fill="#F4F3F2"/>
<path d="M283.498 235.081H214.615C213.43 235.081 212.293 234.61 211.455 233.772C210.617 232.934 210.146 231.797 210.146 230.612V219.252C210.146 218.067 210.617 216.93 211.455 216.092C212.293 215.254 213.43 214.783 214.615 214.783H283.498C283.856 214.783 284.199 214.926 284.452 215.179C284.705 215.432 284.848 215.775 284.848 216.133V233.731C284.848 234.089 284.705 234.433 284.452 234.686C284.199 234.939 283.856 235.081 283.498 235.081Z" fill="#F4F3F2"/>
<path d="M357.511 186.995C357.985 186.995 358.459 186.995 358.95 187.04C361.966 187.261 364.895 188.145 367.53 189.629C370.164 191.112 372.439 193.158 374.193 195.622C375.946 198.085 377.134 200.905 377.673 203.88C378.211 206.855 378.087 209.913 377.308 212.834C375.067 221.559 373.985 230.541 374.091 239.549V265.781C374.091 266.234 374.001 266.682 373.828 267.1C373.654 267.518 373.4 267.898 373.08 268.218C372.759 268.537 372.379 268.791 371.96 268.963C371.542 269.135 371.093 269.224 370.641 269.222H287.395V186.995H357.511Z" fill="#F4F3F2"/>
<path d="M266.891 207.508C266.855 202.162 268.908 197.014 272.613 193.16C276.317 189.307 281.381 187.052 286.723 186.877C292.066 186.702 297.266 188.621 301.214 192.224C305.163 195.828 307.548 200.831 307.862 206.167C308.002 208.414 307.779 210.668 307.2 212.844C304.96 221.566 303.878 230.545 303.983 239.55V265.782C303.983 266.694 303.62 267.57 302.975 268.215C302.33 268.86 301.454 269.223 300.542 269.223H274.247C273.795 269.223 273.348 269.134 272.93 268.961C272.513 268.788 272.133 268.535 271.814 268.215C271.494 267.895 271.241 267.516 271.068 267.099C270.895 266.681 270.806 266.234 270.806 265.782V238.012C270.881 229.565 269.814 221.147 267.633 212.987C267.14 211.202 266.891 209.359 266.891 207.508Z" fill="#F4F3F2"/>
<path d="M186.845 271.724H356.046C356.374 271.724 356.699 271.659 357.002 271.534C357.305 271.408 357.58 271.223 357.812 270.991C358.044 270.758 358.227 270.482 358.352 270.179C358.477 269.875 358.54 269.55 358.539 269.222H184.352C184.35 269.55 184.414 269.875 184.539 270.179C184.664 270.482 184.847 270.758 185.079 270.991C185.31 271.223 185.586 271.408 185.889 271.534C186.192 271.659 186.517 271.724 186.845 271.724Z" fill="#F4F3F2"/>
<path d="M287.055 79.9834H341.477V20.6278L287.055 20.6278V79.9834Z" fill="#F4F3F2"/>
<path d="M283.81 79.9834H339.645V20.6278L283.81 20.6278V79.9834Z" fill="#F4F3F2"/>
<path d="M334.961 75.3104V25.3037L288.476 25.3037V75.3104H334.961Z" fill="white"/>
<path d="M311.721 37.6631L324.431 59.6768H299.012L311.721 37.6631Z" fill="#F4F3F2"/>
<path d="M210.707 114.636H265.129V55.2802L210.707 55.2802V114.636Z" fill="#F4F3F2"/>
<path d="M207.463 114.636H263.297V55.2802L207.463 55.2802V114.636Z" fill="#F4F3F2"/>
<path d="M258.613 109.963V59.9561H212.128V109.963H258.613Z" fill="white"/>
<path d="M229.693 93.8733L224.178 84.3188C223.605 83.3215 223.303 82.1909 223.305 81.0404C223.306 79.8899 223.61 78.7599 224.186 77.7639C224.762 76.7679 225.589 75.9408 226.586 75.3657C227.582 74.7906 228.712 74.4877 229.863 74.4873H240.919C242.069 74.4888 243.199 74.7923 244.195 75.3674C245.191 75.9425 246.019 76.7691 246.595 77.7645C247.171 78.7599 247.476 79.8892 247.479 81.0394C247.482 82.1896 247.183 83.3205 246.612 84.3188L241.098 93.8733C240.523 94.8781 239.693 95.7132 238.691 96.2941C237.69 96.8749 236.553 97.1808 235.395 97.1808C234.238 97.1808 233.101 96.8749 232.099 96.2941C231.098 95.7132 230.268 94.8781 229.693 93.8733Z" fill="#F4F3F2"/>
<path d="M236.002 18.6875H29.9688L43.5273 299.288H249.56L236.002 18.6875Z" fill="#023DA7"/>
<path opacity="0.2" d="M236.002 18.6875H29.9688L43.5273 299.288H249.56L236.002 18.6875Z" fill="#333333"/>
<path d="M237.908 18.6875H31.875L45.4425 299.288H251.475L237.908 18.6875Z" fill="#023DA7"/>
<path opacity="0.2" d="M227.028 28.1289H41.293L54.2706 286.609L215.776 286.394L242.616 262.593L227.028 28.1289Z" fill="#333333"/>
<path d="M228.449 28.1289C230.43 105.535 236.681 182.774 247.174 259.491C232.456 269.621 217.813 279.75 203.245 289.88H64.3345C51.2236 203.193 43.5282 115.773 41.293 28.1289H228.449Z" fill="white"/>
<path d="M247.171 259.492C232.454 269.621 217.811 279.751 203.242 289.88C206.424 276.473 209.74 263.067 213.19 249.66L247.171 259.492Z" fill="#F4F3F2"/>
<path d="M91.6568 51.7765C92.0083 61.2446 92.4195 70.7126 92.8902 80.1807H64.495C64.0183 70.7067 63.6071 61.2386 63.2616 51.7765H91.6568ZM94.5615 48.7734H60.1602C60.5594 60.2316 61.0569 71.6958 61.6528 83.1659H96.0541C95.4583 71.7017 94.9608 60.2376 94.5615 48.7734Z" fill="#023DA7"/>
<path d="M207.687 62.4407H110.426C110.337 60.2957 110.253 58.1566 110.176 56.0234H207.427C207.511 58.1625 207.597 60.3016 207.687 62.4407Z" fill="#F4F3F2"/>
<path d="M187.139 75.9341H111.025C110.927 73.789 110.82 71.6529 110.73 69.5078H186.835C186.934 71.6529 187.032 73.7979 187.139 75.9341Z" fill="#F4F3F2"/>
<path d="M94.4454 107.404C95.0412 116.878 95.7056 126.352 96.4385 135.826H68.0343C67.3014 126.352 66.6371 116.878 66.0412 107.404H94.4454ZM97.2518 104.41H62.8594C63.5625 115.88 64.3639 127.35 65.2636 138.82H99.7008C98.807 127.344 98.0026 115.874 97.2876 104.41H97.2518Z" fill="#023DA7"/>
<path d="M149.215 118.079H113.464C113.321 115.934 113.169 113.797 113.035 111.652H148.786C148.92 113.797 149.063 115.934 149.215 118.079Z" fill="#F4F3F2"/>
<path d="M183.066 118.079H156.781C156.638 115.934 156.486 113.797 156.352 111.652H182.637C182.772 113.797 182.915 115.934 183.066 118.079Z" fill="#F4F3F2"/>
<path d="M199.564 131.574H114.45C114.289 129.437 114.137 127.292 113.977 125.156H199.091C199.252 127.292 199.404 129.437 199.564 131.574Z" fill="#F4F3F2"/>
<path d="M98.7094 163.061C99.5615 172.535 100.479 182.009 101.462 191.483H73.0581C72.0749 182.009 71.1573 172.535 70.3052 163.061H98.7094ZM101.444 160.066H67.043C68.0559 171.531 69.1642 183.004 70.3678 194.486H104.769C103.577 183.01 102.469 171.537 101.444 160.066Z" fill="#023DA7"/>
<path d="M215.98 180.812H118.711L119.354 187.239H216.624L215.98 180.812Z" fill="#F4F3F2"/>
<path d="M193.547 167.305H117.434C117.63 169.45 117.83 171.592 118.032 173.731H194.137C193.941 171.595 193.735 169.432 193.547 167.305Z" fill="#F4F3F2"/>
<path d="M104.458 218.717C105.566 228.191 106.737 237.662 107.97 247.13H79.5662C78.3328 237.656 77.1619 228.185 76.0536 218.717H104.458ZM107.139 215.723H72.7109C74.0218 227.169 75.4369 238.636 76.9564 250.124H111.322C109.814 238.654 108.399 227.187 107.077 215.723H107.139Z" fill="#023DA7"/>
<path d="M221.335 229.387H124.066C123.806 227.242 123.547 225.106 123.297 222.961H220.557C220.817 225.106 221.067 227.242 221.335 229.387Z" fill="#F4F3F2"/>
<path d="M170.032 242.886H125.755C125.475 240.741 125.204 238.602 124.941 236.469H169.219C169.487 238.602 169.758 240.741 170.032 242.886Z" fill="#F4F3F2"/>
<path d="M196.47 242.882H177.352C177.072 240.737 176.801 238.598 176.539 236.465H195.657C195.925 238.601 196.229 240.737 196.47 242.882Z" fill="#F4F3F2"/>
<path d="M79.1436 76.1238L77.8833 74.1218C75.1305 69.7423 69.5176 65.8276 67.5781 64.6925L69.026 62.1273C72.8311 64.438 76.231 67.3578 79.0899 70.7701C83.4158 64.8712 89.8152 58.7936 98.5742 52.2422L100.424 54.6643C91.0755 61.6626 84.533 68.0709 80.4038 74.238L79.1436 76.1238Z" fill="#023DA7"/>
<path d="M82.5401 131.771L81.2262 129.76C78.3662 125.38 72.646 121.465 70.6797 120.33L72.0472 117.765C75.9248 120.077 79.4045 122.998 82.3524 126.417C86.5174 120.509 92.747 114.431 101.336 107.871L103.249 110.302C94.0876 117.309 87.715 123.709 83.7556 129.885C83.3445 130.51 82.9423 131.136 82.5401 131.771Z" fill="#023DA7"/>
<path d="M87.474 187.559L86.1065 185.521C83.1213 181.142 77.2939 177.227 75.3008 176.083L76.6057 173.518C80.5417 175.84 84.0935 178.759 87.1344 182.17C91.1474 176.271 97.2161 170.184 105.618 163.633L107.602 166.055C98.664 173.062 92.4076 179.462 88.627 185.638L87.474 187.559Z" fill="#023DA7"/>
<path d="M177.578 274.453C172.305 274.453 169.266 272.504 166.584 270.788C163.903 269.072 161.597 267.597 157.146 267.597C152.695 267.597 150.711 269.144 148.611 270.788C146.51 272.433 143.936 274.462 138.663 274.453C133.39 274.444 130.351 272.504 127.678 270.788C125.006 269.072 122.7 267.597 118.24 267.597C113.78 267.597 111.805 269.144 109.705 270.788C107.604 272.433 105.03 274.462 99.7658 274.453C94.5014 274.444 91.4537 272.504 88.7723 270.788C86.091 269.072 83.794 267.597 79.3341 267.597C79.2179 266.704 79.0928 265.881 78.9766 265.023C84.2498 265.023 87.2797 266.972 89.9611 268.688C92.6424 270.404 94.9394 271.888 99.3904 271.888C103.841 271.888 105.826 270.332 107.926 268.688C110.026 267.043 112.609 265.023 117.883 265.023C123.156 265.023 126.177 266.972 128.858 268.688C131.539 270.404 133.845 271.888 138.296 271.888C142.747 271.888 144.732 270.332 146.832 268.688C148.932 267.043 151.542 265.068 156.789 265.068C162.035 265.068 165.092 267.017 167.773 268.733C170.454 270.449 172.751 271.932 177.211 271.932C177.328 272.746 177.462 273.595 177.578 274.453Z" fill="#F4F3F2"/>
<path d="M185.136 25.6341C182.115 17.5902 175.135 12.3169 167.627 12.3169H152.326C151.187 12.307 150.076 11.9629 149.13 11.3274C148.185 10.6919 147.447 9.79284 147.008 8.7418C145.925 6.17456 144.115 3.97964 141.802 2.42674C139.488 0.873838 136.772 0.0306138 133.986 0.000681289C131.29 -0.0272674 128.657 0.80535 126.467 2.37743C124.278 3.94951 122.647 6.17906 121.812 8.7418C121.474 9.7918 120.808 10.7057 119.912 11.3491C119.016 11.9926 117.937 12.3318 116.834 12.3169H101.542C94.0249 12.3169 87.554 17.6259 85.3196 25.6341L84.4258 28.8338H186.316L185.136 25.6341Z" fill="#333333"/>
<path d="M185.682 31.9786H85.4C84.5543 31.9688 83.7437 31.6387 83.1317 31.0549C82.5197 30.471 82.1517 29.6769 82.102 28.8325C82.08 28.4269 82.1414 28.021 82.2822 27.6399C82.423 27.2588 82.6404 26.9106 82.9209 26.6167C83.2014 26.3228 83.5391 26.0894 83.9132 25.931C84.2873 25.7725 84.6899 25.6924 85.0962 25.6954H185.378C186.222 25.7051 187.031 26.0339 187.643 26.6159C188.255 27.1979 188.624 27.9898 188.676 28.8325C188.699 29.239 188.639 29.6458 188.498 30.028C188.358 30.4101 188.141 30.7594 187.86 31.0543C187.58 31.3492 187.241 31.5833 186.867 31.7423C186.492 31.9013 186.089 31.9817 185.682 31.9786Z" fill="#023DA7"/>
<path opacity="0.2" d="M185.682 31.9786H85.4C84.5543 31.9688 83.7437 31.6387 83.1317 31.0549C82.5197 30.471 82.1517 29.6769 82.102 28.8325C82.08 28.4269 82.1414 28.021 82.2822 27.6399C82.423 27.2588 82.6404 26.9106 82.9209 26.6167C83.2014 26.3228 83.5391 26.0894 83.9132 25.931C84.2873 25.7725 84.6899 25.6924 85.0962 25.6954H185.378C186.222 25.7051 187.031 26.0339 187.643 26.6159C188.255 27.1979 188.624 27.9898 188.676 28.8325C188.699 29.239 188.639 29.6458 188.498 30.028C188.358 30.4101 188.141 30.7594 187.86 31.0543C187.58 31.3492 187.241 31.5833 186.867 31.7423C186.492 31.9013 186.089 31.9817 185.682 31.9786Z" fill="#023DA7"/>
<path d="M275.704 296.601H269.152L268.5 281.434H275.051L275.704 296.601Z" fill="#FEC3BD"/>
<path d="M315.02 296.601H308.469L305.18 281.434H311.722L315.02 296.601Z" fill="#FEC3BD"/>
<path d="M308.003 295.84H315.359C315.489 295.839 315.615 295.883 315.716 295.965C315.817 296.046 315.887 296.16 315.913 296.287L317.209 302.105C317.24 302.247 317.239 302.394 317.205 302.536C317.171 302.677 317.106 302.809 317.014 302.922C316.922 303.034 316.806 303.124 316.674 303.186C316.542 303.247 316.398 303.278 316.253 303.276C313.688 303.231 312.437 303.079 309.201 303.079C307.208 303.079 303.106 303.285 300.362 303.285C297.618 303.285 297.251 300.604 298.378 300.318C303.427 299.218 305.322 297.699 306.94 296.242C307.234 295.983 307.612 295.84 308.003 295.84Z" fill="#333333"/>
<path d="M269.197 295.84H276.347C276.477 295.839 276.603 295.883 276.704 295.965C276.805 296.046 276.874 296.16 276.901 296.287L278.197 302.105C278.229 302.242 278.23 302.385 278.2 302.522C278.17 302.66 278.111 302.789 278.025 302.901C277.94 303.013 277.831 303.104 277.706 303.169C277.581 303.234 277.444 303.27 277.303 303.276C274.72 303.231 270.993 303.079 267.749 303.079C263.959 303.079 260.688 303.285 256.237 303.285C253.556 303.285 252.805 300.604 253.931 300.318C259.052 299.2 263.235 299.084 267.66 296.349C268.117 296.045 268.648 295.869 269.197 295.84Z" fill="#333333"/>
<path d="M282.033 57.7109C281.14 62.5016 280.621 68.4362 283.973 71.6359C283.973 71.6359 282.051 76.4981 273.149 76.4981C265.016 76.4981 269.091 71.6359 269.091 71.6359C274.454 70.3579 274.15 63.7529 273.221 60.0169L282.033 57.7109Z" fill="#FEC3BD"/>
<path d="M266.531 72.2818C266.71 71.0841 268.801 69.7077 271.179 69.1893C273.556 68.6709 282.691 67.509 285.479 68.6709C288.268 69.8328 284.997 73.2381 284.997 73.2381L266.531 72.2818Z" fill="#023DA7"/>
<path opacity="0.4" d="M266.531 72.2818C266.71 71.0841 268.801 69.7077 271.179 69.1893C273.556 68.6709 282.691 67.509 285.479 68.6709C288.268 69.8328 284.997 73.2381 284.997 73.2381L266.531 72.2818Z" fill="white"/>
<path opacity="0.2" d="M268.5 281.441L268.84 289.253H275.391L275.051 281.441H268.5Z" fill="#333333"/>
<path opacity="0.2" d="M311.731 281.441H305.18L306.878 289.253H313.429L311.731 281.441Z" fill="#333333"/>
<path d="M297.54 77.5078L289.648 82.799C289.648 82.799 300.982 102.945 300.034 106.18C298.738 110.569 296.933 120.186 294.475 125.066C294.797 126.111 296.432 128.524 297.344 128.936C303.6 124.181 309.919 109.273 309.687 105.099C309.142 95.6157 297.54 77.5078 297.54 77.5078Z" fill="#FEC3BD"/>
<path d="M294.471 125.069L288.215 124.586L291.495 131.477C291.495 131.477 296.956 131.718 297.868 127.544L294.471 125.069Z" fill="#FEC3BD"/>
<path d="M325.393 158.673L324.866 159.656L321.327 166.359L195.68 99.9158L199.737 92.2383L325.393 158.673Z" fill="#023DA7"/>
<path d="M333.518 143.327L330.926 148.225L329.46 150.996L203.805 84.5615L207.862 76.875L333.518 143.327Z" fill="#023DA7"/>
<path d="M203.848 84.5379L199.781 92.2148L325.385 158.747L329.452 151.07L203.848 84.5379Z" fill="#333333"/>
<path d="M190.265 77.8939L186.609 84.8028L195.681 99.9254L207.863 76.875L190.265 77.8939Z" fill="#023DA7"/>
<path opacity="0.8" d="M190.265 77.8939L186.609 84.8028L195.681 99.9254L207.863 76.875L190.265 77.8939Z" fill="white"/>
<path d="M182.723 78.3325L186.611 84.8034L190.266 77.8945L182.723 78.3325Z" fill="#023DA7"/>
<path d="M283.184 127.723L286.455 133.819L291.522 131.477L288.242 124.586L283.184 127.723Z" fill="#FEC3BD"/>
<path d="M295.66 73.0945C301.854 73.9882 308.951 95.4388 308.951 95.4388L295.937 102.795C295.937 102.795 290.208 92.5698 287.393 85.0174C284.426 77.0718 289.02 72.1202 295.66 73.0945Z" fill="#F8C633"/>
<path opacity="0.2" d="M292.057 80.4484C289.242 77.8744 290.967 88.8946 292.308 95.9465C292.996 97.3229 293.648 98.5742 294.203 99.6199C297.34 94.0785 295.936 83.9967 292.057 80.4484Z" fill="#333333"/>
<path d="M258.977 73.4236C258.977 73.4236 251.246 93.2028 258.584 130.026H293.647C293.888 124.664 290.51 98.4224 295.694 73.0929C291.821 72.3452 287.904 71.8496 283.967 71.6092C279.011 71.323 274.042 71.323 269.086 71.6092C265.674 71.9498 262.295 72.5565 258.977 73.4236Z" fill="#F8C633"/>
<path d="M264.37 82.623L255.539 79.1641C255.539 79.1641 245.368 99.9354 242.133 100.981C237.78 102.402 228.842 106.344 223.426 107.112C222.747 108.006 221.692 110.687 221.862 111.671C229.325 114.111 245.207 110.875 248.496 108.319C256.04 102.447 264.37 82.623 264.37 82.623Z" fill="#FEC3BD"/>
<path opacity="0.2" d="M265.358 80.2623C263.901 76.9017 261.112 75.4985 258.208 75.99C257.082 80.1103 255.178 89.1643 255.526 102.803L257.609 103.804C257.609 103.804 267.852 86.0093 265.358 80.2623Z" fill="#333333"/>
<path d="M266.755 77.9126C268.954 83.7668 257.818 101.026 257.818 101.026L244.715 93.8754C246.683 88.5102 249.221 83.3714 252.285 78.5471C256.888 71.674 264.333 71.4774 266.755 77.9126Z" fill="#F8C633"/>
<path d="M223.747 107.047L215.953 108.736L219.904 115.949C222.082 114.865 224.061 113.421 225.758 111.677L223.747 107.047Z" fill="#FEC3BD"/>
<path d="M212.273 110.338L215.384 114.646L219.906 115.951L215.956 108.738L212.273 110.338Z" fill="#FEC3BD"/>
<path d="M267.175 50.7923C267.175 51.3196 266.845 51.6861 266.496 51.6861C266.148 51.6861 265.897 51.2213 265.933 50.694C265.969 50.1666 266.264 49.7555 266.612 49.8002C266.961 49.8449 267.211 50.265 267.175 50.7923Z" fill="#333333"/>
<path d="M267.639 50.8398C266.915 52.4134 265.98 53.8809 264.859 55.2015C265.206 55.4785 265.608 55.6771 266.038 55.7836C266.469 55.8901 266.917 55.9019 267.353 55.8182L267.639 50.8398Z" fill="#F98A7E"/>
<path d="M266.503 48.9635C266.459 48.9749 266.413 48.9749 266.369 48.9635C266.334 48.9418 266.304 48.9133 266.281 48.8797C266.258 48.8461 266.241 48.8081 266.233 48.7681C266.225 48.728 266.224 48.6866 266.232 48.6465C266.24 48.6064 266.257 48.5683 266.28 48.5345C266.527 48.0995 266.878 47.7314 267.3 47.462C267.722 47.1926 268.203 47.03 268.702 46.9883C268.785 46.9883 268.864 47.0212 268.923 47.0799C268.982 47.1386 269.015 47.2181 269.015 47.3011C269.015 47.3841 268.982 47.4636 268.923 47.5223C268.864 47.581 268.785 47.6139 268.702 47.6139C268.316 47.6543 267.946 47.7856 267.621 47.9969C267.297 48.2082 267.027 48.4935 266.834 48.8295C266.8 48.8838 266.75 48.9261 266.69 48.9501C266.631 48.9742 266.565 48.9789 266.503 48.9635Z" fill="#333333"/>
<path d="M284.944 50.3275C284.175 56.7805 284.05 60.597 280.591 63.7341C275.38 68.4532 267.56 65.0212 266.38 58.4698C265.325 52.5709 266.764 43.0075 273.253 40.7999C274.681 40.3058 276.211 40.1849 277.699 40.4485C279.187 40.712 280.582 41.3514 281.753 42.3059C282.925 43.2604 283.832 44.4983 284.391 45.9022C284.949 47.3061 285.139 48.8294 284.944 50.3275Z" fill="#FEC3BD"/>
<path d="M271.938 51.5987C269.677 52.0456 266.066 47.0226 269.016 42.7593C267.523 42.0175 262.652 44.9401 260.82 42.2141C258.987 39.4881 264.073 38.0134 263.099 35.7074C266.549 36.4135 260.864 40.7215 264.145 40.3014C267.425 39.8813 271.205 33.8126 274.87 36.3063C281.35 40.6589 290.18 33.4015 286.578 42.4822C290.994 41.5885 294.014 46.817 289.805 50.4279C281.412 57.6317 286.578 58.5702 281.26 58.9456C278.597 59.1332 272.403 55.9246 271.938 51.5987Z" fill="#333333"/>
<path d="M275.292 53.2427C274.671 54.5426 273.558 55.5424 272.2 56.0223C270.412 56.6301 269.384 55.0392 269.805 53.2695C270.18 51.6875 271.592 49.4531 273.442 49.605C273.844 49.6515 274.227 49.7966 274.559 50.0274C274.891 50.2581 275.16 50.5673 275.343 50.9275C275.526 51.2876 275.618 51.6875 275.609 52.0915C275.6 52.4954 275.491 52.8909 275.292 53.2427Z" fill="#FEC3BD"/>
<path d="M271.008 130.027C271.008 130.027 278.444 180.079 282.52 198.848C286.988 219.405 303.818 287.77 303.818 287.77H315.813C315.813 287.77 304.721 221.014 302.165 200.716C299.403 178.658 293.611 130.063 293.611 130.063L271.008 130.027Z" fill="#333333"/>
<path opacity="0.2" d="M279.84 147.528C279.286 146.742 278.785 146.474 278.32 146.635H278.222C278.116 146.677 278.017 146.735 277.927 146.804C277.834 146.884 277.747 146.971 277.668 147.064L277.525 147.251C277.465 147.341 277.403 147.439 277.337 147.546C277.182 147.806 277.047 148.078 276.935 148.359C276.863 148.529 276.792 148.699 276.729 148.887C276.667 149.075 276.568 149.343 276.497 149.593C276.425 149.843 276.291 150.263 276.193 150.639C276.193 150.728 276.148 150.826 276.122 150.925C276.095 151.023 276.023 151.336 275.979 151.541C275.934 151.747 275.898 151.89 275.862 152.078C275.782 152.426 275.71 152.793 275.639 153.168C275.567 153.543 275.487 153.972 275.416 154.392C275.416 154.544 275.371 154.687 275.344 154.839C275.255 155.376 275.174 155.921 275.094 156.484C277.078 168.943 279.437 183.226 281.35 193.191C281.44 192.869 281.538 192.521 281.618 192.163C282.009 190.498 282.308 188.812 282.512 187.114C284.201 174.279 283.424 152.65 279.84 147.528Z" fill="#333333"/>
<path d="M258.584 130.027C258.584 130.027 257.691 178.988 258.397 198.955C259.138 219.727 266.396 287.743 266.396 287.743H277.488C277.488 287.743 277.89 220.942 278.381 200.546C278.918 178.309 281.599 130.027 281.599 130.027H258.584Z" fill="#333333"/>
<path d="M278.225 284.345C278.269 284.345 278.225 287.965 278.225 287.965H265.435L264.898 283.898L278.225 284.345Z" fill="#333333"/>
<path d="M315.817 284.617C315.87 284.617 316.415 287.968 316.415 287.968H303.232L302.07 284.125L315.817 284.617Z" fill="#333333"/>
<path d="M305.841 296.984C305.396 297.02 304.951 296.904 304.581 296.653C304.461 296.556 304.368 296.429 304.311 296.285C304.255 296.141 304.237 295.984 304.259 295.831C304.258 295.742 304.282 295.653 304.328 295.576C304.373 295.499 304.439 295.436 304.518 295.393C305.242 295.018 307.361 296.287 307.602 296.466C307.627 296.484 307.646 296.509 307.657 296.537C307.668 296.566 307.67 296.597 307.664 296.627C307.66 296.657 307.646 296.685 307.626 296.707C307.605 296.729 307.578 296.745 307.548 296.752C306.989 296.891 306.417 296.969 305.841 296.984ZM304.867 295.626C304.796 295.625 304.726 295.64 304.661 295.67C304.63 295.688 304.605 295.714 304.587 295.746C304.57 295.777 304.562 295.813 304.563 295.849C304.55 295.953 304.563 296.059 304.6 296.157C304.638 296.255 304.699 296.343 304.778 296.412C305.509 296.746 306.34 296.788 307.101 296.528C306.422 296.086 305.663 295.779 304.867 295.626Z" fill="#828282"/>
<path d="M307.509 296.753C307.486 296.761 307.461 296.761 307.438 296.753C306.759 296.387 305.454 294.966 305.588 294.224C305.61 294.109 305.671 294.006 305.761 293.931C305.85 293.857 305.963 293.815 306.079 293.813C306.198 293.801 306.317 293.814 306.431 293.849C306.544 293.884 306.65 293.942 306.741 294.018C307.5 294.635 307.634 296.53 307.634 296.61C307.635 296.637 307.628 296.663 307.616 296.686C307.603 296.71 307.585 296.73 307.563 296.744C307.546 296.751 307.528 296.754 307.509 296.753ZM306.187 294.072H306.16C305.954 294.072 305.936 294.188 305.927 294.224C305.847 294.662 306.678 295.743 307.357 296.253C307.309 295.505 307.038 294.789 306.58 294.197C306.52 294.152 306.452 294.121 306.38 294.104C306.308 294.087 306.233 294.085 306.16 294.099L306.187 294.072Z" fill="#828282"/>
<path d="M266.468 296.983C265.907 297.035 265.345 296.893 264.877 296.581C264.774 296.487 264.694 296.37 264.644 296.239C264.595 296.109 264.576 295.969 264.591 295.83C264.591 295.745 264.614 295.662 264.658 295.59C264.702 295.517 264.766 295.458 264.841 295.419C265.636 294.972 268.273 296.313 268.568 296.456C268.597 296.47 268.62 296.494 268.634 296.523C268.649 296.552 268.654 296.585 268.648 296.617C268.647 296.65 268.633 296.682 268.61 296.706C268.587 296.731 268.556 296.747 268.523 296.751C267.847 296.891 267.158 296.968 266.468 296.983ZM265.279 295.624C265.18 295.623 265.082 295.645 264.993 295.687C264.964 295.703 264.939 295.726 264.922 295.754C264.905 295.782 264.895 295.815 264.894 295.848C264.881 295.94 264.891 296.035 264.924 296.122C264.957 296.21 265.011 296.288 265.082 296.348C265.484 296.706 266.566 296.769 268.014 296.527C267.159 296.076 266.234 295.771 265.279 295.624Z" fill="#828282"/>
<path d="M268.499 296.751H268.437C267.641 296.394 266.077 294.963 266.202 294.24C266.202 294.061 266.354 293.846 266.774 293.802C266.934 293.782 267.096 293.796 267.249 293.842C267.403 293.888 267.546 293.966 267.668 294.07C268.499 294.758 268.669 296.519 268.678 296.59C268.682 296.617 268.678 296.645 268.667 296.67C268.656 296.695 268.638 296.717 268.616 296.733C268.598 296.744 268.579 296.751 268.559 296.754C268.539 296.757 268.519 296.756 268.499 296.751ZM266.9 294.07H266.837C266.56 294.07 266.542 294.204 266.533 294.24C266.462 294.686 267.525 295.804 268.321 296.286C268.243 295.535 267.931 294.828 267.427 294.266C267.274 294.155 267.089 294.096 266.9 294.097V294.07Z" fill="#828282"/>
</svg>
