<svg width="46" height="46" viewBox="0 0 46 46" fill="none" xmlns="http://www.w3.org/2000/svg">
<g clip-path="url(#clip0_794_18610)">
<path d="M18.5453 46.0049C18.0214 45.9807 17.4974 45.9404 16.9735 45.9341C12.5335 45.8797 8.09415 45.8283 3.6554 45.7798C3.14677 45.7736 2.82392 45.4445 2.84376 44.9611C2.93394 42.6582 3.53636 40.5105 4.82776 38.5735C5.64706 37.3306 6.69904 36.2559 7.92641 35.408C8.16991 35.2403 8.21139 35.0869 8.1194 34.8152C7.8705 34.0817 7.65226 33.3382 7.4214 32.5939C5.69171 32.7024 4.29749 32.1169 3.26401 30.7574C2.37572 29.5916 2.30357 28.2707 2.48574 26.869C2.85278 24.0514 3.1585 21.2249 3.47774 18.401C3.49307 18.2683 3.43085 18.0638 3.33164 17.9903C1.7715 16.8415 0.905751 15.3 0.604543 13.4061C0.431394 12.3398 0.214055 11.2843 0.0228697 10.2244C-0.0339449 9.9105 -0.00147938 9.58497 0.312354 9.44418C0.521576 9.35451 0.797532 9.36078 1.03381 9.39217C1.15736 9.40921 1.27099 9.56524 1.37289 9.67286C1.8238 10.1535 2.26119 10.6503 2.72562 11.1211C4.19018 12.6115 5.92798 13.1541 7.94986 12.4842C9.97174 11.8143 11.9179 12.1255 13.7747 12.998C15.0146 13.5719 16.2019 14.2518 17.3234 15.0301C20.1109 16.9841 20.9361 20.8411 19.2993 23.9528C18.6382 25.2083 17.9141 26.4368 17.2467 27.6923C17.1275 27.9241 17.087 28.188 17.1313 28.4446C17.3964 29.7001 17.6967 30.9556 18.0033 32.2012C18.0515 32.4009 18.1509 32.5847 18.2919 32.7347C21.286 35.7487 22.755 39.3806 22.7794 43.6043C22.7794 44.0383 22.7595 44.4733 22.7848 44.9064C22.8118 45.3548 22.7117 45.7269 22.3339 46.0013L18.5453 46.0049ZM21.3247 44.5701C21.5051 40.7876 20.5131 37.4517 18.0602 34.6161C16.9103 33.2844 17.4208 33.6297 15.6893 33.7292C15.6442 33.7292 15.5991 33.7499 15.5558 33.7552C13.3013 34.0368 11.2911 34.9748 9.38916 36.1469C7.3763 37.3871 5.88379 39.0927 5.01985 41.3059C4.62418 42.2769 4.39877 43.3082 4.35341 44.3549L21.3247 44.5701ZM16.0653 26.8592C16.7778 25.5553 17.5082 24.3321 18.1305 23.0569C19.2966 20.6653 18.6391 17.7177 16.5352 16.2416C15.3628 15.4211 14.0759 14.7368 12.7719 14.1387C11.3768 13.4984 9.89238 13.346 8.37642 13.8464C6.09933 14.5978 4.04769 14.1154 2.21249 12.6259C2.13042 12.5586 2.04024 12.5003 1.93473 12.4241C1.92555 12.4693 1.92071 12.5152 1.9203 12.5613C1.95276 12.7676 1.98974 12.9738 2.0222 13.181C2.24495 14.6158 2.8645 15.83 4.0522 16.7034C4.30221 16.8831 4.59983 16.9857 4.90802 16.9985C6.60886 17.0254 8.30969 17.0092 10.0114 17.0137C10.7329 17.0137 10.9511 17.2289 10.9755 17.9445C11.0107 19.2632 11.2749 20.566 11.7564 21.7952C11.8538 22.0391 11.9584 22.1709 12.256 22.2014C13.3382 22.3117 14.2869 23.1368 14.4673 24.2066C14.562 24.7733 14.4673 25.3724 14.4556 26.0395L16.0653 26.8592ZM4.97296 18.4449C4.94865 18.4906 4.92843 18.5383 4.91253 18.5875C4.55181 21.6616 4.16763 24.7339 3.83035 27.8106C3.59317 30.0005 5.84862 31.829 7.76499 30.9601C9.4586 30.1924 10.6183 28.9334 10.7203 26.9507C10.7572 26.2189 10.9574 26.044 11.6969 26.0351C12.5473 26.0252 13.1164 25.5284 13.1101 24.8029C13.1038 24.0774 12.5618 23.5905 11.7204 23.6093C11.1793 23.6219 10.87 23.4013 10.6553 22.9063C10.0761 21.6058 9.71072 20.2212 9.57314 18.8054C9.56141 18.679 9.39999 18.462 9.30259 18.4602C7.8723 18.4377 6.42939 18.4449 4.97656 18.4449H4.97296ZM16.491 32.0918C16.289 31.2255 16.0139 30.335 15.8895 29.4239C15.765 28.5128 15.3114 27.981 14.4637 27.6304C13.8009 27.3614 13.2282 26.9489 12.4671 27.3793C12.2524 27.5004 12.1063 27.5658 12.064 27.8133C11.7862 29.3647 10.9655 30.57 9.67865 31.4739C9.37654 31.6864 9.07714 31.9034 8.77683 32.1169C9.02212 32.8988 9.2557 33.6414 9.46943 34.3256C10.6418 33.8315 11.733 33.2782 12.8837 32.9114C14.0344 32.5446 15.2411 32.368 16.491 32.0918Z" fill="#B7B4B2"/>
<path d="M26.2311 25.6937C26.4115 25.604 26.5477 25.5269 26.6541 25.4704C26.4404 24.7027 26.1689 23.9835 26.0454 23.2401C25.2851 18.6532 27.9437 14.338 32.3761 12.8494C34.4972 12.1374 36.6255 12.1464 38.7845 12.6136C39.6358 12.7983 40.506 12.9032 41.3492 13.1166C42.2269 13.3399 43.0422 13.7583 43.7335 14.3405C44.4248 14.9228 44.9741 15.6535 45.3399 16.4776C45.7058 17.3017 45.8787 18.1976 45.8456 19.0979C45.8124 19.9981 45.5741 20.8791 45.1486 21.6744C44.8983 22.1587 44.7055 22.6703 44.5741 23.1989C44.1647 24.7234 43.6543 26.2299 43.1808 27.7427C43.0519 28.1561 42.8968 28.5624 42.784 28.9812C42.5541 29.842 42.0454 30.5056 41.3646 31.0598C41.2418 31.1554 41.1589 31.2927 41.1319 31.4454C41.0652 32.6112 41.03 33.777 40.9669 34.9383C40.9506 35.2369 41.0634 35.3948 41.3195 35.5355C42.3115 36.0736 43.2773 36.6493 44.2621 37.1972C45.3786 37.8187 46.018 38.7441 46.0026 40.0292C45.9873 41.2909 45.3614 42.2146 44.2369 42.7948C43.2161 43.3239 42.3695 44.1331 41.7974 45.1264C41.5206 45.5954 41.1617 45.7613 40.617 45.7541C37.2297 45.7335 33.8416 45.7442 30.4544 45.7433C29.6382 45.7433 29.4263 45.5371 29.4542 44.7381C29.5129 43.0486 29.4732 41.3465 29.6707 39.6723C29.9971 36.9076 31.3544 34.6505 33.5305 32.9018C33.8786 32.622 33.994 32.3583 33.8686 31.9575C33.8431 31.8869 33.8288 31.8128 33.8263 31.7378C33.8407 31.05 33.5503 30.6428 32.8243 30.5496C32.5709 30.5164 32.4221 30.5074 32.2084 30.702C31.7268 31.1414 31.183 31.5091 30.6266 31.9405C30.8575 32.2687 31.1443 32.6677 31.4211 33.074C31.7232 33.5223 31.6808 33.9268 31.3174 34.1779C30.954 34.429 30.5617 34.3267 30.2406 33.8891C30.1368 33.7607 30.0422 33.6253 29.9575 33.4838C29.4849 32.6014 28.8681 32.1189 27.7534 32.0203C26.9421 31.9489 26.1782 31.6095 25.5835 31.056C24.9889 30.5026 24.5978 29.7671 24.4726 28.9668C24.3463 28.1041 24.6259 27.3446 25.1381 26.6352C24.7368 26.0344 24.3364 25.439 23.9423 24.8417C23.6294 24.3665 23.6718 23.945 24.0551 23.7073C24.4212 23.4751 24.8234 23.5926 25.1264 24.0355C25.4889 24.5772 25.8425 25.1143 26.2311 25.6937ZM37.6437 21.7112C37.879 21.139 38.118 20.5974 38.3245 20.0441C38.5311 19.4908 38.6781 18.9339 38.89 18.3923C39.0848 17.8946 39.4726 17.726 39.9424 17.9672C41.3754 18.7034 43.0537 19.0299 44.0908 20.4476C44.1282 20.3994 44.1614 20.3481 44.19 20.2943C45.0242 17.8049 43.4893 15.0608 40.9146 14.4761C40.0073 14.2699 39.0812 14.1461 38.1703 13.9524C35.8842 13.4664 33.691 13.6726 31.5934 14.7416C27.9365 16.6041 26.3267 21.0332 27.9762 24.6956C28.097 24.9646 28.2278 25.065 28.5416 25.0543C29.0065 25.0374 29.4719 25.0756 29.9277 25.1682C31.6285 25.5269 32.8613 26.776 33.0489 28.3005C33.0832 28.5749 33.0543 28.8574 33.0543 29.208L34.9806 29.5398L35.0446 29.4215C34.669 28.8396 34.4201 28.186 34.3139 27.5028C34.2076 26.8195 34.2464 26.1217 34.4278 25.4542C34.3683 25.4013 34.3475 25.3789 34.3232 25.3645C33.1923 24.5754 32.855 23.2966 33.4854 22.1882C34.1157 21.0798 35.409 20.7104 36.6598 21.2691L37.6437 21.7112ZM30.9152 44.2906C30.9795 44.3038 31.0446 44.3133 31.11 44.3193C34.1762 44.3193 37.2478 44.3273 40.3167 44.3103C40.4799 44.3103 40.6972 44.1552 40.7973 44.0099C41.4935 42.9718 42.4401 42.1237 43.5506 41.5429C44.1737 41.2201 44.5534 40.7358 44.5642 40.0184C44.575 39.301 44.2107 38.8033 43.5948 38.4715C40.7691 36.9452 37.9452 35.4181 35.1231 33.89C34.8661 33.7501 34.6974 33.7923 34.4828 33.9626C33.5693 34.6983 32.7948 35.5898 32.1958 36.5955C30.7456 38.9881 30.9504 41.6416 30.9152 44.2906ZM39.9884 19.55C39.9054 19.819 39.8216 20.0378 39.7684 20.2674C39.5548 21.2367 39.0893 22.1334 38.4183 22.868C37.9909 23.3325 37.8033 23.3675 37.2333 23.1092C36.7824 22.9047 36.3387 22.6797 35.8806 22.5003C35.6632 22.4071 35.4179 22.4018 35.1967 22.4855C34.9754 22.5692 34.7957 22.7354 34.6956 22.9487C34.4756 23.3971 34.6487 23.9073 35.1213 24.171C35.2917 24.266 35.4775 24.3324 35.647 24.4274C36.0078 24.6301 36.1755 24.9368 36.0078 25.3296C35.3557 26.828 35.7895 28.1346 36.713 29.3488C37.3307 30.1613 38.1685 30.5568 39.1912 30.4321C40.1679 30.3137 40.9678 29.8277 41.2924 28.887C41.9616 26.9527 42.5613 24.9951 43.1565 23.0366C43.2938 22.5791 43.2711 22.0888 43.0921 21.6458C42.913 21.2028 42.5883 20.8332 42.1708 20.5974C41.4773 20.2073 40.7405 19.9033 39.9884 19.55ZM28.7256 30.7397C29.5949 30.7397 30.3849 30.476 30.9395 29.9909C31.8513 29.1946 31.8549 28.018 30.9477 27.2181C29.8042 26.2129 27.7164 26.2102 26.5666 27.2128C25.6567 28.0064 25.6486 29.1937 26.5612 29.9837C27.179 30.5182 27.9175 30.7343 28.7256 30.7397ZM35.1528 30.9522C35.2295 31.3943 35.3016 31.8149 35.3765 32.2462L39.625 32.7897V31.8176C38.5698 31.9925 37.5941 31.8391 36.7455 31.2634C36.254 30.9316 35.7724 30.8634 35.1528 30.9522Z" fill="#B7B4B2"/>
<path d="M25.1485 9.45346C24.7454 9.13063 24.4478 8.90285 24.1628 8.66073C23.7651 8.32265 23.7345 7.90656 24.0988 7.53171C24.2954 7.32905 24.538 7.17301 24.7941 6.96676C24.3198 6.57039 23.9491 6.27087 23.5893 5.95791C23.0951 5.52836 23.105 5.08177 23.6245 4.689C24.0907 4.33747 24.5696 4.00208 25.0674 3.64427C24.823 3.31068 24.5867 3.0022 24.3657 2.68295C24.1096 2.3108 24.1277 1.95299 24.4469 1.6732C26.3678 -0.0162839 29.5359 -0.626078 31.8337 0.784519C35.1281 2.80043 35.4302 7.42052 32.4325 10.0068C30.7272 11.4774 29.0056 12.9329 27.2922 14.3955C26.595 14.99 25.9024 15.5891 25.1999 16.1773C24.6399 16.6454 24.1105 16.4885 23.8878 15.7998C23.88 15.7557 23.8688 15.7122 23.8544 15.6698C23.445 14.8457 23.5343 14.0744 24.0348 13.3086C24.1782 13.0916 24.1746 12.7768 24.2278 12.5015C24.2396 12.4121 24.2375 12.3213 24.2215 12.2325C24.0907 11.1833 24.0222 10.152 25.1485 9.45346ZM25.3027 14.1794C25.3524 14.1559 25.3997 14.1279 25.4443 14.096C27.532 12.3096 29.6396 10.5457 31.6993 8.72799C33.117 7.47791 33.4561 5.51491 32.6571 3.75099C31.9356 2.15745 30.3313 1.27325 28.4456 1.45798C27.5393 1.54766 26.6888 1.81669 25.9205 2.3664C26.1532 2.68295 26.3714 2.96902 26.577 3.26315C26.9206 3.74471 26.8683 4.10072 26.3966 4.45674C25.9917 4.75984 25.5796 5.05129 25.1341 5.37322C25.5084 5.68619 25.8556 5.96598 26.1937 6.2628C26.5914 6.61343 26.614 7.01249 26.2478 7.39361C26.0377 7.59219 25.8177 7.78015 25.5886 7.95678C25.8204 8.14509 25.9493 8.24912 26.0747 8.35225C26.2001 8.45537 26.3362 8.55401 26.4625 8.66073C26.8647 9.00329 26.9134 9.37186 26.5887 9.79782C26.3362 10.1332 26.0476 10.4417 25.8132 10.7896C25.6925 10.9686 25.6267 11.1786 25.6238 11.394C25.6481 12.3338 25.907 13.2961 25.3027 14.1794Z" fill="#B7B4B2"/>
<path d="M20.4208 5.23032C20.7815 5.57288 21.1503 5.90378 21.4966 6.25441C21.9178 6.68037 21.9151 7.031 21.4831 7.45427C21.3027 7.63362 21.08 7.76096 20.8347 7.943C21.3208 8.34565 21.6788 8.63709 22.0323 8.93482C22.4544 9.29352 22.5518 9.56254 22.2533 10.028C21.8925 10.5965 21.9106 11.0933 22.3056 11.6089C22.3378 11.6595 22.3658 11.7126 22.3894 11.7677C22.9576 12.8635 22.9522 12.8572 21.9818 13.6186C21.924 13.6762 21.8792 13.7455 21.8504 13.8217C21.8216 13.898 21.8096 13.9794 21.815 14.0607C21.8655 14.5207 21.9647 14.9754 22.0477 15.4309C22.1144 15.7959 22.072 16.1268 21.7212 16.3331C21.3704 16.5393 21.062 16.4093 20.777 16.1654C18.3484 14.0876 15.89 12.0403 13.4948 9.92752C10.4286 7.2247 10.9931 2.35711 14.5292 0.58243C16.6764 -0.493677 19.8571 0.00850672 21.5967 1.69889C21.897 1.99123 21.9385 2.3051 21.7455 2.67187C21.3082 3.50406 20.8807 4.34073 20.4208 5.23032ZM20.2296 2.47638C18.9824 1.48098 17.0137 1.15815 15.5744 1.68634C12.6272 2.76782 11.996 6.7557 14.4471 8.87294C16.2859 10.4629 18.1446 12.0313 19.9942 13.6069C20.0981 13.6835 20.2059 13.7547 20.3171 13.8203C20.0564 13.007 20.6525 12.7774 21.1116 12.4483C20.7436 11.5758 19.8671 10.7794 20.8284 9.80377C20.3414 9.39933 19.9112 9.0496 19.4901 8.69C19.0527 8.31605 19.0302 7.90982 19.4351 7.49552C19.6398 7.28658 19.877 7.10902 20.1565 6.86779C19.7633 6.50909 19.4684 6.23199 19.1645 5.96386C18.793 5.63475 18.756 5.27426 18.9923 4.84112C19.4188 4.06274 19.8147 3.27449 20.2296 2.47638Z" fill="#B7B4B2"/>
</g>
<defs>
<clipPath id="clip0_794_18610">
<rect width="46" height="46" fill="white"/>
</clipPath>
</defs>
</svg>
