<svg width="50" height="49" viewBox="0 0 50 49" fill="none" xmlns="http://www.w3.org/2000/svg">
<path d="M44.751 23.6369L44.8072 23.6497C44.8072 23.4887 44.8072 23.329 44.8072 23.168L44.7344 23.2255C44.7395 23.3673 44.7459 23.5092 44.751 23.6369Z" fill="#023DA7"/>
<path d="M35.6406 23.0003C35.7429 23.0387 35.8451 23.0732 35.9473 23.1077C35.9473 22.893 35.9384 22.677 35.9371 22.4688C35.8298 22.6336 35.7326 22.8151 35.6406 23.0003Z" fill="#023DA7"/>
<path d="M27.5559 46.6829V46.6765H25.4806C25.4679 46.5487 25.4449 46.4312 25.4449 46.3111C25.4449 44.5898 25.4321 42.8685 25.4449 41.1485C25.4463 40.9301 25.4617 40.712 25.4909 40.4955V39.7288C25.4629 39.4695 25.4006 39.2151 25.3056 38.9723C25.05 38.364 24.5593 37.8771 24.2207 37.3111C23.9127 36.9277 23.5715 36.6121 23.5 36.0498C23.1894 33.5861 22.7984 31.1313 22.4138 28.6778C22.0304 26.2498 21.6637 23.8296 21.7953 21.3607C21.8166 20.8837 21.7927 20.4058 21.7237 19.9334C21.2126 16.34 19.2843 13.7894 15.9069 12.5102C12.5295 11.2311 9.36676 11.8662 6.6449 14.2609C4.63738 16.0282 3.67386 18.3181 3.63808 20.9914C3.62275 22.1862 3.76587 23.3989 3.60486 24.5695C3.08094 28.5155 2.45478 32.4488 1.86057 36.3846C1.81637 36.5826 1.71663 36.7639 1.57305 36.9072C0.96398 37.5444 0.521921 38.3223 0.286242 39.1716C0.175068 39.5678 0.0945621 39.9729 0 40.3728V47.9301C0.255573 48.3493 0.576318 48.6099 1.10919 48.6061C3.50008 48.5908 5.89224 48.6061 8.28313 48.5972C8.94762 48.5972 9.36804 48.2253 9.3757 47.6554C9.38337 47.0663 8.95656 46.6931 8.26013 46.688C7.64292 46.688 7.02571 46.688 6.41617 46.688C6.41617 46.6701 6.40722 46.6548 6.40211 46.6395H4.4342V46.651H1.93086C1.93086 46.5232 1.91424 46.4031 1.91424 46.2791C1.91424 44.6179 1.92958 42.9643 1.91424 41.3069C1.88996 39.2981 2.77297 37.8644 4.63354 37.1232C5.85646 36.6363 7.13305 36.2849 8.38919 35.8824C8.85817 35.7316 9.33865 35.614 9.8089 35.4658C10.3852 35.2844 10.6063 34.9802 10.6165 34.3771C10.6165 34.0436 10.6165 33.7113 10.6165 33.2922C12.0541 33.8519 13.4278 33.8263 14.8335 33.3024C14.8335 33.6857 14.8335 34.0244 14.8335 34.3566C14.8411 34.9853 15.0597 35.2946 15.6666 35.4735C16.9011 35.8402 18.1585 36.1431 19.3724 36.5648C20.2282 36.8585 21.0513 37.2401 21.8285 37.7034C22.8802 38.3359 23.4373 39.3646 23.4757 40.5734C23.5396 42.5912 23.4936 44.6128 23.4936 46.6599H19.0888V46.688C18.3732 46.688 17.7202 46.6791 17.0697 46.688C16.4768 46.6995 16.0768 47.0842 16.0679 47.6222C16.0577 48.1819 16.464 48.5716 17.08 48.5959C17.1439 48.5959 17.2077 48.5959 17.2716 48.5959H27.6224C27.6249 47.9595 27.6028 47.3219 27.5559 46.6829ZM10.8082 14.0897C15.3344 12.7773 19.8312 16.2045 19.8887 20.9211C19.8989 21.7479 19.8887 22.5747 19.8887 23.459C16.4385 22.8277 13.1659 21.9562 10.3162 19.9295C9.75012 19.527 9.26836 19.6113 8.82622 20.1851C7.96111 21.3173 6.85831 22.1581 5.63156 22.8839C5.07313 19.0286 6.6449 15.2947 10.8082 14.0897ZM7.6557 34.0934C6.4545 34.4448 5.25842 34.8141 3.98311 35.2C4.35497 32.7031 4.72044 30.2381 5.1038 27.6606C5.19964 27.8395 5.2597 27.9302 5.30059 28.0286C5.95224 29.5758 6.99128 30.929 8.31763 31.9581C8.44719 32.0427 8.55177 32.1604 8.62053 32.299C8.68928 32.4377 8.71971 32.5922 8.70866 32.7465C8.68949 33.7944 8.69843 33.7867 7.6557 34.0934ZM14.1166 31.5147C13.2451 31.8801 12.3416 31.9274 11.465 31.5632C9.0064 30.5409 7.34006 28.8017 6.76502 26.1463C6.66535 25.6876 6.70496 25.1956 6.71646 24.719C6.74054 24.5715 6.81895 24.4384 6.93626 24.3458C7.84439 23.6021 8.7602 22.8673 9.68367 22.1415C9.74005 22.1025 9.80477 22.0772 9.87267 22.0677C9.94056 22.0581 10.0097 22.0646 10.0747 22.0866C12.6304 23.6532 15.4494 24.5145 18.3642 25.1113C18.4716 25.133 18.5776 25.1675 18.8153 25.2301C18.7028 25.8333 18.6747 26.4339 18.4767 26.9718C17.6895 29.111 16.2289 30.6304 14.1166 31.5147ZM16.9777 33.8621C16.9177 33.8442 16.8129 33.811 16.8129 33.7867C16.8206 33.2474 16.8397 32.7095 16.8563 32.1702C18.3835 31.0254 19.5884 29.5048 20.3539 27.7565C20.7219 30.233 21.089 32.7061 21.4554 35.1757L16.9777 33.8621Z" fill="#023DA7"/>
<path d="M24.4942 1.35691C25.8564 0.224718 27.3451 -0.280039 29.0562 0.168492C31.1008 0.70264 32.5243 2.79451 32.4643 5.087C32.459 5.78981 32.312 6.48433 32.0321 7.129C31.7521 7.77366 31.345 8.35521 30.835 8.83881C29.0051 10.6125 27.1735 12.3819 25.3401 14.1471C24.7204 14.7438 24.2655 14.7413 23.6559 14.1547C21.8222 12.3849 19.9718 10.6317 18.1611 8.84009C16.5459 7.24276 16.1165 5.31574 16.8385 3.17914C17.8659 0.140379 21.2139 -0.930473 23.868 0.893042C24.0763 1.03105 24.2731 1.19078 24.4942 1.35691ZM24.3562 12.3785L24.498 12.2635C24.549 12.2302 24.5977 12.1935 24.6437 12.1536C26.2845 10.5729 27.9329 8.99855 29.5609 7.41016C30.4209 6.56804 30.711 5.5138 30.5015 4.34328C30.1117 2.09168 27.855 1.21379 26.0289 2.59388C25.8641 2.72167 25.7146 2.86223 25.5599 3.00024C24.7932 3.6839 24.1926 3.66729 23.408 3.00919C23.0106 2.67694 22.5812 2.34086 22.1084 2.14663C20.7692 1.59459 19.522 2.08274 18.8269 3.35549C18.4666 4.01024 18.3318 4.7653 18.4431 5.50427C18.5544 6.24323 18.9057 6.92507 19.4428 7.44466C20.7411 8.71358 22.0624 9.96078 23.3582 11.2348C23.7211 11.5811 24.0252 11.9926 24.3562 12.3785Z" fill="#023DA7"/>
<path d="M49.0861 41.3727C49.1155 38.4898 47.8223 36.444 45.181 35.3322C43.9108 34.7981 42.5626 34.4466 41.2426 34.0377C40.3902 33.7732 40.3838 33.7949 40.3838 32.9196C40.3941 32.7443 40.3941 32.5685 40.3838 32.3931C40.3493 32.1094 40.4682 31.9433 40.6893 31.7618C41.3026 31.2507 41.9352 30.7574 42.4642 30.1696C43.8558 28.6234 44.8551 26.8625 44.8998 24.708C44.9305 23.1618 44.9152 21.6156 44.8922 20.0694C44.8871 19.5756 44.8319 19.0837 44.7273 18.6011C43.705 13.965 39.281 11.1128 34.6168 12.0661C30.7066 12.866 27.9489 16.1105 27.8301 20.1026C27.7854 21.636 27.8148 23.1695 27.8224 24.694C27.8228 25.0284 27.854 25.362 27.9157 25.6907C28.3681 27.9819 29.6025 29.8259 31.3992 31.2366C32.1787 31.8487 32.4854 32.4634 32.3435 33.3809C32.341 33.397 32.341 33.4134 32.3435 33.4295C32.3844 33.6965 32.2758 33.8282 32.0036 33.8921C31.4618 34.0198 30.9276 34.1783 30.3922 34.3316C28.2032 34.954 26.0475 35.6325 24.5958 37.6541V37.6451C24.3326 38.1448 24.1217 38.6968 23.9045 39.2067C23.8598 39.3102 23.8163 39.4239 23.7767 39.5428C23.7438 40.0038 23.6866 40.4628 23.6055 40.9178C23.6336 42.018 23.6323 43.1208 23.6259 44.2274C23.6342 44.2794 23.6385 44.332 23.6387 44.3846V48.5824H47.8913C48.7462 48.5824 49.081 48.2489 49.0823 47.3965C49.0848 45.389 49.0721 43.3815 49.0861 41.3727ZM31.1819 16.246C33.0336 14.112 35.3989 13.3337 38.1092 14.0417C40.8196 14.7496 42.3927 16.6115 42.9217 19.3512C43.1172 20.3735 43.1019 20.3735 42.1166 20.7569C40.7263 21.3 39.3053 21.7549 37.7936 21.5019C37.0972 21.3856 36.4186 21.1185 35.749 20.8744C34.8277 20.5307 33.9511 20.0157 33.0042 19.7997C32.1097 19.5953 31.1474 19.6822 30.2146 19.6464C30.1038 19.6523 29.9936 19.6664 29.8849 19.6886C29.8568 19.6886 29.8274 19.6707 29.7571 19.6464C29.8596 18.3906 30.3586 17.1998 31.1819 16.246ZM30.3475 26.9877C29.917 26.1832 29.6996 25.2818 29.7162 24.3694C29.7328 23.6206 29.7379 22.8705 29.7162 22.1229C29.7034 21.774 29.844 21.6629 30.1596 21.5951C31.2566 21.351 32.403 21.4643 33.431 21.9184C33.8386 22.0986 34.2514 22.2724 34.6424 22.482C37.0013 23.7458 39.4242 23.7599 41.8981 22.8781C42.2406 22.7567 42.5843 22.6417 42.9204 22.5242C43.282 24.9598 42.7658 27.1245 41.0432 28.8892C40.4203 29.5255 39.7305 30.0928 38.9859 30.5811C37.2799 31.7031 35.5241 31.6916 33.7722 30.6284C32.3146 29.7573 31.1294 28.4963 30.35 26.9877H30.3475ZM47.1591 46.5391C47.1485 46.5833 47.1331 46.6261 47.1131 46.6669H42.2508C42.1597 46.6869 42.0667 46.6967 41.9735 46.6963H31.2918C31.2444 46.6963 31.1971 46.6938 31.15 46.6886C31.1065 46.6886 31.0631 46.6771 31.0222 46.6682H25.5887C25.5759 46.5404 25.5529 46.4215 25.5529 46.3014C25.5529 44.5801 25.5414 42.8588 25.5529 41.1388C25.5708 38.9665 26.8385 37.373 29.0147 36.8196C29.3674 36.6663 29.7341 36.6037 30.1418 36.4861C30.6951 36.3264 31.2484 36.1475 31.803 35.9993C31.8784 35.9328 31.8886 35.9162 31.9027 35.9124C32.1314 35.8382 32.3141 35.7846 32.4687 35.7373C32.5037 35.6975 32.5475 35.6665 32.5965 35.6466C32.9364 35.5188 33.3441 35.5188 33.6431 35.3182L33.6814 35.2913C33.7226 35.2605 33.7603 35.2254 33.7939 35.1865C34.0571 34.8862 34.1555 34.4786 34.2322 34.085C34.2399 33.9879 34.245 33.8908 34.2501 33.7924C34.2105 33.5509 34.2258 33.2416 34.1824 32.9375C35.6506 33.4704 37.0218 33.4857 38.4057 32.9771C38.4551 33.1629 38.4783 33.3548 38.4747 33.547C38.4747 33.5585 38.4747 33.57 38.4811 33.5828C38.5036 34.0168 38.5941 34.4446 38.7495 34.8505C38.7852 34.9041 38.8236 34.9578 38.8606 35.0102C38.9986 35.1175 39.1367 35.2236 39.2823 35.3182C39.5558 35.4958 39.865 35.5737 40.1641 35.6951C40.195 35.7078 40.2238 35.725 40.2497 35.7462C40.3353 35.7692 40.4222 35.7961 40.5142 35.8242C41.2362 35.9379 41.9058 36.2408 42.592 36.4951C42.8565 36.5692 43.1172 36.651 43.3728 36.7506C43.4737 36.7762 43.5747 36.8018 43.6769 36.8222C43.7645 36.8384 43.8501 36.8637 43.9325 36.8976C45.3675 37.1813 46.8294 38.6866 47.0645 40.1958C47.1291 40.6367 47.1611 41.0817 47.1604 41.5273C47.1744 43.1911 47.1655 44.8613 47.1616 46.534L47.1591 46.5391Z" fill="#023DA7"/>
<path d="M19.9247 46.6367H6.05859V48.6034H19.9247V46.6367Z" fill="#023DA7"/>
</svg>
