<svg width="378" height="281" viewBox="0 0 378 281" fill="none" xmlns="http://www.w3.org/2000/svg">
<path d="M378 246.941H0V247.13H378V246.941Z" fill="#F4F3F2"/>
<path d="M90.4557 254.93H64.9482V255.118H90.4557V254.93Z" fill="#F4F3F2"/>
<path d="M59.3988 255.02H44.2637V255.208H59.3988V255.02Z" fill="#F4F3F2"/>
<path d="M229.158 250.977H157.497V251.165H229.158V250.977Z" fill="#F4F3F2"/>
<path d="M126.841 260.277H103.995V260.466H126.841V260.277Z" fill="#F4F3F2"/>
<path d="M312.734 253.57H253.26V253.759H312.734V253.57Z" fill="#F4F3F2"/>
<path d="M318.443 158.996H299.18V246.944H318.443V158.996Z" fill="#F4F3F2"/>
<path d="M314.783 246.943H318.442V236.559H310.95L314.783 246.943Z" fill="#F4F3F2"/>
<path d="M246.456 158.996H227.193V246.944H246.456V158.996Z" fill="#F4F3F2"/>
<path d="M318.442 158.996H243.258V240.571H318.442V158.996Z" fill="#F4F3F2"/>
<path d="M282.079 200.622V227.59H315.608V200.622H282.079Z" fill="#F4F3F2"/>
<path d="M246.101 200.622V227.59H279.629V200.622H246.101Z" fill="#F4F3F2"/>
<path d="M266.18 203.527H259.543C258.118 203.528 256.708 203.239 255.399 202.678C254.089 202.116 252.909 201.294 251.93 200.262H273.793C272.814 201.294 271.633 202.116 270.324 202.678C269.015 203.239 267.605 203.528 266.18 203.527Z" fill="#F4F3F2"/>
<path d="M302.499 203.527H295.869C294.442 203.528 293.031 203.239 291.721 202.678C290.411 202.117 289.229 201.294 288.248 200.262H310.119C309.138 201.294 307.956 202.115 306.646 202.677C305.336 203.238 303.925 203.528 302.499 203.527Z" fill="#F4F3F2"/>
<path d="M282.079 165.134V192.102H315.608V165.134H282.079Z" fill="#F4F3F2"/>
<path d="M246.093 165.134V192.102H279.621V165.134H246.093Z" fill="#F4F3F2"/>
<path d="M266.18 168.046H259.543C258.117 168.046 256.707 167.756 255.398 167.193C254.089 166.63 252.909 165.807 251.93 164.773H273.793C272.814 165.807 271.634 166.63 270.325 167.193C269.016 167.756 267.606 168.046 266.18 168.046Z" fill="#F4F3F2"/>
<path d="M302.499 168.046H295.869C294.442 168.046 293.03 167.756 291.72 167.193C290.41 166.63 289.229 165.807 288.248 164.773H310.119C309.138 165.806 307.957 166.629 306.646 167.192C305.336 167.755 303.925 168.045 302.499 168.046Z" fill="#F4F3F2"/>
<path d="M246.917 246.943H243.258V236.559H250.757L246.917 246.943Z" fill="#F4F3F2"/>
<path d="M261.856 145.219C261.856 148.575 264.2 150.92 260.828 150.92C257.456 150.92 249.654 148.575 249.654 145.219C249.654 143.605 250.297 142.057 251.441 140.915C252.585 139.774 254.137 139.133 255.755 139.133C257.373 139.133 258.925 139.774 260.069 140.915C261.213 142.057 261.856 143.605 261.856 145.219Z" fill="#E0E7F4"/>
<path d="M272.297 148.113C272.297 151.477 274.64 153.815 271.268 153.815C267.897 153.815 260.064 151.477 260.064 148.113C260.064 146.499 260.707 144.951 261.851 143.81C262.996 142.669 264.547 142.027 266.165 142.027C267.783 142.027 269.335 142.669 270.479 143.81C271.624 144.951 272.266 146.499 272.266 148.113H272.297Z" fill="#E0E7F4"/>
<path d="M282.298 146.305C282.298 149.668 284.641 152.013 281.269 152.013C277.898 152.013 270.096 149.668 270.096 146.305C270.096 144.691 270.738 143.143 271.883 142.001C273.027 140.86 274.579 140.219 276.197 140.219C277.815 140.219 279.366 140.86 280.511 142.001C281.655 143.143 282.298 144.691 282.298 146.305Z" fill="#E0E7F4"/>
<path d="M245.919 147.125C245.919 147.125 246.418 158.995 265.537 158.995C284.656 158.995 285.148 147.125 285.148 147.125H245.919Z" fill="#F4F3F2"/>
<path d="M319.244 14.3594H222.302V121.372H319.244V14.3594Z" fill="#F4F3F2"/>
<path d="M329.616 11.0547H216.027C215.901 11.0537 215.775 11.0778 215.658 11.1254C215.54 11.1731 215.433 11.2435 215.343 11.3326C215.253 11.4216 215.182 11.5275 215.133 11.6442C215.085 11.7609 215.06 11.8861 215.06 12.0125C215.06 12.1389 215.085 12.264 215.133 12.3807C215.182 12.4974 215.253 12.6034 215.343 12.6924C215.433 12.7814 215.54 12.8518 215.658 12.8995C215.775 12.9472 215.901 12.9712 216.027 12.9702H329.616C329.871 12.9702 330.115 12.8693 330.295 12.6897C330.475 12.5101 330.576 12.2665 330.576 12.0125C330.576 11.7585 330.475 11.5149 330.295 11.3352C330.115 11.1556 329.871 11.0547 329.616 11.0547Z" fill="#F4F3F2"/>
<path d="M323.356 14.3594H224.222V121.372H323.356V14.3594Z" fill="#F4F3F2"/>
<path d="M319.244 121.363H222.302V128.988H319.244V121.363Z" fill="#F4F3F2"/>
<path d="M330.206 121.363H231.071V128.988H330.206V121.363Z" fill="#F4F3F2"/>
<path d="M317.596 115.617V20.0977L229.983 20.0977V115.617H317.596Z" fill="#F4F3F2"/>
<path d="M317.596 115.625V20.1055H316.862V115.625H317.596Z" fill="#F4F3F2"/>
<path d="M230.051 9.33594H220.14V101.507H230.051V9.33594Z" fill="#F4F3F2"/>
<path d="M233.906 9.33594H226.188V101.507H233.906V9.33594Z" fill="#F4F3F2"/>
<path d="M239.962 9.33594H230.051V101.507H239.962V9.33594Z" fill="#F4F3F2"/>
<path d="M243.817 9.33594H236.099V101.507H243.817V9.33594Z" fill="#F4F3F2"/>
<path d="M249.873 9.33594H239.962V101.507H249.873V9.33594Z" fill="#F4F3F2"/>
<path d="M313.906 9.33594H308.198V101.507H313.906V9.33594Z" fill="#F4F3F2"/>
<path d="M316.136 9.33594H311.684V101.507H316.136V9.33594Z" fill="#F4F3F2"/>
<path d="M319.614 9.33594H313.906V101.507H319.614V9.33594Z" fill="#F4F3F2"/>
<path d="M321.844 9.33594H317.392V101.507H321.844V9.33594Z" fill="#F4F3F2"/>
<path d="M325.33 9.33594H319.622V101.507H325.33V9.33594Z" fill="#F4F3F2"/>
<path d="M83.4393 38.2266H73.1123V66.3334H83.4393V38.2266Z" fill="#F4F3F2"/>
<path d="M58.9978 72.7656L55.7168 81.6946H58.9978L79.0772 72.7656H58.9978Z" fill="#F5F8FB"/>
<path d="M55.7168 72.7656V81.6946L75.8037 72.7656H55.7168Z" fill="#F4F3F2"/>
<path d="M137.743 72.7656L134.47 81.6946H137.743L157.83 72.7656H137.743Z" fill="#F5F8FB"/>
<path d="M134.47 72.7656V81.6946L154.549 72.7656H134.47Z" fill="#F4F3F2"/>
<path d="M40.9824 73.1875H62.8232V66.3927H40.9824V73.1875Z" fill="#F4F3F2"/>
<path d="M171.401 66.3867H62.8164V73.1815H171.401V66.3867Z" fill="#F5F8FB"/>
<path d="M100.639 66.334H75.5017L72.3945 32.2695H97.5315L100.639 66.334Z" fill="#F4F3F2"/>
<path d="M101.939 66.334H76.81L73.6953 32.2695H98.8323L101.939 66.334Z" fill="#F4F3F2"/>
<path d="M80.2415 62.5622L77.8223 36.0391H95.3993L97.8185 62.5622H80.2415Z" fill="white"/>
<path d="M112.085 55.2695C112.085 55.2695 112.546 66.3629 130.365 66.3629C148.184 66.3629 148.645 55.2997 148.645 55.2997L112.085 55.2695Z" fill="#F4F3F2"/>
<path d="M93.5626 244.49H66.0216C65.4055 244.498 64.8029 244.31 64.3005 243.954C63.7982 243.598 63.422 243.093 63.2261 242.51C63.0303 241.927 63.0249 241.297 63.2107 240.711C63.3965 240.125 63.7639 239.613 64.2601 239.249L64.7061 239.86C64.3417 240.129 64.0718 240.506 63.9348 240.937C63.7978 241.369 63.8007 241.832 63.9431 242.262C64.0855 242.691 64.3602 243.065 64.7279 243.33C65.0957 243.594 65.5378 243.737 65.9913 243.736H93.5324C95.2193 243.736 96.8373 243.068 98.0308 241.879C99.2244 240.69 99.8959 239.076 99.8979 237.394V156.052C99.8979 154.219 100.627 152.462 101.926 151.165C103.224 149.868 104.986 149.139 106.823 149.137H115.063V149.891H106.823C105.186 149.893 103.617 150.543 102.46 151.698C101.304 152.853 100.654 154.419 100.654 156.052V237.394C100.65 239.271 99.9023 241.07 98.5739 242.399C97.2455 243.729 95.4442 244.48 93.5626 244.49Z" fill="#F4F3F2"/>
<path d="M185.56 150.691H135.959V246.942H185.56V150.691Z" fill="#F4F3F2"/>
<path d="M187.428 150.691H183.338V246.942H187.428V150.691Z" fill="#F4F3F2"/>
<path d="M90.0627 157.91H188.69V150.693H90.0627V157.91Z" fill="#F4F3F2"/>
<path d="M89.4723 150.691H39.8711V246.942H89.4723V150.691Z" fill="#F4F3F2"/>
<path d="M91.3321 150.691H87.2422V246.942H91.3321V150.691Z" fill="#F4F3F2"/>
<path d="M74.1104 121.961H120.332L127.03 149.185H80.8085L74.1104 121.961Z" fill="#F4F3F2"/>
<path d="M80.8086 149.184L80.9976 150.684H127.219L127.038 149.184H80.8086Z" fill="#F4F3F2"/>
<path d="M75.5391 121.961H121.761L128.459 149.185H82.2372L75.5391 121.961Z" fill="#F4F3F2"/>
<path d="M83.2128 147.939L77.127 123.203H120.778L126.864 147.939H83.2128Z" fill="white"/>
<path d="M94.2812 149.184L94.4627 150.684H145.364L145.175 149.184H94.2812Z" fill="#F4F3F2"/>
<path d="M58.2649 143.831C58.2649 143.831 51.4609 132.134 60.9033 122.82C60.9033 122.82 63.3603 124.427 63.3225 126.591C63.2847 128.755 60.6917 129.291 61.2435 131.116C61.7954 132.941 64.2675 134.675 62.6497 136.161C61.0319 137.647 62.9067 138.966 62.8009 140.784C62.6951 142.601 58.2649 143.831 58.2649 143.831Z" fill="#F4F3F2"/>
<path d="M58.7788 144.899C58.7788 144.899 61.5382 131.656 49.6388 125.789C49.6388 125.789 47.8092 128.051 48.5274 130.118C49.2456 132.184 51.8841 131.845 51.9219 133.723C51.9597 135.6 50.1831 138.051 52.1865 138.956C54.1899 139.861 52.8215 141.701 53.5019 143.391C54.1823 145.08 58.7788 144.899 58.7788 144.899Z" fill="#F4F3F2"/>
<path d="M48.3838 141.965C48.3838 141.965 48.6106 150.69 57.2819 150.69C65.9532 150.69 66.18 141.965 66.18 141.965H48.3838Z" fill="#F4F3F2"/>
<path d="M170.66 246.943H168.936L163.999 222.689L163.138 218.444L157.755 192.049H137.124L125.942 246.973H124.219L135.612 191.031C135.649 190.84 135.751 190.669 135.902 190.546C136.053 190.424 136.241 190.358 136.436 190.359H158.443C158.637 190.358 158.826 190.424 158.977 190.546C159.127 190.669 159.23 190.84 159.267 191.031L163.992 214.243L164.861 218.481L170.66 246.943Z" fill="#F4F3F2"/>
<path d="M203.78 246.941H202.049L190.867 192.017H170.244L164.861 218.45L163.999 222.688L159.063 246.941H157.339L163.137 218.442L163.992 214.212L168.724 190.999C168.761 190.809 168.864 190.638 169.015 190.515C169.165 190.392 169.354 190.326 169.548 190.328H191.555C191.75 190.327 191.939 190.394 192.091 190.516C192.242 190.638 192.347 190.809 192.387 190.999L203.78 246.941Z" fill="#F4F3F2"/>
<path d="M152.932 191.175H190.837C194.315 191.172 197.653 189.81 200.136 187.381C202.619 184.952 204.049 181.65 204.12 178.181L205.534 120.716C205.56 119.432 205.329 118.155 204.855 116.961C204.38 115.766 203.672 114.678 202.771 113.761C201.87 112.843 200.794 112.113 199.607 111.615C198.42 111.117 197.145 110.86 195.857 110.859H172.096C169.717 110.859 167.421 111.732 165.646 113.312C163.872 114.892 162.742 117.069 162.472 119.426L152.932 191.175Z" fill="#F4F3F2"/>
<path d="M173.601 191.176H133.208C132.706 191.176 132.226 190.977 131.871 190.624C131.517 190.27 131.318 189.79 131.318 189.29V189.109C131.318 187.735 131.865 186.418 132.839 185.446C133.813 184.474 135.134 183.928 136.511 183.928H173.601V191.176Z" fill="#F4F3F2"/>
<path d="M189 280.999C269.954 280.999 335.581 277.177 335.581 272.463C335.581 267.748 269.954 263.926 189 263.926C108.045 263.926 42.4189 267.748 42.4189 272.463C42.4189 277.177 108.045 280.999 189 280.999Z" fill="#F4F3F2"/>
<path d="M208.989 87.3806L209.48 87.7954L210.062 88.2554C210.455 88.5646 210.818 88.8738 211.272 89.1604C212.088 89.7637 212.958 90.3067 213.827 90.8496C215.583 91.925 217.42 92.8605 219.323 93.6475C221.219 94.4536 223.173 95.119 225.167 95.6384C225.666 95.7742 226.18 95.8647 226.679 95.9778L227.435 96.1437C227.332 96.1703 227.234 96.2163 227.148 96.2794C227.08 96.3473 227.08 96.3473 227.11 96.3247C227.262 96.1075 227.379 95.8685 227.458 95.6158C227.726 94.7457 227.891 93.8471 227.949 92.9386C228.04 91.9431 228.07 90.91 228.063 89.8542C228.063 87.7501 227.896 85.6008 227.73 83.444C227.564 81.2871 227.299 79.1228 227.019 76.9584C226.74 74.794 226.43 72.6145 226.105 70.4728L228.947 69.8242C230.198 74.1262 231.208 78.4944 231.971 82.9085C232.366 85.1548 232.641 87.4204 232.795 89.6958C232.884 90.8726 232.912 92.0531 232.878 93.2327C232.867 94.5321 232.702 95.8256 232.387 97.0864C232.173 97.8925 231.826 98.6573 231.359 99.3488C231.03 99.8186 230.624 100.229 230.157 100.563C229.619 100.946 229.001 101.204 228.35 101.317C227.79 101.416 227.217 101.416 226.656 101.317L225.787 101.181C225.205 101.076 224.615 101 224.041 100.88C219.392 99.9644 214.931 98.2713 210.848 95.8722C209.828 95.2538 208.83 94.6203 207.862 93.9114C207.378 93.5721 206.902 93.2026 206.426 92.833C206.192 92.6369 205.957 92.4484 205.723 92.2373C205.488 92.0261 205.269 91.8451 204.967 91.5585L208.989 87.3806Z" fill="#FEC3BD"/>
<path d="M200.77 83.9436C209.086 82.82 215.769 89.5092 215.769 89.5092L208.164 101.221C208.164 101.221 200.014 96.0099 198.578 92.473C197.096 88.7852 196.514 84.5243 200.77 83.9436Z" fill="#F8C633"/>
<path d="M226.173 71.522L223.413 66.0017L230.648 65.9414C230.648 65.9414 230.792 69.7951 228.962 71.9745L226.173 71.522Z" fill="#FEC3BD"/>
<path d="M224.698 60.0664L230.081 61.0166L230.648 65.9412L223.413 66.0015L224.698 60.0664Z" fill="#FEC3BD"/>
<path d="M171.362 266.152L178.136 266.801L182.823 250.926L176.05 250.277L171.362 266.152Z" fill="#FEC3BD"/>
<path d="M128.293 242.682L133.313 247.388L144.154 235.503L139.134 230.797L128.293 242.682Z" fill="#FEC3BD"/>
<path d="M135.633 245.096L131.853 238.309C131.792 238.19 131.688 238.098 131.562 238.052C131.436 238.006 131.297 238.009 131.173 238.06L125.359 240.262C125.216 240.322 125.086 240.413 124.98 240.527C124.874 240.641 124.792 240.776 124.742 240.923C124.691 241.07 124.672 241.226 124.686 241.381C124.7 241.536 124.747 241.687 124.823 241.823C126.176 244.168 126.955 245.232 128.603 248.21C129.623 250.043 131.627 254.243 133.025 256.785C134.424 259.326 137.017 258.067 136.662 256.883C135.044 251.604 135.354 248.64 135.807 246.325C135.895 245.908 135.834 245.473 135.633 245.096Z" fill="#4F4F4F"/>
<path d="M178.93 264.738H170.72C170.573 264.74 170.431 264.789 170.315 264.879C170.199 264.969 170.115 265.094 170.077 265.236L168.286 271.714C168.244 271.867 168.238 272.029 168.269 272.185C168.299 272.341 168.366 272.487 168.464 272.613C168.561 272.739 168.687 272.84 168.83 272.909C168.974 272.979 169.132 273.013 169.291 273.011C172.187 273.011 173.555 273.011 177.169 273.011H188.199C191.223 273.011 191.828 269.995 190.588 269.708C185.024 268.479 181.811 266.79 180.094 265.183C179.776 264.894 179.361 264.735 178.93 264.738Z" fill="#4F4F4F"/>
<path d="M182.823 250.933L180.404 259.116H173.434L176.042 250.277L182.823 250.933Z" fill="#FEC3BD"/>
<path d="M139.127 230.797L144.154 235.503L138.56 241.626L133.54 236.92L139.127 230.797Z" fill="#FEC3BD"/>
<path d="M208.966 79.2673C208.913 73.7847 203.938 71.8692 203.938 71.8692C203.938 71.8692 210.16 60.1121 206.962 52.3219C203.764 44.5316 193.226 43.144 189.884 46.794C184.01 46.5376 182.143 54.9614 182.143 54.9614C182.143 54.9614 177.229 55.7758 175.906 59.3429C174.583 62.91 178.612 66.9371 178.612 66.9371C178.612 66.9371 173.003 67.6912 170.939 71.9898C168.875 76.2884 170.145 82.0199 176.344 86.952C185.356 94.1163 201.92 85.127 201.92 85.127C201.92 85.127 209.026 85.5644 208.966 79.2673Z" fill="#333333"/>
<path d="M207.9 84.7184C207.9 84.7184 210.924 86.0382 200.824 125.827L172.852 123.413C174.303 112.101 174.931 105.073 171.506 81.272C175.497 80.8012 179.517 80.6222 183.534 80.7366C187.793 80.8006 192.042 81.166 196.25 81.8301C200.179 82.5981 204.067 83.5621 207.9 84.7184Z" fill="#F8C633"/>
<path d="M200.649 82.775C199.198 82.4281 197.625 82.0963 196.189 81.8323C191.982 81.1682 187.732 80.8028 183.473 80.7388C182.014 80.686 180.555 80.686 179.187 80.7388L180.124 82.5186C180.29 82.8353 184.282 90.2636 191.865 94.4792L193.951 95.6406L195.894 94.2605C200.793 90.7613 201.519 86.2214 200.649 82.775Z" fill="white"/>
<path d="M185.976 66.5586C186.422 70.7064 186.573 78.2553 183.481 80.7364C183.481 80.7364 187.02 87.4407 193.718 91.1586C199.645 86.9505 196.197 81.8299 196.197 81.8299C191.729 80.3216 192.138 76.9808 193.173 73.8813L185.976 66.5586Z" fill="#FEC3BD"/>
<path d="M188.917 69.5469L193.196 73.9058C192.935 74.6264 192.738 75.3682 192.606 76.123C190.89 75.7157 188.395 73.936 188.365 72.0959C188.397 71.2204 188.584 70.3574 188.917 69.5469Z" fill="#FEC3BD"/>
<path d="M185.795 57.1328C184.971 63.9201 184.479 66.7934 187.254 70.8657C191.427 76.9969 199.985 76.5142 202.82 70.1116C205.375 64.3349 206.29 54.1766 200.174 50.3003C198.833 49.437 197.293 48.9301 195.7 48.8279C194.107 48.7256 192.515 49.0313 191.074 49.716C189.633 50.4007 188.392 51.4415 187.468 52.7397C186.544 54.0378 185.968 55.5501 185.795 57.1328Z" fill="#FEC3BD"/>
<path d="M191.071 48.7695C196.325 50.1194 191.131 66.0695 182.755 61.4466C182.755 61.4466 183.133 54.7122 185.461 51.854C186.867 50.1482 188.874 49.0444 191.071 48.7695Z" fill="#333333"/>
<path d="M190.512 49.6535C192.78 53.3262 209.601 60.302 203.946 52.3835C198.291 44.465 190.512 49.6535 190.512 49.6535Z" fill="#333333"/>
<path d="M183.632 63.0061C183.538 64.3284 183.969 65.6344 184.834 66.6411C185.998 67.9608 187.533 67.1539 188.017 65.5627C188.448 64.1298 188.364 61.7166 186.815 60.9775C186.473 60.827 186.099 60.7633 185.726 60.7918C185.353 60.8203 184.993 60.9403 184.678 61.1411C184.363 61.3419 184.103 61.6172 183.92 61.9426C183.738 62.268 183.639 62.6333 183.632 63.0061Z" fill="#FEC3BD"/>
<path d="M200.793 125.827C200.793 125.827 210.266 167.637 203.945 197.116C199.712 216.859 184.433 256.738 184.433 256.738L172.488 256.437C172.488 256.437 184.048 214.582 186.444 198.119C190.534 169.967 180.29 124.062 180.29 124.062L200.793 125.827Z" fill="#333333"/>
<path d="M189.869 134.273L183.896 143.67C185.697 154.812 186.838 166.051 187.314 177.327C195.713 162.327 191.736 142.215 189.869 134.273Z" fill="#333333"/>
<path d="M185.416 257.355L170.659 256.978L171.513 252.461L187.624 253.223L185.416 257.355Z" fill="#023DA7"/>
<path d="M194.67 125.383C194.67 125.383 189.113 169.726 177.063 193.934C167.333 213.489 141.372 241.324 141.372 241.324L134.734 234.537C134.734 234.537 152.274 204.281 159.508 191.294C177.244 159.447 162.744 135.141 172.799 123.422L194.67 125.383Z" fill="#333333"/>
<path d="M142.037 242.23L133.464 233.904L136.314 230.043L145.651 239.673L142.037 242.23Z" fill="#023DA7"/>
<path d="M172.512 121.739L171.038 124.13C170.917 124.311 171.136 124.529 171.453 124.56L200.824 127.093C201.081 127.093 201.3 127.011 201.331 126.852L201.799 124.371C201.799 124.205 201.625 124.039 201.346 124.017L172.988 121.566C172.901 121.551 172.811 121.559 172.727 121.59C172.644 121.62 172.569 121.672 172.512 121.739Z" fill="#023DA7"/>
<path d="M176.049 125.231L175.293 125.163C175.142 125.163 175.036 125.065 175.051 124.967L175.694 121.747C175.694 121.656 175.853 121.589 176.004 121.604L176.76 121.672C176.911 121.672 177.017 121.77 177.002 121.86L176.367 125.08C176.336 125.186 176.2 125.239 176.049 125.231Z" fill="#333333"/>
<path d="M198.669 127.177L197.913 127.116C197.762 127.116 197.656 127.011 197.671 126.92L198.314 123.7C198.314 123.61 198.473 123.542 198.624 123.557L199.38 123.617C199.531 123.617 199.637 123.723 199.622 123.813L198.987 127.033C198.957 127.124 198.828 127.192 198.669 127.177Z" fill="#333333"/>
<path d="M187.36 126.206L186.604 126.138C186.453 126.138 186.347 126.04 186.362 125.95L187.004 122.73C187.004 122.632 187.163 122.571 187.314 122.579L188.07 122.647C188.222 122.647 188.327 122.745 188.312 122.843L187.677 126.063C187.647 126.153 187.488 126.221 187.36 126.206Z" fill="#333333"/>
<path d="M195.675 60.8745C195.577 61.425 195.789 61.9228 196.144 61.9831C196.5 62.0434 196.9 61.6588 196.976 61.1158C197.051 60.5729 196.87 60.0676 196.507 59.9997C196.144 59.9318 195.804 60.3315 195.675 60.8745Z" fill="#333333"/>
<path d="M201.852 62.0063C201.754 62.5568 201.966 63.0546 202.321 63.1224C202.676 63.1903 203.077 62.7906 203.153 62.2476C203.228 61.7046 203.047 61.1994 202.684 61.139C202.321 61.0787 201.988 61.4633 201.852 62.0063Z" fill="#333333"/>
<path d="M202.555 61.1355L203.938 60.9922C203.938 60.9922 203.076 61.8972 202.555 61.1355Z" fill="#333333"/>
<path d="M200.067 62.6445C200.33 63.9833 200.775 65.2798 201.39 66.4982C201.073 66.6448 200.727 66.7207 200.377 66.7207C200.027 66.7207 199.682 66.6448 199.364 66.4982L200.067 62.6445Z" fill="#F98A7E"/>
<path d="M197.066 68.2945C196.329 68.1813 195.63 67.8935 195.028 67.4552C194.426 67.0169 193.937 66.441 193.604 65.7757C193.591 65.7416 193.592 65.7039 193.606 65.6702C193.62 65.6366 193.646 65.6096 193.679 65.5947C193.713 65.5822 193.749 65.5831 193.782 65.5972C193.814 65.6113 193.84 65.6374 193.853 65.6701C194.173 66.2908 194.634 66.8279 195.2 67.238C195.766 67.648 196.421 67.9195 197.112 68.0305C197.148 68.0305 197.182 68.0448 197.208 68.0703C197.233 68.0958 197.248 68.1303 197.248 68.1663C197.248 68.2023 197.233 68.2368 197.208 68.2623C197.182 68.2877 197.148 68.302 197.112 68.302L197.066 68.2945Z" fill="#333333"/>
<path d="M194.201 56.603C194.159 56.603 194.117 56.5936 194.079 56.5753C194.041 56.557 194.008 56.5304 193.981 56.4974C193.959 56.4695 193.943 56.4374 193.934 56.4031C193.925 56.3687 193.922 56.3329 193.927 56.2977C193.932 56.2624 193.944 56.2286 193.963 56.1981C193.981 56.1677 194.005 56.1412 194.034 56.1204C194.432 55.7987 194.901 55.5778 195.403 55.4767C195.905 55.3756 196.423 55.3972 196.915 55.5397C196.949 55.5506 196.981 55.5685 197.008 55.5921C197.035 55.6158 197.057 55.6448 197.073 55.6773C197.089 55.7098 197.097 55.7451 197.099 55.7811C197.1 55.8171 197.094 55.853 197.081 55.8866C197.055 55.9535 197.005 56.008 196.94 56.0388C196.876 56.0697 196.802 56.0746 196.733 56.0525C196.328 55.9413 195.901 55.9284 195.49 56.015C195.078 56.1016 194.693 56.2851 194.367 56.5502C194.318 56.5846 194.26 56.6031 194.201 56.603Z" fill="#333333"/>
<path d="M205.39 59.9302C205.349 59.9302 205.308 59.9207 205.272 59.9023C205.235 59.884 205.203 59.8574 205.178 59.8246C204.917 59.4984 204.582 59.2377 204.201 59.0636C203.821 58.8894 203.404 58.8065 202.986 58.8216C202.914 58.8281 202.842 58.8066 202.786 58.7616C202.73 58.7166 202.693 58.6517 202.683 58.5803C202.679 58.5446 202.682 58.5084 202.692 58.4739C202.702 58.4393 202.719 58.4071 202.741 58.379C202.764 58.351 202.792 58.3276 202.823 58.3104C202.855 58.2932 202.89 58.2824 202.925 58.2786C203.44 58.2494 203.955 58.3438 204.426 58.5537C204.897 58.7636 205.31 59.0831 205.632 59.4852C205.681 59.5359 205.708 59.6034 205.708 59.6738C205.708 59.7441 205.681 59.8117 205.632 59.8623C205.6 59.8927 205.562 59.9149 205.52 59.9267C205.477 59.9386 205.433 59.9398 205.39 59.9302Z" fill="#333333"/>
<path d="M173.57 91.2482C172.431 93.4977 171.169 95.683 169.79 97.7941C168.429 99.8756 166.992 101.912 165.443 103.865C163.879 105.834 162.2 107.71 160.415 109.483C159.493 110.351 158.593 111.24 157.603 112.047L156.847 112.673L156.666 112.824L156.424 113.013C156.257 113.133 156.099 113.262 155.925 113.375C155.237 113.842 154.489 114.215 153.702 114.483C152.22 114.973 150.651 115.145 149.098 114.989C147.707 114.852 146.337 114.554 145.016 114.099C142.57 113.244 140.237 112.096 138.068 110.682C133.898 107.984 130.056 104.81 126.622 101.225L128.633 99.1139C130.44 100.562 132.345 102.01 134.295 103.314C136.208 104.647 138.197 105.865 140.253 106.964C142.212 108.036 144.28 108.895 146.422 109.529C148.463 110.102 150.512 110.2 151.925 109.604C152.727 109.262 153.442 108.747 154.02 108.096C154.859 107.342 155.637 106.504 156.431 105.69C157.981 104.008 159.417 102.206 160.831 100.411C162.245 98.6161 163.522 96.6403 164.762 94.6795C165.39 93.7067 165.987 92.7112 166.577 91.7158C167.166 90.7203 167.733 89.6721 168.225 88.6992L173.57 91.2482Z" fill="#FEC3BD"/>
<path d="M130.546 100.051L127.854 94.5078L123.379 100.171C123.379 100.171 126.342 102.645 129.223 102.554L130.546 100.051Z" fill="#FEC3BD"/>
<path d="M124.913 92.8867L122.381 97.7132L123.379 100.172L127.854 94.5081L124.913 92.8867Z" fill="#FEC3BD"/>
<path d="M171.445 81.2734C168.013 81.8767 163.197 91.7032 163.197 91.7032L172.625 100.202C172.625 100.202 178.733 92.0199 178.37 87.5554C178.06 83.7696 175.815 80.5042 171.445 81.2734Z" fill="#F8C633"/>
<path d="M136.957 248.773C136.866 248.774 136.777 248.759 136.692 248.728C135.868 248.449 135.331 246.933 135.082 246.058C135.073 246.033 135.073 246.005 135.081 245.979C135.089 245.954 135.105 245.931 135.127 245.915C135.149 245.899 135.176 245.891 135.203 245.891C135.23 245.891 135.256 245.899 135.278 245.915C135.528 246.043 137.72 247.212 137.788 248.08C137.798 248.174 137.781 248.269 137.739 248.354C137.698 248.439 137.634 248.511 137.554 248.562C137.384 248.696 137.174 248.771 136.957 248.773ZM135.445 246.3C135.823 247.506 136.314 248.313 136.783 248.472C136.89 248.504 137.003 248.507 137.112 248.482C137.22 248.457 137.321 248.404 137.403 248.328C137.444 248.304 137.477 248.268 137.499 248.226C137.52 248.183 137.529 248.135 137.524 248.087C137.478 247.559 136.193 246.722 135.437 246.3H135.445Z" fill="#4F4F4F"/>
<path d="M137.297 246.64C136.55 246.638 135.813 246.465 135.142 246.135C135.121 246.124 135.103 246.106 135.091 246.085C135.079 246.063 135.073 246.039 135.074 246.014C135.076 245.991 135.084 245.968 135.097 245.948C135.11 245.928 135.129 245.912 135.15 245.901C135.218 245.864 136.957 244.906 137.894 245.238C138.009 245.276 138.114 245.339 138.202 245.423C138.289 245.506 138.357 245.608 138.401 245.72C138.462 245.829 138.483 245.955 138.461 246.078C138.439 246.2 138.375 246.311 138.28 246.392C137.991 246.585 137.644 246.673 137.297 246.64ZM135.513 246.022C136.269 246.339 137.698 246.527 138.106 246.188C138.174 246.128 138.235 246.037 138.151 245.826C138.12 245.749 138.073 245.68 138.013 245.623C137.953 245.565 137.882 245.522 137.804 245.494C137.161 245.268 136.004 245.773 135.513 246.022Z" fill="#4F4F4F"/>
<path d="M182.573 266.059C181.81 266.044 181.05 265.95 180.305 265.78C180.277 265.774 180.252 265.759 180.233 265.737C180.214 265.715 180.202 265.688 180.2 265.66C180.196 265.632 180.201 265.604 180.214 265.579C180.228 265.554 180.249 265.535 180.275 265.524C180.615 265.365 183.586 264.016 184.342 264.498C184.41 264.545 184.464 264.609 184.498 264.683C184.533 264.757 184.547 264.839 184.539 264.921C184.531 265.069 184.49 265.213 184.42 265.343C184.349 265.474 184.25 265.587 184.131 265.675C183.664 265.96 183.12 266.094 182.573 266.059ZM180.804 265.599C181.689 265.765 183.322 265.976 183.995 265.471C184.084 265.405 184.157 265.32 184.209 265.222C184.261 265.124 184.291 265.016 184.297 264.905C184.297 264.792 184.259 264.747 184.221 264.724C183.798 264.438 182.037 265.056 180.804 265.599Z" fill="#4F4F4F"/>
<path d="M180.367 265.781C180.337 265.792 180.305 265.792 180.276 265.781C180.257 265.764 180.243 265.743 180.235 265.719C180.227 265.695 180.225 265.669 180.23 265.645C180.23 265.524 180.941 262.628 182.551 262.779C182.96 262.824 183.065 263.028 183.088 263.186C183.194 263.94 181.312 265.449 180.419 265.803L180.367 265.781ZM182.408 263.013C181.372 263.013 180.775 264.717 180.571 265.396C181.546 264.891 182.884 263.669 182.839 263.194C182.839 263.156 182.839 263.051 182.544 263.02L182.408 263.013Z" fill="#4F4F4F"/>
<path d="M196.348 60.0066L197.731 59.8633C197.731 59.8633 196.869 60.7683 196.348 60.0066Z" fill="#333333"/>
<path opacity="0.6" d="M139.474 17.0195L117.315 159.876L241.995 179.129L264.153 36.2652L139.474 17.0195ZM190.7 98.3007C184.979 97.4185 179.648 94.8637 175.382 90.9592C171.116 87.0547 168.106 81.976 166.734 76.3654C165.361 70.7547 165.688 64.864 167.671 59.4383C169.655 54.0125 173.207 49.2954 177.878 45.8835C182.549 42.4715 188.13 40.5179 193.914 40.2698C199.698 40.0216 205.426 41.4901 210.374 44.4894C215.321 47.4887 219.266 51.8842 221.71 57.12C224.153 62.3558 224.985 68.1968 224.1 73.9043C222.914 81.5576 218.729 88.4275 212.465 93.0027C206.202 97.5779 198.373 99.4837 190.7 98.3007Z" fill="#023DA7"/>
<g style="mix-blend-mode:multiply" opacity="0.3">
<path d="M238.23 173.7H238.041L113.173 154.402V154.221L135.392 11.168H135.573L260.442 30.4664V30.6474L238.23 173.7ZM113.604 154.093L237.913 173.27L260.011 30.7831L135.702 11.5978L113.604 154.093Z" fill="#023DA7"/>
</g>
<path d="M195.191 99.7796C193.629 99.7779 192.07 99.6569 190.527 99.4176C182.771 98.2106 175.785 94.054 171.035 87.8201C166.285 81.5862 164.14 73.7594 165.051 65.9819C165.961 58.2045 169.855 51.0809 175.917 46.1059C181.978 41.1308 189.736 38.691 197.562 39.2983C205.388 39.9057 212.673 43.5129 217.891 49.3632C223.108 55.2136 225.851 62.8523 225.545 70.6765C225.238 78.5008 221.905 85.9025 216.246 91.3287C210.587 96.7548 203.041 99.7836 195.191 99.7796ZM190.874 97.1854C196.372 98.0327 201.999 97.2348 207.042 94.8926C212.086 92.5503 216.32 88.7689 219.209 84.0265C222.098 79.284 223.513 73.7935 223.274 68.249C223.036 62.7045 221.154 57.3552 217.868 52.8772C214.582 48.3993 210.039 44.9938 204.813 43.0915C199.586 41.1892 193.912 40.8753 188.507 42.1897C183.102 43.504 178.209 46.3876 174.447 50.4757C170.685 54.5638 168.222 59.6729 167.37 65.157C166.24 72.5118 168.08 80.0135 172.486 86.0174C176.892 92.0213 183.505 96.0374 190.874 97.1854Z" fill="white"/>
<path d="M166.615 107.146L139.15 102.91L138.196 109.066L165.66 113.303L166.615 107.146Z" fill="#E0E7F4"/>
<path d="M188.813 110.561L170.232 107.695L169.278 113.851L187.859 116.717L188.813 110.561Z" fill="#E0E7F4"/>
<path d="M236.528 130.694L137.213 115.375L136.259 121.531L235.573 136.85L236.528 130.694Z" fill="white"/>
<path d="M185.262 135.802L135.79 128.324L134.853 134.491L184.325 141.968L185.262 135.802Z" fill="white"/>
<path d="M226.06 142.483L193.022 137.387L192.068 143.543L225.106 148.639L226.06 142.483Z" fill="white"/>
<path d="M212.556 153.798L133.159 141.551L132.205 147.707L211.601 159.954L212.556 153.798Z" fill="white"/>
<path d="M265.484 179.131H264.728C264.731 177.26 264.5 175.395 264.04 173.581L264.796 173.392C265.263 175.269 265.494 177.197 265.484 179.131ZM262.52 169.388C260.855 165.921 258.341 162.928 255.21 160.685L255.648 160.074C258.887 162.388 261.487 165.48 263.208 169.064L262.52 169.388Z" fill="#E0E7F4"/>
<path d="M241.995 158.367C237.873 158.367 233.843 159.587 230.416 161.871C226.988 164.156 224.316 167.403 222.739 171.202C221.161 175.001 220.749 179.182 221.553 183.215C222.357 187.248 224.342 190.953 227.257 193.861C230.172 196.768 233.886 198.749 237.929 199.551C241.972 200.353 246.163 199.941 249.972 198.368C253.78 196.794 257.035 194.129 259.326 190.71C261.616 187.291 262.838 183.271 262.838 179.159C262.838 173.645 260.642 168.356 256.733 164.457C252.825 160.558 247.523 158.367 241.995 158.367ZM241.995 197.251C238.407 197.251 234.899 196.189 231.915 194.2C228.931 192.212 226.606 189.385 225.232 186.078C223.859 182.77 223.5 179.131 224.2 175.62C224.9 172.109 226.628 168.884 229.166 166.353C231.703 163.822 234.936 162.098 238.456 161.4C241.975 160.701 245.623 161.06 248.939 162.43C252.254 163.8 255.088 166.119 257.081 169.096C259.075 172.072 260.139 175.572 260.139 179.151C260.131 183.946 258.216 188.542 254.814 191.93C251.413 195.318 246.802 197.22 241.995 197.22V197.251Z" fill="#E0E7F4"/>
<path opacity="0.8" d="M241.996 197.223C252.012 197.223 260.132 189.123 260.132 179.131C260.132 169.139 252.012 161.039 241.996 161.039C231.979 161.039 223.859 169.139 223.859 179.131C223.859 189.123 231.979 197.223 241.996 197.223Z" fill="#023DA7"/>
<path d="M239.176 190.578L228.531 179.96L231.207 177.297L239.176 185.246L252.791 171.664L255.46 174.334L239.176 190.578Z" fill="white"/>
</svg>
