<svg width="25" height="36" viewBox="0 0 25 36" fill="none" xmlns="http://www.w3.org/2000/svg">
<path d="M24.9695 28.8833C24.9983 26.0608 23.7316 24.0569 21.1444 22.9679C19.9002 22.4447 18.5797 22.0993 17.2868 21.6987C16.4519 21.4409 16.4444 21.4609 16.4444 20.6035C16.455 20.4322 16.455 20.2604 16.4444 20.0891C16.4106 19.81 16.5282 19.6472 16.7448 19.4695C17.3456 18.9751 17.9652 18.4857 18.4833 17.9099C19.8502 16.3929 20.829 14.6719 20.8728 12.5603C20.9028 11.0471 20.8878 9.53129 20.8653 8.01803C20.8587 7.53423 20.8029 7.05237 20.6988 6.57986C19.6924 2.03757 15.3604 -0.752393 10.7919 0.178846C6.96051 0.961137 4.25566 4.13911 4.14426 8.05057C4.10046 9.55257 4.12924 11.0546 4.13675 12.5466C4.13639 12.8741 4.16699 13.201 4.22813 13.5229C4.67122 15.7696 5.88283 17.5745 7.63516 18.9551C8.39867 19.5546 8.69907 20.1579 8.55889 21.0566C8.55764 21.072 8.55764 21.0875 8.55889 21.1029C8.60019 21.3658 8.4938 21.4935 8.2272 21.556C7.69649 21.6812 7.17329 21.8377 6.64885 21.9866C4.50474 22.5974 2.39318 23.2621 0.971292 25.2409V25.2334C0.713449 25.7228 0.506924 26.2636 0.29289 26.763C0.250333 26.8631 0.207776 26.9745 0.167723 27.0909C0.135048 27.5433 0.0790655 27.9936 0 28.4402C0.0275366 29.5191 0.026285 30.5981 0.0200266 31.6833C0.0281272 31.7342 0.0323116 31.7857 0.0325433 31.8372V35.9477C7.95475 35.9477 15.8765 35.9477 23.7979 35.9477C24.6365 35.9477 24.9645 35.621 24.9657 34.7861C24.9682 32.8185 24.9494 30.8509 24.9695 28.8833ZM7.43489 4.27304C9.24856 2.18276 11.5591 1.4205 14.2202 2.11392C16.8812 2.80734 18.4145 4.62977 18.9339 7.31459C19.1254 8.31592 19.1104 8.31592 18.1454 8.69142C16.7836 9.22338 15.3917 9.66897 13.911 9.42114C13.2289 9.30724 12.5642 9.04564 11.9083 8.80657C11.0147 8.47363 10.1498 7.96921 9.22227 7.75893C8.3461 7.55992 7.4036 7.64378 6.48988 7.60873C6.38107 7.61579 6.27281 7.62959 6.1657 7.65004C6.13942 7.65004 6.11063 7.63251 6.04054 7.60998C6.13901 6.37778 6.6274 5.20898 7.43489 4.27304ZM6.61755 14.7933C6.1956 14.0053 5.98272 13.1223 5.99923 12.2286C6.0155 11.4952 6.02051 10.7604 5.99923 10.0282C5.98797 9.68775 6.1244 9.5776 6.43481 9.51251C7.50885 9.2724 8.6316 9.3834 9.63782 9.82919C10.0371 10.0044 10.4414 10.1759 10.8244 10.3812C13.135 11.6191 15.5081 11.6328 17.9314 10.7692C18.2668 10.644 18.6035 10.5376 18.9389 10.4212C19.2932 12.8069 18.7862 14.9272 17.1003 16.657C16.4898 17.2799 15.8142 17.8355 15.0851 18.3142C13.4141 19.4132 11.6943 19.4019 9.97702 18.3605C8.54667 17.5077 7.3831 16.2722 6.61755 14.7933ZM23.0845 33.9438C23.0743 33.9871 23.0592 34.0291 23.0394 34.0689H18.2743C18.1851 34.0884 18.094 34.0981 18.0027 34.0977H7.54003C7.49362 34.0978 7.44723 34.0953 7.4011 34.0902C7.35854 34.0902 7.31598 34.0777 7.27593 34.0689H1.95385C1.93616 33.9499 1.92446 33.83 1.9188 33.7097C1.9188 32.025 1.90754 30.339 1.9188 28.653C1.93633 26.5251 3.17798 24.9656 5.30956 24.4224C5.65502 24.2722 6.01425 24.2108 6.41353 24.0957C6.9555 23.9405 7.49748 23.764 8.0407 23.62V23.6138C8.11455 23.5487 8.12456 23.5337 8.13833 23.5287C8.36238 23.4561 8.54136 23.4035 8.69282 23.3572C8.7274 23.3186 8.77016 23.2883 8.81798 23.2683C9.15092 23.1432 9.55021 23.1432 9.8431 22.9479L9.88065 22.9216C9.92035 22.8907 9.95721 22.8564 9.99079 22.819C10.2486 22.5248 10.3438 22.1243 10.4201 21.74C10.4264 21.6449 10.4326 21.5485 10.4376 21.4521C10.3988 21.2168 10.4139 20.9127 10.3713 20.616C11.8095 21.1367 13.1512 21.153 14.5081 20.6548C14.5565 20.8369 14.5792 21.0248 14.5756 21.2131C14.5762 21.2243 14.5762 21.2356 14.5756 21.2469C14.5971 21.6722 14.6863 22.0913 14.8397 22.4885C14.8748 22.5423 14.9111 22.5937 14.9486 22.6462C15.0838 22.7501 15.219 22.854 15.3617 22.9466C15.6295 23.1206 15.9312 23.197 16.2253 23.3221C16.2553 23.3346 16.2835 23.3511 16.3092 23.371L16.567 23.4473C17.2755 23.56 17.9314 23.8553 18.6035 24.1057C18.8626 24.1783 19.1179 24.2584 19.3683 24.356C19.4659 24.3823 19.566 24.4061 19.6662 24.4261C19.7521 24.4418 19.8361 24.467 19.9165 24.5012C21.3221 24.7791 22.754 26.2535 22.9843 27.7318C23.0475 28.1632 23.0789 28.5987 23.0782 29.0347C23.097 30.6644 23.0882 32.3003 23.0845 33.9388V33.9438Z" fill="#B7B4B2"/>
</svg>
