<svg width="64" height="64" viewBox="0 0 64 64" xmlns="http://www.w3.org/2000/svg">
<path d="M57.4891 46.0699L51.5315 43.9014C50.9825 43.7028 50.3768 43.9865 50.1782 44.5355L49.8165 45.5277L42.9158 43.0161C42.7425 42.9516 42.5547 42.9351 42.3725 42.9686L28.0108 45.5044C26.7096 45.7366 25.5916 46.5626 24.9874 47.7385L18.4004 45.3301C17.3479 44.9436 16.1839 44.9952 15.1691 45.473C13.8823 46.0746 12.9825 47.2808 12.772 48.6862C12.5089 50.7211 13.7141 52.6605 15.6556 53.3256L37.3535 61.2231C37.469 61.2659 37.5918 61.2876 37.7151 61.2876C37.8302 61.2876 37.9442 61.2685 38.0531 61.2319L44.1118 59.1862L44.7562 59.4204L44.395 60.4136C44.1964 60.9625 44.4801 61.5688 45.0291 61.7674L50.9877 63.9354C51.1028 63.9782 51.225 64.0004 51.3478 63.9999C51.5021 64.0004 51.6548 63.9663 51.7946 63.9008C52.0485 63.7822 52.2451 63.568 52.341 63.3049L58.1232 47.417C58.3177 46.8701 58.0344 46.2685 57.4891 46.0699ZM44.4858 57.076C44.2604 56.9939 44.0137 56.9913 43.7862 57.0682L37.7286 59.1139L16.3779 51.3423C15.3899 51.0137 14.7599 50.0457 14.8595 49.0092C14.9606 48.3008 15.4136 47.6915 16.0632 47.3907C16.5698 47.1513 17.1518 47.125 17.6776 47.319L24.5365 49.8146C24.539 50.0091 24.5535 50.2031 24.5808 50.3956C24.9957 52.6874 27.1786 54.2171 29.474 53.8245L41.3701 51.7272L41.0022 49.6454L29.1118 51.7432C27.9654 51.946 26.8711 51.1839 26.6637 50.0385C26.6183 49.761 26.6255 49.4777 26.6859 49.2027C26.7008 49.1119 26.7251 49.0232 26.7586 48.9375C27.0176 48.2281 27.6347 47.7096 28.3782 47.5765L42.4582 45.0932L49.0942 47.5078L45.48 57.4402L44.4858 57.076ZM50.7199 61.592L46.7472 60.1463L51.8075 46.2453L55.7792 47.6905L50.7199 61.592Z"/>
<path d="M29.2628 28.5295H31.3761V30.6428H29.2628V28.5295Z"/>
<path d="M33.4895 28.5295H35.6028V30.6428H33.4895V28.5295Z"/>
<path d="M25.0364 28.5295H27.1497V30.6428H25.0364V28.5295Z"/>
<path d="M29.2628 24.3027H31.3761V26.416H29.2628V24.3027Z"/>
<path d="M33.4895 24.3027H35.6028V26.416H33.4895V24.3027Z"/>
<path d="M25.0364 24.3027H27.1497V26.416H25.0364V24.3027Z"/>
<path d="M29.2628 20.0764H31.3761V22.1897H29.2628V20.0764Z"/>
<path d="M33.4895 20.0764H35.6028V22.1897H33.4895V20.0764Z"/>
<path d="M25.0364 20.0764H27.1497V22.1897H25.0364V20.0764Z"/>
<path d="M29.2628 15.8496H31.3761V17.9629H29.2628V15.8496Z"/>
<path d="M33.4895 15.8496H35.6028V17.9629H33.4895V15.8496Z"/>
<path d="M25.0364 15.8496H27.1497V17.9629H25.0364V15.8496Z"/>
<path d="M29.2628 11.623H31.3761V13.7363H29.2628V11.623Z"/>
<path d="M33.4895 11.623H35.6028V13.7363H33.4895V11.623Z"/>
<path d="M25.0364 11.623H27.1497V13.7363H25.0364V11.623Z"/>
<path d="M41.9427 21.1331H46.1693V23.2464H41.9427V21.1331Z"/>
<path d="M41.9427 25.3594H46.1693V27.4727H41.9427V25.3594Z"/>
<path d="M41.9427 29.5859H46.1693V31.6992H41.9427V29.5859Z"/>
<path d="M41.9427 33.8127H46.1693V35.926H41.9427V33.8127Z"/>
<path d="M14.4698 25.3594H18.6964V27.4727H14.4698V25.3594Z"/>
<path d="M14.4698 29.5859H18.6964V31.6992H14.4698V29.5859Z"/>
<path d="M14.4698 33.8127H18.6964V35.926H14.4698V33.8127Z"/>
<path d="M54.6224 41.2092V39.0959H50.3959V17.963C50.3959 17.3795 49.9227 16.9063 49.3392 16.9063H39.8294V8.45317C39.8294 7.86964 39.3563 7.39652 38.7728 7.39652H36.6595V4.22658C36.6595 3.64306 36.1863 3.16994 35.6028 3.16994H31.3762V0H29.2629V3.16994H25.0364C24.4528 3.16994 23.9797 3.64306 23.9797 4.22658V7.39652H21.8664C21.2829 7.39652 20.8098 7.86964 20.8098 8.45317V21.1329H11.3C10.7164 21.1329 10.2433 21.606 10.2433 22.1896V39.0959H6.01672V41.2092H54.6224ZM28.2063 39.0959V34.8693H32.4329V39.0959H28.2063ZM48.2826 19.0196V39.0959H39.8294V19.0196H48.2826ZM26.093 5.28323H34.5462V7.39652H26.093V5.28323ZM22.9231 9.50982H37.7161V39.0959H34.5462V33.8127C34.5462 33.2291 34.0731 32.756 33.4895 32.756H27.1496C26.5661 32.756 26.093 33.2291 26.093 33.8127V39.0959H22.9231V9.50982ZM12.3566 23.2462H20.8098V39.0959H12.3566V23.2462Z"/>
</svg>
