<svg width="60" height="47" viewBox="0 0 60 47" xmlns="http://www.w3.org/2000/svg">
<path d="M30.9464 32.3125H27.4448V34.871H30.9464V32.3125Z" />
<path d="M13.4385 19.4254V18.0987C14.7634 17.625 15.7097 16.3931 15.7097 14.877C15.7097 12.9818 14.1956 11.4657 12.3028 11.4657C11.6403 11.4657 11.1672 10.9919 11.1672 10.3286C11.1672 9.66527 11.6403 9.19148 12.3028 9.19148C12.6814 9.19148 13.1545 9.381 13.5331 9.76003C14.0063 10.2338 14.6687 10.1391 15.1419 9.76003C15.6151 9.28624 15.5205 8.62294 15.1419 8.14915C14.5741 7.5806 14.0063 7.29632 13.4385 7.10681V5.68544C13.4385 5.02213 12.9653 4.54834 12.3028 4.54834C11.6403 4.54834 11.1672 5.02213 11.1672 5.68544V7.01205C9.84224 7.48584 8.89587 8.71769 8.89587 10.2338C8.89587 12.129 10.4101 13.6451 12.3028 13.6451C12.9653 13.6451 13.4385 14.1189 13.4385 14.7822C13.4385 15.4455 12.9653 15.9193 12.3028 15.9193C11.8296 15.9193 11.2618 15.635 10.7886 15.0665C10.4101 14.5927 9.65297 14.4979 9.17978 14.9717C8.7066 15.3508 8.61196 16.1088 9.08514 16.5826C9.65297 17.3407 10.4101 17.8145 11.1672 18.0987V19.4254C11.1672 20.0887 11.6403 20.5625 12.3028 20.5625C12.9653 20.5625 13.4385 19.9939 13.4385 19.4254Z"/>
<path d="M59.6214 27.1956C59.3375 26.9113 59.0536 26.8165 58.6751 26.8165H44.4795L33.9748 16.8669C33.6909 16.6774 33.4069 16.4879 33.123 16.4879H24.4164C24.8896 15.256 25.0789 13.9294 25.0789 12.5081C25.0789 5.59073 19.4006 0 12.4921 0C5.5836 0 0 5.59073 0 12.5081C0 16.7722 2.17666 20.5625 5.39432 22.8367L0.757098 27.1956C0.662461 27.2903 0.567823 27.4798 0.473186 27.6694C0.378549 27.8589 0.378549 28.0484 0.378549 28.1431V40.4617C0.378549 40.6512 0.378549 40.8407 0.473186 40.9355C0.567823 41.125 0.662461 41.2198 0.757098 41.3145C0.851735 41.5988 1.04101 41.6935 1.23028 41.6935C1.41956 41.7883 1.5142 41.7883 1.70347 41.7883H5.86751C6.24606 43.3044 7.09779 44.631 8.32808 45.4839C9.55836 46.4314 11.0726 46.9052 12.5868 46.9052C14.1009 46.9052 15.6151 46.4314 16.8454 45.4839C18.0757 44.5363 18.9274 43.2097 19.306 41.7883H40.5047C40.8833 43.3044 41.735 44.631 42.9653 45.4839C44.1956 46.4314 45.7098 46.9052 47.224 46.9052C48.7382 46.9052 50.2524 46.4314 51.4827 45.4839C52.7129 44.5363 53.5647 43.2097 53.9432 41.7883H58.6751C58.8644 41.7883 59.0536 41.7883 59.1483 41.6935C59.2429 41.5988 59.4322 41.504 59.5268 41.4093C59.6215 41.3145 59.7161 41.125 59.8107 41.0302C59.9054 40.8407 59.9054 40.746 59.9054 40.5564V28.2379C60 27.7641 59.9054 27.4798 59.6214 27.1956ZM27.6341 19.1411H32.6498L40.7886 26.8165H27.6341V19.1411ZM25.0789 19.1411V26.8165H10.8833L12.6814 25.0161C17.1293 25.0161 21.0095 22.6472 23.1861 19.1411H25.0789ZM2.27129 12.5081C2.27129 6.82258 6.90852 2.27419 12.4921 2.27419C18.1703 2.27419 22.7129 6.91734 22.7129 12.5081C22.7129 18.1935 18.0757 22.7419 12.4921 22.7419C6.90852 22.8367 2.27129 18.1935 2.27129 12.5081ZM16.5615 41.6935C16.2776 42.4516 15.7098 43.2097 14.9527 43.6835C14.1956 44.1573 13.4385 44.4415 12.5868 44.4415C11.4511 44.4415 10.3155 43.9677 9.55836 43.2097C8.70662 42.3569 8.32808 41.3145 8.32808 40.1774C8.32808 39.3246 8.61199 38.4718 9.08517 37.8085C9.55836 37.0504 10.2208 36.5766 11.0726 36.1976C11.8297 35.9133 12.776 35.8186 13.5331 35.9133C14.3849 36.1028 15.142 36.4819 15.7098 37.1452C16.2776 37.7137 16.7508 38.5665 16.9401 39.3246C16.9401 40.0827 16.8454 40.9355 16.5615 41.6935ZM51.1041 41.6935C50.8202 42.4516 50.2524 43.2097 49.4953 43.6835C48.7382 44.1573 47.9811 44.4415 47.1293 44.4415C45.9937 44.4415 44.858 43.9677 44.1009 43.2097C43.2492 42.3569 42.8707 41.3145 42.8707 40.1774C42.8707 39.3246 43.1546 38.4718 43.6278 37.8085C44.1009 37.0504 44.7634 36.5766 45.6151 36.1976C46.3722 35.9133 47.3186 35.8186 48.0757 35.9133C48.9274 36.1028 49.6845 36.4819 50.2524 37.1452C50.8202 37.7137 51.2934 38.5665 51.4827 39.3246C51.5773 40.0827 51.4826 40.9355 51.1041 41.6935ZM57.4448 39.2298H53.9432C53.7539 37.5242 52.9022 36.0081 51.6719 34.871C50.4416 33.7339 48.7382 33.1653 47.1293 33.1653C45.4259 33.1653 43.817 33.8286 42.5868 34.871C41.3565 36.0081 40.5047 37.5242 40.3155 39.2298H19.4953C19.306 37.5242 18.4543 36.0081 17.224 34.871C15.8044 33.7339 14.1956 33.1653 12.4921 33.1653C10.7886 33.1653 9.17981 33.8286 7.94953 34.871C6.71924 36.0081 5.86751 37.5242 5.67823 39.2298H3.02839V28.7117L7.85489 24.1633C8.32808 24.3528 8.8959 24.5423 9.46372 24.6371L4.54259 29.375H57.5394V39.2298H57.4448Z"/>
</svg>
