<svg width="58" height="50" viewBox="0 0 58 50" xmlns="http://www.w3.org/2000/svg">
<g id="rent icon">
<path id="Combined Shape" fill-rule="evenodd" clip-rule="evenodd" d="M42.0503 11.5039C42.0503 16.2427 38.195 20.0982 33.456 20.0982C28.7171 20.0982 24.8618 16.2427 24.8618 11.5039C24.8618 6.76538 28.7171 2.90995 33.456 2.90995C38.195 2.90995 42.0503 6.76538 42.0503 11.5039ZM22.9522 11.5039C22.9522 17.2957 27.6643 22.0081 33.456 22.0081C39.2478 22.0081 43.9599 17.2957 43.9599 11.5039C43.9599 5.71202 39.2478 1 33.456 1C27.6643 1 22.9522 5.71202 22.9522 11.5039ZM11.1727 34.2652C11.4876 33.9502 11.9711 33.8935 12.3551 34.1309C12.3654 34.1371 12.3732 34.1413 12.3809 34.1458C12.447 34.1841 12.5028 34.24 14.0466 35.7868C15.2002 36.9428 17.1849 38.9315 20.6259 42.3676C21.0076 42.7493 20.987 43.3575 20.631 43.7135L16.6843 47.6017L7.30169 38.1474L11.1727 34.2652ZM23.1428 27.9282C24.6055 27.9282 26.0195 28.2226 27.3467 28.8031C27.4676 28.8562 27.5978 28.8834 27.7295 28.8834H38.5732C39.6086 28.8834 40.4832 29.7277 40.4832 30.7929C40.4832 31.8463 39.6266 32.703 38.5732 32.703H30.7823C30.2551 32.703 29.8276 33.1305 29.8276 33.6578C29.8276 34.1853 30.2551 34.6126 30.7823 34.6126H38.5732C40.6795 34.6126 42.3928 32.8992 42.3928 30.7929C42.3928 30.6251 42.3808 30.4586 42.3592 30.2938C44.1382 28.4651 45.4185 27.1493 46.3372 26.2052C48.2333 24.2566 48.5893 23.8907 48.6115 23.8643C49.292 23.061 50.5001 22.9592 51.3038 23.6367C52.1082 24.3169 52.2101 25.5243 51.5277 26.332L42.9629 36.571C41.7122 37.7717 40.0702 38.4325 38.3344 38.4325H25.6401C24.3961 38.4325 23.2186 38.9081 22.3254 39.7712L21.5139 40.5544L14.0329 33.0738C15.7814 29.7937 19.0622 27.9282 23.1428 27.9282ZM15.9989 49.622C16.369 49.9952 16.9716 49.9993 17.3466 49.6299L21.9761 45.069C22.7627 44.2825 23.0018 43.118 22.656 42.1057L23.6517 41.1453C24.188 40.6274 24.8938 40.342 25.6401 40.342H38.3344C40.5865 40.342 42.7151 39.4771 44.3289 37.9067C44.3329 37.9028 44.3346 37.9016 44.3362 37.9004C44.3507 37.8894 44.3627 37.8751 45.9236 36.0083C47.1251 34.5713 49.2444 32.0367 52.9892 27.561C54.3484 25.953 54.1451 23.5382 52.5355 22.1774C50.9359 20.8294 48.5398 21.023 47.1768 22.6035L41.5421 28.395C40.8306 27.5193 39.7456 26.9734 38.5732 26.9734H27.9251C26.4098 26.3395 24.802 26.0186 23.1432 26.0186C18.545 26.0186 14.5299 28.1424 12.3752 32.1243C11.4675 31.9522 10.5101 32.2268 9.82132 32.9156L5.27865 37.4717C4.90776 37.8437 4.90699 38.4455 5.27712 38.8186L15.9989 49.622ZM32.3102 6.89371V5.77473C32.3102 5.24719 32.7378 4.81956 33.265 4.81956C33.7922 4.81956 34.2198 5.24719 34.2198 5.77473V6.88702C34.6563 7.03173 35.1414 7.29707 35.6261 7.76606C36.0048 8.13275 36.0148 8.73727 35.648 9.11628C35.2813 9.495 34.6768 9.50513 34.2978 9.13835C33.9604 8.81187 33.6034 8.63908 33.265 8.63908C32.7385 8.63908 32.3102 9.06785 32.3102 9.59425C32.3102 10.1207 32.7385 10.549 33.265 10.549C34.8447 10.549 36.1297 11.8341 36.1297 13.4139C36.1297 14.6585 35.3313 15.72 34.2198 16.1144V17.2334C34.2198 17.7609 33.7922 18.1882 33.265 18.1882C32.7378 18.1882 32.3102 17.7609 32.3102 17.2334V16.1189C31.6741 15.9055 31.0737 15.4824 30.5633 14.8753C30.2237 14.4716 30.276 13.8694 30.6797 13.5298C31.0834 13.1907 31.6856 13.2426 32.0252 13.6462C32.4165 14.1123 32.8572 14.3686 33.265 14.3686C33.7915 14.3686 34.2198 13.9403 34.2198 13.4139C34.2198 12.8874 33.7915 12.459 33.265 12.459C31.6852 12.459 30.4003 11.1736 30.4003 9.59425C30.4003 8.34919 31.1987 7.28771 32.3102 6.89371Z"/>
</g>
</svg>
