<svg width="58" height="50" viewBox="0 0 58 50" xmlns="http://www.w3.org/2000/svg">
<g id="Bonus">
<path id="Fill 1" fill-rule="evenodd" clip-rule="evenodd" d="M26.7293 29.6303V46.9985H13.2943V35.1218L18.8288 29.6303H26.7293ZM21.834 23.8177L11.759 33.8161L7.43851 29.5244L17.5093 19.526L21.834 23.8177ZM17.5189 14.9555L20.0768 12.4166C20.3053 12.7618 20.5492 13.1027 20.8029 13.4313L18.5405 15.6765C18.2109 15.4259 17.8677 15.1838 17.5189 14.9555ZM22.2398 12.0007C20.4768 9.66486 20.105 7.83564 20.5126 7.41389C20.649 7.30726 20.8154 7.25026 20.9891 7.25026C21.0129 7.25026 21.0368 7.25137 21.0608 7.25359L21.0756 7.2541C21.8428 7.2541 23.3143 7.74225 25.1538 9.10869L22.2398 12.0007ZM23.2601 13.8194L27.5844 18.1107L23.2601 22.4023L18.9355 18.1107L23.2601 13.8194ZM24.6863 12.4072L34.7613 2.40568L39.0855 6.69742L29.0104 16.6955L24.6863 12.4072ZM14.1893 19.9903C12.4256 17.654 12.054 15.8254 12.4623 15.4042C12.5987 15.2973 12.7642 15.2402 12.9366 15.2402C12.9606 15.2402 12.9846 15.2413 13.0088 15.2435L13.0237 15.244C13.7922 15.244 15.2648 15.7322 17.1033 17.0986L14.1893 19.9903ZM28.7463 46.9985H33.2354V29.6303H28.7463V46.9985ZM46.018 27.6286L46.0384 27.6024L45.6412 27.6039C44.9355 27.6066 44.2298 27.6099 43.524 27.6136L43.4443 27.614L43.4295 27.6284L42.6042 27.6286C42.6308 27.5351 42.6441 27.4384 42.6441 27.3404V26.4492C43.6994 26.0185 44.406 24.9759 44.406 23.8436C44.406 22.2907 43.1329 21.0274 41.568 21.0274C41.1901 21.0274 40.8825 20.7222 40.8825 20.347C40.8825 19.9717 41.1901 19.6663 41.568 19.6663C41.8283 19.6663 42.1107 19.8055 42.385 20.0689C42.8112 20.4781 43.4939 20.4672 43.9067 20.0442C44.3192 19.6211 44.3081 18.9437 43.8819 18.5341C43.5021 18.1694 43.0858 17.8998 42.6441 17.732V16.8504C42.6441 16.2615 42.1614 15.7822 41.568 15.7822C40.9747 15.7822 40.4921 16.2615 40.4921 16.8504V17.7415C39.4367 18.1719 38.7301 19.2144 38.7301 20.347C38.7301 21.9 40.0032 23.1634 41.568 23.1634C41.9461 23.1634 42.2536 23.4685 42.2536 23.8436C42.2536 24.2188 41.9461 24.524 41.568 24.524C41.2501 24.524 40.897 24.3137 40.5737 23.9317C40.1919 23.4812 39.5117 23.4229 39.0574 23.8016C38.8374 23.9853 38.7026 24.243 38.6778 24.5271C38.653 24.8113 38.7413 25.0881 38.9263 25.3063C39.3779 25.8393 39.9187 26.2363 40.4921 26.4561V27.3404C40.4921 27.4384 40.5055 27.5352 40.532 27.6289C39.3973 27.6345 37.9189 27.6404 36.4057 27.6402C34.8616 26.1763 34.0114 24.2079 34.0114 22.0952C34.0114 17.864 37.4804 14.4216 41.7443 14.4216C46.0081 14.4216 49.477 17.864 49.477 22.0952C49.477 24.202 48.6308 26.1664 47.0935 27.6286H46.018ZM35.2523 46.9985H48.6872V29.6303H35.2523V46.9985ZM49.8891 27.647C51.0278 26.0091 51.629 24.0914 51.629 22.0952C51.629 16.6861 47.1947 12.2856 41.7443 12.2856C36.2937 12.2856 31.8594 16.6861 31.8594 22.0952C31.8594 24.083 32.4566 25.9941 33.5875 27.6286H20.8458L41.2247 7.40459C41.6177 7.01447 41.6177 6.37976 41.2247 5.98974L35.4704 0.278811C35.0726 -0.0942296 34.4483 -0.0929158 34.0482 0.282652L26.5916 7.68212C25.2122 6.63102 23.783 5.85552 22.563 5.49623C21.0652 5.05537 19.8663 5.22577 19.0962 5.98974C18.1213 6.95726 18.1058 8.5509 19.0508 10.5993L15.6919 13.9339C13.6264 12.9965 12.0202 13.012 11.0459 13.9795C10.2764 14.7426 10.1046 15.9318 10.5493 17.4185C10.9115 18.6295 11.6932 20.0479 12.7523 21.4164L5.29544 28.8153C5.1049 29.0044 5 29.2556 5 29.5229C5 29.7901 5.1049 30.0413 5.29544 30.2304L11.0469 35.9402C11.1151 36.0069 11.1925 36.0632 11.2773 36.108V47.9992C11.2773 48.5511 11.7297 49 12.2859 49H49.6959C50.2519 49 50.7043 48.5511 50.7043 47.9992V28.6295C50.7043 28.1458 50.3593 27.7373 49.8891 27.647Z" />
</g>
</svg>
