<svg width="56" height="49" viewBox="0 0 56 49" xmlns="http://www.w3.org/2000/svg">
<path fill-rule="evenodd" clip-rule="evenodd" d="M22.4222 24.8984H10.5639C9.94449 24.8984 9.44238 25.4007 9.44238 26.0199C9.44238 26.6392 9.94449 27.1414 10.5639 27.1414H22.4223C23.0417 27.1414 23.5438 26.6392 23.5438 26.0199C23.5438 25.4007 23.0416 24.8984 22.4222 24.8984Z"/>
<path fill-rule="evenodd" clip-rule="evenodd" d="M23.8465 9.83374C23.6502 9.4682 23.2723 9.2417 22.8574 9.2417H15.0531C14.4341 9.2417 13.9316 9.74403 13.9316 10.3632C13.9316 10.9811 14.4341 11.4847 15.0531 11.4847L20.7625 11.4835L19.1622 13.8845C18.8202 14.3993 18.9592 15.0969 19.4739 15.4399C19.6589 15.5621 19.8732 15.6272 20.0952 15.6272C20.471 15.6272 20.8208 15.441 21.0294 15.1281L23.7904 10.9844C24.0204 10.6402 24.0417 10.1982 23.8465 9.83374Z"/>
<path fill-rule="evenodd" clip-rule="evenodd" d="M49.2873 37.7959H43.7592C43.1398 37.7959 42.6377 38.2981 42.6377 38.9174C42.6377 39.5367 43.1398 40.0389 43.7592 40.0389H49.2873C49.9067 40.0389 50.4088 39.5367 50.4088 38.9174C50.4087 38.2981 49.9067 37.7959 49.2873 37.7959Z"/>
<path fill-rule="evenodd" clip-rule="evenodd" d="M39.2424 37.7959H33.7143C33.0949 37.7959 32.5928 38.2981 32.5928 38.9174C32.5928 39.5367 33.0949 40.0389 33.7143 40.0389H39.2424C39.8618 40.0389 40.3639 39.5367 40.3639 38.9174C40.3638 38.2981 39.8618 37.7959 39.2424 37.7959Z"/>
<mask id="mask0" mask-type="alpha" maskUnits="userSpaceOnUse" x="0" y="0" width="56" height="49">
<path fill-rule="evenodd" clip-rule="evenodd" d="M0.496094 0.112305H55.9371V48.8923H0.496094V0.112305Z" fill="white"/>
</mask>
<g mask="url(#mask0)">
<path fill-rule="evenodd" clip-rule="evenodd" d="M24.2782 43.3245L25.2117 40.0392H29.2285C29.8479 40.0392 30.35 39.537 30.35 38.9177C30.35 38.2984 29.8479 37.7962 29.2285 37.7962H25.8491L27.5253 31.8974C27.5254 31.8969 27.5256 31.8964 27.5257 31.8959L30.9439 19.8547H53.6942V43.3244H24.2782V43.3245ZM30.6663 12.6148L27.4323 24.0107C25.9371 22.9132 24.9924 20.9361 24.9924 18.7328C24.9924 15.3335 27.2593 12.5681 30.0459 12.5681C30.2541 12.5681 30.4612 12.5839 30.6663 12.6148ZM8.21286 30.4682C7.73946 27.676 5.53132 25.4678 2.73911 24.9943V12.4722C5.53132 11.9988 7.73946 9.79065 8.21286 6.99843H32.2603L31.2822 10.4451C30.8756 10.3653 30.4627 10.325 30.046 10.325C26.0227 10.325 22.7496 14.0966 22.7496 18.7326C22.7496 21.964 24.3396 24.8603 26.7934 26.2631L25.6 30.4683H8.21286V30.4682ZM2.73911 30.4682V27.285C4.29219 27.69 5.51742 28.9151 5.92231 30.4682H2.73911ZM2.73911 6.99865H5.92231C5.5173 8.55174 4.29219 9.77685 2.73911 10.1817V6.99865ZM54.8158 17.6119H36.0676L39.0509 7.11235C39.2202 6.51673 38.8737 5.89554 38.2782 5.72622C38.1784 5.69819 38.0753 5.68362 37.9721 5.68362C37.473 5.68362 37.0301 6.01888 36.8933 6.49901L33.7359 17.6119H31.581L36.143 1.54115C36.2248 1.25298 36.1889 0.950014 36.0432 0.688756C35.8974 0.426376 35.6585 0.237888 35.3703 0.156035C35.2705 0.126881 35.1662 0.112305 35.0631 0.112305C34.5651 0.112305 34.1211 0.447568 33.9853 0.927588L32.8974 4.75576H1.6176C0.998204 4.75576 0.496094 5.25798 0.496094 5.87726V31.5898C0.496094 32.2091 0.998204 32.7113 1.6176 32.7113C1.6176 32.7113 12.879 32.7106 20.2525 32.7101L17.2689 43.2111C17.187 43.4993 17.2229 43.8023 17.3687 44.0635C17.5145 44.3248 17.7533 44.5144 18.0416 44.5962C18.1414 44.6243 18.2456 44.6388 18.3488 44.6388C18.8468 44.6388 19.2897 44.3036 19.4266 43.8234L22.5842 32.7099C23.5162 32.7098 24.3249 32.7096 24.9627 32.7095L20.7699 47.4647C20.6017 48.0591 20.9482 48.6804 21.5425 48.8497C21.6423 48.8789 21.7455 48.8923 21.8498 48.8923C22.3477 48.8923 22.7906 48.557 22.9276 48.077L23.6407 45.5675H54.8156C55.435 45.5675 55.9371 45.0653 55.9371 44.446V18.7334C55.9372 18.114 55.4351 17.6119 54.8158 17.6119Z"/>
</g>
<path fill-rule="evenodd" clip-rule="evenodd" d="M45.8324 30.1477C45.4358 30.1477 45.0626 30.0477 44.7355 29.8723C45.0487 29.2531 45.2264 28.5541 45.2264 27.814C45.2263 27.0743 45.0489 26.3758 44.7359 25.7568C45.0628 25.5811 45.4357 25.4804 45.8324 25.4804C47.1192 25.4804 48.166 26.5273 48.166 27.814C48.166 29.1007 47.1193 30.1477 45.8324 30.1477ZM40.6499 30.1477C39.363 30.1477 38.3163 29.1008 38.3163 27.814C38.3163 26.5273 39.3631 25.4804 40.6499 25.4804C41.9366 25.4804 42.9835 26.5273 42.9835 27.814C42.9835 29.1007 41.9368 30.1477 40.6499 30.1477ZM45.8324 23.2373C44.8712 23.2373 43.9789 23.5364 43.2418 24.0449C42.5044 23.5361 41.6116 23.2373 40.6498 23.2373C38.1262 23.2373 36.0732 25.2904 36.0732 27.8138C36.0732 30.3374 38.1263 32.3903 40.6498 32.3903C41.6113 32.3903 42.5041 32.0916 43.2415 31.583C43.9787 32.0915 44.871 32.3903 45.8324 32.3903C48.356 32.3903 50.4089 30.3373 50.4089 27.8138C50.4089 25.2904 48.356 23.2373 45.8324 23.2373Z"/>
</svg>
