<svg width="51" height="51" viewBox="0 0 51 51" xmlns="http://www.w3.org/2000/svg">
<path d="M17.8499 35.7H12.7499C12.2805 35.7 11.8999 36.0805 11.8999 36.55V41.65C11.8999 42.1194 12.2805 42.5 12.7499 42.5H17.8499C18.3193 42.5 18.6999 42.1194 18.6999 41.65V36.55C18.6999 36.0805 18.3193 35.7 17.8499 35.7ZM16.9999 40.8H13.5999V37.4H16.9999V40.8Z"/>
<path d="M46.6761 43.4085C46.4313 42.1414 45.6236 41.054 44.4814 40.453C47.2032 39.481 48.8327 36.6931 48.3442 33.8443C47.8557 30.9955 45.3903 28.9099 42.5 28.9C42.2153 28.902 41.9314 28.9249 41.65 28.968V25.0019L43.174 26.5259C44.21 27.5619 45.89 27.5619 46.926 26.5259C47.9619 25.49 47.9619 23.8099 46.926 22.774L41.65 17.498V6.79995C42.5888 6.79995 43.35 6.03877 43.35 5.09995V3.39995C43.35 2.46113 42.5888 1.69995 41.65 1.69995H33.15C32.2112 1.69995 31.45 2.46113 31.45 3.39995V5.09995C31.45 6.03877 32.2112 6.79995 33.15 6.79995V8.998L27.3029 3.15093C26.3073 2.15525 24.6927 2.15525 23.6971 3.15093L4.07402 22.774C3.03975 23.8107 3.03975 25.4892 4.07402 26.5259C5.12366 27.5291 6.77634 27.5291 7.82598 26.5259L9.35 25.0019V42.8245C8.42446 41.7508 6.92742 41.3673 5.59971 41.8641C4.27158 42.3605 3.39377 43.6322 3.4 45.0499C1.52236 45.0499 0 46.5723 0 48.4499C0 48.9194 0.380591 49.2999 0.85 49.2999H50.15C50.6194 49.2999 51 48.9194 51 48.4499C50.9967 45.934 49.1622 43.7949 46.6761 43.4085ZM46.75 34.8499C46.7463 36.7716 45.4534 38.4517 43.597 38.9476C41.7405 39.4436 39.7819 38.6318 38.8203 36.9683C38.6684 36.7052 38.3878 36.5433 38.0844 36.5433H36.8941L35.4493 35.0981C35.2904 34.9396 35.0745 34.8504 34.85 34.8499H33.15C32.6806 34.8499 32.3 35.2305 32.3 35.7V36.5084H31.7605L30.351 35.099C30.1916 34.9396 29.9754 34.8499 29.75 34.8499H27.2C26.9746 34.8499 26.7584 34.9396 26.599 35.099L25.148 36.5499H23.8V33.15H38.0886C38.3919 33.1495 38.6721 32.9877 38.8236 32.725C39.7873 31.0635 41.7455 30.2551 43.6007 30.7523C45.4555 31.2499 46.7467 32.9296 46.75 34.8499ZM27.2 31.4499H23.8V28.9H27.2V31.4499ZM23.8 38.25H25.5C25.7254 38.25 25.9416 38.1603 26.101 38.0009L27.2 36.9019V40.7999H23.8V38.25ZM37.6229 31.4499H28.9V28.0499C28.9 27.5805 28.5194 27.1999 28.05 27.1999H22.95C22.4806 27.1999 22.1 27.5805 22.1 28.0499V41.6499C22.1 42.1194 22.4806 42.5 22.95 42.5H28.05C28.5194 42.5 28.9 42.1194 28.9 41.6499V36.5499H29.398L30.8075 37.9594C30.9669 38.1188 31.1831 38.2084 31.4085 38.2084H33.15C33.6194 38.2084 34 37.8279 34 37.3584V36.5499H34.498L35.9432 37.9951C36.1026 38.1545 36.3188 38.2441 36.5442 38.2441H37.6183C38.2122 39.0904 39.0157 39.7682 39.95 40.211V40.8219C38.8838 41.618 38.2537 42.8693 38.25 44.2V44.285C36.5844 44.6299 35.2841 45.9336 34.9434 47.5999H14.3736C14.0624 45.7779 12.7915 44.2659 11.05 43.6459V23.7999H39.95V29.4889C39.0178 29.9305 38.216 30.6062 37.6229 31.4499ZM33.15 3.39995H41.65V5.09995H33.15V3.39995ZM34.85 6.79995H39.95V15.798L34.85 10.698V6.79995ZM6.62402 25.324C6.24675 25.6842 5.65325 25.6842 5.27598 25.324C4.90535 24.9509 4.90535 24.349 5.27598 23.9759L24.899 4.35371C25.2311 4.02168 25.7689 4.02168 26.101 4.35371L45.724 23.9759C46.0947 24.349 46.0947 24.9509 45.724 25.324C45.3468 25.6842 44.7533 25.6842 44.376 25.324L27.3029 8.25093C26.3073 7.25525 24.6927 7.25525 23.6971 8.25093L6.62402 25.324ZM24.899 9.45371C25.2311 9.12168 25.7689 9.12168 26.101 9.45371L38.748 22.1H12.252L24.899 9.45371ZM1.92869 47.5999C2.37527 46.8313 3.34065 46.5391 4.13877 46.9309C4.46499 47.0919 4.85803 47.0276 5.11536 46.7703C5.3731 46.513 5.43826 46.1203 5.27764 45.7937C5.16184 45.5629 5.10125 45.3081 5.1 45.0499C5.09751 44.2211 5.69517 43.5122 6.51279 43.3744C7.33001 43.2366 8.1273 43.711 8.39624 44.495C8.51453 44.852 8.85735 45.0852 9.23254 45.0645C9.27239 45.0649 9.31182 45.0603 9.35 45.0499C10.8998 45.0516 12.2528 46.1 12.6421 47.5999H1.92869ZM36.6936 47.5999C37.0427 46.5956 37.9823 45.9161 39.0456 45.8999C39.0747 45.8999 39.1602 45.9128 39.1892 45.9136C39.4586 45.924 39.7172 45.8062 39.8857 45.5957C40.0546 45.3853 40.1135 45.1076 40.0442 44.847C39.9849 44.6362 39.9533 44.4187 39.95 44.2C39.95 42.7917 41.0918 41.6499 42.5 41.6499C43.9082 41.6499 45.05 42.7917 45.05 44.2C45.05 44.6694 45.4306 45.0499 45.9 45.0499C47.4498 45.0516 48.8028 46.1 49.1921 47.5999H36.6936Z"/>
<path d="M43.3503 37.4001C44.7585 37.4001 45.9003 36.2583 45.9003 34.8501C45.9003 33.4418 44.7585 32.3 43.3503 32.3C41.9421 32.3 40.8003 33.4418 40.8003 34.8501C40.8003 36.2583 41.9421 37.4001 43.3503 37.4001ZM43.3503 34.0001C43.8197 34.0001 44.2003 34.3806 44.2003 34.8501C44.2003 35.3195 43.8197 35.7001 43.3503 35.7001C42.8809 35.7001 42.5003 35.3195 42.5003 34.8501C42.5003 34.3806 42.8809 34.0001 43.3503 34.0001Z"/>
</svg>
