<svg width="49" height="35" viewBox="0 0 49 35" xmlns="http://www.w3.org/2000/svg">
<mask id="mask0" mask-type="alpha" maskUnits="userSpaceOnUse" x="0" y="0" width="49" height="35">
<path fill-rule="evenodd" clip-rule="evenodd" d="M0 0.0976562H48.9902V34.3684H0V0.0976562Z"/>
</mask>
<g mask="url(#mask0)">
<path fill-rule="evenodd" clip-rule="evenodd" d="M47.0576 24.2853H47.0478C47.0478 24.3829 46.9892 24.5 46.9892 24.6074C46.9892 24.7441 46.5305 25.4078 44.4221 26.052C42.4211 26.6572 39.7564 26.9891 36.9355 26.9891C31.5279 26.9891 27.8871 25.769 27.1257 24.8222L27.1159 24.0022L27.0769 21.7572C27.7602 22.0989 28.4727 22.3721 29.2048 22.5771C31.3229 23.1921 34.0657 23.524 36.9452 23.524C39.9126 23.524 42.7432 23.1726 44.9199 22.5283C45.6618 22.3233 46.3743 22.0403 47.0576 21.6888V24.2853ZM44.5392 31.4694C42.5675 32.0842 39.9223 32.4258 37.1112 32.4258C34.2902 32.4258 31.6548 32.0941 29.7026 31.4986C27.643 30.8641 27.2135 30.2102 27.2135 30.0638V30.0443L27.1647 27.2136C27.9456 27.5942 28.7558 27.887 29.5952 28.1018C31.645 28.6387 34.2512 28.9413 36.9257 28.9413C39.9418 28.9413 42.8018 28.5801 44.9882 27.9164C45.7008 27.7016 46.3841 27.4186 47.038 27.0867V30.015H47.0478C47.0478 30.1516 46.5988 30.8251 44.5392 31.4694ZM27.0086 19.1997C27.0086 19.1901 27.0086 19.1803 27.0183 19.1608C27.1062 18.8973 27.7992 18.253 29.8197 17.6868C31.7133 17.15 34.1829 16.8571 36.7793 16.8571H36.9452C39.7369 16.8571 42.4699 17.1793 44.4612 17.7844C46.5402 18.4092 47.0283 19.0533 47.038 19.1997V19.2096C47.0283 19.356 46.5402 20.0294 44.3733 20.6738C42.3723 21.2692 39.7369 21.5912 36.955 21.5912C34.261 21.5912 31.7036 21.2789 29.7612 20.7226C27.6625 20.1174 27.0867 19.4438 27.0281 19.2389L27.0086 19.1997ZM25.7201 17.6479H25.6225C24.6855 17.6479 23.7777 17.6088 22.9382 17.5502C22.5673 16.2423 21.9817 15.0124 21.191 13.9192C22.6552 14.1046 24.1291 14.2022 25.6127 14.2022C28.6289 14.2022 31.5084 13.8411 33.7046 13.1773C34.4367 12.9626 35.1394 12.6795 35.813 12.3379V14.8953C31.6255 15.0124 27.3209 15.8909 25.7201 17.6479ZM23.3189 19.522C23.8851 19.561 24.4805 19.5805 25.0857 19.5902L25.1442 23.0457C24.461 23.0359 23.7874 23.0065 23.1432 22.9577C23.2896 22.2062 23.3677 21.4351 23.3677 20.6738C23.3677 20.2931 23.3482 19.9124 23.3189 19.522ZM20.7127 28.0921C21.5034 27.1257 22.1378 26.0423 22.5869 24.8807C23.4165 24.9491 24.2755 24.9979 25.1735 25.0075V25.1833L25.2321 28.4923C23.7191 28.4727 22.2062 28.3361 20.7127 28.0921ZM18.2335 27.8773C14.2608 31.4889 8.10159 31.2057 4.49004 27.2331C0.878486 23.2604 1.16155 17.1011 5.13426 13.4896C6.92052 11.8596 9.26315 10.9616 11.6839 10.9616C12.66 10.9616 13.6263 11.108 14.5633 11.391C17.9504 12.4453 20.498 15.2564 21.2203 18.7216C21.3472 19.3658 21.4155 20.0294 21.4155 20.6835C21.4253 23.4263 20.2637 26.0324 18.2335 27.8773ZM18.2042 3.00642C20.1759 2.40124 22.8114 2.05961 25.6225 2.05961C28.4141 2.05961 31.157 2.40124 33.1384 3.00642C35.2566 3.65064 35.7251 4.31429 35.7251 4.44128C35.7251 4.57794 35.2468 5.25144 33.1287 5.8859C31.1472 6.48132 28.4141 6.82296 25.6225 6.82296C22.9285 6.82296 20.3711 6.51051 18.4287 5.94447C16.3301 5.33919 15.7444 4.67554 15.6956 4.46071C15.6956 4.44128 15.6859 4.44128 15.6859 4.44128C15.6956 4.25582 16.1446 3.63102 18.2042 3.00642ZM35.7349 9.84885C35.7349 9.97565 35.2663 10.6492 33.1482 11.2934C31.1667 11.8889 28.4239 12.2403 25.6323 12.2403C23.2213 12.2403 20.8592 11.9865 18.9851 11.5082C18.9558 11.4985 18.9363 11.4985 18.907 11.4886C17.9797 10.7565 16.9548 10.1709 15.8518 9.761L15.7835 7.00841C16.457 7.35005 17.1598 7.62335 17.8918 7.81857C20.01 8.43351 22.7528 8.76538 25.6323 8.76538C28.6386 8.76538 31.5181 8.40423 33.7143 7.74048C34.4464 7.52574 35.159 7.24258 35.8325 6.89128V9.44865C35.7251 9.58521 35.7349 9.7122 35.7349 9.84885ZM48.9805 19.1021C48.9219 17.7455 47.5944 16.6619 45.0273 15.881C43.0361 15.2857 40.508 14.9245 37.7749 14.866V4.45104C37.7651 4.27535 37.7163 4.10941 37.6285 3.96299C37.3552 2.78192 36.0375 1.82525 33.7046 1.12256C31.5084 0.458714 28.6386 0.0976562 25.6225 0.0976562C22.6161 0.0976562 19.7757 0.458714 17.6185 1.12256C15.8518 1.66917 13.7337 2.68431 13.7337 4.43152C13.7337 4.53889 13.7434 4.64626 13.7629 4.75353L13.8703 9.20463C7.5257 7.99427 1.40558 12.1622 0.20498 18.4971C0.0683267 19.2194 0 19.9417 0 20.6738C0 27.116 5.24163 32.3576 11.6839 32.3576C14.3681 32.3576 16.9645 31.4401 19.0436 29.7416C20.8689 30.1712 23.0163 30.4054 25.2906 30.4248C25.7884 33.1287 31.645 34.3684 37.1014 34.3684C40.1078 34.3684 42.9482 33.9975 45.1054 33.324C46.8721 32.7773 48.9902 31.7524 48.9902 30.0052V19.2877C48.9902 19.2291 48.9902 19.1608 48.9805 19.1021Z" />
</g>
<path fill-rule="evenodd" clip-rule="evenodd" d="M15.2369 22.0601C14.7879 20.4689 13.3335 19.3758 11.6839 19.3758C10.7273 19.3758 9.94643 18.6047 9.94643 17.6481C9.95619 16.6817 10.7273 15.9107 11.6839 15.9107C12.6405 15.9107 13.4213 16.6915 13.4213 17.6481C13.4213 18.185 13.8606 18.6242 14.3974 18.6242C14.9343 18.6242 15.3735 18.185 15.3735 17.6481C15.3735 15.9984 14.2803 14.5441 12.6893 14.095V13.6558C12.6893 13.1189 12.25 12.6797 11.7132 12.6797C11.1763 12.6797 10.7371 13.1189 10.7371 13.6558V14.0755C8.77511 14.6027 7.6038 16.6232 8.13089 18.5851C8.56037 20.1956 10.0148 21.3181 11.6839 21.3181C12.6405 21.3181 13.4213 22.0893 13.4213 23.0459C13.4213 24.0024 12.6502 24.7833 11.6936 24.7833C10.7371 24.7833 9.95619 24.0123 9.95619 23.0556C9.95619 22.5187 9.51695 22.0795 8.98009 22.0795C8.44324 22.0795 8.004 22.5187 8.004 23.0556C8.01376 24.7248 9.12651 26.1791 10.7371 26.6183V27.4675C10.7371 28.0044 11.1763 28.4436 11.7132 28.4436C12.25 28.4436 12.6893 28.0044 12.6893 27.4675V26.6087C14.6512 26.0522 15.7932 24.022 15.2369 22.0601Z" />
</svg>
