<svg width="50" height="49" viewBox="0 0 50 49" xmlns="http://www.w3.org/2000/svg">
<path fill-rule="evenodd" clip-rule="evenodd" d="M24.4996 34.9964C24.1838 34.9964 23.927 34.7397 23.927 34.4239C23.927 34.1081 24.1838 33.8513 24.4996 33.8513C24.8153 33.8513 25.0721 34.1081 25.0721 34.4239C25.0721 34.7397 24.8153 34.9964 24.4996 34.9964ZM24.4996 31.9429C23.1315 31.9429 22.0186 33.0558 22.0186 34.4239C22.0186 35.7919 23.1316 36.9049 24.4996 36.9049C25.8675 36.9049 26.9806 35.7919 26.9806 34.4239C26.9806 33.0558 25.8677 31.9429 24.4996 31.9429Z"/>
<mask id="mask0" mask-type="alpha" maskUnits="userSpaceOnUse" x="0" y="0" width="50" height="49">
<path fill-rule="evenodd" clip-rule="evenodd" d="M0.30957 0H49.308V49H0.30957V0Z"/>
</mask>
<g mask="url(#mask0)">
<path fill-rule="evenodd" clip-rule="evenodd" d="M47.3942 26.2349C47.3942 27.4856 46.3766 28.5031 45.1259 28.5031H44.1404V24.6898C44.1404 22.0846 42.0474 19.9606 39.4548 19.9072L43.6682 15.694H44.5232C46.1063 15.694 47.3942 16.9819 47.3942 18.565V26.2349ZM47.3942 35.7764C47.3942 37.254 46.192 38.456 44.7146 38.456H24.6175C22.4012 38.456 20.5981 36.6529 20.5981 34.4366C20.5981 32.2202 22.4011 30.4171 24.6175 30.4171H35.3048C35.3053 30.4171 35.3059 30.4172 35.3066 30.4172H45.1259C45.9617 30.4172 46.7403 30.1698 47.3942 29.7459V35.7764ZM47.3942 44.2138C47.3942 45.7969 46.1062 47.0848 44.5232 47.0848H43.1816C43.7833 46.2847 44.1404 45.2908 44.1404 44.2149V40.3699H44.7146C45.7141 40.3699 46.6393 40.0481 47.3942 39.5039V44.2138ZM42.2264 44.2148C42.2264 45.7831 40.9622 47.062 39.3996 47.0858H6.81719V21.8188H39.3552C40.9383 21.8188 42.2262 23.1067 42.2262 24.6898V28.5031H38.8791C38.8785 28.5031 38.8778 28.5031 38.8773 28.5031H24.6175C21.3458 28.5031 18.6841 31.1647 18.6841 34.4365C18.6841 37.7082 21.3458 40.3699 24.6175 40.3699H42.2264V44.2148ZM2.22354 44.215V21.2214C2.83632 21.5998 3.55745 21.8188 4.32891 21.8188H4.90313V47.0788C3.40901 46.98 2.22354 45.7336 2.22354 44.215ZM4.32901 15.694H6.16162L5.03329 19.9048H4.32891C3.16794 19.9048 2.22354 18.9603 2.22354 17.7994C2.22363 16.6384 3.16822 15.694 4.32901 15.694ZM11.7779 2.12937L23.6174 5.30174L22.6067 6.31256L16.4214 4.65517C16.1761 4.58942 15.9149 4.62388 15.6952 4.75078C15.4754 4.87768 15.315 5.0867 15.2493 5.33189C15.1119 5.84447 14.7831 6.27294 14.3236 6.53832C13.8639 6.80371 13.3284 6.87414 12.8158 6.73681C12.3054 6.59995 11.7805 6.90295 11.6437 7.41353L8.29657 19.9048H7.01491L11.7779 2.12937ZM10.7407 18.1784L13.2751 8.71978C13.97 8.73098 14.6613 8.55354 15.2804 8.1959C15.8996 7.83845 16.3978 7.33017 16.7367 6.72121L21.0438 7.87529L14.7934 14.1258L10.7407 18.1784ZM25.7944 19.8738H20.8591C21.2475 18.8902 22.2069 18.1923 23.3267 18.1923C24.4466 18.1923 25.4059 18.8902 25.7944 19.8738ZM23.3266 16.2782C21.1418 16.2782 19.3114 17.8209 18.865 19.8738H16.2097L27.3176 8.76591C28.5436 9.4967 30.0869 9.4967 31.313 8.76591L35.3747 12.8276C34.644 14.0536 34.644 15.5971 35.3747 16.8231L32.324 19.8738H27.7881C27.3417 17.8208 25.5114 16.2782 23.3266 16.2782ZM26.143 5.4831C26.1431 5.483 26.1432 5.48281 26.1433 5.48272L29.3154 2.31064L41.8301 14.8254L36.7817 19.8737H35.031L37.3209 17.5836C37.6947 17.2099 37.6947 16.6039 37.3209 16.2302C36.5462 15.4555 36.5462 14.1951 37.3209 13.4203C37.6947 13.0466 37.6947 12.4406 37.3209 12.0668L32.0737 6.81979C31.7 6.44606 31.094 6.44606 30.7202 6.81979C29.9455 7.5946 28.685 7.5946 27.9104 6.81979C27.5366 6.44606 26.9305 6.44606 26.5569 6.81979L13.503 19.8738H11.7522L26.143 5.4831ZM44.5232 13.78H43.4914L29.992 0.280582C29.6183 -0.0931391 29.0122 -0.0931391 28.6386 0.280582L25.1802 3.73901L11.3488 0.032902C10.8383 -0.104049 10.3134 0.199043 10.1767 0.709619L6.67469 13.78H4.32901C2.11271 13.78 0.30957 15.583 0.30957 17.7994C0.30957 17.8525 0.31158 17.9053 0.31359 17.9579C0.311389 17.9842 0.30957 18.0106 0.30957 18.0375V44.215C0.30957 46.8534 2.45619 49 5.09463 49H39.3553C39.3701 49 39.3847 48.999 39.3995 48.9988H44.5231C47.1615 48.9988 49.308 46.8523 49.308 44.2138V18.565C49.3081 15.9264 47.1616 13.78 44.5232 13.78Z"/>
</g>
</svg>
