<svg width="69" height="49" viewBox="0 0 69 49" xmlns="http://www.w3.org/2000/svg">
<path fill-rule="evenodd" clip-rule="evenodd" d="M24.0809 33.1774C24.0809 39.1528 19.2196 44.014 13.2443 44.014C7.26898 44.014 2.40782 39.1528 2.40782 33.1774C2.40782 27.2026 7.26898 22.3413 13.2443 22.3413C19.2196 22.3413 24.0809 27.2026 24.0809 33.1774ZM0 33.1774C0 40.4804 5.94139 46.4222 13.2443 46.4222C20.5473 46.4222 26.4887 40.4804 26.4887 33.1774C26.4887 25.8745 20.5473 19.9331 13.2443 19.9331C5.94139 19.9331 0 25.8745 0 33.1774Z"/>
<path fill-rule="evenodd" clip-rule="evenodd" d="M11.7997 25.9534V27.3643C10.3982 27.8612 9.39147 29.1995 9.39147 30.7695C9.39147 32.7609 11.0117 34.3817 13.0036 34.3817C13.6674 34.3817 14.2075 34.9218 14.2075 35.5855C14.2075 36.2494 13.6674 36.7895 13.0036 36.7895C12.4895 36.7895 11.9338 36.4663 11.4403 35.8787C11.0121 35.3696 10.2529 35.3042 9.7438 35.732C9.23473 36.16 9.16888 36.9193 9.59708 37.4283C10.2406 38.1938 10.9976 38.7274 11.7997 38.9965V40.4017C11.7997 41.0669 12.3388 41.6056 13.0036 41.6056C13.6684 41.6056 14.2075 41.0669 14.2075 40.4017V38.9908C15.609 38.4935 16.6158 37.1551 16.6158 35.5855C16.6158 33.5937 14.9956 31.9735 13.0036 31.9735C12.3398 31.9735 11.7997 31.4333 11.7997 30.7695C11.7997 30.1058 12.3398 29.5651 13.0036 29.5651C13.4304 29.5651 13.8805 29.7829 14.3058 30.1946C14.7838 30.6571 15.546 30.6443 16.0084 30.1669C16.4709 29.6888 16.4582 28.9267 15.9807 28.4643C15.3696 27.8729 14.7579 27.5384 14.2075 27.3559V25.9534C14.2075 25.2882 13.6684 24.749 13.0036 24.749C12.3388 24.749 11.7997 25.2882 11.7997 25.9534Z"/>
<mask id="mask0" mask-type="alpha" maskUnits="userSpaceOnUse" x="0" y="0" width="69" height="49">
<path fill-rule="evenodd" clip-rule="evenodd" d="M0 48.9911H68.5127V0H0V48.9911Z"/>
</mask>
<g mask="url(#mask0)">
<path fill-rule="evenodd" clip-rule="evenodd" d="M31.8093 46.735H65.1596V44.5782H31.8093V46.735ZM31.7857 42.2724H33.9566V34.5634H31.7857V42.2724ZM28.5683 14.8958C28.8034 15.2185 29.2674 15.4237 29.67 15.5592C29.9826 15.6643 30.3589 15.5805 30.7069 15.5805C31.0294 15.5806 31.3521 15.5805 31.7257 15.5805V16.6635H8.28425C8.42136 16.4375 8.50948 16.28 8.60915 16.1302C10.8456 12.7727 13.0768 9.41175 15.335 6.06889C15.4966 5.8296 15.8571 5.57986 16.1261 5.57889C24.0833 5.553 32.0406 5.55801 39.998 5.55926C40.1032 5.55926 40.2084 5.57694 40.4671 5.60005C40.131 5.84352 39.9193 6.00388 39.7006 6.15422C36.185 8.57123 32.6676 10.9855 29.153 13.4039C28.4763 13.8695 28.2135 14.4093 28.5683 14.8958ZM34.0378 17.7791H62.9337V15.6249H34.0378V17.7791ZM42.9472 42.2738H54.0015V25.6287H42.9472V42.2738ZM60.7176 34.2648C60.7741 36.6761 60.7322 39.0897 60.7322 41.5024V42.2863H56.2619V41.5009C56.2619 35.9798 56.2622 30.4585 56.2615 24.9372C56.2614 23.7392 55.9228 23.3925 54.7497 23.3922C50.5508 23.3911 46.3518 23.3908 42.153 23.3925C41.0555 23.3929 40.6879 23.7564 40.6876 24.844C40.6859 30.3652 40.6868 35.8864 40.6868 41.4076V42.2774H36.2165V41.1781C36.2165 38.7886 36.2166 36.3992 36.2163 34.0097C36.2163 32.5789 35.9532 32.3141 34.5197 32.3009C34.3811 32.2996 34.2424 32.3007 34.0464 32.3007V20.0886H62.9098V32.2616C62.7961 32.2783 62.7274 32.3017 62.6614 32.296C61.0753 32.158 60.6793 32.6319 60.7176 34.2648ZM62.9888 42.2985H65.1416V34.5603H62.9888V42.2985ZM48.5106 2.79675C48.8123 2.58947 49.0304 2.45834 49.4145 2.73981C54.1446 6.20712 58.8929 9.64993 63.6357 13.1C63.6913 13.1405 63.7369 13.1945 63.8881 13.3375H33.1952C33.4416 13.1525 33.576 13.0433 33.7186 12.9456C38.6495 9.56292 43.5819 6.18262 48.5106 2.79675ZM67.9289 13.4927C67.796 13.3995 67.6668 13.301 67.5355 13.2055C61.742 8.99107 55.947 4.7786 50.156 0.560704C49.1504 -0.17179 48.9796 -0.186407 47.9481 0.515741C46.7982 1.29849 45.6369 2.06523 44.5055 2.87373C44.0316 3.21269 43.5558 3.35816 42.9682 3.35718C33.8061 3.34159 24.6438 3.34883 15.4818 3.34034C14.8901 3.33978 14.4065 3.43778 14.0473 3.97915C11.1512 8.3446 8.24109 12.7009 5.33241 17.058C5.05484 17.4738 4.87207 17.9538 5.22467 18.3385C5.48805 18.626 5.93239 18.843 6.32299 18.8966C6.97753 18.9865 7.65337 18.9212 8.3913 18.9212V20.8773C9.10611 20.589 9.87981 20.4345 10.6559 20.4146V18.9708H31.748V23.3918H30.9082C27.7967 23.3918 24.6853 23.3919 21.5738 23.3919C22.1611 24.1457 22.7582 24.8779 23.2782 25.6572H31.728V32.2618C31.6141 32.2783 31.5455 32.3017 31.4795 32.296C29.8921 32.1582 29.5143 32.6334 29.5347 34.2648C29.5834 38.1614 29.5504 42.059 29.5504 45.9563V46.7406H15.1152V44.4615C14.3683 44.6118 13.6087 44.6796 12.8458 44.6743V45.8288V46.7201H10.6559V44.468C9.89053 44.3308 9.13228 44.1287 8.39143 43.8718C8.39143 45.0339 8.3913 46.196 8.39143 47.3581C8.39143 48.6865 8.6949 48.9894 10.0258 48.9895C28.6052 48.9897 47.1847 48.9895 65.7642 48.9895C65.9034 48.9895 66.0427 48.9936 66.1816 48.9884C66.9616 48.9592 67.367 48.5541 67.3975 47.775C67.4002 47.7055 67.3982 47.6359 67.3982 47.5663C67.3982 42.9504 67.3995 38.3346 67.3972 33.7187C67.3966 32.6774 67.0187 32.3085 65.9675 32.3012C65.7209 32.2995 65.4742 32.3009 65.2156 32.3009V15.5802C65.9279 15.5802 66.5966 15.5741 67.2652 15.5821C67.8401 15.5891 68.2639 15.3569 68.4487 14.8045C68.6378 14.2394 68.3911 13.8163 67.9289 13.4927Z"/>
<path fill-rule="evenodd" clip-rule="evenodd" d="M50.7126 35.6234C50.1163 35.6298 49.6052 35.1289 49.5987 34.5315C49.5922 33.9348 50.0927 33.4241 50.6905 33.4175C51.2871 33.4109 51.798 33.9116 51.8045 34.5095C51.8111 35.1053 51.3097 35.6168 50.7126 35.6234Z"/>
</g>
</svg>
