<svg width="60" height="60" viewBox="0 0 60 60" xmlns="http://www.w3.org/2000/svg">
<path d="M58.8257 11.329L53.6974 7.70922V2.20022C53.6974 1.65107 53.2521 1.20583 52.703 1.20583H48.7254C48.1763 1.20583 47.731 1.65107 47.731 2.20022V3.49323L43.332 0.393509C42.9882 0.151708 42.5299 0.151708 42.1861 0.393509L26.6923 11.3319C25.8519 11.8956 25.3857 12.873 25.4765 13.8815C25.5673 14.8895 26.2005 15.7678 27.1284 16.1723C28.0562 16.5767 29.1307 16.4432 29.9314 15.8237L31.8207 14.4316V28.0546C31.8207 29.1529 32.7112 30.0433 33.8095 30.0433H51.7086C52.8069 30.0433 53.6974 29.1529 53.6974 28.0546V14.4384L55.5867 15.8305C56.3893 16.4219 57.4477 16.536 58.3586 16.13C59.269 15.7236 59.891 14.8594 59.9871 13.8674C60.0833 12.8749 59.639 11.9072 58.8233 11.3338L58.8257 11.329ZM49.7198 3.19462H51.7086V6.30503L49.7198 4.90229V3.19462ZM37.787 28.0546V22.0882H41.7646V28.0546H37.787ZM51.7086 28.0546H43.7534V21.0938C43.7534 20.5446 43.3082 20.0994 42.759 20.0994H36.7927C36.2435 20.0994 35.7983 20.5446 35.7983 21.0938V28.0546H33.8095V12.9798L42.759 6.4167L51.7086 12.9798V28.0546ZM57.8741 14.0257C57.7561 14.2034 57.5706 14.3253 57.3603 14.3627C57.1506 14.4 56.9345 14.3505 56.7622 14.2248L43.3436 4.38032C42.9935 4.12298 42.5167 4.12298 42.1662 4.38032L28.7481 14.2248C28.5219 14.4078 28.2131 14.4505 27.9455 14.3355C27.6785 14.2199 27.4974 13.966 27.476 13.6756C27.4546 13.3853 27.5959 13.1075 27.8431 12.9536L42.759 2.42309L57.675 12.9526C58.0221 13.1969 58.1105 13.6737 57.8741 14.0257Z"/>
<path d="M44.748 21.0938V25.0713C44.748 25.6205 45.1933 26.0657 45.7424 26.0657H49.72C50.2692 26.0657 50.7144 25.6205 50.7144 25.0713V21.0938C50.7144 20.5446 50.2692 20.0994 49.72 20.0994H45.7424C45.1933 20.0994 44.748 20.5446 44.748 21.0938ZM46.7368 22.0882H48.7256V24.0769H46.7368V22.0882Z"/>
<path d="M38.7812 14.1329C38.7812 16.33 40.5622 18.1105 42.7588 18.1105C44.9554 18.1105 46.7364 16.33 46.7364 14.1329C46.7364 11.9363 44.9554 10.1553 42.7588 10.1553C40.5622 10.1553 38.7812 11.9363 38.7812 14.1329ZM44.7476 14.1329C44.7476 15.2312 43.8571 16.1217 42.7588 16.1217C41.6605 16.1217 40.77 15.2312 40.77 14.1329C40.77 13.0346 41.6605 12.1441 42.7588 12.1441C43.8571 12.1441 44.7476 13.0346 44.7476 14.1329Z"/>
<path d="M6.96078 41.9758C3.11866 41.9807 0.00485545 45.0945 0 48.9366C0 53.2026 5.6163 58.9432 6.25771 59.5836C6.64614 59.9721 7.27541 59.9721 7.66385 59.5836C8.30525 58.9432 13.9216 53.2026 13.9216 48.9366C13.9167 45.0945 10.8029 41.9807 6.96078 41.9758ZM6.96078 57.44C5.11813 55.4313 1.98879 51.4881 1.98879 48.9366C1.98879 46.1908 4.21502 43.9646 6.96078 43.9646C9.70653 43.9646 11.9328 46.1908 11.9328 48.9366C11.9328 51.4881 8.80342 55.4313 6.96078 57.44Z"/>
<path d="M6.96073 45.9536C5.31327 45.9536 3.97754 47.2894 3.97754 48.9368C3.97754 50.5848 5.31327 51.92 6.96073 51.92C8.60818 51.92 9.94392 50.5848 9.94392 48.9368C9.94392 47.2894 8.60818 45.9536 6.96073 45.9536ZM6.96073 49.9312C6.41158 49.9312 5.96633 49.486 5.96633 48.9368C5.96633 48.3877 6.41158 47.9424 6.96073 47.9424C7.50988 47.9424 7.95512 48.3877 7.95512 48.9368C7.95512 49.486 7.50988 49.9312 6.96073 49.9312Z"/>
<path d="M16.338 24.0767V22.0879H14.9207C14.7056 22.0879 14.491 22.0952 14.2773 22.1097L14.4216 24.0985C14.5837 24.0879 14.7527 24.082 14.9187 24.082L16.338 24.0767Z"/>
<path d="M14.916 57.8865H16.9048V59.8753H14.916V57.8865Z"/>
<path d="M16.3359 37.9983H18.3247V39.9871H16.3359V37.9983Z"/>
<path d="M12.0898 39.5318C12.7983 39.7664 13.5329 39.912 14.2772 39.9645L14.4175 37.9805C13.8383 37.9397 13.2663 37.8266 12.7152 37.6445L12.0898 39.5318Z"/>
<path d="M18.3271 22.0879H20.316V24.0767H18.3271V22.0879Z"/>
<path d="M18.8936 57.8865H20.8823V59.8753H18.8936V57.8865Z"/>
<path d="M8.16971 29.3134L6.24258 28.823C6.05905 29.5469 5.96631 30.2908 5.96631 31.0376H7.9551C7.95461 30.4564 8.02647 29.8771 8.16971 29.3134Z"/>
<path d="M11.1518 36.8948C10.6633 36.5792 10.2157 36.2049 9.81847 35.78L8.36572 37.1376C8.87457 37.6824 9.44897 38.1626 10.0758 38.5666L11.1518 36.8948Z"/>
<path d="M12.7166 24.4308L12.0912 22.5415C11.3818 22.777 10.7054 23.1013 10.0771 23.5063L11.1551 25.1775C11.6421 24.8639 12.1669 24.6133 12.7166 24.4308Z"/>
<path d="M6.24072 33.2523C6.42717 33.9748 6.70248 34.6711 7.06032 35.3256L8.80537 34.373C8.52667 33.8632 8.31303 33.3203 8.16882 32.7571L6.24072 33.2523Z"/>
<path d="M9.82135 26.2951L8.36666 24.938C7.85684 25.4842 7.4179 26.0921 7.06006 26.7476L8.8051 27.7012C9.08381 27.1919 9.42514 26.7199 9.82135 26.2951Z"/>
<path d="M10.9385 57.8865H12.9273V59.8753H10.9385V57.8865Z"/>
<path d="M38.8657 42.3431C39.3071 42.7461 39.7072 43.1923 40.0592 43.6754L41.6649 42.5062C41.2356 41.9177 40.7482 41.3735 40.2102 40.8821L38.8657 42.3431Z"/>
<path d="M32.2466 37.9983V39.9871H32.8152C33.2415 39.9866 33.6673 40.0172 34.0888 40.0779L34.3704 38.108C33.8552 38.0347 33.3357 37.9983 32.8152 37.9983H32.2466Z"/>
<path d="M37.8657 56.3272L38.9902 57.9659C39.5913 57.5532 40.1502 57.0827 40.6591 56.5608L39.233 55.1687C38.8164 55.5989 38.3581 55.9868 37.8657 56.3272Z"/>
<path d="M34.5923 57.7097L34.9899 59.6596C35.7056 59.515 36.4053 59.2989 37.0783 59.0144L36.2956 57.1824C35.7469 57.4154 35.1764 57.5917 34.5923 57.7097Z"/>
<path d="M36.4948 38.6309L35.8281 40.5051C36.3904 40.7046 36.9303 40.961 37.4401 41.2698L38.4705 39.5684C37.8451 39.1902 37.1833 38.8761 36.4948 38.6309Z"/>
<path d="M43.4722 46.46C43.3071 45.7482 43.0706 45.0549 42.7662 44.3906L40.9575 45.2199C41.2066 45.7623 41.3999 46.3289 41.5343 46.9101L43.4722 46.46Z"/>
<path d="M41.7644 48.6832V48.9367C41.7644 49.4485 41.7212 49.9593 41.6343 50.4633L43.594 50.8012C43.6998 50.1855 43.7532 49.5616 43.7532 48.9367V48.6216L41.7644 48.6832Z"/>
<path d="M40.3442 53.7757L42.017 54.8517C42.4117 54.2375 42.7448 53.5863 43.0114 52.9066L41.159 52.1846C40.94 52.7405 40.6676 53.2732 40.3442 53.7757Z"/>
<path d="M26.8486 57.8865H28.8374V59.8753H26.8486V57.8865Z"/>
<path d="M22.8711 57.8865H24.8599V59.8753H22.8711V57.8865Z"/>
<path d="M30.8262 57.8865H32.8149V59.8753H30.8262V57.8865Z"/>
<path d="M24.2915 37.9983H26.2803V39.9871H24.2915V37.9983Z"/>
<path d="M22.3042 22.0879H24.293V24.0767H22.3042V22.0879Z"/>
<path d="M28.269 37.9983H30.2578V39.9871H28.269V37.9983Z"/>
<path d="M20.3135 37.9983H22.3023V39.9871H20.3135V37.9983Z"/>
<path d="M26.2822 22.0879H28.271V24.0767H26.2822V22.0879Z"/>
</svg>
