<svg width="50" height="49" viewBox="0 0 50 49" xmlns="http://www.w3.org/2000/svg">
<mask id="mask0" mask-type="alpha" maskUnits="userSpaceOnUse" x="0" y="0" width="50" height="49">
<path fill-rule="evenodd" clip-rule="evenodd" d="M0.30957 0H49.3096V48.9999H0.30957V0Z"/>
</mask>
<g mask="url(#mask0)">
<path fill-rule="evenodd" clip-rule="evenodd" d="M42.3232 27.9452C39.4291 27.9452 37.251 26.7841 37.251 26.0312C37.251 25.2783 39.4291 24.1171 42.3232 24.1171C45.2174 24.1171 47.3955 25.2783 47.3955 26.0312C47.3955 26.7841 45.2174 27.9452 42.3232 27.9452ZM47.3955 29.8593C47.3955 30.6122 45.2174 31.7734 42.3232 31.7734C39.4291 31.7734 37.251 30.6122 37.251 29.8593V28.6885C38.5953 29.4443 40.4759 29.8593 42.3232 29.8593C44.1706 29.8593 46.0512 29.4443 47.3955 28.6885V29.8593ZM47.3955 33.6874C47.3955 34.4403 45.2174 35.6015 42.3232 35.6015C39.4291 35.6015 37.251 34.4403 37.251 33.6874V32.5166C38.5953 33.2725 40.4759 33.6874 42.3232 33.6874C44.1706 33.6874 46.0512 33.2725 47.3955 32.5166V33.6874ZM47.3955 37.5156C47.3955 38.2685 45.2174 39.4296 42.3232 39.4296C39.4291 39.4296 37.251 38.2685 37.251 37.5156V36.3447C38.5953 37.1006 40.4759 37.5156 42.3232 37.5156C44.1706 37.5156 46.0512 37.1006 47.3955 36.3447V37.5156ZM47.3955 41.3437C47.3955 42.0966 45.2174 43.2577 42.3232 43.2577C39.4291 43.2577 37.251 42.0966 37.251 41.3437V40.1728C38.5953 40.9288 40.4759 41.3437 42.3232 41.3437C44.1706 41.3437 46.0512 40.9288 47.3955 40.1728V41.3437ZM47.3955 45.1718C47.3955 45.9247 45.2174 47.0859 42.3232 47.0859C39.4291 47.0859 37.251 45.9247 37.251 45.1718V44.001C38.5953 44.7569 40.4759 45.1718 42.3232 45.1718C44.1706 45.1718 46.0512 44.7569 47.3955 44.001V45.1718ZM30.2646 35.6015C27.3705 35.6015 25.1924 34.4403 25.1924 33.6874C25.1924 33.3937 25.5875 32.99 26.1999 32.6586C27.2221 32.1043 28.7416 31.7734 30.2646 31.7734C30.7557 31.7734 31.2491 31.8071 31.7306 31.8734C34.0527 32.195 35.3369 33.1502 35.3369 33.6874C35.3369 34.4403 33.1588 35.6015 30.2646 35.6015ZM35.3369 37.5156C35.3369 38.2685 33.1588 39.4296 30.2646 39.4296C27.3705 39.4296 25.1924 38.2685 25.1924 37.5156V36.3447C26.5367 37.1006 28.4173 37.5156 30.2646 37.5156C32.112 37.5156 33.9926 37.1006 35.3369 36.3447V37.5156ZM35.3369 41.3437C35.3369 42.0966 33.1588 43.2577 30.2646 43.2577C27.3705 43.2577 25.1924 42.0966 25.1924 41.3437V40.1728C26.5367 40.9288 28.4173 41.3437 30.2646 41.3437C32.112 41.3437 33.9926 40.9288 35.3369 40.1728V41.3437ZM35.3369 45.1718C35.3369 45.9247 33.1588 47.0859 30.2646 47.0859C29.8227 47.0859 29.383 47.0591 28.9564 47.0061C26.6243 46.7193 25.1924 45.7445 25.1924 45.1718V44.001C26.5367 44.7569 28.4173 45.1718 30.2646 45.1718C32.112 45.1718 33.9926 44.7569 35.3369 44.001V45.1718ZM23.2783 33.6874V34.3159C21.6337 36.3531 19.2098 37.5156 16.5791 37.5156C11.8297 37.5156 7.96582 33.6516 7.96582 28.9023C7.96582 24.1529 11.8297 20.289 16.5791 20.289C21.3285 20.289 25.1924 24.1529 25.1924 28.9023C25.1924 29.6923 25.0853 30.471 24.8756 31.2216C23.8422 31.8945 23.2783 32.7576 23.2783 33.6874ZM7.00879 47.0859C4.37025 47.0859 2.22363 44.9392 2.22363 42.3007V28.9023C2.22363 23.2152 5.44663 17.8063 10.2437 15.4425C10.8891 15.1244 11.3684 14.597 11.6126 13.9726H21.5456C21.7898 14.597 22.2692 15.1245 22.9148 15.4427C27.6367 17.7684 30.9346 23.3032 30.9346 28.9023V29.8788C30.7114 29.8671 30.4878 29.8593 30.2646 29.8593C29.1301 29.8593 28.0111 30.0123 27.0134 30.2931C27.0741 29.8339 27.1064 29.3697 27.1064 28.9023C27.1064 23.0975 22.3839 18.3749 16.5791 18.3749C10.7743 18.3749 6.05176 23.0975 6.05176 28.9023C6.05176 34.7071 10.7743 39.4296 16.5791 39.4296C19.0731 39.4296 21.4149 38.5749 23.2783 37.0296V45.1718C23.2783 45.9141 23.6154 46.5536 24.1687 47.0859H7.00879ZM21.3643 10.8144V12.0585H11.7939V10.8144C11.7939 10.2867 12.2233 9.85735 12.751 9.85735H20.4044C20.405 9.85735 20.4057 9.85745 20.4064 9.85745C20.4069 9.85745 20.4074 9.85735 20.408 9.85735C20.9353 9.85773 21.3643 10.2869 21.3643 10.8144ZM10.2991 3.25297L12.751 2.02692L16.1511 3.72699C16.4205 3.86164 16.7377 3.86164 17.0071 3.72699L20.4072 2.02692L22.8592 3.25297L19.8812 7.94329H13.277L10.2991 3.25297ZM42.3232 22.2031C38.8891 22.2031 35.3369 23.635 35.3369 26.0312V31.0337C34.6542 30.6439 33.8128 30.3324 32.8486 30.127V28.9023C32.8486 25.7752 31.9797 22.6711 30.336 19.9259C28.6908 17.1781 26.417 15.034 23.7609 13.7258C23.4632 13.5791 23.2783 13.307 23.2783 13.0156V11.6751C25.4599 11.2305 27.1064 9.2972 27.1064 6.98626C27.1064 6.45769 26.678 6.02922 26.1494 6.02922C25.6208 6.02922 25.1924 6.45769 25.1924 6.98626C25.1924 8.30839 24.2937 9.4241 23.0753 9.75619C22.8419 9.16992 22.4214 8.67781 21.887 8.3551L25.0432 3.38409C25.1884 3.15545 25.2299 2.87609 25.1575 2.61521C25.085 2.35432 24.9055 2.13631 24.6632 2.01515L20.8351 0.101086C20.5657 -0.0335679 20.2486 -0.0335679 19.9791 0.101086L16.5791 1.80106L13.179 0.100991C12.9096 -0.0336636 12.5924 -0.0336636 12.323 0.100991L8.49487 2.01505C8.25264 2.13621 8.0731 2.35413 8.00066 2.61511C7.92821 2.87609 7.96974 3.15545 8.11493 3.38399L11.2711 8.355C10.7368 8.67771 10.3162 9.16982 10.0828 9.7561C8.86447 9.4241 7.96582 8.30839 7.96582 6.98626C7.96582 6.45769 7.53736 6.02922 7.00879 6.02922C6.48022 6.02922 6.05176 6.45769 6.05176 6.98626C6.05176 9.2971 7.69833 11.2305 9.87988 11.6751V13.0156C9.87988 13.3069 9.69498 13.5791 9.39754 13.7257C6.74101 15.0346 4.4673 17.1787 2.82216 19.9262C1.17846 22.6713 0.30957 25.7753 0.30957 28.9023V42.3007C0.30957 45.9947 3.31484 48.9999 7.00879 48.9999H28.8291C28.9361 48.9999 29.0386 48.9817 29.1347 48.9492C29.5069 48.9826 29.8853 48.9999 30.2646 48.9999C32.6089 48.9999 35.0071 48.3323 36.2939 47.1465C37.5808 48.3323 39.979 48.9999 42.3232 48.9999C45.7574 48.9999 49.3096 47.5681 49.3096 45.1718V26.0312C49.3096 23.635 45.7574 22.2031 42.3232 22.2031Z"/>
</g>
<path fill-rule="evenodd" clip-rule="evenodd" d="M17.6723 28.0061C17.2645 27.8946 16.8295 27.8869 16.4102 27.813C15.766 27.6997 15.3105 27.1877 15.3174 26.6069C15.3243 26.0326 15.8021 25.5232 16.4352 25.415C17.3813 25.2533 18.0067 25.7077 18.2264 26.7166C18.3441 27.2575 18.6903 27.5322 19.1854 27.4778C19.6699 27.4243 19.9609 27.0584 19.9486 26.3228C19.8578 25.2356 19.1893 24.3684 18.0414 23.8678C17.7958 23.7608 17.6396 23.6668 17.5781 23.3719C17.49 22.9497 17.1729 22.7297 16.7367 22.7344C16.3196 22.739 16.0051 22.9547 15.9336 23.3586C15.8757 23.6853 15.6875 23.7672 15.4365 23.8798C14.3127 24.3843 13.6101 25.2255 13.5572 26.4964C13.5043 27.7675 14.1065 28.7069 15.2262 29.2331C15.7687 29.4882 16.4067 29.5511 17.0087 29.6611C17.6984 29.7874 18.1906 30.2777 18.1835 30.8927C18.1764 31.5006 17.6608 31.9993 16.9742 32.0904C16.2447 32.1873 15.375 31.8009 15.2741 30.819C15.2139 30.2339 14.8272 29.9626 14.3112 30.0182C13.8185 30.0712 13.516 30.4549 13.5563 31.0306C13.6481 32.3387 14.3845 33.1639 15.5389 33.679C15.6882 33.7456 15.8412 33.8922 15.9078 34.0403C16.0768 34.4158 16.3307 34.6503 16.7435 34.6533C17.1556 34.6562 17.4162 34.4306 17.5853 34.0521C17.652 33.9025 17.7974 33.7424 17.9452 33.6827C19.2173 33.1677 20.0049 32.0445 19.951 30.7816C19.8948 29.4615 19.0197 28.3744 17.6723 28.0061Z"/>
</svg>
