<svg width="58" height="50" viewBox="0 0 58 50" xmlns="http://www.w3.org/2000/svg">
<g id="Saving icon">
<g id="Combined Shape">
<path fill-rule="evenodd" clip-rule="evenodd" d="M28.5999 36.1161C28.5157 42.45 33.6914 47.7129 40.0956 47.8052C46.4731 47.8972 51.7412 42.6953 51.8095 36.2384C51.8764 29.9151 46.6633 24.6576 40.2658 24.5964C33.9194 24.5357 28.6852 29.7043 28.5999 36.1161ZM27.0754 47.7839H30.1129C30.1089 47.5322 30.1171 47.2793 30.1254 47.0275C30.1614 45.9263 30.1968 44.8457 29.2011 43.9821C29.1904 43.9728 29.1799 43.9637 29.1695 43.9546C28.9472 43.7612 28.781 43.6166 28.458 43.617C22.6176 43.6249 16.7772 43.6239 10.9369 43.6228C9.77052 43.6226 8.60418 43.6224 7.43784 43.6223H6.94526V47.797H9.94881V45.7642C9.94881 45.3128 10.1186 44.9533 10.5489 44.7738C11.1836 44.509 11.823 44.9631 11.8472 45.7088C11.8628 46.1886 11.859 46.6691 11.8553 47.1459C11.8536 47.355 11.852 47.5633 11.852 47.7707H17.5593C17.5593 47.5596 17.5589 47.3519 17.5586 47.1466C17.5578 46.6682 17.557 46.2027 17.5607 45.7373C17.5643 45.2858 17.7481 44.9319 18.1854 44.7653C18.8316 44.5191 19.4388 44.9758 19.4596 45.7335C19.4723 46.2019 19.4692 46.6707 19.4661 47.1437C19.4647 47.3539 19.4634 47.565 19.4634 47.7773H25.1733C25.1733 47.5582 25.1715 47.3419 25.1698 47.1278C25.1659 46.6479 25.1622 46.1782 25.1782 45.7091C25.2031 44.9782 25.7967 44.5364 26.4321 44.7608C26.8966 44.9248 27.0744 45.2946 27.0751 45.7656C27.0759 46.2404 27.0757 46.7152 27.0755 47.1883C27.0755 47.3872 27.0754 47.5857 27.0754 47.7839ZM6.93701 31.4712V35.5918H9.92405C9.92834 35.5659 9.93235 35.5454 9.9357 35.5282C9.94137 35.4991 9.94517 35.4796 9.9453 35.4601C9.94611 35.2686 9.94629 35.077 9.94647 34.8855C9.9468 34.5383 9.94712 34.1912 9.95118 33.844C9.95923 33.1546 10.3325 32.7069 10.8949 32.7017C11.4559 32.6965 11.846 33.1493 11.8539 33.83C11.8586 34.2326 11.8575 34.6353 11.8564 35.0473C11.8559 35.2315 11.8554 35.4175 11.8554 35.6062H17.5613C17.5613 35.4179 17.5609 35.2319 17.5604 35.0475C17.5593 34.6385 17.5582 34.2372 17.5626 33.8359C17.5701 33.1503 17.9521 32.7005 18.5141 32.7017C19.0762 32.7028 19.4553 33.1516 19.4626 33.8389C19.467 34.2417 19.466 34.6445 19.4649 35.0529C19.4645 35.2343 19.464 35.4168 19.464 35.6009H25.1731C25.1731 35.4057 25.1725 35.2132 25.172 35.0225C25.1709 34.5837 25.1697 34.1548 25.1749 33.726C25.1802 33.2946 25.359 32.9532 25.7709 32.7828C26.1836 32.612 26.5443 32.7205 26.8469 33.0431C26.8801 33.0784 26.9183 33.1089 26.9597 33.1419C26.9798 33.158 27.0007 33.1747 27.0222 33.1928L27.5287 31.4712H6.93701ZM16.1836 14.3369L13.9467 10.9644L11.6957 14.3468C12.5731 14.5437 12.625 15.1754 12.6229 15.8822C12.6128 19.1493 12.6133 22.4165 12.6138 25.6837C12.614 26.7608 12.6142 27.838 12.614 28.9151V29.5103H15.2776C15.2741 27.6861 15.2766 20.0489 15.2776 17.0494C15.2778 16.6504 15.2779 16.3334 15.2779 16.1232C15.2779 16.0671 15.2778 16.0111 15.2778 15.955C15.2775 15.8367 15.2773 15.7183 15.278 15.5999C15.2827 14.8618 15.4501 14.6178 16.1836 14.3369ZM22.318 39.9596C22.3179 39.9908 22.3179 40.022 22.3181 40.0531C22.3204 40.4463 22.3199 40.8396 22.3195 41.2351C22.3194 41.3907 22.3192 41.5466 22.3192 41.703H27.7539L26.6517 37.5678H9.78355V41.6872H12.8042C12.8042 41.5965 12.8042 41.509 12.8041 41.4237C12.804 41.243 12.8039 41.0723 12.8043 40.9016C12.8047 40.7723 12.8033 40.6428 12.8018 40.5134C12.7985 40.2144 12.7951 39.9153 12.8142 39.6177C12.8496 39.0652 13.2648 38.6763 13.766 38.6826C14.2496 38.6889 14.6464 39.0667 14.6993 39.5893C14.7145 39.7386 14.7126 39.8897 14.7106 40.0407C14.7099 40.0963 14.7092 40.1517 14.7093 40.2071C14.71 40.5648 14.7099 40.9225 14.7097 41.2751C14.7097 41.415 14.7096 41.5542 14.7096 41.6922H20.4154C20.4154 41.6043 20.4153 41.5191 20.4152 41.4357C20.415 41.2562 20.4148 41.0853 20.4156 40.9144C20.4162 40.7828 20.4148 40.6511 20.4135 40.5194C20.4103 40.2067 20.407 39.894 20.4298 39.5832C20.4669 39.074 20.8464 38.7142 21.3168 38.6843C21.7776 38.655 22.2032 38.9952 22.2906 39.4846C22.3184 39.6395 22.3182 39.8002 22.318 39.9596ZM25.5278 24.5967C25.3291 24.5995 25.1304 24.6023 24.9329 24.5885C24.2151 24.5384 23.7857 23.9197 24.0387 23.2975C24.2152 22.8635 24.5763 22.6955 25.025 22.6929C25.4043 22.6906 25.7835 22.6911 26.1974 22.6916C26.3887 22.6919 26.5874 22.6921 26.7969 22.6921C25.0629 21.5041 23.0926 21.8567 21.2822 23.5995C23.0743 25.4359 25.5553 25.8995 26.6074 24.5945C26.5199 24.5945 26.4336 24.5945 26.3482 24.5946C26.1587 24.5946 25.9734 24.5947 25.7881 24.5944C25.7014 24.5942 25.6146 24.5954 25.5278 24.5967ZM26.738 10.3306C26.2756 9.87436 25.8143 9.41686 25.3655 8.94728C25.0952 8.66443 24.938 8.28697 25.1509 7.9515C25.3176 7.68876 25.6357 7.41157 25.9218 7.36701C26.1904 7.32523 26.5608 7.5169 26.7882 7.71733C27.1336 8.02177 27.4482 8.36105 27.7905 8.73026C27.9375 8.88875 28.0896 9.05276 28.2514 9.22189C27.8468 4.96549 25.2007 2.98239 20.5495 2.92534C19.9762 7.25725 23.3631 11.2769 27.1633 10.6628C27.1032 10.6164 27.0479 10.576 26.9967 10.5386C26.8963 10.4652 26.8117 10.4034 26.738 10.3306ZM34.6302 9.25387C32.3683 10.3667 31.2306 12.2992 30.6965 14.6602C30.5914 15.1251 30.5242 15.5987 30.4571 16.0722C30.4263 16.2888 30.3956 16.5054 30.3613 16.7212C31.1792 16.0446 31.8978 15.3362 32.6122 14.6318C32.7082 14.5372 32.8041 14.4426 32.9002 14.3482C33.4026 13.8546 33.9644 13.824 34.3703 14.2445C34.7539 14.642 34.715 15.2041 34.253 15.6805C33.8008 16.147 33.3399 16.6054 32.8739 17.0584C32.6113 17.3136 32.3425 17.5624 32.0736 17.8112C31.9553 17.9207 31.8369 18.0302 31.7191 18.1402L31.8275 18.3423C32.1551 18.28 32.4848 18.2249 32.8145 18.1698C33.5427 18.048 34.2709 17.9263 34.9773 17.7275C37.0528 17.1432 38.6746 15.9521 39.5728 13.922C40.3907 12.0734 40.6216 10.1229 40.5642 8.03155C40.3612 8.04335 40.1624 8.05289 39.9666 8.06228C39.5445 8.08251 39.1365 8.10208 38.7306 8.14224C37.3032 8.28326 35.926 8.61625 34.6302 9.25387ZM40.489 22.7115C44.4666 22.7986 47.7729 24.4112 50.4215 27.3849C54.4476 31.9053 54.7946 39.1659 51.2327 43.9887C49.7691 45.9704 47.965 47.5149 45.7144 48.5201C43.4819 49.5172 41.145 49.8876 38.7113 49.6178C36.2695 49.3473 34.0683 48.4539 32.0241 46.952C32.0241 47.1468 32.0248 47.3322 32.0255 47.5113C32.027 47.8922 32.0283 48.2442 32.0224 48.5961C32.0099 49.3393 31.6483 49.7085 30.9022 49.7088C22.6417 49.7123 14.3811 49.7124 6.12041 49.7087C5.37644 49.7084 5.00837 49.3372 5.00548 48.5921C4.99816 46.6737 4.99816 44.7551 5.00558 42.8366C5.00847 42.0906 5.37458 41.7326 6.12134 41.7213C6.5023 41.7155 6.88336 41.7169 7.27636 41.7183C7.45483 41.719 7.63575 41.7196 7.82025 41.7196V37.5334C7.65204 37.5334 7.48358 37.5337 7.31495 37.5341C6.93617 37.5349 6.55651 37.5357 6.17684 37.5324C5.3653 37.5253 5.00692 37.1778 5.00466 36.3751C4.99929 34.4884 4.99981 32.6016 5.00445 30.7148C5.00651 29.889 5.36292 29.545 6.2082 29.5427C7.14196 29.5401 8.07572 29.5407 9.00944 29.5412C9.40754 29.5415 9.80563 29.5417 10.2037 29.5417H10.6882V16.2751C10.6047 16.2751 10.5226 16.2768 10.4414 16.2784C10.2677 16.282 10.0987 16.2854 9.93106 16.2721C9.10178 16.2064 8.68832 15.4662 9.13778 14.7775C10.4625 12.7474 11.8071 10.7301 13.1663 8.72302C13.5671 8.1311 14.3271 8.13347 14.7285 8.72653C16.0872 10.734 17.4319 12.7513 18.7566 14.7814C19.1948 15.4528 18.801 16.1898 18.0035 16.2678C17.8356 16.2842 17.6657 16.2803 17.4761 16.276C17.3831 16.2738 17.2853 16.2716 17.1807 16.2716V16.8132C17.1807 17.1526 17.1809 17.8523 17.1812 18.7596C17.1822 22.0308 17.184 28.0004 17.1785 29.5103H28.3814V25.864C28.2542 25.937 28.1294 26.0092 28.006 26.0805C27.7437 26.2322 27.4879 26.3802 27.2295 26.5234C25.3602 27.5593 23.4933 27.4504 21.7329 26.3335C20.9755 25.853 20.3066 25.2246 19.6441 24.6021C19.5333 24.4981 19.4227 24.3942 19.3119 24.2912C18.8842 23.8934 18.8599 23.41 19.2071 23.0066C20.5029 21.5015 22.0515 20.3949 24.0722 20.1024C25.4271 19.9062 26.6351 20.3435 27.7769 21.0237C27.9008 21.0975 28.0214 21.1768 28.1581 21.2666C28.2261 21.3114 28.2982 21.3588 28.3766 21.4094V12.7806C28.0942 12.753 27.8127 12.7306 27.5325 12.7083C26.9227 12.6598 26.3189 12.6117 25.7239 12.5112C23.4979 12.1352 21.5428 11.2484 20.2016 9.32856C19.3183 8.06415 18.8945 6.62159 18.7214 5.11363C18.6517 4.50622 18.6426 3.89196 18.6335 3.27757C18.629 2.97227 18.6245 2.66694 18.6125 2.36241C18.5869 1.71148 18.8177 1.22767 19.464 1H21.5571C21.8356 1.05336 22.1157 1.10084 22.3958 1.14833C23.0049 1.25158 23.6139 1.35482 24.2064 1.51847C27.7285 2.49135 29.5283 4.96054 30.1123 8.44975C30.1568 8.71596 30.1843 8.98523 30.2117 9.25424C30.2181 9.31611 30.2244 9.37796 30.2309 9.43976C30.255 9.66828 30.2755 9.89714 30.2973 10.1392C30.307 10.2473 30.3169 10.358 30.3275 10.4725C30.3472 10.4599 30.3669 10.4496 30.3853 10.4399C30.4212 10.421 30.4525 10.4045 30.4706 10.3788C31.9768 8.23333 34.1215 7.11871 36.6156 6.56568C38.1398 6.22784 39.6797 6.07269 41.2409 6.16295C42.0579 6.21009 42.3607 6.46706 42.4187 7.28366C42.6193 10.1102 42.3257 12.8568 40.9548 15.3985C39.8766 17.3976 38.1603 18.6331 36.0601 19.3845C34.385 19.9837 32.6459 20.1945 30.877 20.2124C30.8389 20.2128 30.8009 20.2131 30.7629 20.2134C30.6583 20.2141 30.5537 20.2148 30.4493 20.218C30.4308 20.2186 30.4126 20.2264 30.3872 20.2372C30.3731 20.2432 30.3568 20.2501 30.3371 20.2573V26.9736C33.1564 24.1106 36.5239 22.6247 40.489 22.7115ZM40.3687 35.2277C40.6483 35.2592 40.9276 35.2906 41.196 35.3636C42.6456 35.7577 43.5872 36.9211 43.6477 38.3338C43.7057 39.6853 42.8582 40.8873 41.4895 41.4384C41.3305 41.5023 41.1741 41.6737 41.1023 41.8338C40.9204 42.2388 40.64 42.4802 40.1966 42.4771C39.7525 42.4739 39.4793 42.223 39.2974 41.8211C39.2257 41.6626 39.0611 41.5057 38.9005 41.4344C37.6585 40.8832 36.8661 40.0001 36.7674 38.6003C36.724 37.9841 37.0494 37.5736 37.5795 37.5168C38.1347 37.4573 38.5509 37.7477 38.6156 38.3739C38.7242 39.4246 39.6599 39.8381 40.4449 39.7344C41.1836 39.6369 41.7384 39.1032 41.746 38.4527C41.7536 37.7945 41.224 37.2699 40.4819 37.1347C40.35 37.1107 40.2165 37.0889 40.0827 37.0669C39.5589 36.981 39.0289 36.8941 38.5641 36.6767C37.3593 36.1136 36.7114 35.1083 36.7683 33.7479C36.8253 32.3879 37.5812 31.4877 38.7903 30.9478L38.7969 30.9449C39.0637 30.8259 39.2634 30.7368 39.3252 30.3901C39.4021 29.9578 39.7405 29.727 40.1892 29.7221C40.6586 29.7171 40.9997 29.9525 41.0945 30.4043C41.1608 30.7199 41.3288 30.8204 41.593 30.9349C42.8281 31.4706 43.5474 32.3987 43.6451 33.5622C43.6583 34.3494 43.3452 34.7409 42.8239 34.7982C42.2913 34.8565 41.9188 34.5625 41.7921 33.9837C41.5558 32.9039 40.8829 32.4176 39.8649 32.5907C39.1837 32.7065 38.6696 33.2517 38.6622 33.8663C38.6548 34.4878 39.1449 35.0357 39.838 35.157C40.0132 35.1877 40.191 35.2077 40.3687 35.2277Z"/>
<path d="M40.0956 47.8052L40.097 47.7052L40.0956 47.8052ZM28.5999 36.1161L28.4999 36.1147V36.1148L28.5999 36.1161ZM51.8095 36.2384L51.7095 36.2374V36.2374L51.8095 36.2384ZM40.2658 24.5964L40.2648 24.6964L40.2658 24.5964ZM30.1129 47.7839V47.8839H30.2145L30.2129 47.7823L30.1129 47.7839ZM27.0754 47.7839H26.9754V47.8839H27.0754V47.7839ZM30.1254 47.0275L30.2253 47.0307L30.1254 47.0275ZM29.2011 43.9821L29.1355 44.0576L29.1355 44.0576L29.2011 43.9821ZM29.1695 43.9546L29.1038 44.0301L29.1038 44.0301L29.1695 43.9546ZM28.458 43.617L28.4579 43.517H28.4579L28.458 43.617ZM10.9369 43.6228L10.9368 43.7228L10.9369 43.6228ZM7.43784 43.6223L7.43785 43.5223H7.43784V43.6223ZM6.94526 43.6223V43.5223H6.84526V43.6223H6.94526ZM6.94526 47.797H6.84526V47.897H6.94526V47.797ZM9.94881 47.797V47.897H10.0488V47.797H9.94881ZM10.5489 44.7738L10.5874 44.8661L10.5874 44.8661L10.5489 44.7738ZM11.8472 45.7088L11.9472 45.7056L11.9472 45.7056L11.8472 45.7088ZM11.8553 47.1459L11.9552 47.1466L11.8553 47.1459ZM11.852 47.7707H11.752V47.8707H11.852V47.7707ZM17.5593 47.7707V47.8707H17.6593V47.7707H17.5593ZM17.5586 47.1466L17.6586 47.1464L17.5586 47.1466ZM17.5607 45.7373L17.6607 45.7381V45.7381L17.5607 45.7373ZM18.1854 44.7653L18.221 44.8587L18.221 44.8587L18.1854 44.7653ZM19.4596 45.7335L19.5595 45.7308L19.5595 45.7308L19.4596 45.7335ZM19.4661 47.1437L19.5661 47.1443L19.4661 47.1437ZM19.4634 47.7773H19.3634V47.8773H19.4634V47.7773ZM25.1733 47.7773V47.8773H25.2733V47.7773H25.1733ZM25.1698 47.1278L25.0698 47.1286L25.1698 47.1278ZM25.1782 45.7091L25.2782 45.7126L25.2782 45.7125L25.1782 45.7091ZM26.4321 44.7608L26.3988 44.8551L26.3988 44.8551L26.4321 44.7608ZM27.0751 45.7656L26.9751 45.7657V45.7657L27.0751 45.7656ZM27.0755 47.1883L27.1755 47.1884L27.0755 47.1883ZM6.93701 35.5918H6.83701V35.6918H6.93701V35.5918ZM6.93701 31.4712V31.3712H6.83701V31.4712H6.93701ZM9.92405 35.5918V35.6918H10.0088L10.0227 35.6082L9.92405 35.5918ZM9.9357 35.5282L10.0339 35.5473L9.9357 35.5282ZM9.9453 35.4601L10.0453 35.4608L10.0453 35.4605L9.9453 35.4601ZM9.94647 34.8855L9.84647 34.8854L9.94647 34.8855ZM9.95118 33.844L10.0512 33.8452L9.95118 33.844ZM10.8949 32.7017L10.8939 32.6017H10.8939L10.8949 32.7017ZM11.8539 33.83L11.7539 33.8312L11.8539 33.83ZM11.8564 35.0473L11.9564 35.0476L11.8564 35.0473ZM11.8554 35.6062H11.7554V35.7062H11.8554V35.6062ZM17.5613 35.6062V35.7062H17.6613V35.6062H17.5613ZM17.5604 35.0475L17.6604 35.0473L17.5604 35.0475ZM17.5626 33.8359L17.4626 33.8348V33.8348L17.5626 33.8359ZM18.5141 32.7017L18.5139 32.8017L18.5141 32.7017ZM19.4626 33.8389L19.3627 33.8399L19.3627 33.84L19.4626 33.8389ZM19.4649 35.0529L19.3649 35.0526L19.4649 35.0529ZM19.464 35.6009H19.364V35.7009H19.464V35.6009ZM25.1731 35.6009V35.7009H25.2731V35.6009H25.1731ZM25.172 35.0225L25.272 35.0223V35.0223L25.172 35.0225ZM25.1749 33.726L25.0749 33.7248V33.7248L25.1749 33.726ZM25.7709 32.7828L25.8091 32.8753L25.8091 32.8752L25.7709 32.7828ZM26.8469 33.0431L26.774 33.1115L26.774 33.1116L26.8469 33.0431ZM26.9597 33.1419L26.8973 33.2201L26.8973 33.2201L26.9597 33.1419ZM27.0222 33.1928L26.9576 33.2692L27.0748 33.3682L27.1181 33.221L27.0222 33.1928ZM27.5287 31.4712L27.6246 31.4994L27.6623 31.3712H27.5287V31.4712ZM13.9467 10.9644L14.03 10.9092L13.9468 10.7837L13.8634 10.909L13.9467 10.9644ZM16.1836 14.3369L16.2193 14.4303L16.3359 14.3856L16.2669 14.2816L16.1836 14.3369ZM11.6957 14.3468L11.6124 14.2914L11.5318 14.4125L11.6738 14.4443L11.6957 14.3468ZM12.6229 15.8822L12.7229 15.8825V15.8825L12.6229 15.8822ZM12.6138 25.6837L12.5138 25.6837L12.6138 25.6837ZM12.614 28.9151L12.514 28.9151V28.9151H12.614ZM12.614 29.5103H12.514V29.6103H12.614V29.5103ZM15.2776 29.5103V29.6103H15.3778L15.3776 29.5101L15.2776 29.5103ZM15.2776 17.0494L15.3776 17.0495L15.2776 17.0494ZM15.2779 16.1232L15.3779 16.1232V16.1232H15.2779ZM15.2778 15.955L15.1778 15.9552V15.9552L15.2778 15.955ZM15.278 15.5999L15.178 15.5993V15.5993L15.278 15.5999ZM22.3181 40.0531L22.2181 40.0536V40.0537L22.3181 40.0531ZM22.318 39.9596L22.418 39.9598V39.9598L22.318 39.9596ZM22.3195 41.2351L22.2195 41.235L22.3195 41.2351ZM22.3192 41.703H22.2192V41.803H22.3192V41.703ZM27.7539 41.703V41.803H27.884L27.8505 41.6773L27.7539 41.703ZM26.6517 37.5678L26.7483 37.5421L26.7286 37.4678H26.6517V37.5678ZM9.78355 37.5678V37.4678H9.68355V37.5678H9.78355ZM9.78355 41.6872H9.68355V41.7872H9.78355V41.6872ZM12.8042 41.6872V41.7872H12.9042V41.6872H12.8042ZM12.8041 41.4237L12.9041 41.4237L12.8041 41.4237ZM12.8043 40.9016L12.7043 40.9013L12.7043 40.9013L12.8043 40.9016ZM12.8018 40.5134L12.7018 40.5145L12.8018 40.5134ZM12.8142 39.6177L12.914 39.6241V39.6241L12.8142 39.6177ZM13.766 38.6826L13.7673 38.5827H13.7672L13.766 38.6826ZM14.6993 39.5893L14.5998 39.5994L14.5998 39.5994L14.6993 39.5893ZM14.7106 40.0407L14.8106 40.042L14.7106 40.0407ZM14.7093 40.2071L14.8093 40.2069V40.2069L14.7093 40.2071ZM14.7097 41.2751L14.8097 41.2751L14.7097 41.2751ZM14.7096 41.6922H14.6096V41.7922H14.7096V41.6922ZM20.4154 41.6922V41.7922H20.5154V41.6922H20.4154ZM20.4152 41.4357L20.3152 41.4359L20.4152 41.4357ZM20.4156 40.9144L20.5156 40.9148V40.9148L20.4156 40.9144ZM20.4135 40.5194L20.3135 40.5204L20.4135 40.5194ZM20.4298 39.5832L20.5295 39.5905L20.5295 39.5905L20.4298 39.5832ZM21.3168 38.6843L21.3105 38.5845L21.3168 38.6843ZM22.2906 39.4846L22.1922 39.5022L22.1922 39.5022L22.2906 39.4846ZM24.9329 24.5885L24.9259 24.6883L24.9259 24.6883L24.9329 24.5885ZM25.5278 24.5967L25.5264 24.4967L25.5278 24.5967ZM24.0387 23.2975L23.9461 23.2598L23.9461 23.2598L24.0387 23.2975ZM25.025 22.6929L25.0244 22.5929H25.0244L25.025 22.6929ZM26.1974 22.6916L26.1972 22.7916L26.1974 22.6916ZM26.7969 22.6921V22.7921H27.1197L26.8534 22.6096L26.7969 22.6921ZM21.2822 23.5995L21.2129 23.5275L21.1404 23.5973L21.2107 23.6694L21.2822 23.5995ZM26.6074 24.5945L26.6852 24.6572L26.8164 24.4945H26.6074V24.5945ZM26.3482 24.5946L26.3482 24.6946H26.3482L26.3482 24.5946ZM25.7881 24.5944L25.7883 24.4944H25.7883L25.7881 24.5944ZM25.3655 8.94728L25.4378 8.8782L25.4378 8.87819L25.3655 8.94728ZM26.738 10.3306L26.8082 10.2595L26.8082 10.2595L26.738 10.3306ZM25.1509 7.9515L25.2353 8.00509L25.2353 8.00507L25.1509 7.9515ZM25.9218 7.36701L25.9064 7.2682L25.9064 7.2682L25.9218 7.36701ZM26.7882 7.71733L26.7221 7.79235L26.7221 7.79235L26.7882 7.71733ZM27.7905 8.73026L27.8639 8.66227L27.7905 8.73026ZM28.2514 9.22189L28.1791 9.29102L28.3782 9.49907L28.3509 9.21243L28.2514 9.22189ZM20.5495 2.92534L20.5507 2.82535L20.462 2.82426L20.4504 2.91222L20.5495 2.92534ZM27.1633 10.6628L27.1792 10.7615L27.407 10.7247L27.2244 10.5837L27.1633 10.6628ZM26.9967 10.5386L27.0557 10.4578L26.9967 10.5386ZM30.6965 14.6602L30.7941 14.6822V14.6822L30.6965 14.6602ZM34.6302 9.25387L34.6743 9.3436L34.6743 9.3436L34.6302 9.25387ZM30.4571 16.0722L30.5561 16.0862L30.4571 16.0722ZM30.3613 16.7212L30.2625 16.7054L30.2209 16.9671L30.425 16.7982L30.3613 16.7212ZM32.6122 14.6318L32.542 14.5606L32.6122 14.6318ZM32.9002 14.3482L32.8301 14.2769V14.2769L32.9002 14.3482ZM34.3703 14.2445L34.2984 14.314L34.2984 14.314L34.3703 14.2445ZM34.253 15.6805L34.1812 15.6109L34.1812 15.6109L34.253 15.6805ZM32.8739 17.0584L32.8042 16.9867L32.8042 16.9867L32.8739 17.0584ZM32.0736 17.8112L32.1415 17.8846L32.0736 17.8112ZM31.7191 18.1402L31.6509 18.0671L31.5947 18.1196L31.631 18.1874L31.7191 18.1402ZM31.8275 18.3423L31.7393 18.3895L31.774 18.4542L31.8461 18.4405L31.8275 18.3423ZM32.8145 18.1698L32.831 18.2684L32.8145 18.1698ZM34.9773 17.7275L35.0044 17.8237L35.0044 17.8237L34.9773 17.7275ZM39.5728 13.922L39.4813 13.8815V13.8815L39.5728 13.922ZM40.5642 8.03155L40.6642 8.02881L40.6614 7.92574L40.5584 7.93172L40.5642 8.03155ZM39.9666 8.06228L39.9618 7.96239H39.9618L39.9666 8.06228ZM38.7306 8.14224L38.7404 8.24176L38.7404 8.24175L38.7306 8.14224ZM50.4215 27.3849L50.3468 27.4514V27.4514L50.4215 27.3849ZM40.489 22.7115L40.4868 22.8115L40.489 22.7115ZM51.2327 43.9887L51.1523 43.9293V43.9293L51.2327 43.9887ZM45.7144 48.5201L45.6736 48.4288L45.6736 48.4288L45.7144 48.5201ZM38.7113 49.6178L38.7223 49.5184H38.7223L38.7113 49.6178ZM32.0241 46.952L32.0833 46.8714L31.9241 46.7544V46.952H32.0241ZM32.0255 47.5113L32.1255 47.5109L32.0255 47.5113ZM32.0224 48.5961L32.1224 48.5978V48.5978L32.0224 48.5961ZM30.9022 49.7088L30.9022 49.6088L30.9022 49.7088ZM6.12041 49.7087L6.12046 49.6087H6.12045L6.12041 49.7087ZM5.00548 48.5921L4.90548 48.5925L4.90548 48.5925L5.00548 48.5921ZM5.00558 42.8366L4.90558 42.8362L5.00558 42.8366ZM6.12134 41.7213L6.11983 41.6213H6.11982L6.12134 41.7213ZM7.27636 41.7183L7.276 41.8183H7.276L7.27636 41.7183ZM7.82025 41.7196V41.8196H7.92025V41.7196H7.82025ZM7.82025 37.5334H7.92025V37.4334H7.82025V37.5334ZM7.31495 37.5341L7.31516 37.6341H7.31517L7.31495 37.5341ZM6.17684 37.5324L6.17596 37.6324H6.17597L6.17684 37.5324ZM5.00466 36.3751L5.10465 36.3748L5.10465 36.3748L5.00466 36.3751ZM5.00445 30.7148L4.90445 30.7146L4.90445 30.7146L5.00445 30.7148ZM6.2082 29.5427L6.20793 29.4427H6.20792L6.2082 29.5427ZM9.00944 29.5412L9.0095 29.4412H9.0095L9.00944 29.5412ZM10.6882 29.5417V29.6417H10.7882V29.5417H10.6882ZM10.6882 16.2751H10.7882V16.1751H10.6882V16.2751ZM10.4414 16.2784L10.4435 16.3784H10.4435L10.4414 16.2784ZM9.93106 16.2721L9.93897 16.1724H9.93896L9.93106 16.2721ZM9.13778 14.7775L9.05403 14.7228L9.05403 14.7228L9.13778 14.7775ZM13.1663 8.72302L13.2491 8.77909L13.2491 8.77908L13.1663 8.72302ZM14.7285 8.72653L14.6457 8.78258V8.78258L14.7285 8.72653ZM18.7566 14.7814L18.6729 14.836L18.6729 14.836L18.7566 14.7814ZM18.0035 16.2678L18.0132 16.3673L18.0132 16.3673L18.0035 16.2678ZM17.4761 16.276L17.4738 16.3759L17.4761 16.276ZM17.1807 16.2716V16.1716H17.0807V16.2716H17.1807ZM17.1807 16.8132L17.2807 16.8132V16.8132H17.1807ZM17.1812 18.7596L17.2812 18.7595L17.1812 18.7596ZM17.1785 29.5103L17.0785 29.5099L17.0782 29.6103H17.1785V29.5103ZM28.3814 29.5103V29.6103H28.4814V29.5103H28.3814ZM28.3814 25.864H28.4814V25.6914L28.3316 25.7773L28.3814 25.864ZM28.006 26.0805L27.9559 25.994L28.006 26.0805ZM27.2295 26.5234L27.278 26.6109L27.278 26.6109L27.2295 26.5234ZM21.7329 26.3335L21.7865 26.2491L21.7865 26.2491L21.7329 26.3335ZM19.6441 24.6021L19.7125 24.5293L19.6441 24.6021ZM19.3119 24.2912L19.2438 24.3644L19.2438 24.3644L19.3119 24.2912ZM19.2071 23.0066L19.1313 22.9413L19.1313 22.9413L19.2071 23.0066ZM24.0722 20.1024L24.0865 20.2013H24.0865L24.0722 20.1024ZM27.7769 21.0237L27.7257 21.1096L27.7257 21.1096L27.7769 21.0237ZM28.1581 21.2666L28.213 21.1831L28.1581 21.2666ZM28.3766 21.4094L28.3224 21.4934L28.4766 21.5929V21.4094H28.3766ZM28.3766 12.7806H28.4766V12.6899L28.3864 12.6811L28.3766 12.7806ZM27.5325 12.7083L27.5405 12.6086L27.5325 12.7083ZM25.7239 12.5112L25.7406 12.4126H25.7406L25.7239 12.5112ZM20.2016 9.32856L20.1196 9.38582L20.1196 9.38583L20.2016 9.32856ZM18.7214 5.11363L18.622 5.12502L18.622 5.12503L18.7214 5.11363ZM18.6335 3.27757L18.7335 3.27609L18.6335 3.27757ZM18.6125 2.36241L18.7124 2.35848V2.35848L18.6125 2.36241ZM19.464 1V0.9H19.4469L19.4308 0.905681L19.464 1ZM21.5571 1L21.5759 0.901786L21.5666 0.9H21.5571V1ZM22.3958 1.14833L22.3791 1.24692L22.3958 1.14833ZM24.2064 1.51847L24.1797 1.61486L24.1797 1.61486L24.2064 1.51847ZM30.1123 8.44975L30.2109 8.43325V8.43325L30.1123 8.44975ZM30.2117 9.25424L30.1123 9.2644L30.2117 9.25424ZM30.2309 9.43976L30.3303 9.42927L30.2309 9.43976ZM30.2973 10.1392L30.1977 10.1482L30.2973 10.1392ZM30.3275 10.4725L30.228 10.4817L30.2431 10.6448L30.3812 10.5568L30.3275 10.4725ZM30.3853 10.4399L30.4318 10.5284L30.4318 10.5284L30.3853 10.4399ZM30.4706 10.3788L30.5524 10.4363L30.5525 10.4363L30.4706 10.3788ZM36.6156 6.56568L36.594 6.46805L36.594 6.46805L36.6156 6.56568ZM41.2409 6.16295L41.2352 6.26278L41.2352 6.26278L41.2409 6.16295ZM42.4187 7.28366L42.5184 7.27658V7.27658L42.4187 7.28366ZM40.9548 15.3985L40.8668 15.351V15.351L40.9548 15.3985ZM36.0601 19.3845L36.0938 19.4786L36.0938 19.4786L36.0601 19.3845ZM30.877 20.2124L30.878 20.3124H30.878L30.877 20.2124ZM30.7629 20.2134L30.7622 20.1134H30.7622L30.7629 20.2134ZM30.4493 20.218L30.4462 20.1181L30.446 20.1181L30.4493 20.218ZM30.3872 20.2372L30.4264 20.3292L30.4264 20.3292L30.3872 20.2372ZM30.3371 20.2573L30.303 20.1633L30.2371 20.1873V20.2573H30.3371ZM30.3371 26.9736H30.2371V27.2177L30.4084 27.0438L30.3371 26.9736ZM41.196 35.3636L41.1697 35.4601H41.1697L41.196 35.3636ZM40.3687 35.2277L40.3575 35.3271L40.3687 35.2277ZM43.6477 38.3338L43.5478 38.3381V38.3381L43.6477 38.3338ZM41.4895 41.4384L41.5268 41.5312L41.5269 41.5311L41.4895 41.4384ZM41.1023 41.8338L41.1935 41.8747L41.1935 41.8747L41.1023 41.8338ZM40.1966 42.4771L40.1958 42.5771H40.1959L40.1966 42.4771ZM39.2974 41.8211L39.2063 41.8623L39.2974 41.8211ZM38.9005 41.4344L38.8599 41.5258L38.8599 41.5259L38.9005 41.4344ZM36.7674 38.6003L36.6676 38.6073V38.6073L36.7674 38.6003ZM37.5795 37.5168L37.5902 37.6163L37.5902 37.6163L37.5795 37.5168ZM38.6156 38.3739L38.5161 38.3841L38.5161 38.3841L38.6156 38.3739ZM40.4449 39.7344L40.4318 39.6353H40.4318L40.4449 39.7344ZM41.746 38.4527L41.846 38.4538V38.4538L41.746 38.4527ZM40.4819 37.1347L40.4998 37.0363L40.4998 37.0363L40.4819 37.1347ZM40.0827 37.0669L40.0988 36.9682H40.0988L40.0827 37.0669ZM38.5641 36.6767L38.6064 36.5861L38.6064 36.5861L38.5641 36.6767ZM36.7683 33.7479L36.6684 33.7438V33.7438L36.7683 33.7479ZM38.7903 30.9478L38.7496 30.8565L38.7495 30.8565L38.7903 30.9478ZM38.7969 30.9449L38.7562 30.8536H38.7561L38.7969 30.9449ZM39.3252 30.3901L39.4236 30.4076L39.4236 30.4076L39.3252 30.3901ZM40.1892 29.7221L40.1882 29.6221H40.1882L40.1892 29.7221ZM41.0945 30.4043L40.9967 30.4248L40.9967 30.4248L41.0945 30.4043ZM41.593 30.9349L41.6328 30.8432L41.6328 30.8432L41.593 30.9349ZM43.6451 33.5622L43.7453 33.5605L43.7448 33.5538L43.6451 33.5622ZM42.8239 34.7982L42.8348 34.8976L42.8348 34.8976L42.8239 34.7982ZM41.7921 33.9837L41.8898 33.9623L41.7921 33.9837ZM39.8649 32.5907L39.8817 32.6893L39.8817 32.6893L39.8649 32.5907ZM38.6622 33.8663L38.5622 33.8651L38.5622 33.8651L38.6622 33.8663ZM39.838 35.157L39.8552 35.0585L39.8552 35.0585L39.838 35.157ZM40.097 47.7052C33.747 47.6137 28.6164 42.3951 28.6998 36.1174L28.4999 36.1148C28.4149 42.5049 33.6358 47.8121 40.0941 47.9052L40.097 47.7052ZM51.7095 36.2374C51.6417 42.64 46.418 47.7964 40.097 47.7052L40.0941 47.9052C46.5282 47.998 51.8406 42.7505 51.9094 36.2395L51.7095 36.2374ZM40.2648 24.6964C46.6082 24.7571 51.7758 29.9704 51.7095 36.2374L51.9094 36.2395C51.977 29.8598 46.7184 24.5581 40.2667 24.4964L40.2648 24.6964ZM28.6998 36.1174C28.7844 29.7597 33.9745 24.6362 40.2648 24.6964L40.2667 24.4964C33.8643 24.4351 28.5859 29.6489 28.4999 36.1147L28.6998 36.1174ZM30.1129 47.6839H27.0754V47.8839H30.1129V47.6839ZM30.0254 47.0242C30.0172 47.2756 30.0088 47.531 30.0129 47.7855L30.2129 47.7823C30.2089 47.5335 30.2171 47.283 30.2253 47.0307L30.0254 47.0242ZM29.1355 44.0576C30.091 44.8864 30.0616 45.9177 30.0254 47.0242L30.2253 47.0307C30.2612 45.9349 30.3025 44.8051 29.2666 43.9065L29.1355 44.0576ZM29.1038 44.0301C29.1142 44.0391 29.1248 44.0483 29.1355 44.0576L29.2666 43.9065C29.256 43.8973 29.2455 43.8882 29.2351 43.8792L29.1038 44.0301ZM28.4581 43.717C28.7403 43.7167 28.8812 43.8364 29.1038 44.0301L29.2351 43.8792C29.0131 43.686 28.8216 43.5166 28.4579 43.517L28.4581 43.717ZM10.9368 43.7228C16.7772 43.7239 22.6176 43.7249 28.4582 43.717L28.4579 43.517C22.6175 43.5249 16.7772 43.5239 10.9369 43.5228L10.9368 43.7228ZM7.43783 43.7223C8.60416 43.7224 9.7705 43.7226 10.9368 43.7228L10.9369 43.5228C9.77054 43.5226 8.6042 43.5224 7.43785 43.5223L7.43783 43.7223ZM6.94526 43.7223H7.43784V43.5223H6.94526V43.7223ZM7.04526 47.797V43.6223H6.84526V47.797H7.04526ZM9.94881 47.697H6.94526V47.897H9.94881V47.697ZM9.84881 45.7642V47.797H10.0488V45.7642H9.84881ZM10.5104 44.6815C10.2764 44.7791 10.1086 44.9282 10.0006 45.1175C9.89346 45.3054 9.84881 45.5265 9.84881 45.7642H10.0488C10.0488 45.5505 10.089 45.3662 10.1744 45.2166C10.2588 45.0684 10.3911 44.948 10.5874 44.8661L10.5104 44.6815ZM11.9472 45.7056C11.9341 45.3044 11.7549 44.9744 11.4852 44.7811C11.2148 44.5872 10.8597 44.5358 10.5104 44.6815L10.5874 44.8661C10.8728 44.747 11.1547 44.7902 11.3687 44.9436C11.5835 45.0976 11.7361 45.3676 11.7473 45.7121L11.9472 45.7056ZM11.9552 47.1466C11.959 46.6702 11.9628 46.1877 11.9472 45.7056L11.7473 45.7121C11.7628 46.1895 11.759 46.668 11.7553 47.1451L11.9552 47.1466ZM11.952 47.7707C11.952 47.5638 11.9536 47.3558 11.9552 47.1466L11.7553 47.1451C11.7536 47.3541 11.752 47.5629 11.752 47.7707H11.952ZM17.5593 47.6707H11.852V47.8707H17.5593V47.6707ZM17.4586 47.1468C17.4589 47.3521 17.4593 47.5597 17.4593 47.7707H17.6593C17.6593 47.5595 17.6589 47.3517 17.6586 47.1464L17.4586 47.1468ZM17.4607 45.7365C17.457 46.2025 17.4578 46.6685 17.4586 47.1468L17.6586 47.1464C17.6578 46.668 17.657 46.203 17.6607 45.7381L17.4607 45.7365ZM18.1499 44.6718C17.9123 44.7623 17.7386 44.906 17.625 45.0924C17.5122 45.2775 17.4626 45.4978 17.4607 45.7365L17.6607 45.7381C17.6624 45.5253 17.7065 45.3429 17.7958 45.1965C17.8843 45.0513 18.0212 44.9348 18.221 44.8587L18.1499 44.6718ZM19.5595 45.7308C19.5484 45.3257 19.3799 44.992 19.1174 44.7932C18.8538 44.5936 18.5041 44.5369 18.1499 44.6718L18.221 44.8587C18.513 44.7475 18.7899 44.7961 18.9967 44.9527C19.2045 45.1101 19.3499 45.3836 19.3596 45.7362L19.5595 45.7308ZM19.5661 47.1443C19.5692 46.6716 19.5723 46.2011 19.5595 45.7308L19.3596 45.7362C19.3722 46.2026 19.3692 46.6698 19.3661 47.143L19.5661 47.1443ZM19.5634 47.7773C19.5634 47.5654 19.5647 47.3546 19.5661 47.1443L19.3661 47.143C19.3647 47.3532 19.3634 47.5646 19.3634 47.7773H19.5634ZM25.1733 47.6773H19.4634V47.8773H25.1733V47.6773ZM25.0698 47.1286C25.0715 47.3428 25.0733 47.5586 25.0733 47.7773H25.2733C25.2733 47.5577 25.2715 47.3411 25.2698 47.127L25.0698 47.1286ZM25.0783 45.7057C25.0621 46.1772 25.0659 46.649 25.0698 47.1286L25.2698 47.127C25.2659 46.6467 25.2622 46.1791 25.2782 45.7126L25.0783 45.7057ZM26.4654 44.6665C26.1172 44.5436 25.7747 44.6023 25.5161 44.7968C25.2583 44.9908 25.0916 45.3136 25.0783 45.7057L25.2782 45.7125C25.2897 45.3737 25.4323 45.1102 25.6363 44.9566C25.8396 44.8037 26.1116 44.7537 26.3988 44.8551L26.4654 44.6665ZM27.1751 45.7654C27.1747 45.5181 27.1279 45.2887 27.0134 45.0968C26.8977 44.9032 26.7176 44.7556 26.4654 44.6665L26.3988 44.8551C26.6111 44.9301 26.7521 45.0494 26.8417 45.1993C26.9323 45.3511 26.9747 45.542 26.9751 45.7657L27.1751 45.7654ZM27.1755 47.1884C27.1757 46.7153 27.1759 46.2403 27.1751 45.7654L26.9751 45.7657C26.9759 46.2404 26.9757 46.7152 26.9755 47.1883L27.1755 47.1884ZM27.1754 47.7839C27.1754 47.5858 27.1755 47.3872 27.1755 47.1884L26.9755 47.1883C26.9755 47.3872 26.9754 47.5857 26.9754 47.7839H27.1754ZM7.03701 35.5918V31.4712H6.83701V35.5918H7.03701ZM9.92405 35.4918H6.93701V35.6918H9.92405V35.4918ZM9.83755 35.509C9.83418 35.5263 9.82994 35.5481 9.82539 35.5755L10.0227 35.6082C10.0267 35.5838 10.0305 35.5644 10.0339 35.5473L9.83755 35.509ZM9.8453 35.4594C9.84525 35.4677 9.84375 35.4773 9.83755 35.509L10.0339 35.5473C10.039 35.5209 10.0451 35.4915 10.0453 35.4608L9.8453 35.4594ZM9.84647 34.8854C9.84629 35.0769 9.84611 35.2683 9.8453 35.4597L10.0453 35.4605C10.0461 35.2688 10.0463 35.0771 10.0465 34.8856L9.84647 34.8854ZM9.85119 33.8429C9.84712 34.1906 9.8468 34.5383 9.84647 34.8854L10.0465 34.8856C10.0468 34.5383 10.0471 34.1917 10.0512 33.8452L9.85119 33.8429ZM10.8939 32.6017C10.5842 32.6046 10.3221 32.7304 10.1381 32.9525C9.95557 33.1729 9.85541 33.4811 9.85119 33.8429L10.0512 33.8452C10.055 33.5175 10.1455 33.2572 10.2922 33.0801C10.4374 32.9047 10.6431 32.804 10.8958 32.8017L10.8939 32.6017ZM11.9539 33.8288C11.9497 33.4702 11.8447 33.1627 11.6579 32.9437C11.4698 32.7233 11.2037 32.5988 10.8939 32.6017L10.8958 32.8017C11.1471 32.7993 11.3565 32.8987 11.5058 33.0735C11.6562 33.2498 11.7502 33.5091 11.7539 33.8312L11.9539 33.8288ZM11.9564 35.0476C11.9575 34.6357 11.9586 34.2323 11.9539 33.8288L11.7539 33.8312C11.7586 34.2329 11.7575 34.6349 11.7564 35.047L11.9564 35.0476ZM11.9554 35.6062C11.9554 35.4176 11.9559 35.2318 11.9564 35.0476L11.7564 35.047C11.7559 35.2312 11.7554 35.4173 11.7554 35.6062H11.9554ZM17.5613 35.5062H11.8554V35.7062H17.5613V35.5062ZM17.4604 35.0478C17.4609 35.2322 17.4613 35.4181 17.4613 35.6062H17.6613C17.6613 35.4178 17.6609 35.2317 17.6604 35.0473L17.4604 35.0478ZM17.4626 33.8348C17.4582 34.2369 17.4593 34.6389 17.4604 35.0478L17.6604 35.0473C17.6593 34.6381 17.6582 34.2375 17.6626 33.837L17.4626 33.8348ZM18.5143 32.6017C18.2044 32.601 17.9401 32.7257 17.7539 32.9468C17.5691 33.1664 17.4665 33.4743 17.4626 33.8348L17.6626 33.837C17.6661 33.5118 17.7584 33.2521 17.9069 33.0757C18.0541 32.9008 18.2618 32.8011 18.5139 32.8017L18.5143 32.6017ZM19.5626 33.8378C19.5588 33.4767 19.4571 33.1687 19.2731 32.9488C19.0877 32.7273 18.8241 32.6023 18.5143 32.6017L18.5139 32.8017C18.7662 32.8022 18.9732 32.9021 19.1197 33.0772C19.2676 33.2538 19.3592 33.5138 19.3627 33.8399L19.5626 33.8378ZM19.5649 35.0532C19.566 34.6449 19.567 34.2414 19.5626 33.8378L19.3627 33.84C19.367 34.242 19.366 34.6441 19.3649 35.0526L19.5649 35.0532ZM19.564 35.6009C19.564 35.417 19.5645 35.2346 19.5649 35.0532L19.3649 35.0526C19.3645 35.234 19.364 35.4167 19.364 35.6009H19.564ZM25.1731 35.5009H19.464V35.7009H25.1731V35.5009ZM25.072 35.0228C25.0725 35.2135 25.0731 35.4059 25.0731 35.6009H25.2731C25.2731 35.4056 25.2725 35.2129 25.272 35.0223L25.072 35.0228ZM25.0749 33.7248C25.0697 34.1545 25.0709 34.5841 25.072 35.0228L25.272 35.0223C25.2709 34.5834 25.2697 34.1552 25.2749 33.7272L25.0749 33.7248ZM25.7326 32.6904C25.5086 32.7831 25.3436 32.9245 25.2348 33.1049C25.1266 33.2842 25.0777 33.4959 25.0749 33.7248L25.2749 33.7272C25.2774 33.5247 25.3205 33.35 25.4061 33.2082C25.491 33.0673 25.6213 32.9529 25.8091 32.8753L25.7326 32.6904ZM26.9198 32.9747C26.759 32.8032 26.5773 32.683 26.3751 32.6311C26.1718 32.5789 25.9563 32.5979 25.7326 32.6904L25.8091 32.8752C25.9982 32.797 26.1694 32.7848 26.3253 32.8248C26.4822 32.8651 26.6323 32.9605 26.774 33.1115L26.9198 32.9747ZM27.022 33.0638C26.9795 33.0299 26.9472 33.0038 26.9198 32.9747L26.774 33.1116C26.8129 33.153 26.857 33.188 26.8973 33.2201L27.022 33.0638ZM27.0867 33.1164C27.064 33.0973 27.0421 33.0797 27.022 33.0638L26.8973 33.2201C26.9176 33.2363 26.9374 33.2521 26.9576 33.2692L27.0867 33.1164ZM27.4327 31.443L26.9262 33.1646L27.1181 33.221L27.6246 31.4994L27.4327 31.443ZM6.93701 31.5712H27.5287V31.3712H6.93701V31.5712ZM13.8634 11.0197L16.1002 14.3921L16.2669 14.2816L14.03 10.9092L13.8634 11.0197ZM11.7789 14.4022L14.0299 11.0198L13.8634 10.909L11.6124 14.2914L11.7789 14.4022ZM12.7229 15.8825C12.7239 15.5312 12.7128 15.1755 12.5803 14.8821C12.4431 14.5785 12.1823 14.3535 11.7176 14.2492L11.6738 14.4443C12.0865 14.537 12.2904 14.7263 12.398 14.9645C12.5102 15.2129 12.524 15.5264 12.5229 15.8819L12.7229 15.8825ZM12.7138 25.6837C12.7133 22.4164 12.7128 19.1494 12.7229 15.8825L12.5229 15.8819C12.5128 19.1491 12.5133 22.4165 12.5138 25.6837L12.7138 25.6837ZM12.714 28.9152C12.7142 27.838 12.714 26.7608 12.7138 25.6837L12.5138 25.6837C12.514 26.7608 12.5142 27.838 12.514 28.9151L12.714 28.9152ZM12.714 29.5103V28.9151H12.514V29.5103H12.714ZM15.2776 29.4103H12.614V29.6103H15.2776V29.4103ZM15.1776 17.0494C15.1766 20.0488 15.1741 27.6861 15.1776 29.5105L15.3776 29.5101C15.3741 27.686 15.3766 20.049 15.3776 17.0495L15.1776 17.0494ZM15.1779 16.1231C15.1779 16.3334 15.1778 16.6503 15.1776 17.0494L15.3776 17.0495C15.3778 16.6504 15.3779 16.3335 15.3779 16.1232L15.1779 16.1231ZM15.1778 15.9552C15.1778 16.0113 15.1779 16.0672 15.1779 16.1232H15.3779C15.3779 16.067 15.3778 16.0109 15.3778 15.9549L15.1778 15.9552ZM15.178 15.5993C15.1773 15.7182 15.1775 15.8369 15.1778 15.9552L15.3778 15.9549C15.3775 15.8365 15.3773 15.7185 15.378 15.6005L15.178 15.5993ZM16.1478 14.2435C15.7783 14.385 15.5284 14.5249 15.376 14.739C15.223 14.9539 15.1804 15.2265 15.178 15.5993L15.378 15.6006C15.3803 15.2353 15.4238 15.0167 15.539 14.855C15.6548 14.6923 15.8554 14.5696 16.2193 14.4303L16.1478 14.2435ZM22.4181 40.0526C22.4179 40.0219 22.4179 39.991 22.418 39.9598L22.218 39.9595C22.2179 39.9907 22.2179 40.0222 22.2181 40.0536L22.4181 40.0526ZM22.4195 41.2352C22.4199 40.8397 22.4204 40.4461 22.4181 40.0525L22.2181 40.0537C22.2204 40.4465 22.2199 40.8394 22.2195 41.235L22.4195 41.2352ZM22.4192 41.703C22.4192 41.5467 22.4194 41.3908 22.4195 41.2352L22.2195 41.235C22.2194 41.3906 22.2192 41.5465 22.2192 41.703H22.4192ZM27.7539 41.603H22.3192V41.803H27.7539V41.603ZM26.5551 37.5936L27.6572 41.7288L27.8505 41.6773L26.7483 37.5421L26.5551 37.5936ZM9.78355 37.6678H26.6517V37.4678H9.78355V37.6678ZM9.88355 41.6872V37.5678H9.68355V41.6872H9.88355ZM12.8042 41.5872H9.78355V41.7872H12.8042V41.5872ZM12.7041 41.4238C12.7042 41.5091 12.7042 41.5965 12.7042 41.6872H12.9042C12.9042 41.5964 12.9042 41.5089 12.9041 41.4237L12.7041 41.4238ZM12.7043 40.9013C12.7039 41.0722 12.704 41.2431 12.7041 41.4238L12.9041 41.4237C12.904 41.2429 12.9039 41.0723 12.9043 40.9018L12.7043 40.9013ZM12.7018 40.5145C12.7033 40.6441 12.7047 40.7728 12.7043 40.9013L12.9043 40.9019C12.9047 40.7717 12.9032 40.6416 12.9018 40.5123L12.7018 40.5145ZM12.7144 39.6113C12.6951 39.9133 12.6985 40.2161 12.7018 40.5145L12.9018 40.5123C12.8985 40.2126 12.8952 39.9173 12.914 39.6241L12.7144 39.6113ZM13.7672 38.5827C13.2088 38.5755 12.7529 39.0098 12.7144 39.6113L12.914 39.6241C12.9463 39.1205 13.3208 38.777 13.7647 38.7826L13.7672 38.5827ZM14.7988 39.5792C14.7413 39.0108 14.3063 38.5897 13.7673 38.5827L13.7647 38.7826C14.1928 38.7882 14.5516 39.1226 14.5998 39.5994L14.7988 39.5792ZM14.8106 40.042C14.8125 39.892 14.8147 39.7351 14.7988 39.5792L14.5998 39.5994C14.6143 39.742 14.6126 39.8875 14.6106 40.0395L14.8106 40.042ZM14.8093 40.2069C14.8092 40.1524 14.8099 40.0977 14.8106 40.042L14.6106 40.0395C14.6099 40.0948 14.6092 40.1511 14.6093 40.2074L14.8093 40.2069ZM14.8097 41.2751C14.8099 40.9226 14.81 40.5648 14.8093 40.2069L14.6093 40.2073C14.61 40.5649 14.6099 40.9225 14.6097 41.275L14.8097 41.2751ZM14.8096 41.6922C14.8096 41.5542 14.8097 41.4151 14.8097 41.2751L14.6097 41.275C14.6097 41.415 14.6096 41.5541 14.6096 41.6922H14.8096ZM20.4154 41.5922H14.7096V41.7922H20.4154V41.5922ZM20.3152 41.4359C20.3153 41.5192 20.3154 41.6044 20.3154 41.6922H20.5154C20.5154 41.6042 20.5153 41.519 20.5152 41.4356L20.3152 41.4359ZM20.3156 40.9139C20.3148 41.0852 20.315 41.2564 20.3152 41.4359L20.5152 41.4356C20.515 41.2561 20.5148 41.0854 20.5156 40.9148L20.3156 40.9139ZM20.3135 40.5204C20.3148 40.6522 20.3162 40.7832 20.3156 40.9139L20.5156 40.9148C20.5162 40.7824 20.5148 40.6499 20.5135 40.5183L20.3135 40.5204ZM20.33 39.5759C20.3069 39.8916 20.3103 40.2084 20.3135 40.5204L20.5135 40.5183C20.5102 40.205 20.5071 39.8965 20.5295 39.5905L20.33 39.5759ZM21.3105 38.5845C20.7899 38.6176 20.3708 39.0172 20.33 39.5759L20.5295 39.5905C20.563 39.1309 20.9029 38.8108 21.3232 38.7841L21.3105 38.5845ZM22.3891 39.467C22.2933 38.9309 21.8253 38.5518 21.3105 38.5845L21.3232 38.7841C21.7299 38.7582 22.1132 39.0596 22.1922 39.5022L22.3891 39.467ZM22.418 39.9598C22.4182 39.802 22.4187 39.6322 22.389 39.467L22.1922 39.5022C22.2181 39.6469 22.2182 39.7984 22.218 39.9595L22.418 39.9598ZM24.9259 24.6883C25.1283 24.7024 25.3313 24.6995 25.5292 24.6967L25.5264 24.4967C25.327 24.4995 25.1325 24.5022 24.9399 24.4887L24.9259 24.6883ZM23.9461 23.2598C23.8069 23.602 23.8547 23.9478 24.0396 24.2145C24.2238 24.4803 24.5395 24.6613 24.9259 24.6883L24.9399 24.4887C24.6085 24.4656 24.3506 24.3121 24.2039 24.1006C24.0579 23.8898 24.0175 23.6152 24.1314 23.3351L23.9461 23.2598ZM25.0244 22.5929C24.7883 22.5943 24.5676 22.6391 24.38 22.7467C24.191 22.8551 24.0422 23.0236 23.9461 23.2598L24.1314 23.3351C24.2118 23.1374 24.3318 23.0049 24.4795 22.9202C24.6288 22.8346 24.813 22.7941 25.0256 22.7929L25.0244 22.5929ZM26.1975 22.5916C25.7837 22.5911 25.4041 22.5906 25.0244 22.5929L25.0256 22.7929C25.4044 22.7906 25.7833 22.7911 26.1972 22.7916L26.1975 22.5916ZM26.7969 22.5921C26.5875 22.5921 26.3888 22.5919 26.1975 22.5916L26.1972 22.7916C26.3885 22.7919 26.5873 22.7921 26.7969 22.7921V22.5921ZM21.3516 23.6716C22.2467 22.8098 23.1743 22.2986 24.0848 22.1453C24.9931 21.9925 25.8932 22.1942 26.7403 22.7746L26.8534 22.6096C25.9666 22.002 25.0145 21.786 24.0516 21.9481C23.0908 22.1099 22.1281 22.6463 21.2129 23.5275L21.3516 23.6716ZM26.5295 24.5317C26.0345 25.1458 25.1946 25.355 24.2407 25.1768C23.2879 24.9987 22.2375 24.4353 21.3538 23.5297L21.2107 23.6694C22.119 24.6002 23.2052 25.1867 24.2039 25.3734C25.2015 25.5597 26.1282 25.3482 26.6852 24.6572L26.5295 24.5317ZM26.3482 24.6946C26.4336 24.6945 26.5199 24.6945 26.6074 24.6945V24.4945C26.5198 24.4945 26.4335 24.4945 26.3481 24.4946L26.3482 24.6946ZM25.7879 24.6944C25.9733 24.6947 26.1587 24.6946 26.3482 24.6946L26.3481 24.4946C26.1586 24.4946 25.9734 24.4947 25.7883 24.4944L25.7879 24.6944ZM25.5292 24.6967C25.6162 24.6954 25.7022 24.6942 25.7879 24.6944L25.7883 24.4944C25.7007 24.4942 25.6131 24.4955 25.5264 24.4967L25.5292 24.6967ZM25.2933 9.01637C25.7431 9.48712 26.2054 9.94554 26.6677 10.4018L26.8082 10.2595C26.3458 9.80318 25.8855 9.3466 25.4378 8.8782L25.2933 9.01637ZM25.0664 7.89791C24.8155 8.2933 25.0125 8.72263 25.2933 9.01638L25.4378 8.87819C25.1779 8.60622 25.0604 8.28064 25.2353 8.00509L25.0664 7.89791ZM25.9064 7.2682C25.7399 7.29413 25.573 7.38549 25.4295 7.49902C25.285 7.6134 25.1561 7.75668 25.0664 7.89793L25.2353 8.00507C25.3124 7.88358 25.4259 7.7569 25.5536 7.65586C25.6824 7.55397 25.8176 7.48445 25.9372 7.46582L25.9064 7.2682ZM26.8543 7.64232C26.7332 7.53552 26.575 7.4318 26.4106 7.35975C26.2482 7.2886 26.0678 7.2431 25.9064 7.2682L25.9371 7.46582C26.0444 7.44914 26.1835 7.47858 26.3303 7.54293C26.4751 7.60638 26.6159 7.69871 26.7221 7.79235L26.8543 7.64232ZM27.8639 8.66227C27.5222 8.29377 27.2041 7.95067 26.8543 7.64232L26.7221 7.79235C27.063 8.09287 27.3742 8.42833 27.7172 8.79826L27.8639 8.66227ZM28.3236 9.15276C28.1624 8.98428 28.0109 8.82083 27.8639 8.66227L27.7172 8.79826C27.8641 8.95668 28.0167 9.12124 28.1791 9.29102L28.3236 9.15276ZM20.5483 3.02533C22.8615 3.0537 24.6608 3.56104 25.9305 4.57694C27.1978 5.59096 27.9514 7.12293 28.1518 9.23135L28.3509 9.21243C28.1468 7.06446 27.3751 5.47667 26.0554 4.42078C24.7381 3.36676 22.8887 2.85402 20.5507 2.82535L20.5483 3.02533ZM27.1473 10.5641C25.2889 10.8644 23.525 10.033 22.2925 8.58403C21.06 7.13505 20.3658 5.07522 20.6487 2.93846L20.4504 2.91222C20.1598 5.10737 20.8725 7.22332 22.1402 8.71361C23.4079 10.2039 25.2376 11.0753 27.1792 10.7615L27.1473 10.5641ZM26.9377 10.6193C26.989 10.6568 27.0433 10.6965 27.1021 10.7419L27.2244 10.5837C27.1631 10.5363 27.1068 10.4952 27.0557 10.4578L26.9377 10.6193ZM26.6677 10.4018C26.7477 10.4808 26.8387 10.547 26.9377 10.6193L27.0557 10.4578C26.954 10.3835 26.8757 10.3261 26.8082 10.2595L26.6677 10.4018ZM30.7941 14.6822C31.3237 12.341 32.4474 10.4393 34.6743 9.3436L34.586 9.16414C32.2892 10.2942 31.1375 12.2574 30.599 14.6381L30.7941 14.6822ZM30.5561 16.0862C30.6233 15.612 30.6899 15.1425 30.7941 14.6822L30.599 14.6381C30.4928 15.1077 30.4251 15.5853 30.3581 16.0582L30.5561 16.0862ZM30.46 16.7369C30.4945 16.5201 30.5254 16.3027 30.5561 16.0862L30.3581 16.0582C30.3273 16.2749 30.2967 16.4907 30.2625 16.7054L30.46 16.7369ZM32.542 14.5606C31.8272 15.2653 31.1116 15.9707 30.2975 16.6441L30.425 16.7982C31.2468 16.1184 31.9684 15.407 32.6824 14.703L32.542 14.5606ZM32.8301 14.2769C32.734 14.3714 32.638 14.466 32.542 14.5606L32.6824 14.703C32.7784 14.6084 32.8743 14.5139 32.9703 14.4195L32.8301 14.2769ZM34.4423 14.1751C34.2213 13.9461 33.9515 13.8348 33.6648 13.8538C33.3806 13.8726 33.0932 14.0184 32.8301 14.2769L32.9703 14.4195C33.2096 14.1845 33.4543 14.0681 33.678 14.0533C33.8993 14.0387 34.1134 14.1224 34.2984 14.314L34.4423 14.1751ZM34.3248 15.7501C34.5681 15.4992 34.7067 15.2187 34.7284 14.9407C34.7503 14.6609 34.6529 14.3933 34.4423 14.1751L34.2984 14.314C34.4714 14.4933 34.5462 14.7054 34.5291 14.9251C34.5117 15.1466 34.3999 15.3854 34.1812 15.6109L34.3248 15.7501ZM32.9436 17.1301C33.4101 16.6766 33.8717 16.2175 34.3248 15.7501L34.1812 15.6109C33.7298 16.0765 33.2696 16.5342 32.8042 16.9867L32.9436 17.1301ZM32.1415 17.8846C32.4102 17.6359 32.68 17.3863 32.9436 17.1301L32.8042 16.9867C32.5427 17.2409 32.2747 17.4889 32.0057 17.7378L32.1415 17.8846ZM31.7874 18.2133C31.905 18.1034 32.0232 17.9941 32.1415 17.8846L32.0057 17.7378C31.8874 17.8472 31.7689 17.9569 31.6509 18.0671L31.7874 18.2133ZM31.9156 18.295L31.8073 18.093L31.631 18.1874L31.7393 18.3895L31.9156 18.295ZM32.798 18.0711C32.4685 18.1262 32.1377 18.1815 31.8088 18.244L31.8461 18.4405C32.1725 18.3785 32.5011 18.3236 32.831 18.2684L32.798 18.0711ZM34.9502 17.6312C34.2499 17.8283 33.5271 17.9492 32.798 18.0711L32.831 18.2684C33.5583 18.1468 34.2919 18.0243 35.0044 17.8237L34.9502 17.6312ZM39.4813 13.8815C38.5973 15.8796 37.0025 17.0534 34.9502 17.6312L35.0044 17.8237C37.1031 17.2329 38.7518 16.0247 39.6642 13.9624L39.4813 13.8815ZM40.4642 8.03429C40.5214 10.1167 40.2912 12.0511 39.4813 13.8815L39.6642 13.9624C40.4902 12.0957 40.7218 10.129 40.6642 8.02881L40.4642 8.03429ZM39.9714 8.16216C40.1671 8.15278 40.3664 8.14322 40.57 8.13138L40.5584 7.93172C40.356 7.94349 40.1577 7.953 39.9618 7.96239L39.9714 8.16216ZM38.7404 8.24175C39.1434 8.20188 39.5489 8.18242 39.9714 8.16216L39.9618 7.96239C39.5402 7.9826 39.1296 8.00227 38.7207 8.04273L38.7404 8.24175ZM34.6743 9.3436C35.9571 8.7124 37.3221 8.38187 38.7404 8.24176L38.7207 8.04272C37.2843 8.18464 35.8949 8.5201 34.586 9.16414L34.6743 9.3436ZM50.4961 27.3184C47.8302 24.3251 44.4981 22.6993 40.4912 22.6116L40.4868 22.8115C44.4351 22.8979 47.7156 24.4972 50.3468 27.4514L50.4961 27.3184ZM51.3131 44.0481C54.9035 39.1869 54.5534 31.8737 50.4961 27.3184L50.3468 27.4514C54.3418 31.9368 54.6858 39.145 51.1523 43.9293L51.3131 44.0481ZM45.7551 48.6114C48.0234 47.5984 49.8406 46.042 51.3131 44.0481L51.1523 43.9293C49.6976 45.8989 47.9066 47.4315 45.6736 48.4288L45.7551 48.6114ZM38.7003 49.7172C41.1518 49.9889 43.5066 49.6157 45.7552 48.6114L45.6736 48.4288C43.4573 49.4187 41.1382 49.7862 38.7223 49.5184L38.7003 49.7172ZM31.9649 47.0326C34.0222 48.5441 36.2399 49.4446 38.7003 49.7172L38.7223 49.5184C36.2992 49.25 34.1143 48.3636 32.0833 46.8714L31.9649 47.0326ZM32.1255 47.5109C32.1248 47.3318 32.1241 47.1466 32.1241 46.952H31.9241C31.9241 47.147 31.9248 47.3326 31.9255 47.5117L32.1255 47.5109ZM32.1224 48.5978C32.1283 48.2447 32.127 47.8916 32.1255 47.5109L31.9255 47.5117C31.927 47.8928 31.9283 48.2437 31.9224 48.5944L32.1224 48.5978ZM30.9023 49.8088C31.2906 49.8086 31.5975 49.7124 31.8081 49.5017C32.0185 49.2914 32.1159 48.9838 32.1224 48.5978L31.9224 48.5944C31.9164 48.9516 31.8268 49.2002 31.6667 49.3603C31.5069 49.5201 31.2599 49.6086 30.9022 49.6088L30.9023 49.8088ZM6.12037 49.8087C14.3811 49.8124 22.6417 49.8123 30.9023 49.8088L30.9022 49.6088C22.6416 49.6123 14.3811 49.6124 6.12046 49.6087L6.12037 49.8087ZM4.90548 48.5925C4.90698 48.9801 5.00357 49.289 5.21421 49.5003C5.42498 49.7117 5.733 49.8085 6.12037 49.8087L6.12045 49.6087C5.76385 49.6085 5.51584 49.5196 5.35586 49.3591C5.19576 49.1985 5.10687 48.9492 5.10548 48.5917L4.90548 48.5925ZM4.90558 42.8362C4.89816 44.755 4.89816 46.6738 4.90548 48.5925L5.10548 48.5917C5.09816 46.6735 5.09816 44.7553 5.10558 42.837L4.90558 42.8362ZM6.11982 41.6213C5.73229 41.6272 5.42452 41.7232 5.214 41.9325C5.00317 42.1421 4.90709 42.4482 4.90558 42.8362L5.10558 42.837C5.10697 42.479 5.19538 42.2331 5.35502 42.0743C5.51497 41.9153 5.76363 41.8267 6.12286 41.8213L6.11982 41.6213ZM7.27673 41.6183C6.88389 41.6169 6.50189 41.6155 6.11983 41.6213L6.12285 41.8213C6.50272 41.8155 6.88284 41.8169 7.276 41.8183L7.27673 41.6183ZM7.82025 41.6196C7.63596 41.6196 7.45521 41.619 7.27672 41.6183L7.276 41.8183C7.45444 41.819 7.63554 41.8196 7.82025 41.8196V41.6196ZM7.72025 37.5334V41.7196H7.92025V37.5334H7.72025ZM7.31517 37.6341C7.48382 37.6337 7.65217 37.6334 7.82025 37.6334V37.4334C7.65192 37.4334 7.48335 37.4337 7.31474 37.4341L7.31517 37.6341ZM6.17597 37.6324C6.55627 37.6357 6.93648 37.6349 7.31516 37.6341L7.31474 37.4341C6.93587 37.4349 6.55674 37.4357 6.1777 37.4324L6.17597 37.6324ZM4.90466 36.3754C4.90583 36.7893 4.99864 37.1086 5.21716 37.3234C5.43518 37.5378 5.75868 37.6288 6.17596 37.6324L6.17772 37.4324C5.78345 37.429 5.522 37.3427 5.35738 37.1808C5.19325 37.0194 5.10575 36.7636 5.10465 36.3748L4.90466 36.3754ZM4.90445 30.7146C4.89981 32.6015 4.89929 34.4884 4.90466 36.3754L5.10465 36.3748C5.09929 34.4883 5.09981 32.6017 5.10445 30.7151L4.90445 30.7146ZM6.20792 29.4427C5.77491 29.4439 5.44281 29.5321 5.22043 29.7482C4.99736 29.965 4.90551 30.29 4.90445 30.7146L5.10445 30.7151C5.10545 30.3138 5.19283 30.0539 5.35981 29.8916C5.52746 29.7287 5.79621 29.6438 6.20848 29.6427L6.20792 29.4427ZM9.0095 29.4412C8.07581 29.4407 7.14188 29.4401 6.20793 29.4427L6.20847 29.6427C7.14204 29.6401 8.07563 29.6407 9.00938 29.6412L9.0095 29.4412ZM10.2037 29.4417C9.80566 29.4417 9.4076 29.4415 9.0095 29.4412L9.00938 29.6412C9.40747 29.6415 9.80559 29.6417 10.2037 29.6417V29.4417ZM10.6882 29.4417H10.2037V29.6417H10.6882V29.4417ZM10.5882 16.2751V29.5417H10.7882V16.2751H10.5882ZM10.4435 16.3784C10.5247 16.3768 10.6059 16.3751 10.6882 16.3751V16.1751C10.6035 16.1751 10.5204 16.1768 10.4394 16.1784L10.4435 16.3784ZM9.92316 16.3718C10.0966 16.3856 10.2706 16.3819 10.4435 16.3784L10.4394 16.1784C10.2648 16.182 10.1008 16.1853 9.93897 16.1724L9.92316 16.3718ZM9.05403 14.7228C8.81161 15.0943 8.79669 15.4907 8.9669 15.806C9.13631 16.1197 9.48018 16.3367 9.92316 16.3718L9.93896 16.1724C9.55266 16.1418 9.27516 15.9559 9.14288 15.7109C9.01141 15.4674 9.01449 15.1494 9.22153 14.8321L9.05403 14.7228ZM13.0835 8.66695C11.724 10.6744 10.3791 12.6922 9.05403 14.7228L9.22153 14.8321C10.5459 12.8026 11.8902 10.7857 13.2491 8.77909L13.0835 8.66695ZM14.8113 8.67048C14.5936 8.34878 14.2734 8.18123 13.9474 8.18041C13.6214 8.17958 13.3011 8.3456 13.0835 8.66695L13.2491 8.77908C13.4323 8.50852 13.6924 8.37976 13.9469 8.38041C14.2015 8.38105 14.4621 8.51122 14.6457 8.78258L14.8113 8.67048ZM18.8404 14.7267C17.5153 12.6961 16.1703 10.6783 14.8113 8.67048L14.6457 8.78258C16.0041 10.7896 17.3485 12.8065 18.6729 14.836L18.8404 14.7267ZM18.0132 16.3673C18.4412 16.3254 18.7714 16.1049 18.9323 15.793C19.0938 15.48 19.0772 15.0895 18.8404 14.7267L18.6729 14.836C18.8743 15.1447 18.8799 15.4585 18.7546 15.7013C18.6287 15.9452 18.3632 16.1321 17.9937 16.1683L18.0132 16.3673ZM17.4738 16.3759C17.6622 16.3802 17.8383 16.3844 18.0132 16.3673L17.9938 16.1683C17.8329 16.184 17.6692 16.1804 17.4784 16.176L17.4738 16.3759ZM17.1807 16.3716C17.284 16.3716 17.3806 16.3738 17.4738 16.3759L17.4784 16.176C17.3855 16.1739 17.2866 16.1716 17.1807 16.1716V16.3716ZM17.2807 16.8132V16.2716H17.0807V16.8132H17.2807ZM17.2812 18.7595C17.2809 17.8522 17.2807 17.1526 17.2807 16.8132L17.0807 16.8132C17.0807 17.1526 17.0809 17.8523 17.0812 18.7596L17.2812 18.7595ZM17.2785 29.5106C17.284 28.0005 17.2822 22.0306 17.2812 18.7595L17.0812 18.7596C17.0822 22.031 17.084 28.0003 17.0785 29.5099L17.2785 29.5106ZM28.3814 29.4103H17.1785V29.6103H28.3814V29.4103ZM28.2814 25.864V29.5103H28.4814V25.864H28.2814ZM28.0561 26.1671C28.1795 26.0957 28.3041 26.0236 28.4311 25.9508L28.3316 25.7773C28.2043 25.8503 28.0793 25.9226 27.9559 25.994L28.0561 26.1671ZM27.278 26.6109C27.5374 26.4671 27.794 26.3187 28.0561 26.1671L27.9559 25.994C27.6935 26.1457 27.4385 26.2932 27.181 26.436L27.278 26.6109ZM21.6794 26.418C23.4692 27.5535 25.3752 27.6654 27.278 26.6109L27.181 26.436C25.3452 27.4533 23.5175 27.3473 21.7865 26.2491L21.6794 26.418ZM19.5756 24.675C20.2368 25.2962 20.9126 25.9315 21.6794 26.418L21.7865 26.2491C21.0385 25.7745 20.3763 25.1529 19.7125 24.5293L19.5756 24.675ZM19.2438 24.3644C19.3544 24.4672 19.4648 24.5709 19.5756 24.675L19.7125 24.5293C19.6018 24.4252 19.491 24.3212 19.38 24.218L19.2438 24.3644ZM19.1313 22.9413C18.9438 23.1593 18.8508 23.4062 18.8692 23.6583C18.8876 23.9099 19.0159 24.1524 19.2438 24.3644L19.38 24.218C19.1803 24.0322 19.0826 23.8341 19.0687 23.6437C19.0548 23.4538 19.1232 23.2573 19.2829 23.0718L19.1313 22.9413ZM24.0578 20.0034C22.0059 20.3005 20.4372 21.4246 19.1313 22.9413L19.2829 23.0718C20.5686 21.5784 22.0971 20.4894 24.0865 20.2013L24.0578 20.0034ZM27.828 20.9378C26.6764 20.2517 25.4447 19.8026 24.0578 20.0034L24.0865 20.2013C25.4096 20.0097 26.5938 20.4354 27.7257 21.1096L27.828 20.9378ZM28.213 21.1831C28.0767 21.0935 27.9542 21.0129 27.828 20.9378L27.7257 21.1096C27.8474 21.1821 27.9661 21.2601 28.1031 21.3502L28.213 21.1831ZM28.4308 21.3254C28.3528 21.275 28.2811 21.2278 28.213 21.1831L28.1031 21.3502C28.1712 21.3949 28.2436 21.4425 28.3224 21.4934L28.4308 21.3254ZM28.2766 12.7806V21.4094H28.4766V12.7806H28.2766ZM27.5246 12.808C27.8049 12.8303 28.0855 12.8526 28.3669 12.8802L28.3864 12.6811C28.1029 12.6534 27.8205 12.6309 27.5405 12.6086L27.5246 12.808ZM25.7073 12.6098C26.3073 12.7112 26.9155 12.7595 27.5246 12.808L27.5405 12.6086C26.9299 12.56 26.3305 12.5122 25.7406 12.4126L25.7073 12.6098ZM20.1196 9.38583C21.4812 11.3349 23.4649 12.231 25.7073 12.6098L25.7406 12.4126C23.5309 12.0393 21.6044 11.162 20.2835 9.27129L20.1196 9.38583ZM18.622 5.12503C18.7964 6.644 19.2241 8.10391 20.1196 9.38582L20.2835 9.27129C19.4125 8.02439 18.9925 6.59917 18.8207 5.10222L18.622 5.12503ZM18.5335 3.27905C18.5426 3.89258 18.5517 4.51184 18.622 5.12502L18.8207 5.10223C18.7517 4.5006 18.7426 3.89133 18.7335 3.27609L18.5335 3.27905ZM18.5126 2.36633C18.5245 2.66944 18.529 2.97354 18.5335 3.27905L18.7335 3.27609C18.729 2.97099 18.7245 2.66444 18.7124 2.35848L18.5126 2.36633ZM19.4308 0.905681C19.089 1.02606 18.8491 1.21759 18.7 1.47191C18.552 1.72443 18.4993 2.02894 18.5126 2.36633L18.7124 2.35848C18.7001 2.04495 18.75 1.78209 18.8726 1.57305C18.9941 1.36582 19.1927 1.2016 19.4972 1.09432L19.4308 0.905681ZM21.5571 0.9H19.464V1.1H21.5571V0.9ZM22.4125 1.04974C22.1322 1.00222 21.8532 0.954912 21.5759 0.901786L21.5382 1.09821C21.818 1.15181 22.0991 1.19947 22.3791 1.24692L22.4125 1.04974ZM24.233 1.42208C23.6348 1.25685 23.0207 1.15284 22.4125 1.04974L22.3791 1.24692C22.989 1.35032 23.593 1.45279 24.1797 1.61486L24.233 1.42208ZM30.2109 8.43325C29.9168 6.67619 29.3154 5.16896 28.3384 3.97709C27.3608 2.78438 26.0117 1.91341 24.233 1.42208L24.1797 1.61486C25.9231 2.09642 27.235 2.94648 28.1838 4.10388C29.1332 5.26214 29.7237 6.73411 30.0136 8.46626L30.2109 8.43325ZM30.3112 9.24409C30.2838 8.97561 30.256 8.70314 30.2109 8.43325L30.0136 8.46625C30.0575 8.72877 30.0847 8.99485 30.1123 9.2644L30.3112 9.24409ZM30.3303 9.42927C30.3238 9.36767 30.3175 9.30598 30.3112 9.24409L30.1123 9.2644C30.1186 9.32624 30.1249 9.38826 30.1314 9.45025L30.3303 9.42927ZM30.3969 10.1303C30.3752 9.88833 30.3545 9.65869 30.3303 9.42927L30.1314 9.45025C30.1555 9.67786 30.1759 9.90594 30.1977 10.1482L30.3969 10.1303ZM30.4271 10.4633C30.4165 10.3489 30.4066 10.2384 30.3969 10.1303L30.1977 10.1482C30.2074 10.2562 30.2174 10.3671 30.228 10.4817L30.4271 10.4633ZM30.3387 10.3514C30.3207 10.3609 30.2975 10.373 30.2738 10.3881L30.3812 10.5568C30.3969 10.5468 30.413 10.5383 30.4318 10.5284L30.3387 10.3514ZM30.3888 10.3213C30.3896 10.3202 30.3882 10.3227 30.3793 10.3287C30.3698 10.335 30.3578 10.3414 30.3387 10.3514L30.4318 10.5284C30.4611 10.513 30.5176 10.4859 30.5524 10.4363L30.3888 10.3213ZM36.594 6.46805C34.0832 7.02476 31.9133 8.14974 30.3888 10.3213L30.5525 10.4363C32.0403 8.31691 34.1597 7.21265 36.6373 6.66331L36.594 6.46805ZM41.2467 6.06312C39.675 5.97225 38.1258 6.12852 36.594 6.46805L36.6373 6.66331C38.1538 6.32716 39.6845 6.17313 41.2352 6.26278L41.2467 6.06312ZM42.5184 7.27658C42.4889 6.86032 42.3958 6.56 42.1826 6.36155C41.9708 6.16445 41.6604 6.08699 41.2467 6.06312L41.2352 6.26278C41.6384 6.28605 41.888 6.36065 42.0463 6.50797C42.2032 6.65394 42.2905 6.89039 42.3189 7.29074L42.5184 7.27658ZM41.0428 15.4459C42.4258 12.8818 42.7199 10.1143 42.5184 7.27658L42.3189 7.29074C42.5188 10.1061 42.2256 12.8317 40.8668 15.351L41.0428 15.4459ZM36.0938 19.4786C38.2114 18.721 39.9502 17.4717 41.0428 15.4459L40.8668 15.351C39.8029 17.3234 38.1092 18.5452 36.0264 19.2903L36.0938 19.4786ZM30.878 20.3124C32.654 20.2944 34.4049 20.0828 36.0938 19.4786L36.0265 19.2903C34.365 19.8847 32.6378 20.0946 30.8759 20.1124L30.878 20.3124ZM30.7636 20.3134C30.8016 20.3131 30.8398 20.3128 30.878 20.3124L30.876 20.1124C30.8381 20.1128 30.8002 20.1131 30.7622 20.1134L30.7636 20.3134ZM30.4523 20.318C30.5554 20.3148 30.6588 20.3141 30.7636 20.3134L30.7622 20.1134C30.6578 20.1141 30.5521 20.1148 30.4462 20.1181L30.4523 20.318ZM30.4264 20.3292C30.4329 20.3264 30.438 20.3243 30.4426 20.3224C30.4471 20.3205 30.4503 20.3194 30.4527 20.3186C30.4574 20.317 30.4564 20.3178 30.4525 20.318L30.446 20.1181C30.4049 20.1194 30.3677 20.1368 30.3479 20.1452L30.4264 20.3292ZM30.3713 20.3513C30.3938 20.3431 30.4123 20.3352 30.4264 20.3292L30.3479 20.1452C30.3339 20.1512 30.3198 20.1572 30.303 20.1633L30.3713 20.3513ZM30.4371 26.9736V20.2573H30.2371V26.9736H30.4371ZM40.4912 22.6116C36.4962 22.524 33.1028 24.0225 30.2659 26.9034L30.4084 27.0438C33.2101 24.1986 36.5516 22.7253 40.4868 22.8115L40.4912 22.6116ZM41.2222 35.2671C40.9452 35.1918 40.6582 35.1597 40.3799 35.1283L40.3575 35.3271C40.6385 35.3587 40.91 35.3895 41.1697 35.4601L41.2222 35.2671ZM43.7476 38.3295C43.6851 36.8711 42.7117 35.672 41.2222 35.2671L41.1697 35.4601C42.5795 35.8433 43.4892 36.971 43.5478 38.3381L43.7476 38.3295ZM41.5269 41.5311C42.9292 40.9665 43.8077 39.7292 43.7476 38.3295L43.5478 38.3381C43.6037 39.6414 42.7873 40.8081 41.4522 41.3456L41.5269 41.5311ZM41.1935 41.8747C41.2572 41.7326 41.3969 41.5834 41.5268 41.5312L41.4522 41.3456C41.264 41.4213 41.0909 41.6147 41.011 41.7929L41.1935 41.8747ZM40.1959 42.5771C40.4373 42.5787 40.64 42.5134 40.8073 42.3886C40.9732 42.2649 41.098 42.0874 41.1935 41.8747L41.0111 41.7928C40.9247 41.9851 40.8183 42.1309 40.6877 42.2283C40.5586 42.3246 40.3993 42.3785 40.1973 42.3771L40.1959 42.5771ZM39.2063 41.8623C39.3015 42.0726 39.424 42.2512 39.5875 42.3777C39.7526 42.5054 39.9535 42.5753 40.1958 42.5771L40.1973 42.3771C39.9955 42.3756 39.8378 42.3185 39.7099 42.2195C39.5803 42.1193 39.4752 41.9715 39.3885 41.7799L39.2063 41.8623ZM38.8599 41.5259C38.9998 41.5879 39.1455 41.7278 39.2063 41.8623L39.3885 41.7799C39.306 41.5974 39.1224 41.4235 38.941 41.343L38.8599 41.5259ZM36.6676 38.6073C36.7183 39.3256 36.9476 39.9158 37.3266 40.3974C37.7049 40.8781 38.2283 41.2455 38.8599 41.5258L38.9411 41.343C38.3306 41.0721 37.8368 40.7224 37.4838 40.2737C37.1314 39.8261 36.9152 39.2748 36.8671 38.5933L36.6676 38.6073ZM37.5689 37.4174C37.2795 37.4484 37.0394 37.5773 36.8788 37.7882C36.7189 37.9982 36.6446 38.2804 36.6676 38.6073L36.8671 38.5933C36.8467 38.304 36.9135 38.0728 37.0379 37.9094C37.1618 37.7467 37.3495 37.642 37.5902 37.6163L37.5689 37.4174ZM38.715 38.3636C38.6806 38.0299 38.5507 37.7735 38.3435 37.6097C38.1368 37.4464 37.866 37.3855 37.5689 37.4174L37.5902 37.6163C37.8483 37.5886 38.0631 37.6431 38.2195 37.7667C38.3753 37.8898 38.4859 38.0916 38.5161 38.3841L38.715 38.3636ZM40.4318 39.6353C40.06 39.6844 39.6541 39.6104 39.3306 39.4029C39.0099 39.1971 38.7661 38.8579 38.715 38.3636L38.5161 38.3841C38.5736 38.9406 38.8521 39.3335 39.2226 39.5712C39.5903 39.8072 40.0448 39.8881 40.458 39.8335L40.4318 39.6353ZM41.646 38.4515C41.6391 39.0403 41.1341 39.5426 40.4318 39.6353L40.4579 39.8335C41.2331 39.7313 41.8376 39.166 41.846 38.4538L41.646 38.4515ZM40.464 37.2331C41.173 37.3622 41.6529 37.8558 41.646 38.4515L41.846 38.4538C41.8543 37.7333 41.2751 37.1775 40.4998 37.0363L40.464 37.2331ZM40.0665 37.1656C40.2005 37.1876 40.3331 37.2093 40.464 37.2331L40.4998 37.0363C40.3669 37.0122 40.2326 36.9901 40.0988 36.9682L40.0665 37.1656ZM38.5217 36.7673C39.0013 36.9916 39.5456 37.0801 40.0665 37.1656L40.0988 36.9682C39.5723 36.8819 39.0565 36.7966 38.6064 36.5861L38.5217 36.7673ZM36.6684 33.7438C36.6392 34.4413 36.7907 35.0531 37.1081 35.564C37.4254 36.0748 37.9047 36.4789 38.5217 36.7673L38.6064 36.5861C38.0187 36.3114 37.5717 35.9313 37.278 35.4585C36.9844 34.9859 36.8405 34.4149 36.8682 33.7521L36.6684 33.7438ZM38.7495 30.8565C38.1334 31.1316 37.627 31.5011 37.2673 31.9803C36.9069 32.4602 36.6976 33.0452 36.6684 33.7438L36.8682 33.7521C36.8959 33.0907 37.0931 32.5455 37.4272 32.1003C37.762 31.6544 38.2381 31.3039 38.8311 31.0391L38.7495 30.8565ZM38.7561 30.8536L38.7496 30.8565L38.8311 31.0392L38.8376 31.0362L38.7561 30.8536ZM39.2267 30.3725C39.1993 30.5265 39.1437 30.6142 39.0717 30.678C38.9943 30.7464 38.893 30.7925 38.7562 30.8536L38.8376 31.0362C38.9675 30.9783 39.0995 30.9204 39.2042 30.8278C39.3141 30.7306 39.3893 30.6003 39.4236 30.4076L39.2267 30.3725ZM40.1882 29.6221C39.9473 29.6247 39.7287 29.6881 39.5579 29.8157C39.386 29.9443 39.2694 30.1331 39.2267 30.3725L39.4236 30.4076C39.458 30.2148 39.549 30.0721 39.6777 29.9759C39.8075 29.8788 39.9824 29.8244 40.1903 29.8221L40.1882 29.6221ZM41.1924 30.3838C41.1406 30.1366 41.0195 29.9422 40.8416 29.8113C40.6647 29.6811 40.4396 29.6194 40.1882 29.6221L40.1903 29.8221C40.4083 29.8198 40.5884 29.8732 40.7231 29.9724C40.8569 30.0709 40.9537 30.2201 40.9967 30.4248L41.1924 30.3838ZM41.6328 30.8432C41.5011 30.7861 41.4077 30.7381 41.3383 30.6724C41.2723 30.6099 41.2221 30.5253 41.1924 30.3838L40.9967 30.4248C41.0332 30.5988 41.1002 30.7223 41.2008 30.8176C41.298 30.9097 41.4208 30.9693 41.5532 31.0267L41.6328 30.8432ZM43.7448 33.5538C43.6435 32.3478 42.8959 31.391 41.6328 30.8432L41.5532 31.0267C42.7604 31.5502 43.4514 32.4497 43.5455 33.5705L43.7448 33.5538ZM42.8348 34.8976C43.12 34.8663 43.3565 34.7414 43.517 34.5111C43.6752 34.2841 43.7519 33.9659 43.7451 33.5605L43.5451 33.5638C43.5515 33.9456 43.4783 34.2168 43.3529 34.3967C43.2299 34.5733 43.0491 34.6729 42.813 34.6988L42.8348 34.8976ZM41.6944 34.005C41.7613 34.3105 41.8955 34.5518 42.0938 34.7083C42.2933 34.8658 42.547 34.9291 42.8348 34.8976L42.813 34.6988C42.5682 34.7256 42.3693 34.671 42.2177 34.5514C42.065 34.4308 41.9496 34.2357 41.8898 33.9623L41.6944 34.005ZM39.8817 32.6893C40.3716 32.606 40.7652 32.6831 41.063 32.8984C41.362 33.1145 41.5796 33.4806 41.6944 34.005L41.8898 33.9623C41.7682 33.407 41.5313 32.9901 41.1802 32.7363C40.828 32.4818 40.3762 32.4023 39.8481 32.4921L39.8817 32.6893ZM38.7622 33.8675C38.7689 33.3094 39.2394 32.7984 39.8817 32.6893L39.8482 32.4921C39.1279 32.6145 38.5703 33.1939 38.5622 33.8651L38.7622 33.8675ZM39.8552 35.0585C39.2027 34.9443 38.7554 34.4326 38.7622 33.8675L38.5622 33.8651C38.5541 34.543 39.087 35.1271 39.8207 35.2555L39.8552 35.0585ZM40.3799 35.1283C40.2017 35.1083 40.027 35.0886 39.8552 35.0585L39.8207 35.2555C39.9995 35.2868 40.1804 35.3071 40.3575 35.3271L40.3799 35.1283Z"/>
</g>
</g>
</svg>
