<svg width="49" height="49" viewBox="0 0 49 49" xmlns="http://www.w3.org/2000/svg">
<mask id="mask0" mask-type="alpha" maskUnits="userSpaceOnUse" x="0" y="0" width="49" height="49">
<path fill-rule="evenodd" clip-rule="evenodd" d="M0 0.103027H48.6892V48.8145H0V0.103027Z"/>
</mask>
<g mask="url(#mask0)">
<path fill-rule="evenodd" clip-rule="evenodd" d="M35.0956 46.9082C28.6914 46.8159 23.5157 41.553 23.5999 35.2191C23.6852 28.8073 28.9194 23.6387 35.2658 23.6995C41.6633 23.7606 46.8764 29.0181 46.8095 35.3415C46.7412 41.7983 41.4731 47.0003 35.0956 46.9082ZM25.1129 46.8869H22.0754C22.0754 46.2174 22.0762 45.5429 22.0751 44.8686C22.0744 44.3976 21.8966 44.0279 21.4321 43.8638C20.7967 43.6395 20.2031 44.0812 20.1782 44.8122C20.155 45.4905 20.1733 46.1702 20.1733 46.8803H14.4634C14.4634 46.1906 14.4779 45.5131 14.4596 44.8365C14.4388 44.0788 13.8316 43.6221 13.1854 43.8683C12.7481 44.0349 12.5643 44.3888 12.5607 44.8403C12.5554 45.5055 12.5593 46.1708 12.5593 46.8737H6.85197C6.85197 46.1937 6.86961 45.5021 6.84722 44.8119C6.82298 44.0661 6.18361 43.612 5.54888 43.8768C5.1186 44.0563 4.94881 44.4158 4.94881 44.8673V46.9H1.94526V42.7253C2.10227 42.7253 2.27 42.7253 2.43784 42.7253C9.44453 42.7261 16.4512 42.7295 23.458 42.72C23.7961 42.7196 23.9624 42.8781 24.2011 43.0851C25.4245 44.1463 25.0913 45.5349 25.1129 46.8869ZM1.93701 34.6949V30.5742H22.5287C22.3606 31.1453 22.1963 31.7038 22.0222 32.2958C21.9568 32.2405 21.8962 32.1986 21.8469 32.1461C21.5443 31.8236 21.1836 31.715 20.7709 31.8859C20.359 32.0562 20.1802 32.3976 20.1749 32.829C20.1675 33.4442 20.1731 34.0595 20.1731 34.7039H14.464C14.464 34.1054 14.4689 33.5236 14.4626 32.9419C14.4553 32.2547 14.0762 31.8058 13.5141 31.8047C12.9521 31.8036 12.5701 32.2533 12.5626 32.9389C12.5563 33.5211 12.5613 34.1035 12.5613 34.7092H6.85537C6.85537 34.0984 6.86073 33.5156 6.85393 32.933C6.84598 32.2523 6.45594 31.7995 5.89487 31.8047C5.33245 31.8099 4.95923 32.2577 4.95118 32.9471C4.94489 33.4857 4.94757 34.0244 4.9453 34.5631C4.94509 34.5942 4.9356 34.6251 4.92405 34.6949H1.93701ZM8.94669 10.0675C9.7178 11.2302 10.4472 12.3297 11.1836 13.4399C10.4501 13.7208 10.2827 13.9649 10.278 14.703C10.277 14.8774 10.2779 15.0518 10.2779 15.2262C10.2774 17.017 10.2736 26.5464 10.2776 28.6133H7.61399V28.0182C7.61482 23.6738 7.60946 19.3294 7.62287 14.9852C7.62503 14.2785 7.57314 13.6467 6.69568 13.4498C7.4574 12.3053 8.18147 11.2172 8.94669 10.0675ZM17.3181 39.1561C17.317 38.9663 17.3238 38.7729 17.2906 38.5876C17.2032 38.0982 16.7776 37.758 16.3168 37.7873C15.8464 37.8172 15.4669 38.1771 15.4298 38.6862C15.3975 39.128 15.4176 39.5735 15.4156 40.0174C15.4145 40.2677 15.4154 40.518 15.4154 40.7952H9.70965C9.70965 40.3095 9.71027 39.8098 9.70934 39.3101C9.70882 39.1041 9.72007 38.8965 9.69933 38.6923C9.64641 38.1697 9.24956 37.792 8.76596 37.7857C8.26482 37.7793 7.84961 38.1682 7.81422 38.7207C7.78689 39.1472 7.80556 39.5765 7.80432 40.0046C7.8037 40.2558 7.80422 40.5071 7.80422 40.7903H4.78355V36.6708H21.6517C22.0247 38.0704 22.3889 39.4365 22.7539 40.806H17.3192C17.3192 40.252 17.3213 39.704 17.3181 39.1561ZM19.9329 23.6915C20.2167 23.7113 20.503 23.6969 20.7881 23.6974C21.0569 23.6979 21.3257 23.6975 21.6074 23.6975C20.5553 25.0026 18.0743 24.539 16.2822 22.7025C18.0926 20.9597 20.0629 20.6071 21.7969 21.7952C21.1343 21.7952 20.5796 21.7926 20.025 21.7959C19.5763 21.7986 19.2152 21.9665 19.0387 22.4005C18.7857 23.0228 19.2151 23.6414 19.9329 23.6915ZM20.3655 8.05031C20.8143 8.51989 21.2756 8.97739 21.738 9.43366C21.8494 9.54362 21.9855 9.62852 22.1633 9.76583C18.3631 10.3799 14.9762 6.36028 15.5495 2.02837C20.2007 2.08541 22.8468 4.06852 23.2514 8.32492C22.7126 7.76178 22.2818 7.25548 21.7882 6.82036C21.5608 6.61992 21.1904 6.42826 20.9218 6.47004C20.6357 6.5146 20.3176 6.79179 20.1509 7.05453C19.938 7.39 20.0952 7.76745 20.3655 8.05031ZM25.6965 13.7632C26.2306 11.4022 27.3683 9.46976 29.6302 8.3569C30.926 7.71928 32.3032 7.38628 33.7306 7.24527C34.3249 7.18647 34.9236 7.17182 35.5642 7.13458C35.6216 9.2259 35.3907 11.1764 34.5728 13.025C33.6746 15.0551 32.0528 16.2462 29.9773 16.8305C28.9511 17.1193 27.8788 17.2455 26.8275 17.4453C26.7914 17.378 26.7553 17.3106 26.7191 17.2432C27.1046 16.8831 27.4958 16.529 27.8739 16.1614C28.3399 15.7084 28.8008 15.25 29.253 14.7835C29.715 14.3071 29.7539 13.745 29.3703 13.3476C28.9644 12.927 28.4026 12.9576 27.9002 13.4512C27.0891 14.2482 26.2891 15.0567 25.3613 15.8242C25.4707 15.1367 25.5432 14.4408 25.6965 13.7632ZM45.4215 26.4879C42.7729 23.5142 39.4666 21.9016 35.489 21.8146C31.5239 21.7277 28.1564 23.2136 25.3371 26.0766V19.3603C25.3924 19.3402 25.4206 19.322 25.4493 19.321C25.5917 19.3167 25.7344 19.3169 25.877 19.3155C27.6459 19.2975 29.385 19.0868 31.0601 18.4875C33.1603 17.7361 34.8766 16.5006 35.9548 14.5015C37.3257 11.9598 37.6193 9.21321 37.4187 6.38668C37.3607 5.57009 37.0579 5.31312 36.2409 5.26598C34.6797 5.17571 33.1398 5.33086 31.6156 5.66871C29.1215 6.22174 26.9768 7.33636 25.4706 9.48183C25.4433 9.52072 25.3857 9.53847 25.3275 9.5755C25.2932 9.20455 25.2658 8.87331 25.2309 8.54279C25.196 8.21227 25.167 7.8802 25.1123 7.55278C24.5283 4.06357 22.7285 1.59438 19.2064 0.621499C18.3415 0.382585 17.4411 0.272413 16.5571 0.103027H14.464C13.8177 0.330697 13.5869 0.814507 13.6125 1.46543C13.6485 2.38282 13.6171 3.30742 13.7214 4.21665C13.8945 5.72462 14.3183 7.16718 15.2016 8.43158C16.5428 10.3515 18.4979 11.2382 20.7239 11.6142C21.5923 11.7609 22.4795 11.7959 23.3766 11.8837V20.5124C23.1407 20.3601 22.9625 20.2373 22.7769 20.1267C21.6351 19.4466 20.4271 19.0092 19.0722 19.2054C17.0515 19.4979 15.5029 20.6045 14.2071 22.1096C13.8599 22.513 13.8842 22.9964 14.3119 23.3942C15.0854 24.1133 15.8489 24.8757 16.7329 25.4365C18.4933 26.5534 20.3602 26.6624 22.2295 25.6265C22.6095 25.4158 22.9839 25.1949 23.3814 24.9671V28.6133H12.1785C12.1855 26.6847 12.1806 17.4793 12.1807 15.9162V15.3746C12.4984 15.3746 12.7532 15.3953 13.0035 15.3708C13.801 15.2928 14.1948 14.5559 13.7566 13.8844C12.4319 11.8544 11.0872 9.83701 9.72852 7.82955C9.32714 7.2365 8.56707 7.23413 8.1663 7.82605C6.80709 9.83309 5.46253 11.8504 4.13778 13.8805C3.68832 14.5693 4.10178 15.3094 4.93106 15.3751C5.17699 15.3946 5.42581 15.3781 5.68824 15.3781V28.6448H5.20371C3.87194 28.6448 2.54007 28.6421 1.2082 28.6457C0.362922 28.6481 0.00651191 28.992 0.00444875 29.8179C-0.000193353 31.7046 -0.000709143 33.5914 0.00465507 35.4781C0.00692454 36.2808 0.365295 36.6283 1.17684 36.6355C1.72554 36.6402 2.27423 36.6364 2.82025 36.6364V40.8226C2.22946 40.8226 1.6753 40.8159 1.12134 40.8243C0.374579 40.8356 0.00847191 41.1936 0.00558349 41.9396C-0.00184388 43.8582 -0.00184388 45.7767 0.00548033 47.6951C0.00836875 48.4402 0.376436 48.8114 1.12041 48.8117C9.38109 48.8154 17.6417 48.8153 25.9022 48.8118C26.6483 48.8115 27.0099 48.4423 27.0224 47.6992C27.0311 47.1818 27.0241 46.6643 27.0241 46.055C29.0683 47.5569 31.2695 48.4503 33.7113 48.7208C36.145 48.9906 38.4819 48.6202 40.7144 47.6231C42.965 46.618 44.7691 45.0735 46.2327 43.0917C49.7946 38.269 49.4476 31.0083 45.4215 26.4879Z"/>
</g>
<path fill-rule="evenodd" clip-rule="evenodd" d="M36.1961 34.4668C35.7573 34.3474 35.2892 34.3392 34.8381 34.2601C34.145 34.1388 33.6549 33.591 33.6623 32.9694C33.6698 32.3548 34.1838 31.8096 34.8651 31.6939C35.883 31.5208 36.5559 32.0071 36.7923 33.0868C36.9189 33.6656 37.2914 33.9597 37.824 33.9014C38.3454 33.8441 38.6585 33.4525 38.6453 32.6653C38.5476 31.5019 37.8283 30.5738 36.5932 30.0381C36.329 29.9236 36.1609 29.823 36.0947 29.5075C35.9999 29.0556 35.6588 28.8202 35.1894 28.8253C34.7407 28.8301 34.4023 29.061 34.3253 29.4932C34.263 29.8428 34.0605 29.9305 33.7905 30.051C32.5814 30.5908 31.8254 31.4911 31.7685 32.8511C31.7115 34.2115 32.3595 35.2167 33.5642 35.7799C34.1479 36.0528 34.8343 36.1201 35.4821 36.2379C36.2242 36.373 36.7538 36.8977 36.7461 37.5558C36.7385 38.2064 36.1837 38.7401 35.445 38.8376C34.6601 38.9412 33.7243 38.5278 33.6157 37.477C33.551 36.8509 33.1349 36.5605 32.5797 36.62C32.0496 36.6767 31.7241 37.0873 31.7675 37.7035C31.8663 39.1033 32.6586 39.9863 33.9006 40.5376C34.0613 40.6089 34.2259 40.7658 34.2976 40.9243C34.4795 41.3262 34.7526 41.577 35.1967 41.5802C35.6402 41.5833 35.9206 41.3419 36.1024 40.9369C36.1742 40.7768 36.3306 40.6055 36.4897 40.5415C37.8584 39.9905 38.7058 38.7885 38.6479 37.437C38.5873 36.0243 37.6458 34.8608 36.1961 34.4668Z"/>
</svg>
