<svg width="50" height="48" viewBox="0 0 50 48" xmlns="http://www.w3.org/2000/svg">
<g clip-path="url(#clip0)">
<path d="M11.7 29.6C12.7 29.6 13.4 30.4 13.4 31.3C13.4 31.8 13.8 32.3 14.4 32.3C14.9 32.3 15.4 31.9 15.4 31.3C15.4 29.7 14.3 28.2001 12.7 27.7001V27.3C12.7 26.8 12.3 26.3 11.7 26.3C11.2 26.3 10.7 26.7 10.7 27.3V27.7001C8.69998 28.2001 7.59999 30.2001 8.09999 32.2001C8.59999 33.9001 9.99998 35 11.7 35C12.7 35 13.4 35.8001 13.4 36.7001C13.4 37.7001 12.6 38.4001 11.7 38.4001C10.7 38.4001 9.99998 37.6 9.99998 36.7001C9.99998 36.2001 9.59999 35.7001 8.99998 35.7001C8.49998 35.7001 7.99998 36.1 7.99998 36.7001C7.99998 38.4001 9.09998 39.8 10.7 40.3V41.1C10.7 41.6 11.1 42.1 11.7 42.1C12.2 42.1 12.7 41.7 12.7 41.1V40.2001C14.7 39.6 15.8 37.6 15.2 35.7001C14.8 34.1001 13.3 33 11.6 33C10.6 33 9.89998 32.2 9.89998 31.3C9.99998 30.3 10.7 29.6 11.7 29.6Z"/>
<path d="M45 29.5001C43 28.9001 40.5 28.5001 37.7 28.5001V25.1001C38 25.2001 38.3 25.3001 38.6 25.4001C38.7 25.4001 38.8 25.5001 39 25.5001C39.1 25.5001 39.3 25.5001 39.4 25.4001C50.2 21.8001 50 13.0001 49.9 6.7001C49.9 6.0001 49.9 5.4001 49.9 4.8001C49.9 4.2001 49.4 3.7001 48.8 3.7001C45.1 3.7001 42.3 2.6001 40 0.400098C39.6 9.76622e-05 38.9 9.76622e-05 38.4 0.400098C36.1 2.7001 33.3 3.7001 29.6 3.7001C29 3.7001 28.5 4.2001 28.5 4.8001C28.5 5.4001 28.5 6.1001 28.5 6.7001C28.5 8.9001 28.4 11.4001 28.8 13.9001C27.8 13.8001 26.8 13.8001 25.8 13.8001C22.8 13.8001 20 14.2001 17.8 14.8001C16 15.3001 13.9 16.4001 13.9 18.1001C13.9 18.2001 13.9 18.3001 13.9 18.4001L14 22.9001C7.7 21.7001 1.5 25.9001 0.3 32.2001C0.1 32.9001 0 33.6001 0 34.3001C0 40.8001 5.2 46.0001 11.7 46.0001C14.4 46.0001 17 45.1001 19.1 43.4001C20.9 43.8001 23.1 44.1001 25.3 44.1001C25.8 46.8001 31.7 48.0001 37.1 48.0001C40.1 48.0001 42.9 47.6001 45.1 47.0001C46.9 46.5001 49 45.4001 49 43.7001V33.0001C49 32.9001 49 32.9001 49 32.8001C48.9 31.4001 47.6 30.3001 45 29.5001ZM35.4 23.9001C35 24.2001 34.4 24.6001 33.2 24.9001C31.2 25.5001 28.5 25.8001 25.7 25.8001C23.3 25.8001 20.9 25.5001 19.1 25.1001C18.2 24.4001 17.1 23.8001 16 23.4001L15.9 20.6001C16.6 20.9001 17.3 21.2001 18 21.4001C20.1 22.0001 22.9 22.3001 25.7 22.3001C28.2 22.3001 30.5 22.1001 32.5 21.6001C33.2 22.5001 34.2 23.3001 35.4 23.9001ZM30.6 6.7001C30.6 6.4001 30.6 6.1001 30.6 5.8001C34 5.6001 36.7 4.6001 39.1 2.6001C41.5 4.6001 44.2 5.6001 47.6 5.8001C47.6 6.1001 47.6 6.4001 47.6 6.7001C47.7 12.9001 47.9 19.9001 39.1 23.1001C30.3 20.0001 30.4 12.9001 30.6 6.7001ZM18.2 16.7001C20.2 16.1001 22.8 15.8001 25.6 15.8001C26.8 15.8001 27.9 15.9001 29 16.0001C29.4 17.4001 30 18.8001 30.9 20.1001C29.3 20.4001 27.4 20.6001 25.5 20.6001C22.8 20.6001 20.2 20.3001 18.3 19.7001C16.2 19.1001 15.6 18.4001 15.6 18.2001C15.7 17.9001 16.1 17.3001 18.2 16.7001ZM18.2 41.5001C14.2 45.1001 8.1 44.8001 4.5 40.9001C0.9 36.9001 1.2 30.8001 5.1 27.2001C6.9 25.6001 9.2 24.7001 11.6 24.7001C12.6 24.7001 13.5 24.8001 14.5 25.1001C17.9 26.2001 20.4 29.0001 21.2 32.4001C21.3 33.0001 21.4 33.7001 21.4 34.4001C21.4 37.1001 20.3 39.7001 18.2 41.5001ZM20.7 41.8001C21.5 40.8001 22.1 39.8001 22.6 38.6001C23.4 38.7001 24.3 38.7001 25.2 38.7001V38.9001L25.3 42.2001C23.7 42.1001 22.2 42.0001 20.7 41.8001ZM23.3 33.2001C23.9 33.2001 24.5 33.3001 25.1 33.3001L25.2 36.8001C24.5 36.8001 23.8 36.8001 23.2 36.7001C23.3 35.9001 23.4 35.2001 23.4 34.4001C23.4 34.0001 23.3 33.6001 23.3 33.2001ZM25.7 31.3001C24.7 31.3001 23.8 31.3001 22.9 31.2001C22.5 29.9001 21.9 28.7001 21.2 27.6001C22.7 27.8001 24.1 27.9001 25.6 27.9001C28.6 27.9001 31.5 27.5001 33.7 26.9001C34.4 26.7001 35.1 26.4001 35.8 26.1001V28.7001C31.6 28.7001 27.3 29.6001 25.7 31.3001ZM27 32.9001C27 32.9001 27 32.8001 27 32.9001C27.1 32.6001 27.8 32.0001 29.8 31.4001C31.7 30.9001 34.2 30.6001 36.8 30.6001H37C39.8 30.6001 42.5 30.9001 44.5 31.5001C46.6 32.1001 47.1 32.8001 47.1 32.9001C47.1 33.0001 46.6 33.7001 44.4 34.4001C42.4 35.0001 39.8 35.3001 37 35.3001C34.3 35.3001 31.7 35.0001 29.8 34.4001C27.7 33.8001 27.1 33.1001 27 32.9001ZM44.5 45.1001C42.5 45.7001 39.9 46.1001 37.1 46.1001C34.3 46.1001 31.6 45.8001 29.7 45.2001C27.6 44.6001 27.2 43.9001 27.2 43.8001V41.0001C28 41.4001 28.8 41.7001 29.6 41.9001C31.6 42.4001 34.3 42.7001 36.9 42.7001C39.9 42.7001 42.8 42.3001 45 41.7001C45.7 41.5001 46.4 41.2001 47 40.9001V43.8001C47 43.8001 46.6 44.5001 44.5 45.1001ZM47.1 38.0001C47.1 38.0001 47.1 38.1001 47.1 38.2001C47.1 38.3001 47.1 38.3001 47.1 38.4001C47.1 38.5001 46.6 39.2001 44.5 39.8001C42.5 40.4001 39.8 40.7001 37 40.7001C31.6 40.7001 28 39.5001 27.2 38.5001V37.7001V35.5001C27.9 35.8001 28.6 36.1001 29.3 36.3001C31.4 36.9001 34.2 37.2001 37 37.2001C40 37.2001 42.8 36.8001 45 36.2001C45.7 36.0001 46.5 35.7001 47.1 35.4001V38.0001Z"/>
</g>
<defs>
<clipPath id="clip0">
<rect width="49.9" height="48" fill="white"/>
</clipPath>
</defs>
</svg>
