<svg width="68" height="46" viewBox="0 0 68 46" xmlns="http://www.w3.org/2000/svg">
<path fill-rule="evenodd" clip-rule="evenodd" d="M32.9573 43.9242H63.5757V41.9395H32.9573V43.9242ZM32.9356 39.8177H34.9288V32.724H32.9356V39.8177ZM29.9817 14.6267C30.1977 14.9236 30.6236 15.1124 30.9933 15.237C31.1921 15.304 31.4189 15.2876 31.6457 15.2712C31.7463 15.2639 31.847 15.2566 31.9451 15.2566L32.5412 15.2566L32.8805 15.2566V16.2532H11.3594C11.4025 16.1821 11.4402 16.1184 11.4749 16.0598C11.5418 15.9469 11.5974 15.8531 11.6577 15.7624C11.9973 15.2514 12.3368 14.7404 12.6763 14.2293L12.6779 14.2268L12.6782 14.2264C14.3905 11.6485 16.1028 9.07055 17.8324 6.50449C17.9808 6.28417 18.312 6.05437 18.5589 6.05347C25.1186 6.0322 31.6784 6.03364 38.2382 6.03508H38.2386L40.4751 6.03554C40.5356 6.03554 40.5962 6.04187 40.6913 6.05183C40.7481 6.05777 40.8172 6.065 40.9059 6.07295C40.7983 6.15106 40.7046 6.21988 40.6197 6.28226L40.6189 6.28282C40.4606 6.39907 40.3328 6.49292 40.2023 6.58288C38.9867 7.42039 37.7709 8.25758 36.5552 9.09477C34.5426 10.4806 32.5301 11.8665 30.5186 13.2538C29.8973 13.6822 29.656 14.179 29.9817 14.6267ZM35.0033 17.2798H61.5321V15.2975H35.0033V17.2798ZM43.1827 39.8189H53.3315V24.5026H43.1827V39.8189ZM59.4975 32.4494C59.5338 34.0049 59.5258 35.5615 59.5177 37.1181C59.5143 37.7818 59.5108 38.4455 59.5108 39.1091V39.8304H55.4067V39.1077L55.4068 35.2974C55.4068 31.4871 55.4069 27.6767 55.4065 23.8663C55.4064 22.764 55.0954 22.4449 54.0184 22.4446C50.1634 22.4436 46.3086 22.4434 42.4536 22.4449C41.446 22.4453 41.1086 22.7796 41.1082 23.7805C41.1071 27.3526 41.1073 30.9246 41.1074 34.4966L41.1074 39.0219V39.8222H37.0034V38.8107L37.0034 37.1616C37.0034 35.5126 37.0034 33.8636 37.0032 32.2146C37.0032 30.8979 36.7617 30.6543 35.4456 30.6421C35.3622 30.6414 35.2788 30.6416 35.1806 30.6418H35.18L35.0112 30.642V19.4049H61.5101V30.606C61.4854 30.6097 61.4629 30.6136 61.4423 30.6175C61.4324 30.6194 61.4228 30.6213 61.4136 30.6231C61.3617 30.6332 61.3214 30.6411 61.2821 30.6376C59.8259 30.5107 59.4623 30.9467 59.4975 32.4494ZM61.5826 39.8416H63.559V32.7211H61.5826V39.8416ZM48.2904 3.49335C48.5674 3.30275 48.7676 3.18195 49.1202 3.44096C52.4426 5.88185 55.7747 8.30948 59.1068 10.7371L59.1074 10.7375L59.1214 10.7477C60.1398 11.4897 61.1583 12.2318 62.1765 12.9742C62.2081 12.9971 62.2362 13.0248 62.2857 13.0736C62.3163 13.1039 62.3552 13.1422 62.4082 13.1926H34.2297C34.3099 13.1322 34.3771 13.0807 34.4364 13.0352L34.4365 13.0352C34.5444 12.9524 34.6258 12.89 34.7101 12.832C36.047 11.9128 37.384 10.9938 38.721 10.0748C41.9114 7.88179 45.1018 5.68884 48.2904 3.49335ZM65.8874 13.1674L65.8873 13.1673C65.844 13.1351 65.8006 13.103 65.757 13.0712L61.6512 10.0781C57.7005 7.19825 53.7498 4.31841 49.801 1.43582C48.8778 0.761927 48.721 0.748349 47.774 1.39444C47.4809 1.59441 47.187 1.79324 46.8932 1.99208C46.1285 2.50943 45.3638 3.02681 44.6136 3.56432C44.1783 3.87609 43.7414 4.00995 43.202 4.00905C38.2452 4.0006 33.2884 3.99948 28.3316 3.99837C24.8768 3.99759 21.422 3.99681 17.9673 3.99355C17.4241 3.99291 16.98 4.08322 16.6503 4.58137C14.213 8.26343 11.7652 11.9384 9.31731 15.6134L9.31716 15.6136L8.6494 16.6161C8.39444 16.9987 8.22677 17.4405 8.55049 17.7944C8.79216 18.0589 9.20023 18.2585 9.55871 18.3079C9.97799 18.3657 10.4068 18.3539 10.8578 18.3415L10.858 18.3415C11.0533 18.3361 11.2529 18.3306 11.4576 18.3306V19.2051L11.4577 21.8499H0.992865C0.444471 21.8499 0 22.2949 0 22.8439V40.82C0 41.369 0.444471 41.8139 0.992865 41.8139H11.4577V44.4973C11.4578 45.7197 11.7363 45.9984 12.9582 45.9985L47.0731 45.9986L64.1306 45.9985C64.1696 45.9985 64.2086 45.9989 64.2477 45.9992H64.2479C64.3366 46 64.4254 46.0008 64.514 45.9975C65.2299 45.9706 65.602 45.5979 65.6301 44.8809C65.6319 44.8362 65.6315 44.7914 65.6311 44.7465C65.631 44.7359 65.6309 44.7253 65.6308 44.7146C65.6308 44.706 65.6307 44.6974 65.6307 44.6888L65.6309 41.2417V41.2035C65.6312 38.118 65.6314 35.0324 65.6298 31.9467C65.6293 30.9886 65.2823 30.6492 64.3173 30.6424C64.163 30.6413 64.0086 30.6416 63.8506 30.6419H63.8503L63.6269 30.6421V15.2563C63.8266 15.2563 64.0226 15.2557 64.216 15.2552C64.6559 15.254 65.0824 15.2529 65.5087 15.2581C66.0365 15.2645 66.4255 15.0507 66.5952 14.5427C66.7688 14.0225 66.5423 13.6332 66.118 13.3354C66.0402 13.2807 65.9638 13.2241 65.8874 13.1674ZM13.5368 41.8139V43.9103H15.5472V43.0901L15.5473 41.8139H13.5368ZM17.6308 41.8139V43.9291H30.8834V43.2074C30.8834 42.1747 30.8859 41.142 30.8884 40.1092C30.8946 37.5557 30.9008 35.0023 30.8691 32.4493C30.8503 30.9481 31.1972 30.5108 32.6544 30.6377C32.6937 30.6411 32.7339 30.6332 32.7857 30.6232C32.814 30.6177 32.8457 30.6115 32.8826 30.6061V24.5288H29.302V40.82C29.302 41.369 28.8575 41.8139 28.3093 41.8139H17.6308ZM29.2185 22.4443H32.1301H32.901V18.3762H13.5368V21.8499H28.3093C28.7156 21.8499 29.0649 22.0943 29.2185 22.4443ZM50.2416 33.764C49.7193 33.7697 49.2718 33.3309 49.266 32.8076C49.2603 32.2852 49.6987 31.8379 50.2222 31.8321C50.7448 31.8263 51.1922 32.2648 51.1979 32.7883C51.2037 33.3102 50.7645 33.7582 50.2416 33.764ZM27.3164 39.826H1.98562V23.8376H27.3164V39.826Z"/>
<path d="M5.38874 34.96C6.75119 34.96 7.65682 34.2039 7.65682 32.932V32.9142C7.65682 31.7489 6.85538 31.2864 5.56506 30.975C4.78766 30.7794 4.59531 30.6548 4.59531 30.3702V30.3524C4.59531 30.13 4.77964 29.9521 5.15632 29.9521C5.65321 29.9521 6.21422 30.1656 6.72715 30.5659L7.50454 29.3473C6.89545 28.8047 6.15011 28.52 5.19639 28.52C3.84997 28.52 3.02449 29.3562 3.02449 30.5125V30.5303C3.02449 31.8112 3.94614 32.1848 5.14029 32.4872C5.90166 32.6829 6.08599 32.8252 6.08599 33.0832V33.101C6.08599 33.3678 5.86159 33.5279 5.44484 33.5279C4.79567 33.5279 4.17856 33.27 3.62557 32.7807L2.76001 33.9282C3.44925 34.6131 4.39495 34.96 5.38874 34.96Z"/>
<path d="M8.38102 34.8533H10.016L10.4167 33.7414H12.5806L12.9893 34.8533H14.6563L12.268 28.5823H10.7693L8.38102 34.8533ZM10.8735 32.3983L11.5066 30.6281L12.1318 32.3983H10.8735Z"/>
<path d="M15.735 34.8533H20.0066V33.3411H17.2898V28.6268H15.735V34.8533Z"/>
<path d="M21.2078 34.8533H25.76V33.3856H22.7466V32.3983H25.4394V31.0373H22.7466V30.0944H25.7199V28.6268H21.2078V34.8533Z"/>
</svg>
