<svg width="46" height="46" viewBox="0 0 46 46" xmlns="http://www.w3.org/2000/svg">
<path fill-rule="evenodd" clip-rule="evenodd" d="M6.70801 7.65283C5.1202 7.65283 3.83301 8.94002 3.83301 10.5278V18.1945H5.74964V10.5278C5.74964 9.99856 6.17874 9.56947 6.70801 9.56947H29.708V7.65283H6.70801Z"/>
<path fill-rule="evenodd" clip-rule="evenodd" d="M6.70801 36.4028C6.17874 36.4028 5.74964 35.9737 5.74964 35.4444V25.8611H3.83301V35.4444C3.83301 37.0323 5.1202 38.3194 6.70801 38.3194H16.2914V36.4028H6.70801Z"/>
<path fill-rule="evenodd" clip-rule="evenodd" d="M7.11158 15.6002L30.3857 38.8743C30.7598 39.2485 30.7598 39.8551 30.3856 40.2294L24.9097 45.7053C24.73 45.885 24.4864 45.9859 24.2322 45.986C23.9781 45.986 23.7344 45.8851 23.5547 45.7053L0.280582 22.4313C-0.0935273 22.057 -0.0935273 21.4503 0.280582 21.0761L5.75647 15.6002C6.13076 15.2261 6.73738 15.2261 7.11158 15.6002ZM2.31321 21.7537L24.2322 43.6727L28.3531 39.5519L6.43407 17.6328L2.31321 21.7537Z" />
<path fill-rule="evenodd" clip-rule="evenodd" d="M27.791 36.4028H42.166C44.2831 36.4028 45.9994 38.119 45.9994 40.2361C45.9994 42.3533 44.2831 44.0695 42.166 44.0695H39.291C38.7617 44.0695 38.3327 43.6404 38.3327 43.1111V38.3195H27.791V36.4028ZM40.2494 42.1528H42.166C43.2246 42.1528 44.0827 41.2947 44.0827 40.2361C44.0827 39.1776 43.2246 38.3195 42.166 38.3195H40.2494V42.1528Z" />
<path fill-rule="evenodd" clip-rule="evenodd" d="M42.1666 7.65283H37.375V9.56947H42.1666C43.2252 9.56947 44.0833 10.4276 44.0833 11.4861V40.2361H45.9999V11.4861C46 9.36903 44.2837 7.65283 42.1666 7.65283Z" />
<path fill-rule="evenodd" clip-rule="evenodd" d="M14.6553 29.9753L17.5305 27.1001L18.8858 28.4554L16.0105 31.3306L14.6553 29.9753Z" />
<path fill-rule="evenodd" clip-rule="evenodd" d="M10.8223 26.1418L13.6975 23.2666L15.0528 24.6219L12.1775 27.4971L10.8223 26.1418Z" />
<path fill-rule="evenodd" clip-rule="evenodd" d="M18.4873 33.8086L21.3625 30.9334L22.7178 32.2886L19.8426 35.1638L18.4873 33.8086Z" />
<path fill-rule="evenodd" clip-rule="evenodd" d="M22.3223 37.6438L25.1975 34.7686L26.5528 36.1238L23.6775 38.9991L22.3223 37.6438Z" />
<path fill-rule="evenodd" clip-rule="evenodd" d="M6.98633 22.3086L9.86157 19.4334L11.2168 20.7886L8.34158 23.6638L6.98633 22.3086Z" />
<path fill-rule="evenodd" clip-rule="evenodd" d="M40.0121 0.815999L41.3366 2.14039C42.4425 3.24555 42.4431 5.03803 41.338 6.14391L41.3366 6.14526L26.7641 20.7177C26.5845 20.8974 26.3408 20.9984 26.0866 20.9985C25.8324 20.9992 25.5884 20.8981 25.4091 20.7177L21.4349 16.7435C21.0608 16.3692 21.0608 15.7626 21.4349 15.3884L36.0073 0.815999C37.1279 -0.25377 38.8915 -0.25377 40.0121 0.815999ZM26.0866 18.685L39.9825 4.78925C40.34 4.43194 40.3402 3.85245 39.9829 3.49496L39.9825 3.49451L38.6571 2.17102C38.2952 1.82521 37.7253 1.82521 37.3634 2.17102L23.4675 16.0659L26.0866 18.685Z" />
<path fill-rule="evenodd" clip-rule="evenodd" d="M25.7788 19.1317L21.6426 20.5127L23.0236 16.3698L21.2028 15.7632L19.2152 21.7249C19.1826 21.8227 19.166 21.925 19.166 22.028C19.1661 22.5573 19.5953 22.9863 20.1246 22.9861C20.226 22.9864 20.3269 22.9709 20.4236 22.9401L26.3853 20.9525L25.7788 19.1317Z" />
<path fill-rule="evenodd" clip-rule="evenodd" d="M33.3574 4.82007L34.7127 3.46481L38.687 7.43916L37.3318 8.79441L33.3574 4.82007Z" />
<rect x="20.125" y="21.0693" width="14.375" height="1.91664" />
<rect x="36.416" y="21.0693" width="1.91664" height="1.91664" />
<rect x="40.25" y="21.0693" width="1.91664" height="1.91664" />
</svg>
