<svg width="70" height="49" viewBox="0 0 70 49" xmlns="http://www.w3.org/2000/svg">
<path fill-rule="evenodd" clip-rule="evenodd" d="M24.6441 33.1774C24.6441 39.1528 19.7828 44.014 13.8076 44.014C7.83222 44.014 2.97105 39.1528 2.97105 33.1774C2.97105 27.2026 7.83222 22.3413 13.8076 22.3413C19.7828 22.3413 24.6441 27.2026 24.6441 33.1774ZM0.563232 33.1774C0.563232 40.4804 6.50462 46.4222 13.8076 46.4222C21.1105 46.4222 27.0519 40.4804 27.0519 33.1774C27.0519 25.8745 21.1105 19.9331 13.8076 19.9331C6.50462 19.9331 0.563232 25.8745 0.563232 33.1774Z" />
<path fill-rule="evenodd" clip-rule="evenodd" d="M12.3627 25.9537V27.3645C10.9612 27.8615 9.95446 29.1998 9.95446 30.7697C9.95446 32.7612 11.5747 34.3819 13.5665 34.3819C14.2304 34.3819 14.7705 34.9221 14.7705 35.5858C14.7705 36.2497 14.2304 36.7898 13.5665 36.7898C13.0525 36.7898 12.4968 36.4665 12.0033 35.8789C11.5751 35.3699 10.8159 35.3045 10.3068 35.7322C9.79772 36.1603 9.73187 36.9195 10.1601 37.4286C10.8036 38.1941 11.5606 38.7276 12.3627 38.9967V40.402C12.3627 41.0671 12.9018 41.6058 13.5665 41.6058C14.2314 41.6058 14.7705 41.0671 14.7705 40.402V38.991C16.172 38.4938 17.1788 37.1553 17.1788 35.5858C17.1788 33.5939 15.5586 31.9737 13.5665 31.9737C12.9028 31.9737 12.3627 31.4336 12.3627 30.7697C12.3627 30.106 12.9028 29.5653 13.5665 29.5653C13.9933 29.5653 14.4435 29.7832 14.8688 30.1948C15.3468 30.6574 16.109 30.6446 16.5714 30.1671C17.0338 29.6891 17.0212 28.9269 16.5437 28.4645C15.9326 27.8732 15.3209 27.5386 14.7705 27.3562V25.9537C14.7705 25.2884 14.2314 24.7493 13.5665 24.7493C12.9018 24.7493 12.3627 25.2884 12.3627 25.9537Z" />
<mask id="mask0" mask-type="alpha" maskUnits="userSpaceOnUse" x="0" y="0" width="70" height="49">
<path fill-rule="evenodd" clip-rule="evenodd" d="M0.563232 48.9911H69.076V0H0.563232V48.9911Z"/>
</mask>
<g mask="url(#mask0)">
<path fill-rule="evenodd" clip-rule="evenodd" d="M32.3725 46.735H65.7228V44.5782H32.3725V46.735ZM32.349 42.2724H34.5199V34.5634H32.349V42.2724ZM29.1315 14.8958C29.3666 15.2185 29.8306 15.4237 30.2332 15.5592C30.5458 15.6643 30.9221 15.5805 31.2701 15.5805C31.5927 15.5806 31.9153 15.5805 32.289 15.5805V16.6635H8.84748C8.9846 16.4375 9.07271 16.28 9.17238 16.1302C11.4088 12.7727 13.64 9.41175 15.8982 6.06889C16.0598 5.8296 16.4203 5.57986 16.6893 5.57889C24.6465 5.553 32.6038 5.55801 40.5612 5.55926C40.6664 5.55926 40.7717 5.57694 41.0303 5.60005C40.6943 5.84352 40.4825 6.00388 40.2639 6.15422C36.7482 8.57123 33.2308 10.9855 29.7162 13.4039C29.0395 13.8695 28.7767 14.4093 29.1315 14.8958ZM34.601 17.7791H63.497V15.6249H34.601V17.7791ZM43.5104 42.2738H54.5648V25.6287H43.5104V42.2738ZM61.2808 34.2648C61.3373 36.6761 61.2954 39.0897 61.2954 41.5024V42.2863H56.8252V41.5009C56.8252 35.9798 56.8254 30.4585 56.8247 24.9372C56.8246 23.7392 56.4861 23.3925 55.313 23.3922C51.114 23.3911 46.9151 23.3908 42.7162 23.3925C41.6187 23.3929 41.2511 23.7564 41.2508 24.844C41.2491 30.3652 41.25 35.8864 41.25 41.4076V42.2774H36.7797V41.1781C36.7797 38.7886 36.7798 36.3992 36.7796 34.0097C36.7796 32.5789 36.5165 32.3141 35.0829 32.3009C34.9443 32.2996 34.8056 32.3007 34.6096 32.3007V20.0886H63.473V32.2616C63.3593 32.2783 63.2907 32.3017 63.2247 32.296C61.6386 32.158 61.2425 32.6319 61.2808 34.2648ZM63.5521 42.2985H65.7049V34.5603H63.5521V42.2985ZM49.0738 2.79675C49.3755 2.58947 49.5936 2.45834 49.9777 2.73981C54.7079 6.20712 59.4561 9.64993 64.199 13.1C64.2545 13.1405 64.3002 13.1945 64.4513 13.3375H33.7584C34.0048 13.1525 34.1393 13.0433 34.2818 12.9456C39.2127 9.56292 44.1452 6.18262 49.0738 2.79675ZM68.4922 13.4927C68.3592 13.3995 68.2301 13.301 68.0988 13.2055C62.3052 8.99107 56.5103 4.7786 50.7192 0.560704C49.7136 -0.17179 49.5428 -0.186407 48.5113 0.515741C47.3615 1.29849 46.2001 2.06523 45.0688 2.87373C44.5948 3.21269 44.119 3.35816 43.5314 3.35718C34.3694 3.34159 25.2071 3.34883 16.0451 3.34034C15.4533 3.33978 14.9697 3.43778 14.6105 3.97915C11.7144 8.3446 8.80433 12.7009 5.89565 17.058C5.61807 17.4738 5.4353 17.9538 5.7879 18.3385C6.05128 18.626 6.49562 18.843 6.88623 18.8966C7.54077 18.9865 8.2166 18.9212 8.95453 18.9212V20.8773C9.66934 20.589 10.443 20.4345 11.2191 20.4146V18.9708H32.3112V23.3918H31.4714C28.3599 23.3918 25.2486 23.3919 22.1371 23.3919C22.7244 24.1457 23.3214 24.8779 23.8415 25.6572H32.2912V32.2618C32.1773 32.2783 32.1087 32.3017 32.0427 32.296C30.4554 32.1582 30.0776 32.6334 30.0979 34.2648C30.1466 38.1614 30.1136 42.059 30.1136 45.9563V46.7406H15.6784V44.4615C14.9316 44.6118 14.1719 44.6796 13.4091 44.6743V45.8288V46.7201H11.2191V44.468C10.4538 44.3308 9.69551 44.1287 8.95467 43.8718C8.95467 45.0339 8.95453 46.196 8.95467 47.3581C8.95467 48.6865 9.25813 48.9894 10.5891 48.9895C29.1684 48.9897 47.7479 48.9895 66.3274 48.9895C66.4666 48.9895 66.6059 48.9936 66.7449 48.9884C67.5248 48.9592 67.9302 48.5541 67.9607 47.775C67.9635 47.7055 67.9614 47.6359 67.9614 47.5663C67.9614 42.9504 67.9628 38.3346 67.9604 33.7187C67.9599 32.6774 67.5819 32.3085 66.5308 32.3012C66.2841 32.2995 66.0374 32.3009 65.7788 32.3009V15.5802C66.4911 15.5802 67.1598 15.5741 67.8284 15.5821C68.4034 15.5891 68.8271 15.3569 69.012 14.8045C69.201 14.2394 68.9543 13.8163 68.4922 13.4927Z" />
<path fill-rule="evenodd" clip-rule="evenodd" d="M51.2758 35.6231C50.6795 35.6295 50.1685 35.1287 50.1619 34.5312C50.1554 33.9346 50.656 33.4238 51.2537 33.4173C51.8503 33.4106 52.3612 33.9113 52.3678 34.5092C52.3743 35.105 51.8729 35.6166 51.2758 35.6231Z" />
</g>
</svg>
