<svg width="64" height="49" viewBox="0 0 64 49" xmlns="http://www.w3.org/2000/svg">
<path fill-rule="evenodd" clip-rule="evenodd" d="M57.9585 42.2985H60.1113V34.5602H57.9585V42.2985ZM26.7554 42.2725H28.9265V34.5633H26.7554V42.2725ZM29.0075 17.7791H57.9034V15.6248H29.0075V17.7791ZM26.779 46.7349H60.1293V44.5781H26.779V46.7349ZM26.7176 18.9707H5.62571V46.72H7.81554V45.8287C7.81554 38.8693 7.81526 31.9098 7.81581 24.9504C7.81595 23.7193 8.14531 23.3921 9.38395 23.392C14.882 23.3915 20.38 23.3917 25.8779 23.3917H26.7176V18.9707ZM58.8578 13.3374C58.7068 13.1944 58.661 13.1404 58.6054 13.1001C53.8626 9.64987 49.1145 6.20693 44.3842 2.73976C44.0001 2.45829 43.782 2.58956 43.4803 2.7967C38.5516 6.18257 33.6192 9.56287 28.6883 12.9455C28.5459 13.0433 28.4113 13.1525 28.165 13.3374H58.8578ZM37.9168 42.2736H48.9712V25.6285H37.9168V42.2736ZM3.25394 16.6634H26.6954V15.5804H25.6766C25.3286 15.5804 24.9525 15.6642 24.6398 15.5591C24.2371 15.4237 23.7733 15.2185 23.538 14.8958C23.1832 14.4093 23.446 13.8694 24.1227 13.4038C27.6373 10.9854 31.1547 8.57104 34.6703 6.15417C34.889 6.00383 35.1007 5.84347 35.4369 5.6C35.1781 5.57689 35.0729 5.55935 34.9677 5.55921C27.0103 5.55782 19.053 5.55295 11.0959 5.57898C10.8269 5.57981 10.4663 5.82968 10.3047 6.06884C8.04648 9.4117 5.81545 12.7726 3.57899 16.1301C3.47918 16.2799 3.3912 16.4375 3.25394 16.6634ZM26.6977 32.2617V25.6571H10.0848V46.7405H24.5201V45.9562C24.5201 42.0589 24.5531 38.1613 24.5044 34.2647C24.484 32.6332 24.862 32.1581 26.4492 32.2959C26.5153 32.3017 26.5838 32.2783 26.6977 32.2617ZM57.8796 32.2616V20.0885H29.0162V32.3007C29.2121 32.3007 29.3508 32.2996 29.4894 32.3008C30.9229 32.3139 31.186 32.5788 31.186 34.0097C31.1863 36.3991 31.1862 38.7886 31.1862 41.178V42.2773H35.6564V41.4076C35.6564 35.8863 35.6556 30.365 35.6573 24.8439C35.6577 23.7562 36.0252 23.3928 37.1227 23.3924C41.3217 23.3908 45.5205 23.391 49.7194 23.3921C50.8925 23.3924 51.2312 23.7392 51.2313 24.9372C51.2319 30.4584 51.2316 35.9796 51.2316 41.5008V42.2862H55.7019V41.5024C55.7019 39.0897 55.7439 36.676 55.6873 34.2647C55.649 32.6318 56.045 32.158 57.6311 32.2959C57.6973 32.3017 57.7657 32.2783 57.8796 32.2616ZM3.36099 18.921C2.62293 18.921 1.94723 18.9865 1.29269 18.8965C0.902221 18.8429 0.457741 18.6258 0.194505 18.3385C-0.158239 17.9537 0.0245364 17.4737 0.30211 17.0579C3.21093 12.7008 6.12086 8.34455 9.01701 3.9791C9.37616 3.43773 9.85989 3.33973 10.4515 3.34029C19.6137 3.34892 28.7758 3.34154 37.9379 3.35713C38.5255 3.35811 39.0013 3.21264 39.4754 2.87382C40.6067 2.06518 41.7681 1.29858 42.9178 0.51569C43.9493 -0.186458 44.1201 -0.171702 45.1257 0.560653C50.9167 4.77855 56.7117 8.99102 62.5052 13.2054C62.6367 13.3009 62.7657 13.3995 62.8986 13.4925C63.3608 13.8163 63.6075 14.2393 63.4184 14.8045C63.2336 15.3567 62.8098 15.589 62.2349 15.5821C61.5664 15.574 60.8976 15.5801 60.1853 15.5801V32.3008C60.444 32.3008 60.6906 32.2993 60.9372 32.3011C61.9884 32.3083 62.3663 32.6775 62.3669 33.7186C62.3692 38.3345 62.3678 42.9504 62.3678 47.5661C62.3678 47.6357 62.3699 47.7055 62.3672 47.7749C62.3365 48.5541 61.9313 48.9592 61.1513 48.9884C61.0124 48.9935 60.8731 48.9895 60.7339 48.9895C42.1544 48.9895 23.575 48.9895 4.99553 48.9894C3.6646 48.9894 3.36113 48.6866 3.36113 47.358C3.36099 38.1959 3.36099 29.0337 3.36099 19.8715V18.921Z"/>
<path fill-rule="evenodd" clip-rule="evenodd" d="M18.4123 27.8464C20.012 27.8464 21.6116 27.8415 23.2114 27.8484C24.0587 27.8521 24.5069 28.2477 24.5025 28.9596C24.4979 29.6696 24.0521 30.0546 23.1963 30.0559C19.997 30.0603 16.7975 30.0599 13.5982 30.0561C12.7344 30.0552 12.2878 29.6832 12.2724 28.9793C12.2562 28.2484 12.7201 27.8503 13.6132 27.8477C15.2129 27.8429 16.8127 27.8464 18.4123 27.8464Z"/>
<path fill-rule="evenodd" clip-rule="evenodd" d="M45.6823 35.6231C45.086 35.6297 44.575 35.1288 44.5684 34.5312C44.5619 33.9347 45.0625 33.4238 45.6602 33.4173C46.2568 33.4106 46.7677 33.9113 46.7743 34.5092C46.7808 35.105 46.2794 35.6167 45.6823 35.6231Z"/>
</svg>



