<svg width="53" height="49" viewBox="0 0 53 49" xmlns="http://www.w3.org/2000/svg">
<path fill-rule="evenodd" clip-rule="evenodd" d="M24.089 8.33861V10.3974C24.089 13.8098 26.8531 16.5739 30.2655 16.5739C33.6714 16.5739 36.4423 13.8033 36.4423 10.3974V8.33861C37.0109 8.33861 37.4717 7.87779 37.4717 7.3092C37.4717 6.74061 37.0109 6.27979 36.4423 6.27979H34.3835C33.8149 6.27979 33.3541 6.74061 33.3541 7.3092C33.3541 7.87779 33.8149 8.33861 34.3835 8.33861V10.3974C34.3835 12.6678 32.5362 14.5151 30.2655 14.5151C27.9915 14.5151 26.1478 12.6722 26.1478 10.3974V8.33861C26.7164 8.33861 27.1772 7.87779 27.1772 7.3092C27.1772 6.74061 26.7164 6.27979 26.1478 6.27979H24.089C23.5204 6.27979 23.0596 6.74061 23.0596 7.3092C23.0596 7.87779 23.5204 8.33861 24.089 8.33861Z"/>
<path fill-rule="evenodd" clip-rule="evenodd" d="M12.6911 48.9859C12.4277 48.9859 12.1648 48.8858 11.9637 48.6851L0.301989 37.0391C0.108572 36.8457 -0.000401005 36.5835 0 36.3097C0.000403223 36.0362 0.109376 35.7741 0.303195 35.5811L3.4803 32.4196C4.45221 31.4465 5.76189 30.9527 7.10495 31.0223C8.80791 27.4049 11.9697 24.9303 15.9563 24.0935V1.02941C15.9563 0.460823 16.4175 0 16.9857 0H43.4428C44.011 0 44.4722 0.460823 44.4722 1.02941V21.1299L45.4682 20.0997C46.938 18.3947 49.5219 18.1856 51.2462 19.6388C52.9817 21.1058 53.2009 23.709 51.7356 25.443L42.5135 36.5172C42.4906 36.5449 42.4665 36.5711 42.4407 36.596C40.702 38.2893 38.4071 39.2218 35.9791 39.2218H22.4255C21.1781 39.2218 19.9955 39.6995 19.096 40.5665L17.9624 41.661C18.1056 43.0853 17.6098 44.4947 16.58 45.5237L13.4189 48.6847C13.2179 48.8854 12.9545 48.9859 12.6911 48.9859ZM42.4134 23.2587V2.05882H18.0155V23.8152C18.3569 23.7927 18.7003 23.7802 19.0449 23.7802C20.7897 23.7802 22.4878 24.1116 24.0915 24.7654C24.1634 24.7943 24.235 24.8096 24.301 24.8096H36.2365C37.4987 24.8096 38.6673 25.3967 39.4341 26.3389L42.4134 23.2587ZM17.1333 25.9746C19.2158 25.6734 21.2984 25.8503 23.3182 26.6734C23.6391 26.8029 23.97 26.8689 24.301 26.8689H36.2365C37.3528 26.8689 38.2953 27.7792 38.2953 28.9277C38.2953 30.0628 37.3717 30.9865 36.2365 30.9865H27.2802C26.712 30.9865 26.2508 31.4473 26.2508 32.0159C26.2508 32.5845 26.712 33.0453 27.2802 33.0453H36.2365C38.5072 33.0453 40.3541 31.198 40.3541 28.9277C40.3541 28.7459 40.3409 28.5654 40.3176 28.3872C40.5323 28.1673 46.7546 21.7318 46.9701 21.5087C46.9858 21.4922 47.0015 21.4753 47.016 21.458C47.7494 20.5919 49.0519 20.4825 49.9184 21.2127C50.7858 21.9458 50.8956 23.2474 50.1581 24.12L40.967 35.1572C39.6195 36.4512 37.8502 37.163 35.9791 37.163H22.4255C20.6421 37.163 18.9524 37.845 17.6665 39.0847L17.2125 39.523C17.0307 39.2435 16.8192 38.9825 16.5804 38.7441L10.2575 32.4212C9.91975 32.0835 9.53654 31.8028 9.12196 31.5812C10.6946 28.4793 13.5038 26.5021 17.1333 25.9746ZM8.80147 33.8773C7.74512 32.8201 6.01643 32.7936 4.93474 33.8769L2.48748 36.3121L12.6903 46.5013L15.1247 44.0673C16.204 42.9892 16.1851 41.2585 15.1251 40.2005L8.80147 33.8773Z"/>
</svg>
