<svg width="49" height="49" viewBox="0 0 49 49" xmlns="http://www.w3.org/2000/svg">
<mask id="mask0" mask-type="alpha" maskUnits="userSpaceOnUse" x="0" y="28" width="20" height="21">
<path fill-rule="evenodd" clip-rule="evenodd" d="M0 28.9956H19.9558V48.9518H0V28.9956Z" />
</mask>
<g mask="url(#mask0)">
<path fill-rule="evenodd" clip-rule="evenodd" d="M9.97791 46.9066C5.60356 46.9066 2.04474 43.3478 2.04474 38.9735C2.04474 34.5993 5.60356 31.0408 9.97791 31.0408C14.3523 31.0408 17.9111 34.5993 17.9111 38.9735C17.9111 43.3478 14.3523 46.9066 9.97791 46.9066ZM9.97791 28.9956C4.47602 28.9956 0 33.4716 0 38.9735C0 44.4755 4.47602 48.9518 9.97791 48.9518C15.4798 48.9518 19.9558 44.4755 19.9558 38.9735C19.9558 33.4716 15.4798 28.9956 9.97791 28.9956Z"/>
</g>
<path fill-rule="evenodd" clip-rule="evenodd" d="M9.79913 37.951C9.37542 37.951 9.03062 37.6063 9.03062 37.1825C9.03062 36.7586 9.37542 36.4137 9.79913 36.4137C10.0827 36.4137 10.387 36.5632 10.6794 36.8462C11.0845 37.238 11.7331 37.2275 12.1253 36.8225C12.5172 36.4175 12.5067 35.7689 12.1017 35.3766C11.7089 34.9966 11.2787 34.7199 10.8215 34.5532V33.6004C10.8215 33.0365 10.3629 32.5776 9.79913 32.5776C9.2354 32.5776 8.77675 33.0365 8.77675 33.6004V34.5616C7.70162 34.9819 6.98552 36.0239 6.98552 37.1825C6.98552 38.734 8.2477 39.9962 9.79913 39.9962C10.2228 39.9962 10.5676 40.3409 10.5676 40.7647C10.5676 41.1884 10.2228 41.5331 9.79913 41.5331C9.45433 41.5331 9.07595 41.3086 8.73349 40.9009C8.37069 40.4696 7.72437 40.4136 7.29278 40.7763C6.86119 41.1393 6.80529 41.7856 7.16818 42.217C7.63291 42.7697 8.1875 43.1743 8.77675 43.3914V44.3468C8.77675 44.9105 9.2354 45.3692 9.79913 45.3692C10.3629 45.3692 10.8215 44.9105 10.8215 44.3468V43.3855C11.8966 42.9648 12.6127 41.9229 12.6127 40.7647C12.6127 39.2132 11.3506 37.951 9.79913 37.951Z"/>
<mask id="mask1" mask-type="alpha" maskUnits="userSpaceOnUse" x="19" y="0" width="29" height="29">
<path fill-rule="evenodd" clip-rule="evenodd" d="M19.3994 0.0895996H47.8705V28.5626H19.3994V0.0895996Z" />
</mask>
<g mask="url(#mask1)">
<path fill-rule="evenodd" clip-rule="evenodd" d="M36.2804 17.727H30.9896C30.4335 17.727 29.9809 18.1795 29.9809 18.7357V26.545H24.9438V11.6812C24.9438 11.125 24.4913 10.6725 23.9351 10.6725H23.2834L33.635 2.39113L43.9864 10.6726L43.3349 10.6725C42.7787 10.6725 42.3262 11.125 42.3262 11.6812V26.545H37.2892V18.7357C37.2892 18.1795 36.8366 17.727 36.2804 17.727ZM40.8164 5.5523L40.8173 3.87197H42.3262V6.76019L40.8164 5.5523ZM31.9983 26.545H35.2717V19.7445H31.9983V26.545ZM47.4927 10.8933L44.3436 8.37406V2.86322C44.3436 2.30693 43.8911 1.85446 43.3349 1.85446H39.8094C39.2532 1.85446 38.8007 2.30657 38.8007 2.86223L38.8 3.93907L34.2653 0.311365C33.8941 0.0156629 33.3758 0.0156629 33.0046 0.311455L19.7773 10.8934C19.4436 11.1611 19.3145 11.612 19.4563 12.0153C19.598 12.4189 19.9804 12.6901 20.4079 12.6901H22.9264V27.5538C22.9264 28.1101 23.3788 28.5626 23.935 28.5626H43.3348C43.891 28.5626 44.3436 28.1101 44.3436 27.5538V12.6901H46.8621C47.2896 12.6901 47.6721 12.4189 47.8137 12.0153C47.9553 11.612 47.8264 11.1611 47.4927 10.8933Z"/>
</g>
<path fill-rule="evenodd" clip-rule="evenodd" d="M3.75855 25.3445C3.79384 25.3893 3.83442 25.4312 3.88074 25.471C3.88504 25.4749 3.88934 25.4788 3.89041 25.4794C3.89364 25.4826 3.89695 25.4855 3.90698 25.4932L3.91737 25.5008C3.9386 25.517 3.96037 25.5323 3.98241 25.5462L4.00355 25.5591C4.02505 25.5717 4.04664 25.5834 4.07154 25.5955L4.1243 25.6189C4.1441 25.6268 4.16399 25.6342 4.18423 25.6408L4.20878 25.6481C4.22526 25.6529 4.24174 25.6573 4.26091 25.6618L4.29173 25.6682C4.3109 25.6718 4.33016 25.6746 4.34888 25.6769L4.37396 25.68C4.40191 25.6826 4.42968 25.6842 4.45897 25.6842C4.48674 25.6842 4.51442 25.6826 4.5421 25.68L4.55231 25.6791C4.55787 25.6786 4.56315 25.6778 4.56871 25.6768C4.58716 25.6744 4.60543 25.6718 4.63007 25.6671L4.66071 25.6606C4.67531 25.6572 4.68982 25.6532 4.70756 25.6481C4.71669 25.6455 4.72592 25.6428 4.73712 25.6392L4.74733 25.6361C4.757 25.6328 4.76668 25.6289 4.77617 25.6251L4.79122 25.6192C4.79803 25.6166 4.80484 25.614 4.81183 25.6109L4.82849 25.6035C4.83583 25.6001 4.84309 25.5964 4.85035 25.5927L4.88286 25.5765C4.88967 25.5729 4.89621 25.569 4.90812 25.5618C4.9178 25.5561 4.92747 25.5505 4.93706 25.5443C4.95802 25.531 4.97862 25.5166 4.99941 25.5009L5.0158 25.4889C5.06704 25.448 5.11478 25.4 5.15716 25.3465L8.212 21.5278C8.36079 21.3419 8.42824 21.1093 8.4019 20.8727C8.37566 20.6361 8.25876 20.424 8.07297 20.2755C7.88709 20.1266 7.65427 20.059 7.41796 20.0851C7.18103 20.1114 6.96863 20.2284 6.81984 20.4146L5.35226 22.2489C5.48564 16.1116 10.5197 11.1604 16.6887 11.1604C17.1803 11.1604 17.5802 10.7604 17.5802 10.2689C17.5802 9.77748 17.1803 9.37769 16.6887 9.37769C9.53535 9.37769 3.7005 15.1315 3.56909 22.2539L2.09748 20.4145C1.94833 20.2282 1.73549 20.1112 1.49828 20.0851C1.26206 20.0589 1.0296 20.1267 0.844617 20.2753C0.65874 20.4235 0.541928 20.6353 0.515413 20.8718C0.488897 21.1088 0.55635 21.3417 0.705321 21.5278L3.75855 25.3445Z"/>
<path fill-rule="evenodd" clip-rule="evenodd" d="M37.2605 30.3515C37.1838 30.2557 37.0897 30.1781 36.9828 30.1218C36.9788 30.1196 36.9745 30.1175 36.9715 30.1162L36.961 30.1111C36.9382 30.0997 36.9152 30.0891 36.8917 30.0799L36.8805 30.0757C36.8568 30.0667 36.8329 30.0585 36.81 30.052L36.7974 30.0487C36.7733 30.0421 36.7489 30.0364 36.7225 30.0315L36.7124 30.03C36.6879 30.0258 36.6631 30.0224 36.6374 30.0202L36.6185 30.0192C36.5954 30.0175 36.5687 30.0156 36.549 30.0173C36.3752 30.02 36.2077 30.0725 36.0647 30.1692C36.0535 30.1768 36.0426 30.1851 36.0318 30.1935L36.0161 30.2053C36.0091 30.2104 36.0022 30.2155 35.9957 30.221C35.9874 30.228 35.9793 30.2353 35.9713 30.2428L35.9564 30.2564C35.9479 30.2642 35.9393 30.2719 35.9311 30.2802C35.9248 30.2865 35.9187 30.2934 35.9127 30.3002L35.9024 30.3116C35.892 30.323 35.8816 30.3344 35.8749 30.3427L32.8096 34.1737C32.6608 34.3596 32.5934 34.5923 32.6197 34.8289C32.646 35.0654 32.7629 35.2775 32.9487 35.426C33.1061 35.5521 33.3037 35.6215 33.505 35.6215C33.7776 35.6215 34.0316 35.4997 34.2018 35.2873L35.6694 33.4528C35.5354 39.5896 30.5014 44.5404 24.333 44.5404C23.8413 44.5404 23.4414 44.9403 23.4414 45.4319C23.4414 45.9234 23.8413 46.3232 24.333 46.3232C31.4867 46.3232 37.3218 40.5692 37.4527 33.4461L38.9255 35.2873C39.0953 35.4997 39.3492 35.6215 39.622 35.6215C39.8251 35.6215 40.0176 35.5541 40.1788 35.4262C40.3646 35.2779 40.4815 35.0658 40.5077 34.8291C40.5341 34.5924 40.4667 34.3597 40.3182 34.1738L37.2605 30.3515Z"/>
</svg>
