<svg width="72" height="49" viewBox="0 0 72 49" xmlns="http://www.w3.org/2000/svg">
<mask id="mask0" mask-type="alpha" maskUnits="userSpaceOnUse" x="0" y="0" width="72" height="49">
<path fill-rule="evenodd" clip-rule="evenodd" d="M0 0H71.3767V48.9269H0V0Z"/>
</mask>
<g mask="url(#mask0)">
<path fill-rule="evenodd" clip-rule="evenodd" d="M66.2599 42.7276H68.2541V35.5595H66.2599V42.7276ZM37.3559 42.7036H39.367V35.5626H37.3559V42.7036ZM39.4421 20.0149H66.2088V18.0195H39.4421V20.0149ZM37.3779 46.8373H68.2708V44.8393H37.3779V46.8373ZM37.321 21.1188H17.7831V46.8235H19.8116V45.9978C19.8117 39.5511 19.8114 33.1045 19.8119 26.6579C19.812 25.5175 20.1171 25.2143 21.2646 25.2142C26.3574 25.2137 31.4503 25.2141 36.5431 25.2141H37.321V21.1188ZM67.0929 15.9006C66.953 15.768 66.9105 15.7181 66.8591 15.6806C62.4657 12.4848 58.0673 9.29565 53.6857 6.08383C53.3299 5.8231 53.1279 5.94457 52.8485 6.13657C48.2829 9.27296 43.7139 12.4042 39.1464 15.5376C39.0145 15.6281 38.8898 15.7292 38.6617 15.9006H67.0929ZM47.6949 42.7046H57.9348V27.286H47.6949V42.7046ZM15.5863 18.9815H37.3004V17.9783C36.9543 17.9783 36.6555 17.9785 36.3566 17.9783C36.0344 17.9783 35.6858 18.0559 35.3961 17.9586C35.0232 17.8331 34.5935 17.6431 34.3756 17.3442C34.0469 16.8935 34.2903 16.3934 34.9173 15.9621C38.1728 13.7219 41.4311 11.4856 44.6878 9.24665C44.8902 9.10739 45.0863 8.95884 45.3976 8.73331C45.158 8.71191 45.0605 8.69553 44.9631 8.69553C37.592 8.69437 30.2212 8.68973 22.8503 8.71371C22.6011 8.71461 22.267 8.94595 22.1173 9.16761C20.0255 12.2641 17.9588 15.3775 15.8872 18.4875C15.7948 18.6263 15.7132 18.7723 15.5863 18.9815ZM37.3024 33.4305V27.3126H21.9138V46.8424H35.2853V46.1159C35.2853 42.5058 35.3159 38.8954 35.2709 35.2859C35.2519 33.7748 35.602 33.3345 37.0723 33.4622C37.1335 33.4675 37.1969 33.4458 37.3024 33.4305ZM66.1868 33.4303V22.1543H39.45V33.4666C39.6316 33.4666 39.76 33.4655 39.8885 33.4667C41.2164 33.479 41.4601 33.7242 41.4601 35.0497C41.4603 37.263 41.4602 39.4764 41.4602 41.6898V42.7081H45.6011V41.9024C45.6012 36.788 45.6003 31.6737 45.6019 26.5593C45.6021 25.5518 45.9427 25.2151 46.9593 25.2147C50.8487 25.2132 54.7383 25.2134 58.6279 25.2145C59.7145 25.2147 60.0281 25.5359 60.0284 26.6456C60.0289 31.7601 60.0286 36.8745 60.0286 41.9888V42.7164H64.1695V41.9901C64.1695 39.7553 64.2083 37.5195 64.1561 35.2859C64.1205 33.7733 64.4874 33.3344 65.9566 33.4622C66.0178 33.4675 66.0813 33.4458 66.1868 33.4303ZM15.6853 21.0729C15.0018 21.0729 14.3757 21.1334 13.7694 21.0501C13.4077 21.0005 12.996 20.7994 12.7521 20.5333C12.4255 20.1767 12.5947 19.7321 12.8518 19.347C15.5463 15.3109 18.2418 11.2756 20.9246 7.23185C21.2572 6.73037 21.7053 6.63959 22.2534 6.64011C30.7404 6.64797 39.2275 6.64127 47.7144 6.65571C48.2587 6.65661 48.6994 6.52186 49.1386 6.20788C50.1866 5.45895 51.2623 4.74871 52.3274 4.02364C53.2829 3.37323 53.4411 3.38677 54.3726 4.06529C59.7369 7.97239 65.1049 11.8745 70.4717 15.7784C70.5933 15.8668 70.7128 15.9581 70.836 16.0444C71.2641 16.3442 71.4926 16.736 71.3175 17.2596C71.1462 17.7712 70.7537 17.9863 70.2211 17.9799C69.6019 17.9724 68.9823 17.9781 68.3225 17.9781V33.4667C68.5622 33.4667 68.7907 33.4654 69.0191 33.467C69.9928 33.4738 70.3429 33.8155 70.3434 34.78C70.3456 39.0558 70.3443 43.3316 70.3443 47.6072C70.3443 47.6717 70.3462 47.7363 70.3436 47.8006C70.3153 48.5223 69.9399 48.8976 69.2175 48.9247C69.0887 48.9294 68.9597 48.9257 68.8307 48.9257C51.6202 48.9257 34.4099 48.9258 17.1994 48.9257C15.9665 48.9256 15.6856 48.645 15.6854 47.4144C15.6853 38.9274 15.6854 30.4403 15.6853 21.9533V21.0729Z"/>
<path fill-rule="evenodd" clip-rule="evenodd" d="M29.6273 29.3404C31.1092 29.3404 32.5909 29.3359 34.0728 29.3423C34.8575 29.3457 35.2728 29.7122 35.2686 30.3716C35.2645 31.0294 34.8515 31.3859 34.0588 31.3871C31.0951 31.3913 28.1315 31.3909 25.1679 31.3873C24.3678 31.3864 23.9541 31.042 23.9398 30.3899C23.9249 29.7129 24.3545 29.3441 25.1819 29.3417C26.6637 29.3373 28.1454 29.3404 29.6273 29.3404Z"/>
<path fill-rule="evenodd" clip-rule="evenodd" d="M54.8881 36.5441C54.3357 36.5502 53.8623 36.0861 53.8563 35.5326C53.8502 34.98 54.3139 34.5069 54.8676 34.5008C55.4203 34.4946 55.8935 34.9584 55.8996 35.5123C55.9056 36.0642 55.4412 36.538 54.8881 36.5441Z"/>
<path fill-rule="evenodd" clip-rule="evenodd" d="M15.6627 43.2965H9.34178V23.7665H15.5619L15.5511 21.6683C13.265 21.6683 10.9788 21.6681 8.69253 21.6683C7.54516 21.6684 7.24007 21.9715 7.23994 23.1118C7.23943 29.5585 7.23968 36.0053 7.23968 42.4519V43.2775H5.21108V17.5729H14.0371L15.4651 15.4356H3.01421C3.14122 15.2263 3.22272 15.0802 3.31517 14.9415C5.38684 11.8315 7.45361 8.71807 9.54539 5.62166C9.6951 5.4 10.0292 5.16854 10.2782 5.16777C17.6491 5.14378 25.0201 5.14829 32.391 5.14958C32.4885 5.14958 32.5861 5.16583 32.8257 5.18724C32.5144 5.41277 32.3183 5.56144 32.1157 5.70071C31.7011 5.98568 31.2864 6.27065 30.8719 6.55563L34.4741 6.57291C36.4086 5.24604 38.3429 3.91891 40.2765 2.59062C40.5559 2.39862 40.758 2.27715 41.1136 2.53788C42.9802 3.90589 44.85 5.2695 46.7208 6.6317L48.1084 6.63828L49.2739 5.95834C46.7824 4.14599 44.291 2.33324 41.8007 0.519342C40.8692 -0.15905 40.7108 -0.172719 39.7554 0.477692C38.6903 1.20276 37.6145 1.91288 36.5666 2.66193C36.1275 2.97592 35.6868 3.11067 35.1425 3.10977C26.6554 3.09532 18.1685 3.10203 9.68143 3.09416C9.13328 3.09365 8.68531 3.18443 8.35263 3.6859C5.66975 7.72969 2.97436 11.765 0.279878 15.801C0.0227573 16.1862 -0.146551 16.6308 0.180073 16.9872C0.424042 17.2534 0.83577 17.4545 1.19747 17.5042C1.80365 17.5875 2.42969 17.5269 3.11337 17.5269V18.4073C3.11337 26.8944 3.11324 35.3814 3.1135 43.8685C3.1135 45.099 3.3946 45.3796 4.62747 45.3796H15.6734L15.6627 43.2965Z"/>
</g>
</svg>
