<svg width="73" height="49" viewBox="0 0 73 49" xmlns="http://www.w3.org/2000/svg">
<mask id="mask0" mask-type="alpha" maskUnits="userSpaceOnUse" x="0" y="0" width="73" height="49">
<path fill-rule="evenodd" clip-rule="evenodd" d="M0 0H72.5217V48.991H0V0Z"/>
</mask>
<g mask="url(#mask0)">
<path fill-rule="evenodd" clip-rule="evenodd" d="M35.8183 46.7349H69.1687V44.5781H35.8183V46.7349ZM35.7947 42.2723H37.9657V34.5633H35.7947V42.2723ZM32.5772 14.8958C32.8125 15.2185 33.2763 15.4237 33.6789 15.5591C33.9917 15.6642 34.3678 15.5804 34.7158 15.5804C35.0385 15.5805 35.3611 15.5804 35.7347 15.5804V16.6634H12.2933C12.4303 16.4375 12.5184 16.2799 12.6182 16.13C14.8546 12.7726 17.0857 9.4117 19.3439 6.06898C19.5055 5.82955 19.8662 5.57981 20.1351 5.57898C28.0923 5.55309 36.0496 5.55796 44.0069 5.55921C44.1121 5.55921 44.2174 5.57689 44.476 5.59986C44.14 5.84347 43.9283 6.00383 43.7097 6.15417C40.194 8.57104 36.6765 10.9854 33.162 13.4038C32.4852 13.8694 32.2224 14.4093 32.5772 14.8958ZM38.0467 17.7791H66.9427V15.625H38.0467V17.7791ZM46.9561 42.2737H58.0105V25.6286H46.9561V42.2737ZM64.7267 34.2647C64.783 36.676 64.7413 39.0897 64.7413 41.5024V42.2862H60.2709V41.5008C60.2709 35.9796 60.2711 30.4584 60.2706 24.9372C60.2703 23.7392 59.9318 23.3924 58.7587 23.3921C54.5597 23.391 50.3608 23.3908 46.1619 23.3924C45.0644 23.3928 44.6968 23.7563 44.6965 24.8439C44.6949 30.3652 44.6958 35.8863 44.6958 41.4076V42.2773H40.2254V41.178C40.2254 38.7886 40.2256 36.3991 40.2253 34.0097C40.2253 32.5788 39.9622 32.314 38.5287 32.3008C38.39 32.2996 38.2515 32.3007 38.0554 32.3007V20.0885H66.9189V32.2616C66.805 32.2783 66.7365 32.3017 66.6704 32.2959C65.0843 32.158 64.6884 32.6317 64.7267 34.2647ZM66.9978 42.2984H69.1506V34.5601H66.9978V42.2984ZM52.5195 2.7967C52.8212 2.58942 53.0393 2.45829 53.4234 2.73976C58.1536 6.20707 62.9018 9.64988 67.6447 13.0999C67.7002 13.1404 67.746 13.1944 67.8971 13.3374H37.2043C37.4505 13.1524 37.5851 13.0433 37.7275 12.9455C42.6584 9.56287 47.5909 6.18257 52.5195 2.7967ZM71.9379 13.4926C71.8049 13.3995 71.6759 13.3009 71.5446 13.2054C65.7509 8.99102 59.956 4.77855 54.1649 0.560653C53.1593 -0.171702 52.9885 -0.186458 51.957 0.51569C50.8072 1.29858 49.6459 2.06518 48.5146 2.87368C48.0405 3.21264 47.5647 3.35811 46.9771 3.35713C37.8151 3.34154 28.6529 3.34892 19.4908 3.34029C18.8991 3.33973 18.4154 3.43773 18.0563 3.9791C15.1601 8.34455 12.2502 12.7008 9.34136 17.0579C9.06378 17.4737 8.88115 17.9538 9.23375 18.3385C9.49699 18.6259 9.94147 18.8429 10.3319 18.8965C10.9865 18.9863 11.6623 18.9212 12.4004 18.9212V19.8715V23.3454C13.1479 23.4526 13.9053 23.4641 14.665 23.4396V18.9707H35.757V23.3917H34.9171C33.652 23.3917 32.3868 23.3917 31.1217 23.3917C31.1587 23.442 31.1842 23.5043 31.189 23.5806C31.2331 24.2797 31.3439 24.9656 31.338 25.657H35.7369V32.2617C35.623 32.2783 35.5545 32.3017 35.4884 32.2959C33.9012 32.1581 33.5234 32.6334 33.5437 34.2647C33.5923 38.1613 33.5595 42.0589 33.5595 45.9562V46.7405H19.1242V43.6336C18.3647 43.7128 17.607 43.8036 16.8549 43.935V45.8287V46.72H14.665V43.7937C13.9099 43.8026 13.1544 43.7628 12.4004 43.7008C12.4005 44.9198 12.4004 46.139 12.4005 47.358C12.4005 48.6865 12.7038 48.9894 14.0348 48.9895C32.6143 48.9896 51.1936 48.9895 69.7731 48.9895C69.9123 48.9895 70.0517 48.9937 70.1907 48.9884C70.9707 48.9592 71.3759 48.5539 71.4064 47.7749C71.4092 47.7055 71.4071 47.6359 71.4071 47.5663C71.4071 42.9502 71.4085 38.3345 71.4061 33.7186C71.4057 32.6775 71.0276 32.3085 69.9765 32.3011C69.73 32.2994 69.4833 32.3008 69.2245 32.3008V15.5801C69.9368 15.5801 70.6057 15.5739 71.2742 15.5821C71.8491 15.589 72.2728 15.3568 72.4577 14.8045C72.6469 14.2393 72.4 13.8163 71.9379 13.4926Z"/>
<path fill-rule="evenodd" clip-rule="evenodd" d="M54.7216 35.6231C54.1253 35.6295 53.6143 35.1287 53.6077 34.5312C53.6012 33.9346 54.1018 33.4238 54.6995 33.4173C55.2961 33.4106 55.807 33.9113 55.8136 34.5091C55.8201 35.105 55.3187 35.6166 54.7216 35.6231Z"/>
<path fill-rule="evenodd" clip-rule="evenodd" d="M2.17034 42.3703H29.8578V24.9137H2.17034V42.3703ZM30.9431 44.5406H1.0851C0.485824 44.5406 0 44.0548 0 43.4554V23.8286C0 23.2292 0.485824 22.7434 1.0851 22.7434H30.9431C31.5424 22.7434 32.0282 23.2292 32.0282 23.8286V43.4554C32.0282 44.0548 31.5424 44.5406 30.9431 44.5406Z"/>
<path fill-rule="evenodd" clip-rule="evenodd" d="M10.7817 30.8743H7.59463V32.4979H10.7216V34.35H7.59463V37.4408H5.67041V29.0222H10.7817V30.8743Z"/>
<path fill-rule="evenodd" clip-rule="evenodd" d="M16.4942 29.0225H18.4184V37.441H16.4942V34.0976H13.8483V37.441H11.9241V29.0225H13.8483V32.2456H16.4942V29.0225Z"/>
<path fill-rule="evenodd" clip-rule="evenodd" d="M22.2428 34.3139H24.2152L23.2289 31.223L22.2428 34.3139ZM25.2134 37.4408L24.7924 36.1179H21.6656L21.2447 37.4408H19.1399L22.0022 29.0222H24.4557L27.3179 37.4408H25.2134Z"/>
</g>
</svg>
